<?xml version="1.0" encoding="UTF-8"?>
<svg xmlns="http://www.w3.org/2000/svg" version="1.1" viewBox="0 0 297.64 297.64">
  <defs>
    <style>
      .cls-1 {
        fill: #f5dadf;
      }
    </style>
  </defs>
  <!-- Generator: Adobe Illustrator 28.6.0, SVG Export Plug-In . SVG Version: 1.2.0 Build 709)  -->
  <g>
    <g id="Layer_1">
      <g>
        <polygon class="cls-1" points="128.8 197.49 128.8 196.56 125.75 196.56 125.75 201.74 128.8 201.74 128.8 200.8 126.85 200.8 126.85 199.5 128.8 199.5 128.8 198.56 126.85 198.56 126.85 197.49 128.8 197.49"/>
        <path class="cls-1" d="M133.63,198.74c-.06-.03-.14-.06-.24-.11-.53-.23-.8-.48-.8-.75,0-.17.07-.32.2-.43.13-.11.31-.16.53-.16.18,0,.34.04.47.11s.23.19.31.34l.65-.63c-.17-.23-.38-.41-.6-.52-.23-.11-.5-.16-.81-.16-.54,0-.98.14-1.32.41-.34.27-.51.63-.51,1.05,0,.31.09.58.26.81.17.23.49.46.94.69.09.05.22.11.39.19.5.24.75.49.75.73,0,.21-.08.37-.23.5-.15.12-.36.18-.62.18-.21,0-.41-.05-.58-.16-.17-.11-.3-.26-.38-.45l-.62.7c.14.26.35.45.63.59.28.14.62.2,1.02.2.56,0,1-.14,1.34-.43.33-.29.5-.68.5-1.16,0-.32-.11-.61-.32-.86-.21-.25-.54-.48-.97-.68Z"/>
        <polygon class="cls-1" points="140.91 196.56 137.26 196.56 137.26 197.5 138.53 197.5 138.53 201.74 139.64 201.74 139.64 197.5 140.91 197.5 140.91 196.56"/>
        <path class="cls-1" d="M143.54,201.67c.12-.12.18-.26.18-.43s-.06-.31-.18-.44c-.12-.12-.26-.18-.43-.18s-.31.06-.43.18c-.12.12-.18.27-.18.44s.06.31.18.42c.12.12.26.18.43.18s.31-.06.43-.17Z"/>
        <path class="cls-1" d="M151.18,199.33l-1.84,2.41h3.59v-.86h-1.75l.48-.59.07-.09c.8-.99,1.2-1.75,1.2-2.26,0-.45-.15-.81-.46-1.06-.31-.25-.74-.38-1.29-.38s-.96.14-1.25.42c-.3.28-.44.68-.44,1.19v.09h1.04v-.02c0-.24.06-.44.18-.58.12-.15.28-.22.47-.22.21,0,.38.06.5.17.12.12.18.27.18.48,0,.15-.05.32-.15.51-.1.19-.28.45-.53.79Z"/>
        <path class="cls-1" d="M159.01,201.17c.34-.47.51-1.13.51-1.98s-.17-1.51-.5-1.98c-.33-.47-.8-.7-1.41-.7s-1.07.24-1.41.71c-.34.47-.51,1.13-.51,1.97s.17,1.51.5,1.98c.34.47.81.71,1.41.71s1.07-.24,1.4-.71ZM156.98,200.48c-.14-.3-.22-.72-.22-1.28s.07-.99.22-1.29c.14-.3.35-.45.63-.45s.48.15.62.44c.14.29.21.72.21,1.28s-.07,1-.21,1.3c-.14.3-.35.44-.63.44s-.48-.15-.62-.45Z"/>
        <polygon class="cls-1" points="164.56 201.74 164.56 196.61 162.92 196.61 162.48 197.48 163.52 197.48 163.52 201.74 164.56 201.74"/>
        <path class="cls-1" d="M171.66,201.17c.34-.47.51-1.13.51-1.98s-.17-1.51-.5-1.98c-.33-.47-.8-.7-1.41-.7s-1.07.24-1.41.71c-.34.47-.51,1.13-.51,1.97s.17,1.51.5,1.98c.34.47.81.71,1.41.71s1.07-.24,1.4-.71ZM169.63,200.48c-.14-.3-.22-.72-.22-1.28s.07-.99.22-1.29c.14-.3.35-.45.63-.45s.48.15.62.44c.14.29.21.72.21,1.28s-.07,1-.21,1.3c-.14.3-.35.44-.63.44s-.48-.15-.62-.45Z"/>
        <path class="cls-1" d="M85.4,102.29c.68-.11,1.33-.23,1.94-.35,2.52-.48,4.52-.87,6.08.41.57.47.93,1.17.94,1.83,0,.61-.28,1.19-.83,1.67-.86.75-3.48,1.25-8,.22l-1.15-.24,7.03,5.76-.02-.63c.03-1,.74-1.63,1.57-2.07,1.18-.63,1.78-1.37,2.07-1.73l.05-.06c1.17-1.43,1.19-3.13,1.08-4.45-.22-2.64-2.05-4.46-3.66-4.84-2.17-.51-4.14-.16-6.05.18-2.11.38-4.1.73-6.03-.22-1-.49-1.62-1.21-1.61-1.88.01-.7.47-1.39,1.2-1.8,1.41-.78,5.26-.3,6.81.22l1.6.53-7.26-5.89s.01.37-.14.79c-.27.73-.65,1.05-1.24,1.45-1.37.95-2.43,2.2-2.8,3.63-.2.79-.5,4.15,1.8,6.12,1.4,1.21,3.07,1.9,6.62,1.34Z"/>
        <path class="cls-1" d="M91.34,81.28c.75.36,1.23.69,1.62,1.19.34.44.64.92.88,1.43l5.61,12.01c.2.56.7,1.94.88,2.65.06.25.1.42.12.61l.17,1.48,3.77-2.93-1.4-.53c-.5-.19-.82-.61-.99-.91l-2.74-5.87,1.25-.97,5.18,4.64c.16.24.26.51.32.8.1.5.11.91.11.92v.58s5.09-3.95,5.09-3.95l-.48-.18s-.58-.22-.91-.35c-1.54-.6-2.54-1.43-2.81-1.67l-13.58-12.16-3.68,2.86s.79-.05,1.61.35ZM99.1,87.81l-1.01.79-1.53-3.13,2.54,2.34Z"/>
        <path class="cls-1" d="M107.22,72.96l6.55,14.45c.28.62.38,1.3.3,1.97l-.18,1.48,5.8-2.63-1.23-.84c-.56-.38-1-.91-1.28-1.53l-.21-.47c2.14,1.55,4.84,1.88,7.18.82,0,0,.02,0,.03-.01l.59-.27-2.18-4.8-.29.44s-.28.43-.32.48c-.43.58-.98,1.02-1.61,1.31-1.11.5-2.42.48-3.66-.06,3.19-2.02,4.12-6.13,2.23-10.2-2.04-4.33-5.98-6.19-9.63-4.6l-4.6,2.08,1.23.84c.56.38,1,.91,1.28,1.53ZM111.8,70.25c2.85,1.75,5.19,6.75,4.73,10.1-.13,1.02-.27,1.59-.94,2.01l-5.7-12.58c.65-.17,1.2.05,1.91.47Z"/>
        <path class="cls-1" d="M128.47,63.35c.5.66.78,1.17.9,1.8.11.55.15,1.11.13,1.67l-.46,13.25c-.07.59-.26,2.05-.42,2.76-.06.25-.1.42-.17.59l-.52,1.39,4.69-.9-1.01-1.11c-.36-.4-.45-.92-.47-1.26l.22-6.47,1.55-.3,2.51,6.49c.03.29,0,.57-.07.86-.14.49-.32.86-.32.87l-.26.52,6.32-1.21-.34-.38s-.42-.46-.65-.73c-1.1-1.23-1.62-2.43-1.75-2.77l-6.58-17-4.58.88s.72.31,1.28,1.04ZM131.21,69.44l1.2,3.24-1.26.24.06-3.48Z"/>
        <path class="cls-1" d="M145.32,81.01l-.8,1.26,8.73.18.12-5.97-1.5,2.38c-.49.78-1.33,1.28-2.26,1.35l.35-16.87c.01-.68.21-1.34.58-1.91l.8-1.26-6.36-.13.74,1.29c.34.59.51,1.25.5,1.93l-.33,15.85c-.01.68-.21,1.34-.58,1.91Z"/>
        <rect class="cls-1" x="170.55" y="58.52" width="2.91" height="2.91" transform="translate(-7.91 88.48) rotate(-28.23)"/>
        <path class="cls-1" d="M166.82,85.15c2.68.81,5.68.62,8.37-.75,2.62-1.34,4.56-3.62,5.47-6.43.9-2.8.66-5.79-.68-8.42l-.07-.13c-2.81-5.41-9.54-7.55-15-4.77-5.41,2.81-7.55,9.54-4.77,14.99,1.43,2.76,3.88,4.66,6.66,5.5ZM162.98,69.35c1.3-3.36,4.54-4.82,7.87-3.56,2.39.9,4.47,3,5.7,5.76,1.24,2.77,1.41,5.74.48,8.16-1.31,3.39-4.47,4.79-7.86,3.51-2.38-.88-4.45-2.92-5.68-5.61-1.26-2.76-1.45-5.77-.52-8.26Z"/>
        <rect class="cls-1" x="175.26" y="59.94" width="2.91" height="2.91" transform="translate(-8.03 90.82) rotate(-28.21)"/>
        <path class="cls-1" d="M189.61,97.17l18.06-12.19c.19-.11.38-.21.55-.28l1.37-.57-3.86-2.81-.13,1.5c-.06.66-.44,1.28-1.05,1.69l-9.08,6.03,2.64-8.98-7.71,5.29,3.01-10.89c.16-.56.56-1.01,1.1-1.23l1.37-.57-5.16-3.76s-.06,1.15-.11,1.48c-.05.36-.21,1.01-.43,1.75l-5.64,19.87,7.7-5.29-2.64,8.98Z"/>
        <path class="cls-1" d="M199.08,104.34l-1.48.18,5.41,6.86,4.69-3.7-2.79.35c-.91.11-1.83-.22-2.47-.89l5.95-4.69c.05.35,0,.71-.14,1.03l-1.11,2.58,7.21-5.68-2.77.47c-.34.06-.7.02-1.03-.11l5.95-4.69c.5.77.61,1.75.29,2.61l-.99,2.63,4.69-3.7-5.41-6.86-.52,1.39c-.24.64-.64,1.19-1.18,1.61l-12.46,9.82c-.53.42-1.17.69-1.84.77Z"/>
        <path class="cls-1" d="M96.54,194.48s.13.78-.18,1.64c-.28.78-.55,1.29-1.01,1.74-.4.39-.85.73-1.33,1.02l-11.35,6.87c-.53.26-1.85.9-2.54,1.16-.24.09-.41.14-.59.18l-1.45.33,3.32,3.44.38-1.45c.14-.52.52-.88.8-1.08l5.54-3.35,1.1,1.14-4.06,5.65c-.23.18-.48.32-.76.41-.49.16-.9.2-.9.2l-.58.07,4.47,4.63.13-.49s.16-.61.25-.95c.43-1.59,1.15-2.68,1.36-2.98l10.64-14.81-3.24-3.36ZM90.71,204.53l-.89-.92,2.95-1.86-2.06,2.78Z"/>
        <path class="cls-1" d="M118.88,215.45l-.03-.14c-1.49-5.91-7.54-9.55-13.49-8.1-5.92,1.49-9.55,7.54-8.1,13.49.76,3.01,2.7,5.43,5.21,6.89,2.42,1.41,5.38,1.92,8.32,1.2,2-.49,3.83-1.53,5.28-3.03l.26-.26-2.34-1.36-.15.24s-.05.09-.08.13c-.03.05-.06.1-.09.15-2.05,2.99-5.45,3.64-8.46,1.6-2.11-1.4-3.66-3.87-4.23-6.77-.59-2.98-.08-5.96,1.4-8.16,2.03-2.97,5.52-3.65,8.48-1.65,2.76,1.86,4.49,5.58,4.43,9.47v.17s3.42,1.99,3.42,1.99l.1-.36c.49-1.79.51-3.7.07-5.51Z"/>
        <path class="cls-1" d="M132.21,215.73l-4.52-1.14s.52.59.71,1.48c.18.81.21,1.39.06,2.01-.14.54-.33,1.07-.59,1.57l-6.01,11.82c-.31.5-1.1,1.74-1.55,2.33-.16.2-.27.33-.4.47l-1.06,1.05,4.63,1.17-.44-1.43c-.16-.51-.02-1.02.1-1.34l2.93-5.77,1.53.39-.46,6.94c-.1.27-.24.52-.43.74-.33.39-.65.65-.66.65l-.45.36,6.24,1.57-.15-.49s-.19-.6-.29-.93c-.48-1.58-.44-2.88-.42-3.24l1.22-18.19ZM128.04,226.21l-1.25-.31,1.52-3.13-.28,3.45Z"/>
        <path class="cls-1" d="M145.27,217.38l-4.83-.08.75,1.29c.34.58.52,1.25.51,1.93l-.25,15.86c-.01.68-.21,1.34-.57,1.91l-.79,1.26,4.8.08h.03c4.81-.94,8.36-5.25,8.44-10.25l.02-1.47c.08-5.02-3.33-9.44-8.11-10.52ZM149.61,229.31c-.03,1.58-.43,6.69-4.43,8.02l.28-17.68c3.72,1.28,4.22,5.65,4.18,8.19l-.02,1.47Z"/>
        <path class="cls-1" d="M168.23,233.59c-.3.87-1,1.55-1.88,1.83l-1.59-7.41c.34.11.64.31.86.57l1.83,2.13-1.93-8.97-.79,2.69c-.1.33-.29.64-.55.88l-1.6-7.41c.91-.11,1.84.22,2.47.89l1.93,2.05-1.26-5.84-8.54,1.84,1.02,1.08c.47.49.79,1.1.93,1.77l3.34,15.51c.14.66.1,1.35-.12,1.99l-.49,1.41,8.54-1.84-1.26-5.84-.91,2.66Z"/>
        <path class="cls-1" d="M197.12,221.45l-7.51-13.97c-.32-.6-.47-1.27-.44-1.94l.08-1.49-4.38,2.35,1.75,16.22-14.42-9.41-2.95,1.59,1.28.75c.58.34,1.06.84,1.38,1.44l7.51,13.97c.32.6.47,1.27.44,1.94l-.08,1.49,4.2-2.26-1.28-.75c-.58-.34-1.06-.84-1.38-1.44l-5.11-9.51,13.37,8.71-1.89-17.32,6.13,11.41c.32.6.47,1.27.44,1.94l-.08,1.49,5.6-3.01-1.28-.75c-.58-.34-1.06-.84-1.38-1.44Z"/>
        <path class="cls-1" d="M210.29,209.4l-4.08-4.05-5.77-10.49c-.08-.21-.15-.42-.2-.58l-.36-1.44-3.37,3.39h0l1.46.35c.64.16,1.2.63,1.52,1.31l3.12,5.51-6.05-3.09c-.53-.25-.91-.71-1.05-1.28l-.36-1.44-4.5,4.53.52.11s.61.12.92.22c.35.11.97.37,1.66.69l9.8,4.88,4.09,4.06c.48.48.82,1.08.98,1.73l.36,1.45,4.48-4.51-1.45-.35c-.66-.16-1.26-.49-1.74-.97Z"/>
        <g id="vatD2I">
          <path class="cls-1" d="M118.26,161.68c-.16.53-.33,1.01-.44,1.51-.49,2.21-.81,4.43-.62,6.7.08.92.23,1.83.36,2.74.07.49.14.98.26,1.46.08.32.2.65.37.93.2.34.16.66-.04.95-.48.7-.99,1.39-1.51,2.06-.12.15-.34.27-.53.31-1.37.32-2.37,1.17-3.21,2.24-.22.28-.35.61-.52.92-.09.15-.18.31-.27.46-.3.52-.73.84-1.36.82-1.58-.05-3.16.01-4.74,0-.4,0-.81.02-1.21,0-.45-.03-.87-.29-1.19-.56-.16-.77-.01-1.47.33-2.13.17-.32.38-.64.64-.89.72-.68,1.62-1.07,2.56-1.35.25-.08.51-.15.77-.21,1.7-.44,2.67-1.62,3.18-3.21.3-.93.15-1.91-.11-2.83-.42-1.52-.89-3.02-1.36-4.53-.68-2.17-1.18-4.38-1.42-6.64-.02-.19-.02-.39-.03-.65-.38.05-.75.06-1.1.14-1.52.32-3.06.61-4.56,1.02-1.07.29-2.09.79-3.14,1.17-2.03.73-4.08,1.43-6.12,2.15-.1.03-.19.08-.31.13.08,1.35.43,2.63.72,3.92.28,1.22.76,2.35,1.34,3.46.66,1.27,1.24,2.59,1.84,3.89.44.97.29,1.96-.65,2.64-.27.2-.53.42-.77.65-.62.56-1.15,1.2-1.55,1.95-.38.72-.86,1.4-1.66,1.73-.22.09-.47.17-.71.17-1.33,0-2.66.02-3.99,0-.83-.01-1.66-.08-2.49-.1-.38-.01-.72-.36-.59-.71.3-.82.52-1.7,1.32-2.24.54-.36,1.12-.61,1.74-.78.84-.22,1.69-.41,2.54-.59.73-.16.87-.28.97-1.03.06-.52-.02-1-.3-1.47-1.03-1.71-2.28-3.25-3.58-4.75-1.03-1.18-1.95-2.44-2.63-3.86-.24-.49-.4-1.02-.61-1.56-.91.03-1.81.24-2.71.52-.95.3-1.59.99-2.27,1.62-1.05.98-1.99,2.07-2.8,3.26-.39.57-.83,1.11-1.23,1.67-1.01,1.41-1.64,3.01-2.18,4.65-.16.49-.35.96-.52,1.45-.12.34-.35.57-.69.68-.67.22-1.35.44-2.03.64-.45.13-.8.38-1.06.75-.92,1.3-2.21,1.86-3.76,1.85-1.33,0-2.66.04-3.99,0-.55-.02-1.1.07-1.64,0-.53-.07-.74-.87-.4-1.29.79-.99,1.63-1.92,2.62-2.71.76-.61,1.68-.86,2.65-.7.97.17,1.74-.11,2.25-.92.49-.78.96-1.58,1.33-2.42,1.13-2.59,1.99-5.27,2.68-8,.19-.76.17-1.46-.07-2.22-.5-1.55-1.36-2.81-2.59-3.88-1.16-1-2.45-1.72-3.89-2.24-1.65-.6-3.28-1.24-4.82-2.11-1.64-.93-2.79-2.27-3.55-3.97-.11-.25-.25-.45-.47-.62-1.16-.88-1.95-2.06-2.47-3.4-.38-.98-.37-2.01-.16-3.04.11-.54.27-1.06.38-1.6.03-.16,0-.35-.03-.52-.33-1.79-.29-3.56.34-5.29.29-.78.83-1.36,1.47-1.84.68-.51,1.43-.92,2.11-1.43.54-.4,1.05-.85,1.49-1.35.43-.49.64-1.11.48-1.78-.16-.7-.61-.98-1.29-.79-.73.2-1.45.45-2.16.72-.63.24-.96.76-1.1,1.4-.04.17-.09.33-.14.53-.08-.07-.13-.1-.15-.14-.56-1.18-1.13-2.37-1.66-3.56-.16-.35-.24-.74-.3-1.12-.09-.52.09-.98.39-1.4.13-.18.28-.36.42-.54-1.04-1.34-.97-2.25-.52-3.24-.54-.37-.45-.98-.48-1.53-.02-.41.32-.89.76-.98.47-.09.93-.24,1.39-.34.94-.2,1.74-.67,2.34-1.38.64-.76,1.36-1.32,2.3-1.64,1.03-.35,1.77-1.05,2.4-1.94.65-.93,1.41-1.77,2.35-2.44,1.17-.82,2.46-1.05,3.84-.92.69.07,1.37.1,2.06-.05.3-.06.63-.05.94,0,.59.09,1.18.22,1.77.37.56.15,1.01.5,1.44.88.15.13.35.24.55.29,1.44.34,2.68,1.02,3.69,2.1.86.92,1.68,1.87,2.55,2.78.66.69,1.36,1.35,2.08,1.98.26.23.6.38.93.49,1.27.43,2.33,1.2,3.31,2.08.57.51,1.11,1.05,1.59,1.64.53.64.95,1.36,1.12,2.2.03.13.11.26.18.38.6.98,1.01,2.04,1.24,3.15.12.6.14,1.23.1,1.85-.05.77-.19,1.54-.32,2.31-.03.2-.02.34.15.46.25.17.48.37.74.52,2.32,1.3,4.8,2.17,7.43,2.64.42.07.82.22,1.24.28,1.47.2,2.95.4,4.42.57,1.76.2,3.52.37,5.28.56.51.05,1.02.12,1.53.15,1.33.06,2.64.27,3.94.57,1.47.33,2.94.62,4.39,1.07,2.17.67,4.09,1.75,5.9,3.1,1.6,1.19,2.99,2.61,4.4,4.01,1.02,1.01,2.13,1.93,3.26,2.8.73.57,1.67.78,2.57.98,1.62.37,3.26.47,4.89.06.68-.17,1.29-.47,1.85-.9.85-.65,1.08-1.49.85-2.5-.28-1.23-1.03-2.17-1.94-2.98-.95-.84-2.02-1.48-3.22-1.93-1.63-.6-3.24-1.25-4.87-1.84-.75-.27-1.53-.44-2.29-.67-.37-.12-.74-.26-1.09-.43-1.52-.74-2.89-1.67-3.8-3.14-1.05-1.68-1.47-3.48-.95-5.44.26-.97.83-1.75,1.49-2.48,1.01-1.13,2.35-1.68,3.74-2.13.6-.19,1.2-.43,1.87-.37,1.23.11,2.42.34,3.47,1.06.58.4,1.18.78,1.81,1.11,1.71.88,3.24.45,4.54-1.05.34-.39.61-.83.9-1.25.75-1.13,1.68-2.1,2.7-2.99.49-.43,1.05-.71,1.67-.9.08-.02.16-.06.28-.1-.08-.29-.15-.55-.23-.84-.79-.2-1.54-.04-2.28.24-.68.26-1.3.63-1.84,1.14-.48.44-.99.86-1.52,1.25-1.52,1.13-3.22,1.86-5.11,1.86-1.64,0-3.16-.55-4.43-1.67-.96-.85-1.85-1.76-2.66-2.75-.82-1.01-1.32-2.17-1.5-3.47-.11-.82.1-1.5.75-2.04.85-.7,1.74-1.33,2.73-1.82.63-.32,1.25-.67,1.88-.99.87-.44,1.82-.58,2.77-.7,1.67-.2,3.2.31,4.67,1,.97.46,1.88,1.07,2.79,1.64,1.26.79,2.51,1.61,3.76,2.4.25.16.53.26.8.39.06-.08.1-.12.12-.17.24-.58.52-.74,1.14-.66.15.02.32.05.45-.01.26-.12.48-.06.7.06.77-.65,2.14-.75,2.81.32.78-.76,1.58-1.48,2.33-2.26,1.31-1.38,2.74-2.62,4.28-3.74.41-.3.87-.55,1.31-.82.59-.36,1.23-.3,1.86-.23,1.12.14,2.14.53,3.14,1.09,1.09.61,2.14,1.26,3.18,1.93,1.15.74,1.74,1.85,1.82,3.2.05.85-.23,1.65-.67,2.37-.75,1.24-1.52,2.48-2.32,3.69-.29.44-.67.83-1.04,1.2-.41.41-.93.64-1.52.68-.72.05-1.45.17-2.17.17-.54,0-1.09-.11-1.62-.24-1.01-.27-2-.6-3.01-.88-1.19-.33-2.28-.88-3.38-1.4-.54-.26-1.09-.52-1.65-.74-.27-.11-.58-.16-.88-.18-.44-.03-.57.08-.71.48-.05.13-.08.27-.12.4.39.34.77.68,1.16,1.01,1.08.91,1.9,2.05,2.7,3.2.3.44.6.88.92,1.3.11.15.28.28.45.35,1.08.48,2.16.57,3.29.09.77-.33,1.49-.75,2.18-1.22.78-.54,1.65-.79,2.59-.88.14-.01.28-.08.42-.08.42-.01.86-.08,1.26.01.7.16,1.39.43,2.08.65.85.27,1.52.8,2.09,1.49.21.26.45.5.7.73.87.79,1.25,1.86,1.46,2.95.49,2.63-.44,4.81-2.35,6.6-.9.84-1.99,1.43-3.13,1.88-.62.25-1.3.35-1.93.56-1.29.44-2.58.9-3.86,1.37-.76.28-1.52.58-2.27.91-1.47.64-2.76,1.53-3.76,2.8-.58.74-.97,1.56-1.02,2.52-.04.78.28,1.37.86,1.85.67.55,1.45.9,2.3,1.05,2.36.41,4.64.1,6.78-.96.73-.36,1.35-.97,1.97-1.52.96-.87,1.88-1.77,2.8-2.68,1.11-1.1,2.29-2.11,3.55-3.04,1.82-1.34,3.79-2.35,5.97-2.96,2.31-.64,4.64-1.19,7.01-1.46,2.36-.27,4.72-.49,7.08-.69,2.94-.24,5.84-.7,8.68-1.48,1.14-.32,2.27-.72,3.35-1.2.82-.36,1.57-.89,2.34-1.35.24-.14.28-.32.2-.59-.27-1-.31-2.03-.31-3.06,0-.4.06-.81.16-1.2.26-1.07.65-2.1,1.23-3.04.06-.09.11-.19.13-.29.33-1.41,1.18-2.49,2.22-3.42.66-.59,1.36-1.14,2.08-1.64.47-.33,1.01-.6,1.55-.79.69-.24,1.28-.63,1.77-1.14,1.08-1.12,2.13-2.27,3.19-3.42.89-.97,1.82-1.9,3.07-2.41.44-.18.91-.3,1.35-.46.21-.08.43-.16.59-.31.59-.54,1.27-.89,2.06-1.03.33-.06.66-.12.99-.2.42-.1.84-.11,1.26.02.59.17,1.19.07,1.79.05.58-.02,1.17-.06,1.75.02,1.52.21,2.67,1.08,3.65,2.21.45.52.87,1.07,1.29,1.62.36.48.79.86,1.33,1.11.37.18.72.4,1.11.51.67.19,1.14.63,1.57,1.14.77.92,1.71,1.52,2.9,1.75.36.07.73.16,1.08.26.53.15.84.6.79,1.16,0,.09-.03.18-.02.26.02.43-.09.8-.45,1.08.58,1.2.34,2.25-.53,3.23.04.06.07.12.12.16.87.88.89,1.88.41,2.94-.41.9-.86,1.79-1.29,2.68-.15.32-.29.64-.49,1.08-.08-.26-.14-.41-.17-.57-.14-.69-.51-1.22-1.17-1.47-.69-.26-1.4-.5-2.11-.7-.77-.21-1.41.37-1.33,1.18.05.52.19,1.02.54,1.42.47.54.98,1.02,1.59,1.4.7.45,1.41.9,2.08,1.39.91.67,1.46,1.57,1.7,2.67.3,1.35.35,2.71.11,4.06-.09.48-.05.91.08,1.39.28,1.06.5,2.14.28,3.25-.05.28-.09.57-.2.82-.55,1.33-1.3,2.52-2.46,3.41-.23.18-.39.38-.51.65-.8,1.81-2.07,3.17-3.83,4.12-1.49.8-3.06,1.41-4.64,1.99-1.47.54-2.75,1.34-3.94,2.35-1.45,1.23-2.21,2.83-2.67,4.61-.03.13-.03.28,0,.41.31,1.62.76,3.21,1.31,4.76.45,1.27.9,2.54,1.39,3.79.42,1.07.91,2.12,1.66,3.02.13.16.29.31.47.43.45.29.94.39,1.47.29,1.12-.2,2.1.09,2.96.82.89.76,1.69,1.62,2.42,2.53.36.45.16,1.25-.4,1.31-.65.07-1.3-.02-1.96,0-1.28.04-2.55,0-3.83,0-1.12,0-2.12-.4-2.97-1.15-.22-.2-.41-.44-.59-.68-.28-.38-.63-.66-1.1-.78-.53-.14-1.05-.34-1.58-.47-.69-.17-1.09-.56-1.3-1.25-.28-.93-.62-1.85-.98-2.75-.44-1.11-.96-2.17-1.68-3.13-1.15-1.51-2.18-3.11-3.57-4.42-.49-.46-.96-.95-1.5-1.36-.37-.28-.83-.46-1.28-.63-.81-.31-1.67-.44-2.54-.48-.18.48-.32.95-.52,1.4-.47,1.04-1.08,2-1.79,2.89-.58.73-1.24,1.41-1.81,2.16-.99,1.3-2.07,2.53-2.82,3.99-.32.61-.23,1.24,0,1.85.11.3.41.31.66.37.83.19,1.66.36,2.49.57.44.11.88.27,1.3.46.82.38,1.44.96,1.68,1.88.05.19.15.36.22.54.19.5-.08.99-.61,1-1.79.03-3.58-.03-5.37,0-.41,0-.83.07-1.22,0-.33-.06-.68-.22-.95-.42-.31-.22-.56-.53-.81-.83-.18-.22-.34-.46-.47-.71-.48-.98-1.23-1.73-2.09-2.37-1.16-.86-1.34-1.82-.71-3.12.74-1.51,1.5-3.02,2.19-4.55.35-.77.6-1.59.82-2.41.36-1.3.66-2.61.77-3.98-.09-.05-.18-.11-.28-.14-2.35-.73-4.69-1.51-6.96-2.48-1.89-.81-3.85-1.32-5.86-1.68-.56-.1-1.12-.19-1.68-.28-.14-.02-.27-.02-.43-.02-.08.64-.14,1.25-.23,1.86-.32,2.14-.86,4.23-1.54,6.29-.41,1.24-.79,2.5-1.11,3.77-.19.75-.31,1.53-.15,2.31.07.33.14.66.28.96.61,1.28,1.49,2.27,2.94,2.64.86.22,1.72.45,2.48.93.34.22.7.43.98.72.63.63.89,1.43.92,2.3,0,.19,0,.39,0,.61-.47.34-.97.69-1.58.6-.31-.05-.63,0-.95,0-1.65.02-3.3-.02-4.95,0-.37,0-.66-.24-.86-.53-.25-.37-.48-.75-.7-1.13-.77-1.35-1.86-2.31-3.38-2.72-.38-.1-.66-.3-.88-.62-.36-.53-.74-1.04-1.13-1.55-.33-.43-.43-.83-.13-1.36.24-.42.36-.93.43-1.41.26-1.8.6-3.6.53-5.44-.08-1.88-.37-3.73-.86-5.55-.06-.24-.17-.46-.27-.74-.43.22-.79.46-1.01.9-.85,1.68-1.8,3.3-3.02,4.75-.69.83-1.4,1.65-2.17,2.41-.96.95-2.14,1.55-3.37,2.1-1.27.57-2.62.87-3.93,1.3-.24.08-.48.14-.7.25-.32.17-.56.41-.65.79-.15.62-.38,1.21-.52,1.83-.08.34-.05.7-.07,1.06-.02.35.15.58.46.7.26.1.54.17.81.24,1.65.38,2.97,1.22,3.81,2.73.16.29.28.57.21.91-.1.52-.63,1.12-1.17,1.1-.95-.04-1.91.03-2.86,0-.96-.03-1.91-.03-2.87,0-.63.02-1.09-.47-1.42-1.03-.5-.84-1.04-1.65-1.58-2.46-.15-.23-.37-.43-.58-.6-.67-.54-.97-1.21-.77-2.06.1-.43.25-.85.37-1.28.31-1.07.65-2.14.9-3.22.16-.69.19-1.4.24-2.11.04-.5.24-.88.69-1.12.67-.36,1.34-.73,2.02-1.06,2.45-1.17,3.93-3.14,4.63-5.72.39-1.44.6-2.91.79-4.39.16-1.24.5-2.46.76-3.69.04-.18.08-.37.14-.63-.19.12-.31.18-.42.26-1.9,1.25-3.98,1.99-6.24,2.28-2.13.27-4.21.11-6.23-.65-1.13-.43-2.13-1.05-2.93-1.97-1.26-1.44-1.55-3.1-1.02-4.91.45-1.53,1.38-2.75,2.53-3.8,1.56-1.43,3.41-2.4,5.32-3.27,1.05-.48,2.07-1.02,3.1-1.53,1.07-.53,2.13-1.04,3.2-1.57,1.08-.53,2.09-1.18,3.03-1.95,1.13-.91,1.52-2.17,1.89-3.47.28-.97,0-1.88-.37-2.74-.21-.5-.69-.89-1.34-.89-1.09,0-2.11.27-3.08.73-.77.36-1.5.8-2.26,1.17-1.19.59-2.4,1.15-3.6,1.72-.11.05-.23.1-.33.16-1,.68-2.07.53-3.12.2-1.32-.41-2.42-1.12-3.28-2.24-.6-.79-1.22-1.57-1.71-2.43-.6-1.06-1.2-2.13-1.82-3.19-.23-.39-.49-.76-.77-1.19-.61.59-1.01,1.23-1.39,1.89-.85,1.47-1.68,2.96-2.61,4.38-.56.85-1.19,1.69-2.04,2.29-1.14.8-2.4,1.3-3.82,1.26-.31,0-.64-.09-.92-.22-.84-.37-1.67-.77-2.5-1.18-.98-.49-1.95-1.01-2.93-1.51-.47-.24-.95-.48-1.43-.71-.72-.34-1.48-.49-2.28-.4-.51.06-1.02.11-1.52.18-.35.05-.52.28-.64.62-.4,1.13-.2,2.21.23,3.26.27.67.51,1.37,1.07,1.87.41.36.8.76,1.26,1.05.79.5,1.61.96,2.44,1.39,1.4.73,2.81,1.43,4.22,2.13,1.35.67,2.74,1.26,4.06,1.98,1.9,1.03,3.62,2.3,4.82,4.17.64.99,1.04,2.07,1.09,3.24.05,1.24-.33,2.38-1.14,3.34-.9,1.07-2.06,1.78-3.38,2.22-2.88.97-5.76.83-8.62-.06-1.28-.4-2.48-.97-3.58-1.72-.07-.05-.15-.1-.23-.14-.02-.01-.06,0-.13,0,.09.38.18.76.28,1.13.37,1.37.58,2.77.76,4.18.2,1.62.49,3.23,1.15,4.74.82,1.87,2.11,3.3,3.96,4.21.68.34,1.36.7,2.03,1.04.55.28.82.72.87,1.35.13,1.9.53,3.75,1.24,5.52.12.31.19.65.26.98.19.85-.12,1.52-.79,2.05-.2.16-.4.35-.55.56-.48.72-.94,1.46-1.41,2.19-.12.19-.27.37-.4.56-.21.31-.5.76-.86.76-.51,0-1.03-.02-1.54,0-1.04.03-2.09-.04-3.13,0-.53.02-1.06.03-1.59,0-.74-.04-1.23-1.08-.89-1.79.31-.64.73-1.21,1.28-1.68.77-.66,1.68-1.04,2.66-1.28.29-.07.58-.16.86-.26.25-.1.39-.3.39-.58.02-.77-.02-1.52-.35-2.24-.1-.21-.18-.43-.22-.65-.09-.49-.39-.8-.84-.94-.77-.26-1.55-.49-2.33-.72-1.56-.46-3.03-1.08-4.39-1.98-.94-.63-1.71-1.43-2.45-2.27-1.51-1.74-2.78-3.63-3.8-5.69-.22-.46-.59-.72-1.08-1ZM168.4,181.55c-.08-.18-.13-.31-.2-.42-.67-1.07-1.62-1.77-2.84-2.1-.38-.1-.76-.18-1.13-.28-.66-.19-.98-.68-1.09-1.31-.05-.29-.07-.61-.03-.9.12-.78.27-1.56.41-2.34.11-.62.48-1.07.98-1.4.33-.22.72-.37,1.11-.5,1.64-.52,3.3-.97,4.83-1.79.81-.43,1.55-.93,2.19-1.58,1.66-1.71,3.12-3.58,4.26-5.68.75-1.39,1.48-2.78,2.25-4.16.58-1.05,1.32-1.98,2.25-2.74.16-.13.31-.3.61-.17-1,1.16-1.8,2.41-2.33,3.83.08.01.12.04.14.02,1.12-.65,2.35-.98,3.59-1.29.32-.08.66-.16.99-.16,1.33.01,2.67-.03,3.98.11,1.62.18,3.22.5,4.82.79,1.86.34,3.6,1.05,5.34,1.76,2.56,1.06,5.16,1.99,7.83,2.73,2.45.67,4.95.88,7.47.83.32,0,.64-.09,1.03-.14-.27-.35-.52-.61-.7-.91-.18-.3-.38-.62-.44-.95-.1-.55-.15-1.13-.13-1.69.07-1.76-.24-3.46-.76-5.13-.25-.8-.68-1.47-1.25-2.07-.31-.32-.61-.64-.91-.97-.07-.08-.1-.2-.16-.32.6.04,1.24.34,1.72.91.97,1.15,1.69,2.47,2.01,3.94.26,1.19.33,2.42.42,3.63.07.92.41,1.7.94,2.44.62.86,1.4,1.55,2.21,2.22.91.76,1.81,1.54,2.67,2.36,1.17,1.12,2.15,2.41,3.08,3.72.26.36.47.75.68,1.14.67,1.24,1.02,2.6,1.5,3.91.16.45.36.9.43,1.36.06.37.23.52.54.61.51.15,1.01.32,1.53.44.77.18,1.35.57,1.75,1.26.28.48.74.77,1.28.89.43.1.87.17,1.31.17.96,0,1.91-.05,2.87-.08.37-.01.75,0,1.12-.02.47-.02.94-.06,1.46-.1-.09-.13-.12-.22-.18-.27-.62-.58-1.22-1.19-1.88-1.73-.61-.5-1.36-.67-2.15-.58-.32.03-.63.06-.95.08-.71.06-1.29-.19-1.72-.75-.25-.34-.48-.7-.68-1.07-.28-.51-.53-1.04-.76-1.58-.52-1.2-1.09-2.39-1.52-3.62-.47-1.35-.77-2.76-1.23-4.12-.37-1.11-.67-2.24-.89-3.39-.18-.92-.43-1.83-.6-2.75-.15-.8-.23-1.61-.33-2.42-.05-.37-.15-.67-.55-.82-.17-.06-.32-.22-.46-.35-1.34-1.3-2.16-2.88-2.5-4.71-.04-.19-.06-.4-.17-.55-.32-.46-.67-.92-1.03-1.35-1.06-1.27-2.38-2.21-3.75-3.12-1.49-.99-2.95-2.03-4.38-3.1-.52-.39-.89-.97-1.38-1.39-.75-.64-1.36-1.4-1.93-2.19-.44-.61-.82-1.29-1.14-1.97-.38-.81-.54-1.68-.49-2.59.01-.22,0-.45,0-.74-.23.11-.37.18-.51.25-.5.26-.98.59-1.51.77-1.89.66-3.77,1.33-5.74,1.73-1.85.37-3.7.64-5.57.81-1.18.11-2.36.25-3.54.38-.86.1-1.72.28-2.58.31-1.74.07-3.45.31-5.16.67-1.68.36-3.36.73-4.98,1.31-2.62.94-4.83,2.51-6.85,4.39-1.46,1.35-2.85,2.78-4.38,4.03-2.45,2-5.26,2.97-8.46,2.51-1.12-.16-2.16-.53-3.06-1.25-1.01-.81-1.49-1.84-1.27-3.13.09-.5.27-1,.49-1.45.59-1.21,1.53-2.11,2.61-2.89,1.19-.85,2.52-1.46,3.84-2.06,2.05-.94,4.21-1.56,6.38-2.19,2.04-.59,3.62-1.77,4.61-3.67.97-1.85.94-3.71-.12-5.53-.07-.11-.16-.21-.23-.31.3.8.3,1.61.13,2.42-.27,1.28-.74,2.47-1.73,3.4-.75.71-1.56,1.35-2.46,1.85-.68.38-1.4.68-2.12.99-1.9.82-3.81,1.65-5.72,2.44-1.08.45-2.19.85-3.1,1.61-.65.54-1.31,1.09-1.89,1.71-.93.97-1.62,2.1-1.98,3.42-.53,1.94-.01,3.48,1.57,4.71.81.63,1.73,1.03,2.72,1.28,1.75.44,3.51.43,5.27.11,2.48-.45,4.75-1.4,6.76-2.95.72-.55,1.45-1.08,2.17-1.62.01-.01.06.02.13.05-.21.41-.43.81-.63,1.22-.19.4-.44.78-.55,1.2-.4,1.56-.84,3.12-1.11,4.7-.29,1.66-.51,3.32-.97,4.95-.43,1.54-1.14,2.94-2.2,4.15-.77.88-1.69,1.56-2.73,2.09-.66.34-1.33.67-2,1-.28.14-.4.34-.42.67-.03.6-.08,1.2-.19,1.79-.23,1.24-.56,2.45-1.02,3.63-.14.35-.22.71-.33,1.06-.1.32,0,.57.28.72.4.21.64.55.85.93.46.8.93,1.59,1.38,2.4.24.44.58.61,1.08.59,1.43-.05,2.87-.07,4.31-.07.49,0,.98.06,1.54.09ZM82.78,164.65c.17.04.25.06.34.07,1.42.19,2.84.08,4.24-.05,1.69-.16,3.35-.52,4.99-1.01,2.26-.68,4.47-1.49,6.66-2.38,1.78-.72,3.54-1.46,5.44-1.81,2-.37,3.99-.85,6.04-.85.09,0,.18-.03.26-.03.99,0,1.99-.05,2.97.05,1.2.12,2.34.57,3.46,1.02.25.1.49.25.84.43-.56-1.52-1.37-2.77-2.37-3.93.3-.13.45.04.61.17.91.73,1.63,1.63,2.2,2.64.66,1.17,1.3,2.36,1.92,3.56,1.15,2.24,2.65,4.23,4.34,6.09,1.26,1.38,2.87,2.17,4.58,2.8.95.35,1.93.61,2.89.91,1.02.32,1.75.92,1.98,2.01.1.48.22.96.27,1.45.06.52.11,1.06.07,1.58-.05.69-.43,1.19-1.13,1.39-.24.07-.48.12-.72.17-1.37.29-2.45.99-3.2,2.19-.07.11-.12.24-.21.43.56-.04,1.05-.1,1.54-.1,1.45,0,2.91.03,4.36.07.46.01.79-.14,1-.54.1-.19.23-.36.34-.54.36-.63.72-1.26,1.07-1.9.21-.37.45-.72.85-.93.29-.15.38-.4.29-.72-.1-.34-.18-.69-.31-1.02-.69-1.74-1.13-3.54-1.23-5.41-.02-.4-.18-.62-.51-.78-.64-.31-1.27-.63-1.9-.95-1.04-.53-1.96-1.21-2.73-2.09-1.06-1.21-1.77-2.6-2.2-4.15-.41-1.49-.66-3-.9-4.53-.25-1.55-.66-3.08-1.02-4.62-.15-.64-.38-1.25-.75-1.81-.24-.36-.42-.76-.61-1.27.67.47,1.23.86,1.79,1.26.07.05.14.11.21.16,3.32,2.64,7.08,3.81,11.31,3.33,1.49-.17,2.86-.69,4.01-1.68.71-.61,1.26-1.34,1.44-2.3.22-1.14-.02-2.22-.49-3.26-.6-1.34-1.53-2.42-2.62-3.38-.87-.76-1.81-1.42-2.89-1.87-1.9-.78-3.79-1.58-5.69-2.38-.88-.37-1.76-.76-2.63-1.15-.83-.37-1.54-.95-2.27-1.48-1.43-1.03-2.21-2.45-2.54-4.15-.11-.59-.15-1.19,0-1.79.02-.07,0-.15-.02-.24-.08.04-.12.05-.14.07-.06.09-.11.18-.16.27-.62,1.26-.79,2.57-.39,3.92.55,1.88,1.74,3.26,3.44,4.21.91.51,1.91.74,2.89,1.05,1.17.37,2.34.72,3.49,1.13,1.4.51,2.74,1.17,4.05,1.86,1.2.63,2.3,1.41,3.18,2.45.65.77,1.14,1.62,1.34,2.62.19.98.03,1.88-.61,2.65-.48.58-1.08,1.03-1.77,1.33-1.4.6-2.87.81-4.37.63-2.33-.29-4.4-1.19-6.2-2.71-.39-.33-.75-.7-1.13-1.05-.81-.74-1.65-1.45-2.43-2.23-.83-.83-1.71-1.59-2.64-2.31-1.82-1.4-3.8-2.47-6.02-3.07-1.16-.31-2.33-.59-3.5-.87-1.26-.3-2.53-.54-3.82-.63-.65-.04-1.31-.08-1.96-.15-1.51-.17-3.02-.4-4.53-.54-2.22-.21-4.43-.42-6.63-.87-2.04-.42-4-1.09-5.95-1.77-.15-.05-.28-.15-.42-.22-.5-.26-1-.51-1.59-.82,0,.29,0,.49,0,.7-.02.44-.02.89-.09,1.32-.23,1.33-.9,2.46-1.7,3.5-.61.78-1.3,1.49-1.98,2.21-.5.52-1,1.07-1.58,1.5-1.31.97-2.65,1.91-4.02,2.79-1.72,1.12-3.3,2.39-4.49,4.1-.22.32-.36.63-.43,1-.34,1.71-1.09,3.22-2.33,4.46-.21.21-.44.42-.7.56-.27.14-.38.32-.42.61-.1.83-.19,1.65-.34,2.47-.18.96-.44,1.9-.63,2.85-.22,1.13-.47,2.25-.89,3.33-.14.35-.24.71-.32,1.07-.36,1.57-.83,3.11-1.51,4.58-.61,1.32-1.16,2.66-1.8,3.97-.33.69-.79,1.31-1.61,1.52-.5.13-.98.06-1.47-.01-.87-.13-1.67.04-2.35.59-.63.52-1.2,1.1-1.79,1.66-.08.07-.12.19-.2.33.71.03,1.34.05,1.98.08.83.03,1.66.09,2.5.1.67,0,1.35-.02,2.01-.11.64-.08,1.19-.39,1.53-.95.41-.68.99-1.08,1.76-1.26.57-.13,1.12-.32,1.68-.51.13-.04.3-.16.34-.29.18-.53.31-1.09.49-1.62.39-1.12.77-2.25,1.21-3.34.63-1.55,1.74-2.79,2.78-4.07,1.19-1.47,2.66-2.65,4.1-3.85.82-.69,1.6-1.41,2.19-2.3.29-.44.56-.93.65-1.44.18-1.01.23-2.04.34-3.05.09-.81.16-1.63.52-2.37.31-.64.61-1.28.95-1.9.48-.88,1.15-1.58,2.12-1.91.1-.03.22-.02.33-.03.02.03.04.07.06.1-.34.38-.67.76-1.03,1.12-.48.48-.91,1.01-1.14,1.65-.55,1.49-.89,3.02-.94,4.61-.03.81-.08,1.63-.1,2.44-.01.47-.19.86-.46,1.22-.21.28-.44.55-.7.9ZM234.2,127.14c.06.11.09.15.1.19,0,.14.02.28,0,.42-.12,1.49.19,2.9.82,4.23.46.96.99,1.88,1.49,2.82.1.19.23.36.36.53.48.63.97,1.27,1.45,1.9.7.9,1.14,1.91,1.39,3.02.09.37.21.77.42,1.08.79,1.17,1.36,2.44,1.88,3.74.67,1.65.97,3.32.71,5.09-.03.21,0,.43,0,.65.04.02.07.03.11.05.29-.35.6-.68.87-1.05.71-.96,1.22-2.03,1.13-3.24-.06-.87-.3-1.74-.54-2.59-.17-.61-.54-1.12-1.04-1.57-.65-.6-1.2-1.3-1.81-1.95-1.84-1.96-3.24-4.16-3.87-6.81-.02-.08-.01-.17-.02-.26.97,1.63,1.81,3.3,2.96,4.8,1.15,1.49,2.54,2.74,3.9,4.16-.08-1.14-.08-2.18-.6-3.14-.5-.91-1.19-1.67-1.83-2.48.88.41,1.52,1.11,2.2,1.76-.24-.87-.64-1.61-1.44-2.08-.64-.37-1.27-.78-1.89-1.19-.77-.5-1.44-1.1-1.88-1.92-.36-.67-.57-1.39-.26-2.14.13-.31.38-.58.58-.89-.42-.44-.84-.93-1.1-1.53.22.15.4.34.6.5.71.55,1.58.7,2.42.89,1,.23,1.94.58,2.61,1.41.03.03.09.03.14.05.26-.5.52-.98.76-1.47.22-.48.45-.96.61-1.47.22-.7-.02-1.31-.41-1.88-.35.14-.65.31-.97.39-.8.2-1.62.15-2.43.03-.21-.03-.39-.13-.48-.41.35-.13.68-.05,1.01-.07.55-.02,1.1,0,1.64-.1,1.23-.21,2.03-1.59,1.73-2.58-.13-.42-.22-.5-.64-.58-.44-.09-.87-.22-1.31-.34.85-.3,1.65-.6,2.15-1.36-.1-.31-.34-.37-.58-.44-1.09-.3-2.21-.54-3.11-1.3-.43-.36-.85-.75-1.25-1.15-.56-.56-1.24-.72-1.99-.69-.56.02-1.13.09-1.69.05-.86-.05-1.7-.26-2.36-.84-.81-.72-1.61-1.45-2.33-2.25-.66-.73-1.38-1.38-2.23-1.86-.64-.36-1.34-.63-2.08-.54-.75.09-1.49.29-2.24.45-.17.04-.36.1-.49.35,1.04-.06,2,.06,2.93.38.94.31,1.81.76,2.48,1.7-.55-.1-.91-.33-1.27-.54-1.49-.88-3.08-1.1-4.76-.78-1.33.25-2.47.87-3.43,1.81-.94.92-1.83,1.88-2.74,2.83-.29.3-.58.6-.87.9.21-.03.39-.11.53-.22.69-.55,1.39-1.1,2.07-1.67.93-.77,1.84-1.56,2.93-2.11.89-.45,1.81-.68,2.82-.59,1.63.15,3.1.71,4.5,1.51.97.55,1.91,1.16,2.96,1.56.05.02.09.04.14.06-.29.17-.53.13-.76.03-.85-.34-1.71-.68-2.55-1.05-1.17-.52-2.33-1.02-3.62-1.18-1.6-.21-2.95.3-4.19,1.26.09.02.17,0,.25-.01,1.31-.35,2.53-.14,3.65.63.51.35,1,.73,1.5,1.1.76.56,1.54,1.07,2.43,1.4.38.14.76.19,1.15.08.54-.16,1.08-.34,1.61-.53.62-.21,1.23-.45,1.86-.64.66-.19,1.31-.15,2.06.1-.66.41-1.33.4-1.94.58-.64.19-1.27.39-1.86.72.27.02.53,0,.78-.03,1.59-.25,3.18-.54,4.71-1.09.6-.22,1.12-.12,1.56.33.41.41.83.83,1.21,1.26.14.16.21.38.31.57-.32-.08-.55-.23-.8-.35-1.06-.52-2.19-.55-3.33-.49-1.08.06-2.15.18-3.22.32-1.42.19-2.83.08-4.23-.13-.8-.12-1.58-.38-2.35-.65-1.7-.59-3.43-.84-5.23-.62-.06,0-.13.02-.2.03.42.36.83.69,1.2,1.06.74.75,1.6,1.28,2.58,1.64.67.24,1.34.44,2.07.47-.1.09-.2.15-.3.17-.97.14-1.86-.14-2.75-.47-.19-.07-.39-.13-.56-.19-.59.71-.8.91-1.3,1.07-1.26.4-2.54.61-3.87.57-1.01-.03-2.01-.18-3.02,0-.28.05-.56.07-.84.08-1.43.06-2.78.47-3.99,1.17-1.93,1.12-2.88,2.97-3.47,5.05.09-.11.16-.23.23-.35.68-1.15,1.55-2.1,2.77-2.71,1.67-.84,3.45-1.15,5.28-1.26.58-.03,1.17-.03,1.75-.09,1.06-.11,2.11-.26,3.17-.37,1.11-.11,2.16-.39,3.1-1,.08-.05.17-.08.26-.13-.05.16-.13.26-.24.34-.82.59-1.72.99-2.71,1.16-.51.09-1.01.19-1.52.28-1.01.17-2.02.37-3.04.48-1.65.17-3.25.48-4.78,1.14-2.13.93-3.33,2.59-3.94,4.76.13-.11.23-.25.33-.39.66-.93,1.43-1.77,2.41-2.37.39-.24.82-.46,1.25-.54.88-.17,1.78-.29,2.68-.35.92-.06,1.84-.06,2.76-.01.83.04,1.65.19,2.48.25,1.44.11,2.83-.08,4.11-.81.56-.31,1.13-.59,1.71-.87.14-.07.31-.1.56-.18-.09.21-.12.31-.18.4-.79,1.17-1.93,1.85-3.27,2.22-1.16.31-2.36.3-3.54.2-1.16-.1-2.32-.28-3.49-.27-1.15,0-2.3.06-3.43.31-.32.07-.65.2-.93.38-.68.45-1.32.95-1.83,1.6-.87,1.1-1.56,2.29-1.81,3.68-.1.57-.08,1.17-.05,1.75.06,1.06.41,2.04,1,2.93.06.09.16.16.27.25-.02-.9-.07-1.75-.05-2.59.04-1.38.53-2.59,1.51-3.58.86-.86,1.92-1.38,3.01-1.86.09-.04.2-.02.43-.04-.17.22-.26.36-.38.48-.64.59-1.26,1.19-1.93,1.75-.79.66-1.37,1.44-1.59,2.45-.21.96-.24,1.94-.1,2.91.25,1.64,1.08,3.01,2.33,4.06,1.14.96,2.37,1.81,3.56,2.7.06.05.14.07.27.14-.25-.55-.47-1.02-.67-1.51-.56-1.3-.55-2.61-.03-3.93.57-1.45,1.55-2.57,2.78-3.49,1.37-1.02,2.74-2.02,4.15-2.97,1.8-1.21,3.59-2.41,5.08-4.01.82-.88,1.46-1.87,1.76-3.05.12-.48.26-.96.41-1.43.13-.41.27-.82.57-1.23.04.13.07.2.07.26.03.81.05,1.63.07,2.44,0,.25,0,.5.04.74.19,1.22.6,2.36,1.1,3.48.56,1.24,1.12,2.49,1.63,3.75.21.52.37,1.08.43,1.64.09.81.14,1.63.07,2.44-.08.91-.2,1.84-.61,2.68-.33.66-.55,1.32-.68,2.05-.38,2.13-1.4,3.96-2.77,5.61-.26.32-.52.64-.78.96.2-.05.33-.16.47-.25.62-.44,1.24-.89,1.88-1.3,1.53-.96,3.04-1.94,4.42-3.12.92-.78,1.69-1.65,2.28-2.7.57-1.01,1.09-2.02.91-3.25-.13-.96-.3-1.9-.85-2.71-.55-.81-1.11-1.6-1.72-2.37-1.4-1.78-2.32-3.77-2.73-5.98-.19-1.01-.08-2.03.23-3.09ZM87.98,141.14c.15-.13.24-.17.27-.24.23-.42.53-.81.67-1.26.56-1.7.63-3.39-.16-5.07-.71-1.51-1.7-2.78-3.11-3.69-.28-.18-.6-.32-.92-.39-.59-.12-1.19-.18-1.79-.24-1.43-.15-2.86-.09-4.29.09-1.43.19-2.86.25-4.28-.08-1.41-.33-2.59-1.04-3.42-2.26-.05-.08-.08-.18-.15-.36.21.05.34.07.46.12.56.27,1.11.55,1.66.83.71.36,1.43.69,2.24.8.94.13,1.87.1,2.81,0,.69-.07,1.37-.2,2.06-.23,1.35-.06,2.69.02,4.03.19,1.04.14,1.98.44,2.82,1.12.74.6,1.34,1.31,1.91,2.06.09.12.18.23.27.35-.19-.93-.57-1.76-1.11-2.52-.42-.6-.89-1.15-1.52-1.55-1.07-.68-2.22-1.18-3.47-1.45-1.08-.23-2.17-.33-3.26-.47-1.44-.19-2.86-.5-4.28-.78-.88-.18-1.67-.58-2.39-1.11-.09-.06-.15-.16-.22-.24.1-.03.17-.02.22.02.86.58,1.81.88,2.83,1.01.39.05.78.07,1.16.12,1.07.12,2.14.25,3.22.36.62.06,1.24.05,1.86.1,1.62.14,3.18.53,4.6,1.35.44.25.86.57,1.23.92.62.57,1.07,1.26,1.5,1.98-.18-.57-.38-1.13-.61-1.68-1.05-2.49-3.01-3.87-5.57-4.37-1.66-.32-3.37-.41-5.08-.27-1.33.11-2.61-.14-3.87-.52-.47-.14-.86-.42-1.15-.82-.07-.1-.16-.18-.26-.29-.29.11-.57.22-.85.32-.79.27-1.6.49-2.45.35-.1-.02-.19-.08-.37-.15.15-.05.2-.07.25-.07,1.47-.08,2.76-.62,3.89-1.53.61-.49,1.17-1.05,1.81-1.63-.85-.01-1.66-.05-2.47-.03-1.06.03-2.05.4-3.05.69-.73.21-1.45.49-2.2.61-.9.15-1.83.25-2.75.21-1.54-.06-3.06-.26-4.6-.38-1.47-.11-2.91-.06-4.18.85-.02.01-.06,0-.16-.02.12-.21.19-.43.33-.59.35-.4.72-.78,1.09-1.16.51-.52,1.08-.64,1.79-.38,1.52.56,3.12.82,4.71,1.08.22.04.44.03.66.04-.71-.4-1.45-.67-2.23-.84-.4-.09-.79-.18-1.19-.29-.1-.03-.2-.1-.35-.19.48-.22.92-.25,1.36-.22.88.05,1.68.42,2.49.73.53.2,1.07.37,1.61.54.4.12.82.1,1.2-.08.57-.28,1.16-.54,1.69-.89.83-.54,1.61-1.16,2.43-1.72.77-.52,1.64-.75,2.58-.65.37.04.74.11,1.11.16,0-.08-.06-.1-.1-.14-1.45-1.09-3.06-1.41-4.83-1.02-1.01.23-1.94.66-2.88,1.07-.84.37-1.7.71-2.55,1.05-.22.09-.46.15-.74.02.08-.06.11-.1.15-.12.97-.51,1.95-1.01,2.91-1.54,1.44-.79,2.94-1.4,4.6-1.52.65-.05,1.27,0,1.89.22,1.04.36,1.93.96,2.78,1.65.87.7,1.72,1.43,2.58,2.14.31.25.63.49,1.01.62-.27-.34-.56-.64-.85-.94-.99-1.02-1.94-2.07-2.98-3.03-1.27-1.17-2.83-1.75-4.56-1.74-1.24,0-2.42.3-3.48.99-.32.2-.65.41-1.15.46.35-.53.76-.85,1.22-1.12,1.16-.67,2.43-.96,3.77-.94.12,0,.25-.02.37-.03,0-.04,0-.09,0-.13-1.07-.4-2.16-.7-3.34-.6-.02,0-.03,0-.05.01-1.27.25-2.31.94-3.14,1.88-.77.86-1.56,1.69-2.44,2.44-.44.37-.94.74-1.48.91-.89.3-1.84.35-2.78.21-.84-.12-1.58.07-2.18.71-.13.14-.27.28-.41.41-.85.84-1.81,1.47-3,1.72-.35.07-.68.19-1.02.29-.21.06-.4.15-.46.42.5.76,1.3,1.05,2.14,1.32-.44.15-.88.28-1.32.37-.4.08-.51.16-.62.54-.34,1.13.59,2.44,1.73,2.62.54.08,1.09.07,1.64.1.32.02.66-.06.99.07-.24.38-.27.39-.64.44-1.1.13-2.19.17-3.2-.47-.54.72-.67,1.47-.33,2.27.21.51.46,1,.7,1.49.18.37.39.74.6,1.14.77-.96,1.78-1.33,2.88-1.56.79-.17,1.61-.33,2.27-.86.2-.16.38-.34.57-.51-.24.63-.67,1.12-1.11,1.59.1.1.18.19.27.28.37.38.53.84.48,1.36-.06.64-.24,1.25-.65,1.77-.46.59-1,1.11-1.63,1.51-.64.41-1.29.82-1.94,1.21-.78.47-1.15,1.2-1.39,2.04.36-.31.68-.65,1.03-.96.67-.6.83-.69,1.26-.77-1.56,1.54-2.69,3.22-2.45,5.53,1.31-1.36,2.7-2.61,3.85-4.11,1.15-1.5,1.98-3.18,2.94-4.79-.36,1.74-1.03,3.34-2.04,4.81-.95,1.38-2.16,2.53-3.26,3.78-.17.2-.32.45-.53.59-.37.26-.55.63-.74,1.02-.4.81-.53,1.68-.66,2.56-.09.66-.05,1.31.18,1.93.35.96.9,1.81,1.6,2.55.07.08.19.12.34.21-.03-.35-.08-.63-.08-.92-.01-.76-.11-1.54.02-2.28.38-2.15,1.22-4.14,2.4-5.98.31-.48.54-.99.67-1.55.18-.74.4-1.48.83-2.12.5-.73.97-1.5,1.54-2.16.6-.69,1.05-1.47,1.48-2.26.11-.2.21-.41.32-.61.91-1.67,1.47-3.41,1.3-5.34-.01-.14.02-.28.04-.42.38,1,.48,2.02.3,3.04-.36,2.04-1.21,3.88-2.41,5.56-.55.76-1.12,1.51-1.69,2.25-.63.81-.99,1.72-1.13,2.72-.12.84-.21,1.7.19,2.5.68,1.35,1.37,2.69,2.59,3.66.83.66,1.59,1.4,2.51,1.95,1.1.64,2.14,1.38,3.2,2.09.46.31.9.66,1.35.99-.19-.35-.43-.65-.67-.94-1.52-1.83-2.62-3.87-2.93-6.27-.04-.31-.17-.62-.31-.89-.33-.62-.55-1.26-.69-1.95-.17-.87-.24-1.75-.22-2.64.02-.93.15-1.84.51-2.7.53-1.26,1.07-2.51,1.64-3.75.72-1.6,1.26-3.23,1.17-5.02-.03-.6.05-1.2.08-1.8,0-.02.05-.05.1-.09.06.11.14.2.17.31.26.79.55,1.57.77,2.37.31,1.1.88,2.05,1.65,2.88,1.28,1.37,2.76,2.49,4.31,3.53,1.71,1.14,3.37,2.35,5.03,3.57.76.55,1.45,1.2,1.98,1.99.7,1.07,1.21,2.2,1.18,3.52-.01.67-.15,1.3-.42,1.91-.21.48-.43.95-.67,1.49.12-.05.19-.07.24-.11,1.11-.82,2.23-1.64,3.33-2.48,1.03-.78,1.72-1.83,2.23-3,.61-1.39.52-2.84.24-4.28-.19-.97-.78-1.72-1.54-2.36-.68-.57-1.32-1.18-1.97-1.78-.12-.11-.2-.25-.3-.38.19-.06.31-.06.42-.01.48.22.98.42,1.44.69,1.08.64,2.01,1.44,2.55,2.63.58,1.28.52,2.62.45,3.97-.01.22-.05.44-.08.78ZM67.45,130.06s-.09,0-.13,0c-.1.78-.21,1.57-.31,2.35-.05.38-.12.78-.09,1.16.17,1.77.44,3.52,1.41,5.06.69,1.09,1.38,2.19,2.14,3.23.6.83,1.31,1.58,1.95,2.38,1.24,1.54,2.35,3.15,3.11,4.99.24.58.39,1.17.45,1.79.03.33.07.67.11.96.63-.79,1.23-1.58,1.86-2.33.41-.49.87-.93,1.31-1.4.85-.89,1.45-1.92,1.78-3.1.12-.44.17-.91.15-1.36-.04-.64-.29-1.23-.57-1.81-.55-1.12-1.45-1.92-2.42-2.63-1.79-1.3-3.6-2.58-5.42-3.83-1.37-.94-2.62-2-3.76-3.19-.64-.67-1.11-1.46-1.55-2.27ZM230.26,129.95c-.25.42-.42.74-.62,1.04-.99,1.57-2.37,2.77-3.85,3.85-1.94,1.43-3.93,2.79-5.9,4.18-.32.23-.63.46-.93.7-.95.75-1.71,1.63-2.18,2.76-.38.92-.47,1.85-.16,2.8.3.93.73,1.81,1.39,2.55.42.48.86.94,1.3,1.41.74.81,1.49,1.62,2.04,2.58.04.08.11.14.2.24.12-1,.17-1.95.56-2.85.78-1.83,1.89-3.44,3.11-4.99,1-1.26,2.13-2.42,2.96-3.81.51-.85,1.1-1.66,1.53-2.55.62-1.27.84-2.66.99-4.05.1-.94-.16-1.86-.25-2.79-.03-.32-.11-.64-.19-1.07ZM193.36,181.66c-.25-1.04-.76-1.79-1.7-2.17-.72-.29-1.46-.55-2.21-.76-1.63-.45-2.74-1.5-3.54-2.94-.65-1.17-.71-2.46-.48-3.72.25-1.35.61-2.69,1.04-4,.8-2.39,1.4-4.83,1.71-7.33.05-.39.04-.8.06-1.24-.39-.02-.71-.04-1.02-.06-.64-.03-1.28-.13-1.91-.06-.86.09-1.71.29-2.55.48-.9.21-1.74.59-2.43,1.2,1.62,4.83,1.6,9.64.11,14.52.24.34.54.72.79,1.12.2.33.46.49.84.57.79.17,1.52.47,2.12,1.03.7.66,1.34,1.36,1.72,2.27.1.23.22.44.33.67.1.21.27.34.5.35.74.05,1.48.09,2.23.11.46,0,.92-.05,1.38-.06.99,0,1.98,0,3.01,0ZM109.4,159.52c0,.31-.02.55,0,.8.19,2.05.63,4.06,1.2,6.03.49,1.68,1.01,3.35,1.48,5.04.31,1.13.36,2.31.03,3.42-.54,1.8-1.68,3.14-3.51,3.79-.6.21-1.22.36-1.83.56-.59.2-1.15.46-1.63.87-.38.32-.79,1.14-.79,1.63,1.87,0,3.75,0,5.62,0,1.28,0,1.24-.03,1.79-1.14.82-1.66,2.02-2.89,3.93-3.26.16-.03.36-.1.46-.23.38-.49.72-1,1.03-1.44-1.49-4.9-1.5-9.72.11-14.53-.51-.4-1.04-.77-1.66-.94-.8-.22-1.61-.4-2.43-.56-.48-.1-.98-.15-1.47-.18-.35-.02-.71.04-1.06.06-.42.03-.84.05-1.28.08ZM230.52,138.45c-.28.48-.48.89-.73,1.27-1.04,1.59-2.14,3.13-3.39,4.56-1.21,1.38-2.27,2.86-3.06,4.52-.69,1.45-.95,2.96-.65,4.55.25,1.34.95,2.47,1.82,3.5.24.29.51.55.81.87.1-.41.17-.74.25-1.06.44-1.72,1.4-3.16,2.45-4.56.87-1.16,1.88-2.22,2.61-3.49.89-1.55,1.46-3.2,1.38-5-.06-1.46-.44-2.87-1.03-4.21-.12-.29-.27-.56-.46-.94ZM67.11,138.48c-.13.24-.23.43-.32.61-.5,1.05-.81,2.15-1.02,3.29-.15.84-.21,1.68-.07,2.54.32,2.01,1.19,3.77,2.47,5.33.94,1.15,1.88,2.31,2.66,3.58.47.76.88,1.54,1.11,2.4.12.47.26.93.4,1.43.77-.73,1.4-1.52,1.89-2.4,1.03-1.85,1.11-3.78.38-5.74-.63-1.68-1.63-3.14-2.75-4.52-.75-.92-1.57-1.79-2.26-2.75-.77-1.06-1.44-2.19-2.15-3.29-.09-.14-.19-.28-.33-.49ZM212.21,181.73c-.13-.29-.19-.51-.32-.69-.32-.47-.79-.75-1.3-.98-1.04-.47-2.16-.69-3.27-.92-.48-.1-.89-.24-.99-.8-.02-.1-.11-.18-.15-.28-.39-.9-.61-1.81-.14-2.76.79-1.58,1.93-2.92,3-4.31.59-.75,1.24-1.45,1.83-2.21.6-.77,1.12-1.6,1.5-2.5.08-.2.13-.42.2-.67-2.34-.09-4.59-.3-6.75-.96-.17.92-.32,1.81-.51,2.69-.33,1.51-.7,3-1.45,4.37-.48.89-.93,1.79-1.38,2.7-.28.55-.54,1.12-.79,1.68-.23.51-.16.75.26,1.11.19.16.38.31.56.49.67.64,1.27,1.32,1.64,2.2.18.44.45.84.72,1.23.25.37.6.54,1.08.54,1.38,0,2.76.07,4.14.09.67.01,1.34-.02,2.12-.03ZM85.51,181.72c.4.02.77.06,1.14.05,1.54-.03,3.08-.14,4.62-.08.95.04,1.5-.36,1.9-1.13.1-.19.22-.37.29-.57.23-.67.64-1.22,1.12-1.73.35-.37.74-.71,1.12-1.05.41-.37.49-.6.25-1.11-.5-1.08-.96-2.17-1.55-3.2-.98-1.73-1.67-3.55-2.06-5.49-.18-.9-.34-1.8-.51-2.74-2.18.67-4.44.86-6.79.97.14.35.21.65.36.9.5.83.97,1.69,1.56,2.47.98,1.3,2.03,2.54,3.05,3.82.59.74,1.12,1.51,1.54,2.35.2.4.34.8.33,1.27,0,.66-.27,1.23-.49,1.83-.22.6-.61.79-1.17.9-.78.16-1.55.36-2.32.58-.63.18-1.24.44-1.75.87-.31.27-.6.56-.63,1.1ZM226.57,162.48s.07,0,.11,0c.11-.42.21-.85.33-1.27.45-1.61,1.32-2.96,2.56-4.08,1.47-1.33,3.13-2.38,4.76-3.47.81-.54,1.65-1.04,2.44-1.61.87-.64,1.46-1.54,2.1-2.39.21-.28.37-.6.5-.93.37-.98.63-1.99.69-3.05.04-.66.03-1.33-.15-2.11-.17.33-.27.57-.41.79-.48.79-.86,1.66-1.47,2.33-1.06,1.19-2.26,2.26-3.61,3.12-1.14.72-2.32,1.36-3.49,2.03-1.14.65-2.26,1.33-3.17,2.3-1.21,1.29-1.86,2.82-1.76,4.58.07,1.26.37,2.51.57,3.77ZM57.78,143.67c-.22.8-.24,1.57-.15,2.35.19,1.61.61,3.1,1.69,4.39.81.96,1.69,1.8,2.75,2.48,1.66,1.06,3.28,2.17,4.89,3.31.63.45,1.22.98,1.75,1.55,1.14,1.22,1.83,2.68,2.15,4.32.03.13.08.26.12.39.24-.91.41-1.82.59-2.72.28-1.39.05-2.72-.56-3.98-.22-.46-.49-.91-.82-1.3-.99-1.14-2.23-1.96-3.55-2.66-.64-.34-1.28-.69-1.92-1.04-1.42-.78-2.68-1.79-3.9-2.85-.99-.86-1.81-1.84-2.4-3.02-.2-.41-.43-.81-.64-1.22ZM241.04,144.2c.02.23.04.45.05.68.05,1.38-.23,2.71-.72,4-.16.43-.38.84-.64,1.22-1.1,1.67-2.47,3.05-4.25,4.01-.06.03-.12.07-.18.11-1.69,1.14-3.4,2.24-5.05,3.44-1.47,1.06-2.41,2.52-2.94,4.25-.16.53-.16,1.06-.08,1.6.56-1.17,1.28-2.2,2.26-3.05.92-.79,1.83-1.57,2.95-2.06.91-.4,1.83-.77,2.76-1.12,1.05-.39,2.05-.87,3.03-1.42.81-.46,1.53-1.01,2.14-1.72.73-.86,1.37-1.77,1.53-2.92.09-.68.14-1.37.21-2.06.15-1.75-.4-3.35-1.06-4.94ZM70.44,163.49c0-.39.07-.79-.01-1.15-.25-1.16-.73-2.22-1.46-3.15-.73-.92-1.62-1.69-2.6-2.34-1.58-1.05-3.14-2.13-4.77-3.1-1.69-1-2.87-2.46-3.93-4.04-.21-.32-.35-.7-.47-1.06-.5-1.45-.77-2.93-.62-4.48-.25.62-.45,1.26-.65,1.89-.27.82-.4,1.65-.37,2.51.02.6.02,1.21.1,1.8.09.64.17,1.32.43,1.9.54,1.23,1.39,2.27,2.51,3.03.74.51,1.54.95,2.36,1.32,1.22.55,2.5.99,3.73,1.53,2.49,1.1,4.5,2.73,5.66,5.27.01.02.05.03.1.06ZM132.16,115.84c-.09.25-.18.48-.27.71-.17.43-.31.87-.51,1.28-.41.87-.4,1.72.08,2.54.89,1.54,2.2,2.56,3.93,3.03.14.04.33.04.46-.02.9-.36,1.85-.61,2.67-1.16.16-.11.34-.18.53-.25,1.12-.37,2.11-1.07,3.45-1.17-.55-.32-.99-.58-1.43-.83-1.73-1.01-3.44-2.05-5.18-3.02-1.13-.63-2.34-1.1-3.73-1.11ZM163.52,114.83c-.12.08-.24.15-.34.24-.91.78-1.83,1.57-2.74,2.36-1.24,1.07-2.51,2.08-3.97,2.83-.08.04-.14.11-.28.22.33,0,.56-.02.79,0,.58.05,1.17.06,1.74.18,1.38.3,2.63.95,3.81,1.71.43.27.84.57,1.31.88.38-.43.77-.83,1.13-1.27.76-.91,1.51-1.83,2.24-2.77.46-.6.53-1.28.12-1.94-.15-.25-.38-.47-.62-.65-.97-.75-2.04-1.32-3.18-1.81ZM147.47,119.76c-1.38-.67-2.58-1.57-3.84-2.4-.9-.6-1.79-1.21-2.72-1.77-1.23-.75-2.58-1.2-4-1.36-1.23-.14-2.43.06-3.6.47-.29.1-.56.23-.85.35.18.12.34.17.5.18.83.04,1.59.31,2.35.62,1.73.71,3.26,1.79,4.88,2.69,1.18.65,2.3,1.39,3.46,2.09.6.36,1.26.49,1.94.44.79-.06,1.57-.18,1.82-1.13,0-.03.02-.07.06-.16ZM152.8,120.41c1.02-.04,1.92-.22,2.78-.57,1.66-.68,3.04-1.8,4.41-2.93,1.06-.86,2.08-1.76,3.13-2.64.46-.38.97-.63,1.59-.66.3-.01.61-.05.92-.25-.08-.07-.12-.11-.17-.14-.11-.07-.21-.13-.32-.19-.9-.45-1.86-.67-2.86-.71-.53-.02-1.01.08-1.46.38-1.47.97-2.8,2.11-4.09,3.3-1.03.94-2.06,1.9-3.12,2.81-.49.42-.66.93-.8,1.58ZM148.42,124.04c-.72-.39-1.35-.35-1.96.13-.22.18-.46.33-.66.53-.73.7-1.44,1.41-2.04,2.24-.32.44-.63.9-.97,1.33-.82,1.02-1.66,2.02-2.47,3.06-.41.53-.92.92-1.52,1.21-.13.07-.26.14-.39.21,0,.04,0,.08,0,.12.25.08.49.2.74.22,1.29.11,2.46-.28,3.49-1.02.77-.56,1.34-1.32,1.85-2.11.87-1.35,1.68-2.75,2.53-4.12.31-.49.69-.94,1.04-1.4.1-.13.23-.25.35-.39ZM146.84,121.27c-.28.09-.46.14-.64.2-.8.28-1.59.32-2.38,0-.16-.07-.34-.08-.52-.1-.74-.08-1.46.06-2.12.36-1.06.48-2.15.94-3.15,1.53-1.57.92-3.22,1.53-5.01,1.82-.06,0-.1.06-.23.15.32.18.56.37.83.46.66.21,1.32.39,1.99.55.24.06.49.07.74.06,1.69-.12,3.21-.69,4.54-1.74.63-.49,1.23-1.01,1.86-1.5.25-.19.53-.36.81-.51.94-.5,1.93-.8,3-.75.05,0,.1-.03.16-.05.03-.13.07-.26.12-.49ZM149.88,124.12c.83,1.35,1.62,2.65,2.41,3.95.56.92,1.17,1.81,1.86,2.65.81.98,1.87,1.5,3.07,1.76.38.08.77.09,1.16.07.3,0,.62-.05.86-.32-.08-.06-.11-.1-.16-.12-.81-.34-1.46-.85-1.96-1.58-.17-.25-.38-.46-.57-.7-.73-.92-1.48-1.81-2.16-2.76-.78-1.08-1.65-2.08-2.62-2.99-.1-.09-.24-.19-.36-.18-.5.05-1,.14-1.52.22ZM164.72,114.28c.62.39,1.12.69,1.6,1.02.38.26.76.53,1.08.86.7.71,1.01,1.56.79,2.57-.11.52-.34.97-.67,1.37-.5.62-1.02,1.23-1.52,1.85-.51.63-1,1.26-1.54,1.94.42.22.78.4,1.14.59.19.1.36.06.55-.05.53-.29.91-.74,1.25-1.21.48-.66.96-1.32,1.39-2.01.43-.67.84-1.36,1.19-2.07.25-.51.41-1.07.29-1.65-.2-.98-.72-1.77-1.55-2.33-.63-.43-1.28-.83-1.93-1.22-.14-.08-.34-.15-.49-.12-.5.11-.98.28-1.59.45ZM164.75,124.96c-.38-.27-.75-.47-1.05-.76-.9-.83-1.95-1.42-3.02-1.95-1.15-.57-2.4-.81-3.68-.95-1.27-.14-2.51-.08-3.75.16-.08.02-.16.09-.28.16.11.05.15.08.2.09.91.09,1.76.41,2.59.76,1.94.82,3.82,1.77,5.84,2.42,1.06.34,2.06.37,3.15.08ZM210.9,124.86s.05.04.06.04c.03,0,.07-.02.1-.03,1.11-.56,2.24-1.06,3.5-1.17,1-.09,2.01-.19,3.01-.2.81-.02,1.63.14,2.44.11,1.06-.03,2.12-.18,3.13-.51.41-.14.77-.37,1.07-.7-.13-.02-.25,0-.36.03-1.09.36-2.19.41-3.29.1-.87-.24-1.73-.5-2.6-.76-.54-.17-1.09-.32-1.66-.27-.68.06-1.31.24-1.94.51-1.43.62-2.55,1.61-3.46,2.86ZM73.46,122.37c.4.42.87.71,1.43.84,1.12.26,2.25.45,3.41.34,1.45-.13,2.89-.04,4.34.08,1.37.12,2.61.59,3.83,1.17.08.04.16.06.31.11-1-1.36-2.18-2.36-3.68-2.99-1.17-.49-2.31-.55-3.51-.15-.87.29-1.76.54-2.65.77-.67.18-1.36.24-2.05.1-.48-.1-.96-.19-1.44-.28ZM131.14,116.06c-.12.02-.18.03-.25.04-.95.21-1.6.88-2.25,1.52-.39.37-.48.84-.38,1.37.16.82.43,1.6.84,2.33.48.84,1.15,1.52,1.81,2.21.71.74,2.18.91,3.07.42-.45-.3-.96-.57-1.38-.95-.56-.51-1.11-1.05-1.54-1.67-.75-1.07-.78-2.27-.38-3.51.18-.57.3-1.15.45-1.77ZM148.82,123.1c.33-.44.39-.93.45-1.42.03-.2.05-.41.3-.58.24.73-.21,1.35-.19,2.06.32,0,.63,0,.94.03.44.05.73-.17.9-.52.51-1.1.75-2.28.94-3.47,0-.05,0-.11,0-.16-.01-.41-.22-.61-.64-.57-.17.01-.35.09-.52.09-.22,0-.34.1-.4.27-.07.18-.09.38-.15.56-.1.34-.15.71-.56.95-.16-.53-.02-1.03-.06-1.61-.25.26-.52.41-.6.63-.21.64-.34,1.3-.5,1.95-.06.26-.12.53-.19.79-.04,0-.08-.02-.12-.02-.19-1.02.07-2,.37-2.97-.34-.08-.4.11-.35.29.07.24.01.39-.18.55-.11.09-.17.27-.22.42-.2.51-.37,1.03-.57,1.54-.11.28-.11.55-.03.83.1.37.2.47.59.47.26,0,.52-.07.76-.1ZM168.64,128.79c.01-.05.02-.1.03-.15-.29-.11-.57-.23-.87-.33-.23-.08-.48-.14-.71-.21-1.4-.42-2.7-.04-3.95.55-.46.22-.86.55-1.31.81-1.03.59-2.12.96-3.34.84-.2-.02-.41,0-.7,0,.14.2.2.34.3.42.56.49,1.22.78,1.95.91.23.04.5-.02.72-.1.51-.2,1-.45,1.49-.69.92-.45,1.83-.93,2.77-1.34,1.14-.51,2.33-.83,3.61-.7ZM139.79,130.94s-.04-.08-.06-.12c-.21,0-.42-.02-.63,0-.92.09-1.8-.1-2.62-.5-.6-.29-1.18-.65-1.75-1-1.13-.7-2.35-.99-3.65-.82-.61.08-1.19.33-1.78.52-.1.03-.19.11-.28.17,1.49-.03,2.81.45,4.1,1.06,1.23.59,2.46,1.18,3.68,1.78.32.15.67.21.98.09.54-.21,1.07-.47,1.58-.74.17-.09.29-.29.43-.44ZM66.32,133.52s-.08-.03-.13-.04c-.54,1.27-1.09,2.53-1.49,3.84-.36,1.19-.29,2.42-.17,3.63.04.42.14.84.21,1.27.13-.23.18-.45.23-.68.33-1.37.83-2.67,1.68-3.81.13-.18.07-.32.03-.49-.23-1.02-.41-2.05-.36-3.1,0-.21,0-.42,0-.63ZM230.88,137.56c1.06,1.41,1.6,3,2,4.66.08-.23.12-.45.15-.67.24-1.55.33-3.11-.19-4.62-.36-1.04-.8-2.04-1.21-3.06-.05-.13-.14-.26-.21-.39-.03,1.39-.16,2.73-.53,4.07ZM79.58,120.95s0-.08,0-.12c-.11-.03-.23-.1-.34-.09-.59.05-1.07-.22-1.53-.51-.48-.3-.94-.63-1.43-.92-.49-.29-.98-.57-1.5-.79-1.59-.67-2.89,0-4.13.97,2.1-.57,4.13-.25,6.15.39-.21.4-.28.45-.74.64-.61.25-1.17.57-1.64,1.13.57.11,1.08.23,1.61.19,1.22-.1,2.38-.5,3.53-.87ZM226.99,119.48c-.56-.45-1.15-.85-1.82-1.07-.54-.18-1.1-.21-1.68-.08-.74.17-1.4.5-2.03.91-.58.37-1.16.75-1.75,1.12-.38.23-.78.41-1.25.39-.14,0-.28.06-.42.09,0,.04,0,.09.01.13,1.66.46,3.28,1.22,5.14.65-.49-.54-1.05-.88-1.66-1.12-.31-.12-.6-.27-.71-.63,2.04-.6,4.06-.98,6.16-.39ZM236.34,117.52s.07-.08.1-.12c-1-1.07-1.98-2.17-3.01-3.21-.78-.79-1.73-1.33-2.86-1.5.07.08.15.15.24.2.73.42,1.32,1,1.89,1.61.71.76,1.46,1.49,2.25,2.18.4.35.93.56,1.39.84ZM67.18,112.66c-.15.02-.2.02-.25.03-1.11.25-2.04.81-2.82,1.61-.85.87-1.67,1.79-2.5,2.68-.13.14-.26.29-.38.44.03.03.05.07.08.1.46-.26.96-.47,1.35-.8.79-.68,1.54-1.41,2.26-2.17.59-.62,1.18-1.22,1.93-1.65.09-.05.17-.12.33-.23ZM237.49,117.27s.04-.06.06-.09c-.26-.31-.53-.62-.78-.93-.41-.51-.82-1.02-1.24-1.53-.6-.74-1.38-1.27-2.22-1.7-.19-.09-.39-.14-.63-.23.65.57,1.26,1.07,1.83,1.62.71.69,1.38,1.43,2.08,2.13.27.27.59.48.89.72ZM60.09,117.2s.03.04.04.06c.24-.17.51-.32.72-.52.54-.52,1.05-1.06,1.57-1.59.72-.74,1.4-1.51,2.28-2.07.09-.06.17-.13.25-.2-1.11.29-2.01.9-2.74,1.74-.73.84-1.41,1.72-2.12,2.58ZM239.05,120.32c.28.04.56.08.94.14-.32-.35-.61-.33-.94-.14ZM57.68,120.45c.34-.05.62-.09.94-.14-.45-.22-.53-.21-.94.14Z"/>
        </g>
      </g>
    </g>
  </g>
</svg>