<?xml version="1.0" encoding="UTF-8"?>
<svg xmlns="http://www.w3.org/2000/svg" version="1.1" viewBox="0 0 297.64 297.64">
  <defs>
    <style>
      .cls-1 {
        fill: #c5912c;
      }
    </style>
  </defs>
  <!-- Generator: Adobe Illustrator 28.6.0, SVG Export Plug-In . SVG Version: 1.2.0 Build 709)  -->
  <g>
    <g id="Layer_1">
      <g>
        <polygon class="cls-1" points="128.8 197.49 128.8 196.56 125.75 196.56 125.75 201.74 128.8 201.74 128.8 200.8 126.85 200.8 126.85 199.5 128.8 199.5 128.8 198.56 126.85 198.56 126.85 197.49 128.8 197.49"/>
        <path class="cls-1" d="M133.63,198.74c-.06-.03-.14-.06-.24-.11-.53-.23-.8-.48-.8-.75,0-.17.07-.32.2-.43.13-.11.31-.16.53-.16.18,0,.34.04.47.11s.23.19.31.34l.65-.63c-.17-.23-.38-.41-.6-.52-.23-.11-.5-.16-.81-.16-.54,0-.98.14-1.32.41-.34.27-.51.63-.51,1.05,0,.31.09.58.26.81.17.23.49.46.94.69.09.05.22.11.39.19.5.24.75.49.75.73,0,.21-.08.37-.23.5-.15.12-.36.18-.62.18-.21,0-.41-.05-.58-.16-.17-.11-.3-.26-.38-.45l-.62.7c.14.26.35.45.63.59.28.14.62.2,1.02.2.56,0,1-.14,1.34-.43.33-.29.5-.68.5-1.16,0-.32-.11-.61-.32-.86-.21-.25-.54-.48-.97-.68Z"/>
        <polygon class="cls-1" points="140.91 196.56 137.26 196.56 137.26 197.5 138.53 197.5 138.53 201.74 139.64 201.74 139.64 197.5 140.91 197.5 140.91 196.56"/>
        <path class="cls-1" d="M143.54,201.67c.12-.12.18-.26.18-.43s-.06-.31-.18-.44c-.12-.12-.26-.18-.43-.18s-.31.06-.43.18c-.12.12-.18.27-.18.44s.06.31.18.42c.12.12.26.18.43.18s.31-.06.43-.17Z"/>
        <path class="cls-1" d="M151.18,199.33l-1.84,2.41h3.59v-.86h-1.75l.48-.59.07-.09c.8-.99,1.2-1.75,1.2-2.26,0-.45-.15-.81-.46-1.06-.31-.25-.74-.38-1.29-.38s-.96.14-1.25.42c-.3.28-.44.68-.44,1.19v.09h1.04v-.02c0-.24.06-.44.18-.58.12-.15.28-.22.47-.22.21,0,.38.06.5.17.12.12.18.27.18.48,0,.15-.05.32-.15.51-.1.19-.28.45-.53.79Z"/>
        <path class="cls-1" d="M159.01,201.17c.34-.47.51-1.13.51-1.98s-.17-1.51-.5-1.98c-.33-.47-.8-.7-1.41-.7s-1.07.24-1.41.71c-.34.47-.51,1.13-.51,1.97s.17,1.51.5,1.98c.34.47.81.71,1.41.71s1.07-.24,1.4-.71ZM156.98,200.48c-.14-.3-.22-.72-.22-1.28s.07-.99.22-1.29c.14-.3.35-.45.63-.45s.48.15.62.44c.14.29.21.72.21,1.28s-.07,1-.21,1.3c-.14.3-.35.44-.63.44s-.48-.15-.62-.45Z"/>
        <polygon class="cls-1" points="164.56 201.74 164.56 196.61 162.92 196.61 162.48 197.48 163.52 197.48 163.52 201.74 164.56 201.74"/>
        <path class="cls-1" d="M171.66,201.17c.34-.47.51-1.13.51-1.98s-.17-1.51-.5-1.98c-.33-.47-.8-.7-1.41-.7s-1.07.24-1.41.71c-.34.47-.51,1.13-.51,1.97s.17,1.51.5,1.98c.34.47.81.71,1.41.71s1.07-.24,1.4-.71ZM169.63,200.48c-.14-.3-.22-.72-.22-1.28s.07-.99.22-1.29c.14-.3.35-.45.63-.45s.48.15.62.44c.14.29.21.72.21,1.28s-.07,1-.21,1.3c-.14.3-.35.44-.63.44s-.48-.15-.62-.45Z"/>
        <path class="cls-1" d="M245.86,121.94c.05-.55-.25-1.01-.78-1.16-.36-.09-.72-.18-1.08-.26-1.18-.23-2.13-.82-2.89-1.74-.42-.5-.89-.94-1.56-1.14-.39-.1-.74-.33-1.11-.5-.53-.26-.97-.64-1.33-1.11-.41-.54-.83-1.1-1.28-1.61-.98-1.12-2.12-1.99-3.63-2.2-.58-.08-1.16-.04-1.75-.02-.6.01-1.19.12-1.79-.05-.41-.12-.83-.12-1.25-.02-.33.08-.66.14-.99.2-.79.14-1.47.48-2.05,1.03-.15.14-.38.24-.59.31-.45.16-.91.29-1.35.46-1.25.5-2.17,1.44-3.06,2.4-1.05,1.14-2.1,2.29-3.17,3.41-.49.5-1.08.89-1.77,1.13-.54.18-1.08.46-1.55.79-.72.49-1.42,1.05-2.06,1.63-1.04.94-1.89,2-2.22,3.41-.02.1-.07.2-.13.29-.58.93-.98,1.95-1.23,3.03-.09.39-.15.79-.15,1.19,0,1.03.05,2.05.32,3.04.06.27.03.45-.21.59-.78.46-1.52.99-2.34,1.35-1.08.47-2.2.87-3.34,1.19-2.83.78-5.71,1.23-8.64,1.48-2.35.2-4.71.41-7.05.68-2.37.28-4.7.82-6.99,1.46-2.18.6-4.14,1.6-5.95,2.94-1.25.92-2.42,1.94-3.53,3.03-.91.9-1.84,1.81-2.79,2.67-.61.55-1.23,1.15-1.96,1.51-2.12,1.07-4.4,1.38-6.74.97-.85-.14-1.62-.49-2.29-1.05-.59-.47-.9-1.06-.86-1.84.05-.96.44-1.78,1.02-2.51,1-1.26,2.28-2.16,3.74-2.79.75-.33,1.5-.63,2.26-.9,1.27-.47,2.56-.94,3.84-1.37.63-.22,1.3-.32,1.92-.57,1.13-.45,2.21-1.03,3.11-1.87,1.9-1.78,2.84-3.94,2.34-6.56-.21-1.09-.59-2.15-1.45-2.94-.25-.23-.48-.47-.7-.73-.57-.68-1.23-1.2-2.09-1.48-.69-.22-1.37-.48-2.06-.65-.4-.09-.84-.02-1.25-.01-.14,0-.28.06-.42.07-.92.09-1.79.35-2.57.88-.69.46-1.4.88-2.17,1.21-1.13.48-2.21.39-3.29-.09-.16-.07-.33-.21-.44-.35-.32-.42-.62-.86-.91-1.29-.8-1.15-1.61-2.28-2.69-3.2-.39-.32-.76-.67-1.15-1.01.04-.13.07-.27.11-.4.14-.4.28-.5.71-.47.3.01.61.07.87.17.57.23,1.1.48,1.64.74,1.1.52,2.19,1.07,3.37,1.4,1,.28,1.98.62,2.99.88.52.13,1.08.24,1.61.24.72.01,1.44-.11,2.17-.16.59-.03,1.1-.27,1.51-.67.37-.38.75-.76,1.04-1.2.8-1.21,1.56-2.43,2.31-3.68.43-.72.72-1.51.67-2.36-.08-1.35-.68-2.46-1.82-3.19-1.04-.67-2.08-1.32-3.16-1.92-.99-.55-2-.95-3.12-1.08-.63-.08-1.27-.13-1.86.23-.43.27-.88.51-1.29.81-1.53,1.12-2.96,2.35-4.26,3.73-.74.77-1.54,1.5-2.32,2.25-.67-1.07-2.03-.97-2.79-.32-.22-.12-.44-.17-.7-.06-.12.06-.3.03-.44.01-.63-.07-.9.08-1.14.66-.02.05-.06.09-.12.17-.27-.13-.54-.24-.79-.39-1.25-.79-2.5-1.61-3.75-2.39-.91-.58-1.82-1.18-2.78-1.63-1.46-.69-2.99-1.2-4.65-1-.95.11-1.89.26-2.75.7-.63.32-1.24.67-1.87.99-.99.49-1.87,1.12-2.72,1.82-.65.53-.86,1.21-.74,2.02.17,1.29.68,2.46,1.49,3.46.8.99,1.7,1.89,2.65,2.73,1.26,1.13,2.77,1.67,4.41,1.67,1.89,0,3.59-.73,5.1-1.85.52-.39,1.04-.8,1.51-1.25.54-.49,1.16-.86,1.84-1.13.73-.28,1.48-.44,2.27-.24.07.29.14.55.23.83-.11.04-.2.08-.28.1-.62.19-1.18.47-1.66.89-1.01.89-1.94,1.85-2.69,2.98-.28.43-.55.86-.89,1.25-1.29,1.49-2.81,1.92-4.52,1.05-.63-.33-1.22-.71-1.81-1.11-1.05-.71-2.23-.94-3.45-1.05-.66-.06-1.25.16-1.86.36-1.39.45-2.71,1-3.72,2.13-.66.73-1.22,1.5-1.48,2.48-.51,1.95-.09,3.74.95,5.41.91,1.46,2.28,2.38,3.79,3.12.34.17.71.32,1.08.43.75.24,1.53.4,2.28.67,1.62.59,3.23,1.23,4.84,1.84,1.19.44,2.27,1.08,3.22,1.91.9.81,1.65,1.75,1.93,2.97.23,1.01,0,1.85-.85,2.5-.55.42-1.17.72-1.84.89-1.63.41-3.26.31-4.88-.06-.89-.21-1.82-.41-2.56-.98-1.13-.87-2.23-1.79-3.25-2.79-1.41-1.4-2.78-2.8-4.38-3.99-1.8-1.35-3.72-2.42-5.88-3.09-1.44-.44-2.91-.73-4.37-1.06-1.29-.3-2.6-.51-3.92-.58-.51-.02-1.02-.09-1.53-.14-1.75-.18-3.5-.35-5.25-.55-1.48-.16-2.94-.36-4.41-.57-.42-.06-.82-.21-1.24-.28-2.61-.47-5.08-1.33-7.39-2.63-.27-.14-.49-.34-.74-.51-.17-.11-.18-.27-.15-.46.12-.76.27-1.53.32-2.3.04-.61.02-1.24-.1-1.84-.24-1.11-.64-2.16-1.23-3.13-.07-.12-.15-.25-.17-.38-.17-.84-.6-1.56-1.12-2.2-.48-.59-1.03-1.13-1.59-1.63-.98-.87-2.02-1.64-3.29-2.06-.33-.11-.67-.27-.92-.49-.72-.63-1.41-1.28-2.06-1.97-.87-.9-1.7-1.85-2.55-2.76-1.01-1.08-2.24-1.76-3.68-2.1-.18-.04-.39-.15-.53-.28-.43-.38-.88-.73-1.44-.87-.59-.15-1.17-.28-1.76-.37-.31-.05-.64-.06-.95,0-.68.14-1.36.12-2.04.05-1.38-.13-2.66.09-3.83.91-.93.66-1.68,1.5-2.34,2.42-.62.87-1.36,1.57-2.38,1.93-.92.31-1.65.87-2.28,1.63-.61.71-1.41,1.17-2.34,1.37-.46.1-.91.25-1.39.34-.43.08-.78.56-.76.98.03.54-.06,1.15.47,1.52-.45,1-.52,1.9.51,3.24-.13.17-.28.35-.41.53-.3.41-.47.87-.39,1.39.07.38.14.77.3,1.12.53,1.19,1.1,2.36,1.66,3.54.02.04.07.07.14.14.05-.2.1-.36.14-.52.13-.65.46-1.16,1.09-1.4.71-.27,1.43-.51,2.16-.72.68-.19,1.12.09,1.28.79.15.66-.05,1.28-.48,1.77-.44.49-.96.95-1.49,1.35-.67.5-1.42.91-2.1,1.42-.65.48-1.19,1.06-1.47,1.83-.64,1.73-.67,3.48-.34,5.27.03.16.06.35.02.51-.11.53-.27,1.06-.38,1.59-.22,1.02-.22,2.04.16,3.02.51,1.34,1.3,2.51,2.46,3.38.22.17.36.37.47.62.75,1.7,1.9,3.03,3.53,3.96,1.52.87,3.15,1.5,4.79,2.11,1.43.52,2.72,1.24,3.87,2.23,1.23,1.06,2.09,2.31,2.59,3.86.25.76.27,1.46.07,2.21-.7,2.72-1.54,5.4-2.67,7.97-.37.84-.83,1.63-1.33,2.41-.5.81-1.27,1.08-2.24.91-.96-.16-1.88.08-2.63.69-.99.79-1.83,1.72-2.62,2.7-.33.42-.12,1.21.41,1.28.53.07,1.08-.02,1.62,0,1.33.04,2.65-.01,3.98,0,1.54,0,2.83-.55,3.74-1.85.27-.37.61-.63,1.06-.75.68-.2,1.35-.42,2.02-.64.34-.1.56-.33.69-.68.16-.48.36-.96.52-1.44.54-1.63,1.16-3.23,2.17-4.63.4-.55.84-1.09,1.23-1.66.8-1.18,1.74-2.27,2.78-3.25.68-.63,1.32-1.32,2.26-1.61.89-.28,1.79-.49,2.7-.51.21.54.37,1.07.61,1.55.69,1.41,1.6,2.66,2.62,3.84,1.29,1.5,2.54,3.03,3.56,4.74.29.46.37.95.3,1.46-.09.75-.23.87-.96,1.03-.85.18-1.7.37-2.53.6-.62.15-1.2.4-1.74.77-.79.53-1.02,1.41-1.32,2.23-.12.34.22.69.59.71.83.02,1.65.08,2.49.1,1.33.02,2.65,0,3.98,0,.24,0,.48-.08.7-.17.79-.34,1.27-1.01,1.65-1.73.39-.75.92-1.38,1.54-1.94.25-.22.49-.44.77-.64.93-.68,1.09-1.66.65-2.63-.6-1.3-1.17-2.62-1.83-3.88-.58-1.1-1.06-2.23-1.34-3.44-.3-1.28-.64-2.57-.72-3.9.11-.05.21-.09.3-.12,2.03-.72,4.07-1.42,6.09-2.15,1.05-.37,2.05-.86,3.12-1.16,1.49-.41,3.02-.69,4.54-1.02.35-.07.72-.08,1.1-.13.01.27.01.45.03.65.25,2.25.74,4.45,1.42,6.61.46,1.5.93,3,1.36,4.51.26.92.41,1.89.11,2.83-.51,1.58-1.48,2.75-3.16,3.2-.26.06-.51.13-.77.22-.93.28-1.83.67-2.55,1.35-.27.25-.47.56-.65.88-.33.66-.48,1.36-.32,2.13.32.27.74.53,1.18.57.4.02.81-.01,1.21,0,1.57.01,3.14-.05,4.72,0,.63.02,1.05-.3,1.36-.82.08-.14.17-.3.26-.45.17-.31.31-.65.52-.92.83-1.06,1.83-1.9,3.2-2.23.2-.04.41-.15.53-.31.51-.67,1.02-1.36,1.5-2.05.2-.28.24-.6.03-.93-.16-.29-.29-.62-.37-.94-.11-.47-.18-.97-.26-1.46-.13-.9-.28-1.81-.36-2.72-.18-2.26.13-4.47.62-6.67.11-.49.29-.97.44-1.5.48.28.85.54,1.08,1,1.01,2.05,2.28,3.93,3.78,5.67.73.84,1.5,1.64,2.43,2.26,1.35.9,2.83,1.52,4.37,1.98.78.23,1.56.45,2.33.72.44.14.74.44.83.93.04.23.12.44.22.65.33.72.37,1.47.35,2.23-.01.28-.14.48-.4.58-.28.11-.57.2-.85.27-.98.24-1.88.61-2.65,1.27-.54.46-.97,1.03-1.27,1.67-.34.7.14,1.74.88,1.78.53.02,1.06.02,1.59,0,1.04-.04,2.08.03,3.11,0,.51-.02,1.03,0,1.54,0,.36-.01.65-.45.85-.76.12-.2.27-.37.4-.56.46-.73.91-1.46,1.4-2.19.14-.21.34-.39.54-.55.67-.53.97-1.19.78-2.04-.07-.33-.13-.66-.26-.97-.7-1.78-1.1-3.61-1.23-5.51-.04-.63-.31-1.07-.86-1.35-.67-.35-1.35-.71-2.02-1.04-1.84-.9-3.13-2.33-3.94-4.19-.66-1.5-.95-3.1-1.14-4.72-.17-1.41-.39-2.79-.76-4.16-.09-.37-.18-.74-.28-1.12.07-.01.11-.02.13-.01.08.04.15.09.23.13,1.1.76,2.3,1.33,3.56,1.72,2.86.88,5.72,1.04,8.59.06,1.32-.44,2.47-1.14,3.36-2.21.81-.97,1.19-2.1,1.14-3.33-.05-1.17-.44-2.24-1.08-3.23-1.19-1.86-2.91-3.12-4.8-4.15-1.32-.72-2.7-1.3-4.05-1.97-1.41-.69-2.81-1.4-4.21-2.13-.82-.43-1.64-.88-2.43-1.39-.45-.29-.84-.68-1.25-1.04-.57-.5-.79-1.2-1.07-1.87-.43-1.05-.63-2.12-.23-3.25.11-.34.28-.56.63-.62.51-.06,1.02-.11,1.52-.17.8-.08,1.55.06,2.27.4.47.23.95.46,1.42.7.98.5,1.94,1.02,2.92,1.51.82.41,1.65.8,2.5,1.17.28.12.61.22.91.23,1.41.04,2.67-.46,3.8-1.25.84-.61,1.48-1.44,2.03-2.29.92-1.42,1.76-2.9,2.6-4.37.38-.66.78-1.29,1.39-1.88.28.42.54.79.77,1.18.61,1.05,1.2,2.12,1.81,3.17.49.86,1.1,1.63,1.71,2.42.85,1.12,1.95,1.83,3.26,2.23,1.06.33,2.12.47,3.11-.21.1-.06.23-.1.33-.16,1.2-.57,2.39-1.13,3.59-1.72.76-.37,1.49-.8,2.25-1.16.98-.46,1.99-.73,3.07-.73.65,0,1.13.39,1.34.88.36.85.65,1.77.37,2.72-.37,1.29-.75,2.55-1.88,3.45-.95.77-1.94,1.41-3.02,1.94-1.06.52-2.13,1.04-3.18,1.56-1.03.51-2.04,1.05-3.09,1.52-1.9.87-3.74,1.84-5.3,3.27-1.15,1.05-2.06,2.26-2.52,3.78-.53,1.81-.25,3.46,1.02,4.89.79.91,1.79,1.54,2.91,1.96,2.01.77,4.09.92,6.21.66,2.24-.29,4.33-1.03,6.22-2.28.11-.07.23-.14.42-.26-.06.27-.1.45-.13.63-.27,1.23-.61,2.45-.77,3.68-.18,1.47-.4,2.94-.79,4.37-.7,2.57-2.17,4.53-4.6,5.7-.69.32-1.35.7-2.01,1.05-.44.25-.65.62-.69,1.12-.05.71-.08,1.42-.24,2.1-.25,1.09-.6,2.15-.9,3.22-.11.42-.26.84-.36,1.26-.21.85.09,1.52.76,2.05.22.17.43.37.59.6.53.81,1.07,1.62,1.56,2.46.34.55.79,1.05,1.42,1.03.96-.03,1.91-.03,2.86,0,.96.03,1.9-.04,2.86,0,.53.02,1.06-.58,1.16-1.1.07-.33-.05-.62-.21-.9-.84-1.5-2.16-2.34-3.8-2.72-.27-.06-.54-.13-.81-.23-.31-.12-.47-.36-.45-.7.01-.36-.01-.72.06-1.06.14-.62.37-1.2.52-1.82.09-.39.33-.63.65-.79.22-.11.45-.17.69-.26,1.32-.42,2.66-.72,3.92-1.29,1.21-.54,2.39-1.15,3.35-2.09.76-.76,1.47-1.57,2.16-2.4,1.2-1.44,2.16-3.05,3-4.73.23-.43.58-.68,1.01-.89.1.28.21.5.27.74.48,1.81.78,3.65.85,5.53.08,1.83-.27,3.62-.52,5.41-.07.48-.2.99-.43,1.41-.3.52-.2.92.13,1.36.38.5.76,1.02,1.12,1.54.22.32.49.51.87.62,1.52.41,2.6,1.38,3.37,2.71.22.39.45.76.7,1.13.2.3.48.53.85.53,1.64-.02,3.29.01,4.93,0,.32-.01.64-.05.95,0,.6.09,1.1-.27,1.57-.6v-.61c-.04-.87-.3-1.67-.92-2.29-.29-.29-.64-.5-.98-.72-.76-.48-1.61-.71-2.48-.94-1.44-.36-2.31-1.35-2.92-2.62-.14-.3-.22-.64-.28-.97-.16-.78-.04-1.55.14-2.3.33-1.26.7-2.52,1.11-3.75.68-2.05,1.22-4.13,1.53-6.27.09-.61.15-1.22.23-1.85.15,0,.3,0,.43.02.55.08,1.11.18,1.66.28,2,.36,3.96.87,5.84,1.67,2.26.98,4.59,1.74,6.93,2.47.09.03.17.09.28.14-.11,1.37-.41,2.67-.77,3.97-.23.81-.47,1.63-.82,2.39-.68,1.53-1.44,3.03-2.18,4.54-.63,1.28-.45,2.24.71,3.1.85.63,1.6,1.38,2.09,2.36.12.25.28.48.46.7.25.3.49.61.8.83.28.2.62.36.96.42.39.06.81,0,1.21,0,1.79-.04,3.56.02,5.34,0,.52-.01.8-.5.61-1-.06-.18-.16-.35-.22-.53-.24-.91-.85-1.49-1.67-1.87-.41-.2-.85-.35-1.29-.46-.81-.22-1.64-.38-2.48-.58-.25-.05-.54-.06-.66-.37-.22-.61-.31-1.23.01-1.84.75-1.46,1.83-2.68,2.8-3.98.57-.74,1.22-1.42,1.81-2.15.7-.88,1.32-1.84,1.78-2.88.21-.44.35-.91.52-1.39.87.04,1.73.17,2.54.48.44.16.89.35,1.26.63.53.4,1.01.89,1.49,1.35,1.4,1.3,2.42,2.9,3.56,4.41.72.95,1.24,2.01,1.67,3.11.36.9.69,1.81.98,2.74.21.68.61,1.07,1.29,1.24.53.12,1.05.33,1.57.46.47.13.81.4,1.1.79.17.24.36.47.59.68.83.74,1.83,1.14,2.95,1.14,1.27-.01,2.55.04,3.81,0,.66-.02,1.3.07,1.95,0,.56-.07.76-.86.4-1.32-.73-.9-1.52-1.76-2.41-2.52-.85-.73-1.84-1.02-2.95-.82-.53.1-1.03,0-1.47-.29-.17-.11-.33-.27-.46-.43-.75-.89-1.23-1.93-1.65-3-.49-1.24-.94-2.51-1.39-3.77-.54-1.55-1-3.13-1.3-4.75-.02-.13-.03-.28,0-.41.46-1.78,1.21-3.36,2.66-4.59,1.19-1.01,2.47-1.8,3.93-2.34,1.57-.59,3.12-1.18,4.61-1.98,1.76-.95,3.02-2.3,3.82-4.1.11-.28.28-.48.5-.66,1.15-.88,1.91-2.06,2.46-3.39.1-.26.13-.54.2-.82.22-1.1-.01-2.18-.28-3.24-.12-.48-.16-.9-.08-1.39.24-1.36.2-2.7-.1-4.05-.25-1.1-.8-1.99-1.7-2.66-.67-.49-1.38-.93-2.08-1.39-.6-.38-1.12-.86-1.58-1.4-.34-.4-.48-.89-.53-1.41-.08-.81.55-1.38,1.33-1.18.71.2,1.42.43,2.11.7.66.25,1.03.77,1.16,1.46.03.15.09.31.17.58.2-.44.33-.77.48-1.08.42-.89.87-1.78,1.28-2.67.48-1.06.46-2.05-.41-2.93-.04-.05-.07-.1-.11-.16.87-.98,1.11-2.02.53-3.22.35-.28.46-.65.44-1.08,0-.08.02-.17.02-.26ZM163.47,114.81c1.13.48,2.2,1.06,3.16,1.8.23.18.45.4.61.66.41.65.35,1.33-.11,1.92-.72.93-1.48,1.85-2.23,2.75-.36.44-.75.84-1.13,1.26-.46-.31-.87-.6-1.29-.87-1.18-.76-2.42-1.4-3.8-1.71-.55-.12-1.15-.13-1.73-.18-.23-.01-.45,0-.79,0,.14-.11.21-.18.29-.22,1.46-.75,2.72-1.76,3.96-2.81.9-.79,1.82-1.57,2.72-2.35.11-.09.23-.16.35-.25ZM131.97,116.53c.08-.24.17-.46.27-.71,1.39,0,2.59.47,3.71,1.1,1.75.98,3.44,2,5.17,3.01.43.26.87.51,1.42.83-1.34.1-2.32.8-3.43,1.17-.18.06-.37.14-.52.25-.82.53-1.77.79-2.67,1.15-.13.05-.32.05-.45.02-1.72-.47-3.02-1.49-3.91-3.02-.47-.81-.48-1.66-.08-2.53.2-.41.34-.85.51-1.27Z"/>
        <path class="cls-1" d="M85.4,102.29c.68-.11,1.33-.23,1.94-.35,2.52-.48,4.52-.87,6.08.41.57.47.93,1.17.94,1.83,0,.61-.28,1.19-.83,1.67-.86.75-3.48,1.25-8,.22l-1.15-.24,7.03,5.76-.02-.63c.03-1,.74-1.63,1.57-2.07,1.18-.63,1.78-1.37,2.07-1.73l.05-.06c1.17-1.43,1.19-3.13,1.08-4.45-.22-2.64-2.05-4.46-3.66-4.84-2.17-.51-4.14-.16-6.05.18-2.11.38-4.1.73-6.03-.22-1-.49-1.62-1.21-1.61-1.88.01-.7.47-1.39,1.2-1.8,1.41-.78,5.26-.3,6.81.22l1.6.53-7.26-5.89s.01.37-.14.79c-.27.73-.65,1.05-1.24,1.45-1.37.95-2.43,2.2-2.8,3.63-.2.79-.5,4.15,1.8,6.12,1.4,1.21,3.07,1.9,6.62,1.34Z"/>
        <path class="cls-1" d="M91.34,81.28c.75.36,1.23.69,1.62,1.19.34.44.64.92.88,1.43l5.61,12.01c.2.56.7,1.94.88,2.65.06.25.1.42.12.61l.17,1.48,3.77-2.93-1.4-.53c-.5-.19-.82-.61-.99-.91l-2.74-5.87,1.25-.97,5.18,4.64c.16.24.26.51.32.8.1.5.11.91.11.92v.58s5.09-3.95,5.09-3.95l-.48-.18s-.58-.22-.91-.35c-1.54-.6-2.54-1.43-2.81-1.67l-13.58-12.16-3.68,2.86s.79-.05,1.61.35ZM99.1,87.81l-1.01.79-1.53-3.13,2.54,2.34Z"/>
        <path class="cls-1" d="M107.22,72.96l6.55,14.45c.28.62.38,1.3.3,1.97l-.18,1.48,5.8-2.63-1.23-.84c-.56-.38-1-.91-1.28-1.53l-.21-.47c2.14,1.55,4.84,1.88,7.18.82,0,0,.02,0,.03-.01l.59-.27-2.18-4.8-.29.44s-.28.43-.32.48c-.43.58-.98,1.02-1.61,1.31-1.11.5-2.42.48-3.66-.06,3.19-2.02,4.12-6.13,2.23-10.2-2.04-4.33-5.98-6.19-9.63-4.6l-4.6,2.08,1.23.84c.56.38,1,.91,1.28,1.53ZM111.8,70.25c2.85,1.75,5.19,6.75,4.73,10.1-.13,1.02-.27,1.59-.94,2.01l-5.7-12.58c.65-.17,1.2.05,1.91.47Z"/>
        <path class="cls-1" d="M128.47,63.35c.5.66.78,1.17.9,1.8.11.55.15,1.11.13,1.67l-.46,13.25c-.07.59-.26,2.05-.42,2.76-.06.25-.1.42-.17.59l-.52,1.39,4.69-.9-1.01-1.11c-.36-.4-.45-.92-.47-1.26l.22-6.47,1.55-.3,2.51,6.49c.03.29,0,.57-.07.86-.14.49-.32.86-.32.87l-.26.52,6.32-1.21-.34-.38s-.42-.46-.65-.73c-1.1-1.23-1.62-2.43-1.75-2.77l-6.58-17-4.58.88s.72.31,1.28,1.04ZM131.21,69.44l1.2,3.24-1.26.24.06-3.48Z"/>
        <path class="cls-1" d="M145.32,81.01l-.8,1.26,8.73.18.12-5.97-1.5,2.38c-.49.78-1.33,1.28-2.26,1.35l.35-16.87c.01-.68.21-1.34.58-1.91l.8-1.26-6.36-.13.74,1.29c.34.59.51,1.25.5,1.93l-.33,15.85c-.01.68-.21,1.34-.58,1.91Z"/>
        <rect class="cls-1" x="170.55" y="58.52" width="2.91" height="2.91" transform="translate(-7.91 88.48) rotate(-28.23)"/>
        <path class="cls-1" d="M166.82,85.15c2.68.81,5.68.62,8.37-.75,2.62-1.34,4.56-3.62,5.47-6.43.9-2.8.66-5.79-.68-8.42l-.07-.13c-2.81-5.41-9.54-7.55-15-4.77-5.41,2.81-7.55,9.54-4.77,14.99,1.43,2.76,3.88,4.66,6.66,5.5ZM162.98,69.35c1.3-3.36,4.54-4.82,7.87-3.56,2.39.9,4.47,3,5.7,5.76,1.24,2.77,1.41,5.74.48,8.16-1.31,3.39-4.47,4.79-7.86,3.51-2.38-.88-4.45-2.92-5.68-5.61-1.26-2.76-1.45-5.77-.52-8.26Z"/>
        <rect class="cls-1" x="175.26" y="59.94" width="2.91" height="2.91" transform="translate(-8.03 90.82) rotate(-28.21)"/>
        <path class="cls-1" d="M189.61,97.17l18.06-12.19c.19-.11.38-.21.55-.28l1.37-.57-3.86-2.81-.13,1.5c-.06.66-.44,1.28-1.05,1.69l-9.08,6.03,2.64-8.98-7.71,5.29,3.01-10.89c.16-.56.56-1.01,1.1-1.23l1.37-.57-5.16-3.76s-.06,1.15-.11,1.48c-.05.36-.21,1.01-.43,1.75l-5.64,19.87,7.7-5.29-2.64,8.98Z"/>
        <path class="cls-1" d="M199.08,104.34l-1.48.18,5.41,6.86,4.69-3.7-2.79.35c-.91.11-1.83-.22-2.47-.89l5.95-4.69c.05.35,0,.71-.14,1.03l-1.11,2.58,7.21-5.68-2.77.47c-.34.06-.7.02-1.03-.11l5.95-4.69c.5.77.61,1.75.29,2.61l-.99,2.63,4.69-3.7-5.41-6.86-.52,1.39c-.24.64-.64,1.19-1.18,1.61l-12.46,9.82c-.53.42-1.17.69-1.84.77Z"/>
        <path class="cls-1" d="M96.54,194.48s.13.78-.18,1.64c-.28.78-.55,1.29-1.01,1.74-.4.39-.85.73-1.33,1.02l-11.35,6.87c-.53.26-1.85.9-2.54,1.16-.24.09-.41.14-.59.18l-1.45.33,3.32,3.44.38-1.45c.14-.52.52-.88.8-1.08l5.54-3.35,1.1,1.14-4.06,5.65c-.23.18-.48.32-.76.41-.49.16-.9.2-.9.2l-.58.07,4.47,4.63.13-.49s.16-.61.25-.95c.43-1.59,1.15-2.68,1.36-2.98l10.64-14.81-3.24-3.36ZM90.71,204.53l-.89-.92,2.95-1.86-2.06,2.78Z"/>
        <path class="cls-1" d="M118.88,215.45l-.03-.14c-1.49-5.91-7.54-9.55-13.49-8.1-5.92,1.49-9.55,7.54-8.1,13.49.76,3.01,2.7,5.43,5.21,6.89,2.42,1.41,5.38,1.92,8.32,1.2,2-.49,3.83-1.53,5.28-3.03l.26-.26-2.34-1.36-.15.24s-.05.09-.08.13c-.03.05-.06.1-.09.15-2.05,2.99-5.45,3.64-8.46,1.6-2.11-1.4-3.66-3.87-4.23-6.77-.59-2.98-.08-5.96,1.4-8.16,2.03-2.97,5.52-3.65,8.48-1.65,2.76,1.86,4.49,5.58,4.43,9.47v.17s3.42,1.99,3.42,1.99l.1-.36c.49-1.79.51-3.7.07-5.51Z"/>
        <path class="cls-1" d="M132.21,215.73l-4.52-1.14s.52.59.71,1.48c.18.81.21,1.39.06,2.01-.14.54-.33,1.07-.59,1.57l-6.01,11.82c-.31.5-1.1,1.74-1.55,2.33-.16.2-.27.33-.4.47l-1.06,1.05,4.63,1.17-.44-1.43c-.16-.51-.02-1.02.1-1.34l2.93-5.77,1.53.39-.46,6.94c-.1.27-.24.52-.43.74-.33.39-.65.65-.66.65l-.45.36,6.24,1.57-.15-.49s-.19-.6-.29-.93c-.48-1.58-.44-2.88-.42-3.24l1.22-18.19ZM128.04,226.21l-1.25-.31,1.52-3.13-.28,3.45Z"/>
        <path class="cls-1" d="M145.27,217.38l-4.83-.08.75,1.29c.34.58.52,1.25.51,1.93l-.25,15.86c-.01.68-.21,1.34-.57,1.91l-.79,1.26,4.8.08h.03c4.81-.94,8.36-5.25,8.44-10.25l.02-1.47c.08-5.02-3.33-9.44-8.11-10.52ZM149.61,229.31c-.03,1.58-.43,6.69-4.43,8.02l.28-17.68c3.72,1.28,4.22,5.65,4.18,8.19l-.02,1.47Z"/>
        <path class="cls-1" d="M168.23,233.59c-.3.87-1,1.55-1.88,1.83l-1.59-7.41c.34.11.64.31.86.57l1.83,2.13-1.93-8.97-.79,2.69c-.1.33-.29.64-.55.88l-1.6-7.41c.91-.11,1.84.22,2.47.89l1.93,2.05-1.26-5.84-8.54,1.84,1.02,1.08c.47.49.79,1.1.93,1.77l3.34,15.51c.14.66.1,1.35-.12,1.99l-.49,1.41,8.54-1.84-1.26-5.84-.91,2.66Z"/>
        <path class="cls-1" d="M197.12,221.45l-7.51-13.97c-.32-.6-.47-1.27-.44-1.94l.08-1.49-4.38,2.35,1.75,16.22-14.42-9.41-2.95,1.59,1.28.75c.58.34,1.06.84,1.38,1.44l7.51,13.97c.32.6.47,1.27.44,1.94l-.08,1.49,4.2-2.26-1.28-.75c-.58-.34-1.06-.84-1.38-1.44l-5.11-9.51,13.37,8.71-1.89-17.32,6.13,11.41c.32.6.47,1.27.44,1.94l-.08,1.49,5.6-3.01-1.28-.75c-.58-.34-1.06-.84-1.38-1.44Z"/>
        <path class="cls-1" d="M210.29,209.4l-4.08-4.05-5.77-10.49c-.08-.21-.15-.42-.2-.58l-.36-1.44-3.37,3.39h0l1.46.35c.64.16,1.2.63,1.52,1.31l3.12,5.51-6.05-3.09c-.53-.25-.91-.71-1.05-1.28l-.36-1.44-4.5,4.53.52.11s.61.12.92.22c.35.11.97.37,1.66.69l9.8,4.88,4.09,4.06c.48.48.82,1.08.98,1.73l.36,1.45,4.48-4.51-1.45-.35c-.66-.16-1.26-.49-1.74-.97Z"/>
      </g>
    </g>
  </g>
</svg>