<?xml version="1.0" encoding="UTF-8"?>
<svg id="Layer_1" xmlns="http://www.w3.org/2000/svg" viewBox="0 0 345.86 282.46">
  <defs>
    <style>
      .cls-1 {
        fill: #a61e2f;
      }
    </style>
  </defs>
  <path class="cls-1" d="M174.49,62.3c-9.88-12.23-19.87-24.37-29.57-36.74-2.48-3.17-4.05-7.05-5.54-11.17,2.01,1.79,4.05,3.54,6.02,5.38,17.77,16.56,36.02,32.65,53.14,49.85,14.09,14.16,27.24,29.41,35.69,47.85,3.6,7.85,6.03,16.24,9.03,24.38,2.64,7.18.39,14.06-1.14,21.01-2.15,9.74-4.48,19.46-6.2,29.28-1.12,6.41.4,9.23,6.55,11.22,6.6,2.14,13.52,3.76,20.41,4.43,8.08.79,14.55,4.48,19.99,9.73,3.95,3.81,8.34,6.29,13.21,8.26,4.76,1.92,9.74,3.36,14.34,5.59,5.13,2.49,9.95,5.62,14.91,8.48-.24.55-.48,1.1-.72,1.66-2.75-.7-5.55-1.22-8.23-2.12-8.16-2.75-16.27-1.18-24.53-.52-7.24.58-12.92,4.2-18.76,7.41-6.48,3.56-13.18,5.28-20.09,3.44-7.96-2.11-15.06.54-22.53,1.98-15.52,3.01-30.08.39-43.27-8.62-7.66-5.23-15.29-10.53-22.91-15.82-9.63-6.7-20.92-9.03-32-11.52-12.35-2.77-24.89-4.9-37.44-6.59-9.73-1.31-19.62-1.37-29.41-2.32-2.18-.21-4.22-1.78-6.48-2.79.81-1.27.91-1.62,1.11-1.71,16.66-7.3,34.05-8.72,51.94-6.61,2.48.29,5.1-.22,7.62-.62,8.87-1.41,17.28.4,25.53,3.47.72.27,1.52.33,2.55-.19-.6-.39-1.16-.93-1.82-1.15-11.07-3.67-22.05-7.68-33.26-10.84-17.61-4.97-35.51-4.7-53.46-1.66-10.65,1.8-21.35,3.32-32.03,5.03-2.08.33-4.11.92-6.6.82,1.63-1.08,3.18-2.33,4.91-3.21,10.29-5.23,20.59-10.44,30.96-15.52,5.23-2.56,10.43-5.49,15.98-7.03,5.52-1.52,11.5-2.25,17.22-1.98,9.06.43,18.05,2.26,27.11,2.98,6.36.51,12.8.01,19.19.25,2.77.1,5.71.45,8.23,1.51,14.59,6.14,29.08,12.53,43.59,18.85,1.09.47,2.13,1.05,2.81,1.38-2.79.34-5.67.88-8.56.97-1.92.06-3.85-.52-6.29-.89.6,1.38.96,2.22,1.76,4.07-17.56-6.34-35.2-5.08-53.37-5.98,24.95,12.13,51.72,12.52,77.76,17.54-2.22,0-4.44,0-6.66,0s-4.49,0-6.74,0c-.07.22-.13.45-.2.67,3.73,2.09,7.45,4.18,11.18,6.27-8.53-.54-16.18-5.08-24.57-6.02-.15.49-.29.97-.44,1.46,8.62,4.48,17.25,8.96,25.87,13.44-.17.39-.34.78-.5,1.17-11.6-4.58-23.2-9.15-34.79-13.73-.14.3-.29.6-.43.9,8.32,5.01,16.64,10.03,24.96,15.04-.23.45-.47.89-.7,1.34-6.84-3.1-13.73-6.11-20.51-9.32-4.39-2.08-8.61-4.52-12.97-6.66-1.22-.6-2.69-.7-4.05-1.02-5.58-3.95-12-5.5-18.42-7.03-.14.4-.27.79-.41,1.19,6.28,1.94,12.57,3.87,18.85,5.81,1.2,1.08,2.39,2.16,3.59,3.25-25.27-5.54-50.04-13.64-77.06-7.62,5.84.66,10.99,1.05,16.08,1.87,11.39,1.85,22.68,4.37,34.12,5.77,12.08,1.48,23.55,4.7,34.16,10.42,8.51,4.59,16.63,9.94,24.7,15.29,5.63,3.73,11.27,7.19,18.71,8.38-3.96-4.22-10.06-5.48-11.88-10.99.35-.42.69-.84,1.04-1.26,3.24,2.68,6.41,5.47,9.76,8.01,2.64,2,5.29,4.63,8.32,5.35,7.13,1.7,14.35,4.13,21.89,2.03.68-.19,1.4-.24,2.06-.49.35-.13.6-.53,1.06-.98-1.95-1.8-3.85-3.55-5.74-5.3,11.16,3.39,22.24,5.09,33.76,4.59-2.61-1.48-5.22-2.95-7.87-4.46,6.59,0,12.87-.03,19.16.02,1.71.01,4.16,1.25,2.97-2.39-.06-.18,1.44-1.12,2.3-1.33,6.69-1.59,13.41-3.09,19.5-4.48-4.55-.18-9.73-4.66-15.88-.51,1.42-1.72,2.84-3.44,3.74-4.54-12.86-13.36-29.34-16.29-46.61-16.47q.06,3.2,4.81,8.96c-2.64-1.64-5.65-2.88-7.85-4.98-10.32-9.86-11.07-21.82-7.3-34.78,2.2-7.54,4.19-15.15,5.91-22.82,2.48-11.04-1.39-21.01-5.52-31-5.97-14.45-14.62-27.29-24.9-38.75-6.18-6.89-14.53-11.84-22.03-17.49-2.37-1.79-5.13-3.06-7.72-4.56-1.36-1.17-2.71-2.34-4.07-3.5ZM42.04,182.92c.07.3.13.61.2.91.92,0,1.86.15,2.74-.02,4.61-.89,9.19-1.91,13.8-2.8,11.7-2.27,23.46-3.22,35.33-1.4,5.9.9,11.79,2.24,17.72,2.52,9.14.43,18.31.14,27.47.1.79,0,1.58-.43,2.36-.67-.04-.28-.07-.57-.11-.85-10.64-1.13-21.27-2.26-31.91-3.39.03-.41.06-.82.09-1.23h23.24c.02-.14.04-.28.05-.42-1.48-.48-2.96-.97-4.44-1.45.08-.43.16-.85.24-1.28,10.08,1.23,20.15,2.46,30.21,3.69-5.4-3.89-17.3-7.17-22.88-6.49-3.11.38-6.26.62-9.39.59-5.27-.04-10.58-.91-15.78-.4-5.49.54-10.86,2.34-16.3,3.46-5.05,1.04-10.14,1.91-15.21,2.85-.12-.49-.24-.97-.36-1.46,7.53-2.65,15.06-5.31,22.33-7.86-5.11,0-10.38-.15-15.63.06-3.25.13-6.67.24-9.66,1.33-6.8,2.46-13.39,5.52-20.07,8.33-4.68,1.96-9.36,3.91-14.04,5.87ZM178.65,185.36c-8.48-6.23-18.77-4.77-28.8-7.25.38,1.39.44,2.3.67,2.34,9.37,1.68,18.75,3.29,28.13,4.9Z"/>
  <path class="cls-1" d="M174.49,62.3c1.36,1.17,2.71,2.34,4.07,3.5,4.22,3.76,8.42,7.55,12.68,11.28,2.3,2.02,4.7,3.92,7.06,5.88-.23.32-.47.64-.7.96-3.4-2.22-6.81-4.44-10.21-6.66-.19.25-.39.49-.58.74,5.34,4.92,10.69,9.85,16.76,15.44-4.64-.92-34.77-22.96-42.55-32.2-11.27-13.38-21.49-27.65-32.15-41.55.3-.26.61-.51.91-.77,5.46,5.43,11,10.78,16.37,16.31,6.87,7.07,13.48,14.39,20.44,21.37,2.26,2.27,5.24,3.81,7.9,5.69Z"/>
  <path class="cls-1" d="M202.52,121.81c-12.42-.28-41.62-25.12-44.72-37.39,15.17,12.68,29.95,25.03,44.72,37.39Z"/>
  <path class="cls-1" d="M193.53,93.03c-22.79-11.06-41.95-26.53-56.84-47.24,18.9,15.71,37.8,31.42,56.84,47.24Z"/>
  <path class="cls-1" d="M153.92,70.88c15.48,12.52,30.97,25.04,46.45,37.56-19.71-7.14-34.43-20.64-47.24-36.55.26-.34.53-.67.79-1.01Z"/>
  <path class="cls-1" d="M200.68,129.99c-1.43-.11-3.12.24-4.23-.4-6.74-3.89-13.51-7.77-19.96-12.13-4.74-3.2-9.01-7.12-13.48-10.72.26-.46.51-.92.77-1.37,1.75.55,3.75.73,5.22,1.7,10.64,7.08,21.17,14.32,31.73,21.51-.01.47-.03.94-.04,1.41Z"/>
  <path class="cls-1" d="M172.98,131.79c8.34,5.95,16.69,11.89,25.03,17.84-.38.51-.76,1.03-1.13,1.54-10.39-3.14-18.1-9.97-24.74-18.29.28-.36.56-.73.84-1.09Z"/>
  <path class="cls-1" d="M198.77,142.47c-1.93-.3-4.1-.14-5.75-.98-7.66-3.93-14.16-9.38-19.25-16.65,8.41,5.41,16.83,10.82,25.24,16.23-.08.47-.16.94-.24,1.41Z"/>
  <path class="cls-1" d="M193.92,196.76c-12.09-1.04-24.17-2.09-36.26-3.13,12.5-3.49,24.38.38,36.52,1.03-.09.7-.18,1.4-.26,2.1Z"/>
  <path class="cls-1" d="M181.54,158.85c4.98-.99,17.39,5.35,18.6,9.27-5.74,1.29-15.65-3.51-18.6-9.27Z"/>
  <path class="cls-1" d="M180.08,145.33c5.88,3.39,11.77,6.78,17.84,10.28-3.88,3.83-13.74-1.29-18.67-8.82.28-.48.55-.97.83-1.45Z"/>
  <path class="cls-1" d="M223.2,124.88c-4.7-8.6-9.24-16.9-14.04-25.67,8.36,6.76,16.64,21.85,14.04,25.67Z"/>
  <path class="cls-1" d="M185.98,167.24c5.13,2.14,10.26,4.27,15.38,6.41.02.51.05,1.01.07,1.52-1.19.6-2.49,1.87-3.55,1.7-5.36-.88-9.1-4.39-12.76-7.91.29-.57.57-1.14.86-1.71Z"/>
  <path class="cls-1" d="M209.45,139.22c3.47,4.07,6.96,6.97,5.71,12.85-3.9-3.53-5.46-7.41-5.71-12.85Z"/>
  <path class="cls-1" d="M208.32,235.42c3.61,2.84,6.55,5.15,9.97,7.84-6.02.15-9.73-2.61-9.97-7.84Z"/>
  <path class="cls-1" d="M216.58,237.17c3.95,2.6,7.08,4.66,10.62,7-5.32.25-9.51-2.25-10.62-7Z"/>
  <path class="cls-1" d="M215.68,126c-1.48-3.22-2.97-6.45-4.45-9.67.47-.23.93-.46,1.4-.69,1.66,3.15,3.33,6.29,4.99,9.44-.65.31-1.29.62-1.94.92Z"/>
  <path class="cls-1" d="M231.64,155.58c.83,3.47,2.74,7.2-1.67,10.58.62-3.94,1.15-7.26,1.67-10.58Z"/>
  <path class="cls-1" d="M217.36,174.74c-2.54-3.12-5.08-6.24-7.61-9.36.33-.27.66-.54.98-.81,2.59,3.07,5.19,6.15,7.78,9.22-.39.32-.77.63-1.16.95Z"/>
  <path class="cls-1" d="M197.84,182.38c-2.33-1.2-4.67-2.4-7-3.6.24-.5.48-.99.72-1.49,2.43,1.07,4.87,2.15,7.3,3.22-.34.62-.68,1.24-1.02,1.86Z"/>
  <path class="cls-1" d="M214.05,136.02c-.6-2.87-1.19-5.74-1.79-8.6.47-.13.95-.27,1.42-.4.84,2.84,1.69,5.68,2.53,8.51-.72.16-1.44.32-2.16.49Z"/>
  <path class="cls-1" d="M213.83,219.79c2.3,2.13,4.6,4.27,6.9,6.4-.4.41-.79.82-1.19,1.23-2.21-2.25-4.42-4.51-6.64-6.76.31-.29.62-.58.93-.87Z"/>
  <path class="cls-1" d="M272.66,229.73c-3-.97-4.97-1.61-6.94-2.25.05-.46.09-.91.14-1.37,1.88,0,3.78-.16,5.62.12.41.06.59,1.66,1.18,3.5Z"/>
  <path class="cls-1" d="M230.92,131.58c.42,2.51.85,5.03,1.27,7.54-.57.09-1.15.17-1.72.26-.38-2.55-.75-5.1-1.13-7.64.53-.05,1.05-.11,1.58-.16Z"/>
  <path class="cls-1" d="M215.14,116.76c-2.04-2.38-4.09-4.75-6.13-7.13.36-.32.72-.64,1.08-.97,2.12,2.32,4.23,4.64,6.35,6.96-.43.38-.87.76-1.3,1.14Z"/>
</svg>