<?xml version="1.0" encoding="UTF-8"?>
<svg id="Layer_1" xmlns="http://www.w3.org/2000/svg" viewBox="0 0 311.87 218.6">
  <defs>
    <style>
      .cls-1 {
        fill: #a61e2f;
      }
    </style>
  </defs>
  <g id="M7guRq">
    <path class="cls-1" d="M159.47,150.82c-.26,1.24-.58,2.29-.69,3.37-.83,7.96-2.58,15.72-4.92,23.36-.18.59-.43,1.18-.74,1.71-.83,1.4-2.15,1.87-3.68,1.67-1.46-.19-2.4-1.11-2.69-2.52-.4-1.95-.82-3.92-.92-5.89-.34-6.78-.56-13.56-.79-20.34-.03-.99.14-1.99.2-2.99,0-.1-.11-.2-.26-.46-.23.2-.48.34-.64.55-2.84,3.55-5.6,7.16-8.52,10.64-2.92,3.48-5.95,6.88-9.01,10.24-3.37,3.69-5.35,8.24-7.94,12.42-1.56,2.53-3.11,5.11-4.96,7.42-2.46,3.08-5.95,4.54-9.8,4.86-5.25.43-10.55.37-15.52-1.51-5.08-1.91-10.71-2.6-14.98-6.43-.74-.67-1.6-1.21-2.31-1.9-2.3-2.23-4.87-4.03-7.74-5.5-4.13-2.1-7.25-5.22-8.89-9.69-.32-.87-1.05-1.71-1.8-2.29-5.62-4.31-8.3-10-7.99-17.04.17-4.03.34-8.09.96-12.07.31-2.01,1.63-3.86,2.48-5.78.45-1.02,1.16-2,1.3-3.06.64-4.9,3.95-8.06,7.11-11.33.33-.34.83-.53,1.63-1.02-2.52-1.29-4.48-2.32-6.46-3.31-4.72-2.35-7.38-6.07-7.84-11.39-.25-2.88-.27-5.71.51-8.53.15-.55-.08-1.41-.46-1.87-2.54-3.1-2.92-6.8-3.07-10.57,0-.19-.02-.38,0-.56.68-4.13-.52-7.54-3.73-10.29-1.57-1.35-2.01-3.34-2.69-5.24-1.74-4.79-3.76-9.48-5.66-14.21-1.04-2.59-2.01-5.2-3.06-7.78-.7-1.72-1.35-3.49-2.29-5.09-3.2-5.46-1.65-10.92,2.18-14.73,2.35-2.35,5.85-3.46,9.31-3.94,4.57-.63,9.05-.04,13.48,1.09,6.29,1.61,12.43,3.62,18.24,6.55,7.42,3.74,14.57,7.94,21.15,13.03,5.42,4.2,10.93,8.33,15.94,12.99,5.92,5.51,11.51,11.41,16.96,17.4,9.07,9.96,16.26,21.28,22.89,32.95.43.76.89,1.51,1.39,2.22.74,1.07,1.43,1.13,2.19.07.86-1.21,1.59-2.51,2.48-3.94-.85-.65-1.71-1.25-2.49-1.92-.75-.65-1.54-1.3-2.11-2.09-.82-1.13-.43-2.87.85-3.1,1.49-.27,2.35-1.25,3.46-1.97.52-.33,1.11-.54,2.01-.96-.94-2.18-1.62-4.56-2.91-6.54-2.33-3.6-4.8-7.16-7.61-10.37-4.06-4.63-8.48-8.95-12.75-13.4-2.33-2.43-4.83-4.73-6.92-7.35-1.78-2.22-3.17-4.74-5.4-6.62-.36-.3-.41-.96-.62-1.47,2.56-.68,3.51.12,3.29,2.47-.03.38.14.87.38,1.18,1.78,2.3,3.49,4.67,5.45,6.82,3.36,3.67,6.77,7.31,10.36,10.76,5.18,4.98,9.99,10.28,14.18,16.1,1.66,2.31,2.78,5,4.16,7.51.29.53.66,1.02,1.2,1.84.56-.97.96-1.7,1.39-2.4.7-1.13,1.26-2.21,2.73-2.83,1.1-.46,1.82-1.97,2.57-3.11,2.67-4.08,5.43-8.08,9-11.43,2.77-2.6,5.65-5.08,8.49-7.59,4.53-4,9.09-7.98,13.62-11.98.61-.54.71-1.09.62-2.05-.08-.9,1.02-2.05,1.84-2.84.4-.39,1.44.89,1.13,1.68-.29.74-.7,1.52-1.28,2.03-4.49,4.03-9.05,7.97-13.55,11.99-3.58,3.19-7.2,6.35-10.61,9.72-3.83,3.79-6.88,8.21-9.64,12.83-.98,1.64-1.93,3.3-2.8,5-.42.82,0,1.27.75,1.93,1.5,1.33,2.72,3.01,3.92,4.64.28.39.13,1.18.02,1.75-.2,1.01-.53,1.99-.8,2.99.15.09.31.19.46.28.94-1.09,1.93-2.15,2.81-3.28,3.02-3.89,5.93-7.86,9.04-11.68,2.28-2.8,4.71-5.48,7.23-8.07,3.74-3.83,7.47-7.69,11.47-11.23,3.21-2.84,6.83-5.22,10.25-7.81,2.23-1.69,4.42-3.45,6.68-5.11,9.76-7.16,19.49-14.39,30.17-20.13,6.73-3.62,13.63-7.19,21.39-8.15,4.19-.52,8.46-.72,12.69-.63,4.64.11,8.77,2.22,12.84,4.29.27.14.56.36.69.61,1.11,2.2,2.84,4.33,2.46,6.9-.39,2.68-1.19,5.35-2.22,7.86-1.13,2.75-2.74,5.31-4.13,7.95-.23.44-.47.9-.56,1.38-1.04,5.39-4.71,9.09-8.33,12.78-1.57,1.6-2.44,3.17-1.82,5.49.27,1,.1,2.19-.11,3.24-.72,3.5-2.97,6.26-4.58,9.33-.68,1.29-1.31,2.8-1.32,4.22-.07,4.88-1.21,9.45-3.1,13.92-.91,2.16-1.38,4.5-2.11,6.73-.19.57-.52,1.22-.99,1.54-2.81,1.94-5.68,3.8-8.54,5.66-.31.2-.68.33-1.04.4-1.15.23-2.16.55-1.88,2.11-.09-.43-.18-.85-.3-1.42-1.19.16-2.28.31-3.37.45-.09.14-.18.28-.27.42,1.24,1.23,2.38,2.57,3.73,3.65,4.67,3.76,7.95,8.41,9.38,14.27.22.9.39,1.85.32,2.76-.23,2.72.11,5.3,1.31,7.79,1.23,2.55.58,5.28.29,7.88-.39,3.44-1.83,6.55-3.75,9.47-.78,1.19-.99,2.75-1.45,4.14-.33,1-.45,2.13-1,2.99-2.18,3.39-4.34,6.72-8.36,8.49-2.01.88-3.87,2.6-5.22,4.39-4.08,5.39-9.17,8.85-15.96,9.73-3.08.4-6.12,1.18-9.19,1.62-1.53.22-3.11.02-4.66.09-2.11.09-4.24.16-6.33.41-4.13.51-7.33-1.36-10.45-3.69-4.94-3.7-8.62-8.44-11.69-13.72-2.51-4.31-5.17-8.51-8.6-12.19-.97-1.04-1.71-2.3-2.56-3.45-3.58-4.87-7.17-9.74-10.76-14.6-.13-.18-.38-.27-.82-.58ZM231.15,181.5c2.86-1.71,3.11-2.82,1.44-5.13-.17-.24-.38-.57-.33-.82.39-2.36-.96-4.09-2.22-5.75-3.35-4.42-6.9-8.69-10.2-13.15-1.81-2.44-3.57-4.5-6.82-5.23-2.69-.6-5.25-1.97-7.74-3.25-3.71-1.9-7.86-2.73-11.49-4.82-3.19-1.83-6.44-3.55-9.59-5.45-6.52-3.94-12.99-7.97-19.48-11.95-.13-.08-.34-.02-.76-.03,1.02,2.24,1.63,4.63,3.02,6.4,3.62,4.6,7.72,8.82,11.38,13.38,2.89,3.59,5.45,7.44,8.11,11.21,3.77,5.35,7.44,10.78,11.27,16.09,2.58,3.58,5.33,7.04,8.09,10.49.6.75,1.52,1.28,2.37,1.78.36.21,1.06.29,1.38.08,2.52-1.68,5.14-3.23,6.58-6.14.6-1.22.63-2.16-.05-3.29-1.97-3.25-4.15-6.4-5.76-9.82-1.86-3.96-4.54-7.07-7.88-9.77-1.57-1.27-2.36-3.1-2.86-4.65,1.41,1.36,3,2.89,4.59,4.44,1.07,1.04,2.33,1.96,3.14,3.18,2.03,3.06,3.89,6.23,5.75,9.4,1.83,3.11,3.53,6.3,5.39,9.4,1.18,1.96,4.42,3.27,5.99,2.12,1.88-1.38,3.85-.85,5.54-1.23.44.93.8,1.7,1.18,2.51ZM166.41,111.89c.09.19.17.37.26.56,5.02-1.07,10.12-1.01,15.04-.04,6.69,1.32,13.3,1.18,19.88.05,9.64-1.66,19.3-2.29,29.06-1.9,4.42.17,8.86.14,13.28-.03,2.8-.11,5.31-1.39,6.75-3.82,2.44-4.13-.04-9.68-4.73-10.76-8.1-1.87-16.32-2.98-24.63-3.25-4.53-.15-9.08.07-13.62.22-4.4.14-8.73.62-12.24,3.75-.32.29-.73.48-1.12.67-7.79,3.95-15.59,7.87-23.36,11.85-1.57.8-3.05,1.8-4.57,2.71ZM203.66,130.86c.1-.13.2-.25.3-.38,1.04.75,1.99,1.68,3.14,2.2,2.38,1.09,4.83,2.03,7.3,2.89,3.17,1.11,6.38,2.1,9.58,3.13,2.96.95,5.89,1.96,8.88,2.8,3.35.95,6.75,1.74,10.13,2.59.37.09.76.16,1.63.33-.61-1.08-.88-1.86-1.39-2.41-1.47-1.59-1.61-2.62-.51-4.41.31-.51.79-1.43.61-1.63-1.09-1.2-1.38-3.2-3.31-3.57-2.94-.56-5.89-1.04-8.82-1.6-8.08-1.55-16.14-3.19-24.4-3.52-1.41-.06-2.94-.08-4.19-.63-2.31-1.01-4.4-2.51-6.69-3.59-1.12-.53-2.52-.89-3.72-.75-5.22.64-10.17-.57-15.12-1.89-3.16-.84-6.32-1.76-9.78-1.08.74.91,1.39,1.71,2.31,2.84-1.32-.23-2.13-.37-3.03-.53.22,1,.38,1.75.56,2.56-.59-.02-.95-.03-1.3-.04-.09.15-.18.3-.27.45,1.06.89,2.05,1.9,3.21,2.63,2,1.26,4.17,2.26,6.16,3.52,8.31,5.28,16.52,10.71,25.89,14.05,4.34,1.55,8.47,3.68,12.81,5.19,2.92,1.01,5.94.78,8.71-1.49-3.15-3.62-6.23-7.04-9.18-10.57-1.51-1.81-3.27-3.07-5.45-4.01-1.51-.65-2.71-2.04-4.05-3.09ZM138.24,113.25c.04-.18.09-.37.13-.55-1.83-.88-3.73-1.64-5.49-2.65-6.25-3.62-12.49-7.27-18.67-11.02-6.57-3.98-13.32-7.33-21.22-7.56-3.55-.1-7.09-.4-10.64-.52-7.51-.26-14.88.88-22.24,2.24-3.63.67-5.51,2.76-6.04,6.35-.29,1.95-.11,2.73,1.62,3.66.92.49,1.95,1.01,2.95,1.07,7.46.41,14.93.89,22.4.95,3.85.03,7.63.26,11.24,1.44,8.39,2.75,16.81,4.92,25.74,5.07,6.08.1,12.15.96,18.23,1.47.66.06,1.32.04,1.98.06ZM141.3,124.02c-.73.11-1.06.08-1.3.2-3.78,1.88-8.07,2.51-11.71,4.81-2.89,1.83-5.96,3.38-8.9,5.13-3.26,1.94-6.49,3.93-9.7,5.95-.83.52-1.77,1.07-2.28,1.85-1.49,2.28-2.82,4.67-4.16,7.06-2.03,3.62-4.46,6.89-7.63,9.61-.76.65-1.28,1.64-1.76,2.55-.72,1.37-1.31,2.82-1.95,4.23-1.13,2.49-2.29,4.97-3.39,7.48-.19.42-.4,1.08-.21,1.38.92,1.46,1.81,2.93,3.53,3.7.99.44,1.9,1.16,2.68,1.93,1.54,1.52,2.02,1.66,3.5.05,2.23-2.43,4.43-4.91,6.44-7.52,3.27-4.24,6.44-8.56,9.53-12.93,4.28-6.05,8.25-12.33,12.75-18.21,2.86-3.73,6.43-6.91,9.68-10.35.72-.76,1.38-1.56,2.07-2.35-.14-.14-.28-.28-.42-.42-1.21.79-2.42,1.58-3.63,2.37-.07-.09-.14-.17-.21-.26,2.25-1.99,4.49-3.99,7.06-6.27ZM163.22,111.4c1.59-1.12,2.91-2.28,4.42-3.09,3.91-2.07,7.85-4.07,11.86-5.94,9.23-4.3,18.13-9.14,26.22-15.39,5.46-4.22,10.32-9.02,14.33-14.65,1.12-1.57,2.05-3.25,1.85-5.27-.3-.14-.47-.26-.64-.28-.37-.04-.75-.05-1.12-.03-4.59.27-8.93,1.66-12.67,4.14-7.31,4.86-14.41,10.05-21.47,15.27-2.79,2.07-5.37,4.47-7.85,6.91-4.84,4.77-9.48,9.74-14.35,14.47-1.29,1.26-1.46,2.27-.59,3.84ZM160.17,127.04c-.2.03-.4.05-.6.08.28,1.55.23,3.25.89,4.6,1.69,3.47,3.52,6.91,5.63,10.13,5.51,8.44,9.79,17.51,14.3,26.48,3.27,6.49,6.45,13.07,12.12,18.05,1.99,1.75,3.97,2.13,6.3,1.98,1.43-.09,3.86-1.86,3.68-2.72-.52-2.39-.75-5.04-1.98-7.03-2.82-4.55-6.31-8.67-9.27-13.14-6.87-10.37-14.67-20.01-22.64-29.52-1.55-1.85-2.74-3.99-4.09-6-.88-1.32-1.74-2.66-2.6-3.99-.18.09-.37.17-.55.26.84,2.1,1.67,4.2,2.51,6.3-.19.09-.39.18-.58.28-1.04-1.92-2.07-3.84-3.11-5.75ZM88.95,66.54c-.12.12-.24.23-.35.35,1.22,1.78,2.21,3.79,3.7,5.3,6.43,6.53,12.94,12.98,19.54,19.33,8.75,8.4,19.06,14.62,29.46,20.7.22.13.53.12,1.24.28-.71-1.07-1.11-1.84-1.66-2.47-2.37-2.72-4.74-5.45-7.2-8.09-7.85-8.45-15.68-16.91-23.63-25.27-2.27-2.39-4.93-4.4-7.34-6.66-1.7-1.59-3.54-2.39-5.93-2.07-.95.13-1.97-.23-2.95-.41-1.63-.31-3.26-.65-4.89-.98ZM134.5,124.49c-.04-.11-.07-.23-.11-.34-.91.1-1.81.21-2.72.29-2.92.23-5.84.64-8.76.64-5.55,0-11.1-.3-16.65-.34-1.04,0-2.2.37-3.12.9-2.85,1.65-5.6,3.46-8.39,5.22-2.4,1.51-4.44,3.27-5.81,5.91-1.15,2.23-2.87,4.17-4.34,6.25-.17.24-.29.52-.49.88,2.4.77,4.63,1.74,7.16.87,2.42-.83,4.91-1.43,7.31-2.3,3.86-1.39,7.94-2.45,11.44-4.49,7.59-4.43,14.92-9.3,23.08-12.7.48-.2.93-.5,1.39-.76ZM105.7,141.83c-.46-.06-.65-.14-.81-.09-3.9,1.07-7.8,2.15-11.69,3.25-1.79.5-3.19,1.53-4.4,2.96-2.33,2.75-4.89,5.31-7.21,8.07-2.28,2.71-4.76,5.36-6.47,8.41-2.1,3.75-2.02,5.21,1.03,8.26,1.5,1.5,2.99,2.47,5.07,2.68.67.07,1.39.22,1.97.54,1.34.73,2.11.17,2.7-.98.82-1.6,1.73-3.16,2.41-4.82,1.46-3.55,2.77-7.17,4.21-10.73.31-.77.85-1.51,1.44-2.1,1.06-1.04,2.31-1.88,3.37-2.92,3.62-3.52,5.85-7.97,8.37-12.54ZM204.51,90.46c.05.15.11.31.16.46.54-.01,1.07-.02,1.61-.04,9.52-.43,19.04-.89,28.58-.36,3.66.21,7.34.21,11.01.26,1.53.02,2.77-.66,3.71-1.86,1.48-1.88,2.05-4.11,2.25-6.43.15-1.72-.5-2.29-2.31-2.35-2.62-.08-5.23-.21-7.85-.23-4.78-.03-9.58-.22-14.35.07-3.9.24-7.76,1.04-11.63,1.67-.62.1-1.22.58-1.73,1-2.54,2.1-5.04,4.25-7.57,6.37-.6.51-1.25.96-1.88,1.45ZM105.99,91.18c.08-.13.17-.26.25-.39-.45-.4-.88-.83-1.36-1.2-3.13-2.47-6.27-4.92-9.4-7.4-3.5-2.77-7.25-4.75-11.9-4.73-2.42.01-4.84-.44-7.26-.67-4.22-.4-8.43-.88-12.65-1.13-1.65-.1-3.34.27-4.99.58-.51.1-1.17.61-1.36,1.09-1.27,3.21.81,6.81,4.24,7.32,4.37.65,8.74,1.24,13.12,1.82,3.52.46,7.03.95,10.57,1.27,7,.64,14.09.59,20.73,3.44ZM102.43,124.72c-.05-.17-.09-.34-.14-.51-1.1-.12-2.2-.2-3.3-.36-4.07-.62-7.97-.77-12.13.37-6.22,1.72-12.7,2.48-19.05,3.73-2.38.47-4.74,1.13-6.53,2.97-1.07,1.11-1.62,2.23-.89,3.85.4.88.41,2.03.3,3.02-.23,2.03.55,2.81,2.49,2.28,3-.82,6-1.65,9.02-2.42,3.07-.79,6.15-1.58,9.25-2.27,5.76-1.28,10.63-4.52,15.79-7.11,1.85-.93,3.46-2.35,5.19-3.54ZM214.45,136.93c-.11.12-.21.25-.32.37.34.5.65,1.02,1.02,1.49,1.38,1.76,2.84,3.47,4.16,5.28,2.19,2.99,4.96,5.13,8.36,6.65,3.22,1.44,6.34,3.16,9.39,4.94,2.41,1.41,4.62,3.15,6.97,4.65,2.01,1.29,4.72.15,4.97-2.22.17-1.6.75-2.8,1.75-3.98,1.4-1.64,1.15-3.78-.76-4.76-3.47-1.78-6.95-3.87-10.69-4.75-7.96-1.88-15.58-4.72-23.33-7.21-.51-.16-1.03-.31-1.54-.47ZM59.85,157.36c6.95-5.93,13.91-11.5,22.88-13.49-.14-2.25,2.16-2.83,2.98-4.39.87-1.65,1.76-3.29,2.77-5.19-.65.07-.89.07-1.11.13-6.28,1.79-12.59,3.46-18.81,5.44-3.94,1.25-8.13,1.95-11.55,4.59-2.24,1.72-2.91,3.67-2.11,6.37.85,2.86,3.2,4.48,4.96,6.55ZM88.33,146.09c-2.92-1.54-5.75-1.52-8.25-.14-4.84,2.65-9.57,5.54-14.19,8.57-1.86,1.22-3.83,2.53-4.76,4.86-.52,1.32-.34,2.27.59,3.19,2.67,2.65,6.05,3.84,9.63,4.54.41.08,1.25-.36,1.37-.73,1.47-4.36,4.96-7.27,7.67-10.72,2.49-3.17,5.14-6.21,7.94-9.58ZM218.15,152.53c.34.43.71.9,1.09,1.37,1.37,1.7,2.82,3.33,4.08,5.1,2.7,3.8,5.31,7.67,7.95,11.52,1.2,1.75,2.29,1.99,4.26,1.1,2.75-1.24,4.51-4.1,7.73-4.61.69-.11.94-.83.45-1.65-.86-1.43-1.53-2.97-2.38-4.4-.41-.68-1-1.28-1.62-1.78-4.63-3.8-10.09-6.12-15.46-8.59-.72-.33-1.78-.44-2.49-.16-1.23.47-2.32,1.32-3.62,2.11ZM224.79,76.27c.68-.04,1.16,0,1.61-.11,6.18-1.52,12.43-2.49,18.79-2.79,2.91-.14,5.48-1.18,7.17-3.73.29-.43.59-1.02.54-1.5-.23-2-1.84-3.78-3.84-4.08-4.29-.63-8.55-.26-12.76.74-.47.11-.97.35-1.31.69-3.26,3.23-6.5,6.49-9.72,9.75-.19.2-.25.53-.48,1.02ZM89.94,75.8c.1-.1.2-.2.3-.29-.21-.35-.34-.79-.63-1.03-4.09-3.39-7.1-8.1-12.34-10.09-.45-.17-.83-.55-1.23-.84-4.86-3.62-10.09-3.36-15.43-1.4-1.77.65-1.96,2.03-.59,3.34.49.47,1.1.81,1.67,1.18,2.23,1.42,4.69,2.2,7.3,2.52,7.39.9,14.66,2.18,20.95,6.62ZM196.74,121.85c-.03.24-.07.47-.1.71,1.55.6,3.28.95,4.59,1.88,1.48,1.05,2.98,1.07,4.58,1.05,7.2-.09,14.29.6,21.27,2.45,2.22.59,4.48,1.03,6.73,1.51.94.2,1.91-.01,2.13-.99.14-.63-.29-1.43-.58-2.1-.22-.49-.8-.86-.92-1.35-.37-1.47-1.49-2.15-2.71-2.61-1.27-.47-2.64-.97-3.96-.96-5.48.01-10.95.18-16.43.35-3.6.11-7.17.9-10.8.2-1.23-.24-2.53-.1-3.79-.14ZM86.91,122.85c-.01-.19-.03-.38-.04-.57-.59-.17-1.17-.41-1.76-.48-4.06-.53-8.12-1.03-12.18-1.53-3.08-.38-3.23-.25-3.65,2.82-.04.31-.07.62-.07.93.04,1.76.57,2.24,2.29,1.9,3.89-.78,7.77-1.63,11.66-2.43,1.24-.25,2.5-.43,3.75-.64ZM258.75,61.55c3.31.52,6.9-4.05,6.8-7.28-.01-.37-.76-1-1.19-1.03-1.23-.07-2.48.02-3.71.2-4.02.57-4.39,2.39-4.4,5.68,0,1.97.52,2.35,2.5,2.43ZM88.24,57.51c.59-.12,1.6-.2,2.51-.55.56-.22,1.4-.93,1.34-1.27-.15-.73-.67-1.51-1.27-2-.7-.58-1.63-.87-2.47-1.29-1.89-.95-3.74-1.96-5.68-2.8-.54-.23-1.39-.16-1.9.13-.3.17-.34,1.07-.25,1.6.52,3.06,4.18,6.12,7.7,6.19ZM251.27,45.57c-2.21.19-13.08,4.68-14.26,5.98-.43.48-.48,1.3-.71,1.96.57.13,1.2.5,1.69.35,3.5-1.06,6.99-2.14,10.42-3.4,1.49-.55,2.66-1.61,2.37-3.54-.05-.37.27-.79.49-1.35ZM55.27,37.37c.05-2,.17-3.71.1-5.41-.02-.42-.62-.89-1.05-1.2-.5-.36-1.11-.56-1.67-.84-2.99-1.5-5.64-.71-7.66,2.48,3.28,1.58,6.53,3.15,10.29,4.96ZM52.31,56.68c1.65-1.82,3.02-3.16,4.15-4.69.35-.47.15-1.48-.04-2.18-.2-.74-.68-1.15-1.68-1.01-1.77.26-3.59.22-5.38.37-.62.05-1.21.3-2.12.54,1.8,2.48,3.38,4.65,5.07,6.97ZM62.75,47.53c1.81,2.65,4.12,4.39,6.93,5.32,2.5.83,3.06.17,2.4-2.35-.08-.3-.19-.6-.23-.9-.24-1.73-1.21-2.66-2.97-2.72-2-.07-4.05-.53-6.14.66ZM274.99,39.8c2.38.05,3.89-.7,4.34-2.01.37-1.09-.37-3.45-1.3-4.27-1.03-.91-2-1.2-3.04,0-.77.89-1.73,1.62-2.43,2.56-1.4,1.9-.92,3.06,1.4,3.59.42.1.87.1,1.03.12ZM268.95,64.88c-1.02-.06-1.97-.39-2.69-.12-2.66.98-4.34,3.07-5.43,5.6-.42.97-.03,1.65,1.16,1.79,2.55.3,4.56-.84,5.62-3.36.45-1.08.76-2.22,1.34-3.92ZM48.62,66.99c.18-.14.36-.28.54-.42.22-1.27.49-2.53.62-3.81.04-.38-.26-1.07-.56-1.16-1.82-.58-3.67-1.09-5.54-1.48-.41-.08-1.15.33-1.36.72-.18.33.03,1.1.34,1.43.92,1,1.92,1.93,2.98,2.77.93.73,1.98,1.3,2.98,1.94ZM55.87,86.45c-2.08-.54-4.06-1.16-6.09-1.51-.71-.12-1.8.4-1.26,1.49,1.19,2.42,3.11,4.18,5.6,5.78.61-1.99,1.12-3.67,1.76-5.76ZM228.75,54.9c-.55-.02-1.09-.2-1.33-.01-3.23,2.5-7.33,3.81-9.95,7.23.66.12,1.31.18,1.84-.03,2.59-1.03,5.19-2.06,7.7-3.28.63-.31.96-1.3,1.32-2.04.22-.46.24-1.02.42-1.87ZM58.46,163.58c0-1.87-1.08-3.11-2.66-3.06-1.22.04-3.02,2.44-3.03,4.03,0,1.41,1.11,2.35,2.77,2.33,1.81-.02,2.92-1.27,2.92-3.3ZM104.07,190.94c1.29.11,2.81-.95,2.99-2.08.24-1.56-.82-2.06-2.02-2.43-.35-.11-.71-.21-1.07-.29-1.21-.25-3.04.71-3.27,1.89-.27,1.35.78,1.96,1.82,2.43.5.23,1.06.34,1.56.49ZM62.65,174.15c.67-.42,1.77-.74,1.92-1.3.23-.9.14-2.18-.37-2.91-.75-1.06-4.02-1.45-4.64-.76-.37.41-.62,1.09-.62,1.65-.02,1.81,1.4,2.97,3.71,3.32ZM239.47,178.35c0,1.83,1.29,2.7,2.97,1.96.56-.25,1.1-.58,1.59-.94,2.29-1.69,2.22-2.61-.27-3.8-1.55-.74-4.29,1.03-4.29,2.78ZM75.38,41.07c-1.38-2.33-3.44-3.61-5.45-4.81-.4-.24-1.58.64-2.28,1.17-.23.17-.25.97-.05,1.29.91,1.46,5.54,2.93,7.78,2.35ZM252.09,134.68c.2-1.07-.28-1.79-1.5-1.95-1.64-.22-3.05,1.12-3.24,3.06-.12,1.17.86,2.54,1.85,2.6,1.36.09,2.69-1.56,2.89-3.71ZM88.75,187.89c-.05-.83-.13-1.5-.12-2.17.03-2.09-1.03-3.33-3.11-3.61-1.34-.18-2,.52-1.77,1.86.33,1.94,2.71,3.88,5,3.91ZM252.23,142.11c-.28.25-1.1.63-1.27,1.2-.4,1.32.95,3.65,1.98,3.79,1.45.2,3.26-.97,3.48-2.23.24-1.44-.98-2.34-4.18-2.76ZM280.51,44.35c-2.51-1.05-3.28-.82-4.17,1.4-.33.83-.38,1.8-.45,2.71-.06.92.47,1.1,1.33.97,2.62-.39,3.25-1.15,3.11-3.91-.02-.35.11-.71.18-1.17ZM45.76,74.37c.34,2.67,3.26,4.71,5.33,4.04.55-.18,1.1-.59,1.48-1.04.73-.85.6-1.71-.56-1.96-1.98-.42-4-.67-6.25-1.04ZM29.05,31.09c.03.23.06.46.09.7,2.09,1.37,4.39,1.84,6.84,1.15.47-.13.97-.84,1.08-1.36.18-.83-.32-1.46-1.25-1.46-1.24,0-2.49-.01-3.71.16-1.03.14-2.03.54-3.05.82ZM35.67,44.32c.33-.3,1.28-.76,1.55-1.48.39-1.03-.29-1.86-1.34-2.32-.66-.29-1.24-.95-1.89-1-.65-.06-1.42.34-2.01.72-.32.21-.56.84-.5,1.24.18,1.2,2.39,2.85,4.19,2.85ZM234.35,188.08c-.29-.39-.66-1.03-1.18-1.5-.16-.15-.81.07-1.12.29-.73.52-1.47,1.06-2.05,1.73-.59.69-1.13,1.5-1.42,2.35-.11.33.41,1.19.81,1.33,1.26.43,4.89-2.53,4.96-4.2ZM259.64,47.86c2.4-.26,4.74-.43,7.04-.81.59-.1,1.09-.83,1.62-1.27-.05-.2-.1-.4-.15-.6-2.65-.02-5.32-.54-7.94.17-1.23.33-.96,1.5-.57,2.51ZM275.52,54.85c-2.03.15-3.4,1.01-4.18,2.62-.24.49-.16,1.62.15,1.8.77.45,1.76.66,2.67.67.42,0,1.13-.67,1.2-1.11.19-1.26.13-2.56.17-3.98ZM72.9,182.44c.14,1.04,1.25,1.11,2.17,1.23,1.15.15,2.92-1.78,2.58-3.07-.19-.71-1.27-1.46-2.07-1.66-1.23-.3-2.71,1.64-2.68,3.5ZM244.13,167.87c-.03,1.52,1.24,3.36,2.37,3.43,1.1.06,1.98-.93,1.98-2.24,0-1.54-1.15-2.79-2.62-2.88-1.21-.07-1.7.57-1.73,1.69ZM59.93,127.42c.83-.53,1.61-.99,2.34-1.5,1.33-.93.72-1.99.01-2.87-.74-.91-1.69-.56-2.47.05-.48.38-.92.88-1.2,1.41-.3.56-.69,1.35-.49,1.8.21.48,1.06.68,1.81,1.11ZM53.74,142.44c1.82.08,3.75-1.79,3.52-3.23-.08-.5-.69-1.2-1.17-1.31-1.61-.38-3.87,2.22-3.29,3.76.15.41.76.65.94.79ZM68.61,173.87c-.33,1.52.79,1.72,1.86,1.86,1.4.18,2.17-.6,2.3-2.25.12-1.5-1.04-1.69-2.07-1.82-1.34-.17-1.97.55-2.09,2.21ZM211.58,190.91c.02-1.82-.3-2.46-1.22-2.46-1.25,0-2.74,1.5-2.8,2.8-.05,1.02.94,1.96,2.05,1.95,1-.01,1.96-1.13,1.98-2.3ZM255.74,161.14c-.56-.77-.97-1.86-1.72-2.21-.93-.43-2.56,1.37-2.57,2.64-.01,1.01.34,1.85,1.47,2.03,1.17.18,2.37-.92,2.83-2.46ZM124.05,163.84c-.02,1.04.3,1.88,1.49,1.93,1.04.04,2.41-2.1,2.23-3.68-.05-.43-.77-1.06-1.23-1.11-1.42-.14-2.46,1.15-2.49,2.86ZM256.1,95.61c2.36.72,4.41-.14,4.88-2.07.12-.49-.16-1.16-.46-1.62-.14-.21-.87-.32-1.11-.15-1.41.99-2.69,2.12-3.31,3.84ZM265.5,79.36c-.75.68-1.48,1.3-2.15,1.98-.73.73-.85,1.44.09,2.18.92.72,1.64.75,2.31-.29.3-.47.71-.87.98-1.35.25-.44.66-1.12.49-1.38-.3-.45-.97-.67-1.72-1.13ZM255.56,80.37c-.09,2.03.74,3.43,1.7,3.16.66-.18,1.45-1.01,1.59-1.67.26-1.27-.85-2.78-1.77-2.59-.67.14-1.21.86-1.52,1.1ZM50.53,154.3c1.07,0,2.59-1.19,2.24-1.8-.35-.6-1.24-1.07-1.97-1.22-1-.2-1.92.34-2,1.44-.08,1.15.74,1.61,1.73,1.57ZM134.98,149.47c-1.59-1.03-3.07-.87-3.71.35-.42.81-.22,1.41.65,1.78,1.23.52,2.4-.26,3.06-2.13ZM115.97,165.91c-1.9,4.54-1.91,4.6-.12,5.17,1.37-2.03,1.49-4.27.12-5.17ZM222.72,184.14c-1.08,2.62-.72,3.72,1.17,4.55.43-.53.87-1.06,1.4-1.71-.77-.85-1.58-1.74-2.58-2.84ZM107.43,64.35c-1.83-3.07-3.7-4.05-5.41-2.85,1.42,1.6,3.34,2.11,5.41,2.85ZM112.03,178.31c-1.91-.44-3.58.49-3.74,1.73-.04.35.19.89.47,1.07.27.17.93.15,1.13-.06.72-.77,1.32-1.66,2.14-2.74ZM54.69,132.32c.23,0,.47,0,.7,0,.33-.44.9-.86.94-1.32.08-.96-.49-1.74-1.52-1.61-.49.06-1.35.82-1.28,1.06.18.68.75,1.25,1.17,1.86ZM52.52,104.26c-.48-2.4-2.4-3.32-4.6-2.29,1.61.8,2.95,1.47,4.6,2.29ZM124.36,156.76c1.13,1.08,2.07.8,2.83-.14.29-.36.25-.98.36-1.49-.56.02-1.2-.13-1.64.1-.56.3-.96.92-1.55,1.52ZM201.84,196.21c.23-.72.54-1.17.43-1.47-.24-.64-.67-1.23-1.1-1.78-.06-.08-.84.21-.83.3.03.63.11,1.28.33,1.86.13.34.58.56,1.17,1.08ZM221.91,193.63c.9-2.13.66-2.78-1.05-3.06-.13,1.14-.47,2.3,1.05,3.06Z"/>
  </g>
</svg>