<?xml version="1.0" encoding="UTF-8"?>
<svg id="Layer_1" xmlns="http://www.w3.org/2000/svg" viewBox="0 0 333.58 238.5">
  <defs>
    <style>
      .cls-1 {
        fill: #a61e2f;
      }
    </style>
  </defs>
  <g id="mKyD3V">
    <path class="cls-1" d="M259.36,141.19c6.37-1.63,12.11-4.34,15.09-10.78,1.64-3.53,3.19-7.11,4.84-10.63,5.74-12.28,11.63-24.5,17.21-36.86,3.24-7.18,6.43-14.45,8.84-21.93,2.93-9.12-2.75-17.47-12.22-18.71-3.2-.42-6.6-.74-9.7-.1-6.58,1.37-13.22,2.91-19.48,5.3-7.25,2.77-14.92,5.45-20.99,10.05-18.05,13.66-35.85,27.71-50.4,45.37-3.37,4.09-8.01,7.12-11.95,10.77-2.34,2.16-4.48.61-6.07-.57-1.72-1.28-1.62-3.45-.12-5.36,2.71-3.45,5.28-7.02,7.95-10.5,6.86-8.93,13.77-17.82,20.58-26.8.75-1,.91-2.45,1.34-3.69-.21,0-.43,0-.64,0-10.87,13.81-21.74,27.62-32.07,40.75-8.8-17.91-17.73-36.07-26.77-54.47-2.59,1.43-1.11,3.12-.35,4.61,6.91,13.56,13.85,27.11,20.81,40.65,2.92,5.68,3.73,11.23-.94,16.64-1.37-2.06-3.01-4.01-4.09-6.24-8.2-16.94-19.1-32.14-31.21-46.36-9.05-10.64-19.13-20.43-29.12-30.22-9.33-9.15-19.97-16.31-32.87-19.85-7.01-1.93-12.91-1.61-18.27,3.98-4.35,4.53-5.78,10.08-3.27,15.71,1.43,3.2,2.78,6.48,3.74,9.84,2.1,7.33,3.82,14.76,5.9,22.1,2.82,9.96,6.41,19.7,7.18,30.19.77,10.5,5.64,18.65,15.26,23.42,3.88,1.93,8.04,3.3,11.54,4.71-5.5,2.82-11.44,5.69-17.21,8.86-5.15,2.83-8.9,7.43-9.05,13.15-.18,7.19.47,14.6,2.18,21.57,1.93,7.87,5.48,15.33,8.22,23,2.8,7.85,6.46,15.06,14.04,19.38,6.03,3.44,12.27,7.28,19.49,5.45,10.23-2.59,19.55-7.18,26.72-15.34,10.26-11.68,17.51-25.11,23.24-39.45.46-1.16,1.04-2.28,1.66-3.64,1.28,2.5,2.89,4.38,3.11,6.41.22,2.1-1.15,4.31-1.4,6.52-.67,6.05.51,8.75,3.79,10.14-.02,2.36-.42,4.68.1,6.77.31,1.24,2.09,2.12,3.2,3.16.66-1.21,1.65-2.36,1.92-3.65.65-3.1.96-6.27,1.4-9.41.32-.02.65-.03.97-.05.66,1.58,1.34,3.16,1.97,4.75,2.68,6.76,5.06,13.65,8.11,20.24,2.56,5.53,4.91,11.68,10.85,14.51,5.15,2.46,10.61,4.69,16.18,5.75,11.73,2.24,23.31,2.92,33.74-5.29,11.95-9.41,20.88-20.39,21.73-36.24.59-10.93-2.7-20.2-12.17-26.68-2.87-1.96-5.35-4.49-8.8-7.43,6.06-1.29,11.22-2.21,16.28-3.51ZM159.29,143.26c.05.57-.11,1.4-.5,1.73-5.44,4.56-6.37,11.55-9.53,17.33-5.42,9.91-11.12,19.66-16.77,29.44-.59,1.03-1.58,1.83-3.03,3.46,2.68-16.27,10.4-29.84,15.06-44.41-.3-.14-.61-.27-.91-.41-1.03,2.2-2.07,4.4-3.07,6.61-5.35,11.8-10.77,23.54-13.58,36.31-.96,4.36-2.97,8.71-8.3,8.82-3.5.07-7.14-.73-10.51-1.81-2.44-.78-3.7-3.26-2.78-5.85.99-2.79,2.09-5.76,3.95-7.98,7.99-9.55,15.25-19.48,20.72-30.78,2.7-5.58,7.18-9.83,13.33-12.53,5.3-2.33,9.93-6.19,14.99-9.45.32,3.11.68,6.31.94,9.52ZM152.76,127.5c-7.15-1.33-14.3-2.77-21.51-3.72-10.06-1.34-20.18-2.21-30.26-3.41-4.67-.56-9.62-.57-13.11-4.58-.9-1.03-1.98-1.98-2.58-3.17-2.62-5.15-.11-9.54,6.77-10.15,7.04-.63,14.27-.62,21.29.17,12.6,1.42,25.23,3.4,36.72,9.16,5.07,2.54,9.54,6.27,14.19,9.39-2.18,6-6.22,7.3-11.51,6.32ZM176.44,116.71c7.22-.06,14.47-.72,21.59-.06,15.33,1.43,30.61,3.51,45.9,5.37,4.49.55,8.74,7.98,7.23,12.57-.46,1.41-1.13,2.74-1.75,4.24-7.01,3.92-13.98.46-21.07-1.32-14.58-3.65-29.43-4.81-44.42-4.47-2.61.06-5.23.1-8.53.17.34-5.29.66-10.35,1.05-16.5ZM211.86,202.34c-9.4,3.19-12.99-3.73-17.23-9.71-10.35-14.6-12.7-31.83-16.43-49.17,7.97,4.32,13.45,10.57,19.05,16.9,4.37,4.94,5.58,11.03,8.25,16.57,2.84,5.88,5.66,11.77,8.24,17.77.94,2.18,1.16,4.67,1.84,7.57-1.99.01-2.94-.21-3.73.06ZM131.26,88.23c-5.49-4.12-11.23-7.91-16.75-11.98-6.21-4.59-6.61-11.43-6.43-18.28.02-.84,1.92-2.36,2.93-2.34,5.5.1,10.46,1.34,14.18,6.17,10.14,13.18,20.87,25.91,28.72,40.71,1.1,2.08,2.57,3.98,3.9,6.01-8.92-6.84-17.67-13.64-26.54-20.29ZM99.21,99.6c-6.19-.11-9.08-5.36-6.67-10.97,1.94-4.52,4.92-5.85,9.63-5.78,8.98.14,17.3,1.9,25.17,6.51,9.9,5.81,18.43,13.25,26.88,20.98-17.52-7.85-36.04-10.41-55.01-10.75ZM207.92,104.67c2.54-1.02,5.87-.32,8.8-.03,9.22.91,18.42,1.93,27.61,3.1,1.2.15,2.64,1.19,3.28,2.23.81,1.32,1.1,3.06,1.3,4.65.48,4.01-.47,4.99-4.52,4.68-6.88-.53-13.76-1.01-20.62-1.74-11.05-1.18-22.07-2.56-33.77-3.93,6.28-3.22,11.91-6.55,17.91-8.96ZM202.03,161.91c-6.49-8.76-14.25-16.04-23.41-21.89-.81-.52-1.47-1.28-2.9-2.56,9.07.17,17.37.22,25.66.6,1.07.05,2.39,1.66,3.02,2.86,4.31,8.16,8.47,16.41,13.01,25.26-6.79,1.3-11.91.39-15.37-4.27ZM180.09,164.17c2.63,12.14,7.09,23.4,14.67,33.39,3.12,4.1,2.67,8.96,1.42,14.92-2.55-2.5-5.03-4.22-6.56-6.55-5.73-8.77-9.89-18.27-12.65-28.42-.92-3.4-2.85-6.53-4.32-9.79-.2-.45-.61-.93-.56-1.35.86-6.52,1.78-13.03,2.69-19.54.35,0,.7,0,1.05,0,1.42,5.78,2.98,11.53,4.25,17.34ZM195.48,103.82c9.41-9.12,18.71-18.37,28.38-27.2,1.56-1.43,5.04-1.79,7.25-1.21,2.64.69,2.1,3.72.81,5.39-2.56,3.33-5.45,6.46-8.49,9.37-8.22,7.83-17.67,13.95-27.77,19.04-3,1.51-6.22,2.57-9.88,4.05,3.65-3.55,6.67-6.51,9.7-9.45ZM97.73,189.97c-3.22-.47-4.41-2.83-2.49-5.34,6.53-8.55,12.91-17.25,20.08-25.25,2.33-2.6,6.9-3.2,10.72-4.23-4.46,13.83-14.1,23.88-22.65,34.98-1.67-.04-3.69.12-5.65-.17ZM227.15,90.54c.88-.7,2.25-1.13,3.39-1.12,4.21.03,8.42.49,12.62.42,3.69-.06,5.32,1.14,5.49,4.84.03.75.02,1.5,0,2.25-.26,6.52-1.49,8.07-7.89,7.61-8.82-.62-17.59-1.87-26.95-2.91,4.94-4.14,9.08-7.7,13.35-11.1ZM89.89,140.95c-.36-.37-.73-.74-1.09-1.11,1-3.4,1.84-6.87,3.1-10.17.43-1.12,1.84-2.45,2.95-2.61,6.86-1,13.75-3.65,20.67-1.59,2.62.78,4.64,3.59,7.6,6.01-11.6,3.3-22.41,6.39-33.23,9.47ZM155.96,131.9c-5.84,4.35-11.06,8.5-17.9,9.83-2.66.52-5,.21-6.54-2.41-1.46-2.48-2.75-5.12-4.57-7.32-1.65-1.99-3.9-3.48-5.89-5.19.11-.31.22-.61.33-.92,11.28,1.96,22.56,3.92,34.56,6.01ZM97.56,80.58c-2.49-.14-6.08-4.32-5.97-6.72.14-3.18,3.38-6.75,6.41-6.64,3.7.14,7.1,0,9.21,4.76,1.63,3.7,5.74,6.31,8.82,9.47-6.04-.28-12.26-.52-18.46-.87ZM124.92,141.32c-1.76,1.92-3.07,4.25-4.63,6.36-3.38,4.59-6.88,5.4-12.66,2.75,2.56-8.58,7.64-14.69,16.76-17.22,2.77,2.6,3.24,5.13.53,8.1ZM215.38,191.19c-3.99-7.42-7.62-15.05-11.7-23.27,2.64.59,4.22,1.33,5.74,1.2,4.43-.35,6.84,1.94,7.78,5.8,1.46,5.99,2.56,12.06,3.82,18.1-.38.25-.76.5-1.13.75-1.54-.84-3.8-1.29-4.5-2.59ZM169.48,165.1c-3.61-.4-4.52-1.56-3.27-4.43.99-2.26,2.36-4.36,3.53-6.45-.32-.38-.53-.75-.62-.72-4.16,1.29-4.62-1.55-5.15-4.48-1.24-6.9-1.6-8.52,9.12-12.77-1.23,9.84-2.42,19.34-3.6,28.85ZM210.73,146.16c-.67-.15-1.29-1.08-1.68-1.78-1.1-1.95-2.07-3.98-3.24-6.26,6,.88,12.17,1.42,18.11,2.89,1.71.42,2.91,3.45,4.04,5.46.71,1.26.86,2.85,1.08,3.62-6.08-1.28-12.21-2.53-18.31-3.92ZM173.8,117.68c-.42,4.82-.71,9.64-1.36,14.42-.15,1.09-1.38,2.29-2.43,2.94-2.4,1.47-4.99,2.63-7.86,4.1-.65-10.12,6.37-22.57,11.65-21.46ZM247.96,76.45c1.75-.93,3.47.05,4.01,2.13.67,2.55.76,5.17-2.07,6.45-1.89.85-4.05,1.31-6.13,1.51-4.08.38-8.19.46-12.53.67,3.5-7.07,10.91-7.68,16.71-10.76ZM229.52,155.11c.73.44,1.32,1.83,1.24,2.72-.21,2.33-.83,4.63-1.38,7.41-6-4.91-12.91-8.18-15.93-15.87,6.46-.18,11.26,2.86,16.06,5.75ZM128.03,140.32c2.29,1.84,4.44,3.58,6.74,5.43-3.84,4.78-7.97,9.44-15.06,7.71,2.65-4.19,5.49-8.68,8.32-13.14ZM89.78,38.03c.69.68.65,2.87.08,3.88-1.55,2.75-5.23,3.24-8.23,1.03-1.8-1.33-3.13-3.3-4.7-5.02,4.58-3.36,9.37-3.35,12.85.1ZM264.03,70.35c1.97-.92,4.49-3.16,6.35.53,1.58,3.11.31,7.07-3.7,8.63-1.31.51-3.52-1.32-5.32-2.08-1.21-3.85.23-5.93,2.67-7.08ZM77.59,50.05c-2.24,1.01-6.51-.1-7.51-1.92-1.05-1.91.38-7.01,2.19-7.83,2.12-.96,5.38,1.25,7.5,5.62.6,1.43.07,3.12-2.18,4.13ZM93.03,143.7c5.11-1.81,10.18-3.73,15.45-5.13-5.25,5.15-10.95,9.34-18.35,10.84-.66-2.91.16-4.74,2.9-5.71ZM243.15,182.28c1.44,2.66.36,4.42-1.96,5.41-2.31.98-4.74.47-5.4-2.19-.67-2.69-.55-5.57-.8-8.7,3.91.85,6.5,2.4,8.16,5.48ZM97.03,33.79c-1.25,1.35-2.33,2.5-3.35,3.61-1.6-.95-3.01-2.02-4.59-2.68-5.16-2.14-5.8-4.48-2.1-9.1,3.27,2.66,6.53,5.31,10.05,8.17ZM260.59,54.64c1.74.2,3.34,1.61,5.01,2.47-1.05,1.18-1.89,2.84-3.2,3.43-2.81,1.26-5.19,4.27-9.1,2.76,1.44-5.67,4.08-9.01,7.29-8.65ZM238.01,73.07c-1.39.19-3.22-1.1-4.41-2.19-.34-.32.56-2.6,1.41-3.47,1.71-1.75,3.77-3.15,5.88-4.84,3.79,5.93,2.64,9.73-2.89,10.5ZM288.27,63.72c.94-.31,2.83.65,3.52,1.59,1.53,2.09.46,6.44-1.81,7.11-1.49.44-3.34-.36-5.03-.6-.89-3.05.75-7.25,3.33-8.1ZM256.01,192.27c-4.06-5.66-2.42-11.94,3.59-13.73,1.03,3.47-.76,10.32-3.59,13.73ZM239.67,145.93c.88,2.24,1.76,4.15,2.35,6.13.37,1.24.61,2.67.33,3.88-.21.91-1.3,2.15-2.09,2.22-.76.07-2.14-1.03-2.38-1.86-.89-3.08-1.43-6.26-2.2-9.9,1.86-.22,3.05-.36,3.99-.47ZM280.47,106.06c.35.26.71.53,1.06.79-1.98,3.36-3.85,6.8-6.07,10-.29.42-3.37-.3-3.39-.61-.15-2.16-.32-4.58.56-6.41.39-.81,3.22-.45,4.96-.63.88-.96,1.88-2.05,2.88-3.14ZM90.59,157.91c1.56,3.13-1.01,4.47-2.81,5.48-.99.55-3.94-.25-4.3-1.15-.96-2.33-.24-4.68,2.67-5.64,1.97-1.35,3.37-.86,4.44,1.3ZM267.6,66.17c-2.71,1.18-5.04,2.2-7.63,3.33-.76-1.16-1.67-2.55-2.54-3.88,3.08-1.58,5.77-2.95,8.9-4.56.51,2.06.91,3.67,1.27,5.11ZM273.6,51.13c-.55-4.14.99-6.07,8.55-6.08-.27,4.89-3.82,7.42-8.55,6.08ZM73.35,65.63c1.39.12,2.77.45,4.15.69-.3,1.23-.21,3.1-.98,3.56-1.44.87-3.98,1.82-4.95,1.14-1.47-1.03-2-3.42-2.96-5.31,2.26-.06,3.51-.19,4.75-.09ZM277.42,86.63c-.43-1.29.49-3.93,1.63-4.6,1.06-.62,4.03.1,4.62,1.12.69,1.2-.29,3.35-.72,6.36-2.75-1.34-5.16-1.77-5.53-2.88ZM72.7,110.98c.09-.32.17-.64.26-.96,2.91,0,5.81,0,8.89.01.8,1.94,1.81,4.42,3.21,7.83-4.5-2.51-8.43-4.7-12.36-6.89ZM76.57,19.33c-1.46,1.36-2.38,2.93-3.36,2.98-2.03.09-4.36-.19-6.02-1.21-.8-.49-.37-2.99-.56-5.44,3.81,1.41,6.38,2.35,9.94,3.67ZM70.21,170.15c.2-.32.41-.64.61-.96,1.65.68,4.14.92,4.78,2.13,1.47,2.77,1.18,5.82-2.26,8.41-1.14-3.48-2.13-6.53-3.13-9.58ZM262.24,124.81c-2.06-1.01-3.04-4.2-4.48-6.45.35-.35.69-.71,1.04-1.06,2.51.99,5.03,1.97,7.85,3.08.02,3.21-2.77,5.22-4.4,4.42ZM71.1,82.55c-.58-.89-.77-2.03-1.14-3.06,1.24-.28,2.56-.94,3.71-.72,1.09.22,2.76,1.28,2.84,2.11.17,1.77-.51,3.62-.84,5.44-.47.06-.94.13-1.41.19-1.07-1.31-2.24-2.55-3.16-3.96ZM262.14,87.92c.73-.44,3.62.82,3.68,1.5.15,1.56-.51,3.48-1.51,4.72-.38.47-2.58-.52-5.24-1.16,1.37-2.42,1.86-4.32,3.07-5.06ZM227.42,167c.38.29.45.98.66,1.48-.63.17-1.38.66-1.87.48-4.37-1.68-8.39-3.78-8.87-9.37,3.38,2.47,6.76,4.9,10.08,7.41ZM50.16,35.18c2.38.18,5-.3,5.5.53,1.8,2.94,0,5.54-2.13,8.4-1.16-3.07-2.1-5.56-3.37-8.92ZM258.74,164.99c.76,3.76,1.43,7.04,2.28,11.23-6.43-5.04-6.71-6.62-2.28-11.23ZM233.15,143.55c.03,3.44.05,7.06.08,10.67-.21.09-.42.18-.63.27-1.23-4.04-2.46-8.09-3.98-13.09,1.89.89,3.33,1.57,4.54,2.14ZM90.98,200.21c-.13-.91,1.6-3.02,2.38-2.97,3.58.21,3.1,3.25,3.59,5.98-2.83.09-5.5.29-5.97-3.01ZM73.7,105.65c1.08-1.92,2.16-3.84,3.24-5.76l1.19.24c.37,2.3.75,4.6,1.12,6.9-.37.26-.75.52-1.12.79-1.48-.73-2.95-1.45-4.43-2.18ZM66.48,149.19c1.54.37,3.42.31,3.72.97,1.42,3.13-.08,5.73-2.72,8.77-.37-3.6-.65-6.29-1-9.74ZM72.55,134.88c1.68,5.43-.25,8.08-6.08,8.34,2.15-2.95,3.95-5.42,6.08-8.34ZM169.37,167.83c-.45,3.29-.87,6.31-1.35,9.83-4.35-3.32-3.78-7.32,1.35-9.83ZM60.79,48.32c-.1.24-1.67.29-2.09-.09-1.34-1.19.31-7.16,2.03-7.46.53-.09,1.18.46,2.32.96-.77,2.35-1.4,4.52-2.25,6.6ZM243.12,201.93c-.85.48-2.3-.09-3.47-.18.94-2.12,1.88-4.23,2.81-6.35.53.19,1.06.38,1.6.57.82,2.13,1.79,4.42-.94,5.97ZM81.48,145.57c.39-.21,2.06.84,2.25,1.55.65,2.41.65,4.78-3.26,5.15-.55-2.59-2.04-5.05,1.01-6.7ZM86.01,170.05c1.27-3.94,3.81-4.85,7.69-4.78-1.66,3.8-3.94,5.09-7.69,4.78ZM84.53,128.59c.49,2.77.4,5.28-2.4,6.28-.65.23-2.09-1.76-3.66-3.18,2.77-1.42,4.3-2.2,6.07-3.11ZM288.04,53.13c5.53.07,7.67,2.21,6.09,6.16-2.01-2.04-3.79-3.83-6.09-6.16ZM218.37,209.66c.34.44-.34,2.5-.88,2.65-2.39.67-4.13-.28-4.76-3.15,2.23-1.91,4.17-1.41,5.64.5ZM231.2,213.52c-1.11.15-2.44-1.32-3.67-2.08.06-.45.12-.89.18-1.34,1.74-.39,3.48-.78,5.23-1.16l.91,1.42c-.87,1.12-1.64,3.03-2.65,3.16ZM80.21,56.64c2.34.96,4.68,1.93,7.89,3.26-4.73,2.4-6.12,1.83-7.89-3.26ZM63.67,34.37c-.19-3.17.47-5.32,4.46-4.64.89,4.05-1.16,4.84-4.46,4.64ZM89.53,180.14c.89-2.25,1.78-4.5,2.68-6.75.43.16.86.32,1.29.48,1.3,3.24-.3,5.2-3.96,6.27ZM105.35,44.31c-.95.17-2.5.78-2.74.45-1.29-1.79-1.3-3.66,1.67-5.73.41,2.04.74,3.66,1.07,5.28Z"/>
  </g>
</svg>