<?xml version="1.0" encoding="UTF-8"?>
<svg id="Layer_1" xmlns="http://www.w3.org/2000/svg" viewBox="0 0 362.7 297.64">
  <defs>
    <style>
      .cls-1 {
        fill: #a61e2f;
      }
    </style>
  </defs>
  <g id="Cjb59o">
    <g>
      <path class="cls-1" d="M295.62,152.73c1.31-.95,2.29-2.79,4.44-1.46.3.19,1.11-.65,1.69-.67,3.51-.09,7.03-.16,10.54-.04,1.49.05,2.09-.49,1.89-1.94-.32-2.35-.7-4.75-.53-7.1.42-5.77-.45-11.42-1.15-17.09-.31-2.53-.56-5.06-.82-7.59-.38-3.63-.74-7.27-1.1-10.9-.28-2.79-.57-5.58-.83-8.36-.05-.51,0-1.03,0-1.55.17-.02.35-.05.52-.07.42,2.37.88,4.73,1.26,7.1.72,4.54,1.56,9.08,2.06,13.65.78,7.11,2.74,14.09,2.41,21.31-.18,3.75-.57,7.5-.9,11.56,2.25-.56,4.55-1.13,6.86-1.69.31-.08.62-.22.92-.2,2.43.14,4.01-1.36,5.65-2.83,1.7-1.53,3.49-2.97,5.29-4.38.91-.71,1.93-1.28,2.7-1.78-.42-3.92-.64-7.74-1.27-11.48-.66-3.91-1.75-7.74-2.61-11.62-1.36-6.14-2.76-12.28-3.97-18.45-.48-2.43-.51-4.94-.75-7.41-.01-.15-.12-.28-.25-.58-12.85,4-25.69,7.99-38.54,11.99-.01-.02-.03-.03-.04-.05,1.58-.68,3.12-1.48,4.75-2.02,7.57-2.48,15.16-4.87,22.73-7.33,2.05-.67,4.04-1.53,6.08-2.25,1.24-.44,2.53-.72,3.78-1.16.42-.15.75-.53,1.12-.81-.31-.38-.55-.99-.93-1.11-1.41-.44-2.86-.81-4.32-1.02-2.61-.38-5.27-.5-7.87-.96-1.94-.35-3.81-1.08-5.71-1.64.05-.18.11-.35.16-.53.85.3,1.7.57,2.54.91,2.61,1.05,5.3,1.1,8.09,1.14,2.65.03,5.34.61,7.92,1.31.65.17,1.17,1.66,1.35,2.61.38,2.13.32,4.34.76,6.45,1.82,8.76,3.51,17.56,5.74,26.22,1.44,5.6,2.4,11.17,2.47,16.93,0,.31.08.63.21.91,1.36,2.92.77,5.21-1.75,7.2-.41.32-.58.99-.75,1.54-.45,1.5-.92,3.01-1.22,4.55-.2,1.01-.12,2.07-.17,3.11-2.31.35-4.64.62-6.93,1.08-.81.16-1.53.77-2.3,1.17.07.18.15.36.22.54,3.28-.37,6.66-.06,9.94-1.48-.25-.41-.41-.67-.57-.94,1.87.92,2.44,2.78,1.31,4.76-.44.77-.27,1.25.03,1.99.67,1.64,1.34,3.35,1.55,5.09.61,5.02-.5,9.9-1.62,14.76-1.52,6.63-3.12,13.26-4.44,19.93-.75,3.82-1.02,7.74-1.5,11.62-.19,1.52-.43,3.04-.5,4.57-.04.96.22,1.93.3,2.9.04.45,0,.91-.04,1.36-.16,1.42-.48,2.88.74,3.59.07.86.11,1.39.15,1.92-.5.56-.99,1.12-1.28,1.44-.77-.15-1.53-.34-2.3-.44-1.44-.17-2.9-.26-4.34-.43-.5-.06-.97-.29-1.55-.46-.15.97-.28,1.77-.4,2.48.18.15.22.22.26.22,3.09.15,6.18.34,9.27.35.33,0,.86-1.02.94-1.61.06-.49-.41-1.05-.65-1.57,1.33-.23,2.39.71,2.15,2.2-.42,2.65-1,5.28-1.57,7.9-.57,2.62-1.31,5.21-1.79,7.84-.23,1.27-.63,1.87-2.01,1.86-1.67,0-3.35.21-4.91.33-.35-3.81.4-7.55-1.38-11.01-.65-1.26-1.17-2.6-1.88-3.84-1.19-2.08-.64-3.74,1.19-5.22-.28-.26-.52-.48-.78-.72,1.22-1.08,2.4-2.13,3.74-3.32-1.52-.82-1.72-1.63-.96-2.76.29-.43.36-1.11.31-1.65-.81-7.95-1.66-15.9-2.51-23.85-.5-4.68-1.15-9.35-1.5-14.05-.52-6.87-.94-13.76,1.34-20.46.14-.4.02-1.01-.2-1.39-.95-1.6-.87-3.37.5-4.61.81-.73.63-1.19.02-1.33-5.6.89-11.19,1.78-16.91,2.69.25.7.4,1.12.55,1.53-.05.03-.11.06-.16.09l-.79-1.09c-.04-.15-.07-.3-.11-.44-2.43.62-4.85,1.23-7.6,1.93-.02.03-.28.39-.54.76-1.44-.75-2.71-.43-4.33,1.16-2.19,2.16-4.67,2.88-7.68,2.01-3.61-1.04-7.22.98-9.14,4.17-1.67,2.78-4.01,5.15-6.03,7.72-.51.65-1.27,1.34-1.34,2.06-.33,3.78-3.04,5.36-5.94,6.82-1.18.6-2.39,1.15-3.51,1.84-1.53.93-3.1,1.9-2.51,4.16.05.21-.16.49-.24.74-1.9.32-3.81.61-5.71.96-1.25.23-2.54.45-3.56,2.15,3.66-.61,7.05-.09,10.31-1.62-.25-.41-.43-.72-.61-1.02,1.9.99,2.53,2.87,1.44,4.77-.47.81-.33,1.32,0,2.13.68,1.63,1.32,3.36,1.52,5.1.44,3.92-.02,7.82-.92,11.67-1.57,6.69-3.18,13.38-4.55,20.11-.63,3.1-.71,6.31-1.13,9.46-.43,3.2-1.02,6.37-1.42,9.57-.12.94.19,1.93.26,2.9.04.45.02.91-.03,1.36-.14,1.42-.52,2.89.75,3.59.06.84.09,1.38.13,1.91-3.09,1.69-6.24,1.4-9.47.09-.15,1.03-.27,1.83-.44,2.94,3.35.07,6.48.2,9.61.14.34,0,.85-1.03.92-1.62.06-.49-.42-1.04-.66-1.57,1.33-.22,2.32.69,2.2,2.19-.23,2.9-.65,5.75-1.78,8.5-.8,1.98-1.1,4.17-1.62,6.27h-1.6c1.15-3.97,2.3-7.94,3.44-11.88-3.45.3-6.48.57-9.79.86.83,1.52,1.68,3.07,2.76,5.03.41-1.65.7-2.82,1.02-4.13,1.21-.17,2.56-.36,4.14-.58-.86,2.98-1.32,5.85-2.86,8.9-.43-.65-.57-.95-.79-1.18-.28-.3-.62-.55-.93-.81-.23.37-.62.73-.64,1.1-.05.89.08,1.79.14,2.68h-1.91c-.06-1.05-.04-2.11-.2-3.14-.23-1.44-.46-2.91-.94-4.28-.52-1.49-1.25-2.91-2.01-4.29-1.15-2.09-.66-3.75,1.24-5.18-.33-.29-.58-.5-.84-.73,1.22-1.07,2.39-2.09,3.71-3.24-1.51-.92-1.65-1.84-.81-3.03.26-.37.25-1.02.19-1.52-.82-8-1.67-16-2.52-24-.49-4.63-1.13-9.25-1.49-13.89-.53-6.87-.97-13.76,1.39-20.45.11-.32.15-.75.02-1.04-1.35-2.9-1.21-3.59,1.42-5.9-1.23-1.54-2.47-3.08-3.52-4.38.72.2,1.83.6,2.98.8,1.95.33,3.93.52,5.9.78.61.08,1.3.02,1.82.28,1.57.79,3.03.45,4.39-.37,3.21-1.93,6.41-3.88,9.53-5.96.93-.62,2.01-1.59,2.22-2.57.48-2.36,2.1-3.84,3.46-5.56,2.02-2.57,4.04-5.15,6.06-7.74-1.17-.99-1.94-.82-2.58.18-1.57,2.45-3.24,4.85-4.68,7.38-1.15,2.01-2.56,3.42-4.92,3.9-.72.14-1.38.88-1.93,1.46-1.12,1.19-1.95,2.79-3.26,3.64-1.84,1.2-3.98,1.99-6.08,2.71-.87.3-1.95-.06-2.89-.12,1.79-.71,3.48-1.65,5.28-2.02,1.53-.32,2.85-.87,3.54-2.13,1.3-2.37,2.93-4.15,5.66-4.76.41-.09.82-.53,1.07-.92,1.4-2.18,2.8-4.36,4.1-6.6,1.36-2.34,2.78-4.37,6-4.09.8.07,1.84-.58,2.5-1.2,1.69-1.58,3.78-2.03,5.9-2.53,3.35-.8,6.32-2.26,8.59-5,.69-.83,1.75-1.34,3-2.26.19,1.39.31,2.24.42,3.1-.29-.51-.58-1.03-.88-1.55-.87.71-1.1,2.95-.35,3.58.26.22.75.23,1.11.18.1-.01.2-.55.2-.85,0-.47-.08-.94-.12-1.41.17-.88.34-1.76.53-2.75.45.05.92.11,1.4.17-.12,1.32-.24,2.64-.41,4.39,1.4-.9,2.46-1.58,3.44-2.21-.52-.95-.96-1.77-1.43-2.63-.54.16-1.09.32-1.64.48ZM326.61,213.01c.07,0,.13,0,.2,0,.12-.51.27-1.01.36-1.52.76-4.14,2.31-8.12,2.15-12.47-.16-4.22-.02-8.47.14-12.7.18-4.81-.62-9.49-1.26-14.22-.36-2.64-.06-5.36-.06-8.05.24,0,.48-.01.72-.02,1.1,11.24,2.06,22.49,1.94,33.84.33-.54.51-1.07.62-1.62,1.08-5.28,2.03-10.6,3.25-15.85,1-4.33,1.45-8.67,1.17-13.08-.09-1.45-.55-2.88-.82-4.25-.91.17-1.58.29-2.21.41.78,3.46,1.66,6.89-.14,10.5-.15-.32-.24-.44-.26-.57-.46-3.03-.92-6.07-1.36-9.1-.14-.98-.58-1.47-1.67-1.43-1.37.05-4.02,2.84-4.1,4.49-.13,2.75-.35,5.5-.35,8.25,0,3.18.08,6.37.33,9.53.33,4.16,1.05,8.3,1.23,12.47.2,4.51-.04,9.03-.07,13.55,0,.61.13,1.23.21,1.84ZM246.44,246.36c2.62-15.66,3.36-31.37.89-47.43-.55.84-.84,1.65-1.42,2.1-1.49,1.15-2.19,2.72-2.3,4.46-.16,2.73-.08,5.47-.08,8.21,0,2.34-.1,4.69.12,7,.52,5.58,1.21,11.14,1.82,16.71.33,2.98.64,5.97.95,8.95ZM323.76,162.53c-.29-.1-.58-.2-.87-.3-.6,1.16-1.5,2.27-1.74,3.5-.7,3.61-1.44,7.25-1.6,10.91-.16,3.52.32,7.08.63,10.61.57,6.38,1.23,12.75,1.87,19.12.48,4.72.99,9.44,1.49,14.21h2.3c-.17-1.64-.52-3.17-.45-4.68.32-7.29-.83-14.47-1.52-21.69-.37-3.89-1-7.76-1.35-11.66-.26-2.85-.43-5.73-.3-8.58.14-2.86.69-5.7,1.08-8.55.13-.97.3-1.94.46-2.9ZM325.15,148.13l-.11-.33c-.69.19-1.38.37-2.07.58-1,.31-1.99.83-3.01.91-1.88.15-3.56.6-5.23,1.55-.93.53-2.33.28-3.52.3-.62,0-1.26-.31-1.87-.25-3.65.37-7.29.81-11.07,1.24.4.77.68,1.32.97,1.89.22-.21.43-.39.78-.71.08.68.14,1.15.23,1.92,4.35-.83,8.66-1.34,12.78-2.52,4.14-1.18,8.09-3.02,12.12-4.57ZM252.68,224.36s.1,0,.14-.01c.58-2.95,1.03-5.92,1.75-8.83,1.07-4.31,1.44-8.67,1.18-13.09-.09-1.45-.54-2.88-.82-4.26-.91.16-1.58.28-1.8.32.09,2.85.2,5.62.24,8.38.02,1.4-.14,2.8-.17,4.2-.02.84.08,1.68.04,2.51-.17,3.59-.38,7.18-.57,10.77ZM251.33,223.39h.25c.24-2.3.69-4.61.67-6.91-.05-4.23-.34-8.46-.64-12.69-.12-1.68-.49-3.35-.88-5-.08-.34-.7-.68-1.13-.76-.39-.07-1.07.11-1.2.38-.16.34.09.89.2,1.34.21.81.55,1.6.65,2.42.15,1.21,0,2.46.22,3.65,1.01,5.43,1.81,10.87,1.77,16.41,0,.39.06.78.1,1.16ZM240.41,225.16s.09.01.13.02c.32-4.89.5-9.79.99-14.66.33-3.32,1.08-6.59,1.64-9.89.17-1.01.34-2.02.51-3.02l-.53-.11c-1.21.85-1.98,1.96-2.13,3.49-.1,1.05-.24,2.1-.37,3.15-.4,3.22-1.12,6.43-1.14,9.65-.02,3.79.58,7.58.91,11.37ZM241.1,262.36c1.2.41,2.5.95,3.85,1.31,2.76.74,4.36-.89,3.68-3.59-.26-1.02-.49-1.81-1.83-1.53-.96.21-2.22-.08-2.89.44-1.13.87-1.89,2.21-2.81,3.36ZM290.2,156.94c-3.52,1.35-6.9,2.66-10.13,3.9,3.96,2.04,7.57,1.44,10.63-2-.18-.68-.37-1.4-.5-1.9ZM321.11,227.35c2.28.23,4.37,2.31,6.76.85-.33-1.17-.62-2.21-.93-3.24-.14-.47-.31-1.29-.53-1.32-.81-.09-1.9-.21-2.41.23-1.09.94-1.89,2.23-2.89,3.47ZM254.54,193.3c-.91.43-2.09,1.5-3.11,1.37-2.61-.35-5.15-1.23-7.72-1.9-.48-.12-.95-.26-1.42-.39-.07.55-.38,1.22-.17,1.62.27.53.9,1.13,1.46,1.22,2.07.36,4.11,1.67,6.29.34.22-.13.62.03.93.05,1.84.14,3.27-.84,3.75-2.32ZM334.6,158.38c-1.13.38-2.59,1.42-3.79,1.18-2.47-.5-5.17-.42-7.34-2.11-.82-.64-1.5-.32-1.36.76.07.61.43,1.55.87,1.69,1.2.38,2.5.42,3.9.61.09.56.65.8,1.92.43.64-.19,1.31-.45,1.96-.42,1.89.07,3.19-.69,3.85-2.13ZM244.65,246.58c.28-.03.57-.05.85-.08-.69-6.98-1.39-13.96-2.08-20.94l-.69.06c.64,6.98,1.28,13.97,1.92,20.95ZM250.66,267.28c-.03-.2-.05-.39-.08-.59h-10.58c.74.68,1.18,1.44,1.67,1.47,3.05.21,6.09.18,8.99-.88ZM324.33,168.08c-.19.22-.52.43-.54.67-.95,10.6.56,21.08,1.72,31.57-.51-10.72-2.59-21.39-1.18-32.24ZM319.97,231.48c.82.73,1.32,1.55,1.87,1.59,1.78.12,3.58.01,5.36-.13.79-.06,1.56-.43,2.34-.64.38-.1.77-.17,1.15-.25-.41-.19-.81-.53-1.23-.54-2.99-.05-5.97-.03-9.5-.03ZM332.62,153.24c-2.87-.67-5.71-.13-8.98.5,5.44,1.51,8.23,1.25,8.98-.5ZM252.57,188.35c-1.56-.2-3.5-1.06-4.39-.43-1.39.99-3.06-.24-4.19,1.06,5.31,1.32,7.68,1.1,8.59-.63ZM245.16,255.71c-.31-.64-.75-1.29-.94-2.01-.29-1.06-.38-2.18-.59-3.26-.33-1.8-.69-3.59-1.03-5.39-.14.02-.28.05-.42.07.48,3.51.96,7.03,1.45,10.59h1.53ZM326.41,245.46c-1.64.67-1.96.48-1.97-1.13,0-.85,0-1.71,0-2.56-.17,0-.34.01-.51.02v5.8c1.09-.14,2.18-.27,3.38-.42-.4-.75-.64-1.19-.91-1.7ZM248.1,251.42c-1.92.85-2.28,2.34-1.84,4.15,2.26.62,1.91-.54,1.84-4.15ZM245.92,258.56c.69-.77,1.19-1.32,1.69-1.88-.6-.12-1.19-.24-1.79-.36-.05-.01-.12-.02-.16,0-.44.29-.88.58-1.32.87.42.36.83.71,1.59,1.36ZM334.83,142.28c.21.41.34.7.5.97.16.29.35.56.74,1.16.47-1.34.83-2.35,1.19-3.36-.15-.06-.3-.13-.44-.19-.62.45-1.25.9-1.98,1.43Z"/>
      <path class="cls-1" d="M215.56,42.32c-.85,1.13-1.87,2.18-2.48,3.42-.32.66.09,1.67-.11,2.68-1.03-1.33-2.23-2.57-3.05-4.01-1.75-3.07-3.24-6.3-4.97-9.39-1-1.8-2.49-3.13-4.54-3.51-.52.68-.98,1.29-1.44,1.9-1.62,0-3.24,0-5.04,0,1.94,1.26,3.82,2.49,5.92,3.85-.59-1.35-2.08-2.36-.91-3.88,2.39-.62,3.33,1.16,4.34,2.7,1.19,1.82,2.23,3.74,3.39,5.58,1.42,2.27,2.9,4.51,4.4,6.85-1.76-1-2.91-2.5-3.78-4.24-.82-1.63-1.24-3.53-2.98-4.53-.67-.39-1.42-.64-1.96-.88.54,2.62,1.28,5.2,1.55,7.82.36,3.47,1.14,6.79,2.76,9.87.58,1.1,1.6,1.97,2.52,3.07.24-.41.43-.73.63-1.06.39.49.73.94,1.08,1.38.14-.05.29-.09.43-.14.06-.65.13-1.29.18-1.83.45.34.97.73,1.62,1.21.23-.6.39-1.01.63-1.63.76,2.23-.04,4.79,2.02,6.33-.1.22-.51.68-.41.92.39.9.74,2.07,1.48,2.51,3.04,1.82,5.87,4.18,9.47,4.8,3.33.57,6.71.85,10.08,1.2,2.07.21,3.31-1.33,4.69-2.48.26-.22.47-.85.35-1.14-1.02-2.5.91-3.54,2.4-4.57,1.73-1.19,3.64-2.14,5.9-2.11,1.94.03,3.17-1.3,4.3-2.68.69-.84,1.36-1.71,2.37-2.4-.22.7-.44,1.41-.66,2.11,2.65-2.92,4.83-5.98,2.89-10.29,3.04,4.22,2.03,8.49.56,12.77,1.11.31,1.14.32,1.39-.79,1.28-5.74.44-11.04-3.11-15.86-1.68-2.28-3.19-4.69-4.77-7.05.11-.14.23-.28.34-.42h1.98c0-.14.02-.28.02-.41-.46-.12-.92-.24-1.38-.36.02-.2,0-.34.05-.39,2.24-1.85,4.51-3.66,6.74-5.53,1.88-1.58,5.12-1.75,7.41.7-1.07-.34-2.14-.68-3.2-1.03-.11.15-.23.29-.34.44.35.05.7.1,1.05.15-.11.12-.21.24-.32.36-.26.01-.51.03-.77.04l.04.02c-1.9-.82-5.14,1.06-5.75,3.33,3.37-1.05,4.48-2.47,7.97,1.92v-1.93c1.68,2.33.21,4.69.54,7.01.36-.21.57-.26.6-.37.72-2.36,1.49-4.72,2.08-7.11.11-.46-.41-1.14-.75-1.64-.32-.47-.78-.83-1.18-1.24.73.41,1.65.68,2.15,1.28.46.56.7,1.49.66,2.24-.24,4.2-1.81,7.92-4.2,11.35-1.21,1.74-2.31,3.56-3.4,5.38-.28.47-.51,1.08-.47,1.61.21,2.86.44,5.71-.94,8.48,4.58.45,9.01.84,13.42,1.34,1.36.15,2.73.49,4.03.93.7.24,1.26.89,1.76,1.51-7.79-2.7-15.72-2.92-23.74-2.21-2.59.23-5.16.58-7.75.8-.63.05-1.28-.35-1.92-.33-2.63.11-4.92,3.05-4.24,5.57,1.02,3.78,2.06,7.57,3.34,11.27,1.69,4.89,7.56,8.7,12.19,8.06-.47-2.08-2.34-3.94-1.05-6.36.82,2.2,1.62,4.37,2.43,6.54l.57-.13c-.1-1.26-.19-2.53-.29-3.79.09-.02.19-.05.28-.07.28,1.04.47,2.11.88,3.1.19.46.83,1.08,1.21,1.05,4.01-.33,7.86-1.22,11.16-3.7,2.68-2.01,3.85-5.04,5.08-7.95.99-2.33,1.57-4.84,2.24-6.97.71-.35,1.21-.57,1.69-.85.17-.1.28-.31.43-.47,2.33-2.47,3.45-2.37,5.48.72-.81-.47-1.61-.93-2.84-1.64.32.99.52,1.63.73,2.27-1.27-.28-2.47-.1-3.14,1.41-.15.35-.59.71-.96.79-1.72.38-2.09,1.65-2.42,3.13-.35,1.53-.95,3-1.5,4.69,3.05-1.42,6.56-1.53,8.99-4.1-.73.7-1.49,1.38-2.17,2.12-.3.32-.43.79-.64,1.19.45-.09.98-.05,1.34-.28,1.52-.96,1.96-2.4,1.72-4.13-.14-1.03-.15-2.09-.22-3.13.18-.07.35-.13.53-.2.41.81.82,1.61,1.25,2.46.1-.26.23-.59.36-.92,1.22.62-.81,4.99-3.81,7.88,1.02.76,2.05,1.52,3.07,2.29-.14.14-.28.29-.43.43-.37-.33-.73-.67-1.12-.98-1.21-.98-2.48-1.58-4.11-1.02-.95.32-1.97.43-2.95.66-2.06.49-3.87,1.06-5.21,3.13-1.71,2.65-4.7,3.7-7.77,4.22-1.09.19-2.19.31-3.29.46.02.17.04.35.05.52,1.8-.15,3.66-.1,5.39-.52,1.77-.43,3.43-1.34,5.38-1.78-1.21.96-2.42,1.92-3.72,2.95.3.12.64.24,1.25.48-.56.3-.92.59-1.33.7-7.33,2.13-14.66,2.17-21.94-.19-.77-.25-1.55-.76-2.07-1.37-.94-1.1-.6-2.04.85-2.82q-.87,2.47,1.84,3.22c3.29.92,6.65,1.03,10.08.65-1.45-.29-2.89-.58-4.34-.87.02-.15.03-.3.05-.45h4.31c0-.11.02-.21.02-.32-.17-.09-.34-.26-.5-.25-3.42.12-6.16-1.79-9.02-3.19-2.1-1.03-3.3-3.07-4.19-5.24-.85-2.07-.9-2.13-2.98-1.2-1.92.86-3.83,1.79-5.63,2.88-3.35,2.02-4.29,4.78-3.03,8.35l.03-.03c-1.73-1.44-2.19-3.71-1.01-5.48.83-1.26,1.8-2.42,2.69-3.61-11.27-.94-17.89-3.43-21.24-7.42-1.34,1.24-2.77,2.26-4.8,1.61-.24-.08-.84.75-1.16,1.23-.39.6-.73,1.25-.96,1.93-.16.48-.08,1.03-.14,1.55-.1.8-.22,1.6-.39,2.75,3.45-1.78,6.64-1.05,9.43.92-1.73,1-3.53,2.41-5.57,3.13-2.48.88-4.79,2.04-7.17,3.12-1.92.88-3.76-.09-4.6-1.91-.51-1.11-1.19-2.14-1.79-3.21,1.23.49,1.9,1.38,2.23,2.67.12.47.77,1.14,1.16,1.13,1.63-.03,3.26-.29,4.89-.47.02-.19.03-.37.05-.56-2.72.46-4.33-.67-5.54-3.03-.41-.79-2.15-.89-3.29-1.3-.05.2-.1.4-.14.6-3.06,2.5-6.24,4.79-10.25,5.5-.76.13-1.62.21-2.32-.02-2.29-.75-4.59-.67-6.93-.48-.61.05-1.25-.34-1.88-.53.36-.09.72-.2,1.08-.26,2.17-.36,4.65.56,6.52-2.09.11,1.05.17,1.56.23,2.13,5.21.23,8.76-2.94,12.54-5.64-.38-.6-.72-1.13-1.15-1.8.57.24.92.38,1.27.52.08-.72-.03-1.31-.37-1.66-1.48-1.49-3.2-2.49-5.4-2.47-.43,0-.87-.37-1.31-.58l-.03.03c1.6-.27,3.58-.05,4.71-.92,2.33-1.81,4.36-4.08,6.21-6.4.94-1.18,1.27-2.87,1.83-4.35.95-2.49.61-3.73-1.44-5.35-.52-.42-1.08-.79-1.85-1.35.69,0,1.08,0,1.47,0,.05.05.11.1.17.15,1.81,1.42,2.69,3.39,3.09,5.91.87-.64,1.68-.98,2.07-1.58,1.5-2.31,1.18-5.16.04-7.05-1.17-1.94-3.26-3.99-6.14-3.89-1.32.05-2.63.39-3.99.61.34.65.57,1.1.81,1.55-1.15-.63-2.3-1.27-3.44-1.9,1.21-.15,2.46-.16,3.61-.5,1.81-.53,1.93-1.37.52-2.68-.27-.25-.61-.43-.92-.63-2.75-1.8-5.72-1.59-8.72-.88-1.5.35-2.72,1.13-3.45,2.99,1.21.07,2.36.41,3.33.13,2.29-.65,3.96.39,5.65,1.6-.36-.09-.72-.16-1.07-.29-4.22-1.54-7.99.5-10.23,3.37-.69.88-1.66,1.54-2.5,2.3-1.67,1.51-3.63,2.84-3.57,5.45,0,.42.39.83.64,1.32-.09.05-.49.26-.88.47-1.28-1.75-1.13-3.82.25-5.25,1.18-1.22,2.35-2.42,4.09-2.87.42-.11.83-.48,1.12-.83,1.32-1.56,2.59-3.16,3.85-4.71-2.45-1.24-3.26-1.24-5.86.08-.56.29-1.21.83-1.71.73-1.56-.31-2.31.8-3.26,1.57-.65.52-1.18,1.2-1.86,1.67-2.27,1.57-3.33,4.37-2.59,7.02.08.29.15.64.07.92-.91,3.14.58,5.53,2.36,7.85-.81-.92-1.74-1.77-2.4-2.79-.63-.97-.98-2.13-1.64-3.63-.38.88-.71,1.32-.74,1.78-.13,2.19-.34,4.4-.22,6.59.13,2.24,1.19,4.15,3.44,4.91,1.11.38,2.39.24,3.39.32-.13.39-.3.92-.48,1.46h.77c-.08.43-.16.84-.24,1.24-1.39,1.99-1.35,2.47.37,3.93,1.17,1,1.94,2.2,1.97,3.79-.42-.41-.91-.77-1.23-1.24-.63-.94-1.04-2.05-1.78-2.89-.81-.93-1.59-1.72-.74-3.1-1.89.65-2.3,2.34-1.27,4.16.22.38.31,1.05.12,1.4-.33.63-.82,1.32-1.43,1.63-3.08,1.61-6.3,2.23-9.68.93,1.87-.19,3.94.91,5.56-.88.08.17.16.34.24.52.47-.71.95-1.42,1.57-2.36-1.62.45-2.81,1-4.03,1.07-1.43.09-2.46.64-3.32,1.68-.44.07-.89.14-1.29.2,2.53-3.89,5.04-7.74,7.65-11.76-1.61-.65-3.17-1.41-4.82-1.92-3.83-1.18-4.18-3.5-3.99-6.92.07-1.24-.02-2.5-.04-3.74.37.5.73,1.01,1.1,1.51.13,1.8.19,3.6.4,5.38.2,1.69,1.01,2.96,2.81,3.42,1.22.31,2.43.68,3.61,1.13,1.28.49,1.26.54,2.14-.01-.48-.69-1.25-1.33-1.38-2.09-.47-2.72-2.21-3.11-4.49-2.81-.36.05-.74-.02-1.11-.04,0-.05,0-.11,0-.16,1.06-.08,2.12-.16,3.19-.24.09-.13.17-.26.26-.38-1.33-1.3-2.67-2.6-4-3.89,1.26.65,2.52,1.3,3.77,1.94.07-.31.06-.83.29-1.22.84-1.46.08-1.91-1.22-2.07-1.26-.15-2.53-.31-3.79-.46,0-.1.01-.2.02-.3,1.47.07,2.95.14,4.67.22-1.12-1.59-2.07-2.94-2.95-4.2-1.16,1.37-2.3,2.72-3.45,4.07-3.44,2.16-7.17,3.26-11.26,3.23-4.1-.03-7.84-1.12-11.18-3.48-.78-.55-1.34-.59-2.27-.22-2.43.98-4.95,1.72-7.6,2.61.99.65,1.87,1.23,2.77,1.82,2.29-1.84,5.1-2.22,7.31-.98-2.01-.12-4.02-.26-5.83.86-.76.47-1.49.97-.93,2.22,2.31-1.07,4.53-2.09,6.74-3.11.56.03,1.12.06,1.68.1.03.07.06.14.09.21-.78.28-1.56.57-2.34.85-1.48.53-2.93,1.17-4.45,1.57-1.17.31-2.42.33-3.63.49.02-.7.05-1.4.07-2.1h-2.96c.17,2.33,1.59,2.13,2.93,2.07.69,1.63,1.45,3.24,2.04,4.9.31.88,1.63,1.61,2.92,1.42,2.25-.33,4.5-.76,6.77-.86,1.43-.06,2.87.42,4.31.66-.02.15-.03.3-.05.45-.42,0-.85.02-1.27,0-.85-.06-1.7-.26-2.53-.2-2.51.18-5.01.45-7.57.69,2.13,2.33,4.41,4.83,6.75,7.4-2.11-.65-2.79-2.87-4.36-3.96-1.61-1.13-3.52-1.83-4.45-3.79.31,2.08.56,4.17.95,6.23.17.88.64,1.69.97,2.54.67-.3,1.34-.6,2.05-.91-.47-1.06-.87-1.96-1.27-2.87,2.57,3.7,6.02,6.04,10.29,7.13-1.35.68-2.22.46-4.46-1.02-1.36-.9-2.77-1.73-4.23-2.63-.68,1.07-1.37,2.16-2.06,3.25.16-.24.32-.48.47-.72-1.82-1.45-3.82-2.73-5.41-4.4-1.43-1.5-2.13-3.47-.76-5.41-.75-.65-1.42-1.22-1.99-1.7-.93.54-2.04,1.19-3.3,1.93.31.53.73,1.23,1.36,2.3.78-1.27,1.39-2.27,1.98-3.24,1.13,1.81-.16,4.14-3.66,6.03,2.02-3.55-.22-5.41-2.27-7.41-1.38,1.26-1.54,3.33-.5,5.4-2.3.59-3.59-.58-5.36-4.96-.34.26-.65.52-.98.73-.62.4-1.26,1.07-1.89,1.08-1.41.02-3.02-.83-4.18-.38-1.88.74-2.7-.4-3.7-1.28-.74-.65-1.27-1.05-2.33-.55-1.28.61-2.1.21-3.76-1.24-.88.52-1.64,1.28-2.5,1.4-.91.13-1.92-.33-2.96-.55-2.39,3.05-5.83,3.26-8.73-1.08-.95.29-1.89.57-2.82.87-.24.08-.52.2-.65.39-1.48,2.21-3.3,2.87-5.67,1.76-1.82-.85-3.36-2.45-5.66-1.84-.25.07-.66-.13-.87-.33-2.13-2.09-4.32-4.14-6.29-6.37-.47-.53-.23-1.7-.28-2.2-1.87.25-3.8.49-5.73.77-.46.07-.92.2-1.37.34-4.24,1.31-8.48,2.6-12.7,3.97-.69.22-1.28.77-1.91,1.17.69.22,1.37.49,2.07.63.5.1,1.04.02,1.62.24-1.21.23-2.42.46-3.82.73-.5,2.94-.94,6.08-1.58,9.18-1.22,5.89-2.58,11.76-3.84,17.65-1.08,5.02-2.06,10.06-3.17,15.07-.55,2.48-1.25,4.92-1.95,7.36-.47,1.63-.42,1.76,1.42,2.11,1.34-2.63,2.76-5.22,3.99-7.91,1.2-2.64,3.8-4.76,3.14-8.15.17.45.35.9.65,1.68.83-5.05,1.6-9.75,2.38-14.44.15.02.31.04.46.06-.31,3.06-.63,6.12-.93,9.18-.15,1.58-.13,3.18-.41,4.74-1.17,6.56-2.37,13.12-3.69,19.66-.31,1.53.49,2.05,1.52,2.5,1.53.67,3.09,1.29,4.68,1.79.73.23,1.58.05,2.35.18,1.6.27,3.18.6,4.76.97.66.15,1.28.54,1.94.64,2.47.39,4.9.58,7.22,1.92,1.3.75,3.27.32,5.06.43-4.01-17.95-5-35.8-4.19-53.78l.66-.04c0,1.65.06,3.3-.01,4.94-.29,6.75.36,13.44,1.17,20.14.44,3.68.36,7.42.79,11.11.39,3.36,1.13,6.68,1.76,10,.3,1.61.62,3.23,1.1,4.8.5,1.65,1.17,3.26,1.85,4.86.1.23.64.35,1,.39,3,.35,5.99.81,9,.96,4.67.23,8.99,1.2,13.2,3.5,2.93,1.61,6.51,2.04,9.79,3.01,5.17,1.52,10.37,2.95,15.5,4.61,4.33,1.4,8.66,2.68,13.23,2.85.75.03,1.51-.33,2.27-.43.65-.09,1.32-.03,1.97-.08,4.13-.31,8.17-.04,11.95,1.85.5.25,1,.53,1.49.79-.03.13-.07.25-.1.38-.92-.18-1.85-.34-2.77-.54-1.44-.33-2.87-.74-4.32-1.02-1.09-.21-1.57.26-1.71,1.46-.77,6.78-1.7,13.54-2.47,20.33-.53,4.68-.89,9.39-1.35,14.08-.07.76-.25,1.52-.72,2.34-.24-.46-.47-.91-.78-1.51-.1.81-.18,1.47-.25,2.14,2.14.39,2.51.96,1.79,2.79-.1.26-.36.67-.54.67-2-.02-4.11.94-5.97-.58-.28.8-.55,1.58-.88,2.51,1.4.88,2.88,1.14,4.48.7.87-.24,1.71-.57,2.59-.79,1.09-.27,1.53-.84,1.34-2.03.33.84.65,1.69.98,2.53l.02-.03c-2.17.96-4.3,2.21-6.8,1.63-1.1-.26-2.11-.85-3.24-1.31-3.01,3.27-2.37,8.53.29,12.42,1.01,1.48,1.79,3.13,2.87,5.05-.6-.2-.76-.21-.78-.27-1.4-3.63-4.44-6.48-4.99-10.52-.25-1.81-.47-3.6.77-5.17,2.89-3.63,2.83-7.86,2.51-12.15-.09-1.27-.18-2.54-.26-3.81-.52-8.14-1.03-16.28-1.55-24.41-.11-1.64-.17-3.29-.42-4.91-.09-.55-.59-1.33-1.06-1.48-7.05-2.24-14.12-4.45-21.22-6.54-2.94-.87-5.99-1.32-8.92-2.22-1.48-.45-2.76-1.53-4.17-2.24-2.92-1.49-6.07-2.09-9.32-2.39-3.52-.32-7.04-.73-10.55-1.2-1-.13-1.97-.59-2.95-.9-.14.94-.27,1.88-.41,2.82-.02.1-.08.2-.12.29-1.54.31-3.07.79-4.62.88-1.9.1-3.81-.14-5.72-.24-1.51-.08-2.34.57-2.73,2.28-.29,1.25-.39,2.48,1.28,2.9,1.84.46,3.68.92,5.42,1.35-2.51,1.42-4.54-.58-7.11-1.32-.09,3.65-.29,7.08-.22,10.49.09,4.44.42,8.87.6,13.31.2,4.77.29,9.54.58,14.3.22,3.65.55,7.29,1.03,10.92.53,4.01.44,8.11,1.85,12.01.49,1.36,1.32,1.26,2.2,1.07.8-.18,1.69-.63.95-1.79-.05-.08.04-.29.1-.42.24-.53.65-1.04.73-1.59.87-6.28,1.51-12.6,2.58-18.84,1.22-7.09,2.9-14.09,4.23-21.16.59-3.16,1-6.38,1.09-9.59.08-2.55-.4-5.13-1.81-7.42-.12.42-.16.82-.11,1.22.69,5.96.23,11.86-.96,17.71-1.28,6.32-2.61,12.64-3.92,18.95-.34,1.65-.73,3.3-1.1,4.94-.16-.02-.31-.05-.47-.07,2.13-13.81,5.04-27.57,2.9-41.68.21-.01.43-.02.64-.03.42,3.54.84,7.08,1.27,10.62.15,0,.3-.01.45-.02v-11.67c-.47-.1-1.06-.22-1.6-.34,1.22-1.21,2.39-2.37,3.56-3.52-.11-.11-.22-.21-.33-.32-1.96,1.88-2.86,2.11-5.44,1.48-1.07-.26-2.18-.37-3.23-.67-1.16-.33-2.39-.67-2.75-2.1.8,1.23,2.01,1.39,3.29,1.27,1.74-.16,3.48-.33,5.2-.57,1.05-.15,2.08-.44,3.31-.71-.34-.57-.5-.84-.66-1.11,1.94,1.03,2.51,3.06,1.21,4.91-.57.81-.39,1.28-.06,2.08,1.84,4.41,2.27,8.97,1.26,13.68-2.09,9.7-4.23,19.4-6.09,29.15-.86,4.51-1.13,9.14-1.59,13.72-.07.68.27,1.4.41,2.11.06.3.21.66.12.91-.74,1.93-.19,3.46,1.29,4.8,2.65,2.4,2.98,5.62,2.51,8.79-.51,3.44-1.47,6.84-2.57,10.15-.28.85-1.75,1.64-2.8,1.85-1.94.39-3.98.33-5.81.45-.49-3.7.4-7.4-1.35-10.81-.82-1.6-1.6-3.21-2.32-4.85-.83-1.9.24-3.22,1.57-4.44-.3-.24-.53-.43-.82-.66,1.23-1.07,2.42-2.11,3.79-3.3-1.52-.82-1.74-1.62-1-2.77.3-.48.37-1.22.29-1.8-.99-7.61-2.1-15.2-3-22.82-.38-3.2-.26-6.46-.44-9.69-.28-4.91-.74-9.81-.9-14.73-.11-3.66.38-7.29,1.61-10.78.14-.41.27-.97.11-1.31-1.33-2.73-1.1-3.84,1.26-5.6-.42-.89-.69-1.9-1.3-2.62-.4-.48-1.27-.65-1.96-.77-3.06-.56-6.15-.98-9.2-1.62-1.16-.25-2.31-.83-3.31-1.48-2.2-1.43-3.63-3.28-2.54-6.13.56-1.46.3-2.51-1.31-3.16-1.36-.54-2.61-1.35-3.91-2.04-1.04,2.1-.94,2.4.67,3.52,1.21.84,2.35,1.77,3.52,2.66-.1.14-.2.28-.3.41-1.74-1.29-3.56-2.49-5.18-3.92-.5-.45-.76-1.59-.6-2.29.78-3.51,1.81-6.96,2.6-10.46,1.55-6.92,2.95-13.88,4.49-20.8,1.58-7.12,3.27-14.21,4.87-21.33.09-.4.03-.97-.2-1.29-.87-1.23-.15-1.84.87-2.11,2.81-.73,5.66-1.31,8.48-2,1.82-.45,3.63-.99,5.44-1.49,0-.13,0-.27,0-.4-.8-.31-1.61-.62-2.55-.99.56-2.59,2.36-4.16,4.64-5.21-.7-3.27-.08-4.25,3.21-5.19-.23-1.67-.89-3.52.98-4.72,1.26-.81,2.64-1.28,4.51-.33-2.6.5-5.23,1.03-4.88,3.93.19,1.59,2.35,1.59,3.77,1.81.15-1.48.06-2.9.5-4.14.54-1.54,2.11-1.56,3.71-1.51.05-.54.14-1.05.13-1.55,0-.36-.16-.72-.25-1.08-.36.11-.75.17-1.09.34-1.8.9-3.5,1.31-5.39.03-1.47-1-3.17-1.68-5.09-2.66.92-.69,1.59-1.2,2.01-1.52-1.98-2.87-3.94-5.72-5.96-8.67,5.25-.77,10.6-2.11,14.79,3.12-.34-3.42-.65-6.72,1.36-10.21.25,2.28.45,4.14.66,6.15-.33-.88-.63-1.67-.93-2.45-.14.03-.27.05-.41.08-.58,3.1-.28,6.16.52,9.29-1.6-2.29-3.2-4.59-6.31-5.05,1.78,1.46,1.84,4.21,4.34,5.24,1.02.42,1.67,1.74,2.63,2.47-.85-.56-1.71-1.11-2.55-1.69-1.49-1.05-2.91-1.91-4.95-1.45-1.67.38-3.45.16-4.89-.99,1.74.18,3.46.36,5.2.54.59-2.77-2.39-2.91-2.97-4.57-.32-.9-.5-1.01-5.08.12.75,1.42,1.39,2.86,2.24,4.17,1.77,2.71,4.29,4.02,7.57,3.65,1.8-.2,2.97.88,4.13,1.98.52.49,1.11,1.46,1.53,1.39,1.04-.17,2.4-.56,2.92-1.33,1.19-1.78,2.09-3.8,2.84-5.82.29-.79-.13-1.85-.23-2.78-.15,0-.3,0-.45-.01-.38.41-.75.82-1.13,1.24l-.22-.12c.77-1.67,1.54-3.33,2.31-5-2.03.38-3.32,1.45-3.95,3.1-.6,1.57-.99,3.22-1.5,4.95-.91-2.87,1.6-9.24,6.16-9.14-.1.36-.18.7-.28,1.03-.5,1.52-1.25,2.91-.45,4.69.45,1,.08,2.38.08,3.15,1.69.37,3.11.73,4.54.97.39.07.89-.17,1.27-.38,1.74-.97,3.64-.56,4.8.98-1.1,0-2.4-.32-3.39.09-.99.41-1.68,1.56-2.53,2.41,1.65.66,2.95,1.17,4.22,1.67.58-.71,1.18-2.01,2.17-2.49.97-.47,2.34-.1,3.54-.1.03.15.05.29.08.44.86-.76,1.74-1.5,2.59-2.27,1.06-.96.89-1.95-.41-2.53-2.24-1-4.56.34-4.96,3.04-.68-1.39-1.21-2.74-.07-3.78,1.81-1.67,3.89-1.3,5.93-.09,1.04-1.92,2.66-3.09,4.7-2.58,2.79.7,2.93,3.29,3.12,5.65,3.79-1.1,5.57-.63,6.99,2.27.66,1.34,1.32,2.51,2.39,3.59.79.8,1.02,2.16,1.5,3.29,1.85-.28,3.19-2.17,2.68-3.96-.1-.34-.49-.78-.81-.84-.65-.12-1.36-.08-2.02,0-.7.09-1.66,1.04-1.92-.19-.11-.52.81-1.56,1.5-1.88,1.13-.53,2.29-.17,3.07.94.55.78,1.1,1.55,1.64,2.33l-.03-.03c-.19.99-.23,1.86,1.2,1.7.99-2.23,6.69-4.02,9.22-2.63-1.63,1.35-3.16,2.63-4.64,3.85,2.09,1.2,5.17,1.28,6.81,3.83-1.1-.36-2.13-.86-3.21-1-1.08-.13-2.21.11-3.28.44,2.25.55,4.5,1.1,6.76,1.65-.03.11-.06.22-.09.34-2.61-.39-5.22-.79-8.18-1.23,1.17,2.52,2.12,4.59,3.13,6.64.12.24.57.37.9.44,1,.23,2.02.41,3.33.67,1.43-1.96,3.98-2.22,6.17-2.53-1.15-2.28-2.59-4.46-3.38-6.86-1.45-4.42-1.56-8.91-.3-13.51.78-2.87,2.49-5,4.67-6.49,2.58-1.77,5.59-3,8.55-4.11,3.51-1.32,7.21-1.05,10.52.56,3.49,1.69,6.72,3.92,10.18,5.98.82-1.15,1.74-2.62,2.83-3.94,4.38-5.29,9.8-8.6,16.89-8.27,3.34.16,6.62.82,9.31,3.11,1.48,1.25,2.92,1.54,5.01.87,5.04-1.61,7.47-.62,11,3.86.94,1.19,1.54,2.65,2.3,3.98.68,1.18,1.37,2.35,1.99,3.42,1.77-1.46,3.35-2.82,4.98-4.12,1.43-1.14,1.5-2.4.39-3.93-.43-.59-.79-1.58-.6-2.21.43-1.39,1.98-2.27,3.19-2.15-.67.78-1.38,1.52-1.98,2.34-.57.78-.33,1.36.6,1.69,8.48,3.1,17.12,4.24,26.09,2.54,3.31-.62,6.36-1.6,8.93-3.79.64-.54,1.12-1.27,1.63-1.87-.91-.57-1.57-.98-2.54-1.59,3.14-.24,4.03.95,3.23,3.42-.5,1.55-.79,3.17-1.18,4.76-.14,0-.28-.01-.41-.02v-2.72c-.54.18-1.05.25-1.46.49-3.8,2.21-8.07,2.31-12.25,2.97-4.31.68-8.42-.23-12.59-.95-1.45-.25-2.98-.49-4.39-.27-.78.12-1.4,1.22-2.23,2.02-.58-.18-1.43-.44-2.43-.75-.84.88-1.77,1.85-3.05,3.19,1.85-.71,1.24.41,1.41.94l.04-.03ZM210.22,87.97c-.55.02-1.28.28-1.62.02-1.73-1.34-3.79-.54-5.64-1-.31-.08-.74.34-1.12.52.25.43.41.96.76,1.25.34.28.88.42,1.34.44,1.91.06,3.82.11,5.72.01.5-.02.97-.57,1.46-.88,1.6-.59,3.2-1.17,5.09-1.86-2.95-1.61-5.2-.23-7.84.32.8.51,1.32.84,1.84,1.18ZM200.55,47.74c.96-.9,2.06-1.78,1.5-3.33-.58-1.59-1.2-3.18-1.9-4.72-.18-.39-.85-.95-1.12-.86-1.95.62-4.02,1.13-5.69,2.22-.58.38-.18,2.3-.19,3.52,0,.55.07,1.1.12,1.8,1.2-1.62,2.27-3.06,3.35-4.51.14.1.28.21.42.31-.15.34-.31.68-.49,1.08,1.12-.53,2.09-.99,3.06-1.45.07.12.15.24.22.36-1.22,1.03-2.44,2.05-3.9,3.28,1.71-.15,3.06-.26,4.41-.38,0,.09,0,.18.01.27-1.38.39-2.76.78-4.14,1.17,1.53.47,3.37-.97,4.35,1.26-2.48.34-4.97.68-7.72,1.06,2.92,1.19,5.65,2.16,8.65,2.18.56,0,1.11.35,1.66.53-.05.15-.1.29-.16.44h-5.11c-.01.19-.02.39-.03.58,1.99.15,3.97.3,6.11.47-.54-2.23-.99-4.08-1.45-6-1.09.88-2.18,1.77-3.27,2.66l-.18-.25c.49-.56.98-1.13,1.47-1.69ZM99.43,51.88c-.23-.12-.48-.22-.7-.36-1.98-1.2-3.96-.88-5.39.86-.99,1.2-.99,2.45.26,3.29.97.65,2.16.99,3.27,1.4.56.21,1.18.26,2.11.44-1.57,1.02-3.13,1.59-3.97,2.7-.83,1.09-1.63,2.76-.02,3.96.98-.14,1.84-.26,2.89-.41.26-1.75.08-3.86,2.19-4.94-1.47-1.95-1.56-3.8-.68-5.76.15-.34.01-.81,0-1.23.46,0,.95.11,1.37-.01.59-.17,1.12-.68,1.71-.74,1.02-.11,1.72-.34,1.83-1.52.12-1.29-.63-1.84-1.65-2.19-1.97-.68-3.81.19-4.88,2.18.57.81,1.11,1.57,1.65,2.33ZM213.99,69.15c-.5-.79-1.06-1.55-1.5-2.37-.76-1.44-2.77-2.53-3.82-2.01.69.71,1.37,1.41,2.05,2.11-.07.04-.15.08-.22.12.66.32,1.32.65,1.97.97-.07.22-.14.44-.21.66-2.33-.23-4.67-.43-7-.69-1.05-.12-1.78-.21-2.35,1.12-1.14,2.67-1.88,5.7-4.87,7.17-.36.18-.55.7-.79,1.03.96.92,1.8,1.72,2.64,2.52-.08.09-.15.19-.23.28-.42-.19-.85-.38-1.34-.59.06.42.11.7.18,1.16-1.03-.79-1.89-1.44-2.74-2.1-.09.11-.17.22-.26.33.92.96,1.84,1.93,2.87,3.01h-1.06c.4.89,1.74,1.71-.27,2.77,1.82.32,3.28.85,4.69.74,1.83-.14,3.68-.7,4.58-2.65.97-2.11,1.89-4.24,2.91-6.33.76-1.55.7-2.99-.42-4.27-1.11-1.25-2.35-2.39-3.65-3.7,1.69.35,3.27.67,4.85.99-.02.1-.03.19-.05.29-.79-.07-1.57-.14-2.36-.21l-.07.3c1.08.4,2.16.81,3.24,1.21-.04.09-.07.18-.11.27-.38-.09-.76-.17-1.19-.27.37,1.88.72,3.65,1.07,5.4,2.64-.14,5.4-3.02,5.21-5.36.43.11.87.22,1.53.39-.17,1.12.05,2.54-.55,3.12-1.4,1.37-.65,2.08.49,2.62,2,.96,4.09,1.72,6.13,2.57,6.7,2.79,13.5,3.3,20.49,1.08,1.27-.4,1.61-1,.92-2-.24-.35-1.05-.45-1.6-.44-2.09.05-4.17.2-6.26.31,0-.21,0-.43,0-.64.99,0,1.99.03,2.98,0,1.16-.05,2.33-.09,3.46-.29.33-.06.85-.74.79-1.03-.31-1.42-.78-2.8-1.17-4.09-7.26,1.95-14.27,1.57-21.32-.33,1.27.74,2.57,1.42,3.93,1.63,4.93.74,9.89,1.33,14.84,1.97.21.03.41.04.62.07-1.16.46-2.32.72-3.46.67-1.9-.07-3.8-.47-5.7-.49-3.82-.04-7.33-1.11-10.61-2.96-.82-.46-1.36-.42-1.94.22-.31.34-.58.7-.88,1.05-.14-.11-.27-.21-.41-.32.56-.83,1.13-1.65,1.8-2.64-1.44-2.51-3.96-3.73-6.91-5.03.46,1.13.77,1.9,1.09,2.67ZM191.58,32.32c-4.03-3.1-8.49-4.33-13.38-3.52-6.53,1.08-11.04,5.27-14.99,10.21-1.19,1.49-1.77,3.12-.72,4.99.22.39.21.92.31,1.41-1.18-.57-.23-3-2.53-2.47-.05-.4-.25-.83-.13-1.1.59-1.26-.2-1.99-1.06-2.49-2.78-1.61-5.53-3.33-8.47-4.6-4.31-1.87-8.72-2.14-12.95.47-1.84,1.14-3.69,2.26-5.55,3.37-3.58,2.13-5.11,5.34-5.37,9.44-.23,3.67,1.01,6.98,1.97,10.38.53,1.86,1.67,3.16,3.29,4.08,1.99,1.13,4.03,2.05,6.42,1.98,3.28-.1,6.67.37,9.82-.3,3.7-.78,7-2.85,9.47-5.19-.11-1.4-.53-2.57-.21-3.48,1.31-3.67,3.78-6.59,6.55-9.28,2.58-2.51,6.07-3.21,9.24-4.4,4.28-1.6,8.66-.7,12.86.86.89.33,1.52.35,2.25-.39,2.18-2.23,4.96-3.35,7.96-4,.69-.15,1.41-.14,2.12-.2.05-.21.11-.42.16-.63-1.76-.82-3.45-1.87-5.29-2.4-1.73-.5-2.49-1.24-1.78-2.74ZM167.23,61.07c-.1-.13-.2-.26-.3-.39,1.13-.96,2.24-1.94,3.39-2.87.66-.53,1.5-.86,2.05-1.48,2.55-2.84,7.42-4.68,11.08-4.03,1.76-3.46,5.19-3.32,7.99-3.51-.22-2.3-.42-4.4-.62-6.58-2.47,1.35-3.7,3.52-4.49,6.07-.02-1.16.24-2.22.33-3.29.04-.45-.17-1.24-.45-1.34-4.09-1.35-8.16-2.87-12.47-.57-1.71.91-3.77,1.21-5.43,2.2-4.2,2.51-7.27,6.1-9.35,10.57-.61,1.31-.46,2.42.16,3.56,1,1.87,1.96,3.78,3.14,5.53.95,1.4,2.2,2.6,3.31,3.89-.11-.32-.22-.65-.33-.97.65-.27,1.29-.59,1.97-.81,1.58-.51,1.23-1.74,1.1-2.88-.13-1.15-.29-2.29-.44-3.4,0,0-.32.16-.63.31ZM135.31,65.95c-.06.17-.11.33-.17.5,1.43.7,2.79,1.62,4.3,2.04,2.12.59,4.34.89,6.53,1.15,4.2.5,8.11-.62,11.23-3.31,2.99-2.58,2.46-2.84-.2-4.48-.08-.05-.2-.02-.22-.03-6.77,3.61-13.75,5.73-21.47,4.14ZM261,49.38c1.5-2.86,2.86-5.25,3.99-7.74.44-.96.53-2.18.47-3.26-.12-2.16-1.58-2.98-3.54-2.06-2.3,1.08-4.14,2.74-5.51,4.89-.22.34-.38,1-.21,1.26,1.45,2.19,2.99,4.33,4.8,6.91ZM50.3,143.14c-.09-.13-.19-.5-.38-.55-2.71-.76-5.24-2.41-8.27-1.62-.45.12-1.05-.02-1.49-.23-2.46-1.18-4.88-2.41-7.31-3.62-.55,1.76-.55,2.07.8,3.36.79.76,1.69,1.65,2.68,1.89,3.19.79,6.45,1.3,9.9,1.96-.24-.61-.32-.84-.47-1.23,3.09,1.5,6.12,1.99,9.27,1.94.71-.01,1.48.07,2.12.34,1.72.72,3.15.22,4.54-.96-.48-.27-.98-.41-1.46-.38-2.29.14-4.49.28-6.52-1.28-.96-.74-2.25-.45-3.41.37ZM127.41,198.47c.25,0,.5,0,.75,0,0-4.02.04-8.04,0-12.06-.06-5.4-.18-10.79-.27-16.19-.03-1.8.01-3.61-.05-5.41-.01-.32-.36-.63-.56-.94-.24.32-.61.61-.68.97-.16.88-.13,1.79-.26,2.67-.13.88-.57,1.75-.54,2.62.13,4.76.3,9.53.58,14.29.27,4.69.69,9.37,1.05,14.05ZM51.27,69.42c2.96.53,5.69.1,8.23-1.3.34-.19.85-.59.83-.85-.31-2.63,1.41-3.48,3.49-4.03-.86-.79-1.66-1.54-2.11-1.96-1.35,0-2.37.23-3.23-.05-2.06-.66-3.79-.06-4.77,1.87-.39.76-.28,1.2.64,1.31.73.08,1.45.22,2.17.34-.01.1-.03.2-.04.3-.5.09-1,.19-1.74.33,1.6,1.36,2.83-.42,4.54-.13-2.9,1.51-5.45,2.84-8,4.16ZM109.63,64.26c-1.19-.56-2.23-1.13-3.34-1.53-.29-.11-1,.21-1.13.51-.34.8-.48,1.69-.6,2.14,1.17,1.29,2.14,2.35,3.1,3.42,1.72-.23,1.38-2.4,2.76-3.15.76-.41,1.23-1.33,1.88-1.97,1.38-1.34,1.6-2.89.52-4.07-.84-.92-3.68-1.01-4.55-.05-.77.85-1.07,1.79-.07,2.79.57.57.98,1.31,1.41,1.9ZM83.53,72.23c1.4.22,2.61-.14,3.33-1.16,1.65-2.33,1.4-3.39-1.47-4.12-.69-.18-1.51.16-2.2-.02-2.11-.58-4.04-.07-5.37,1.59-1.39,1.74-.79,3.99,1.24,4.1.85.05,1.96-.65,2.58-1.34.76-.85,1.13-2.06,1.74-3.25,1.17,1.45.65,2.79.15,4.2ZM123.47,164.58c.05,1.04.15,1.93.12,2.83-.08,2.77-.35,5.54-.29,8.31.11,5.08.37,10.16.64,15.24.15,2.8.41,5.6.67,8.39.03.32.39.61.6.92.26-.31.68-.58.76-.93.11-.56.04-1.16-.03-1.74-.27-2.52-.73-5.03-.83-7.56-.22-5.92-.32-11.85-.39-17.78-.02-2.16.18-4.33.28-6.5.05-1.03-.37-1.48-1.53-1.17ZM107.09,54.31c0-1.24-1.62-2.37-3.41-2.39-2.01-.02-4.2,2.44-4.14,4.66.03,1.07,1.94,2.4,3.48,2.43,2.59.04,4.09-1.68,4.06-4.7ZM52.31,238.7c2.52-2.98,4.57-8.87,4.2-11.5h-7c2.2,3.57,3.22,7.19,2.79,11.5ZM77.39,65.32c2.45-.05,3.34-.83,3.31-2.89-.03-2.02-1.16-2.97-3.51-2.94-2.28.02-4.04,1.69-3.93,3.72.07,1.31,1.73,2.16,4.13,2.11ZM85.03,55.13c-2.54.11-5.04,2.95-3.73,5,.62.97,4.46,1.97,5.44,1.38.72-.44,1.21-4.92.51-5.37-.79-.5-1.7-.78-2.23-1.01ZM100.31,71.61c-.04,1.46.78,2.29,2.34,2.37,1.59.08,4.19-2.34,4.23-3.92.03-1.16-1.77-3.08-2.97-3.16-1.54-.1-3.55,2.53-3.6,4.72ZM94.39,72.16c.01-1.96-1.01-3.07-2.83-3.06-1.88,0-3.96,1.87-3.93,3.51.03,1.36,1.68,2.65,3.42,2.66,2.24.01,3.32-1,3.33-3.11ZM68.03,57.93c-.86-.53-1.53-.97-2.22-1.37-.34-.2-.72-.47-1.09-.48-1.51-.07-2.79,1.02-3.03,2.48-.28,1.68.38,2.7,1.99,3.3,1.97.73,3.42-.6,5.1-1.08-.29-1.12-.56-2.13-.75-2.85ZM88.69,75.96c-.54-.65-1-1.71-1.65-1.86-1.07-.24-2.37-.13-3.41.26-1.72.64-2.53,3.55-1.38,4.52,1.18,1.01,2.59,1.21,4.04.6,1.41-.59,2.2-1.63,2.41-3.53ZM100.22,66.5c.66-.23,1.38-.42,2.04-.72,1.36-.62,2.4-2.65,2.07-3.92-.21-.82-2.64-2.61-3.51-2.52-.28.03-.65.24-.76.48-.63,1.24-1.22,2.5-1.74,3.79-.1.24.11.67.29.93.45.63.98,1.21,1.61,1.96ZM170.37,82.11c-.39-.3-.99-.53-1.09-.89-.51-1.87-1.38-1-1.89-.18-1.75,2.79-3.36,5.67-5.02,8.52-.02.04.09.16.14.24,3.04-.66,6.13-3.11,7.43-5.87-.26.04-.52.08-.78.11.46-.73.85-1.37,1.21-1.94ZM71.71,61.72c1.36-1.18,2.53-2.13,3.61-3.19.28-.27.46-.93.34-1.29-.74-2.14-3.64-2.8-5.25-1.05-.79.86-1.22,2.22-1.37,3.41-.05.44,1.15,1.06,1.8,1.57.37.29.8.5.87.54ZM112.16,76.65c-.03,1.86.71,2.6,2.58,2.61,1.59,0,3.14-1.67,3.13-3.39,0-1.66-1.12-2.98-2.6-3-1.92-.03-2.79,1.14-3.12,3.78ZM49.68,220.9c1.2.4,2.43.88,3.7,1.24,1.34.38,2.56.15,3.7-.79,1.14-.93.23-1.82.11-2.73-.14-1.03-.42-1.85-1.79-1.54-.96.22-2.23-.09-2.9.43-1.12.87-1.88,2.22-2.82,3.38ZM89.9,62.47c.68-.1,1.38-.12,2.02-.32,1.18-.36,2.43-2.11,2.17-3.15-.34-1.35-1.18-2.14-2.72-2.17-1.48-.03-2.84,1.15-3.32,3.18-.46,1.93-.1,2.4,1.85,2.45ZM78.19,56.78c1.86-.15,3.24-1.52,3.14-3.11-.1-1.54-1.43-2.68-2.98-2.55-1.86.16-2.91,1.32-2.83,3.1.07,1.49,1.3,2.67,2.66,2.56ZM116.1,67.82c-.03-1.62-1.05-2.8-2.4-2.78-1.83.03-3.35,1.76-3.37,3.86,0,1,1.39,1.88,2.91,1.83,1.73-.06,2.88-1.23,2.85-2.91ZM66.82,65.66c0,1.35.91,2.23,2.31,2.21,1.6-.01,3.33-2.24,3.08-4.35-.06-.5-1.16-1.21-1.81-1.25-2.11-.12-3.58,1.4-3.59,3.38ZM48.95,145.59c1.98,3.82,5.45,3.45,8.87,2.91,1.25-.2,2.7-.37,3.62-1.89-.97.09-1.65.26-2.3.19-3.41-.37-6.82-.8-10.19-1.21ZM99.5,66.78c-.2-.25-.52-1.02-1.07-1.25-.64-.27-1.86-.38-2.15-.02-.85,1.08-1.57,2.37-1.94,3.69-.25.89.28,1.99,1.48,2.04,1.23.06,3.63-2.68,3.68-4.47ZM93.44,68.32c.3-.8.67-1.77,1.02-2.76.34-.97-.26-1.95-1.13-1.69-1.41.41-2.83.91-4.13,1.6-.55.29-.99,1.1-1.16,1.76-.21.86.14,1.31,1.26,1.14,1.29-.2,2.64-.05,4.14-.05ZM91.9,51.61c1.18-.73,2.24-1.46,3.37-2.07.73-.39,1.18-.77.54-1.55-1.05-1.29-2.45-1.35-3.89-.95-1.35.37-2.77.77-2.89,2.38,1.11.84,2.05,1.56,2.88,2.19ZM116.24,71.77c1.06,1.33,2.15,2.29,3.87,1.24.2-.12.53-.03.78-.1,1.09-.3,1.83-2.09,1.09-2.8-1.2-1.16-2.74-1.26-4.32-1.12-1.42.13-.8,1.4-1.19,2.1-.12.22-.17.48-.23.67ZM88.33,56.56c.5-.4.9-.73,1.31-1.06.41-.33.9-.6,1.19-1.01.39-.55,1-1.4.82-1.8-.27-.6-1.1-1.05-1.79-1.33-.49-.2-1.16-.14-1.71-.01-1.97.46-2.46,2.16-1.11,3.59.43.46.79.98,1.29,1.62ZM109.88,77.36c-.95-.28-1.79-.67-2.66-.74-.91-.07-1.88.07-2.76.33-1.3.39-1.11,1.25-.36,2.04.89.93,1.97,1.44,3.29,1.08,1.36-.37,2.45-1.01,2.48-2.71ZM76.87,72.76c-.3,1.52-.57,2.9-.84,4.28,1.26.15,2.57.56,3.78.38,1.6-.24.97-1.77,1.16-2.56-1.31-.67-2.46-1.26-4.1-2.1ZM118.23,76.73c-.03.98-.34,2.09,1.3,2.09,1.7,0,3.11-1.06,3.18-2.43.07-1.43-.71-2-2-2.08-1.99-.13-2.4.29-2.48,2.42ZM70.39,74.47c.43-.15,1.15-.34,1.81-.66,1.02-.5,2.28-1.28,1.75-2.42-.34-.72-1.83-.98-2.85-1.28-.28-.08-.87.33-1.06.66-.43.73-.7,1.54-1.01,2.33-.4,1.02.12,1.36,1.36,1.37ZM48.92,224.57h7.93c-.08-.79-.13-1.34-.16-1.66-2.53-.3-4.89-.59-7.33-.88-.11.61-.25,1.42-.44,2.53ZM108.9,69.29c-.82,1.3-1.61,2.39-2.2,3.57-.16.32.17,1.26.46,1.36.86.29,1.86.52,2.73.37,1.34-.23,1.68-1.66.84-2.7-.56-.69-1.03-1.45-1.84-2.6ZM116.97,68.25c1.23-.64,2.55-1.39,2.6-3.09.04-1.26-.89-2-2.01-2.37-1.3-.42-2.09.29-2.48,1.04.69,1.6,1.26,2.96,1.89,4.42ZM70.88,53.14c-.21-.29-.65-1.28-.94-1.23-1.09.17-2.29.47-3.14,1.12-.56.43-.81,1.56-.79,2.36.01.45.79,1.05,1.34,1.25.28.1.9-.45,1.24-.82.74-.78,1.4-1.63,2.29-2.68ZM129.19,187.52c1.48-7.8.56-15.74.53-23.68-.18,0-.35,0-.53,0v23.68ZM84.32,53.73c.8-1.57,1.45-2.83,2.19-4.27-.36-.1-.77-.32-1.17-.31-1.23.04-3.51,1.83-3.86,2.94-.26.84.6,1.88,1.46,1.78.57-.07,1.14-.12,1.38-.14ZM130.45,90.77c.11-.1.22-.21.33-.31-1-2.6-2.01-5.21-3.12-8.1-.29,1.69-2.1,2.89-.89,4.53,1.05,1.43,2.44,2.59,3.69,3.87ZM90.73,45.21c1.45,0,2.75.06,4.05-.03.5-.04,1.27-.3,1.41-.66.31-.77.32-1.65-.75-2.09-1.63-.67-4.23.72-4.71,2.78ZM66.58,67.29c-.67-1.1-1.19-1.97-1.72-2.84-.95.75-1.96,1.44-2.8,2.3-.23.24-.14,1.23.15,1.45,1.6,1.29,2.65-.37,4.37-.92ZM131.28,177.19c.11,0,.22,0,.33,0,.57-3.43,1.02-6.88,1.75-10.28.34-1.57-.27-2.13-1.59-2.61-.17,3.78-.33,7.48-.49,11.17-.02.57,0,1.15,0,1.72ZM81.08,61.63v3.69c2.65.73,3.85-1.53,5.73-2.45-2.07-.45-3.92-.85-5.73-1.24ZM124.6,67.26c.04.16.09.33.13.49,2.63-.62,5.25-1.23,8.14-1.91-2.13-1.82-6.64-.84-8.27,1.41ZM49.1,225.09c-.07.12-.14.24-.21.37.41.43.8,1.2,1.22,1.22,1.89.08,3.8-.03,5.7-.17.31-.02.59-.54.89-.83-.37-.2-.73-.55-1.1-.56-2.16-.05-4.33-.03-6.49-.03ZM104.11,81.14c-.45-1.82-.77-3.22-1.16-4.61-.08-.28-.54-.72-.65-.67-.71.29-1.53.57-1.97,1.12-.25.3-.05,1.37.31,1.69,1.03.91,2.24,1.62,3.48,2.47ZM54.83,49.49c2.34,1.16,4.51,2.84,7.7,1.93-1.87-.5-3.45-.93-5.04-1.36.04-.14.07-.29.11-.43,1.44.07,2.89.15,4.33.22-2.33-1.14-4.7-1.01-7.09-.36ZM112.77,57.99c.94,0,1.99.27,2.81-.06,1.39-.56,2.63-1.49,4.32-2.5-2.72.29-5.12.55-7.49.8.15.72.24,1.17.36,1.76ZM124.32,78.35c2.14.23,3.24-.29,3.26-1.46.02-1.17-1.26-1.94-3.26-1.89v3.35ZM95.78,74.19c-.82.88-1.68,1.68-.69,2.87.87,1.04,2.29.94,3.64-.25-.97-.87-1.94-1.72-2.95-2.62ZM76.65,67.73c-.02-.17-.04-.35-.06-.52-.72.07-1.74-.11-2.1.29-.5.55-.96,1.87-.65,2.29.57.78,1.12,2.34,3.03,1.41-.55-.61-.98-1.09-1.48-1.65.38-.54.82-1.18,1.27-1.82ZM75.87,49.77c-1.46-.24-2.66-.06-3.6.92-.3.31-.59.86-.52,1.22.06.29.66.52,1.07.66.53.18,1.1.24,1.7.36.16-.56.24-1.09.45-1.57.22-.51.54-.98.9-1.6ZM89.41,76.37c.09,2.11,1.22,2.76,3.11,1.62.36-.22.73-.45,1.02-.75.18-.18.38-.56.3-.74-.09-.21-.47-.41-.72-.4-1.24.05-2.47.17-3.71.27ZM123.2,70.12c.48-.96,1.74-1.87.04-2.94-1.33-.84-2.47-.67-3.07.4,1,.84,1.98,1.66,3.03,2.54ZM75.28,77.89c-.04-.15-.08-.29-.12-.44-1.98.11-3.97.22-5.95.33-.07.14-.13.27-.2.41.67.32,1.32.85,2.01.92,1.55.14,3.11,0,4.25-1.21ZM67.94,76.08c-.49-.53-1.08-1.5-1.39-1.42-1.09.28-2.08.93-3.22,1.5,1.54,1.38,2.46,1.34,4.61-.08ZM115.89,84.36c.47-2.84,0-3.34-2.92-3.23.32,1.62,1.06,2.82,2.92,3.23ZM99.85,74.26c-.63-1.14-.62-2.76-2.35-2.51-.45.06-1.09,1.06-1.06,1.6.04.86,2,1.37,3.41.91ZM192.35,41.51c-1.33.39-1.54,4.59,0,6.67v-6.67ZM49.35,68.86c.15.19.31.37.46.56,1.51-.9,3.02-1.8,4.94-2.95-.79-.3-1.5-.81-1.74-.64-1.29.92-2.46,2-3.67,3.03ZM62.04,69.52c-1.71.83-2.28,1.88-2.09,3.16.08.54.78.99,1.2,1.48.15-.08.3-.16.45-.24.14-1.36.28-2.73.45-4.41ZM116.33,51.91c2.05,1.23,3.94.67,5.46-1.63-1.97.59-3.58,1.07-5.46,1.63ZM204.14,53.2c-.46.15-.79.25-1.13.36-.39.12-.77.24-1.37.43,1.16.94,2.19,1.79,3.22,2.63.09-.07.18-.14.27-.22-.3-.99-.61-1.97-.98-3.2ZM116.37,54.57q-3.79-1.08-5.12,1.18c1.71-.39,3.38-.78,5.12-1.18ZM265.22,46.03l-.28-.2c-1.13,1.28-2.31,2.54-3.37,3.87-.2.25,0,.84.03,1.27.13-.02.27-.03.4-.05,1.07-1.63,2.14-3.26,3.22-4.89ZM249.32,64.06c0,.19.01.38.02.56,2.64-.36,5.28-.71,7.92-1.07-.01-.1-.02-.21-.04-.31-2.64.27-5.27.54-7.91.81Z"/>
      <path class="cls-1" d="M40.35,79.87c70.65,10.52,141.21,21.02,211.72,31.51,0,.3.01.35,0,.39-.02.05-.06.12-.09.12-1.83-.16-3.67-.22-5.48-.5-68.55-10.23-137.09-20.48-205.63-30.74-.13-.02-.26-.17-.36-.28-.06-.07-.06-.2-.15-.5Z"/>
      <path class="cls-1" d="M206.89,162.34c-.28-1.98-.55-3.95-.84-5.93-.83-5.7-1.72-11.39-2.49-17.1-.44-3.25-.71-6.52-1-9.79-.45-5-.87-10.01-1.24-15.02-.06-.8.19-1.62.29-2.43.13,0,.26,0,.4.01.3,3.4.6,6.8.9,10.2,1.29-2.17,1.07-4.75,2.43-6.88.37,1.44-1.24,3.12.72,4.49.4-1.21.78-2.36,1.26-3.83.09,2.3-1.41,4.2-.03,6.67.45-1.8.8-3.18,1.15-4.57.11.01.21.02.32.03-.34,2.16-.67,4.31-1.01,6.47.18.03.36.06.54.08.82-4.1,1.64-8.19,2.47-12.29l.44.08c-.27,1.7-.6,3.4-.81,5.12-.55,4.52-1.06,9.04-1.56,13.56-.63,5.73-1.35,11.46-1.82,17.21-.2,2.52.16,5.07.22,7.61.04,2.07,0,4.14,0,6.21l-.33.07ZM206.71,146.31c.22-3.89.41-7.38.6-10.87-1.63,3.43-2.52,6.88-.6,10.87ZM204.69,121.6c-1.32,1.64-1.18,2.5.56,3.66-.19-1.22-.37-2.44-.56-3.66Z"/>
      <path class="cls-1" d="M205.59,173.73c-2.38-.65-4.4-1.1-6.34-1.76-3.2-1.09-6.33-2.36-9.53-3.45-.98-.33-2.09-.38-3.14-.4-6.21-.14-11.94-2.46-17.87-3.89-4.46-1.07-8.91-2.25-13.27-3.66-4.95-1.6-10.06-1.88-15.15-2.44-1.66-.18-3.37.18-5.03,0-3.41-.36-6.79-.97-10.2-1.38-1.68-.2-3.39-.34-5.07-.22-4.61.35-8.44-1.8-12.3-3.73-6-3-12.11-5.15-18.99-5.05-2.77.04-5.64-.92-8.3-1.89-3.65-1.33-7.23-2.28-11.17-1.58-1.36.24-2.85-.13-4.25-.36-.46-.07-.85-.57-1.41-.98.41-.21.55-.35.68-.34,5.55.33,11.18-.51,16.52,2.09,3.08,1.5,6.58,2.07,10.06,1.97,4.21-.12,8.03,1.31,11.8,2.86,3.92,1.6,7.67,3.63,11.66,5.01,2.39.83,5.08.77,7.63,1.1,3.4.43,6.8.89,10.21,1.26,1.71.19,3.44.17,5.16.32,3.21.29,6.45.43,9.62.99,4.51.8,8.99,1.82,13.43,2.96,4.8,1.23,9.48,3.06,14.33,3.99,4.32.83,8.58,2.14,13.11,2.1,2.27-.02,4.57,1.13,6.81,1.89,3.54,1.2,7.03,2.52,10.55,3.8.07.03.1.17.44.78Z"/>
      <path class="cls-1" d="M241.45,184.63c.24-2.18.47-4.37.72-6.55.71-6.15,1.55-12.28,2.1-18.44.42-4.63.61-9.28.65-13.93.05-4.75-.38-9.51-.26-14.26.13-5.27.63-10.52.98-15.78,0-.09.07-.18.4-.27,0,2.21.05,4.42-.01,6.62-.06,2.27-.41,4.55-.29,6.81.11,2.22.65,4.42,1.01,6.68,2.03-7.52,4.02-14.87,6.01-22.22.18.04.35.08.53.12-.41,2.04-.74,4.1-1.24,6.11-.97,3.9-2.34,7.73-3,11.68-.86,5.15-1.16,10.39-1.74,15.59-.46,4.14-1.02,8.28-1.45,12.42-.34,3.26-.37,6.57-.89,9.8-.84,5.27-1.97,10.49-2.97,15.73-.18-.04-.36-.07-.54-.11Z"/>
      <path class="cls-1" d="M225.61,181.37c-4.27-1.75-8.75-1.25-13.17-1.34-1.58-.03-3.18-.16-4.73-.44-3.89-.7-7.39-2.48-10.96-4.09-6.51-2.94-13.05-5.84-20.48-5.66-6.15.15-11.92-1.44-17.41-4.26-4.23-2.17-8.88-3.04-13.57-3.69-.62-.09-1.24-.23-1.95-.36,3.6-.63,7.9-.18,11.34,1.23,2.79,1.14,5.57,2.31,8.33,3.52,3.8,1.67,7.82,2.43,11.9,2.37,5.98-.08,11.48,1.55,16.89,3.8,4.87,2.02,9.74,4.08,14.7,5.85,2.36.84,4.88.94,7.5.75,3.98-.29,7.98.3,11.63,2.31Z"/>
      <path class="cls-1" d="M241.3,23.83c2.41.46,4.87.71,6.92,2.4,2.87,2.36,2.47,6.45-1.06,7.58-3.2,1.02-6.57,1.74-9.91,2-5.68.45-11.21-.61-16.5-2.79-.58-.24-1.09-.65-1.56-1.04,9,2.11,17.95,3.75,27.36.75-1.38-1.82-2.75-3.64-4.15-5.5,2.08.41,2.98,2.35,4.38,3.63.12-.1.24-.2.35-.3-.51-.68-.94-1.45-1.56-2.02-.86-.78-1.81-1.48-2.8-2.08-1-.6-1.78-1.24-1.48-2.64Z"/>
      <path class="cls-1" d="M291.52,117.28c-.9,9.93-1.8,19.87-2.7,29.8l-.55-.05c-.06-11.91.06-23.79,3.45-35.39,2.05,3.22,1.43,6.92,2.04,10.36.84,4.79,1.22,9.66,1.79,14.5-.18.03-.37.05-.55.08-1.08-6.43-2.17-12.86-3.25-19.29-.07,0-.15,0-.22,0Z"/>
      <path class="cls-1" d="M322.02,93.39c3.58,1.76,3.7,4.81,3.83,7.86.39,8.62-1.2,17.12-1.62,25.7,0,.18-.15.36-.53.54-.18-1.55-.55-3.11-.52-4.65.13-5.45.39-10.9.61-16.35.09-2.38.17-4.76.29-7.14.09-1.88-.3-3.58-1.64-4.99-.16-.17-.2-.44-.42-.97Z"/>
      <path class="cls-1" d="M256.37,118.04c.88,5.36,1.29,10.37,2.6,15.13,1.66,6.04,2.11,12.2,2.73,18.35.52,5.14.53,10.32.76,15.49l-.76.08c-.15-1.08-.37-2.16-.45-3.25-.34-4.22-.57-8.46-.98-12.67-.61-6.2-.93-12.42-2.47-18.53-1.01-4.02-1.16-8.26-1.64-12.41-.07-.59.12-1.2.23-2.19Z"/>
      <path class="cls-1" d="M278.19,69.06c-2.11,2-4.81,1.58-6.98,2.7h2.2c.02.13.04.26.06.39-.56.12-1.12.3-1.69.36-2.91.28-5.82.49-8.72.8-5.83.61-11.43-.48-16.92-2.27-.7-.23-1.24-.95-1.66-1.59,4.12,1.06,8.24,2.13,12.36,3.19.05-.15.11-.31.16-.46-.18-.13-.37-.26-.77-.54,7.28-.85,14.37-1.68,21.96-2.57Z"/>
      <path class="cls-1" d="M289.01,89c-.64,1.03-1.05,2.38-1.96,3.04-2.33,1.7-4.88,3.11-7.36,4.6-.22.14-.59.06-.89.05-.5,0-1.08-.22-1.48-.03-4.87,2.35-10.06,3.39-15.41,3.61-2.48.1-4.97-.15-7.46-.27-.4-.02-.8-.16-1.2-.25,0-.19.01-.38.02-.57,1.54,0,3.08,0,4.63,0,5.43.02,10.53-1.64,15.68-3.07,1.67-.47,3.42-.66,5.09-1.12,3.19-.87,6.19-2.13,8.55-4.56.49-.51.85-1.14,1.27-1.72.18.09.35.19.53.28Z"/>
      <path class="cls-1" d="M266.92,88.63c1.82-2.94,3.44-5.46,4.97-8.05,1.52-2.57,2.32-5.64,5.29-7.31v1.72c.61-.92.97-1.46,1.37-2.05.75,5.33-4.98,13.25-11.63,15.69Z"/>
      <path class="cls-1" d="M54.06,113.14c-.42,3.36-.83,6.65-1.24,9.95l-.53-.04c0-10.02-.6-19.98-2.52-30.03.39.37.68.64,1.1,1.04.15-.52.27-.96.48-1.7,1.18,7.48,2.3,14.63,3.43,21.76-.21-.29-.46-.63-.72-.97Z"/>
      <path class="cls-1" d="M244.01,123.15c-2.48,14.79-7.4,28.99-9.74,43.79-.4-4.31-.19-8.56.97-12.76,1.97-7.13,3.88-14.26,5.87-21.38.9-3.23,1.93-6.44,2.9-9.65Z"/>
      <path class="cls-1" d="M158.51,107.47c4.85,12.37,9.9,24.7,7.7,38.52-.26-13.31-3.85-25.94-7.7-38.52Z"/>
      <path class="cls-1" d="M225.79,59.5c-.15-.62-.3-1.24-.52-2.14-.54-.12-1.52-.35-2.49-.57.03-.14.05-.28.08-.43,2.34-.19,4.73-.22,6.82-2.07-1.34.2-2.44.56-3.5.46-1.07-.1-2.1-.66-3.1-1.25,2.57.27,5.18,1.18,7.12-1.89-1.19.43-2.12,1-3.07,1.04-.91.04-1.84-.48-2.72-.98,2.25.46,4.2.32,5.61-1.74.96-1.41.56-2.86-1.06-3.41-.74-.25-1.57-.36-2.35-.32-.48.02-.97.4-1.41.7-.05.04.17.74.3.75.54.04,1.24.13,1.6-.15.82-.64,1.47-1.07,2.3.08-2.42.66-4.77,1.31-7.28,2-.3-.65.14-1.25,1.08-1.69.45-.21,1.22-.49,1.24-.78.15-2.02,1.58-1.79,2.89-1.77,2.21.03,3.68,1.54,3.53,3.75-.12,1.82-.49,3.63-.61,5.45-.04.64.35,1.3.51,1.83-.75.48-1.67,1.06-2.62,1.67.02-.28.04-.69.08-1.4-1.33.76-2.19,1.57-2.48,2.89l.03-.03Z"/>
      <path class="cls-1" d="M252.51,81.85c-.29-.41-.58-.83-1.04-1.48v1.39l-.36.09c-.81-2.63-1.62-5.27-2.43-7.9-.14.04-.29.07-.43.11.67,2.47,1.35,4.94,2.02,7.41-2.84-2.26-4.14-5.28-4.59-8.7-.03-.23.79-.86,1.11-.79,2.26.46,4.49,1.05,6.72,1.62.49.13.96.35,1.38.9-1.73-.18-3.47-.36-5.31-.55,0,.33-.04.77,0,.77,1.78.32,1.3,1.97,1.75,3.03.56,1.29.9,2.67,1.34,4.02l-.18.09Z"/>
      <path class="cls-1" d="M252.97,111.92c.46-.4.85-1.02,1.39-1.18,5.86-1.82,11.74-3.58,17.62-5.33,2.22-.66,4.47-1.26,6.71-1.87.34-.09.71-.08,1.13.25-8.82,2.92-17.64,5.85-26.46,8.77-.13-.21-.26-.42-.39-.64Z"/>
      <path class="cls-1" d="M263.18,75.24c3.4-.61,6.8-1.22,10.23-1.83-.03.17-.02.32-.06.33-1.55.41-2.37,1.27-2.73,2.98-.4,1.9-1.35,3.68-2.07,5.52l-.39-.12v-2.94c-.05-.01-.11-.02-.16-.03-.24.8-.48,1.6-.71,2.4-.15,0-.29.01-.44.02-.12-.78-.31-1.55-.34-2.33-.03-.73.08-1.48.16-2.21.11-1.12-.3-1.54-1.47-1.34-.68.12-1.41-.05-2.11-.09.03-.11.06-.22.09-.34Z"/>
      <path class="cls-1" d="M231.04,22.99c-1.15-.65-1.21-1.28-.12-2.17.51-.42.96-1,1.24-1.6.52-1.12,1.8-1.8,3.13-1.53,1.96.41,2.6,1.1,2.58,2.61,0,.6.28,1.19.32,1.8.04.59-.07,1.2-.11,1.79l-.53-.04c-.15-.73-.29-1.45-.44-2.18-.12-.01-.24-.02-.36-.03-.13.39-.26.79-.43,1.27-.63-1.75-1.65-1.22-2.98-.42.79.39,1.39.69,2.11,1.04-1.97.54-2.82,0-3.07-2.25-.55.69-.9,1.12-1.35,1.69ZM232.89,20.22c1.27.16,2.29,1.38,3.3.08.19-.24-.14-1.3-.48-1.46-1.2-.58-2.06.04-2.82,1.38Z"/>
      <path class="cls-1" d="M132.68,205.9c1.62,2.61.55,5.21.02,7.83-.61,2.97-1.15,5.97-1.8,8.93-.09.43-.56,1-.96,1.11-1.78.49-2.89.2-3.96-.88.87-1.54,2.49-1.03,4.03-1.44.34-1.73.65-3.58,1.06-5.41.4-1.8,1.03-3.55,1.33-5.36.26-1.57.21-3.2.29-4.8,0,0-.02.03-.02.03Z"/>
      <path class="cls-1" d="M215.52,42.36c.96.12,1.94.19,2.89.38.39.08.69.5,1.08.63,1.33.44,2.17.99.88,2.39-.16.17-.21.5-.19.75.07,1.2-.54,1.81-1.62,2.19-1.31.48-2.41-.03-3.11-.94-.57-.74-.89-1.87-.87-2.82.02-.88.63-1.74.98-2.61,0,0-.04.03-.04.03ZM216.72,46.67v-2.89c-.21-.03-.42-.07-.63-.1-.24,1.11-.57,2.2-.64,3.32-.02.28,1.03.97,1.26.85,1.04-.55,1.96-1.32,2.92-2.02-.12-.18-.25-.36-.37-.54-.8.43-1.59.87-2.54,1.38Z"/>
      <path class="cls-1" d="M213.69,174.91c.11-.06.17-.12.19-.11,5.17,2.27,10.69,1.45,16.07,1.89,3.4.28,6.09,1.93,8.54,4.08l-.19.4c-.62-.32-1.31-.57-1.86-.99-2.4-1.8-5.12-2.15-8.04-2.43-4.26-.4-8.69.09-12.74-1.82-.66-.31-1.29-.67-1.97-1.03Z"/>
      <path class="cls-1" d="M277.13,67.97c-9.94-3.09-19.68-1.81-29.56,1.46,3.35-4.21,24.4-5.18,29.56-1.46Z"/>
      <path class="cls-1" d="M248.84,41.57c-7.83,2.48-15.76,3.08-23.78.78,7.97.99,15.88.65,23.78-.78Z"/>
      <path class="cls-1" d="M230.28,23.09c-1.65,3.06-4.1,5-6.26,7.73.6-3.25,3.07-4.67,4.62-6.76-3.58,1.16-6.33,3.43-8.48,6.52-.12-3.4,4.89-7.13,10.12-7.49Z"/>
      <path class="cls-1" d="M248.36,52.5c.08.35.16.71.31,1.32-1.21-.86-1.77-.53-2.27.63-.41.93-1.25,1.66-2.2,2.86-.28-1.34-.91-2.55-.61-3.45.24-.72,1.6-1.07,2.39-1.55-1.91-.81-2.81-.16-4.25,3.52-.09-1.88.37-3.19,1.47-4.11.98-.83,3.12-.51,4.19.36.28.22.66.31,1,.45l-.02-.03Z"/>
      <path class="cls-1" d="M236.78,54.16c2,.61,2.87,2.71,4.96,3.82-.96.1-1.48.16-2.46.26.97.64,1.57,1.04,2.17,1.43l-.14.53c-1.38-.31-3-.26-4.07-1.01-1.26-.88.47-1.31,1-2.08-.35-.42-.74-.82-1.06-1.27-.3-.42-.54-.89-.8-1.34.13-.12.27-.23.4-.35Z"/>
      <path class="cls-1" d="M234.68,93.06c2.43,1.22,5.23,2.03,7.19,3.79,1.95,1.75,4.15,1.33,6.18,2.04.15.05.3.11.44.18.09.05.16.13.18.55-1.19-.15-2.41-.2-3.57-.48-3.45-.82-6.55-2.41-9.33-4.6-.46-.36-.71-1-1.06-1.51,0,0-.03.03-.03.03Z"/>
      <path class="cls-1" d="M136.8,84.53c2.66,2.63,5.31,5.27,7.96,7.9-.67-.35-1.57-.61-2.17-1.18-2.54-2.42-4.99-4.92-7.45-7.41-.19-.19-.17-.58-.25-.88.48.28.97.55,1.45.83.15.25.3.5.45.75,0,0,0,0,0,0Z"/>
      <path class="cls-1" d="M112.54,51.62c.84-.94,1.5-2.27,2.54-2.75,2.16-.98,4.43-.5,6.51.73-.42-.09-.84-.18-1.26-.27-2.08-.46-3.99-.17-5.75,1.1-.64.46-1.38.78-2.07,1.16,0,0,.03.03.03.03Z"/>
      <path class="cls-1" d="M233.49,70.85c.87-.74,1.65-1.66,2.64-2.19,1.35-.72,2.86-1.15,4.18-1.66-.35,1.16-4.76,4.05-6.81,3.85Z"/>
      <path class="cls-1" d="M228.94,63.78c-1.41.91-2.82,1.82-4.44,2.86-.32-.47-.89-.96-.88-1.43,0-.33.77-.76,1.27-.93,1.24-.42,2.52-.72,3.79-1.06.09.19.18.38.26.57Z"/>
      <path class="cls-1" d="M136.35,83.78c-.48-.28-.97-.55-1.45-.83,2.94-.54,5.87-1.08,8.81-1.62.04.16.09.32.13.49-2.5.65-4.99,1.31-7.49,1.96Z"/>
      <path class="cls-1" d="M129.43,74.95c2.48-.76,4.54-1.39,6.59-2.02.08.05.15.09.23.14-1.03.84-2.06,1.67-3.28,2.66.06.23.2.76.34,1.28-.39-1.93-2.08-1.74-3.89-2.06Z"/>
      <path class="cls-1" d="M225.76,59.53c2.16,1.69,4.09,1.13,6.17-1.8.14,1.49-1.03,3.28-2.37,3.61-1.89.47-3.14-.14-3.78-1.84,0,0-.03.03-.03.03Z"/>
      <path class="cls-1" d="M242.03,56.64c3.07,1.67,3.92,1.42,6.7-1.75-.08,1.5-1.6,3.32-3.06,3.67-1.38.33-2.77-.34-3.64-1.91Z"/>
      <path class="cls-1" d="M136.8,84.53s0,0,0,0c.33-.03.7-.19.97-.08,2.3.89,4.58,1.82,6.87,3.03-1.02-.15-2.12-.12-3.05-.5-1.65-.68-3.2-1.62-4.8-2.45Z"/>
      <path class="cls-1" d="M221.14,57.73c-.69,1.2-1.36,2.36-2.04,3.56.74.53,1.28.92,2.19,1.57-2.7-1.21-2.89-1.4-2.72-2.58.18-1.23,1.32-2.41,2.57-2.54Z"/>
      <path class="cls-1" d="M238.56,66.66c-1.29-1.08-2.58-2.16-4.13-3.45,1.77-.1,3.79,1.45,4.48,3.06l-.34.39Z"/>
      <path class="cls-1" d="M236.59,49c-.15-2.68,2.69-1.68,3.66-3.04-.24,2.16-2.58,1.83-3.66,3.04Z"/>
      <path class="cls-1" d="M244.03,84.9c-1.24,1.31-2.53,2.67-3.78,4,.49-2.12,2.13-3.81,3.78-4Z"/>
      <path class="cls-1" d="M242.88,46.6c1.63.64,2.99,1.24,2.66,3.25-.01-1.79-3.04-.89-2.66-3.25Z"/>
      <path class="cls-1" d="M252.51,50.49c.09.73.12,1.03.17,1.34.04.29.1.59-.19.96-.31-1.04-.62-2.09-.94-3.13.16-.13.33-.26.49-.39.92.58,1.83,1.17,2.75,1.75-.09.14-.17.28-.26.42-.58-.27-1.16-.54-2.02-.95Z"/>
      <path class="cls-1" d="M197.11,113.01c-.85,1.2-1.52,2.16-2.2,3.12-.24-2.02.57-3.07,2.2-3.12Z"/>
      <path class="cls-1" d="M248.39,52.53c1.13-.92,2.29-.88,3,.08.69.93.47,1.92-.64,2.58,0-.18-.06-.36,0-.45.96-1.2.8-1.78-.66-2.1-.56-.13-1.16-.1-1.74-.14,0,0,.02.03.02.03Z"/>
      <path class="cls-1" d="M196.73,57.02c.34.38.68.75,1.13,1.24.14-.42.24-.73.34-1.04,1.05.37,1.11,2.12,2.69,1.88.24-.04.62.91,1.04,1.56-.52.16-.99.31-1.46.45-.06-.04-.12-.09-.17-.15-.64-.35-1.29-.69-2.25-1.21-.28-.58-.8-1.66-1.32-2.74Z"/>
      <path class="cls-1" d="M51.03,189.78c-1.65-10.9-1.2-21.75.66-32.59-.22,10.86-.44,21.72-.66,32.59Z"/>
      <path class="cls-1" d="M139.21,62.27q3.33-.72,3.33-3.86c0-1.31,0-2.63,0-3.92-2.76.54-3.98,3.41-6.51,4.68.97-1.25,1.95-2.5,2.92-3.74-.04-.06-.09-.12-.13-.17-.78.54-1.5,1.17-2.34,1.59-1.07.54-2.2,1.03-3.36,1.31-1.47.35-3.14-.85-3.33-2.19-.28-2.02.6-3.51,2.38-3.71,3.3-.38,6.61-.73,9.92-.92,1.94-.11,2.14.23,1.87,2.06-.36,2.4-.74,4.79-1.14,7.18-.32,1.94-1.25,2.43-3.61,1.68ZM131.41,57.19c3.82-.78,7.18-2.61,10.27-5.07-2.57.07-5.06.39-7.56.64-3.5.34-3.67.54-3.06,3.97,0,.04.06.08.35.45Z"/>
      <path class="cls-1" d="M141.57,45.89c-.36-1.12-.72-2.24-1.08-3.36.04-.03.08-.07.12-.1.47.69.95,1.38,1.63,2.38-.06-2.68-1.06-4.71-2.15-6.66-.19-.35-1.27-.36-1.91-.28-.61.08-1.18.48-1.77.74l-.18-.42c1.03-.43,2.04-1.05,3.11-1.21.47-.07,1.24.68,1.59,1.23.49.77.72,1.7,1.06,2.57.14-.01.27-.03.41-.04,0-.36.01-.72,0-1.08-.03-.79-.3-1.66-.06-2.35.21-.59,1.02-1.41,1.51-1.38,1.43.09,2.83.55,4.27.88-.3.65-.52,1.15-.77,1.7-.33-.56-.66-1.11-.98-1.65-.11.03-.23.06-.34.09-.04.62-.08,1.25-.13,1.87-.1.03-.2.05-.3.08-.27-.7-.53-1.39-.82-2.14-1.18.29-1.46,1.01-1.43,2.14.08,2.81.02,5.63.02,8.26.42-1.17.93-2.58,1.43-4,.07.01.14.03.21.04-.19,1.14-.38,2.29-.61,3.67.51-.47.85-.79,1.19-1.11.1.08.21.16.31.24-.63.9-1.26,1.8-2.07,2.96-.88-1.17-1.6-2.13-2.32-3.09l.03.04Z"/>
      <path class="cls-1" d="M141.54,45.85c.15.65.29,1.3.48,2.13-1.59-.59-2.36-2.85-4.71-2.03,1.82,1.33,3.4,2.49,4.98,3.65-3.03,1.34-5.92.98-8.8.25h7.68c.01-.14.03-.28.04-.41-1.54-.78-3.08-1.55-4.61-2.33l.23-.2c-.22-.35-.35-.85-.67-1.01-1.4-.71-2.7-2.67-4.4-1.28-2.15,1.75-2.34,3.8-1.04,5.43-.99-.13-1.83-1.7-1.49-2.94.18-.66.5-1.28.8-1.9,1.36-2.77,2.12-2.96,4.65-1.27.66.44,1.31.92,2.04,1.21.3.12.78-.2,1.17-.32-.03-.15-.06-.3-.09-.45.42.29.84.58,1.26.86.42.28.84.54,1.55.99-.34-1.1-.58-1.86-.82-2.63.05-.03.1-.05.15-.08.54.79,1.09,1.57,1.63,2.36,0,0-.03-.04-.03-.04Z"/>
      <path class="cls-1" d="M147.89,49.36c1.39-1.17,2.81-2.31,4.17-3.51,1.57-1.39,3.09-2.83,4.63-4.25.11.11.21.21.32.32-1.78,1.79-3.56,3.59-5.36,5.4h.78c-.46.43-.86.8-1.27,1.17.04.13.09.26.13.39,1.07-.22,2.13-.44,3.2-.66.02.06.05.12.07.18-1.88.74-3.76,1.49-5.89,2.33,2.15.69,4.04,1.29,5.94,1.89-.06.17-.11.35-.17.52-2.52-.58-5.27-.39-7.45-2.12.39-.72.66-1.21.94-1.71l-.04.04Z"/>
      <path class="cls-1" d="M166.75,40.34c.22-.53.41-.99.61-1.46-.1-.09-.19-.18-.29-.26-.74.72-1.48,1.45-2.22,2.17-.11-.07-.22-.14-.33-.22.15-.41.2-.9.47-1.2,1.61-1.82,3.22-3.65,4.96-5.34.37-.36,1.58-.44,1.92-.13.54.49.35,1.32-.4,1.84-.3.21-.42.64-.67.94-1.02,1.25-2.05,2.5-3.22,3.91-.06-.02-.41-.13-.82-.26Z"/>
      <path class="cls-1" d="M147.93,49.32c-.84.47-1.62,1.36-2.83.23.98-1.85,2.01-3.77,3.02-5.71,1-1.91,1.98-3.84,3.03-5.88.45.2.84.38,1.23.56l.03-.03c-.46.31-1.13.52-1.34.95-1.07,2.21-2.02,4.48-2.99,6.74-.1.23-.05.53-.11,1.25,1.04-1.19,1.78-2.04,2.53-2.89l-.03.04c.24-.07.48-.14,1.17-.34-1.4,1.91-2.57,3.51-3.74,5.11,0,0,.04-.04.04-.04Z"/>
      <path class="cls-1" d="M146.14,52.03v8.41c1.62-.07,3.06-.13,4.5-.2.05.12.1.24.15.36-.62.26-1.21.6-1.85.76-.61.16-1.27.14-2.05.37-2.97-2.86-1.52-6.34-.75-9.71Z"/>
      <path class="cls-1" d="M152.38,38.51c.86.62,1.05,2.04.36,2.99-.75,1.04-1.52,2.06-2.28,3.08,0,0,.03-.04.03-.04-.37.11-.74.22-1.33.4.54-.86.98-1.52,1.38-2.19.37-.61.75-1.23,1.03-1.88.33-.77.57-1.59.84-2.38l-.03.03Z"/>
      <path class="cls-1" d="M147.64,52.56c2.93,1.42,3.62,5.16,7.22,5.23-.63,1.14-1.42.94-1.99.36-1.72-1.73-3.34-3.56-5.22-5.58Z"/>
      <path class="cls-1" d="M182.38,70.06c-.34.31-.68.63-1.02.94l.04.03c-.25-1.4-.65-2.8-.68-4.2-.01-.73.45-1.8,1.04-2.14,1.83-1.09,3.82-1.9,6.05-2.97-.14-.81-.34-2.01-.53-3.18.36.41.75.84,1.4,1.58-.02.13-.1.7-.19,1.26.1.11.2.22.3.33.04-.18,0-.44.11-.51,1.7-1.19,7.09,1.06,7.5,3.06.54,2.62.57,5.15-1.04,7.45-.19.27-.51.45-.85.61,1.75-2.72,1.84-5.61,1.05-8.6-.08-.3-.15-.79-.32-.84-1.91-.5-3.84-.92-5.77-1.37-.06.18-.12.36-.18.55l2,1.32.03-.02c-1.2-.14-2.39-.28-3.59-.42,2.12.73,2.44.95,2.67,2.06-.47-.27-1.04-.59-1.32-.75-.22,1.17-.41,2.15-.6,3.13-.98-.43-1.96-.86-3.24-1.42-.73.4-.43,1.49-.34,2.53l.03-.02c-1.9-.88-1.25-2.3-.62-3.7-3.13.4-3.59,2.94-1.95,5.32l.02-.03Z"/>
      <path class="cls-1" d="M175.06,82.8c.21-.13.42-.26.68-.43-.96-1.86-1.95-3.71-2.83-5.61-.19-.42.11-1.04.05-1.56-.05-.44-.29-.86-.45-1.29.72.28,1.45.57,2.26.89.73-2.45-1.52-4.4-2.15-6.97.52-.21,1.06-.43,1.37-.56.12.97.04,1.91.37,2.67,1.02,2.34,2.15,4.57,1.32,7.28-.18.58.24,1.59.72,2.07,1.12,1.12,1.74,2.33,1.81,3.92.02.44.53.96.94,1.26.8.59,1.68,1.07,2.54,1.59l.03-.03c-.83-.24-1.7-.4-2.49-.74-.61-.26-1.1-.77-1.67-1.11-.81-.49-1.65-.93-2.48-1.39Z"/>
      <path class="cls-1" d="M189.4,79.31c-.85.27-1.71.54-2.65.83-.46.86-.95,1.89-1.55,2.85-.2.32-.69.45-1.05.66-.06-.47-.23-.95-.15-1.39.08-.44.4-.85.64-1.26.65-1.15.39-1.93-.87-2.45-.71-.29-1.34-.76-2-1.15,0,0-.03.02-.03.02,1,.28,2,.57,3.15.9-.1-.57-.17-.94-.23-1.25h4.23c-.94-1.4-1.64-2.45-2.35-3.5l-.02.03c.54.37,1.33.62,1.58,1.14.62,1.25,1.79,1.59,2.88,1.77.55.09,1.24-.7,2.06-.95-1.22,1.26-2.45,2.51-3.67,3.77,0,0,.03-.03.03-.03Z"/>
      <path class="cls-1" d="M191.29,63.39c1.37.74.76,1.9.38,2.76-1.04,2.36-2.84,3.97-5.3,4.86-1.58.57-2.87.23-3.99-.95,0,0-.02.03-.02.03,1.61.91,3.08.47,4.38-.35-.61-.43-1.21-.85-1.81-1.27l-.03.02c.81.06,1.68.33,2.43.13,2.56-.68,3.74-2.33,3.99-5.26l-.03.02Z"/>
      <path class="cls-1" d="M181.36,71c1.24.58,2.49,1.15,3.72,1.76.5.24.96.57,1.44.85l.02-.03c-3.32-1.01-6.69-1.93-8.87-5.33-.06.55-.19.85-.1,1.04,1.25,2.78,1.96,5.85,4.17,8.14,0,0,.03-.02.03-.02-1.34-.41-2.21-1.2-2.67-2.61-.52-1.59-1.32-3.09-1.98-4.64-.18-.43-.44-.91-.41-1.34.04-.52.35-1.02.55-1.53.5.23,1.08.37,1.48.71.33.29.38.88.69,1.21.61.65,1.32,1.21,1.99,1.81,0,0-.04-.03-.04-.03Z"/>
      <path class="cls-1" d="M186.51,60.42c-3.63-.97-7.57.3-7.49,5.49-1.12-.91-.97-3.1.33-4.87,1.04-1.41,5.03-1.92,7.15-.62Z"/>
      <path class="cls-1" d="M193.38,74.21c-1.27-.32-2.83-.71-4.39-1.1.02-.16.03-.32.05-.48,1.12.05,2.24.11,3.74.18.31-2.28.62-4.62.88-6.58.55,1.31.68,3.11.16,5-.27.98-.31,2.03-.44,2.98Z"/>
      <path class="cls-1" d="M181.68,86.07c2.57-.22,5.15-.37,7.71-.69,1.58-.2,2.59-2.04,2.69-4.47.98,1.92-.43,4.74-2.55,5.04-1.92.27-3.85.52-5.78.64-.67.04-1.36-.35-2.04-.54,0,0-.03.03-.03.03Z"/>
      <path class="cls-1" d="M164.3,53.76c-.61.53-1.22,1.07-2.09,1.82.68-3.55,3.44-4.95,5.99-6.66-.19.41-.31.89-.59,1.22-.82.95-1.71,1.85-2.57,2.77-.25.28-.49.56-.74.84Z"/>
      <path class="cls-1" d="M164.3,53.76c.25-.28.49-.56.74-.84.91-.61,1.82-1.22,2.73-1.83.05.07.11.14.16.21-.57.73-1.14,1.47-1.71,2.2-.36.36-.72.72-1.08,1.08-.63.59-1.26,1.18-1.98,1.85,0-.06-.16-.41-.05-.64.34-.7.78-1.36,1.18-2.04Z"/>
      <path class="cls-1" d="M165.44,56.07c1.47-1.19,2.94-2.38,4.4-3.57.1.12.19.24.29.35-1.79,1.61-3.57,3.22-5.36,4.82-.08-.05-.15-.11-.23-.16.31-.49.62-.98.93-1.47,0,0-.03.02-.03.02Z"/>
      <path class="cls-1" d="M165.15,54.58c.36-.36.72-.72,1.08-1.08.96-.65,1.92-1.3,3.06-2.07-1.41,1.7-2.63,3.17-3.85,4.64,0,0,.03-.02.03-.02-.11-.49-.21-.98-.32-1.47Z"/>
      <path class="cls-1" d="M168.66,55.68c-1.19,1.31-2.38,2.62-3.57,3.93-.12-.11-.25-.22-.37-.33,1.2-1.32,2.4-2.64,3.6-3.96.12.12.23.24.35.36Z"/>
      <path class="cls-1" d="M264.28,32.41c1.28.77,2.56,1.54,3.84,2.3l-.17.3c-1.76-.51-3.51-1.03-5.77-1.69.99-.41,1.56-.66,2.14-.9,0,0-.04-.02-.04-.02Z"/>
    </g>
  </g>
</svg>