<?xml version="1.0" encoding="UTF-8"?>
<svg id="Layer_1" xmlns="http://www.w3.org/2000/svg" viewBox="0 0 234.84 297.64">
  <defs>
    <style>
      .cls-1 {
        fill: #a61e2f;
      }
    </style>
  </defs>
  <g id="sJPpXa">
    <g>
      <path class="cls-1" d="M77.5,141.85c-1.52-1.12-2.95-2.39-4.58-3.32-3.99-2.27-8.09-4.35-12.11-6.56-6.31-3.47-9.84-10.41-8.61-17.43.3-1.71,1.74-3.18,2.38-4.87,1.97-5.21,6.17-7.56,11.1-9.14.81-.26,1.45-1.05,2.18-1.59,1.89-.15,3.77-.31,5.66-.46l.14-.79c-.53-.69-.98-1.45-1.59-2.06-1.87-1.89-3.93-3.6-5.67-5.6-2.15-2.45-4.03-5.13-3.84-8.76.69.44,1.36.94,1.66,1.61,2.32,5.1,5.56,9.5,9.56,13.4,1,.97,1.95,1.12,2.75.31,2.37-2.41,5.3-3.64,8.43-4.61.92-.29,1.81-.8,2.58-1.38,2.27-1.7,4.31-1.66,6.73.23-2.45-1.3-4.33-.13-6.23,1.31-1.18.89-2.56,1.52-3.79,2.34-1.69,1.13-3.23,2.54-5.02,3.47-3.22,1.67-6.48,3.36-9.9,4.54-6.83,2.35-11.09,7.31-14.49,13.29-.08.13-.2.28-.19.41.15,2.25.31,4.5.52,7.43.78-1.22,1.16-1.82,2.04-3.2.46,7.11,5.8,9,10.32,11.65,3.32,1.95,7.04,3.37,10.03,5.72,3.67,2.89,8.15,2.77,12.16,4.27,3.45,1.3,6.64-.92,9.49-2.77,3.73-2.41,6.75-5.7,8.86-9.55,2.19-3.99,5.49-7.36,6.65-11.96.5-1.97,2.26-3.76,2.34-5.67.11-2.45.54-5.25-1.61-7.38-2.37-2.35-2.76-5.13-1.18-8.23-1.1-.38-1.99-.69-2.97-1.03-.48.72-.96,1.43-1.48,2.22-1.21-1.89-1.08-2.28,1.41-4.12-1.57-.22-1.72-3.96-4.44-1.29.8.54,1.4.95,2.08,1.4-1.68.35-3.68.23-3.56,3.27-.84-1.25-1.43-2.12-2.03-3-.24,0-.47,0-.71,0-.2,1.52-.4,3.04-.59,4.47-1.73-.7-2.75-2.83-1.98-5.81.43-1.67-.08-2.42-1.26-3.38-2.7-2.19-3.11-4.6-1.91-7.94.47-1.3.41-2.78,1.01-4.25.2.94.4,1.88.66,3.09.93-.25,1.75-.46,2.73-.72-1.46-3.43-2.77-6.65-4.21-9.81-.32-.7-.99-1.38-1.67-1.76-8.09-4.54-16.17-9.1-24.36-13.46-1.61-.86-3.65-.91-5.5-1.29-1.22-.25-2.46-.43-3.69-.64,0-.31-.02-.63-.02-.94.63-.09,1.26-.29,1.89-.25,4.23.24,7.83,2.31,11.41,4.24,7.02,3.79,13.89,7.87,20.87,11.75,2.73,1.52,4.76,3.48,5.39,6.66.17.86.6,1.67,1,2.74.8-.66,1.41-1.15,1.83-1.5-.19-1.19-.52-2.2-.46-3.19.05-.87.54-1.72.83-2.58.71.45,1.43.9,2.5,1.57.91-1,2.91-1.6,2.03-4.34-.28-.87-1.59-2.59.39-3.58,2.36-1.18,4.69-3.24,6.93.14-1.01-.25-2.03-.72-3.01-.66-.49.03-1.43,1.23-1.3,1.56.93,2.4,3.25.61,4.8,1.38.23.11.8-.47,1.21-.73.23.38.46.76.68,1.15.03.05,0,.14.04-.38-2.06.5-3.92.96-5.79,1.42-.35-.54-.71-1.08-1.42-2.19.11,2.22.19,3.82.3,5.91,1.4.05,3.11,1.79,5.27.47.74.61,1.48,1.22,2.23,1.84,0,0,.08-.05.08-.05-.76-.06-1.53-.11-2.17-.16.27,2.24.51,4.21.75,6.17l.07-.09c-1.59.21-3.24.33-3.28,2.97,1.18-.17,2.3-.61,3.27-.39.88.2,1.6,1.11,2.15,2.03-.47-.42-.94-.84-1.88-1.67.25,1.47.66,2.38.46,3.12-.17.62-1.06,1.03-1.86,1.74.05.12.31.56.41,1.03.08.4-.02.85-.07,1.82,1.72-.45,3.15-.82,4.58-1.19.01-.21.02-.43.03-.64-.87-.37-1.74-.75-2.62-1.12.04-.12.08-.24.12-.36.55.19,1.1.38,1.24.43,1.13-.78,2.16-2.04,2.92-1.89,1.52.3,2.9,1.36,4.88,2.4-1.68,1.17-2.84,1.97-3.99,2.77-.15-.15-.29-.31-.44-.46.39-.71.78-1.41,1.17-2.12-.13-.13-.27-.26-.4-.39-1.07,1-2.13,2-3.33,3.13.42.89.91,1.94,1.43,3.03-.43.52-.92,1.12-1.86,2.26,2.93.21,5.3.43,7.67.52,2.4.09,4.82.1,7.22.05,1.91-.04,3.82-.33,5.72-.31,3.25.04,6.51.18,9.75.44.41.03.74,1.04,1.11,1.6h0c-3.81-1.81-7.68-1.12-12.01-.63.68.62.94.86,1.64,1.5-5.62-3.3-11.2-1.44-16.93-2.02,1.32,6.18,5.22,10.49,8.51,15.15-4.77-4.07-10.07-7.78-9.49-15.16-.64-.15-1.07-.26-1.5-.36-1.59-.35-3.36-1.81-4.65.32-1.44,2.37-2.62,4.93-1,7.68,1.26,2.14,2.8,4.12,4.07,6.26.35.59.16,1.5.21,2.26h0c-1.08-1.13-1,.14-1.11.6-.83,3.53-1.61,7.08-2.36,10.38-.06-.23-.2-.83-.37-1.51-.26.07-.55.06-.63.18-1.6,2.61-3.08,5.29-4.76,7.84-3.83,5.81-8.08,11.23-15.21,13.2-3.46.95-6.97,1.84-10.52,2.26-1.29.16-2.75-1.12-4.14-1.73-1.6-.7-3.2-1.37-4.79-2.05.01,0,.06.04.06.04ZM113.49,94.18c2.58-.76,2.9-2.65,1.42-7.16-1.07,1.5-1.91,2.69-2.76,3.88.14.14.27.28.41.42.52-.09,1.04-.17,1.54-.25-.19.98-.36,1.88-.6,3.11ZM99.65,81.92c-.42,1.97-.96,3.32-.89,4.65.04.87.91,2.38,1.49,2.42,1.62.11,1.55-1.42,1.27-2.47-.37-1.4-1.08-2.72-1.87-4.6ZM112.57,74.01c-1.88,2.2-1.97,3.71-.66,4.98.24.23,2.31-.83,2.27-1-.29-1.22-.9-2.37-1.61-3.99ZM105.92,92.19c-.95-2.69,1.38-1.55,2.65-2.3-1.27-.67-2.23-1.17-3.33-1.75-.37,1.3-.66,2.35-.99,3.52.46.15.87.28,1.67.54ZM117.48,78.07c-.23-1.7-.42-3.1-.61-4.49-2.17,3.57-2.13,3.83.61,4.49ZM116.38,85.59c.17-.21.35-.41.52-.62-.48-.69-.83-1.6-1.49-1.98-.3-.18-1.2.68-2.39,1.41,1.55.55,2.45.87,3.36,1.19Z"/>
      <path class="cls-1" d="M67.93,99.04c-.98-.8-1.9-1.69-2.95-2.4-4.3-2.92-7.42-6.57-8.21-11.96-.61-4.19-2.87-5.87-7.04-6.94-6.01-1.54-12.12-3.02-17.82-5.41-7.09-2.97-10.08-9.31-11.2-16.62-.1-.67.02-1.39-.11-2.05-1.04-5.42-.4-5.17,4.93-8.15.99-.56,1.98-1.14,2.97-1.69,2.97-1.64,5.97-3.06,9.51-1.89.46.15,1.01.02,2.04.02-5.12-6.43-6.22-13.6-6.01-21.1,1.84,2.31,2.23,5.09,2.01,7.79-.51,6.4,5.1,14.82,10.98,16.01,1.05-3.01-.83-5.31-1.83-7.88,1.78,1.2,3.08,2.91,2.98,4.98-.11,2.56.83,3.73,3.23,4.16.97.17,1.87.72,3.3,1.3-.51-1.58-.78-2.66-1.21-3.68-1.36-3.22-.43-6.09,1.19-8.9.35-.62.89-1.36.8-1.96-.47-2.93,1.17-5.08,2.46-7.55.83.24,1.6.47,2.38.69l-.06-.06c-.23,5.85,4.13,8.96,7.49,12.68-.14.15-.29.3-.43.46-2.56-2.84-5.11-5.68-7.66-8.52-2.8,2.86-2.72,6.44-.06,8.55,2.56,2.03,5.15,4.01,7.63,6.18-3.54-2.44-7.08-4.89-10.67-7.37-2,6.12-.99,9.91,3.39,13.1-1.04,1.64-2.33.64-2.92-.11-3.4-4.33-8.81-3.94-13.22-5.86-.2-.09-.49.03-.67-.07-3.49-2.1-7.02-1.66-10.44.03-2.97,1.47-5.9,3.07-8.67,4.88-1.96,1.29-1.51,2.81.59,4.08,4.77,2.89,9.44,5.94,14.15,8.92-.1.2-.21.39-.31.59-4.68-2.65-9.35-5.3-14.49-8.21,1.9,4.26,9.33,12.3,13.25,14.65-1.92,0-4.6-1.04-7.4-3.52-2.12-1.88-3.85-4.19-5.9-6.47.94,3.33,2.13,6.25,5.02,8.36,4.62,3.38,10.09,4.32,15.38,5.91,6.07,1.83,12.3,2.54,18.46,3.79,1.8.36,3.47.76,5.3.67.52-.03,1.08.69,1.63,1.06.06-.21.12-.42.18-.63,1.17.33,2.33.71,3.51.97,1.84.42,3.75.61,5.54,1.17,2.09.66,4.08,1.63,6.12,2.47-1.93-.89-4.08-.15-5.89-.49-6.77-1.27-13.65-1.95-20.35-3.6-.68-.17-1.43-.02-2.3-.02.11.55.07.96.24,1.09,2.7,1.96,3.08,4.98,3.82,7.9.36,1.42,1.04,2.86,1.91,4.04,1.68,2.29,3.61,4.41,5.43,6.6Z"/>
      <path class="cls-1" d="M110.59,157.98c-4.42,5.15-8.04,10.63-8.06,17.82,0,3.18-.39,6.37-.73,9.55-.07.68-.67,1.3-.55,1.87.29,1.77.69,3.54.85,5.33.18,1.94.35,3.93.16,5.86-.47,4.95,2.66,8.88,3.58,13.42.92,4.6,1.99,9.16,2.95,13.75.96,4.58,2.24,9.15,2.67,13.78.26,2.8.31,5.69-.26,8.7-.98,5.14-2.39,10.42-1.26,15.86.63,3.01-.55,5.57-3,7.65-2.08,1.76-3.83,3.9-5.8,5.79-.68.65-1.6,1.03-2.41,1.54,2.53-2.61,4.99-5.29,7.6-7.81,2.37-2.28,3.04-6.15,1.15-8.61-.53,1.16-.96,2.29-1.53,3.34-1.62,3-2.18,6.72-5.53,8.57-2.34,1.29-3.66,3.32-4.53,5.74.68-4.16,1.36-8.32,2.03-12.48.37.04.75.09,1.12.13-.17,1.78-.34,3.56-.51,5.34.21.07.41.14.62.22.75-1.06,1.65-2.05,2.23-3.2,1.01-2.01,1.63-4.23,2.76-6.16,1.61-2.76,1.42-5.65.58-8.36-.61-1.95-.04-3.54.23-5.28.56-3.5,1.1-7.01,1.7-10.5.2-1.17.78-2.31.78-3.46,0-2.91-.12-5.82-.4-8.71-.16-1.72-.78-3.39-1.03-5.11-.09-.65.31-1.36.37-1.59-.61-1.03-1.38-1.76-1.44-2.54-.31-4.31-2.02-8.24-3.15-12.32-.85-3.06-1.56-6-1.15-9.32.35-2.8-.85-5.76-.72-8.62.24-5.03,1.23-10.02,1.42-15.05.16-4.08,2.26-7.22,3.99-10.59.63-1.24,2.1-1.82,2.35-3.5.21-1.42,1.55-1.71,2.9-1.06h0ZM108.91,238.29c-.63,5.53-1.26,11.06-1.88,16.59.26.03.53.05.79.08,1.94-5.4,2.48-10.94,1.1-16.66Z"/>
      <path class="cls-1" d="M115.05,51.26c-.31-.96-.93-1.93-.89-2.87.2-5.3.36-10.61.98-15.87.18-1.56,1.52-3.28,2.81-4.36,3.09-2.59,6.4-4.92,9.74-7.19,1.29-.87,2.91-1.22,4.33-1.92,2.27-1.12,4.43-2.52,6.78-3.42,1.26-.48,3.3-.72,4.16-.04,1.57,1.24,2.95,3.11,3.63,5,.8,2.23,1.16,4.61,2.11,6.87.74,1.76.58,3.89.91,5.85.13.8.54,1.55.74,2.34.91,3.66,2.29,7.29,2.51,10.99.14,2.37-1.05,5.09-2.38,7.18-1.15,1.8-1.39,4.44-3.9,5.29-.17.06-.2.52-.31.79-1.04,2.47-2.09,4.94-3.14,7.41-.36-.09-.73-.17-1.09-.26,0-.54-.18-1.16.03-1.61.85-1.84,1.88-3.6,2.71-5.44,1.17-2.6,1.85-5.5,3.43-7.81,2.52-3.7,1.85-7.24.65-11.02-.35-1.11-.15-2.39-.41-3.54-.17-.74-.62-1.49-1.14-2.06-1.72-1.88-1.14-4.27-1.57-6.43-.19-.96-.49-1.9-.9-3.42-1.87,5.23-3.48,9.76-5.1,14.3-.24-.07-.48-.14-.71-.21,1.25-7.52,6.4-14.54,3.01-22.71-.2,6.2-1.48,12.05-5.02,17.89,1.17-5.84,2.22-11.09,3.41-17-2.96.99-5.26,1.65-7.44,2.57-.47.19-.61,1.28-.8,1.98-1.02,3.68-2.02,7.37-3.02,11.06-.27-.06-.54-.12-.81-.18.58-3.71,1.15-7.42,1.77-11.38-.59.12-1.01.08-1.24.26-3.75,3.05-7.68,5.93-11.08,9.33-1.09,1.09-.91,3.57-1.07,5.44-.39,4.71-.63,9.44-.93,14.16-.24.02-.49.04-.73.06Z"/>
      <path class="cls-1" d="M152.47,97.64c1.68-.04,3.41-.34,5.03-.04,2.23.4,4.34,1.47,6.57,1.87,6.82,1.23,13.51.8,20.15-1.48,2.56-.88,4.92-2.76,7.98-2.13.7.14,1.75-.49,2.37-1.07,3.53-3.28,7.06-6.57,10.42-10.03.89-.91,1.18-2.42,1.72-3.66,1.52-3.46,3.05-6.91,4.55-10.38,1.23-2.85.82-4.08-1.95-5.57-2.6-1.4-5.25-2.72-7.9-4.04-.47-.23-1.01-.43-1.52-.44-6.11-.2-12.13-1.03-18.26,1.06-5.48,1.87-11.4,2.43-17.08,3.77-2.94.69-5.78,1.81-8.67,2.74l.02.03c-.52-1.41-.18-2.41,1.39-2.73,4.37-.88,8.72-1.98,13.14-2.5,2.71-.32,5.1-1.23,7.51-2.28,5.13-2.24,10.52-1.91,15.94-1.84,4.2.06,7.83,1.35,11.27,3.62,1.69,1.12,3.67,1.8,5.43,2.83,4.69,2.74,5.03,4.1,2.61,8.98-1.34,2.7-2.74,5.38-3.81,8.19-2.76,7.22-8.39,11.27-15.11,14.24-1.25.55-2.35,1.44-3.59,2-9.3,4.16-18.74,4.48-28.39,1.16-3.16-1.09-6.52-1.56-9.8-2.31,0,0,0,0,0,0Z"/>
      <path class="cls-1" d="M95.9,192.43c1.82.7,1.97,2.1,1.71,3.79-.1.65.21,1.37.37,2.04.1.4.37.78.43,1.18.36,2.49.89,4.97.98,7.47.14,4.08-.05,8.17-.05,12.25,0,5.57.04,11.15.08,16.72.02,2.94.04,5.89.09,8.83.1,6.51.24,13.01.28,19.52,0,.73-.5,1.46-1.13,2.1.04-1.99-2.21-3.89-.11-5.81.11-.1,0-.63-.16-.83-2.26-2.8-1.6-6.16-1.74-9.34-.3-6.94-.64-13.87-.69-20.81-.03-3.45.73-6.91.79-10.37.07-4.46-.06-8.93-.39-13.37-.26-3.54-1.03-7.04-1.36-10.58-.09-.91.62-1.9.96-2.85l-.07.05Z"/>
      <path class="cls-1" d="M126.1,68.13c1.09-2.28,2.08-4.71,4.3-6.06.64-.39,2.18.12,2.92.7.54.42.52,1.65.59,2.53.06.76-.25,1.54-.18,2.29.2,2.07-1.08,3.18-2.58,4.08-.82.49-1.83.68-2.99,1.09-.22-.81-.42-1.57-.77-2.89-.98,1.09-2.06,1.86-2.46,2.89-.24.63.35,1.84.92,2.48,1.54,1.76,4,2.65,4.28,5.59.07.74,2.11,1.22,3.11,1.99.6.46,1.42,1.36,1.3,1.88-.18.77-1.09,1.36-1.84,1.88.47-3.75.46-3.71-3.55-4-.34-.02-.69-.98-.91-1.56-.31-.78-.27-2.01-.8-2.33-1.07-.64-1.34.41-1.75,1.29-.32.69-1.19,1.13-1.82,1.68-.03.28-.07.56-.1.84-1.57-.96-3.14-1.93-4.89-3,.08-.1-.17.2-.57.7-.11-.56-.18-.96-.26-1.37,0,0-.07.09-.07.09,2.23-1.59,1.73-3.82,1.43-6.01,0,0-.08.05-.08.05,1.31.74,1.6-.09,1.97-1.13.38-1.1.99-2.12,1.55-3.27.61,1.23.98,1.97,1.35,2.71.45-.67.92-1.34,1.35-2.03.24-.38.41-.8.61-1.21.58,1.69,1.77,1.21,2.87.74.93-.4,1.8-.92.9-2.14,2.58.28,3.04-.43,2-3.61-.68,1.32-3.47.97-2.03,3.48-1.27.54-2.54,1.08-3.8,1.61Z"/>
      <path class="cls-1" d="M86.52,147.05c.77,3.98,1.23,7.96,2.36,11.74,1.15,3.83,2.96,7.46,4.58,11.4,3.87-7.87,7.67-15.6,11.47-23.33.09.02.18.04.27.06-.4,1.81-.8,3.62-1.34,6.03,1.9-1.36,2.71-3.55,5.22-2.11-1.02,1.45-2.03,2.88-3.32,4.73-.16-.99-.24-1.5-.32-2.01-.19-.13-.38-.25-.57-.38-1.04,1.18-2.46,2.21-3.06,3.58-2.56,5.85-4.88,11.8-7.3,17.71-.48,1.18-1.04,2.32-2.08,3.4,0-1.44.29-2.95-.05-4.31-.96-3.8-2.33-7.5-3.27-11.31-1.16-4.68-2.04-9.43-3.03-14.15-.04-.21-.02-.46.03-.67.03-.11.19-.18.41-.38Z"/>
      <path class="cls-1" d="M201.47,138.02c-.9.77-1.69,1.81-2.73,2.27-5.88,2.64-11.86,5.06-17.74,7.71-4.5,2.03-9.23,1.78-13.91,1.61-5.02-.18-10.02-.73-14.4-3.6-.24-.16-.46-.35-.63-.72,6.23,3.19,12.99,2.55,19.58,2.86,5.17.24,9.63-2.4,14.21-4.36,4.36-1.87,8.63-3.95,13-5.81.75-.32,1.78.03,2.69.08l-.06-.04Z"/>
      <path class="cls-1" d="M95.97,192.38c-.41-.2-1.04-.29-1.2-.61-1.72-3.46-3.5-6.9-4.98-10.47-1.71-4.11-3.07-8.35-4.69-12.5-.94-2.4-2.11-4.71-3.15-7.06-.14-.33-.16-.71-.25-1.14,2.13-.97,2.91.63,3.52,1.88,1.03,2.1,1.78,4.33,2.61,6.53,1.96,5.15,3.84,10.32,5.87,15.44.55,1.39,1.6,2.58,2.26,3.94.64,1.3,1.72,2.72-.06,4.03,0,0,.07-.05.07-.05Z"/>
      <path class="cls-1" d="M155.85,68.24c-.69.21-1.38.43-2.57.79.82.45,1.19.65,2.13,1.17-3.84,2.88-7.45,5.58-11.05,8.28.15.26.3.52.46.78,4.6-2.1,9.14-4.4,14.08-4.32-5.8,1.13-11.08,4.06-16.3,7.13l.07.06c.22-.71.44-1.41.67-2.13-.55-.41-1.14-.84-1.85-1.36,1.52-2.31,2.2-4.96,5.15-6.23,1.78-.77,3.07-2.73,4.53-4.2,1.6-1.62,3.14-1.86,4.69.06,0,.01-.01-.02-.01-.02Z"/>
      <path class="cls-1" d="M94.19,90.78c.29-.17.59-.33.88-.5-.48-.57-.86-1.3-1.46-1.68-2.83-1.77-5.72-3.44-8.59-5.15.67.1,1.33.2,2.72.4-1.43-1.17-2.28-2.11-3.32-2.66-6.69-3.55-13.75-5.74-21.35-6.42-3.06-.27-6.04-1.52-9.06-2.32l-.05.05c.21-.09.42-.29.62-.27,10.63.98,20.99,3.08,30.26,8.68,3.16,1.91,5.83,4.6,8.78,6.85,1.14.87,2.5,1.46,3.66,2.31.66.48,1.12,1.23,1.84,2.06-2.01-.56-3.48-.96-4.94-1.37Z"/>
      <path class="cls-1" d="M121.32,112.64c.95.11,2.24-.13,2.78.39,6.37,6.17,12.7,12.41,16.6,20.58.34.71.94,1.3,1.48,2.03-2.01,1.3-2.63-.46-3.26-1.36-2.15-3.03-4.06-6.24-6.19-9.29-1.16-1.66-2.57-3.14-3.9-4.67-1.89-2.18-3.78-4.37-5.73-6.49-.47-.51-1.18-.81-1.78-1.2,0,0,0,0,0,0Z"/>
      <path class="cls-1" d="M110.6,157.98c-.85-.95-.82-1.97-.37-3.12,1.46-3.73,2.9-7.47,4.26-11.23.56-1.53.91-3.13.89-4.9-1.27,2.04-2.54,4.09-4.1,6.61.2-.95.28-1.37.44-2.13-1.37,1.15-2.49,2.09-3.62,3.03-.16-.13-.32-.26-.47-.39.03-.4-.1-.95.11-1.19,1.4-1.59,2.82-3.16,4.33-4.64,2.01-1.97,2.12-2.77.45-5.45.8.18,1.8.11,2.35.58.71.61,1.61,1.76,1.46,2.46-.91,4.19-2.06,8.34-3.22,12.47-.75,2.65-1.67,5.26-2.52,7.88,0,0,0,0,0,0Z"/>
      <path class="cls-1" d="M60.36,25.83c-.12-.67-.25-1.33-.39-2.11,1.54-.98,3.06-.56,4.4.34,2.33,1.57,4.84,3.03,6.76,5.03,2.65,2.77,5.81,3.57,9.38,3.81,3.54.24,6.8,1.33,9.78,3.57-4.39-1.22-8.61-2.4-12.83-3.57-.11.21-.22.43-.34.64,3.38,2.53,6.77,5.06,10.15,7.6-.08.11-.17.22-.25.33-5.07-3.57-10.15-7.12-15.19-10.73-.98-.7-1.81-1.62-2.71-2.44-2.52-2.3-5.47-3.11-8.82-2.53,0,0,.06.06.06.06Z"/>
      <path class="cls-1" d="M191.93,126.66c-4.79-1.61-9.7-2.94-14.35-4.9-4.96-2.09-9.55-4.91-13.36-8.9-1.48-1.55-3.54-2.57-5.38-3.75-4.52-2.89-9.07-5.74-13.46-8.88,2.44,1.42,4.91,2.8,7.32,4.28,2.32,1.43,4.61,2.92,6.85,4.48,2.85,1.99,5.8,3.87,8.39,6.16,4.71,4.15,10.17,6.49,16.22,7.84,2.27.51,4.44,1.5,6.61,2.38.47.19.74.86,1.11,1.31.01,0,.06-.03.06-.03Z"/>
      <path class="cls-1" d="M75.65,125.54c2.86-3.42,5.85-6.74,8.55-10.28,2.63-3.44,4.96-7.11,7.42-10.67l.74.43c-.87,1.39-1.79,2.76-2.6,4.18-.9,1.58-1.58,3.29-2.59,4.79-1.01,1.51-2.28,2.84-3.46,4.23-1.22,1.44-2.38,2.95-3.72,4.26-1.27,1.24-2.75,2.26-4.14,3.38-.07-.11-.14-.22-.21-.33Z"/>
      <path class="cls-1" d="M84.56,103.89c-.06.61.1,1.4-.22,1.81-4.08,5.2-9.18,9.19-14.97,12.33-.1.05-.28-.05-.51-.1,5.02-4.75,10-9.45,14.98-14.16.24.04.48.08.72.12Z"/>
      <path class="cls-1" d="M193.9,71.96c-5.74,3.46-11.38,4.36-17.31,4.21,5.03-1.73,10.06-3.48,15.11-5.13.41-.13,1.04.42,2.19.93Z"/>
      <path class="cls-1" d="M187.5,136.98c-5.79,1.58-11.81,3.34-17.9,4.81-1.34.32-2.94-.4-4.41-.64,0-.22.02-.44.03-.66.22-.15.47-.47.67-.44,5.53.71,10.61-1.15,15.76-2.67,1.88-.56,3.85-.81,5.78-1.19.07-.01.15.01.22.02-.01.06-.02.12-.15.77Z"/>
      <path class="cls-1" d="M43.89,34.72c-3.73-1.39-5.03-4.56-5.84-8.14-.57-2.52-1.23-5.03-1.81-7.37,1.11.21,3.13,3.1,3.58,5.2.52,2.44,1.18,4.86,2.02,7.21.4,1.13,1.35,2.07,2.04,3.1Z"/>
      <path class="cls-1" d="M58.92,58.75c6.49,1.66,12.96,3.39,18.27,7.58-.09.2-.19.41-.28.61-6-2.73-11.99-5.46-17.99-8.19Z"/>
      <path class="cls-1" d="M138.71,109.3c-3.01-3.7-6.03-7.4-9.04-11.1.21-.28.42-.56.63-.83.63.27,1.5.37,1.85.85,2.53,3.44,4.95,6.95,7.41,10.44-.28.21-.57.43-.85.64Z"/>
      <path class="cls-1" d="M79.95,152.86c-.37-.42-1.05-.83-1.06-1.25-.03-3-.43-5.89-1.8-8.61-.12-.24.27-.74.42-1.13-.01,0-.06-.04-.07-.05,1.2,1.49,2.69,2.84,3.56,4.52,1.14,2.22.76,4.53-.99,6.46-.02,0-.04.03-.06.06Z"/>
      <path class="cls-1" d="M184.56,67.74c-6.06,2.5-12.48,3.35-19.01,3.68,6.25-1.58,12.51-3.16,18.76-4.75.08.36.17.71.25,1.07Z"/>
      <path class="cls-1" d="M142.6,82.07c.58.78,1.17,1.56,1.77,2.36,2.2-.51,4.47-1.04,6.74-1.56.05.19.09.38.14.56-3.06,1.13-6.11,2.26-9.3,3.43.07-.49.23-1.2.25-1.91.02-.72-.1-1.45-.17-2.17-.79.08-1.59.11-2.37.27-.39.08-.74.4-1.62.32.25-.64.33-1.51.79-1.87.5-.38,1.39-.45,2.06-.34.63.11,1.2.62,1.79.96,0,0-.07-.06-.07-.06Z"/>
      <path class="cls-1" d="M201.53,138.05c-.62-.41-1.24-.81-1.98-1.3,1.83-3.78-1.27-5.47-3.4-7.46-1.19-1.11-2.78-1.79-4.2-2.65-.01,0-.06.03-.07.04,1.37.56,2.92.87,4.08,1.71,1.94,1.42,3.78,3.06,5.39,4.85,1.25,1.38,1.47,3.14.11,4.76,0,0,.07.04.07.04Z"/>
      <path class="cls-1" d="M153.01,83.12h17.12c-5.64,1.58-11.35,1.36-17.08.8-.01-.27-.02-.53-.03-.8Z"/>
      <path class="cls-1" d="M100.98,66.82c-.23-1.1-.66-1.93-.41-2.39.21-.38,1.36-.64,1.83-.41,1.01.49,1.84,1.34,2.74,2.04l-.34.52c-.43-.17-.87-.33-1.64-.63-.32,1.81-.63,3.56-.94,5.31-1.77-1.42-2.15-3.84-1.24-4.45Z"/>
      <path class="cls-1" d="M108.73,48.47c-.67-.37-1.64-.56-1.97-1.13-1.86-3.17-4.72-4.78-8.11-5.77-1.33-.39-2.55-1.12-3.66-2.05,3.46.61,6.7,1.75,9.29,4.22,1.57,1.49,2.97,3.15,4.44,4.74h0Z"/>
      <path class="cls-1" d="M141.23,71.97c-.13-.55-.25-1.1-.53-2.32-1.2,1.72-2.1,3.01-3.02,4.34-.9-2.27-.67-5.2.67-5.46,1.07-.2,2.45.61,3.5,1.27.38.24.19,1.38.26,2.1-.29.02-.58.04-.87.06Z"/>
      <path class="cls-1" d="M139.11,65.05c-.2-1.36-.36-2.43-.63-4.21-1.14,1.3-1.91,2.19-2.79,3.2-.97-1.69-.65-3.33.45-4.7.27-.33,1.69-.11,2.32.29,1.73,1.09,1.91,2.78.65,5.42Z"/>
      <path class="cls-1" d="M93.5,114.25c-1.96,4.11-4.56,7.78-8.05,10.84,2.45-3.77,4.9-7.54,7.35-11.32.23.16.46.32.69.48Z"/>
      <path class="cls-1" d="M79.95,152.86s.03-.06.06-.06c1.26-.66,1.79-.29,1.81,1.14.01.93.26,1.87.37,2.56.51.62,1.1,1.08,1.27,1.66.07.25-.95,1.16-1.13,1.07-.57-.28-1.1-.82-1.44-1.39-.54-.91-1.06-1.88-1.3-2.89-.15-.63.22-1.39.36-2.09Z"/>
      <path class="cls-1" d="M125.48,54.03c2.14-2.69,3.92-3.3,6.51-2.34-1.19,2.58-4.47,3.83-6.51,2.34Z"/>
      <path class="cls-1" d="M133.06,78.11c.32-.8.64-1.59.96-2.39,1.43.69,3.32,1.04,4.15,2.17.82,1.11-.26,2.45-1.94,3,.09-1.27.17-2.35.3-4-1.18.59-1.95.97-2.72,1.35-.25-.05-.5-.09-.75-.14Z"/>
      <path class="cls-1" d="M119.94,60.08c-.69-.91-1.14-1.5-1.95-2.58-.39.92-.72,1.68-1.19,2.78-.6-.9-.81-1.07-.82-1.26-.08-1.22-.11-2.45-.16-3.67.56.06,1.25-.06,1.65.23,1.35.99,3.03,1.85,2.47,4.49Z"/>
      <path class="cls-1" d="M54.01,72.47c-2.14-1.11-4.35-2.11-6.4-3.36-1.99-1.21-3.82-2.67-5.57-4.26,4.26,2.1,8.2,4.7,11.92,7.67,0,0,.05-.05.05-.05Z"/>
      <path class="cls-1" d="M125.05,61.06c-1.38,1.29-2.76,2.58-4.03,3.77-.87-1.39-.31-4.35,1.68-5.35,1.48-.74,2.2.17,2.25,1.68,0,0,.11-.1.11-.1Z"/>
      <path class="cls-1" d="M135.1,88.6c.61-.49,1.54-1.53,1.79-1.38,1.47.84,2.88,1.85,4.03,3.06.2.21-.93,1.67-1.5,2.66-.47-.44-.63-.52-.64-.61-.03-1.14-.04-2.28-.06-3.43-1.08.1-2.16.19-3.24.29l-.4-.59Z"/>
      <path class="cls-1" d="M99.23,123.09c1.4-2.85,2.79-5.7,4.19-8.56.28.14.55.28.83.42-1.47,2.82-2.93,5.63-4.4,8.45-.21-.11-.41-.21-.62-.32Z"/>
      <path class="cls-1" d="M125.33,92.12c.36-.79.83-2.28,1.07-2.24,1.48.22,2.98.63,4.3,1.31.56.28.7,1.38,1.1,2.25-1.61-1.24-2.84-2.18-4.15-3.19-.79.95-1.26,1.52-1.72,2.08-.2-.07-.4-.14-.6-.22Z"/>
      <path class="cls-1" d="M198.73,77.26c-1.49,2.87-4.18,3.64-7,4.21,2.33-1.4,4.67-2.8,7-4.21Z"/>
      <path class="cls-1" d="M71.26,67.9c2.38,1.12,4.75,2.25,7.13,3.37-.11.24-.22.48-.33.72-2.37-1.15-4.74-2.29-7.11-3.44.1-.22.21-.44.31-.66Z"/>
      <path class="cls-1" d="M125.05,61.06s-.11.1-.11.1c.54.21,1.57.48,1.56.63-.12,1.15-.45,2.28-.72,3.42-.38-.06-.76-.12-1.13-.19.13-1.32.27-2.64.4-3.97Z"/>
      <path class="cls-1" d="M95.98,107.54c1.11-1.81,2.23-3.62,3.34-5.43.18.1.36.21.54.31-1,1.87-1.99,3.73-2.99,5.6-.3-.16-.59-.32-.89-.48Z"/>
      <path class="cls-1" d="M97.79,64.65c-1.96-2.31-3.92-4.62-5.89-6.93.09-.08.18-.16.27-.24,2.01,2.29,4.02,4.57,6.02,6.86-.14.1-.27.21-.41.31Z"/>
      <path class="cls-1" d="M156.41,138.04c2.05.66,4.09,1.31,6.14,1.97-.12.34-.25.69-.37,1.03-1.95-.84-3.9-1.69-5.84-2.53l.08-.47Z"/>
      <path class="cls-1" d="M31.44,15.96c2.7,1,2.84,1.57,1.17,4.39-.43-1.61-.75-2.83-1.17-4.39Z"/>
      <path class="cls-1" d="M95.85,280.23c.31.09.74.35.92.24.73-.48,1.38-1.07,2.06-1.62-.76,1.91-2.29,2.88-4.01,3.61-.17-.16-.34-.32-.51-.47.52-.59,1.03-1.17,1.55-1.76Z"/>
      <path class="cls-1" d="M108.72,48.47c.46,1.34.95,2.68,1.37,4.03.24.77.39,1.57.16,2.51-.73-1.66-1.53-3.29-2.13-4.99-.14-.4.38-1.03.6-1.55,0,0,0,0,0,0Z"/>
      <path class="cls-1" d="M144.67,140.02c-.95-.79-1.91-1.57-2.91-2.4,1.63-.62,1.94-.41,2.91,2.4Z"/>
      <path class="cls-1" d="M102.53,57.79c-1.37-2.05-2.73-4.09-4.1-6.14.07-.05.13-.09.2-.14,1.43,2.01,2.85,4.02,4.28,6.03-.13.08-.26.17-.38.25Z"/>
    </g>
  </g>
</svg>