<?xml version="1.0" encoding="UTF-8"?>
<svg id="Layer_1" xmlns="http://www.w3.org/2000/svg" viewBox="0 0 395.83 159.43">
  <defs>
    <style>
      .cls-1 {
        fill: #a61e2f;
      }
    </style>
  </defs>
  <g id="VyJWr6">
    <g>
      <path class="cls-1" d="M119.24,56.32h-5.91c0-.17-.02-.33-.03-.5.6-.04,1.21-.13,1.81-.13,2.83,0,5.61-.04,8.39-.85,1.68-.49,3.57-.37,5.35-.32,2.21.07,3.02,1.75,3.44,3.59.27,1.18.79,1.54,2.04,1.74,7.45,1.19,14.94.14,22.39.5,1.51.07,3.03.11,4.54.49-7.45.7-14.9.78-22.79.52,1.54,1.48,2.16,3.17,4.63,3.08,6.27-.22,12.55-.07,18.82-.03.89,0,1.78.19,2.67.29,0,.18-.02.35-.02.53h-22.62v5.97h21.33c.02.13.05.27.07.4-.33.11-.67.3-1,.31-5.39.02-10.79.02-16.18.03-1.39,0-2.78-.07-4.16.06-.51.05-.98.57-1.47.88.06.19.11.37.17.56,6.45.08,12.9.17,19.35.25,0,.26,0,.51.01.77-2.1.12-4.21.35-6.31.34-12.75-.04-25.51-.12-38.26-.2-2.78-.02-5.55-.05-8.33-.1-.54,0-1.08-.09-1.62-.14l-.02-.4c.56-.09,1.12-.26,1.69-.26,9.97-.06,19.94-.08,29.91-.18.7,0,1.42-.52,2.06-.91.13-.08-.07-.7-.14-1.15,1.84-.64,2.64-4.15,1.12-5.84-1.8-2.01-3.93-2.94-6.61-2.39-1.04.22-1.58-.19-1.78-1.16-.15-.7-.34-1.41-.34-2.12,0-1.73-.29-2.18-2.03-2.34-4.08-.38-7.82.27-10.54,3.73-.35.44-.62.95-.91,1.41-3.81-3.43-9.09-2.2-13.12.26-.91.56-1.64,1.4-2.51,2.05-.63.48-1.35,1.21-2.15.33-.72-.8-.86-1.75-.13-2.67.93-1.17,1.88-2.32,2.82-3.47.18.08.36.16.55.25-.38-.36-.75-.72-1.31-1.25-.12.82-.21,1.42-.31,2.01-.16.06-.32.12-.48.18.57-2.71-1.3-3.98-2.78-5.49-.18-.18-.38-.37-.48-.6-2.12-4.44-6.06-4.87-10.21-4.4-2.38.27-4.72.99-7.06,1.59-2.19.56-3.97,1.84-5.67,3.32-.48.42-1.67.7-2.07.41-.86-.63-.94-1.82-.11-2.58,1.49-1.37,3.03-2.75,4.76-3.78,1.29-.77,2.96-.86,4.36-1.5,4.7-2.14,9.66-1.67,14.57-1.59,1.51.02,2.25-.35,2.83-1.81,2.32-5.85,7.66-9.65,13.36-9.49,1.35.04,2.66.85,4.01,1.21.62.16,1.37.3,1.93.1,1.54-.57,2.98-1.39,4.5-2.01,3.56-1.44,7.01-1.13,10.39.71.75.41,1.71.6,2.58.6,7.2.02,14.4-.08,21.6-.06,5.9.02,11.81.16,17.71.26.3,0,.6.04.9.28-13.44.6-26.89.82-40.52.5,1.17,1.45,2.22,2.81,3.37,4.09.24.27.83.3,1.26.3,10.48.05,20.96.07,31.44.11.04,0,.09.05.15.52-7.18.14-14.35.29-21.53.43-.01.19-.03.38-.04.57,1.08.42,2.17.79,3.22,1.27.83.38,1.77.74,2.37,1.37.92.97,1.93,1.17,3.17,1.16,5.14-.04,10.29-.03,15.43,0,.95,0,1.89.19,2.84.29l-.02.5h-19.39c.06,2.55.36,2.71,2.49,2.68,5.02-.08,10.05-.03,15.07-.03v.62h-16.79c.08,1.26.13,2.15.18,3.05h15.82c0,.2,0,.41,0,.61h-12.54c-.03.2-.05.39-.08.59,2.15.6,3.77,2.32,6.31,2.19,3.05-.16,6.12.08,9.18.14v.66h-10.21c1.24,3.05,1.3,3.1,4,3.11,1.8,0,3.6,0,5.4.01.48,0,.96.07,1.44.1,0,.15,0,.31,0,.46h-8.34c-.14,2.25-.28,4.21-.37,6.17-.01.32.11.74.33.96,2.26,2.36,2.89,5.39,3.49,8.42.21,1.05.26,2.14.33,3.22.06,1,.03,1.91-1.28,2.28-.47.13-.77.9-1.13,1.39-.35.47-.67.96-1.17,1.32.29-1.57.57-3.15.88-4.72.67-3.42-.59-5.95-3.62-7.55-1.39-.73-1.72-1.93-1.56-3.22.13-1.08.47-2.3,1.13-3.12,1.42-1.78,1.02-3.26-.35-4.85-1.97-2.3-4.28-4.17-7.55-4.31-1.2-.05-1.84-.78-1.99-1.96-.14-1.07-.34-2.13-.42-3.2-.23-3.06-1.82-4.67-4.91-5.02-.33-.04-.6-.45-.92-.64-.33-.19-.67-.42-1.03-.47-3.65-.45-7.06.14-10.01,2.51-.06.05-.19,0-.29,0,1.06-5.03-3.46-10.7-8.94-11.16-3.55-.3-6.97.04-10.09,2.04-1.23.79-2.62,1.6-3.9-.1-.21-.27-.74-.37-1.14-.42-4.76-.57-8.88.65-12,4.45-.56.68-.88,1.55-1.31,2.34.08.19.15.38.23.57h29.28c.01.23.03.46.04.69-.59.07-1.17.19-1.76.19-8.64.05-17.28.08-25.92.11-2.25,0-2.12.19-2.17,2.38-.08,3.7,2.99,4.85,5.01,6.84,1.04,1.03,2.34,1.42,3.93,1.29,1.38-.11,2.87.22,4.22.65,2.16.69,2.28.74,4.03-1.67Z"/>
      <path class="cls-1" d="M227.17,21.74c-2.13,1.29-4.79.04-6.74,1.59.03.24.05.48.08.72h15.38c0,.27,0,.55,0,.82h-16.93c1.66,2.47,3.78,1.99,5.7,2.03,3.73.07,7.47.02,11.21.02l.02.74h-13.6c.78,1.52,1.26,2.64,1.93,3.62.25.36.95.56,1.46.57,2.36.08,4.73.06,7.1.11.74.02,1.47.15,2.21.24,0,.17-.01.35-.02.52-2.64.08-5.28.12-7.91.27-.87.05-2.42-.64-2.29,1.09.11,1.52,1.51.76,2.36.81,2.59.14,5.19.21,7.78.31,0,.18,0,.36,0,.54-1.1.08-2.21.19-3.31.22-1.85.04-3.71-.02-5.55.08-.46.02-1.19.37-1.29.72-.34,1.21-.47,2.49-.74,4.17h8.11c0,.24,0,.48.01.72-1.43.08-2.86.19-4.29.23-1.23.04-2.47-.04-3.7.05-.6.04-1.19.33-1.79.51,0,.21-.02.41-.03.62.81.22,1.6.59,2.42.65,2.15.16,4.31.19,6.46.29.27.01.53.16.8.24,0,.16-.02.32-.02.48h-8.99c-.45,1.61-.02,2.15,1.3,2.17,2.52.02,5.04.12,7.55.21.47.02.94.12,1.42.19,0,.15,0,.3,0,.45-.56.08-1.11.22-1.67.23-2.62.05-5.25.02-7.87.13-.59.02-1.16.49-1.73.76.62.65,1.17,1.74,1.89,1.86,1.91.33,3.89.24,5.84.34.43.02.85.13,1.28.19,0,.14.02.28.03.41-.66.11-1.31.3-1.97.33-1.64.07-3.29.05-4.94.1-1.22.04-2.05.37-2.36,1.85-.21.97-1.21,1.77-2.12,3.02h8.01c.01.21.02.41.04.62-.5.09-1,.25-1.5.26-1.9.03-3.81-.02-5.71.04-.51.02-1.17.2-1.48.56-1.04,1.18-1.95,2.48-3.2,4.1h54.89c0,.2,0,.39.01.59-1.29.09-2.59.27-3.88.27-19.08.03-38.16.04-57.25.05-2.06,0-4.11.01-6.17-.04-1.06-.03-1.68.32-1.68,1.64,18.07-.09,36.13-.32,54.17.02.01.23.02.47.03.7-.51.07-1.02.2-1.52.2-16.87,0-33.74.05-50.61-.07-2.03-.01-3.53.2-4.6,2.08-.28.49-1.15.63-1.75.93-.2-.65-.72-1.43-.52-1.93.48-1.19,1.29-2.24,2.19-3.72-.75-.23-1.55-.66-2.38-.71-2.21-.11-4.42-.03-6.63-.09-.81-.02-1.62-.24-2.43-.37,0-.17.02-.33.02-.5.37-.08.73-.24,1.1-.24,3.14-.03,6.27-.06,9.41,0,.5,0,1,.45,1.5.96,1.13-.31,1.66-1.39,1.97-2.56,1.06-4.01-.55-7.78-4.15-9.9-1.73-1.02-1.85-3.02-.25-4.23,3.04-2.29,3.37-3.73,1.86-7.28-1.11-2.62-2.87-4.61-5.34-5.97-.61-.34-1.35-.67-2.01-.64-1.21.06-1.35-.56-1.4-1.5-.07-1.38.09-2.87-.39-4.1-1-2.57-3.28-4.01-5.62-5.25-6.53-3.46-14.98.62-18.32,5.41-.26.37-.31.87-.46,1.31-.13-.03-.25-.05-.38-.08.19-.78.23-1.63.59-2.32,3.62-6.86,14.62-11.63,22.56-3.91.89.86,1.8,1.17,3.01,1.17,3.8.02,7.6.15,11.41.26.6.02,1.19.18,1.78.27,0,.2-.01.39-.02.59h-13.89c0,.27,0,.54,0,.81,4.59.11,9.18.22,13.77.32,0,.23,0,.45,0,.68-4.34.17-8.68.33-13.03.5-.42,1.45.25,1.71,1.48,1.72,4.82.03,9.64.14,14.46.21,0,.21.02.41.02.62-4.57.18-9.13.35-13.7.53,0,.14,0,.28-.01.43,5.37.15,10.74.3,16.11.45v.66h-13.49c.8,2.1,1.85,2.79,3.54,2.81,3.59.04,7.19.15,10.78.25.45.01.89.14,1.34.21v.53h-12.77c.15,1.87.71,2.61,2.33,2.58,3.03-.06,6.07.06,9.1.12.66.01,1.31.12,1.98.5-.87.1-1.73.27-2.6.29-2.62.08-5.24.11-7.86.13-.88,0-1.75,0-1.52,1.27.2,1.07-.48,2.67,1.63,2.62,2.36-.06,4.72-.02,7.08,0,.53,0,1.05.1,1.58.15,0,.17,0,.34,0,.5-2.57.07-5.14.27-7.7.19-2.69-.09-2.79-.09-2.52,3.04h10.07l.05.63c-1.06.13-2.11.34-3.17.37-2.21.06-4.42,0-6.63.07-.59.02-1.17.34-1.75.53.04.26.08.52.12.79h11.7c0,.25,0,.49,0,.74h-10.56c.61,1.93,1.48,2.78,3.32,2.66,2.29-.15,4.6-.04,6.9-.04,0,.24.02.49.02.73-2.15.11-4.3.33-6.44.29-1.41-.03-1.84.23-1.7,1.79.21,2.34.08,4.72-.03,7.08-.04.88.15,1.23,1.05,1.23,3.28-.02,6.56,0,9.74,0,.15-.33.25-.44.22-.51-.8-2.26-.77-2.21,1.15-3.66,2.73-2.06,3.89-4.97,4.15-8.27.11-1.35-.41-2.21-2.02-2.24-1.6-.03-3.74-3.15-3.3-4.69.12-.43.56-.86.97-1.11.82-.52,1.71-.94,2.59-1.36,2.53-1.21,3.51-3.45,3.37-6.26-.12-2.44-.72-4.49-3.05-5.35-1.67-.61-3.59-.88-5.36-.76-1.27.09-1.82-.18-2.17-1.24-.16-.49-.39-.99-.38-1.48.14-4.44-2.92-6.29-6.33-7.73-5-2.12-9.77-.79-14.47,1.2-.49.21-1.07.19-1.61.27.19-.67.18-1.69.62-1.95,7.12-4.24,15.05-4.92,21.52,1.75,1.37,1.41,2.61,2.11,4.61,2.07,4-.09,8.01.14,12.02.26.44.01.88.17,1.33.26Z"/>
      <path class="cls-1" d="M143.24,113.84c-.08,1.35.43,1.62,1.4,1.6,3.49-.06,6.99-.1,10.48-.06,1.88.02,3.76.23,5.65.35,0,.14,0,.27.01.41-1.98.12-3.96.34-5.94.35-3.19.02-6.37-.12-9.56-.15-.46,0-.92.26-1.38.4.31.41.54,1,.95,1.18,1.56.7,3.18,1.27,4.88,1.93-.33.21-.68.42-.79.49.77,2.05,1.46,4.05,2.32,5.99.17.38.95.65,1.47.67,2.92.15,5.85.19,8.78.31.52.02,1.03.2,1.55.31.01.17.03.35.04.52-.58.13-1.15.36-1.73.37-2.83.07-5.66.09-8.48.12-1.74.02-1.94.27-1.79,2.22,3.57-.15,7.16-.38,10.81.14-.29.74-.45,1.15-.7,1.81-4,1.37-8.79-1-13.32,1.67.24-1,.4-1.77.61-2.52.15-.54.39-1.06.54-1.59.32-1.11.2-1.94-1.27-1.93-.35,0-.71-.28-1.24-.51.37-.27.55-.43.75-.54.5-.27,1.46-.6,1.43-.77-.15-.92-.36-1.95-.92-2.63-.51-.61-1.49-.86-2.28-1.2-1.63-.7-3.54-1.06-4.85-2.15-.92-.77-1.04-2.5-1.43-3.83-.02-.08.68-.48,1.08-.55,1.06-.18,1.13-.76.73-1.55-2.14-4.25-6.96-6.42-11.74-5.4-.87.18-2.41.23-2.63-.18-.57-1.11-1.03-2.61-.75-3.77.81-3.35,0-5.09-3.47-5.62-2.16-.33-4.4-.34-6.6-.22-1.56.08-2.25-.5-2.27-1.92-.01-.95.27-1.9.31-2.85.05-.91.24-1.97-.12-2.73-1.43-3-4.7-4.22-8.36-3.82-5.03.55-8.87,2.74-11.17,7.27-1.71-.75-3.25-1.48-4.83-2.07-.85-.32-1.8-.62-2.68-.56-4.09.27-7.8,1.59-11.06,4.18-1.83,1.45-2.53,3.3-2.56,5.51-.02,1.23-.37,1.77-1.76,1.51-3.72-.71-7.39,2.64-9.03,5.56-1.29,2.29-1.72,4.71-.58,7.39-.68.07-1.06.14-1.45.14-3.04.02-5.37,1.25-6.79,3.99-.97,1.87-1.86,3.78-2.84,5.64-.28.52-.76.94-1.15,1.4-.6-.64-1.4-1.19-1.73-1.95-.24-.56-.06-1.48.25-2.08,1.14-2.24,2.24-4.53,3.67-6.58,1.59-2.29,4.19-2.8,6.89-2.97.06-.26.2-.53.14-.73-1.3-4.81,2.69-9.61,6.38-11.61,1.19-.65,2.75-.68,4.15-.84.86-.09,1.22-.28,1.34-1.23.65-5.01,3.59-8.18,8.42-9.47,3.51-.94,6.98-1.8,10.61-.65.24.08.62-.02.84-.17,2.39-1.61,4.76-3.25,7.12-4.87-20.93.34-42.03.63-63.12-.16,0-.16-.01-.32-.02-.48,2.09-.13,4.17-.37,6.26-.38,14.45-.07,28.89-.11,43.34-.1,5.19,0,10.38.16,15.56.26,2.35.04,4.71.13,7.06.14,4.39,0,6.86,2.55,8.37,6.33.4,1,.76,2.05.87,3.11.15,1.5.91,1.76,2.25,1.77,1.68,0,3.39.15,5.02.54,2.56.61,3.85,2.57,4.5,5,.14.54.26,1.12.26,1.67,0,1.2.56,1.58,1.72,1.56,3.32-.04,6.17,1.36,8.94,3.01.42.25.92.49,1.39.49,10.22.07,20.45.09,30.67.16,2.4.01,4.79.14,7.19.55-12.42.69-24.84,1.01-37.29.87.85,2.72,1.63,3.18,4.49,3.17,8.12-.04,16.25-.07,24.37,0,6.32.05,12.64.22,18.96.35.34,0,.67.1,1.07.52-.64.12-1.27.35-1.91.35-13.62.11-27.25.19-40.87.27-1.11,0-2.22-.11-3.42-.17Z"/>
      <path class="cls-1" d="M336.12,107.24c.35,2.25.61,2.32,2.65,2.29,6.32-.09,12.65-.06,18.97-.04.44,0,.88.29,1.28.77-7.22.59-14.42.31-21.6.44,0,.2-.02.4-.03.59.37.04.78.2,1.11.11,3.56-.97,6.78.13,10.02,1.45,1.23.5,2.65.75,3.98.76,5.6.04,11.21-.07,16.81-.08.53,0,1.06.33,1.53.82-6.3.97-12.58.16-18.87.51.87,2.54,2.43,3.6,4.79,3.61,4.83.02,9.66.13,14.49.25.5.01.98.3,1.43.77-5.55,1.13-11.13.5-16.86.8.27,1.11.5,2.07.67,2.78-1.51-1.82-3.01-3.85-4.74-5.67-1.59-1.67-3.61-2.64-6.01-2.79-.97-.06-1.92-.77-2.88-.77-1.52,0-3.06.23-4.55.57-1.22.27-1.69-.1-1.88-1.27-1.01-6.2-5.17-9.69-11.51-9.53-2.2.05-4.41.34-6.59.66-1.19.18-1.7-.25-2.02-1.31-1.4-4.62-5.38-6.79-9.84-6.04-3.67.61-7.03,1.64-9.34,4.46-1.47,1.79-2.76,2.1-4.87,1.74-2.17-.37-4.28.33-5.89,2.04-1.09,1.15-2.28,2.22-3.31,3.42-.94,1.1-1.18,2.37-.35,3.71.66,1.06.26,1.43-.9,1.74-3.87,1.01-7.09,3.25-8.63,6.87-.98,2.32-.7,5.17-.97,7.72-.93-.27-2.14-2.28-2.3-4.19-.4-4.84,1.49-8.49,5.64-10.96,1.41-.84,2.85-1.63,4.34-2.32.68-.32,1-.62.75-1.38-.61-1.9.13-3.46,1.37-4.79,3.04-3.26,6.38-5.88,11.31-4.89.4.08,1.05-.34,1.37-.71,2.44-2.85,5.42-4.7,9.19-5.11,1.98-.21,4.02-.58,5.95-.3,3.32.48,5.09,3.1,6.48,5.87.55,1.09,1.15,1.32,2.28,1.21,3.16-.3,6.33-.88,9.47.11.44.14.97.12,1.33.36,3.33,2.17,7.05,1.37,10.64,1.39,10.41.05,20.82.02,31.23.05.57,0,1.14.18,1.71.27,0,.19.01.38.02.57-.86.12-1.71.36-2.57.36-11,.02-22.01,0-33.01-.02-1.07,0-2.13-.09-3.36-.15.39,1.49,1.12,2.1,2.53,2.08,8.06-.09,16.12-.14,24.19-.19,1.08,0,2.16.07,3.23.17.34.03.67.24.98.7-4.77.67-9.53.46-14.27.49-4.82.03-9.64,0-14.56,0Z"/>
      <path class="cls-1" d="M272.76,95.44c.47.64.81,1.12,1.16,1.6-.04.05-.08.1-.13.15-.6-.38-1.2-1.08-1.79-1.06-.65.01-1.29.68-2.09,1.16-.38-2.28-2.24-2.16-3.82-2.66-3.88-1.22-7.55-.21-11.11,1.07-1.13.41-1.92,1.79-2.99,2.85-1.9-3.23-5.28-4.26-9.07-5-4.27-.83-7,1.51-10.04,3.95-.42-.69-.91-1.19-1.06-1.79-.38-1.5-1.35-2.48-2.53-3.37-1.8-1.37-3.45-2.97-5.35-4.17-3.82-2.4-8.01-1.81-12.14-1.03-1.97.37-3.89.97-5.84,1.41-.49.11-1.02.02-1.94.02,1.13-1.04,1.94-1.79,2.96-2.72-1.51-.2-2.73-.36-3.96-.52,0-.13.01-.27.02-.4,6.01.51,11.85-1.7,17.99-.43,3.51.73,7.27.2,10.92.21,15.33.04,30.65.08,45.98.12.6,0,1.19.09,1.79.42-4.52.52-9.05.43-13.58.47-4.63.04-9.26.02-13.89.02-4.63,0-9.26,0-13.89,0-4.62,0-9.25,0-13.87,0,1.53,1.06,2.51,2.58,4.84,2.54,11.31-.2,22.63-.09,33.94-.09,3.93,0,7.86,0,11.8,0,0,.29,0,.57,0,.86h-33.69c0,.16,0,.33,0,.49,1.32.15,2.65.39,3.97.41,1.38.03,2.77-.29,4.14-.22,6.9.31,13.8.69,21.08,1.07-.56.45-.77.61-1.34,1.06.79.15,1.54.47,1.68.3,1.53-1.87,3.77-1.74,5.78-2.06,3.66-.58,6.7,1.17,9.63,3.02.39.25.5.96.6,1.69-4.8-.86-9.46-1.38-14.17.64Z"/>
      <path class="cls-1" d="M240.35,43.31c1.68,1.06,3.11,1.99,4.57,2.88,4.26,2.57,8.92,2.95,13.69,2.3,2.15-.29,4.29-.84,6.37-1.49,2.24-.7,3.67-2.36,4.53-4.52.11-.28.27-.55.45-.8.07-.1.25-.13.84-.41-.54,1.96-.98,3.58-1.53,5.58h58.62c0,.27,0,.53,0,.8-20,.14-39.99.29-59.99.43,0,.2,0,.4,0,.6h66.81c0,.23,0,.46,0,.69-3.68.08-7.37.21-11.05.23-14.14.08-28.28.15-42.41.18-4.52,0-9.04-.19-13.56-.14-1.18.01-2.36.58-3.54.89.03.21.07.42.1.63h81.41c0,.2,0,.4,0,.61-1.91,0-3.83,0-5.74,0-8.02.05-16.04.14-24.05.14-10.13,0-20.25-.06-30.38-.1-8.02-.03-16.04-.11-24.06-.1-1.95,0-3.89.37-5.84.41-5.09.11-9.56-1.55-13.16-4.8-1.29,2.93-2.5,5.93-3.92,8.84-1.58,3.24-4.28,4.8-7.89,4.49-1-.08-1.95-.62-2.97-1.31,3.36-1.64,6.96-2.79,8.9-6.07,1.8-3.05,4.12-5.95,3.79-9.96Z"/>
      <path class="cls-1" d="M121.91,112.95c-.86-.19-1.69-.37-2.52-.55-.03.12-.05.23-.08.35-.09-.06-.19-.09-.25-.17-3.63-4.32-8.32-4.54-13.22-3.14-3.08.88-6.02,2.24-9.25,3.47-.4-.54-.95-1.53-1.71-2.3-3.63-3.7-10.49-3.19-13.98,1.07-.75.91-1.38,1.3-2.67,1.17-3.49-.37-6.46.58-8.48,3.8-.77,1.22-1.48,2.77-3.43,2.72-.29,0-.61.75-.91,1.15-.63.83-1.27,1.65-2.09,2.37-.93-3.26-.03-6.15,2-8.46,1.95-2.23,4.4-4.02,6.49-5.89-.41-.07-1.22-.2-2.04-.33,3.53-1.38,7.47.12,10.88-1.63,0-.24-.02-.48-.03-.72h-9.11c-.02-.23-.03-.47-.05-.7.5-.1.99-.27,1.49-.29,1.85-.06,3.7-.01,5.55-.1,2.97-.14,5.93-.46,8.9-.52,1.83-.04,3.76-.05,5.48.46,1.63.48,3.05,1.66,4.37,2.42.87-.34,1.75-.85,2.69-1.01,2.52-.43,5.06-.92,7.61-1.01,5.04-.17,8.92,2.33,12.26,5.86.64.68,1.37,1.28,2.11,1.97Z"/>
      <path class="cls-1" d="M351.52,54.61c-3.11,1.06-107.09,1.09-110.17-.11,1.11-.1,2.23-.28,3.34-.28,30.74-.1,61.47-.21,92.21-.25,4.56,0,9.13.31,13.69.48.2,0,.39.07.92.17Z"/>
      <path class="cls-1" d="M79.65,47.08c-.62-.54-1.36-.99-1.85-1.63-1.54-2-2.41-4.26-2.63-6.8-.26-2.9,1.59-4.78,3.14-6.8,1.75-2.28,4-3.65,6.94-3.73,2.96-.08,5.97-.64,8.79.92,1.96-3.54,5.21-4.15,8.72-4.1,3.13.04,6.13.69,8.88,2.25,1.46.83,2.21,2.05,2.12,3.96-2.85-1.85-5.82-2.79-9.05-3.03-2.43-.17-4.7.16-6.85,1.32-1.13.61-2.11,1.3-2.02,2.74-.17.06-.3.16-.35.13-2.54-1.47-5.34-1.17-8.11-1.26-4.99-.16-8.46,3.57-10.6,7.54-1.13,2.09,0,5.31,2.03,7.11.37.33.77.64,1.15.96-.1.14-.2.29-.3.43Z"/>
      <path class="cls-1" d="M81.36,64.15h-13.41c-.02-.11-.05-.22-.07-.33.39-.24.78-.47,1.29-.78-2.97-2.01-6.22-2.62-9.56-2.93-3.84-.36-7.5.57-10.99,1.97-1.39.55-2.43,1.99-3.6,3.05-1.09.99-1.51.93-2.09-.45-.6-1.43-.57-2.63.7-3.88,5.19-5.1,11.42-4.99,17.84-3.64,3.65.77,6.77,2.63,9.06,5.72.26.35.98.46,1.5.47,2.62.06,5.25.03,7.87.07.51,0,1.01.14,1.52.22l-.04.5Z"/>
      <path class="cls-1" d="M141.49,131.94c-26.66.72-53.35.99-80.03.02,4.03-1.13,76.05-1.29,80.03-.02Z"/>
      <path class="cls-1" d="M347.87,120.59c-2.09.85-68.66.73-71.3-.31,1-.16,1.6-.34,2.2-.35,18.61-.11,37.22-.21,55.83-.29,3.5-.02,6.99,0,10.49.07.96.02,1.92.23,2.88.36-.03.18-.07.35-.1.53Z"/>
      <path class="cls-1" d="M348.97,124.32c-3,1.3-72.33,1.14-73.83-.1,24.61-.38,49.23-.43,73.83.1Z"/>
      <path class="cls-1" d="M67.75,127.76c23.48-.68,46.95-.53,70.83-.05-2.81,1.41-67.67,1.43-70.83.05Z"/>
      <path class="cls-1" d="M40.91,81.25c20.92-.79,41.84-.48,63.2,0-2.51,1.39-61.34,1.4-63.2,0Z"/>
      <path class="cls-1" d="M271.02,77.59c-26.29.59-52.58.28-78.86-.32,26.29-.74,52.57-.53,78.86-.49,0,.27,0,.54,0,.81Z"/>
      <path class="cls-1" d="M348.29,129.75c-22.31.28-44.62.24-66.92,0-.02-.23-.04-.47-.05-.7.54-.08,1.07-.23,1.61-.23,12.65-.1,25.3-.21,37.94-.26,7.46-.03,14.91.03,22.37.1,1.7.01,3.4.2,5.1.31-.01.26-.03.52-.04.77Z"/>
      <path class="cls-1" d="M286.95,133.51c2.19-1.26,60.56-1.16,61.9.03-20.63.87-41.27.33-61.9-.03Z"/>
      <path class="cls-1" d="M191.18,80.33h87.05c0,.18,0,.37,0,.55-29.03.43-58.06.46-87.09.09.01-.21.03-.43.04-.64Z"/>
      <path class="cls-1" d="M129.37,125.13c-19.31.4-38.61.66-57.92.04,0-.23-.02-.46-.03-.7,1.6-.14,3.2-.41,4.8-.41,12.38-.04,24.76-.05,37.13-.02,4.77.01,9.53.15,14.3.25.59.01,1.17.18,1.76.28-.02.19-.03.37-.05.56Z"/>
      <path class="cls-1" d="M189.4,32.04c-1.19.14-2.39.4-3.58.4-6.26,0-12.57.35-18.78-.24-7.05-.68-14.05.02-21.07-.17-5.96-.17-11.92-.02-17.88-.03-.78,0-1.55-.16-2.33-.25-.01-.18-.02-.36-.03-.53.66-.13,1.31-.36,1.97-.36,6.99.01,13.97.03,20.96.11,5.74.07,11.48.31,17.23.33,6.47.02,12.94-.15,19.41-.18,1.36,0,2.72.22,4.08.33.02.2.04.4.05.6Z"/>
      <path class="cls-1" d="M83.85,119.67c1.2-.16,2.41-.31,3.61-.47-3.65-.37-7.35.08-10.98-.37,0-.16,0-.33-.01-.49.22-.07.44-.2.66-.2,6.01,0,12.11-.59,18.02.18,6.52.85,13,.39,19.48.75,4.65.26,9.31.32,13.96.59-4.45.95-38.34,1.35-44.75.02Z"/>
      <path class="cls-1" d="M200.03,75.56c2.74-.87,57.92-.92,60.94-.14-1.43.91-57.29,1.1-60.94.14Z"/>
      <path class="cls-1" d="M78.88,136.05c19.57-.79,39.15-.73,59-.11-2.59,1.23-53.37,1.32-59,.11Z"/>
      <path class="cls-1" d="M200.58,71.45c21.36-.42,42.72-.27,64.07.42-21.37.81-42.74.51-64.1.5.01-.31.02-.61.03-.92Z"/>
      <path class="cls-1" d="M350.28,138.89c-20.07.45-40.14-.04-60.21-.41,20.07-.76,40.15-.63,60.23-.55,0,.32,0,.65-.01.97Z"/>
      <path class="cls-1" d="M283.78,115.98c17.31-.13,34.62-.35,51.92.03,0,.28,0,.55,0,.83-17.3.46-34.61.33-51.91-.05,0-.27-.01-.54-.02-.81Z"/>
      <path class="cls-1" d="M247.71,58.31h63.15c-4.59,1.11-60.71,1.18-63.15,0Z"/>
      <path class="cls-1" d="M48.84,73.33c15.95-.83,31.9-.26,48.17-.1-1.71,1.28-46.09,1.3-48.17.1Z"/>
      <path class="cls-1" d="M96.79,77.83c-17.28.68-34.58,1-51.88-.03,17.28-.65,34.57-.58,51.88.03Z"/>
      <path class="cls-1" d="M248.97,104.82c-3.74.95-54.68.91-55.92-.11,18.64-.7,37.28-.21,55.92.11Z"/>
      <path class="cls-1" d="M260.95,68.82c-19.81.74-39.61.58-59.41.44,0-.28,0-.57,0-.85,19.81-.08,39.62-.24,59.41.42Z"/>
      <path class="cls-1" d="M255.6,116.69c-2.98.83-51.6.81-53.31.03,1.42-.77,50.18-.84,53.31-.03Z"/>
      <path class="cls-1" d="M195.42,108.12c1.5-.85,51.68-.88,53.49-.03-1.39.7-51.87.73-53.49.03Z"/>
      <path class="cls-1" d="M117.38,80.31c.49-.05.97-.15,1.46-.16,9.4-.09,18.8-.2,28.21-.23.78,0,1.56.47,2.34.72-.76.23-1.52.66-2.27.66-9.41-.04-18.81-.14-28.22-.24-.52,0-1.04-.15-1.56-.23.02-.17.04-.35.05-.52Z"/>
      <path class="cls-1" d="M326.94,112.93c-11.8.75-23.57.35-35.34-.02,1.88-.98,34.16-.99,35.34.02Z"/>
      <path class="cls-1" d="M237.07,102.12h-37.75c0-.22,0-.44,0-.65,12.57-.27,25.14-.37,37.72.04.01.21.02.41.03.62Z"/>
      <path class="cls-1" d="M232.55,112.21c-1.56.92-32.73.84-34.23-.03,11.41-.74,22.82-.57,34.23.03Z"/>
      <path class="cls-1" d="M151.4,83.42c-1.5.99-24.25,1.01-26.57.1,1.25-1.12,24.34-1.27,26.57-.1Z"/>
      <path class="cls-1" d="M151.71,77.44h-41.38c0-.21,0-.41,0-.62,13.78-.16,27.56-.22,41.34,0,.01.2.03.41.04.61Z"/>
      <path class="cls-1" d="M163.27,86.08c-10.32.74-20.64.52-30.95.4,0-.26,0-.51,0-.77,10.32-.4,20.64-.61,30.95.37Z"/>
      <path class="cls-1" d="M59.3,69.39c1.72-.84,29.33-.87,31.57-.03-2.06.76-29.56.79-31.57.03Z"/>
      <path class="cls-1" d="M113.91,101.1c-8.52.52-17.05.81-25.93.2,1.55-1.24,23.1-1.34,25.93-.2Z"/>
      <path class="cls-1" d="M114.03,103.06c-2.4,1.22-22.82,1.11-24.06-.07,8.02-.54,16.04-.4,24.06.07Z"/>
      <path class="cls-1" d="M198.64,131.17c1.8-.91,21.39-.8,22.57.12-1.37.98-21.1.88-22.57-.12Z"/>
      <path class="cls-1" d="M105.91,49.35c9.25-.98,18.49-.32,27.74-.07-9.25.66-18.49.75-27.74.07Z"/>
      <path class="cls-1" d="M106.24,43.6c1.98-.78,18.74-.54,20.19.25-1.79,1.11-19.33.98-20.19-.25Z"/>
      <path class="cls-1" d="M257.08,121.26c-1.95.82-23.2.68-25-.09,1.95-.75,22.92-.73,25,.09Z"/>
      <path class="cls-1" d="M138.43,89.47c-2.4,1.08-18.44,1.03-20.2-.01,6.73-.93,13.47-.45,20.2.01Z"/>
      <path class="cls-1" d="M64.6,66.87c1.7-1,23.29-.93,24.76,0-8.26.39-16.51.38-24.76,0Z"/>
      <path class="cls-1" d="M74.51,116.19c1.37-1.19,18.09-1.14,19.59,0-6.52.49-13.05.37-19.59,0Z"/>
      <path class="cls-1" d="M203.42,98.29h24.99c0,.2,0,.39,0,.59-8.33.25-16.66.26-24.99-.02v-.58Z"/>
      <path class="cls-1" d="M78.85,38.98h19.19c-2.14,1.35-17.77,1.36-19.19,0Z"/>
      <path class="cls-1" d="M42.08,67.83c-.59.07-1.17.18-1.76.19-5.35.05-10.7.09-16.04.13-.21,0-.45.07-.61-.01-.4-.21-.76-.49-1.14-.74.38-.18.77-.51,1.15-.5,4.93.04,9.87.14,14.8.21,1.19.02,2.39,0,3.58,0,0,.24.01.48.02.72Z"/>
      <path class="cls-1" d="M144.39,67.35c6.14-.67,12.27-.67,18.73-.12-1.91.98-15.9,1.1-18.73.12Z"/>
      <path class="cls-1" d="M105.33,138.74c-5.79.54-11.58.43-17.36.22-.04-.22-.07-.44-.11-.66.31-.16.62-.47.93-.47,5.23.04,10.47.12,15.7.21.29,0,.58.14.87.21,0,.16-.01.33-.02.49Z"/>
      <path class="cls-1" d="M110.9,52.94h18.29c0,.2,0,.41,0,.61-6.1.47-12.21.45-18.31-.03,0-.2.01-.39.02-.59Z"/>
      <path class="cls-1" d="M373.3,121.6c-1.87.92-15.15.69-16.09-.22,1.47-.9,14.88-.79,16.09.22Z"/>
      <path class="cls-1" d="M150.28,91.59c-1.27.89-14.37.92-15.71.03.87-1.03,13.97-1.06,15.71-.03Z"/>
      <path class="cls-1" d="M141.08,56.47c5.33-.38,10.66-.35,15.98.39-5.34.7-10.67.94-15.99.36,0-.25,0-.5,0-.75Z"/>
      <path class="cls-1" d="M135.19,27.37h26c0,.15,0,.3,0,.45h-26c0-.15,0-.3,0-.45Z"/>
      <path class="cls-1" d="M78.84,42.13c6.5-.56,13-.33,19.5-.03,0,.19,0,.38,0,.58h-19.46c-.01-.18-.02-.36-.03-.55Z"/>
      <path class="cls-1" d="M262.65,40.25c-2.26,1.42-10.56,1.13-11.77-.51,4.11-.47,7.95-.59,11.77.51Z"/>
      <path class="cls-1" d="M172.3,27.2c1.29-1.08,13.4-.97,15.08.15-5.31.4-10.19.35-15.08-.15Z"/>
      <path class="cls-1" d="M229.56,121.02h-23.45c0-.15,0-.31,0-.46h23.45c0,.15,0,.31,0,.46Z"/>
      <path class="cls-1" d="M199.04,126.08c5.53-.69,11.05-.73,16.58-.01-5.52.98-11.05.5-16.58.01Z"/>
      <path class="cls-1" d="M103.21,143.24c-4.29.05-8.57.11-12.86.12-.3,0-.6-.41-.89-.62.3-.22.6-.61.91-.63,1.58-.08,3.16-.09,4.74-.07,2,.02,4,.07,5.99.16.73.03,1.45.22,2.17.33-.02.23-.04.47-.06.7Z"/>
      <path class="cls-1" d="M167.5,121.88c-4.86.67-9.73.78-14.6-.04,4.86-.82,9.72-.91,14.6.04Z"/>
      <path class="cls-1" d="M316.62,109.58h-17.98c1.53-1.07,16.81-1.06,17.98,0Z"/>
      <path class="cls-1" d="M163.19,132.82c4.49-.69,8.99-.89,13.48,0-4.49.88-8.98.78-13.48,0Z"/>
      <path class="cls-1" d="M160.01,88.73c-1.63.94-11.44.88-12.85,0,1.22-.83,11.07-.89,12.85,0Z"/>
      <path class="cls-1" d="M135.84,139.71c-5.27.46-10.54.5-16.13.22,1.25-1.14,14.29-1.25,16.13-.22Z"/>
      <path class="cls-1" d="M251.66,42.9c2.37-1.03,9.4-.65,10.28.49-1.6,1.11-9.24.81-10.28-.49Z"/>
      <path class="cls-1" d="M209.79,17.58c4.91-.62,9.54-.34,14.41.04-1.4,1.07-13.01,1.06-14.41-.04Z"/>
      <path class="cls-1" d="M147.47,137.21c4.48-.51,8.95-.22,13.42.45-4.48.6-8.96.55-13.44.36,0-.27.01-.54.02-.81Z"/>
      <path class="cls-1" d="M93.94,36.17c-2.05,1.06-11.09.94-12.08-.09,1.41-.8,10.46-.79,12.08.09Z"/>
      <path class="cls-1" d="M192.96,115.42c-4.18.69-8.36.69-12.54-.05,4.18-.84,8.36-.88,12.54.05Z"/>
      <path class="cls-1" d="M223.73,129.03h17.8c-3.01.98-15.92.91-17.8,0Z"/>
      <path class="cls-1" d="M218.51,123.86h15.82c0,.16,0,.32,0,.48h-15.78c-.01-.16-.03-.32-.04-.48Z"/>
      <path class="cls-1" d="M168.81,104.53c-4.28.48-8.57.03-12.85-.3,4.28-.75,8.57-.74,12.86-.53,0,.28,0,.56,0,.83Z"/>
      <path class="cls-1" d="M103.86,116.56h13.63c-1.64,1.1-12.24,1.22-13.63,0Z"/>
      <path class="cls-1" d="M125.08,41.35h-16.27c0-.15,0-.3,0-.45h16.27c0,.15,0,.3,0,.45Z"/>
      <path class="cls-1" d="M106.6,97.62c-1.37.97-10.4.9-11.85-.08,4.13-.6,7.99-.52,11.85.08Z"/>
      <path class="cls-1" d="M193.06,71.83c-1.65.93-9.7.81-10.87-.1,1.25-.89,9.35-.88,10.87.1Z"/>
      <path class="cls-1" d="M92.02,144.04c3.69-.07,7.38-.36,11.06.57-3.7.67-7.39.92-11.07.27,0-.28.01-.56.02-.84Z"/>
      <path class="cls-1" d="M169.35,82.41c-3.69.59-7.39.66-11.29.16,1.3-1.1,8.66-1.26,11.29-.16Z"/>
      <path class="cls-1" d="M35.54,78.86c-3.97.73-7.97.65-11.96.1,3.97-1.09,7.96-.37,11.96-.1Z"/>
      <path class="cls-1" d="M174.52,74.7h15.16c0,.17,0,.34,0,.51-5.06.53-10.12.07-15.19-.08.01-.15.02-.29.03-.44Z"/>
      <path class="cls-1" d="M112.46,84.94c3.36-.83,6.73-.99,10.09-.01-3.36,1.04-6.72.6-10.09.01Z"/>
      <path class="cls-1" d="M144.63,140.91h10.45c0,.17,0,.34,0,.51-3.49.57-6.97.63-10.45.08,0-.2,0-.39,0-.59Z"/>
      <path class="cls-1" d="M133.3,143.62h13.69c0,.16,0,.32,0,.47h-13.67c0-.16-.01-.32-.02-.47Z"/>
      <path class="cls-1" d="M26.52,62.04c3.76-.32,7.1-.24,10.87.14-1.99,1.26-9.44,1.25-10.87-.14Z"/>
      <path class="cls-1" d="M35.53,64.98c-3.15,0-6.29.01-9.44-.02-.22,0-.43-.33-.65-.51.19-.2.38-.57.57-.57,3.18.01,6.36.07,9.54.12,0,.33-.02.65-.03.98Z"/>
      <path class="cls-1" d="M135.33,96.42c3.66-.47,6.91-.34,10.36.08-1.49,1.21-8.4,1.24-10.36-.08Z"/>
      <path class="cls-1" d="M175.04,116.26c-3.35.55-6.68-.06-10.01-.12,0-.25,0-.5,0-.75,3.34-.02,6.69-.49,10.03.11,0,.26-.02.51-.03.77Z"/>
      <path class="cls-1" d="M167.03,128.27h14.79v.45h-14.79c0-.15,0-.3,0-.45Z"/>
      <path class="cls-1" d="M171.08,104.04h10.11c0,.2,0,.4,0,.6-3.4.28-6.79.85-10.19-.11.03-.16.05-.33.08-.49Z"/>
      <path class="cls-1" d="M142.85,75.46h21.6c0,.14,0,.27,0,.41h-21.6c0-.14,0-.27,0-.41Z"/>
      <path class="cls-1" d="M368.51,127.59h-10.51v-.55c3.51-.37,7.03-.49,10.54-.08,0,.21-.02.42-.03.63Z"/>
      <path class="cls-1" d="M76.18,102.81h10.9c-1.19.96-9.08,1.1-10.9,0Z"/>
      <path class="cls-1" d="M90.86,114.02c-2.45.9-7.84.8-9.13-.21,3.23-.55,6.18-.43,9.13.21Z"/>
      <path class="cls-1" d="M105.53,95.85c-2.95.19-5.91.53-8.85-.05,0-.2,0-.41,0-.61h8.87l-.03.66Z"/>
      <path class="cls-1" d="M104.68,113.95h10.25c0,.19,0,.39,0,.58-3.42.12-6.84.44-10.25-.05,0-.18,0-.35,0-.53Z"/>
      <path class="cls-1" d="M189.89,59.09h10.14c0,.16,0,.32,0,.48h-10.14c0-.16,0-.32,0-.48Z"/>
      <path class="cls-1" d="M185.1,24.02c-3.1.66-6.21.65-9.32.02,3.1-.76,6.21-.45,9.32-.02Z"/>
      <path class="cls-1" d="M196.15,52.87c-1.57,1.19-6.61.95-7.35-.34,2.54-.34,4.95-.4,7.35.34Z"/>
      <path class="cls-1" d="M103.92,111.9h8.65c-1.93,1.18-7.29,1.11-8.65,0Z"/>
      <path class="cls-1" d="M44.94,73.64c-2.01,1.22-5.87.97-6.62-.45,2.32-.23,4.5-.46,6.62.45Z"/>
      <path class="cls-1" d="M253.49,35.52c1.71-1.62,6.23-1.31,6.66,0h-6.66Z"/>
      <path class="cls-1" d="M33.95,81.65c-2.75.21-5.51.95-8.25.28,0-.28,0-.56.01-.83,2.75-.16,5.5-.17,8.23.55Z"/>
      <path class="cls-1" d="M187.42,122.06h-10.57c0-.14,0-.29,0-.43h10.57c0,.14,0,.29,0,.43Z"/>
      <path class="cls-1" d="M37.94,60.46h-9.91c1.55-.99,8.08-1.04,9.91,0Z"/>
      <path class="cls-1" d="M188.92,55.8c2.49-.52,4.98-.07,7.47.12,0,.18,0,.36,0,.53h-7.46c0-.22,0-.43,0-.65Z"/>
      <path class="cls-1" d="M141.77,54.11h10.96c0,.15,0,.3,0,.44h-11c.01-.15.03-.3.04-.44Z"/>
      <path class="cls-1" d="M73.21,60.89h7.6c0,.15,0,.3,0,.45h-7.6c0-.15,0-.3,0-.45Z"/>
      <path class="cls-1" d="M186.75,68.04c2.04-1.04,5.51-.88,6.27.43h-6.28c0-.14,0-.29,0-.43Z"/>
      <path class="cls-1" d="M83.89,34.12h9.15c0,.15,0,.29,0,.44h-9.16c0-.15,0-.29,0-.44Z"/>
    </g>
  </g>
</svg>