<?xml version="1.0" encoding="UTF-8"?>
<svg id="Layer_1" xmlns="http://www.w3.org/2000/svg" viewBox="0 0 395.83 297.64">
  <defs>
    <style>
      .cls-1 {
        fill: #a61e2f;
      }
    </style>
  </defs>
  <g id="_x37_NoC21">
    <g>
      <path class="cls-1" d="M99.82,13.43c2.23,2.9,4.74,5.64,6.6,8.76,1.37,2.3,2.53,5.07,2.66,7.68.22,4.69-.89,9.29-3.48,13.37-.22.35-.42.71-.6,1.07-.1.2-.15.43-.19.54.87.04,1.72.09,2.57.11.22,0,.54-.02.64-.16,1.34-1.86,2.89-1.28,4.48-.42h0c-.32.46-.78.88-.93,1.39-.81,2.76-2.96,4.03-5.37,5.07-.8.34-1.57.76-2.36,1.15,2.45,3.18,4.85,6.28,7.41,9.58.11-.03.64-.16,1.46-.36-.19.58-.29.93-.42,1.26-.43,1.1-.83,2.21-1.3,3.29-.46,1.07-.85,2.19-1.5,3.14-2.79,4.06-1.37,7.96,3.41,9.25.9.24,1.76.64,2.67.82.51.1,1.08-.1,1.62-.17l-.04-.04c1.03,1.23,1.96,2.55,3.1,3.66,2.11,2.06,4.33,4,6.52,5.97.53.47,1.26,1.32,1.66,1.2.92-.27,1.69-1.03,2.52-1.6-.09-.15-.19-.29-.28-.44-.75.14-1.5.29-2.29.44,1.1-1.64,2.25-2.97,2.95-4.5.57-1.25.57-2.74.9-4.11.76-3.18,1.94-6.39.83-9.62-.66-1.91-1.85-3.72-3.14-5.31-1.11-1.38-3.12-2.01-3.49-4.08-.03-.16-.36-.38-.54-.36-1.5.11-1.43-.83-1.26-1.84l-.04.05c2.41,1.83,4.82,3.65,7.23,5.49.46.35.9.71,1.59,1.27v-5.78c.2-.04.4-.09.6-.13.16.5.46,1.01.46,1.51.01,1.11.02,2.24-.22,3.31-.79,3.45,1.47,6.61.83,10.04-.24,1.32-.3,2.67-.35,4.02-.01.39.3.79.47,1.19.19-.04.39-.09.58-.13-.92,2.2-1.84,4.39-2.88,6.88.45.13,1.18.33,1.85.52-.58.63-1.35,1.45-2.12,2.28.06.16.12.32.18.49.68-.09,1.39-.1,2.04-.3,1.99-.59,3.93-1.48,5.96-1.81,1.18-.19,2.49.48,4.18.87-3.31.89-6.05,1.62-8.78,2.35.01.19.02.38.04.57.26.16.51.41.8.47,2.92.55,5.53,1.76,7.83,3.62.97.78,1.79.54,2.68-.08,2.53-1.77,3.06-5.41.98-8.11-1.14-1.47-2.52-2.78-3.93-4.01-2.58-2.25-2.8-4.91-1.63-7.89.1-.26.2-.53.27-.71-.08-.16-.1-.25-.14-.26-3.98-1.57-5.31-4.55-5.27-8.73.02-2.22-.79-4.61-3.33-5.85.17-.21.33-.42.5-.63,1.66.58,3.33,1.16,4.99,1.74-.53-.15-1.06-.31-1.49-.43,1.66,2.59,3.31,5.14,4.95,7.7-1.91-1.21-2.57-3.59-4.86-4.5.37,1,1,1.86.89,2.59-.4,2.49.86,4.42,1.97,6.33.35.6,1.88,1.15,2.45.87,1.89-.93,3.59-2.24,5.39-3.42-.28-3.48-2.03-6.18-5.28-7.78-1.28-.63-2.72-.95-4.09-1.41,3.16.26,5.87,1.55,8.18,3.67,1.63,1.49,3.13,3.04,2.42,5.59-.08.27.22.86.5.99,5.86,2.85,7.27,7.61,6.02,13.61-.24,1.18-.07,2.43-.24,3.63-.37,2.62-1.85,4.55-4.16,5.75-1.94,1.01-3.99,1.81-5.89,2.65.41,1.43,1.04,2.9,1.21,4.42.14,1.31.09,2.85-.5,3.96-.64,1.2-.91,3.11-3.22,3.09,2.31,4.25,4.57,8.39,6.79,12.54.72,1.34,1.35,2.73,1.99,4.11,1.46,3.14,1.91,3.47,4.73,3.77,1.16,1.13,1.86,1.98,2.72,2.63,1.25.95,2.65,1.71,3.91,2.66.41.31.56.97.99,1.76.06,0,.51-.02,1.01-.05.1.43.21.88.4,1.68.4-.64.62-.99.83-1.34.09.06.21.11.26.19.74,1.14.92,2.89,3.15,2.1.58-.21,1.56.94,2.43,1.23.68.23,1.53.29,2.21.1,3.42-.95,6.76-2.4,10.24-2.92,2.92-.44,5.63,1.24,8.07,2.85,5.13,3.38,8.37,8.47,11.83,13.34,1.51,2.13.92,3.04-1.6,3.15-1.21.05-2.41.21-3.82.34,1.69,3.07,4.29,4.96,6.91,6.77,3.52,2.43,7.16,4.68,10.7,7.08,1.54,1.05,2.97,2.26,4.55,3.47.78-1.76.92-3.47-.34-5.21-2.35-3.24-2.83-6.71-.59-10.17,1.42-2.2,3.16-4.2,4.76-6.29.07-.09.18-.16.25-.24.46-.52.92-1.04,1.38-1.56.49.82,1.03,1.61,1.44,2.47.19.4.13.92.18,1.39-.28.03-.57.06-.85.08.17.73.33,1.45.51,2.18.41,1.58.83,3.15,1.34,5.09-1.22-.3-1.82-.45-2.43-.6,0,0,0,0,0,0,1.31-2.48,1.05-4.4-.97-6.56-.31.34-.66.64-.92,1.01-1.1,1.49-2.12,3.05-3.27,4.49-1.7,2.13-2.01,6.11-.46,8.38,1.13,1.65,1.77,3.4,1.64,5.42-.11,1.67-.41,3.37-.28,5.02.59,7.39,4.94,8.72,10.42,8.07-3.63-3.45-4.12-8.39-1.34-14.48,1.04,1.65.53,3.28.26,4.86-.27,1.58-.87,3.13-.92,4.7-.07,2.54,1.23,4.05,3.19,4.51,1.16-2.57,2.31-5.08,3.42-7.61.13-.3.27-.79.13-1-1.22-1.85.09-3.35.63-4.95.2-.58.46-1.15.71-1.76-1.84-.97-4.13-.96-4.97-3.3,2.46-1.59,4.84.04,7.61.07-1.51-.89-2.77-1.41-3.74-2.26-1.25-1.09-2.26-2.44-3.38-3.67.62.36,1.25.71,1.86,1.1.64.4,1.21.9,1.88,1.22,1.16.55,2.46.86,3.55,1.52,1.36.83,2.57,1.9,4.3,3.21-.3-1.52-.49-2.53-.75-3.83,1.47,1.69.89,4.12,2.87,5.69.11-1.33.18-2.09.24-2.85.66-.27,1.21-.66,1.27-1.11.42-2.88.74-5.78,1.1-8.68.02-.17.06-.33.1-.48.52-.09,1-.17,1.4-.23.05-.56-.08-1.23.14-1.37,1.82-1.17,1.89-3.16,2.39-4.93.1-.37-.07-1.04-.35-1.26-2.49-1.97-5.46-2.94-8.74-4.19.64,2.53.2,4.39-1.32,6.05-1.55,1.69-1.45,2.23-.19,3.42,1.81.14,3.17.24,4.94.38-1.89,1.96-4.84,1.54-6.04-.3-1.62-2.5-1.48-3.87.71-6.86,1.43-1.96,1.35-2.75-.45-4.28-.65-.55-1.3-1.09-1.94-1.63-5.96,2.23-7.79,3.95-7.78,10.42,0,2.2-.28,4.24-2.02,5.59,1.02,1.22,1.95,2.33,2.87,3.44-2.78-2.06-4.8-4.74-6.42-7.76.82,1.01,1.64,2.02,2.39,2.94,2.34-2.93,2.09-6.52,2.64-9.9.29-1.78,2.67-4.53,4.4-4.96.84-.21,1.59-.76,2.43-.96.8-.19,2.08.19,2.39-.24.53-.72.43-1.89.65-2.86.3-1.31.53-2.65,1-3.9.66-1.74.34-3.43-.75-4.63-4.38-4.83-3.13-9.71-.45-14.69.31-.57.59-1.16.98-1.67,1.97-2.55,2.47-5.29,1.58-8.42-.36-1.28-.4-2.8.92-3.87.3-.24.37-.77.61-1.32.13.19.26.33.31.48,1.36,3.81,4.92,4.79,8.02,6.5,1.33.74,2.9.43,4.02,1.45,1.2,1.11,2.41,2.22,3.55,3.39.46.47.77,1.09.96,1.36-1.31-.95-2.82-2.03-4.32-3.11,0,0,.03.08.03.08h-.02c-.34.23-.67.44-1.1.72,2.13,3.32,4.03,6.67,2.52,11.2-.97-5.06-3.43-9.02-6.18-12.94,2.29,4.61,1.32,9.34.69,13.79-.18-.63.53-1.89-1.01-2.35-.26-.08-.22-1.27-.26-1.96-.04-.72,0-1.44-.21-2.23-1.18,2.05-1.58,4.57-4.25,6.19.46-2.87.85-5.33,1.32-8.24-1.68,1.49-2.98,2.64-4.3,3.8,0,.96.09,2.05-.02,3.13-.16,1.62.63,2.61,1.83,3.52.61.46,1.03,1.17,1.53,1.76-.63,1.49-1.3,2.97-1.88,4.48-1.28,3.31-2.47,6.65-3.79,9.94-.63,1.56-.32,2.89,1.17,3.57,3.26,1.5,6.79,2.52,9.41,5.69.51-3.16,1.87-5.93-.61-8.43-1.03-1.04-2.09-2.06-3.07-3.14-3.05-3.35-3.17-4.69-.75-8.47.64-1,1.06-1.97.28-3.07,1.65,1.74,1.77,2.75.59,4.83-.12.2-.25.4-.36.6-1.78,3.13-1.66,3.8.98,6.31,1.34,1.28,2.63,2.62,3.92,3.95,2.18,2.27,2.36,5.07,1.93,8.39,1.85-.14,3.54-.15,5.19-.4,2.76-.43,5.49-.26,7.99.88,1.3.6,2.28,1.91,3.43,2.93,0-.01.32-.28.34-.56.16-2.24,1.55-4.46.08-6.73-.12-.18.04-.54.07-.82,0,0,0,0,0,0,1.26,2.11,1.75,4.35.97,6.75-.74,2.28-1.53,4.55-2.29,6.82,0,0,.05-.02.05-.02-.11-1.22-.38-2.46-.3-3.67.09-1.32.17-2.67-1.29-3.07-1.95-.54-3.82-1.77-6.03-.88-.77.31-1.66.4-2.5.45-2.62.14-5.29.04-7.37,2.11-.19.19-.65.1-1.21.18-1.15,3.69-2.3,7.4-3.41,10.96,1.08.22,1.76.36,2.43.5.04.03.08.05.11.07-.34.46-.58,1.1-1.04,1.36-1.57.92-1.03,1.66.07,2.46,1.21.88,2.38,1.83,3.62,2.66.71.47,1.51,1.01,2.31,1.08,2.02.16,4.13-.28,6.06.15,2.71.6,4.51-.6,6.28-2.2.64-.57,1.17-1.26,1.74-1.9v-.06c.73,3.17.62,3.33-2.19,5.16-.74.48-1.28,1.28-1.92,1.93,0,0,.05-.01.05-.01-2.25-.59-4.48-1.25-6.75-1.73-1-.22-2.09-.19-3.12-.09-3.03.28-5.93.14-8.49-1.77.83.07,1.67.14,2.5.21-.65-.77-1.29-1.28-2.03-1.55-.94-.34-1.69-.18-1.35,1.13,1.07,1.27,2.13,2.54,3.2,3.8-.9-.28-1.87-.69-2.55-1.39-.77-.79-1.29-1.83-1.92-2.76-.16.06-.32.12-.49.18.11,1.27.21,2.54.33,3.95-.94-.89-.12-2.95-1.94-2.7-.75,3.53-1.48,6.99-2.21,10.42-1.58-.49-1.25-1.9-1.1-3.26.13-1.14.19-2.3.27-3.44-.15-.02-.3-.05-.45-.07-.75.94-1.49,1.89-2.24,2.83-.01.07-.03.11-.06.11-1.93-.03-2.29,1.7-3.21,2.83-3.06,3.76-2.5,6.81,1.71,9.02.21.11.39.25.59.37-.3.04-.59.07-.89.11-1.93.14-2.58-1.34-3.34-2.65-.44-.75-.78-1.55-1.17-2.33-3.81,2.13-7.82.7-10.64-4.01-1.35-2.26-2.45-4.67-4.84-6.08-2.72-1.6-5.49-3.1-8.16-4.78-2.57-1.62-4.99-3.46-7.54-5.12-1.45-.94-3.01-1.71-4.63-2.61-.08.28-.24.55-.21.81.4,4.07-1.89,6.38-5.17,8.12-1.29.68-2.49,1.53-3.73,2.31-1.72,1.07-3.33,1.03-4.93-.18.16,1.13.42,2.2.43,3.27.02,1.69-.92,2.62-2.47,3.42-2.32,1.2-4.24.38-6.27-.48-1.73-.73-3.32-.95-4.86.57-1.12,1.1-3.22,1.14-4.5-.04-1.9-1.76-4.1-2.49-6.58-2.83-2-.27-3.58-1.34-4.7-3.08-1.64-2.55-3.42-5.04-4.03-8.08-.89-4.47.39-8.43,3.22-11.89,1.26-1.54,1.99-3.15,2.4-5.13.5-2.43,1.98-4.47,4.04-5.99.46-.34.92-.7,1.15-.88-.23-1.27-.42-2.31-.61-3.35.38.63.69,1.3,1.14,1.87.26.32.86.73,1.12.63,1.07-.42,2.07-1.03,3.23-1.63-2.74-2.08-5.23-3.99-7.73-5.89.49,1.23,1.22,2.33,1.85,3.48.25.46.25,1.06.36,1.59-1.81-2.59-3.59-5.2-5.43-7.77-1.12-1.57-2.63-1.57-3.8.08-1.09,1.52-2.15,3.07-3.02,4.71-2.44,4.6-5.13,9.11-7.02,13.93-1.09,2.8-1.15,6.14-1.06,9.21.06,1.8,1.36,3.55,2.04,5.35.24.64.29,1.34.43,2.01-1.18-2.47-2.35-4.94-3.6-7.57-1.43,1.7-1.49,3.42-.88,4.91,1.66,4.03,3.42,8.03,5.45,11.88,1.13,2.13,2.9,3.92,4.39,5.86.15-.08.29-.16.44-.24-.2-.64-.35-1.3-.6-1.92-1.73-4.33-3.49-8.64-5.24-12.96.35.27.89.46,1.04.81,1.84,4.42,3.61,8.87,5.42,13.3,2.1,5.15,3.42,10.48,2.93,16.07-.24,2.68-.89,5.25-2.15,7.8-1.18,2.4-2.23,4.77-3.89,6.91-.73.94-.79,2.39-1.24,3.58-.12.31-.58.48-.98.78-.42,2.01-1.05,4.23-1.32,6.48-.28,2.33-.98,4.69.06,7.05.16.37-.22.98-.37,1.53-2.05-.64-2.94-2.15-3.86-3.65-2.15-3.53-4.34-7.04-6.5-10.56-.86-1.39-1.64-2.83-2.54-4.2-1.87-2.86-3.85-5.64-5.66-8.53-1.08-1.72-2.04-3.53-2.83-5.4-.43-1.01-.87-1.48-2-1.55-1.5-.08-2.98-.41-4.43-.98.62.1,1.26.11,1.85.3,2.83.91,5.13-.2,7.13-2.01,1.32-1.2,2.72-1.84,4.51-2.01,1.06-.1,2.07-.8,3.09-1.23l-.13-.48c-1.62-.33-3.22-.85-4.85-.92-.88-.04-1.96.47-2.66,1.08-1.97,1.7-4.13,2.54-6.75,2.45-1.89-.06-3.8.12-5.7.2-.03.15-.05.3-.08.45.68.39,1.37.77,2.17,1.22-.29.24-.42.39-.46.37-2.71-1.25-5.48-2.39-8.07-3.86-1-.57-1.6-1.87-2.3-2.9-1.38-2.03-2.8-4.04-4.02-6.16-.95-1.65-1.61-3.45-2.47-5.34-1.58,2.65-3.12,5.24-4.66,7.82-.2-.11-.4-.22-.59-.32,1.7-2.32,1.42-5.56,3.45-7.46,0-1.22-.06-2.34.01-3.46.13-1.97.49-3.94.48-5.9-.01-1.98-.34-3.95-.61-5.92-.02-.15-.59-.23-.9-.34.7-2.04,1.39-4.08,2.08-6.12.22.06.45.11.67.17-1.04,2.03-1.16,4.01-.57,6.22.74,2.73.97,5.6,1.47,8.72,1.51-1.23,1.42-3.75,2.9-4.89,2.11-1.62-.11-4.1,1.74-5.67.09,1.07.18,2.13.25,3.06,3.02-1.44,6.01-2.85,8.98-4.28.19-.09.39-.27.49-.45,1.87-3.66,3.72-7.33,5.6-10.99.29-.57.76-1.05.9-1.24.11-1.35.11-2.43.31-3.47.7-3.78.63-7.41-1.17-10.96-.76-1.51-1.47-1.33-2.55-.66-.89.56-1.73,1.23-2.67,1.69-3.15,1.55-3.89,3.13-3.15,6.61.31,1.48.42,3,.61,4.5l.07-.07c-.42-.51-1.08-.97-1.22-1.55-.44-1.76-.68-3.57-.99-5.36-.57.6-1.12,1.37-1.07,2.11.21,3.28.68,6.53,1.7,9.69.17.52.02,1.15.02,1.73-.3,0-.6,0-.9,0-1.77-5.13-3.33-10.28-1.22-15.91-1.23.93-2.45,1.81-3.23,2.98-1.06,1.59-1.7,3.46-2.66,5.12-1.83,3.18-3.76,6.3-5.63,9.45-.71,1.2-1.46,2.39-2.01,3.67-1.12,2.58-1.68,5.53-3.27,7.76-3.59,5.04-6.37,10.7-11.12,14.87-.45.4-.81.9-1.21,1.36.16.16.33.32.49.48.57-.54,1.12-1.12,1.73-1.61,1.04-.83,2.28-1.46,3.14-2.44,2.08-2.34,3.99-4.83,5.97-7.26.07.28.25.59.19.85-.84,3.61-1.51,7.29-2.63,10.81-1.38,4.34-4.76,7.19-8.25,9.89,4.6-4.66,7.73-10.05,8.53-16.77-6.09,7.57-14.55,10.93-23.61,13.75.95.46,1.86,1.08,2.86,1.36,3.2.91,6.43,1.67,9.64,2.55.38.1.67.55,1,.83v-.02c-2.28-.59-4.59-1.11-6.85-1.8-2.23-.68-4.39-1.59-6.62-2.3-1.14-.36-2.35-.5-3.45-.73,2.01-2.67,4.1-5.35,6.06-8.12.33-.47-.03-1.38.16-2.02,1.32-4.37,1.51-8.99,3.41-13.26,1.16-2.61,1.19-5.68,1.98-8.48,1.45-5.17,3.14-10.31,6.61-14.51,1.88-2.27,4.16-4.3,6.53-6.06,3.84-2.84,7.92-5.37,11.9-8.03.96-.65,1.88-1.36,2.88-1.96.46-.27,1.05-.32,1.58-.47l-.03-.04c.06.93.14,1.71-1.29,1.72-.54,0-1.02,1.03-1.63,1.44-1.75,1.17-3.57,2.24-5.33,3.4-.79.52-1.51,1.16-2.05,2.09,1.38-.41,2.74-.98,4.15-1.17,1.52-.21,3.1-.17,4.64-.06.91.07,1.8.49,2.7.76,3.42,1.04,6.26.04,9.17-2.87-4.22-.64-8.03-1.22-12.24-1.85,1.04-.26,1.86-.71,2.59-.59,3.08.5,6.12,1.22,9.2,1.76.88.16,1.92.26,2.71-.05,4.23-1.69,8.52-2.74,13.14-2.53,3.16.15,6.18-.45,9.21-1.66,2.91-1.16,5.79-2.92,9.18-2.54.06,0,.14-.17.4-.51-1.91-1.29-3.74-2.71-5.73-3.83-3.53-1.97-7.18-3.72-10.74-5.63-1.22-.66-2.15-.32-3.26.28-1.48.81-3.09,1.38-4.78,1.71,3.31-1.74,6.62-3.48,9.88-5.18-.27-.18-.78-.53-1.29-.88-.99-.68-2.05-2-2.95-1.9-1.72.19-3.52.94-4.97,1.92-2.44,1.63-4.74,3.42-8.22,3.63.99.76,1.63,1.26,2.28,1.76-2.46-1.65-5.6-2.55-6.54-5.89-.07-.25-.63-.47-.98-.5-2.74-.22-5.53-.79-8.22-.5-5.32.57-10.57-.37-15.85-.15-.82.03-1.62.32-2.37.71,2.92.22,6.38,3.29,8.9,8.12-3.46.16-6.86.5-9.89-1.66.51.06,1.01.11,2.06.23-1.89-1.27-3.34-2.25-4.79-3.22-.12.05-.24.11-.36.16.24.57.38,1.22.75,1.69,2.54,3.32,2.97,6.96,1.8,10.88-.17.56-.3,1.13-.46,1.69-.91,3.11-2.23,5.57-5.75,6.79-2.86,1-5.64,2.11-8.65,2.07-1.89-.03-3.77-.68-5.66-1.05.04-.28.08-.55.13-.83.63.09,1.29.11,1.9.29,4.87,1.43,13.46-1.3,15.76-5.37,1.81-3.21,3.72-6.61,1.44-10.71-.41.52-.82.97-1.16,1.47-2.23,3.16-4.95,5.88-8.67,7.01-2.45.74-5.17.83-7.76.8-.9,0-1.76-1.28-2.7-1.9-.5-.33-1.11-.5-2.04-.9-.11-.28-.2-1.22-.71-1.75-1.89-1.95-6.47-.7-7.74,2.07-.34.74-.57,1.55-.73,2.35-.28,1.48.51,2.49,2.03,2.79,3.69.73,6.3,2.99,8.38,5.97.83,1.2,1.54,2.48,2.33,3.71.53.81,3.31,1.29,4.43.95,1.25-.39,2.45-1.38,3.53-.86,1.75-1.68,3.44-3.31,5.13-4.93.18.13.36.25.54.38-.15.52-.13,1.21-.46,1.52-1.79,1.66-3.51,3.47-5.56,4.74-2.04,1.27-4.5,1.12-6.84.53-.82-.2-1.87-.26-1.54-1.6,0,0-.1,0-.1,0,.07-.42.34-.95.18-1.25-2.6-4.98-7.04-7.07-12.35-7.7-.61-.07-1.26.14-1.89.23-.01.15-.02.31-.03.46,2.13.18,4.03.77,5.07,2.79h-.03c-1.69-.72-3.47-1.28-5.04-2.21-1.16-.69-1.07-2.05.11-2.96,1.24-.95,1.58-2.07,1.66-3.6.06-1.17.83-2.32,1.36-3.44.25-.55.67-1.02.9-1.37-.98-.46-1.84-.86-2.79-1.3.42-.64.72-1.09.89-1.35,1.1.28,2.1.54,3.1.8.05-.16.11-.33.16-.49-.36-.16-.73-.31-1.06-.45.68-.63,1.4-1.28,2.3-2.11.28.31.8.69,1.06,1.2,1.01,2.01,2.72,3.41,4.14,5.08,2.26,2.65,5.15,2.89,8.17,2.62,5.67-.5,9.22-4.07,11.98-8.66.12-.19.16-.44.2-.67.02-.1-.04-.22-.12-.61-.8.58-1.52,1.11-2.25,1.63-.09-.09-.17-.17-.26-.26.59-.87,1.34-1.67,1.74-2.62.38-.9.4-1.96.66-3.35-2.43,1.3-4.41,2.37-6.39,3.43,2.5-2.51,6.85-3.41,6.14-8.81-2.88.99-5.49,1.89-8.09,2.78l-.17-.19c1.09-.83,2.18-1.66,3.27-2.48-.07-.18-.14-.36-.21-.54-2.85.86-5.71,1.72-8.56,2.58-.05-.13-.09-.26-.14-.4,3.14-1.21,6.28-2.42,9.43-3.64.02-.08.03-.15.05-.23-2.8.14-5.6.3-8.41.39-.65.02-1.31-.21-1.96-.32.02-.25.03-.5.05-.76,2.39-.12,4.82-.03,7.17-.41,2.59-.42,4.78.4,7.25,1.88-.63-2.86-2.11-4.5-4.14-5.65-2.19-1.24-4.4-2.45-6.7-3.47-1.08-.48-1.34-.99-.9-1.98l-.03.05c1.15.45,2.42.73,3.44,1.39,2.46,1.61,4.79,3.41,7.2,5.1.34.24.92.54,1.17.41,2.07-1.08,4.1-2.25,6.2-3.44,1.88,3.26.52,6.58-.53,9.84,2.87,0,5.67.05,8.46-.01,5.44-.11,10.83.37,16.18,1.34,1.31.24,2.18.36,2.43-1.72.22-1.82,1.88-3.48,2.92-5.2.25-.41.59-.77.88-1.16h0c.77.96.7,1.74-.19,2.72-1.52,1.67-2.43,3.64-2.33,6.05.07,1.75.39,3.24,1.96,4.23,1.57.99,2.85-.09,4.06-.76,1.48-.81,2.8-1.92,4.16-2.93,2.9-2.14,7.51-1.81,9.94.78,3.15,3.36,7.69,2.18,10.36-1.16.31-.39.24-1.41-.05-1.91-1.31-2.24-2.77-4.39-4.17-6.56,3.05.98,4.84,3.21,5.52,6.44,2.21-1.14,3.8-4.81,3.02-6.97-.19-.52-.57-1.06-1.01-1.38-3.13-2.24-6.39-4.07-10.44-4.12-1.64-.02-3.27-.68-5.04-1.08-.11,4.01,2.69,6.87,3.97,10.38-1.15-.79-2.3-1.22-2.89-2.06-.95-1.36-1.5-3-2.3-4.49-.3-.56-.81-1.02-1.22-1.52-.14.09-.28.19-.42.28-.09-1.9-.18-3.81-.27-5.71-.24-.06-.49-.12-.73-.18-.8,4.03-3.31,6.57-6.81,8.23-.14-1.22-.15-1.34,1.24-2.23,1.93-1.23,3.6-2.66,4.63-4.73-.11-.17-.22-.34-.33-.5-1.57.99-3.39,1.73-4.64,3.03-1.75,1.83-3.6,3.42-5.89,4.46-.66.3-1.46.3-2.19.44v.04c-.23-1.37.26-2.06,1.65-2.6,1.24-.48,2.22-1.64,3.3-2.51.85-.68,1.69-1.37,2.41-2.45h-3.27c-.02-.09-.05-.19-.07-.28,1.51-.34,3.02-.68,4.54-1.02-1.89-.82-3.57-.13-5.25.55-2.63,1.07-5.04,2.87-8.09,2.63-.62-.05-1.24-.17-1.85-.33,4.56-.31,7.64-3.07,10.84-6.37-1.13-.21-2.01-.38-3.36-.63,2.04-.71,3.72-1.29,5.66-1.96-1.9-3.12-5.48-2.95-8.22-4.29.05-.09.1-.24.16-.25.69-.11,1.38-.19,2.07-.28-.63-.38-1.31-.7-1.89-1.15-2.82-2.21-4.87-.66-7.02,1.23-2.06,1.81-4.34,3.38-6.45,5.15-.83.7-1.55,1.6-2.14,2.53-1.23,1.93-.98,3.24.95,4.47,1.06.68,1.47,1.12,1.13,2.57-.3,1.3.22,2.9.72,4.24,1.2,3.23,3.93,4.92,6.88,6.33,1.4.67,2.74,1.45,4.12,2.48-.98-.08-2.11.13-2.92-.29-3.26-1.69-6.79-3.13-8.77-6.49-1.32-2.25-2.41-4.64-1.49-7.47,0-.01-.06-.13-.16-.18-4.23-2.29-2.88-5.67.12-8.12,2.72-2.22,5.62-4.23,8.49-6.26,1.03-.73,2.23-1.24,3.55-1.96-2.37-3.67-.51-6.62,1.65-9.55.35-.48.32-1.24.44-1.88.07-.34-.03-.84.17-1.01,1.66-1.46.36-2.47-.52-3.48-1.88-2.17-3.82-4.28-5.83-6.53-1.7,3.01-3.32,5.87-5.13,9.08-.44-2.14-.8-3.9-1.16-5.66-.19-.02-.38-.04-.57-.05-1.62,3.25-2.33,7.17-6.39,8.62,1.75-1.51,2.04-3.58,2.46-5.65.19-.91,1.02-1.68,1.56-2.52-.13-.14-.26-.29-.4-.43-1.04.75-2.05,1.55-3.14,2.23-1.82,1.14-3.62,2.36-5.57,3.24-4,1.82-7.46-.04-10.87-1.91h-.02c.59-.02,1.23-.2,1.77-.05,2.31.63,4.56,1.73,6.89,1.9,1.64.12,3.59-.67,5-1.63,2.78-1.89,5.33-4.14,7.88-6.35.75-.65,1.2-1.64,1.51-2.08,1.22-.33,2.14-.59,3.06-.84-.05-.24-.09-.48-.14-.71-1.09.15-2.19.23-3.26.47-1.72.39-3.03.09-4.06-1.53-.87-1.38-2.05-2.56-3.1-3.82-2.1-2.53-4.91-2.91-7.67-1.84-3.18,1.23-6.53.87-9.72,1.68-.56.14-1.09.39-1.63.58,1.15-.5,2.29-1,3.53-1.53-.17-.21-.39-.5-.7-.89h1.78c-.51-.53-.86-.9-1.47-1.54,1.58.49,2.77.85,3.95,1.22l.51-.63c-.64-.52-1.29-1.03-1.88-1.51.1-.03.43-.13.76-.23-.34-1.04-.64-1.95-.94-2.87.06-.02.11-.05.17-.07.59.8,1.18,1.6,1.77,2.4-.02-1.7-1.27-3.03-.11-4.67.88-1.24,1.59-2.61,2.36-3.88-2.3-.56-4.87-1.21-7.45-1.83-2.31-.56-4.01.27-4.48,2.17-.83,3.34-1.65,6.68-2.47,10.02-.5,2.03.46,4.37,2.29,5.56-.63-.05-1.41.12-1.85-.19-1.46-1.06-2.02-3.59-1.59-5.37.66-2.7,1.29-5.41,1.73-8.15.46-2.84,4.7-5.89,7.69-5.32,2.34.44,4.66.92,7,1.35.38.07.78,0,1.29,0-.2.33-.38.64-.58.98,1.17.08,1.29-.25,2.79-2.5.72-1.08,2.03-1.77,3.3-2.83-.21-.49-.5-1.29-.88-2.05-.6-1.19-.84-2.31-.23-3.64.55-1.21.8-2.56,1.17-3.85.47-1.63,1.67-2.6,3.08-3.38-1.99,1.74-1.85,4.4-2.81,6.6-.26.59-.39,1.66-.06,2.02,1.53,1.65,3.01,3.89,4.95,4.49,3.86,1.21,6.05,3.79,7.93,6.96.9,1.52,1.75,3.06,2.63,4.6.16-.05.32-.1.49-.16-.35-1.73-.44-3.57-1.12-5.15-1.11-2.61-2.63-5.04-3.9-7.58-.17-.35.14-.93.22-1.41.17,0,.35-.01.52-.02-.63-1.57-1.25-3.14-2.05-5.15,2.61,2.02,5.01,3.87,7.4,5.72.05-.73-.06-1.37-.41-1.84-1.86-2.47-3.8-4.87-5.64-7.35-.32-.44-.29-1.14-.42-1.71.24,0,.47,0,.71,0ZM70.05,178.91c3-2.01,5.98-4.04,9-6.01.52-.34,1.24-.37,1.8-.66,1.02-.52,1.93-1.28,2.99-1.67,2.28-.84,4.06-2.17,5.02-4.43.21-.49.15-1.08.17-1.21-1.64.61-3.16,1.33-4.75,1.75-3.49.92-7.04,1.61-10.51,2.57-1.89.52-2.86,1.92-3.19,3.97-.33,2.06-.38,4.3-2.23,6.07.75-.18,1.25-.3,1.76-.42-.69,1.33-1.33,2.69-2.1,3.98-.79,1.31-1.71,2.54-2.57,3.8-.16-.09-.33-.19-.49-.28.06.49.11.99.17,1.47,7.14-.61,18.7-11.06,20.16-16.29-1.7.83-3.38,1.63-5.03,2.47-1.81.92-3.57,1.94-5.4,2.82-1.57.76-3.19,1.39-4.79,2.07ZM97.36,144.81c.67-.38,1.33-.77,2.02-1.12.7-.36,1.68-.48,2.09-1.03,1.44-1.94,2.68-4.03,4-6.06-8.17-4.05-22.39,1.15-26.26,9.97.62,0,1.43.24,1.69-.04,1.64-1.72,3.76-1.65,5.82-1.74,2.72-.13,5.45-.13,8.18-.19-.95.35-1.89.93-2.87,1.01-4.17.33-8.48-.2-12.31,2.06-.9.53-2.03,1.22-2.34,2.1-1.59,4.48-2.94,9.04-4.37,13.57-.38,1.64-.75,3.29-1.11,4.87,4.61-1.24,9.06-2.45,13.52-3.63.65-.17,1.38-.12,1.98-.37,2.6-1.13,4.47-2.99,5.54-5.66.57-1.41,1.28-2.75,2.07-4.4-1.93.87-3.42,1.71-5.02,2.23-1.99.65-4.05,1.11-6.11,1.5-.77.15-1.62-.1-2.43-.17.07-1.19.95-1.25,1.85-1.46,3.51-.82,7.04-1.63,10.51-2.62,2.12-.6,3.28-2.25,3.8-4.22-2.39.4-4.73.83-7.09,1.16-2.33.33-4.67.55-7,.82-.03-.22-.06-.43-.09-.65.89-.21,1.77-.42,2.66-.62,3.7-.82,7.4-1.6,11.09-2.46,1.36-.32,2.49-1.01,2.69-2.98-.89,0-1.7,0-2.51,0l.03.13ZM110.37,180.95c.57.45,1.39.79,1.67,1.38.68,1.4,1.32,2.6,2.98,3.17,1.2.42,2.67,1.2,3.15,2.23.55,1.18.3,2.84.11,4.25-.15,1.12-.74,2.17-1.18,3.35,2.71.66,4.82-.26,6.77-1.98.72-.63,1.62-1.34,2.5-1.43,1.59-.16,3.27-.1,4.81.28,1.45.36,2.46.14,3.47-.88,1.58-1.59,2.58-3.31,1.51-5.7.15-.09.3-.18.44-.27.83.55,1.66,1.1,2.5,1.65,2.09-1.77,3.83-7.25,3.07-9.79-.05-.17-.09-.39-.21-.47-1.19-.85-2.41-1.67-3.61-2.51-.16.1-.31.19-.47.29.26.46.5.92.77,1.36.61,1,1.23,2,1.85,3-.21.14-.42.29-.63.43-.74-.89-1.48-1.79-2.31-2.79-.53.65-.92,1.12-1.22,1.49.77,1.25,1.44,2.36,2.12,3.46-.1.08-.21.16-.31.24-.86-.73-1.72-1.47-2.58-2.2-.2.07-.39.13-.59.2.14.55.14,1.18.44,1.62.8,1.17,1.72,2.26,2.6,3.38-.25.24-.5.48-.75.72-.8-.7-1.74-1.3-2.38-2.13-1.9-2.45-3.23-2.91-5.08-1.88.47,1.23.93,2.4,1.38,3.58-.14.05-.28.11-.42.16-.17-.32-.34-.64-.73-1.38-.72,1.52-1.27,2.69-1.96,4.14-.27-1.79-.47-3.16-.75-5.02-.99,1.77-1.67,3.01-2.36,4.25-.11-.06-.22-.13-.33-.19.05-.79.11-1.58.16-2.38-.15-.09-.31-.17-.46-.26-.66.88-1.32,1.76-1.98,2.64-.11-.05-.23-.11-.34-.16.4-1.35.81-2.71,1.21-4.05-1.45-.98-2.07-1.55-2.13-2.23.51.49.82.92,1.24,1.15.46.26,1.07.56,1.54.47,1.95-.38,3.85-.99,5.81-1.35,2.83-.52,6.38-4.8,6.79-7.94-4.84-1.4-6.56-4.12-5.33-9.05.49-1.97-.4-2.83-1.86-3.26-1.31-.39-2.79-.51-4.13-.32-.63.09-1.11,1.19-1.67,1.82-.1.11-.27.17-.58.36.14-.71.24-1.25.39-1.99-2,.06-2.09,1.76-2.59,2.84-.56,1.21-.7,2.6-1.03,3.92-.17-.03-.33-.06-.5-.09.41-2.17.81-4.34,1.22-6.5-.61.43-1,1.57-1.49,1.6-2.91.23-2.37,2.89-3.35,4.45-1.38,2.19-.71,4.43.12,6.59.31.82.89,1.54,1.34,2.31-2.94-2.24-3.86-5.64-2.74-8.77.24-.68.24-1.44.35-2.17-.09-.01-.18-.03-.27-.04-.36.78-.73,1.55-1.09,2.33-.48.02-1.23-.14-1.39.1-2.01,3.03-4.34,5.95-4.25,10.06-1.22-1.86-.59-3.66-.19-5.35.41-1.75,1.18-3.41,1.8-5.1-.13-.09-.26-.17-.39-.26-.95,1.25-1.86,2.54-2.87,3.75-1.5,1.78-3.08,3.5-4.61,5.23,0,0-.2-.23-.52-.58-1.45,3.69-.43,6.99,1.1,10.06,1.43,2.89,3.27,5.59,5.09,8.27,1.34,1.98,3.46,2.97,5.77,2.77,3.46-.31,4.43-3.26,3.99-6.75-.1-.79-.53-1.73-1.13-2.21-.93-.77-2.11-1.24-3.21-1.78-1.69-.82-2.42-2.2-2.1-4.12ZM160.23,172.92l-.09.06c.67.28,1.35.57,2.32.98.82-1.03,1.98-2.09,2.59-3.41.28-.61-.53-1.72-.85-2.6.26-.08.53-.17.95-.3-.65-.37-1.22-.53-1.51-.91-.82-1.07-1.55-2.22-2.27-3.35-.18-.29-.36-.66-.34-.98.02-.36.18-.85.45-1.01.19-.12.72.12.98.34,2.06,1.69,3.46,3.79,4.15,6.42.57,2.16.28,3.94-1.19,5.68-.43.51-.37,1.59-.24,2.36.11.65.7,1.21.99,1.84,1.33,2.86,2.8,3.5,5.86,2.48.07-1.16.09-2.32.22-3.48.22-2.01,1.5-2.84,3.42-2.28,1.77.52,3.5,1.27,5.31,1.54,1.03.15,2.17-.46,3.27-.73-.28-.89-.35-1.94-.88-2.64-2.54-3.39-5.21-6.68-7.85-10.05q-2.78,1.7-1.97,5.78c.75-.21,1.53-.43,2.32-.65.14.22.27.44.41.66-.53.57-1.01,1.52-1.61,1.61-.96.14-1.32-.72-1.43-1.73-.13-1.18-.53-2.34-.81-3.52-1.79.4-3.38.77-4.97,1.13-.05-.19-.1-.38-.14-.57.91-.27,1.82-.55,2.73-.81,2.82-.78,4.27-2.71,3.61-4.81v.06c.17-.2.32-.43.53-.58,2.34-1.81,4.76-3.52,7.01-5.44,1.73-1.48,2.06-3.47,1.27-5.61-.1-.27-.26-.54-.28-.81-.17-2.09-1.24-3.47-3.14-4.06-.78-.24-1.62-.41-2.3-.83-1.5-.94-3.03-.78-4.57-.32-.35.1-.59.57-.85.85-.62-.04-1.64-.44-2.12-.09-3.12,2.25-7.17,3.7-7.78,8.31-.19,1.44-.41,2.87-.67,4.29-.15.84-.41,1.66-.61,2.49-.7-.35-1.4-.71-2.11-1.05-.09-.05-.22-.03-.75-.09-.73,1.95-1.55,3.99-2.26,6.06-.25.73-.35,1.57-.29,2.34.36,5,2.6,9.19,5.86,12.85.56.63,1.52.94,2.35,1.23.16.06.94-.8.86-1.06-.31-1.01-.82-1.96-1.32-2.9-.11-.2-.52-.22-.79-.34-1.03-.44-1.6-1.17-1.45-2.34ZM118.73,132.7c.67,1.3,1.23,2.26,1.68,3.27.54,1.22,1.26,2.44,1.44,3.72.87,6.22-.74,11.9-4.05,17.16-.71,1.13-1.4,2.27-2.35,3.8,1.25-.35,1.9-.66,2.57-.69,2.28-.08,4.56-.17,6.83-.05,1.88.1,3.8.29,5.6.79,1.13.32,1.47.14,1.99-.85,1.17-2.23,2.39-4.46,3.86-6.5,1.01-1.4,2.51-2.45,3.74-3.7,1.85-1.87,3.83-3.63,5.43-5.69,2.18-2.81,4.06-5.86,6.06-8.82.45-.67.85-1.37,1.58-2.54-1.21-.1-2.14-.45-2.84-.18-2.95,1.12-5.86,2.34-8.71,3.68-7.54,3.53-13.49,8.62-16.24,16.83-.67,2-1.74,3.86-2.63,5.78-.17-.06-.33-.12-.5-.18.03-.43-.02-.9.11-1.3.75-2.27,1.45-4.57,2.35-6.78,2.99-7.29,8.53-12.09,15.6-15.12,2.17-.93,4.14-1.89,5.65-3.43-1.22.06-2.47.24-3.71.16-1.44-.09-2.86-.48-4.31-.61-2.1-.19-4.23-.13-6.32-.44-2.8-.41-5.51-.77-8.24.49-1.34.62-2.9.75-4.62,1.17ZM102.46,45.39c0-.87-.06-1.71.02-2.53.07-.79.63-1.7.38-2.33-.94-2.34-2.07-4.61-3.22-6.86-1.58-3.08-4.04-5.12-7.45-5.86-.66-.14-1.45.23-2.08.03-3.28-1.02-3.24-.11-4.22,2.21-.7,1.67-1.75,2.49-3.47,2.72-1.51.2-2.57,1.03-2.5,2.64.09,2.13.54,4.25.54,6.38,0,2.38,1.02,2.28,2.87,1.8,3.64-.95,6.81-.21,9.43,2.86.94,1.1,2.71,1.57,4.17,2.12.48.18,1.22-.3,1.83-.47-1.57-.86-3.34-.92-3.19-3.17.02-.26-.4-.54-.59-.82-.54-.81-1.07-1.64-1.61-2.45.14-.11.27-.22.41-.33.57.83,1.14,1.66,1.7,2.49.17-.15.35-.3.52-.45-.28-.68-.56-1.36-.84-2.03q2.87,4.82,7.28,4.07ZM198.56,157.36c-1.08-.96-1.79-1.69-2.6-2.28-.75-.55-1.81-.79-2.38-1.47-2.06-2.42-4.7-3.68-7.7-4.44-.94-.24-1.25-.06-1.35.92-.1,1.01-.1,2.3-.71,2.93-1.94,2.03-4.07,3.9-6.27,5.65-1,.8-1.37,1.65-.97,2.7.23.6,1.35,1.5,1.41,1.45,1.07-.87,1.98-.27,2.3.55.19.49-.59,1.36-1.06,2.32,1.47,1.78,3.18,3.77,4.8,5.82,1.07,1.35,2.2,1.21,3.31.21.63-.57,1.35-1.3,1.53-2.08.45-1.95,1.65-2.44,3.41-2.25.46.05.93.11,1.4.1,1.19-.01,1.58-.51,1.05-1.67-.43-.95-.91-1.93-1.08-2.94-.49-2.95.37-4.92,3.23-4.9.37,0,.75-.27,1.67-.64ZM151.69,91.88c-.13.17-.27.34-.4.51.56.1,1.18.38,1.66.23.29-.1.28-.91.53-1.33.63-1.07,1.34-2.09,1.99-3.14.24-.39.68-1.04.55-1.23-1.3-1.83-.79-3.8-.58-5.74.35-3.07-.68-5.81-2.3-8.26-.81-1.23-2.05-2.77-3.88-2.04-1.7.68-3.22,1.83-4.82,2.77,1.48.34,2.27,1.5,1.68,2.88-.95,2.24.47,3.52,1.53,5,.37.52.88.96,1.13,1.53.73,1.61,1.44,3.24,2,4.91.43,1.27.61,2.61.9,3.92ZM176.19,140.61c.37.22.63.46.93.54,1.83.49,3.68.94,5.52,1.41,2.42.61,4.82,1.5,7.28,1.76,2.72.29,4.53,1.6,5.92,3.75.39.6.66,1.29.98,1.93-.15.08-.31.17-.46.25-1.87-1.5-3.74-3-5.69-4.57-.68.06-1.55.15-2.43.23-.1.17-.2.34-.3.51,1.22.99,2.37,2.09,3.69,2.94,1.36.88,3.15,1.23,4.28,2.31,2,1.89,4.22,1.97,6.64,1.65.33-.04.88-.14.91-.3.07-.33-.04-.81-.25-1.07-2.51-3-4.84-6.21-7.64-8.91-6.14-5.93-12.23-5.05-19.38-2.43ZM151.27,125.13c-2.34-5.17-4.68-10.35-7.03-15.54-.1.02-.25,0-.31.07-2.86,2.93-6.17,3.61-10.13,2.54-1.16-.31-2.65.61-4,.97,7.34,4.09,14.38,8.02,21.47,11.96ZM249.22,101.89c-.17.02-.34.03-.52.05,0,1.64.02,3.28,0,4.92-.03,1.68.23,3.46-.25,5-.68,2.15-1.94,4.12-2.96,6.16-2.2,4.38-1.4,8.49,2.39,11.88.7-1.01,1.41-2,2.09-3.01.32-.48.6-.99.81-1.34-.98-1.25-2.17-2.26-2.72-3.55-1.42-3.35-1.8-5.2,1.1-7.84.84-.76,1.47-1.78,2.1-2.75,1.44-2.19,1.46-5.02.06-6.95-.65-.89-1.39-1.72-2.09-2.57ZM134.32,195.62c-.19-.24-.24-.37-.34-.41-2.3-.93-8.01,1.93-8.64,4.31-.01.06-.02.11-.03.17-.28,2.18,1.76,5.64,3.91,6.64.82-2.27,1.63-4.54,2.45-6.81.14.05.27.1.41.15-.57,2.14-1.22,4.26-1.66,6.43-.16.8-.08,1.86.33,2.53.93,1.53,2.14,2.89,3.23,4.32.14-.07.28-.13.42-.2-1.66-4.08-1.95-8.33-1.57-12.61.14-1.52-.48-3.45,1.49-4.53ZM194.61,160.99c.38,2.61.87,4.79.94,6.98.05,1.61-1.1,2.07-2.69,2-1.17-.05-2.63.14-3.49.82-1,.79-1.47,2.23-2.43,3.82,1.07-.08,2.1.11,2.83-.26,2.38-1.23,4.77-2.52,6.93-4.1,1.14-.83,2.12-2.2,2.59-3.53.66-1.84.77-3.87,1.12-5.82.26-1.44-.04-2.68-1.23-3.7-1.14,3.17-2.04,3.81-3.62,2.79-.44.46-.86.9-.94.99ZM142.46,224.28c.52-1.59,1.2-3.08,1.46-4.65.22-1.32.32-2.87-.18-4.05-1.96-4.58-4.18-9.05-6.3-13.56-1.07,2.48,3.35,20.61,5.02,22.25ZM147.19,210.61c.16,0,.32,0,.48-.01.07-.53.26-1.07.19-1.58-.33-2.7-.73-5.38-1.11-8.07-.14-1.03-.04-2.19-.49-3.07-1.46-2.86-3.08-5.63-4.73-8.38-.27-.45-1.08-.94-1.51-.85-.93.2-1.59.74-1.25,2.03.73,2.74,1.82,5.15,3.62,7.46,2.53,3.22,3.66,7.22,4.49,11.23.09.41.19.82.29,1.23ZM201.46,160.71c-.44,1.5.16,2.53,1.46,3.42,6.3,4.32,12.57,8.69,19.12,13.22-.37-.66-.6-1.1-.85-1.52-1.73-2.94-4.28-5.06-7.07-6.91-4.13-2.74-8.31-5.4-12.66-8.22ZM146.41,216.8c0-1.62.4-2.94-.08-3.68-1.17-1.78-.87-3.91-1.87-5.76-1.74-3.21-2.96-6.7-4.46-10.04-.75-1.66-1.63-3.26-2.59-5.16-.95-.16-1.06.91-.95,1.68.17,1.19.57,2.38,1.06,3.49,2.63,5.93,6.81,11.2,7.59,17.94.05.47.72.87,1.31,1.54ZM132.47,163.06c-.69,2.36-.34,4.65.96,6.77.27.44.9.8,1.43.93,2.04.49,4.11.87,6.19,1.29-.06-.17-.2-.53-.32-.88-1.42-3.91-4.19-6.51-8.26-8.11ZM185.58,176.65c-.21,0-.41,0-.62,0-1.15,2.22-2.2,2.83-4.78,2.33-1.47-.29-2.82-1.11-4.29-1.42-.93-.19-2.37-.24-2.85.3-.6.68-.44,2.02-.61,3.08,2.24-1.46,4.14-1.19,6.11-.21.83.41,1.73.71,2.62.98,1.31.39,4.08-.37,4.48-1.55.36-1.04-.02-2.33-.07-3.51ZM148.22,197.76c.27.52.73,1.06.81,1.64.18,1.39.19,2.8.26,4.21.09,1.76.17,3.53.25,5.29.88-1.59,1.51-3.14,1.93-4.73.28-1.08.53-2.29.33-3.35-.34-1.76-.94-3.49-1.65-5.14-.97-2.25-2.14-4.4-3.23-6.6-.17.08-.34.16-.51.24.65,2.17,1.35,4.33,1.93,6.52.15.57-.07,1.23-.12,1.92ZM152.76,196.1c1-2.83-5.2-14.69-8.46-16.26-.14,1.78-.54,3.39.8,5,2.05,2.45,3.92,5.05,5.76,7.66.75,1.06,1.23,2.32,1.89,3.6ZM137.74,129.09c4.88,1.66,9.71.69,14.82.72-4.13-3.3-10.79-3.57-14.82-.72ZM105.08,39.27c2.9-4.85,1.81-10.12-3.36-15.38.71,1.32-1.9,3.39.99,3.44.73,2.03,1.62,3.81,1.99,5.69.39,2.01.27,4.12.38,6.25ZM245.69,169.83c-2.24-.76-4.07-1.38-6.09-2.07.65,1.08,1.58,2.06,1.81,3.18.24,1.16-.2,2.47-.34,3.67,1.64-.93,3.49-1.8,5.14-2.97,1.74-1.24,1.39-2.48-.95-3.48.11.43.2.78.42,1.68ZM145.47,192.83c.15-.07.31-.14.46-.21-.9-2.23-1.81-4.46-2.85-7.04-.75.89-1.14,1.36-1.57,1.87,1.36,1.85,2.65,3.62,3.95,5.39ZM129.22,90.7c1.21,2.01,3.08,2.17,4.98,2.24.05-.14.1-.29.15-.43-1.71-.6-3.42-1.2-5.14-1.8ZM77.26,103.51c1.22-.17,2-.28,3.3-.46-1.06-.74-1.89-1.32-2.71-1.9-.19.76-.38,1.53-.59,2.36ZM102.74,170.07c.22.13.43.27.65.4.7-1.05,1.39-2.11,2.09-3.16-.18-.12-.35-.25-.53-.37-.74,1.04-1.47,2.09-2.21,3.13ZM115.73,132.78l-.39-.66c-1.25.76-2.49,1.52-3.74,2.28.11.18.22.37.33.55,1.27-.72,2.54-1.45,3.81-2.17ZM251.85,167.96c-.15-.04-.31-.08-.46-.12-1.27,2.28-1.38,2.84-.52,3.88.36-1.38.67-2.57.98-3.76Z"/>
      <path class="cls-1" d="M240.36,192.56c.3-.04.59-.07.89-.11,1.75-.02,3.51.04,5.26-.06,3.49-.2,6.48-1.48,8.51-4.44,2.26-3.3,5.27-4.88,9.79-4.43-2.41.99-4.65,1.49-6.34,2.73-1.82,1.34-3.13,3.37-4.69,5.12.19.09.29.17.38.16.17-.02.36-.06.5-.15,3.36-2.06,6.91-3.5,10.85-4.13,2.15-.34,3.6-2.39,3.56-3.85-1.21.35-2.46.72-3.72,1.09-.09-.25-.17-.49-.26-.74.62-.24,1.23-.55,1.87-.7,2.73-.64,4.09-2.31,3.85-4.79-.06-.64-.17-1.27-.26-1.91,0,0-.05.01-.05.01,3.01,4.25-.78,13.05-7.73,13.81-.57.06-1.18.14-1.7.38-3.34,1.52-3.51,1.87-2.91,5.45.15.89.29,1.78.14,2.74-1.81-1.44-.42-3.7-1.49-5.64-1.27.82-2.53,1.59-3.72,2.46-.23.17-.39.84-.24,1.06,1.6,2.47,3.27,4.9,4.96,7.4.82-1.46-1.18-3.22.75-4.42,1.64,5.4,3.27,10.75,4.89,16.11.1-.01.2-.02.3-.03.13-1.66.33-3.32.38-4.98.12-3.87,1.5-7.38,2.92-10.9,1.57-3.9,2.98-7.87,4.55-11.77.63-1.57,1.51-3.03,2.26-4.56,2.25-4.56,4.38-9.18,6.75-13.67,1.84-3.49,3.99-6.82,5.94-10.25.84-1.48,1.49-3.06,2.31-4.55,1.66-3.01,1.75-6.17.81-9.37-.3-1.02-.9-2.07-1.65-2.82-1.75-1.79-3.76-3.33-5.49-5.14-.82-.85-1.33-2.02-1.81-3.13-.15-.35.24-.94.39-1.43.42.24.96.39,1.24.75,1.73,2.13,3.41,4.3,5.1,6.46.18-.1.36-.19.53-.29,0-2.02.04-4.05,0-6.07-.06-2.55,1.2-4.2,3.43-5.21,2.61-1.17,5.18-2.47,8.22-1.84.53.11,1.18-.37,1.99-.65-.63-1.77-1.21-3.4-1.84-5.16.64,1.11,1.21,2.11,1.79,3.12.15-.06.3-.11.45-.17-.57-1.67-1.14-3.34-1.71-5.01,2,3.51,3.99,7.01,3.84,11.34,1.1-1.05.89-11.4-.08-15.79.69,2.26,2.27,4.3,1.51,6.92-.08.27.21.71.44.98.45.51.99.96,1.52,1.45,2.15-2.16,3.12-6.16,1.72-8.54-5.37-9.11-6.7-8.69-14.82-6,3.02-2.68,9.6-3.62,11.77-1.61,2.68,2.48,4.81,5.32,5.46,9.04.03.17.13.32.19.47,1.52-.88,2.97-1.85,4.52-2.6,4.78-2.32,8.16.46,8.52,5.78.05.69.34,1.6.84,1.97,3.21,2.43,3.55,6.06,4.04,9.57.14,1,1.06,2.49-.78,3.17.16.35.23.78.47.95,1.67,1.22,1.77,2.85,1.45,4.7-.31,1.75-1.32,2.92-2.53,4.17-1.41,1.46-2.35,3.38-3.54,5.07-.87,1.23-1.82,2.41-2.73,3.62.49-1.06.8-2.23,1.48-3.14,1.84-2.47,3.78-4.88,5.79-7.22,1.97-2.29,1.18-5.55-1.68-6.38-1.39-.4-2.81-.68-4.21-1.04-1.53-.39-3.89.75-4.83,2.03-1.47,2-2.79,4.28-5.45,4.94-1.29.32-2.66.35-3.98.58-2.96.53-5.84,1.24-7.89,3.71-2.83,3.41-.57,6.97,2.53,7.27,1.51.14,2.98.58,4.48.88,1.63.32,3.26.62,4.89.95.94.19,1.87.44,2.81.66-2.98,1.38-5.97,1.38-8.99.13-1.57-.65-3.04-1.06-4.87-.53-1.46.42-3.24.2-4.76-.21-1.91-.51-3.69-1.48-5.8-2.38-.17.53-.44,1.31-.69,2.09-1.4,4.49-3.65,8.5-6.57,12.21-1.43,1.82-2.03,4.3-3.48,6.1-2.29,2.85-2.62,6.78-5.03,9.3-1.67,1.75-1.88,4.11-3.53,5.68-.08.08-.24.16-.24.24.17,3.18-1.56,5.82-2.47,8.69-.93,2.96-2,5.88-2.87,8.86-.28.97-.16,2.06-.22,3.09.14.06.28.13.42.19,1.02-1.29,1.96-2.66,3.1-3.84.53-.54,1.45-.71,2.19-1.05,0,0,0,0,0,0-1.14,1.49-2.28,2.98-3.43,4.45-.56.72-1.16,1.41-1.75,2.12-.19-.09-.39-.18-.58-.27.2,1.4.41,2.8.65,4.46.78-.48,1.23-.76,1.69-1.05l-.04-.04c-1.1,1.46-1.28,2.98-.79,4.78.67,2.44.95,4.98,1.59,7.43.32,1.23,1.05,2.35,1.36,3.67-1.39-.53-2.19-1.4-2.55-2.85-.33-1.32-1.06-2.53-1.65-3.87-1.06,1.69.22,9.85,2.42,16-1.32-.72-1.82-1.87-3.41-8.13-.74-2.9-1.43-5.81-2.14-8.72-.26.03-.52.05-.78.08,0,1.2-.26,2.47.05,3.58,1.12,4.03,2.43,8.01,3.69,11.99,2.29,7.23,4.84,14.39,5.8,21.97.1.81.54,1.57,1.08,2.28-.03-6.03-1.45-11.81-2.81-17.6,3.07,6.22,3.44,13.17,5.17,19.75.22-.05.44-.1.65-.14-.23-1.17-.49-2.34-.67-3.51-.46-2.86-.92-5.73-1.27-8.6-.06-.45.43-.97.67-1.46l-.06-.04c.41.82,1.01,1.61,1.2,2.48.66,2.96,1.19,5.95,1.72,8.94.13.73.02,1.49.02,2.52,1.53,2.51,2.02,5.84,3.08,8.95,1.05,3.1,2.05,6.24-.09,9.48h-1.35c-.88-1.19-1.66-2.45-2.63-3.55-3.11-3.49-4.11-7.8-4.96-12.19-.62-3.25-1.21-6.51-1.81-9.79.25-.08.58-.18,1.26-.39-3.01-1.39-1.99-4.12-2.61-6.2-1.54-5.18-2.48-10.54-4.87-15.46-.68-1.41-1.09-2.96-1.55-4.47-1.43-4.7-2.82-9.41-4.22-14.12-.42-1.43-.94-2.77-2.45-3.44-.25-.11-.37-.51-.73-1.05.72.11,1.13.18,2.08.32-2.48-6.26-6.11-11.38-10.2-16.22,1.55,1.62,3.26,3.12,4.63,4.89,2.11,2.74,3.99,5.66,5.81,8.29.64-.26,1.12-.44,1.71-.68-.15-.4-.28-.9-.51-1.34-1.19-2.31-2.3-4.67-3.63-6.9-1.27-2.12-1.96-4.56-4.58-5.89-1.85-.94-3.49-.2-5.18-.56.04.2.07.4.11.6-1.44-.78-2.91-1.53-4.31-2.39-.32-.2-1.59-.1-.69-1.13ZM312.25,141.5c.5-2.03.14-4.27-1.69-5.66-1.48-1.12-3.49-2.11-5.27-2.12-2.64,0-3.69-1.18-4.53-3.34-.34-.87-1.41-2.1-2.1-2.07-2.29.09-4.57.65-6.85,1.08-1.37.26-1.93,1.25-1.94,2.54-.02,3.54-.29,7.08,1.22,10.48.7,1.57.95,3.35,1.33,5.06.91,4.01,2.51,6.52,6.9,7.03-.99-3.93-.59-5.72,2.76-8.46,1.72-1.41,3.9-2.27,5.94-3.24.51-.24,1.28.05,1.58.07.91-.47,1.61-.83,2.66-1.37ZM311.57,133.87c1.57-.08,2.85,0,4.06-.25,1.18-.25,2.29-.84,3.42-1.29.09.17.18.35.28.52-1.57,1.02-3.14,2.03-4.7,3.04.88,1.29,3.38,1.66,5.1.55,1.9-1.22,3.87-1.86,6.15-1.31.7.17,1.45.11,2.68.18-.69-3.27-1.32-6.31-2-9.52.43.22.76.39,1.08.55-.09-.52-.34-.9-.64-.96-2.84-.51-3.65-1.43-3.74-4.35-.08-2.55-2.12-5.44-4.07-5.79-2.59-.46-6.36,1.1-7.23,3.01-1.72,3.77-3.43,7.55-5.12,11.34-.17.37-.21.79-.44,1.7,1.17-1.31,1.98-2.2,2.78-3.1.11.07.23.14.34.21-.17.53-.35,1.07-.52,1.6.12.12.24.25.35.37,2.05-1.54,4.1-3.07,6.15-4.61.08.05.16.1.24.15-1.48,1.76-2.96,3.51-4.73,5.61,2.1-.63,3.82-1.15,5.53-1.66-1.06.91-1.5,3-3.58,1.87-.38.58-.76,1.16-1.4,2.13ZM274.85,267.68c-.28.07-.56.14-.83.21.65,2.85,1.3,5.7,1.95,8.55.29-.07.59-.14.88-.2-.67-2.85-1.33-5.7-2-8.56Z"/>
      <path class="cls-1" d="M318.11,179.16c.39.26.79.52,1.49.98-1.5,2.25-3.06,4.59-4.63,6.94l.22.3c1.04-.63,2.06-1.29,3.13-1.87,2.27-1.25,2.67-3.91,4.32-5.64.99-1.04,1.75-2.29,2.67-3.51q.47,1.06-2.34,5.48c-1.09,1.7-2.23,3.37-3.48,5.26,3.51-.26,5.95-2.01,8.1-4.3,2.16-2.3,4.26-4.67,6.49-6.91.81-.82,1.9-1.35,3.02-2.11-.6-.45-.9-.68-1.27-.96.26-.13.4-.26.56-.28,3.56-.47,6.98-1.29,10.32-2.71,1-.42,2.71.53,3.96,1.13.72.35,1.17,1.26,1.91,2.11-.58.06-.96.1-.87.09.09,1.81.21,3.45.24,5.09.07,3.36-1.17,6.37-2.81,9.18-.88,1.51-2.23,2.74-3.37,4.09-.78.92-1.66,1.77-2.37,2.75-.99,1.36-2.13,2.36-3.78,2.97-4.19,1.56-8.23,3.49-12.45,4.96-2.78.97-5.72,1.56-8.64,2.01-3.8.58-7.64,1.01-11.48,1.21-2.72.14-5.48-.09-7.98-1.48,7.22,1.55,14.1-1.06,21.16-1.35.02-.14.04-.29.05-.43-1.1-.69-2.19-1.38-3.29-2.07l.21-.44c.5.24,1.06.4,1.48.74,1.4,1.11,3,1.44,4.65,1,2.44-.65,4.83-1.48,7.21-2.33.33-.12.49-.73.99-1.51,2.7-.33,5.96-.66,8.45-3.32-1.8,0-3.36.08-4.91-.03-1.09-.08-2.2-.31-3.23-.65-4.67-1.56-9.38-3-14.34-3.21-1.77-.08-3.57.17-5.34.35-.48.05-.93.35-1.62.62,6.61,2.58,12.42,6.6,19.67,6.36-2.87,1.05-5.71.8-8.35-.24-4.05-1.6-7.97-3.54-11.96-5.28-.41-.18-.96-.02-1.67-.02.34.61.79,1.05.71,1.36-.09.38-.81.99-.95.91-3.18-1.68-6.64-1.59-10.49-1.48.4-.75.62-1.15.84-1.56.03-.03.09-.08.18-.15,3.4-.38,6.93-.35,10.17-1.3,2.04-.6,3.94-2.41,5.4-4.11,1.65-1.94,2.73-4.36,4.06-6.58l-.05-.05ZM349.84,173.83c-.16-.11-.32-.22-.49-.32-4.95,3.86-9.91,7.73-14.93,11.64,3.23.94,6.59,1.99,10,2.86.48.12,1.41-.42,1.73-.92.93-1.43,2.02-2.91,2.4-4.53.68-2.85.88-5.82,1.28-8.73ZM327.79,184.82c.13.19.26.37.39.56,2.3-.96,4.73-1.69,6.86-2.93,2.29-1.33,4.3-3.16,6.45-4.73.71-.52,1.58-.83,2.26-1.39,1.19-.98,2.3-2.06,3.42-3.12.78-.73,1.53-1.49,2.29-2.23l-.34-.41c-.3.08-.6.16-.9.25-2.33.74-4.62,1.72-7,2.15-1.78.32-3.21.97-4.43,2.19-1.97,1.98-3.95,3.95-5.87,5.98-1.11,1.17-2.1,2.45-3.14,3.68ZM320.75,188.2c-.03.26-.06.51-.09.77.47.1.96.12,1.39.31.64.27,1.22.66,1.84.96.27.13.59.21.89.24.55.07,1.13,0,1.66.15,3.16.86,6.29,1.83,9.47,2.63,4.1,1.02,6.5-.13,8.55-4.23-3.13.17-6.05.28-8.96.5-.88.07-1.67.37-1.18-1.13h3.83c-2.95-1.51-9.05-2.09-10.35-1.02,1.86.35,3.59.68,5.33,1.01,0,.18,0,.36,0,.53-1.91,1.34-3.96.08-5.96-.1-2.14-.19-4.27-.42-6.41-.62Z"/>
      <path class="cls-1" d="M183.48,103.28c-2.16-.62-4.33-1.23-6.49-1.87-.39-.11-.74-.36-1.11-.53-2.51-1.11-3.57-.7-4.97,1.97,1.89,1,3.8,2,5.7,3.01-.11.22-.21.43-.32.65-1.12-.5-2.26-.95-3.35-1.5-3.26-1.64-4.05-1.46-5.8,1.79-2.06,3.81-4.01,7.69-6.03,11.52-.5.94-1.05,1.88-1.73,2.69-.23.28-.91.2-1.86.36,1.1-2.59,1.84-4.87,2.99-6.92,2.18-3.87,4.61-7.6,6.89-11.41.25-.41.3-1,.29-1.5,0-3.52-.39-7.08.01-10.55.46-3.96,2.51-7.39,5.23-10.34.25-.27.8-.25.84-.26.54-.86.79-1.73,1.37-2.11,3.27-2.14,6.44-4.58,9.99-6.12,4.29-1.86,8.78-3.71,13.75-1.89,1.65.61,3.54.55,5.32.86.68.12,1.32.42,2.02.65.52-1.04.68-1.02,2.39.49,1.33-.92,2.54-.83,3.56.5.92-1.14,3.73-1.34,5.21-.29-2.36,1.06-4.79,1.03-7.1.75-2.76-.33-4.89.17-6.46,2.61-1.49,2.31-3.12,4.52-4.63,6.81-.43.65-.62,1.46-.92,2.19.12.18.25.35.37.53,1.76-.79,3.68-1.36,5.25-2.43,3.81-2.6,7.47-5.43,11.18-8.17.52-.38,1.02-.77,1.62-1.06-3.88,4.86-8.94,8.31-14.53,11.85,2.58.55,4.73,1.02,6.78,1.45,1.56-.22,3.18-.45,4.79-.68.05.14.09.29.14.43-1.49.99-3.27,1.4-4.99,1.25-2.42-.21-4.81-.88-7.2-1.36-.51-.1-1.05-.45-1.52-.36-2.9.54-5.78,1.17-8.67,1.78-.57.12-1.14.3-1.33.35-.65.77-1.02,1.51-1.61,1.87-3.3,2-6.69,3.86-9.98,5.87-1.41.86-2.68,1.96-4.13,3.04,3.22,1.47,6.11,2.79,9,4.12l.05-.04ZM178.86,79.32c-.32.14-.7.2-.94.43-2.25,2.11-4.09,4.52-4.93,7.54-.32,1.14-.04,2.62-.69,3.45-1.12,1.44-.56,2.94-.81,4.39-.21,1.2-.31,2.43-.55,3.63-.06.27-.51.47-.77.7,1.04.84,2.04.4,2.42-1.19.24-1.01.28-2.09,1.4-2.61l-.1.05c.37.35.75.69,1.05.98,1.89-1.04,3.71-2.24,5.68-3.06,2.1-.88,3.49-2.36,4.86-4.06.42-.52.57-.94.82-1.48.43-.92,1.53-1.52,1.96-2.44,1.17-2.49,2.13-5.07,3.2-7.61.13-.3.43-.54.65-.8.21.11.41.22.62.32-1.53,3.59-3.07,7.17-4.5,10.53,2.4-.74,4.86-1.46,7.27-2.28.53-.18,1.03-.67,1.35-1.15,1.46-2.18,2.72-4.5,4.29-6.59,1.3-1.73,2.94-3.2,4.68-5.05-2.72-.41-5.17-1-7.63-1.1-2.41-.1-4.86.2-7.27.52-1.62.22-3.2.78-4.55,1.13-.35.4-.61.81-.97,1.09-1.79,1.36-3.61,2.7-5.43,4.03-.36.26-.79.43-1.19.64h.09Z"/>
      <path class="cls-1" d="M223.65,209.39c.73,3.07-1.26,5.26-2.76,7.4-3.75,5.36-9.43,7.82-15.65,8.59-4.82.59-9.74.21-14.19-2.18-1.29-.69-2.37-1.79-3.55-2.69.09-.15.17-.3.26-.46.44.15.88.31,1.32.46,0,0-.04-.05-.04-.05.53.44,1.03.9,1.58,1.3,1.55,1.15,3.42.8,5.15.99,1.25.14,2.59-.04,3.8-.39.87-.25,1.52-1.16,2.37-1.56,3.63-1.72,6.84-3.9,9.21-7.25,2.85-4.02,4.62-8.83,9.17-12.01-3.62.05-6.81.14-9.78,1.6-.47.23-.98.43-1.49.53-.91.19-1.68-.15-1.45-1.15.37-1.59-.75-1.64-1.69-2.08-1.82-.84-4.13-.48-5.58-2.24,0,0,.04.07.04.07.28-.28.66-.86.82-.8,2.19.77,4.51,1.37,6.48,2.54,1.54.91,4.03,1.38,5.95,0-2.66-1.41-5.19-2.75-7.71-4.08,2.72-.05,5.09.87,6.98,2.62,1.37,1.26,2.65,1.85,4.54,1.4,1.04-.25,2.23.11,3.98.24-1.74-1.66-3.17-3.02-4.62-4.41.15-.2.36-.48.57-.75l-.04.05c.86.85,1.74,1.68,2.56,2.57.67.72,1.16,2.02,1.91,2.19,2.09.45,4.28.44,6.67.63-1.61-2.07-3.03-3.9-4.46-5.74l-.06.05c1.23,1.37,2.58,2.64,3.65,4.12,1.1,1.51,2.37,2.28,4.22,2.75,5.61,1.43,11.13,3.18,15.77,6.87.3.24.45.68.67,1.03-.13.11-.27.22-.4.32-2.58-1.28-5.08-2.74-7.75-3.8-3.02-1.2-6.16-2.16-9.31-2.94-.74-.18-2.01.57-2.59,1.26-1.18,1.41-2.11,3.05-3.06,4.64-.42.71-.75,1.24-1.53.43,1.4-1.99,2.84-3.97,4.17-6.01.27-.42.26-1.56.16-1.59-1.11-.3-2.32-.78-3.38-.57-3.81.73-6.8,2.68-8.63,6.29-.91,1.79-2.21,3.38-3.3,5.08-.16.25-.28.77-.14.91,1.01,1.06.23,1.9-.35,2.67-1.07,1.42-2.25,2.76-3.36,4.15-.3.37-.53.8-1.01,1.52,7.87-1.43,12.8-5.82,15.88-12.53Z"/>
      <path class="cls-1" d="M298.54,191.2c-.09.07-.15.13-.18.15-.68.75-1.36,1.49-2.12,2.33,1.9.86,3.61,1.35,4.28,3.28-1.5-.8-3.09-1.47-4.48-2.43-1.52-1.05-3.03-.92-4.81-.7.82,2,1.54,3.76,2.25,5.52,0,0,.07-.06.07-.06-.79-1.07-1.76-2.06-2.32-3.24-1.04-2.22-1.12-2.53-3.37-1.45-3.35,1.61-6.53,3.57-9.79,5.37-.49.27-1.03.47-1.55.7,0,0,.04.04.04.04,3.98-2.32,7.96-4.64,11.95-6.96.35-.2.74-.32,1.25-.54-.32-.42-.58-.77-.61-.8.47-.72,1.06-1.28,1.22-1.94,1.03-4.25,2.89-7.93,6.83-10.19,2.12-1.22,4.28-2.35,6.48-3.41.51-.25,1.24-.04,1.62-.04.5-.6.8-1.33,1.28-1.5,3.6-1.19,7.17-2.69,10.88-3.27,3.24-.51,6.64.04,9.97.15,1.99.06,3.98.17,6.02.6-3.23-.58-5.24,1.1-6.85,3.64-.17-.16-.33-.33-.5-.49.63-.92,1.27-1.85,1.95-2.85-1.76-.36-3.13.35-4.3,1.7-1.07,1.23-2.08,2.53-3.29,3.6-.57.5-1.56.51-2.36.74,0,0,.05.05.05.05.64-1.14,1.29-2.27,1.95-3.44-.53.19-1.3.25-1.78.67-2.98,2.58-5.97,5.15-8.79,7.89-2.85,2.78-5.79,5.31-9.78,6.28-.43.1-.81.39-1.22.59ZM291.48,191.57c4.06.4,4.04.38,6.21-2.08.7-.79,1.55-1.45,2.21-2.06,1.59-5.11,4.6-8.92,9.47-11.29-.41-.21-.7-.34-.86-.25-3.61,2.03-7.29,3.94-10.77,6.17-3.37,2.16-5.26,5.48-6.26,9.49ZM300.05,189.2c.11.13.23.26.34.39,2.55-2.18,5.08-4.38,7.65-6.54,3.08-2.58,6.13-5.2,9.32-7.63,1.36-1.04,3.05-1.64,4.59-2.44-.13-.18-.25-.37-.38-.55-9.49,2.51-16.73,8-21.52,16.76Z"/>
      <path class="cls-1" d="M289.32,219.38c.41-.19.81-.46,1.24-.56,1.19-.26,2.43-.32,3.58-.7,1.61-.53,1.76-1.28.99-2.34.52-.16,1.44-.15,1.71-.57,1.75-2.63,4.6-1.84,6.96-2.23,4.16-.69,7.47,2.04,11.04,3.54,2.93,1.23,4.35,3.83,4.87,6.88.11.65-.12,1.37-.29,2.04-.81,3.22-1.78,6.36-4.29,8.78-.46.44-.63,1.25-.78,1.92-.66,2.94-2.87,3.98-5.48,4.32-2.01.27-4.12.55-5.87-.96-.86-.74-1.8-1.25-2.85-1.71-.83-.36-1.58-1.25-2.02-2.09-1.17-2.27-2.03-4.69-3.23-6.94-1.13-2.1-1.02-4.27-.91-6.49.03-.68,0-1.37,0-1.67-1.77-.48-3.22-.88-4.68-1.28,0,0-.01.05-.01.05ZM302.47,232.5c1.11,0,2.03.28,2.4-.05,1.81-1.61,3.98-3.12,5.07-5.17,1.18-2.23,2.31-4.38,4-6.27,1.46-1.64,1.13-3.18-.72-4.3-.59-.35-1.2-.66-1.88-1.03-.08.56-.15,1-.21,1.44-.57-2.12-2.14-2.48-3.93-2.75-3.94-.59-7.31.88-10.55,2.57-.07.91-.11,1.75-.21,2.59-.32,2.61-.9,5.21-.91,7.82,0,1.46.72,3.06,1.52,4.34.36.57,2.08,1,2.56.64,2.13-1.57,4.04-3.44,6.01-5.22.11-.1.1-.33.16-.49.62-1.62,1.04-3.35,1.93-4.81.85-1.41,1.81-3.02,3.97-2.93-.52,1.06-1.21,1.93-2.02,2.68-1.09,1.01-2.25,1.82-1.97,3.67.27,1.81-.84,3.34-2.35,3.98-1.56.66-1.58,2.12-2.87,3.28ZM298.09,234.42c.8.92,1.15,1.5,1.65,1.87,2.93,2.22,6.18,2.8,9.66,1.6.66-.23,1.43-.07,1.91-1.2.79-1.88,2.41-3.4,3.32-5.26,1.36-2.75,2.49-5.63,3.54-8.51.84-2.29-.36-4.22-2.98-4.88,1.3,2.66.22,4.56-1.54,6.5-1.26,1.38-2.28,3.11-2.97,4.85-1.01,2.54-2.2,3.81-4.13,4-2.56,2.91-5.37,1.16-8.47,1.04Z"/>
      <path class="cls-1" d="M175.65,114.05c-.43.64-.72,1.62-1.31,1.85-3.14,1.22-4.34,3.79-5.23,7.08.77-.22,1.49-.25,1.96-.6,1.45-1.07,2.75-2.35,4.21-3.4,1.14-.82,2.42-1.44,3.64-2.15.88-.51,1.74-1.06,2.66-1.49.67-.31,1.42-.44,2.21-.68q-.03-.9-3.58-.83,1.92-1.75,4.29-.9c1.82.65,3.63,1.33,5.46,1.95,4.49,1.5,8.02,4.42,11.35,7.64.36.35.74.69,1.47,1.37-.86,0-1.38.14-1.77-.02-5.76-2.32-11.13-.77-16.47,1.51-2.62,1.12-5.45,1.18-8.03.05-3-1.31-5.67-1.38-8.66.15-1.98,1.01-4.37,1.24-6.59,1.76-.26.06-.6-.24-.9-.38-.04-.18-.08-.36-.12-.54,1.22-.39,2.43-.81,3.66-1.15,2.75-.75,4.6-2.31,4.97-5.3.29-2.29,2.05-3.55,3.58-4.95.42-.38,1.01-.6,1.38-1.02.77-.86,1.31-.46,1.86.2.02-.06,0-.12-.05-.16ZM190.1,121.56c-4.37-1.96-13.01-1.15-15.29,1.34,5.29,2.37,10.34,1.15,15.29-1.34ZM198.04,121.3c-1.78-2.23-4.09-3.56-6.4-3.94-1.85-.31-3.96.92-5.95,1.46.04.15.07.29.11.44,3.98.66,7.96,1.33,12.24,2.04Z"/>
      <path class="cls-1" d="M183.44,103.32c2.41,1.29,4.82.54,7.37.25-.47-.87-.79-1.47-1.11-2.07.05-.15.1-.3.15-.46,6.12,2.71,11.31.7,16.73-2.78-2.12-.12-3.74-.1-5.32-.34-1.59-.24-3.15-.74-5.08-1.21,3.13.25,5.88.33,8.59.74,3.21.49,4.84-1.33,6.4-3.85-.68-.08-1.18-.13-1.74-.19,1.09-.75,2.18-1.35,3.08-2.16,1.42-1.28,1.73-3.05,2.29-4.86,1.33-4.34.01-9.34,3.82-13.56-.21,1.44-.35,2.43-.5,3.42-.44,2.93-.91,5.86-1.29,8.8-.29,2.26-.54,4.48-2.12,6.34-.57.67-.64,1.75-1.13,2.51-2.39,3.64-5.71,6.28-9.44,8.42-.33.19-.94-.1-1.55-.19-.15,1.34-1.32,1.43-2.62,1.72-2.83.62-5.79-.2-8.61,1.21-1.87.93-4.19.99-6.34,1.27-.77.1-1.61-.27-2.42-.43.23-.59.47-1.18.69-1.78.1-.27.16-.57.24-.85,0,0-.05.04-.05.04Z"/>
      <path class="cls-1" d="M192.63,196.35c.78-3.31,3.11-5.48,5.63-7.47.95-.76,2.06-1.35,3.14-1.91,5.01-2.6,10.16-2.95,15.29-.49,1.39.66,2.49,1.95,3.66,3.01.12.11-.21.69-.33,1.06l.07-.07c-1.57-1.02-2.93-2.55-5.11-2.04-.33-1.84-1.69-.97-2.7-1.14-5.73-.98-10.53,1.2-14.91,4.48-1.74,1.3-3.11,3.11-4.65,4.69-.07-.07-.1-.11-.1-.11Z"/>
      <path class="cls-1" d="M268.81,215.27c1.06-.93,1.99-2.15,3.22-2.75,3.93-1.93,8.08-2.67,12.55-2.44,3.07.16,5.67,1.19,8.36,2.32,1.21.51,1.9-.25,2.48-1.27.28-.49.89-.78,1.36-1.17-.08.65.09,1.52-.27,1.91-1.78,1.95-2.92,4.57-5.64,5.54-.21.07-.42.14-.66.22-1.22-1.9,1.31-1.9,1.41-3.08-.43-.49-.88-1-1.12-1.26-1.18-.26-2.21-.41-3.19-.73-5.78-1.87-11.41-1.36-16.88,1.12-.65.29-1.1,1.02-1.65,1.55,0,0,.04.04.04.04Z"/>
      <path class="cls-1" d="M189.07,220.51c.2-.93.4-1.86.63-2.9-4.36-1.84-8.44-4.56-10.8-9.01,1.6-.9,2.84-1.63,4.11-2.28.32-.16.76-.07,1.15-.1.1.1.2.19.3.29-1.35,1.01-2.7,2.02-4.26,3.18,2.13,1.61,4.24,3.14,6.27,4.76,2.28,1.83,4.94,1.71,7.57,1.47.25,2.07-1.15,3.74-3.09,3.64-.92-.05-1.46.21-1.93.88l.04.05Z"/>
      <path class="cls-1" d="M273.75,141.36c-.19-.72-.63-1.48-.52-2.15.4-2.34-.4-4.5-2.38-5.42-.47-.22-1.18.13-1.71-.02-2.3-.68-4.51-3.73-4.19-6.26.53-4.13.86-8.28,1.46-12.45v3.68c.29-.61.42-.9.79-1.69,0,2.74.75,5.37-.19,7.08-1.23,2.23.19,4.26-.57,6.27-.09.23.84,1.03,1.41,1.3,1.95.91,4.22,1.43,5.3,3.52.73,1.42,1.2,2.99,1.58,4.55.09.37-.69.95-1.07,1.43.02.06.04.12.08.17Z"/>
      <path class="cls-1" d="M184.46,206.51c-.1-.1-.2-.2-.3-.29.05-.43-.06-1.01.18-1.28,2.37-2.73,4.8-5.43,7.24-8.1.24-.26.7-.33,1.06-.48,0,0,.04.04.1.11.06,1.23.69,1.22,1.75,1.07,1.99-.27,4.14-1.19,5.87.74,0,0-.04-.07-.04-.07.32,1-.31.9-.94.82-1.84-.26-3.69-.46-5.52-.79-1.31-.24-2.2.12-2.96,1.25-1.07,1.59-2.21,3.15-3.49,4.58-.84.94-1.96,1.64-2.96,2.44Z"/>
      <path class="cls-1" d="M117.17,78.78c.42-.93.75-1.91,1.28-2.78.35-.58,1.02-.96,1.47-1.5,1.48-1.79,1.27-3.17-.72-4.31-.95-.55-2-1.01-3.07-1.26-2.13-.51-3.05-2.23-3.64-3.93-.3-.88.55-2.17.87-3.27.15.05.3.11.45.16.18.87.31,1.75.56,2.6.77,2.63,2.73,3.74,5.24,4.53,3.24,1.03,3.54,3.26,1.12,5.66-1.28,1.27-2.4,2.69-3.59,4.04,0,0,.04.04.04.04Z"/>
      <path class="cls-1" d="M43.95,108.43c.94-1.81,1.88-3.61,2.83-5.42.14-.26.21-.62.42-.76,2.24-1.48,3.25-3.32,1.7-6,3.72,6.62,6.57,7.28,13.63,7.52-.61.43-.92.84-1.24.85-1.58.05-3.22.27-4.72-.09-1.7-.41-2.71.04-3.52,1.59-.29-1.08,1.57-1.9.08-2.95-.84-.59-1.4-1.6-2.26-2.15-.41-.26-1.52-.1-1.83.28-1.32,1.59-2.47,3.33-3.67,5.02-.49.68-.95,1.38-1.43,2.07v.03Z"/>
      <path class="cls-1" d="M92.68,56.81c-1.22.34-2.45.64-3.65,1.02-1.56.49-3.09,1.09-4.66,1.56-1.1.33-2.26.58-2.7-.69-2.84,1.63-4.05-.33-5.36-2.11,2.72.23,5.44.68,8.14.62,2.71-.05,5.41-.61,8.11-.95.04.18.08.37.12.55Z"/>
      <path class="cls-1" d="M124.6,58.15c-.34.04-.68.08-1.39.17.39,1.02.58,2.05,1.12,2.85,1.61,2.38,1.97,5.07,2.25,7.85-1.08-2.36-1.91-4.82-3.27-6.93-1.02-1.58-2.6-2.96-4.22-3.93-.7-.42-2.16.42-3.26.72-.39.11-.74.34-1.21.28,1.78-1.16,3.78-1.76,5.89-1.77,1.37-.01,2.97-.75,4.05.81,0,0,.04-.05.04-.05Z"/>
      <path class="cls-1" d="M65.69,93.7c-.76,1.02-1.56,1.18-2.87.75-1.33-.43-2.86-.33-4.3-.27-2.03.09-4.05.42-6.09.53-.51.03-1.05-.42-1.47-.99,2.34-.33,4.68-.62,7.02-.99,2.66-.42,5.24-.26,7.67,1.02,0,0,.03-.05.03-.05Z"/>
      <path class="cls-1" d="M67.32,100.07c-3.77-.54-7.43-1.16-11.2-.42-.46.09-1.06-.56-1.37-1.22,1.94-.35,3.87-.7,5.7-1.04,2.29.89,4.58,1.79,6.87,2.68Z"/>
      <path class="cls-1" d="M205.81,92.91c-.27,1.31-1.09,1.76-2.32,1.36-1.49-.48-2.95-1.45-4.44-1.48-3.01-.07-4.87-2.39-7.36-3.48,2.04.69,4.04,1.53,6.12,2.05,2.64.66,5.34,1.07,8.02,1.58l-.02-.03Z"/>
      <path class="cls-1" d="M128.67,84.69c.18-.47.36-.94.55-1.43,1.17.87.85,1.55-1.83,3.84-.79-3.61-1.56-7.16-2.32-10.61,2.51,2.03,2.61,5.25,3.12,8.29l.47-.1Z"/>
      <path class="cls-1" d="M74.2,50.36c3.82,1.38,7.64,2.76,11.46,4.14-.05.13-.1.27-.15.4-4.47-.98-8.94-1.96-13.4-2.94-.03.07-.07.13-.1.2.83-.1,1.67-.19,2.65-.31-.33-.43-.58-.75-.83-1.08.12-.14.25-.28.37-.42Z"/>
      <path class="cls-1" d="M269.57,231.96c1.78-.12,2.72,1.18,2.76,3.35.02,1.19-.09,2.4.68,3.54.27.4-.26,1.33-.42,2.02-.24,0-.49-.02-.73-.02-.75-2.92-1.5-5.83-2.29-8.89Z"/>
      <path class="cls-1" d="M285.94,132.27c-1.58-.94-2.32-2.15-1.59-3.99.36-.91.78-2.1,1.83-1.51.66.36,1.07,1.76,1.01,2.65-.06.97-.8,1.9-1.25,2.85Z"/>
      <path class="cls-1" d="M97.71,185.4c-1.15,3.61-6.62,7.08-10.21,6.28,4.05-1.41,7.65-3.04,10.21-6.28Z"/>
      <path class="cls-1" d="M274.6,169.28v.06c.19-.48.28-1.02.55-1.44,1.01-1.56,1.19-3.19.72-4.98-.33-1.25-.49-2.55-.73-3.83,0,0-.05.02-.05.02.34.84.78,1.64.99,2.51.55,2.31,1.6,4.58.71,7.03-.15.42-.34.84-.58,1.43-.62-.31-1.12-.56-1.62-.8Z"/>
      <path class="cls-1" d="M101.85,126.87c1.24-1.77,3.54-2.39,5.74-1.46,1.07.45,2.1,1.03,3.09,1.64.94.58,1.82,1.26,2.96,2.07-1.62-.85-2.97-1.57-4.34-2.27-1.78-.91-3.54-.92-5.38-.06-.58.27-1.39.05-2.1.05,0,0,.03.04.03.04Z"/>
      <path class="cls-1" d="M77.67,194.65c2.48-.89,4.97-1.75,7.43-2.7.55-.21,1.01-.74,1.44-1.18.41-.43.74-.95,1.19-1.36-1.41,3.73-4.69,5.65-8.63,5.21-.46-.05-.93,0-1.41.01,0,0-.02.03-.02.03Z"/>
      <path class="cls-1" d="M43.95,108.4c-.77,3.19.31,5.93,2.06,8.53.27.4.26.99.43,1.68-3.02-1.2-4.01-5.8-2.48-10.17,0,0-.01-.04-.01-.04Z"/>
      <path class="cls-1" d="M274.95,247.86c-1.41.28-2.07-.4-2.26-1.74-.16-1.16-.48-2.31-.5-3.46,0-.57.52-1.15.8-1.69.51,1.53.97,2.76,1.33,4.01.27.95.41,1.93.59,2.91,0,0,.04-.02.04-.02Z"/>
      <path class="cls-1" d="M310.11,193.82c2.13,1.47,4.32,2.85,5.88,4.97-.15.18-.29.35-.44.53-1.34-1.11-2.66-2.24-4.02-3.32-.29-.23-.76-.22-1.04-.45-.39-.33-.68-.78-1.01-1.18.21-.18.41-.36.62-.54Z"/>
      <path class="cls-1" d="M111.95,99.06c-2.31.22-4.59.27-7.12-1.03,2.16-.25,3.92-.58,5.67-.56.49,0,.97,1.04,1.45,1.62,0,0,0-.03,0-.03Z"/>
      <path class="cls-1" d="M302.92,197.57c2.25,1.37,4.31,2.63,6.47,3.95-2.55.23-5.77-1.7-6.47-3.95Z"/>
      <path class="cls-1" d="M281.57,124.96c-.14,1.35-.27,2.7-.44,4.05-.08.64-.24,1.26-.37,1.92-1.42-.16-1.84-.91-1.1-2.48.57-1.19,1.26-2.33,1.91-3.48,0,0,0-.02,0-.02Z"/>
      <path class="cls-1" d="M285.69,120.03c.36-2.23.45-4.54,2.49-6.64-.81,2.52-.12,5.11-2.55,6.58,0,0,.07.06.07.06Z"/>
      <path class="cls-1" d="M60.15,141.13s.1,0,.1,0c-.98.68-1.77.65-2.72-.25-1.17-1.11-2.57-1.98-3.87-2.96,0,0-.05.03-.05.03.38-.01.85-.17,1.13-.01,1.83,1.02,3.61,2.12,5.41,3.19Z"/>
      <path class="cls-1" d="M74.64,54.72c3.03-.63,5.7.37,8.23,1.95-2.74-.65-5.49-1.3-8.23-1.95Z"/>
      <path class="cls-1" d="M129.84,81.78v-6.03c1.41,1.61,1.57,4.1,0,6.03Z"/>
      <path class="cls-1" d="M112.5,44.37c-.2-.84-.4-1.69-.64-2.69-.67.29-1.53.66-2.39,1.04-.01-.03-.03-.06-.04-.1,1.4-.82,2.79-1.64,4.26-2.5-.41,1.44-.82,2.84-1.21,4.24,0,0,.01,0,.01,0Z"/>
      <path class="cls-1" d="M285.69,120.03s-.07-.06-.07-.06c-.99,1.66-1.96,3.34-3,4.97-.11.17-.68.03-1.05.03,0,0,.01.02,0,.01.58-.67,1.19-1.32,1.76-2.01.8-.97,1.57-1.96,2.36-2.94Z"/>
      <path class="cls-1" d="M275.18,251.88c-.44-.24-.87-.48-1.39-.77.29-.37.55-.71.86-1.11-.44-.46-.82-.87-1.22-1.29.55-.3,1.03-.57,1.52-.84,0,0-.04.02-.04.02.33.99.71,1.98.92,3,.05.26-.46.63-.71.96,0,0,.06.04.06.04Z"/>
      <path class="cls-1" d="M262.39,136.59c-.92,1.66-1.77,1.84-2.73,1.14-.24-.17-.18-.75-.25-1.14h2.98Z"/>
      <path class="cls-1" d="M114.01,100.3c1.32-.65,2.64-1.3,3.96-1.95.12.14.25.29.37.43-.84.83-1.68,1.66-2.49,2.47-.72-.37-1.28-.66-1.84-.95,0,0,0,0,0,0Z"/>
      <path class="cls-1" d="M248.82,210.5c1.13-.41,3.52.39,3.81,1.22.06.18,0,.5-.13.61-.13.11-.47.15-.62.06-1.01-.59-2-1.22-3.06-1.88Z"/>
      <path class="cls-1" d="M289.32,219.38s.01-.05.01-.05c-.97-.63-1.95-1.26-3.11-2.01,2.39-1.09,2.63-.94,2.65,1.15,0,.31.29.61.45.91Z"/>
      <path class="cls-1" d="M262.38,143.42c.63-1.42,2.44-1.8,3.03-.99.11.15-.21.92-.41.94-.76.11-1.56.05-2.63.05Z"/>
      <path class="cls-1" d="M220.03,190.55c.57.17,1.39.16,1.67.55.85,1.14,1.5,2.43,2.23,3.66,0,0,.06-.05.06-.05-1.3-1.41-2.59-2.82-3.89-4.23l-.07.07Z"/>
      <path class="cls-1" d="M90.99,183.58c-1.64-.3-1.66-.45-.43-2.83,1.31.69,1.36,1.04.41,2.83h.02Z"/>
      <path class="cls-1" d="M315.99,157c1.32-1.97,3.6-2.07,5.53-2.86-1.84.95-3.69,1.9-5.53,2.86Z"/>
      <path class="cls-1" d="M293.54,199.29s-.07.06-.07.06c1.52,1.33,3.04,2.66,4.55,4-2.07-.72-3.62-2.02-4.49-4.06Z"/>
      <path class="cls-1" d="M74.32,60.88c-1.05-.34-2.1-.68-3.15-1.04-.57-.2-1.12-.45-1.67-.68.6-.88,3.2.04,4.78,1.73,0,0,.03,0,.03,0Z"/>
      <path class="cls-1" d="M273.75,141.36s-.06-.1-.08-.17c.56,1.67.58,3.68,2.74,4.35,0,0,0,0,0,0-1.38-.2-3.44-2.31-3.46-3.65,0-.18.52-.36.8-.54Z"/>
      <path class="cls-1" d="M90.97,183.58c-.37.95-.7,1.92-1.14,2.84-.14.3-.61.43-.93.65-.06-.41-.32-.98-.14-1.2.66-.82,1.47-1.53,2.23-2.29,0,0-.02,0-.02,0Z"/>
      <path class="cls-1" d="M257.27,129.43c.61.38,1.22.76,1.83,1.14-.28.29-.67.87-.83.81-.58-.21-1.09-.63-1.62-.97.21-.33.41-.66.62-.98Z"/>
      <path class="cls-1" d="M65.63,55.17c.71-1.35,1.43-2.7,2.14-4.05.12.06.24.12.35.17-.33,1.02-.71,2.03-.98,3.07-.23.89-.68,1.16-1.52.8h0Z"/>
      <path class="cls-1" d="M175.65,114.05s.06.1.05.16c.63-.95,1.36-1.33,2.26-.48.36-.47.72-.94,1.3-1.7-.26,2.43-1.28,2.88-3.61,2.02Z"/>
      <path class="cls-1" d="M272.24,205.55c-.01-.4-.2-1,0-1.18,1.4-1.27,2.87-2.45,4.32-3.66,0,0-.04-.04-.04-.04-1.04,1.11-2.1,2.2-3.12,3.34-.43.48-.77,1.03-1.15,1.54,0,0,0,0,0,0Z"/>
      <path class="cls-1" d="M91.91,179.78c-.66-.14-1.08-.23-1.55-.33.23-.95.47-1.9.7-2.84.09.01.18.03.27.04.18.97.36,1.93.58,3.13Z"/>
      <path class="cls-1" d="M65.63,55.17c1.43,1.44,1.42,2.86,0,3.52,0-1.16,0-2.34,0-3.52,0,0,0,0,0,0Z"/>
      <path class="cls-1" d="M124.92,82.52c.47.96.95,1.92,1.42,2.88l-.46.25c-.53-.91-1.06-1.81-1.59-2.72.21-.14.42-.27.63-.41Z"/>
      <path class="cls-1" d="M268,144.97c.75-.09,1.5-.19,2.25-.28.05.23.1.47.14.7-.75.17-1.5.35-2.25.52-.05-.31-.1-.62-.14-.94Z"/>
      <path class="cls-1" d="M52.69,110.74c1.21.43,1.25,1.2,0,3.38v-3.38Z"/>
      <path class="cls-1" d="M89.92,171.45c.96-1.01,1.92-2.03,2.88-3.04-.69,1.26-.96,2.94-2.88,3.04Z"/>
      <path class="cls-1" d="M260.94,109.23h.02s-.03-.09-.03-.09c.8,1.04,1.6,2.07,2.4,3.11-.2.13-.39.26-.59.39-.6-1.13-1.2-2.27-1.8-3.4Z"/>
      <path class="cls-1" d="M205.83,92.94c.9-.06,1.79-.12,2.79-.19-.07,1.7-.93,1.56-1.82,1.13-.39-.19-.66-.63-.99-.97,0,0,.01.03.01.03Z"/>
      <path class="cls-1" d="M156.42,124.74c.42-2.26,1.24-2.89,2.51-2.08-.79.66-1.6,1.33-2.51,2.08Z"/>
      <path class="cls-1" d="M187.78,100.42c-.93-.76-1.86-1.52-2.78-2.29.11-.14.22-.27.32-.41.94.74,1.89,1.48,2.83,2.23-.12.16-.25.31-.37.47Z"/>
      <path class="cls-1" d="M92.92,167.57c.84-1.19,1.68-2.38,2.52-3.57-.73,1.27-.71,3.06-2.52,3.57Z"/>
      <path class="cls-1" d="M51.1,135.67s.03,0,.03,0c1.52.02,2.32.8,2.47,2.3,0,0,.05-.04.05-.03-.85-.75-1.7-1.51-2.55-2.26Z"/>
      <path class="cls-1" d="M65.07,121.78c-1.16.29-2.32.57-3.48.86-.04-.2-.09-.39-.13-.59,1.17-.23,2.34-.47,3.51-.7.03.14.06.28.1.42Z"/>
      <path class="cls-1" d="M255.46,165.65c.22-.53.3-1.34.69-1.53,1.08-.54,2.27-1,3.46-1.19,3.12-.51,6.27-.86,9.19-1.25-1.85,3.03-9.01,5.16-11.61,3.11.07,1.42-.59,1.55-1.62.93-.03-.02-.07-.05-.11-.07Z"/>
      <path class="cls-1" d="M242.22,180.12c.75,1.96,1.24,3.82.4,6-.44,1.15-.72,3,1.41,3.58-.13.13-.26.27-.38.4-.54-.41-1.12-.77-1.6-1.24-1.86-1.82-2.17-3.53-1.12-5.87.41-.92.82-1.84,1.23-2.76.02,0,.04-.04.06-.11Z"/>
      <path class="cls-1" d="M173.66,159.95c-.96,1.14-1.92,2.29-2.87,3.43-.6.72-1.22,1.27-2.34.35.64-.26,1.16-.43,1.64-.67,1.86-.94,2.2-2.06,1.23-3.88-.25-.46-.52-.91-.72-1.4-.23-.58-.38-1.19-.34-1.92.4.52.73,1.14,1.22,1.54.42.35,1.03.46,1.65.7.11.39.31,1.14.52,1.89,0,0,0-.06,0-.06Z"/>
      <path class="cls-1" d="M160.23,172.92c-.55-.71-1.34-1.34-1.58-2.14-.47-1.57-.63-3.23-.61-4.94.82,2.01,1.67,4,2.43,6.03.11.29-.2.73-.32,1.1,0,0,.09-.06.09-.06Z"/>
      <path class="cls-1" d="M111.35,146.33c.36.34.82.63,1.07,1.04.49.82.86,1.71,1.27,2.58-.16.08-.32.16-.49.23-.6-1.31-1.19-2.61-1.79-3.92,0,0-.07.07-.07.07Z"/>
      <path class="cls-1" d="M94.85,144.64c.88-.56,1.79-1.56,2.51.17,0,0-.03-.13-.03-.13-.85,1.58-1.66.57-2.48-.04Z"/>
      <path class="cls-1" d="M103.62,150.06c.65,2.02,1.3,4.04,1.96,6.06.66,2,1.34,3.99,2.14,6.36-2.3-2.15-3.25-4.57-4.01-7.1-.32-1.06-.68-2.12-.86-3.2-.13-.78-.51-1.81.8-2.11h-.03Z"/>
      <path class="cls-1" d="M103.66,150.06c-.4-.21-.8-.42-1.44-.76-.18.82-.33,1.51-.49,2.2l.02-.03c-1.12,1.9-2.24,3.8-3.36,5.7,1.98-4.5,3.28-9.34,6.37-13.72-.44,2.52-.79,4.55-1.14,6.59,0,0,.04,0,.04,0Z"/>
      <path class="cls-1" d="M101.73,151.51c1.35,3.33,1.96,8.97.64,10.17-.21-3.4-.42-6.79-.62-10.2,0,0-.02.03-.02.03Z"/>
      <path class="cls-1" d="M173.98,95.65c-.26-.22-.78-.5-.75-.64.44-1.59.96-3.15,1.48-4.72.04-.14.24-.27.22-.38-.53-3.69,1.31-6.55,3.23-9.4.26-.38.47-.8.7-1.2,0,0-.09,0-.09,0-.02.48.11,1.03-.08,1.43-1.99,4.2-2.82,8.71-3.66,13.23-.12.63-.76,1.15-1.16,1.73,0,0,.1-.05.1-.05Z"/>
      <path class="cls-1" d="M316.7,143.98c2.63.34,4.25,3.24,3.04,5.4-1.01-1.79-2.02-3.59-3.04-5.4Z"/>
      <path class="cls-1" d="M315.39,146.24c.56.89,1.13,1.77,1.69,2.66-.21.14-.41.28-.62.41-.62-.88-1.24-1.77-1.86-2.65.26-.14.52-.28.79-.42Z"/>
      <path class="cls-1" d="M320.42,142.95c.65,1.14,1.29,2.28,1.94,3.42-.1.07-.2.13-.3.2-.75-1.06-1.51-2.12-2.26-3.18.21-.15.42-.29.63-.44Z"/>
      <path class="cls-1" d="M159.26,159.54c.69-.43,1.38-.87,1.88-1.18.21.71.39,1.33.65,2.2-.83-.18-1.64-.35-2.46-.53-.02-.17-.04-.33-.06-.5Z"/>
      <path class="cls-1" d="M164.96,149.91c.14,1.3.29,2.6.43,3.91-.16.01-.31.03-.47.04-.1-1.31-.21-2.61-.31-3.92.11,0,.23-.02.34-.03Z"/>
      <path class="cls-1" d="M110.41,181c-1.18-3.28-.95-6.52.44-9.66.69-1.56,1.58-3.02,2.38-4.53-.26,1.81-.55,3.62-.79,5.44-.29,2.21-.51,4.44-.83,6.65-.06.44-.44.83-.68,1.24-.17.29-.34.57-.52.86Z"/>
      <path class="cls-1" d="M229.93,166.22c-1.4.08-1.4-1.11-1.53-1.93-.2-1.31-.14-2.66-.2-3.99,0,0,0,0,0,0,.84,1.02,2.58,1.67,1.11,3.55-.3.39.39,1.56.62,2.37h0Z"/>
      <path class="cls-1" d="M229.93,166.22c.32.63.57,1.3.97,1.88.48.7,1.08,1.32,1.92,2.32-2.4-1.25-3.29-2.7-2.89-4.19,0,0,0,0,0,0Z"/>
      <path class="cls-1" d="M247.97,161.29c-.54-.12-1.08-.24-1.88-.42.21.91.4,1.71.59,2.52-.08.04-.17.08-.25.11-.49-1.26-.97-2.52-1.56-4.05,1.36.46,2.81.24,3.04,1.99.04-.04.06-.1.06-.16Z"/>
      <path class="cls-1" d="M247.97,161.29c0,.07-.02.12-.06.16,1.64.64,2.12,1.74,1.91,4.81-.69-1.85-1.27-3.41-1.85-4.98Z"/>
      <path class="cls-1" d="M95.78,34.06c.93,1.98,1.87,3.95,2.8,5.93-.1.04-.19.08-.29.12-1.41-2.06-2.82-4.13-4.39-6.43.88.19,1.4.3,1.92.41l-.04-.04Z"/>
      <path class="cls-1" d="M95.82,34.1c-.4-.59-.8-1.19-1.19-1.78.08-.07.16-.15.25-.22,1.42,1.61,2.84,3.22,4.41,5-1.28-1.11-2.39-2.07-3.49-3.03,0,0,.03.04.03.04Z"/>
      <path class="cls-1" d="M186.96,156.59c-.63-.98-1.2-1.5-1.24-2.05-.02-.35.97-1.15,1.11-1.07.59.35,1.14.89,1.44,1.49.1.19-.62.79-1.32,1.63Z"/>
      <path class="cls-1" d="M184.95,160.14c.42.77.86,1.23.77,1.48-.22.59-.71,1.07-1.09,1.6-.25-.4-.73-.83-.69-1.2.06-.53.51-1.01,1.01-1.88Z"/>
      <path class="cls-1" d="M81.5,157.67c-.25.63-.33,1.54-.8,1.84-2.14,1.38-4.38,2.61-6.61,3.84-.28.16-.74-.01-1.12-.03.54-.4,1.09-.79,1.61-1.21,1.89-1.52,3.75-3.09,5.67-4.56.24-.19.82.07,1.24.12Z"/>
      <path class="cls-1" d="M299.49,136.97c-.44,1.51-.87,3.02-1.31,4.54.13.07.26.14.4.21.44-.42.88-.84,1.32-1.26-.92,1.62-1.13,3.85-3.54,4.19v1.55c-1.19-2.95-.98-5.81.55-8.89-.3,2.19-.56,4.08-.82,5.96.13.02.26.05.39.07.92-2.16,1.84-4.32,2.75-6.48.09.04.17.07.26.11Z"/>
      <path class="cls-1" d="M207.69,208.84c-2.75,3.33-5.44,6.72-8.31,9.95-.72.82-1.96,1.23-3.02,1.67-.48.2-1.12.03-1.7-.15,3.64-1.54,5.24-4.99,7.7-7.57,1.5-1.57,3.03-3.13,4.55-4.69.26.26.52.52.78.79Z"/>
      <path class="cls-1" d="M200.62,205.51c.89,2.1-.85,2.94-2.1,3.26-2.44.62-4.87,1.81-7.53,1.07-.21-.06-.46-.02-.68,0-1.42.19-2.85.4-4.27.6-.09-.23-.18-.46-.28-.69.29-.27.54-.73.86-.78,2.61-.43,5.28-.63,7.85-1.23,2.12-.49,4.13-1.45,6.19-2.2l-.04-.05Z"/>
      <path class="cls-1" d="M200.66,205.56c-.63-.35-1.22-.89-1.89-1.01-1.63-.3-3.29-.4-5.29-.62,1.46-1.23,2.77-.99,4-.6,2.37.76,4.68,1.28,7.03-.07.58-.33,1.29-.44,2.17-.73-.26,3.2-2.86,3.3-4.94,4.33-.38-.45-.75-.9-1.13-1.34,0,0,.04.05.04.05Z"/>
      <path class="cls-1" d="M217.35,195.01c-1.35-.26-2.72-.5-4.05-.82-.29-.07-.47-.55-.76-.71-.36-.19-.79-.27-1.2-.34-.18-.03-.42.15-.58.09-1.85-.63-3.69-1.29-5.61-1.97,3.49-.98,7.75.19,8.95,2.41,1.67-.94,2.31.52,3.21,1.38,0,0,.05-.05.05-.05Z"/>
    </g>
  </g>
</svg>