<?xml version="1.0" encoding="UTF-8"?>
<svg id="Layer_1" xmlns="http://www.w3.org/2000/svg" viewBox="0 0 395.83 297.64">
  <defs>
    <style>
      .cls-1 {
        fill: #a61e2f;
      }
    </style>
  </defs>
  <g id="VuRr4q">
    <g>
      <path class="cls-1" d="M205.77,135.19c.27-.66.38-.93.64-1.58-1.15.42-2.15.58-2.88,1.11-.54.4-.7,1.3-1.08,1.94-.58.96-1.21,1.9-1.94,3.02-.91-1.13-1.6-.92-2.33-.19-.2.2-.63.17-.95.24-.07-.32-.27-.68-.19-.95.95-2.9.48-5.51-1-8.19-1.1-1.99-.84-2.1-3.04-1.78-4.25.62-8.49,1.25-12.75,1.76-1.16.14-2.39-.04-3.56-.23-5.72-.93-11.42-2-17.16-2.85-5.29-.78-10.6-1.47-15.93-1.97-6.37-.61-12.47,1.01-18.55,2.67-2.39.65-4.81,1.2-7.23,1.71-.6.13-1.28-.14-1.92-.16-.51-.01-1.06-.01-1.53.16-4.17,1.48-8.35,2.96-12.49,4.53-1.56.59-3.03,1.33-3.73,3.12-.32.81-1.2,1.39-1.8,2.1-2.51,2.98-4.95,6.02-6.07,9.84-.16.55.1,1.21.07,1.81-.05.77-.1,1.57-.32,2.3-.65,2.16-1.49,4.27-2.07,6.45-.39,1.47-.48,3.03-.7,4.55.11.03.22.06.33.08.37-1.14.75-2.28,1.12-3.42.15.04.29.08.44.12-.42,2.43-.84,4.86-1.27,7.29.07.02.13.04.2.06.26-.47.53-.95.79-1.42-.53,4.16-.99,8.3-.24,12.44.73,4.02.83,8.23,3.21,12.06,1.89-2.58-.22-4.86.05-7.47.35.47.6.7.71.98,1.66,3.91,2.05,7.86.25,11.84-.21.47-.5.96-.89,1.29-.26.23-.79.35-1.12.24-.2-.07-.33-.64-.32-.99.03-.87.32-1.77.21-2.61-.1-.76-.66-1.46-.92-2.21-.48-1.42-.91-2.86-1.32-4.3-.19-.66-.29-1.35-.62-2-.27.76-1.12,1.51.14,2.25.21.13.26.83.14,1.18-.77,2.24-1.73,4.35-3.13,6.33-1.36,1.92-2.29,4.16-3.3,6.3-.45.95-.73,2-.96,3.03-.13.58.03,1.22-.03,1.82-.05.51-.13,1.05-.34,1.51-1.95,4.22-5.07,7.55-8.33,10.75-.39.38-.88.67-1.32,1-.09-.08-.19-.16-.28-.25.41-.56.81-1.13,1.22-1.69-2.02,1.2-3.15,3.05-3.59,5.24-.51,2.6-.12,5.13.53,7.73,1.26,5.06,2.2,10.2,3.23,15.32.57,2.82,1.04,5.65,1.59,8.47.65,3.33,2.31,6.21,4.21,8.94.76,1.08,1.95,1.48,3.3,1.24,2.11-.38,4.2-.6,6.2.55.55.32,1.27.39,1.93.45.4.04,1.02-.01,1.17-.26.17-.28.07-.9-.15-1.21-.53-.79-1.19-1.49-2.08-2.58.91-.09,1.56-.35,1.99-.15,1.3.64,2.66,1.3,2.98,2.96.15.79.57,1.06,1.36.55-.03-.25-.03-.51-.1-.76-.26-.99.21-1.58,1.1-1.78,1.06-.24.88.65,1.04,1.26.2.77.41,1.59,1.53,1.47,1.04-.12,1.26-.81,1.28-1.69.01-.44-.11-1,.12-1.29.87-1.13.12-1.59-.69-2.17-1.02-.72-2.17-1.31-1.95-2.98.13-.99-2.74-2.28-3.64-1.69-2.64,1.74-5.38,1.23-8.01.18-.93-.37-1.62-1.37-2.79-1.38-.1,0-.3-.16-.29-.24.12-1.76-1.66-2.23-2.25-3.25.13-.72.23-1.26.37-2h1.83c.11-2.46.21-4.84.32-7.21.1-2.11.2-4.22.33-6.33.29-4.77,1.95-9.13,4.8-12.87,1.54-2.03,3.75-3.63,5.89-5.09,1.91-1.31,4.21-2.03,6.2-3.24,2.64-1.61,5.45-3.15,7.6-5.3,1.36-1.37,2.9-2.52,4.28-3.84,1-.95,2.29-1.71,3.58-2.23,3.51-1.4,6.28-3.75,8.77-6.47.98-1.07,1.75-2.34,2.52-3.58.21-.34.07-.9-.21-1.47.84-.97,1.71-1.91,2.5-2.91.15-.19.12-.74-.05-.92-.82-.84-.56-1.75.03-2.4,1.39-1.52,2.92-2.91,4.41-4.35.99-.96,1.99-1.92,3.01-2.86,2.27-2.09,5.09-3.01,8.05-2.98,4.1.05,8.2.52,12.29.84.43.03,1,.13,1.23.41.92,1.16,2.26,1.08,3.48,1.3,2.96.53,5.92,1.14,8.91,1.47,2,.22,4.06.01,6.09.04.37,0,.74.23,1.12.35-.32.21-.61.52-.97.62-.64.18-1.31.22-1.96.32-.22.03-.59.02-.62.11-.47,1.5-1.73.85-2.64.91-4.56.31-8.82-1.25-13.16-2.27-2.15-.5-4.27-1.18-6.4-1.78-3.23-.9-6.49-.7-9.75-.19-.25.04-.58.09-.73.26-1.49,1.69-2.95,3.4-4.34,5.23,3.52-2.19,6.92-4.57,11.05-5.32.09.17.18.35.27.52-.37.24-.73.5-1.1.72-3.53,2.11-7.07,4.19-10.57,6.35-.77.48-1.57,1.03-1.4,2.3.08.56-.53,1.21-.97,2.13,3.98-2.98,7.65-5.73,11.33-8.48.13.04.25.08.38.12-.12.53-.08,1.17-.38,1.57-1.31,1.77-2.71,3.46-4.08,5.18-.19.24-.52.41-.6.68-.87,2.6-2.91,4.29-4.75,6.14-.22.22-.48.41-.65.66-2.37,3.53-4.75,7.04-7.05,10.61-.46.71-.56,1.65-.8,2.49-.79,2.73-2.08,5.19-4.04,7.24-1.47,1.53-3.11,2.9-4.62,4.39-.38.38-.81.91-.85,1.41-.4,4.32-.77,8.64-1.02,12.96-.09,1.49.21,2.99.31,4.49.02.24-.11.49-.51.96-.05-.17-.1-.34-.15-.52-.7-2.7-1.41-5.36-.98-8.23.43-2.88.6-5.8.83-8.71.03-.38-.27-.78-.2-1.12.18-.91.44-1.82.51-2.75.3-3.61.47-7.23.84-10.83.12-1.19.73-2.34,1.16-3.65-1.74.71-3.58,1.09-4.91,2.55-2.61,2.86-5.42,5.47-8.81,7.42-.48.27-.88.89-1.05,1.44-.76,2.44-1.85,4.68-3.49,6.66-.65.78-1.13,1.69-1.68,2.55-1.66,2.57-1.32,5.18-.55,8,.79,2.87,2.79,4.78,4.58,6.87,2.11,2.46,3.79,5.08,4.42,8.33.4,2.06,1.26,3.87,3.82,4.07.45.03,1.09.57,1.24,1.02.84,2.44,1.14,5.1,3.28,7.08-1.85.25-3.51-1.04-4.14-3.03-.34-1.05-.47-2.18-.89-3.19-.22-.53-.82-1.23-1.29-1.27-2.37-.18-3.42-1.84-3.75-3.71-.85-4.83-3.94-8.25-6.98-11.69-1.81-2.04-2.29-4.49-2.81-7-.81-3.94,1.56-6.59,3.67-9.38,1.07-1.41,2.06-2.89,3.08-4.34-.13-.12-.26-.24-.38-.36-2.03,1.22-4.08,2.4-6.09,3.66-1.16.73-2.18,1.7-3.38,2.35-3.13,1.7-4.24,4.83-5.77,7.71-1.59,3-1.85,6.29-2.08,9.53-.28,4.04-.11,8.12-.13,12.18,0,.88.35,1.13,1.32,1.11,1.93-.05,4.05-.27,5.75.41,2.57,1.03,5.28,2.13,6.83,4.86.55.96,1.73,1.57,2.66,2.27.2.15.6.11.89.06,1.2-.18,2.39-.57,3.59-.55,1.75.03,3.49.34,5.36.55-.24.41-.41.68-.55.92,1.56,1.52,4.39.79,5.47,3.36-.95.16-1.75.29-2.61.43,1.1,1.49.96,1.9-.84,2.06-1.48.13-2.98.03-4.48.25,1.4.11,2.81.23,4.21.34l-.04.52c-1.85-.24-3.72.57-5.58-.39-.37-.19-.93-.06-1.4-.03-.67.03-1.34.1-2.01.15-.04-.16-.07-.31-.11-.47,3.3-1.43,6.61-2.86,9.98-4.32-2.29-.52-4.49-1.99-7.2-.83-.15-.3-.35-.67-.54-1.04-2.58-.11-2.96.49-2.25,3.44,1.07-.57,2.13-1.18,3.23-1.7.42-.2.99-.37,1.41-.26.47.13.85.59,1.26.91-.37.22-.72.5-1.12.64-.62.22-1.29.32-1.92.51-1.22.37-2.27,1.17-3.71.95-.7-.11-1.51.5-2.62.91.72.31,1.1.38,1.32.6.35.36.7.79.81,1.25.04.15-.61.59-1,.72-2.81.91-5.66.21-8.49.12-2.02-.06-4.03-.3-6.04-.48-.44-.04-.88-.09-1.31-.2-2.06-.5-4.1-1.04-6.16-1.53-1.74-.41-3.07-1.29-3.83-2.97-.73-1.61-1.66-3.14-2.25-4.8-.76-2.15-1.37-4.37-1.86-6.6-.87-3.93-1.27-7.99-2.48-11.79-1.28-4.03-1.53-8.13-1.99-12.24-.18-1.6.02-3.25,0-4.87,0-.31-.29-.62-.59-1.23.9-1.24,1.8-2.98,3.15-4.25,2.66-2.52,5.58-4.78,8.37-7.17.35-.3.64-.75.77-1.18.74-2.5,1.71-4.99,2.05-7.55.43-3.22,2.71-5.22,4.31-7.67.95-1.46,1.62-2.89,1.85-4.72.43-3.5,0-6.85-.73-10.25-1.81-8.45-1.75-16.95-.41-25.46.1-.64.87-1.15,1.23-1.78.31-.54.47-1.16.53-1.82-3.59,3.73-5.53,8.37-7.49,13.03-2,4.73-3.09,9.68-4.04,14.54-.29.24-.78.43-.85.72-.65,2.53-1.35,5.05-1.79,7.62-1.29,7.59-3.16,14.96-6.74,21.85-1.69,3.25-3.01,6.69-4.4,10.09-1.97,4.8-4.89,9.01-8.01,13.1-.04.05-.16.04-.54.12.28-.53.47-.91.68-1.28,2.27-3.8,4.73-7.49,6.76-11.41,1.56-3.01,2.55-6.31,3.85-9.46.97-2.37,2.02-4.72,3.04-7.08,2.16-4.97,2.73-10.34,3.83-15.58.55-2.64,1.08-5.29,1.79-7.89.85-3.11,1.89-6.17,2.83-9.26.24-.8.42-1.61.35-2.52-.46,1.19-.92,2.38-1.39,3.57-.12-.05-.25-.11-.37-.16.7-7.55,3.8-14.2,7.8-20.55-.71.87-1.46,1.72-2.13,2.62-3.42,4.58-6.19,9.5-7.67,15.06-.54,2.05-1.07,4.1-1.6,6.16-.14-.02-.27-.03-.41-.05.05-.91.05-1.83.17-2.74.99-7.64,3.85-14.52,8.43-20.68.61-.82,1.14-1.85,2.46-1.76.19.01.41-.3.6-.48,1.45-1.41,2.91-2.82,4.36-4.24.54-.52,1.07-.86,1.46,0,1.14-.64,2.21-1.24,3.28-1.85.11-.06.21-.17.28-.27,1.3-1.76,2.59-3.52,3.75-5.1-2.88-.46-4.91,1.58-7.13,3.22-2.52,1.87-5.3,3.45-7.58,5.57-1.68,1.56-2.83,3.72-4.06,5.71-3.14,5.07-5.61,10.47-7.04,16.27-.81,3.29-1.3,6.67-1.93,10-.08.43-.1.89-.21,1.31-1.52,5.77-1.41,11.75-2.2,17.61-.66,4.92-1.76,9.75-3.54,14.41-1.98,5.18-4.35,10.16-7.06,15-1.98,3.54-4.7,6.41-7.51,9.24-.43.43-.91.82-1.34,1.21.69.57,1.43.94,1.76,1.53.37.66.58,1.57.46,2.31-.52,3.14-2.49,5.52-4.47,7.85-.6.71-1.3,1.33-2.4,1.11-.29-.06-.64.25-.98.34-1.9.5-3.8.97-5.7,1.47-.65.17-1.29.41-2.31.75.33-.62.41-.98.63-1.16,1.17-.95,1.48-2.33,2.03-3.64,1.49-3.54,2.97-7.13,5.98-9.75.96-.83,1.33-.91,2.42-.49-.63.52-1.37.91-1.81,1.52-1.46,2.04-2.84,4.14-4.21,6.25-.45.69-.75,1.48-.92,2.41.91-.9,1.82-1.8,2.72-2.7,1.85-1.84,2.08-1.87,4.49-.48-.63,2.36-3.07,3.18-4.3,5.03,1.88-.93,3.21-2.48,4.51-4.06.25-.31.41-.75.72-.95,2-1.28,1.96-3.19,1.68-5.19-.18-1.28-.81-1.56-1.88-.8-.33.24-.66.49-.98.74l-.27-.26c.43-.56.8-1.19,1.31-1.67,3.61-3.35,7.01-6.88,9.39-11.26.55-1.01.99-2.08,1.52-3.1,4.25-8.18,7.15-16.82,8.6-25.92.66-4.1.91-8.27,1.35-12.4,0-.09,0-.18.02-.26,1.73-7.58,2.2-15.47,5.31-22.69,1.87-4.34,4.27-8.44,6.3-12.71.71-1.5,1.23-3.07,2.42-4.3,3.76-3.91,7.89-7.24,13.26-8.68.34-.09.67-.24.97-.43,2.08-1.27,4.37-1.83,6.74-2.29,2.68-.52,5.34-1.28,7.94-2.14,4.67-1.54,9.28-3.19,14.16-4.01,2.55-.43,5.02-1.39,7.51-2.16,6.02-1.85,12.06-1.93,18.23-.66,3.45.71,7.02.78,10.51,1.31,4.42.67,8.84,1.37,13.21,2.31,4.2.91,8.34.47,12.52.06,2.33-.23,4.68-.33,7.02-.46.87-.05,1.75,0,2.64-.22-1.48-.48-2.97-.96-4.45-1.45.03-.19.06-.38.09-.58,2.51.74,4.95.93,7.39-.82-2.09.08-4.01.54-6.02-.66.57-.12.84-.21,1.13-.22,4.54-.28,8.31-3.14,9.23-7.58,1.02-4.9,4.24-7.17,8.65-8.49,1.56-.47,3.04-1.2,4.53-1.85.37-.16.66-.49,1.09-.82-4-1.26-6.59-2.71-6.82-3.66,1.38,0,2.82.16,4.2-.03,2.79-.4,4.9-1.81,6.21-4.44,1.21-2.44,3.31-3.82,5.89-4.72,2.32-.82,4.5-2.07,6.73-3.14.18-.08.29-.29.51-.53-1.5-.61-3.1-.94-3.77-3.05,1.96-.12,3.77-.27,5.59-.34,1.37-.05,2.75.11,4.12-.01.91-.08,1.79-.5,2.64-.95-2.12-.19-4.23.31-6.25-.71,1.46-.22,2.98-.26,4.37-.71,1.44-.46,2.97-1.07,4.07-2.05,1.94-1.72,3.59-3.77,5.38-5.71-2.22-.45-4.71-1.02-6.36-3.22,1.79.53,3.59,1.07,5.56,1.66-.28.19-.44.29-.92.61h8.53c.02.14.04.28.06.42-1.12.19-2.25.51-3.37.53-1.07.02-1.77.39-2.27,1.28-1.11,1.96-2.1,4-3.38,5.84-2.95,4.22-6.65,7.51-11.71,9.12-3,.96-5.88,2.34-8.17,4.58-1.31,1.28-2.34,2.85-3.46,4.32-.33.44-.55.97-.93,1.38.23-3.35,2.18-5.7,4.44-8-.64.37-1.38.64-1.89,1.14-1.98,1.93-3.58,3.99-3.77,7.02-.07,1.18-1.25,2.38-2.12,3.42-1.58,1.89-3.77,2.89-6.04,3.7-.48.17-.96.38-1.43.9.53.14,1.06.29,1.68.45-.26.47-.5.9-.74,1.33.05.06.11.13.16.19.47-.29.92-.6,1.41-.85,1.42-.72,2.83-1.48,4.29-2.1,2.07-.88,3.91-1.93,4.36-4.47.36,1.24.6,2.53-.39,3.42-1.13,1.01-2.49,1.77-3.76,2.64-2.4,1.64-4.97,3.09-7.16,4.97-2.32,1.98-2.2,6.73.16,9.38-.53-5.4,1.09-9.6,5.77-12.37-.21.47-.32,1.02-.63,1.39-2.92,3.47-3.32,7.62-3.26,11.89,0,.57.2,1.13.25,1.7.06.69-.08,1.43.11,2.07.22.73.59,1.49,1.11,2.02.6.61,1.44.99,2.4,1.6-.06-.51-.03-.8-.13-1.03-.36-.86-.67-1.75-1.16-2.53-1.85-2.93-2.22-6.12-1.75-9.46.12-.86.11-1.95,1.44-2.01.1,0,.25-.15.28-.26.35-1.2,1.2-1.14,2.13-.86.55,3.84,2.22,7.13,4.79,10.02.14-1.13.24-2.24.41-3.34.1-.63.38-.88,1.12-.62,1.45.51,2.22-.28,1.97-1.79-.13-.82-.12-1.68-.03-2.5.1-.81.38-1.6.6-2.47-.56.07-1.04.13-1.52.19-.04-.1-.09-.19-.13-.29.55-.41,1.09-.83,1.65-1.22,1.96-1.36,3.29-3.19,4.1-5.42.27-.75.61-1.47.93-2.2.36-.84.86-1.63-.13-2.48-.31-.27-.35-1.01-.3-1.51.22-2.28.77-4.45,2.49-6.14.85-.84,1.69-1.69,2.58-2.5.29-.26.69-.41,1.03-.61.15.1.3.19.46.29-.7,2.02-1.41,4.05-2.19,6.29,1.76-.57,2.81-2.17,4.97-2.16-.74,1-1.26,1.72-1.82,2.49,1.44-.23,4.73-2.29,7.07-5.1,1.81-2.18,3.08-4.81,4.66-7.37.03.46.14.91.08,1.34-.43,3.28-.3,6.52.36,9.77.58,2.85-.34,5.33-2.28,7.45-.31.33-.7.59-1.18.8,1.6-3.1,2.58-6.22,1.31-9.86-1.03,1.81-1.81,3.62-2.95,5.14-3.3,4.41-3.76,9.33-2.86,14.51.32,1.82.83,3.62,1.34,5.4.15.53.59.98.94,1.53-.83.36-.99,1.12-.73,2.21.47,2.02.03,3.93-1.03,5.73-.3.51-.43,1.26-.31,1.83.51,2.56,1.67,4.72,4.31,6.2-1.35-3.17-2.28-6.15-1.72-9.35l.37-.09c.14.51.34,1.01.41,1.52.45,3.36,1.45,6.5,3.72,9.09.92,1.05,1.98,1.98,3.15,2.83-1.47-3.12-4.97-5.14-4.79-9.12,1.32,2.54,3.19,4.54,5.54,6.57-.59-2.76-1.1-5.15-1.61-7.54.13-.09.27-.18.4-.27.32.35.75.66.93,1.07,1.34,3.02,2.68,6.05,3.91,9.12.31.78.47,1.76.3,2.57-.29,1.38-.14,2.94-1.34,4.05-.23.21-.28.64-.36.98-.95,3.76-3.84,5.43-7.16,6.63-.16.06-.39-.05-.88-.12,2.58-1.98,3.07-4.66,3.39-7.41.27-2.34-.27-4.3-2.55-5.48-1.02-.53-1.93-1.3-2.99-1.72-2.98-1.16-4.88-3.26-5.91-6.23-.12-.33-.26-.66-.41-.98-.03-.07-.12-.12-.47-.43-.52.8-1.01,1.55-1.57,2.41-.21-.3-.67-.69-.82-1.18-.76-2.4-1.69-4.79-2.07-7.25-.3-1.93-1.26-2.71-3.28-3.2.45,4.69,1.66,9.02,3.74,13.13-.17.08-.34.17-.51.25-.84-1.41-1.68-2.82-2.69-4.54.06.73.12,1.18.13,1.62.08,2.75.05,5.41-.6,8.19-.61,2.6-.42,5.58,1.26,8.08,1.99,2.96,3.75,6.12,7.17,7.81-.05.14-.1.29-.15.43-.94-.19-1.97-.18-2.8-.59-4.25-2.08-7.57-8.53-7.36-13.23.12-2.74-.47-5.51-.78-8.62-.86,1.6-1.53,2.85-2.2,4.1-.1-.06-.2-.13-.31-.19.18-1.82.46-3.63.51-5.45.05-1.81.29-3.71-.91-5.51-1.27,3.56-3.89,5.48-6.9,6.97-.12-.13-.24-.26-.35-.39.41-.34.94-.61,1.21-1.04.71-1.12,1.62-2.26,1.85-3.5.25-1.31.07-2.86-.41-4.12-.79-2.1-2.02-4.02-2.95-6.08-.52-1.15-.83-2.41-1.18-3.63-.18-.63-.24-1.29-.39-2.12-.55,1.91-.38,3.34.88,5.96.86,1.78,1.88,3.48,2.64,5.35-2.78-1.67-4.16-4.38-5.52-7.4.06,2.84,1.14,5.1,2.52,7.26.62.97,1.29,1.91,1.9,2.88.9,1.44.4,2.92.04,4.37-.05.19-.6.46-.79.38-.46-.19-1.09-.49-1.21-.88-.75-2.38-2.87-2.99-4.79-3.85-.29-.13-.81.07-1.13.26-1.12.7-2.18,1.5-3.31,2.18-.46.27-1.05.32-1.94.57ZM245.21,100.17c-.65.32-.99.41-1.23.62-2.13,1.85-4.31,3.65-6.33,5.62-1.2,1.17-2.16,2.6-2.07,4.45,0,.12-.18.25-.38.52-.93-2.08-.57-3.87.61-5.49,1.09-1.5,2.31-2.91,3.47-4.35l-.3-.3c-1.2,1.2-2.64,2.23-3.53,3.62-1.75,2.7-2.83,5.73-2.58,9.03.12,1.55.18,3.23.85,4.56.81,1.63,2.3,2.91,3.35,4.43.99,1.43,2.62,2.36,2.95,4.33.2,1.2.94,2.32,1.41,3.48.12.3.16.63.29,1.14.22-.34.38-.47.39-.61.22-2.59.25-5.13-1.39-7.37-.89-1.21-1.73-2.46-2.63-3.66-1.59-2.13-2.08-4.55-1.9-7.14.05-.75.22-1.5.33-2.24.13,0,.27-.01.4-.02,1.08,2.85.9,6.26,3.62,8.63,0-.43.03-.68,0-.92-.48-2.91-.93-5.73.68-8.57.99-1.75,1.28-3.89,2.02-5.8.48-1.25,1.2-2.42,1.99-3.96ZM201.35,124.72c.16-.02.32-.05.47-.07.83,2.62,1.67,5.24,2.53,7.95,1.8-.08,2.55-1.55,3.27-2.94.79-1.53.45-3.04-.62-4.33-1.72-2.08-4.05-3.69-4.67-6.59-1.25,1.55-2.59,2.78-3.41,4.29-1.75,3.22-.94,6.77,1.86,9.17.36.31.91.41,1.37.61.16-.49.5-1,.44-1.45-.21-1.53-.58-3.03-.87-4.54-.14-.7-.25-1.4-.37-2.1ZM143.24,184.63c-.07-.07-.15-.14-.22-.21-.32.2-.66.38-.96.6-2.37,1.77-4.63,3.71-7.14,5.26-2.68,1.66-3.85,4.28-5.14,6.88-.15.3.08.8.13,1.2l.51.06c1.75-2.1,3.5-4.19,5.32-6.36.03.54.07,1.08.11,1.8,1.56-1.61,2.83-3.23,3.31-5.31.25-1.08.57-1.68,1.73-.72.82-1.13,1.58-2.17,2.34-3.22ZM209.43,128.2c.76-1.2.9-2.49.26-3.66-1.22-2.24-2.17-4.54-2.42-7.1-.02-.25-.36-.67-.48-.65-.29.05-.61.28-.78.52-.35.5-.48,1.25-.93,1.57-.7.5-.66,1.05-.34,1.59.67,1.13,1.37,2.26,2.21,3.27,1.11,1.33,2.32,2.57,2.49,4.47ZM239.41,133.56c.11-2.81-.78-5.55-3.16-7.66-.13.04-.27.08-.4.11.51,3.22,1.01,6.44,1.55,9.82.7-.79,1.26-1.42,2.01-2.27ZM253.23,153.3c.13.06.25.13.38.19.72-1.59,1.44-3.18,2.16-4.77-.13-.06-.26-.13-.39-.19-.24.32-.48.63-.67.88-.64-.74-1.23-1.42-1.84-2.13.13,2.11.24,4.06.36,6.02ZM239.1,86.3c-.04-.1-.08-.2-.12-.31-1.21.06-2.41.1-3.62.18-.2.01-.47.09-.59.24-.78.96-1.52,1.94-2.28,2.92.04.05.07.11.11.16,2.17-1.06,4.33-2.13,6.5-3.19ZM233.6,126.07c.51-1.73-.02-2.52-2.4-3.69-.29,2.02.18,2.77,2.4,3.69ZM213.54,102.88c1.16-.07,2.32-.23,3.48-.2,1.9.04,2.72-1.16,1.83-2.98-1.21,2.05-3.23,2.61-5.31,3.19ZM92.25,255.58c-1.14-1.1-3.87-1.34-6.02-.65,2.05.33,3.8,1.35,6.02.65ZM241.56,134.62l-.57.03c-.06.44-.3.98-.14,1.31.59,1.17,1.2,2.38,2.03,3.38.76.9,1.83,1.55,2.76,2.31.09-.1.19-.2.28-.29-2.59-1.49-4.03-3.74-4.38-6.72ZM199.79,136.58c1.95-1.33,1.9-2.87-.19-3.91.06,1.31.13,2.63.19,3.91ZM229.25,125.2c-.92,1.84-.52,3,1.4,4.25-.49-1.48-.89-2.71-1.4-4.25ZM130.22,188.66c-2,1.7-2.28,2.15-2,3.31.73-1.21,1.36-2.26,2-3.31ZM230.64,86.36c2.06,1.13,2.51,1.09,2.85-.17-.86.05-1.67.1-2.85.17ZM236.25,123.72c.09-.09.18-.18.27-.27-.99-1.11-1.99-2.21-2.98-3.32-.1.09-.19.17-.29.26,1,1.11,2,2.22,3,3.33ZM231.1,115.74c-.16.01-.32.03-.49.04.27,1.32.54,2.63.8,3.95.09-.02.17-.03.26-.05-.19-1.32-.38-2.63-.58-3.95Z"/>
      <path class="cls-1" d="M282.39,85.07c-.62,1.01-1.18,2.07-1.88,3.01-.25.34-.86.42-1.3.62.06-.43.08-.87.19-1.29.11-.41.32-.79.56-1.34-2.16,1.74-3.49,7.9-2.06,9.34.46-1.19-.84-2.51.48-3.97.36,1.57.74,2.78.9,4.02.26,2.14,1.05,4.06,1.97,6,1,2.1,1.76,4.33,2.44,6.55.49,1.6.26,3.22-.45,4.78-.51,1.12-.99,2.28-1.29,3.48-.29,1.18-.32,2.42-.49,3.83-.4-.25-.81-.5-1.22-.76l.02.02c-.23-3.38-3.03-4.48-5.4-5.74-1.29-.69-2.45-1.34-2.92-2.67-1.12-3.17-2.04-6.4-3.14-9.57-.36-1.04-1.08-1.95-1.58-2.95-.19-.37-.3-.82-.3-1.23-.03-2.56,0-5.13-.01-7.69,0-.37-.04-.74-.06-1.1-.15-.02-.29-.04-.44-.06-.69,3.55-1.37,7.1-2.06,10.66-.05,0-.11.01-.16.02v-5.37c-.08-.02-.16-.04-.24-.06-.16.45-.32.91-.61,1.74v-4.41c-.1,0-.19-.01-.29-.02-.08,2.34-.41,4.7-.18,7,.23,2.3,1.01,4.55,1.64,7.2-.58-.31-1.04-.42-1.26-.71-2.99-3.87-4.28-8.26-3.77-13.14.04-.4.38-.77.59-1.15.22.4.58.78.63,1.19.16,1.35.2,2.71.28,3.91.93-3.61,1.89-7.32,2.94-11.37-.87,1.48-1.58,2.68-2.28,3.89-.1-.06-.21-.11-.31-.17,1.17-3.29,2.24-6.61,4.75-9.42-1.73.18-4,2.05-4.64,3.88-.67,1.91-1.17,3.88-2.06,5.77.24-1.41.48-2.82.71-4.23-2.68,4.36-2.67,9.26-2.85,14.15-1.25-2.26-1.01-4.72-.99-7.14-.11,0-.21-.02-.32-.03-.28,2.04-.56,4.08-.89,6.45-1.47-5.71,2.59-19.8,5.6-19.74-.24.64-.46,1.23-.73,1.92.26.08.52.16.87.27-.1.4-.2.81-.36,1.46,1.76-1.65,3.36-3.14,4.95-4.64l-.1-.2c-1.2.56-2.41,1.13-3.63,1.7.24-1.19.87-1.83,4.33-4.64-1.42.37-2.85.73-4.27,1.1-.07-.11-.13-.23-.2-.34.64-.54,1.28-1.09,1.93-1.63-.05-.11-.1-.23-.15-.34-2.13,1-4.27,1.99-6.4,2.99,1.28-1.93,3.4-2.7,5.54-3.68-.36-.17-.61-.29-1.19-.57.97-.37,1.68-.63,2.47-.94-.15-.19-.31-.39-.53-.68.36-.24.71-.46,1.05-.69,0-.1-.01-.21-.02-.31-1.12.11-2.28.09-3.36.36-1.06.26-2.1.72-3.08,1.23-3.72,1.92-7.75,2.04-11.78,2.09-.78,0-1.56-.2-2.63-.35,2.95-1.98,6.56-1.45,9.46-3.62-1.68-.1-3.07-.09-4.43-.28-1.35-.19-2.66-.58-4-.88.02-.14.04-.27.05-.41.23-.08.45-.23.68-.23,4.97-.08,9.57-1.81,13.61-4.35,5.36-3.38,11.34-4.81,17.2-6.66,2.35-.74,4.88-.61,7.27.43.93.41,1.92,1.04,2.99.23.11-.08.39-.09.51,0,1.37,1,2.73,2.02,4.08,3.04.46.35.85.88,1.36,1.09,4.94,2.01,10.11,3.21,15.38,3.9,2.84.37,5.72.46,8.57.69.32.03.64.16.98.55-.29.08-.58.2-.87.23-4,.46-7.97.09-11.87-.73-3.41-.72-6.77-1.69-10.16-2.52-.45-.11-.94-.01-1.47.24.37.19.75.38,1.33.68-.5.12-.78.24-1.06.25-2.55.07-5.1.1-7.65.17-3.32.09-6.63.24-9.95.28-1.17.01-1.61.62-1.35,1.55.72,2.59-.78,4.33-2.2,6.08-.78.96-1.04,1.71-.54,2.96.86,2.15,2.3,4.13,2.16,6.67-.03.45.85,1.08,1.43,1.41,1.75.99,3.56,1.87,5.38,2.81,1.77-2.29,1.35-4.2-1.4-5.49-.53.8-1.02,1.63-1.63,2.38-.18.23-.67.22-1.02.31,0-.33-.13-.72,0-.98,1.03-2.06,1.78-4.15,1.25-6.52-.05-.24.3-.82.45-.81.4.02,1,.16,1.15.44.61,1.2,1.75,1.38,2.83,1.74.39.13.69.53,1.07.73.43.23.9.5,1.37.56,1.64.23,3.28.37,5.1.73-1.82.21-1.36,1.5-1.45,2.48-.2,2.17-.96,3.99-3.16,4.8-.78.29-1.7.66-2.41-.27.84-.21,1.83-.2,2.49-.67,1.78-1.26,2.07-3.29,2.22-5.3.02-.2-.3-.59-.51-.63-1.76-.27-3.54-.47-5.4-.71.47.55,1.12.97,1.23,1.5.26,1.3,1.04,1.96,2.18,2.39.24.09.42.32.62.48l-.09.14c-.67-.19-1.33-.39-2.21-.64-.18,1.23-.34,2.34-.51,3.46ZM272.61,58.56c-2.14.21-3.93.31-5.7.56-3.41.49-6,2.7-8.82,4.4-1.13.68-2.31,1.29-3.6,2.01,2.34-.36,4.49-.71,6.65-1.01,2.15-.31,4.31-.57,6.46-.86,0-.16.01-.32.02-.48-.65-.17-1.31-.3-1.94-.51-.32-.11-.6-.36-.9-.54.25-.32.43-.8.76-.94.67-.28,1.41-.37,2.13-.53.13-.37.4-.73.62-.7,2.14.3,4.26.68,6.4,1.02.51.08,1.03.1,1.55.14.03-.13.06-.26.09-.4-.77-.42-1.55-.85-2.32-1.27.03-.12.07-.23.1-.35,2.3-.34,4.51.54,6.75,1.02l.06-.32c-.69-.35-1.38-.7-2.12-1.08.24-.33.4-.54.71-.95-1.52-.24-2.84-.44-4.16-.65.01-.15.03-.31.04-.46,1.46-.11,2.93-.4,4.37-.29,1.48.11,2.93.61,4.39.95-2.08-1.44-4.29-2.41-6.81-1.64-2.09.64-4.14,1.44-6.2,2.18-.04.01-.04.15-.05.22.43.14.86.28,1.54.5ZM270.62,94.67c-.07,0-.13,0-.2.01-.07.39-.2.77-.21,1.16-.18,4.47.51,8.85,2.14,12.98,1.17,2.96,4.19,4.19,6.62,5.95-.11-.77-.26-1.49-.64-2.06-1.78-2.68-3.54-5.38-5.46-7.96-1.4-1.89-2.23-3.9-2.24-6.24,0-1.28,0-2.56,0-3.84ZM275.62,93.84l-.45-.04c-.17,1.72-.35,3.45-.5,5.17-.01.15.12.33.22.47,1.72,2.16,3.45,4.32,5.18,6.47.07,0,.14-.02.21-.03-.87-3.13-1.74-6.26-2.61-9.38-.18.04-.36.07-.54.11.05.59.08,1.18.16,1.76.09.62.23,1.24.36,1.98-1.51-.99-1.66-1.48-2.04-6.51ZM278.79,108.27c-.3-.63-.54-1.3-.91-1.9-1.44-2.32-2.93-4.62-4.37-6.94-.22-.35-.38-.8-.37-1.2.05-1.99.17-3.99.27-5.98-1.84,6.11-.79,10.92,5.38,16.02ZM258.65,67.2c1.97,0,3.89.01,5.81-.01.34,0,.76-.1.98-.31.49-.47.88-1.05,1.32-1.6-1.26-1.15-7.33.2-8.12,1.92ZM268.65,94.14c.18.02.35.04.53.06.2-1.54.4-3.08.59-4.62-.1-.02-.2-.03-.3-.05-.27,1.54-.55,3.07-.82,4.61Z"/>
      <path class="cls-1" d="M230.31,241c-2.41.64-2.38.65-2.72,2.84-.08.52-.4,1.37-.71,1.42-1.6.27-1.72,1.48-1.97,2.76,2.25.77,5.03.15,6.94,1.99-.03.16-.07.32-.1.48h-3.75c0,.14-.02.28-.02.42,4.56.54,9.18.8,13.68,1.69,4.48.88,8.83,2.39,13.23,3.62.1-.16.2-.32.3-.48-2.15-1.8-4.21-3.72-6.48-5.35-1.41-1.01-2.22-2.06-2.06-3.82.12-1.28.08-2.57.21-3.84.09-.9-.37-1.22-1.09-1.35-1.01-.18-2.22.23-2.89-.9-.91-1.54-1.53-3.18-1.41-5.04.1-1.45.17-2.92.09-4.37-.16-2.99-.9-5.83-2.15-8.58-1.99-4.36-3.63-8.84-4.46-13.6-.24-1.38-.79-2.72-1.33-4.03-.14-.34-.73-.62-1.14-.67-.23-.02-.52.5-.94.94,1.9-.16,1.88-.09,1.98,1.59.22,3.67-.19,7.22-1.77,10.57-1.35,2.85-3.37,5.18-5.69,7.27-.08.07-.23.06-.6.15.29-.58.41-1.08.72-1.39,1.72-1.73,2.19-4,2.72-6.23.82-3.44,1.57-6.89,2.18-10.42-1.13,1.92-2.25,3.84-3.38,5.76-.11-.05-.23-.11-.34-.16,0-.23-.06-.48,0-.69.75-2.32,1.49-4.64,2.32-6.93.22-.62.76-1.12,1.13-1.68.12-.19.19-.41.28-.62-.26.03-.62-.03-.75.11-.32.35-.54.79-.8,1.2-1.25-.92-2.94-.9-4.37-.08-.83.47-1.76.77-2.65,1.15-.07-.14-.13-.29-.2-.43.4-.2.79-.39,1.45-.72-3.02-.55-4.16-2.53-4.93-5.16,1.61.14,1.66,1.34,2.09,2.16.77,1.48,1.03,1.62,2.82,1.16-.52-.59-1.02-1.11-1.47-1.68-.24-.31-.53-.67-.57-1.03-.05-.43.09-.91.27-1.31.06-.12.69-.17.81-.03.32.36.73.86.7,1.28-.12,1.66.77,2.38,2.37,2.21,1.03-.11,2.11.38,3.5.68,1.07-1.79,3.24-1.57,5.37-1.43.98.06,1.96.21,2.29,1.42.06.23.3.43.5.59,2.74,2.06,4.74,4.76,6.58,7.59.88,1.36,1.24,2.87,1.12,4.87-.5-.53-.8-.81-1.05-1.12-2.72-3.32-5.44-6.64-8.11-9.99-.21-.26-.24-.98-.05-1.17.93-.89.24-1.33-.46-1.48-.99-.21-2.04-.16-3.13-.22,1.08,1.39,1.99,2.56,2.9,3.72.13.17.26.37.44.49,4.68,2.95,7.25,7.45,9.09,12.46.23.61.16,1.34.22,2.01-.14.05-.28.11-.42.16-.7-1.01-1.39-2.02-2.09-3.03,1.18,5.37,2.6,10.65,2.97,16.47-.5-.42-.73-.61-1.14-.96.25,2.34.45,4.44.7,6.54.1.87.62,1.24,1.53,1.32,1.66.15,2.11.74,2.2,2.39.07,1.28,0,2.61.33,3.83.24.89.84,1.95,1.59,2.39,3.12,1.81,5.39,4.39,7.39,7.31.38.55,1.09.97,1.73,1.2.95.33,2.03.7,2.98.57,3.41-.47,6.61.9,9.95.89.26,0,.52-.06.88-.1-.47-1.1-.91-2.14-1.35-3.18.14-.09.28-.18.42-.26.45.36.9.73,1.59,1.29-.25-1.64-.46-3.03-.66-4.42.16-.07.31-.14.47-.2.57,1.05,1.13,2.1,1.81,3.37.45-.99.82-1.9,1.26-2.77.16-.33.48-.58.72-.86.28.26.72.46.82.77.39,1.2.67,2.43,1.06,3.94.77-.4,1.57-.87,2.41-1.25.38-.17,1.11-.31,1.22-.15.25.37.41,1,.28,1.41-.28.85-.78,1.64-1.3,2.66,2.25-.08,4.08-.55,5.69-1.74.28-.21.48-.56.78-.71.34-.17.75-.18,1.13-.26-.15.37-.21.81-.45,1.1-.67.79-1.42,1.52-2.14,2.27.12.16.24.32.37.49,1-.65,2-1.3,3.02-1.96,1.18.95,1.11,2.04-.35,3.9.14.28.29.57.42.83-.1.11-.13.17-.15.17-2.51-.65-5.03-.27-7.56-.15-.48.02-.97-.29-1.45-.45-.08-.14-.16-.28-.23-.43.32-.12.65-.23.97-.34-.05-.11-.11-.21-.16-.32-2.14-.26-4.34-.96-6.41-.7-5.4.67-10.47-.76-15.68-1.62-5.77-.95-11.21-2.88-16.72-4.66-1.07-.34-2.25-.36-3.39-.45-5.25-.42-10.49-.92-15.74-1.16-3.88-.18-7.77.02-11.66.03-1.11,0-2.21-.11-3.32-.07-2.29.08-4.57.3-6.86.33-1.45.02-2.9-.21-4.35-.31-2.33-.16-4.67-.38-7.01-.4-.72,0-1.42.72-2.16.83-5.12.76-10.22.92-15.22-.81-.61-.21-1.3-.19-1.95-.33-.38-.08-.74-.24-1.1-.36,0-.12,0-.24,0-.36.52-.25,1.05-.49,1.66-.78-1.39-.34-2.52.16-3.63.77-2.15,1.2-4.38,2.13-6.92,2.01-.79-.04-1.58,0-2.37,0-.01.14-.03.28-.04.42.56.38,1.12.77,1.68,1.15-.03.14-.06.27-.09.41-1.36.26-2.71.58-4.08.77-1.62.22-3.25.42-4.88.46-1.17.03-2.33-.21-2.29,1.96-.69-1.25-1.14-2.08-1.63-2.96.68-.64.72-2-.13-3.29-.46-.7-1.03-1.33-1.59-1.95-.5-.55-.99-1.31-1.87-.22-.12-.61-.18-.94-.27-1.41-.28.18-.53.34-.82.53-.23-2.95-3.18-3.06-4.51-4.95,1.36.69,2.72,1.39,4.24,2.16v-4.72c.36.4.64.59.76.86.29.6.7,1.23.71,1.85.05,3.26,2.23,5.34,4.07,7.6.23.28.8.42,1.21.4,1.68-.07,3.35-.36,5.02-.31,4.63.14,9.08-.41,13.21-2.73,1.88-1.05,3.85-1.2,5.77.17.37.27,1.14.3,1.57.1,1.48-.69,2.91-1.5,4.31-2.33.71-.42,1.22-.5,1.56.38.3.78.81.71,1.36.32.43-.31.84-.65,1.23-1.01,1.99-1.9,2.32-1.83,3.29.69.15.38.38.73.73,1.41.41-1.04.69-1.74.99-2.52.28.16.5.2.55.33.98,2.07,2.76,2.42,4.79,2.29,1.07-.07,1.98.08,1.39,1.88,2.01-.14,3.79-.33,5.56-.36,1.89-.03,3.84-.18,5.66.22,2.75.6,5.41.98,8.24.43,1.8-.36,3.7-.23,5.55-.32.52-.02,1.03-.05,1.55-.07.05-.12.1-.24.16-.35-.38-.26-.74-.59-1.16-.77-3.38-1.39-4.91-3.8-4.59-7.46.16-1.87.46-3.72.73-5.88.59.46.95.74,1.05.82-.08.85-.15,1.41-.17,1.97-.05,1.41.02,2.84-.14,4.24-.32,2.68.47,3.72,3.53,3.86-.54-.55-1.08-1.1-1.68-1.72.07-.14.12-.41.27-.49,1.59-.91,1.74-2.27,1.61-3.97-.28-3.79-.37-7.59-.43-11.39-.02-1.36.19-2.74.43-4.09.13-.72.56-1.38.86-2.07.16.03.32.07.48.1.04.39.14.8.1,1.18-.21,2.11-.45,4.22-.68,6.33-.02.18-.06.36-.03.53.4,1.91.82,3.82,1.25,5.81,1.35-.54,1.79.23,1.66,1.53,1.97.69,3.8.79,5.47-.58-.19-1.8-.53-3.67-.52-5.55,0-1.43.44-2.87.72-4.3.51-2.55,1.05-5.09,1.58-7.63.07-.36.18-.71.44-1.04.43,2.73.36,5.42-.41,8.07-.29.98-.52,1.98-.93,2.91-.88,2-.25,4.03-.2,6.04,0,.28.52.56.93.97-.24.67-.51,1.5-.84,2.31-.38.93-.1,1.51.87,1.62,1.63.18,3.12,1.14,4.92.68.5-.13,1.26.82,1.94,1.21.81.46.9,1,.81,1.96-.16,1.68.13,3.41.14,5.11,0,.36-.33.97-.63,1.05-2.15.62-4.89-1.24-5.18-3.45-.03-.19.07-.4.15-.81.53.37.94.65,1.39.95.18-.21.37-.43.61-.72.53.7,1.02,1.34,1.5,1.98.12-.05.24-.1.37-.15.22-.88.66-1.77.6-2.64-.05-.75-.46-1.85-1.03-2.13-1.74-.84-3.59-1.63-5.48-1.91-1.4-.21-2.11-.68-2.46-2.02ZM183.07,250.78c.02.09.04.18.06.26,1.37-.17,2.75-.35,4.33-.55-.43-.9-.72-1.51-1.07-2.24-1.21.92-2.26,1.72-3.32,2.53ZM277.68,256.69c-.16,1.07-1.72,1.77-.08,2.36,1.16.41,2.47.4,3.71.57.08-.11.16-.21.24-.32-.31-.29-.7-.87-.91-.81-1.4.4-2.14-.37-2.97-1.8ZM181.43,251.09c.06-.11.13-.21.19-.32-.48-.36-1.02-1.08-1.43-1.01-1.19.2-2.33.72-3.48,1.12.01.07.03.14.04.21h4.67ZM223.89,241.88c.15.14.3.28.46.42.56-.51,1.11-1.01,1.67-1.52-.12-.13-.24-.26-.36-.39-.59.5-1.18,1-1.76,1.5Z"/>
      <path class="cls-1" d="M260.05,199.07c.16,1.5-.21,3.14,1.36,4.44-.57.03-.9.05-1.51.08,0,2.95,0,5.86,0,8.78,0,.04,0,.09.01.13.33,2.29.14,4.57.91,6.9.94,2.86,1.02,6,1.34,9.04.23,2.2.83,4.22,1.85,6.18,2.2,4.25,3.25,8.88,3.98,13.57.18,1.14.91,1.08,1.6,1.13,1.32.08,2.66-.03,3.98.07,1.07.08,1.52.71,1.12,1.99-2.5-2.42-5.78-.25-8.19-1.6-.2-.83-.29-1.49-.51-2.12-1.09-3.22-2.21-6.43-3.31-9.64-.2-.59-.31-1.23-.63-1.74-1.81-2.88-1.87-6.1-1.99-9.35-.11-3.18-.6-6.35-.68-9.53-.11-4.15-.02-8.31.04-12.46.02-1.25.01-2.38-.59-3.58-1.14-2.28-.97-4.75-.31-7.14.41-1.49.96-2.96,1.64-4.34,1.24-2.52,1.17-5.06.33-7.62-.87-2.65-2.08-5.2-2.72-7.9-.55-2.33-.48-4.81-.75-7.21-.09-.79-.43-1.54-.59-2.32-.24-1.1-.42-2.22-.63-3.34-.87-.1-1.83-.2-2.73-.3,3.93-5.79,7.42-11.75,5.73-19.35,1.43,1.08,1.72,2.68,2.33,4.12.37-1.62-.14-3.04-1.05-4.28-1.47-1.99-3.15-3.84-4.53-5.89-.82-1.22-1.23-2.7-1.77-4.09-.05-.13.29-.42.45-.63l-.03-.03c.83,1.44,1.51,2.99,2.51,4.29,1.34,1.75,3.06,3.22,4.36,5,.77,1.06,1.32,2.43,1.5,3.73.24,1.76,0,3.58.05,5.37,0,.4.31.79.52,1.17.24.45.53.87.77,1.32.66,1.26,1.3,2.52,1.95,3.78.15-.05.3-.09.45-.14.2-.67.4-1.34.67-2.22.23.33.39.46.39.59.08,2.45,1.22,4.33,2.98,5.99,2.27,2.15,3.41,4.82,2.96,8.03-.05.36,0,.74,0,1.36,1.22-1.64,1.22-3.3,1.17-4.9-.04-1.59-.32-3.17-.49-4.76.15-.05.3-.09.45-.14.59,1.37,1.17,2.74,1.75,4.08,1.34-2.06,1.3-4.22-.03-6.14-2.06-2.95-4.07-5.95-6.14-8.97.06,2.34.13,4.78,1.37,6.82.57.95,2.04,1.36,2.97,1.93-1.28.44-3.38-.11-4.44-1.15-2.73-2.68-3.67-6.08-4.02-9.72-.11-1.08-.11-2.18-.18-3.56,2.02,1.55,1,3.98,2.13,5.57.14,0,.27,0,.41,0,0-2.09.22-4.21-.06-6.26-.27-2.02-1.04-3.97-1.46-6,1.71,1.9,2.79,4.1,3.22,6.6.46,2.69,1.4,5.19,2.93,7.45.56.83,1.2,1.61,2.06,2.32-.12-.75-.31-1.49-.34-2.25-.09-1.99-.14-3.98-.15-5.97,0-.23.29-.45.45-.68.22.18.55.32.64.56.19.49.35,1.02.36,1.54.12,4.6,1.44,8.79,4.19,12.51,1.55,2.11,1.63,4.52,1.33,6.99-.09.72-.2,1.45-.33,2.34,4.8-3.94,4.97-14.35.17-18.36.8,1.83,1.62,3.64,2.38,5.48.17.42.14.93.2,1.4-.56-.07-1.4.05-1.62-.26-.72-1.03-1.47-2.16-1.75-3.35-.66-2.83-1.08-5.71-1.53-8.58-.07-.46.15-.98.25-1.6.79,1.63,1.4,3.12,2.22,4.48.56.93,1.44,1.67,2.15,2.51,4.13,4.92,4.45,10.61.82,15.91-.79,1.16-1.84,2.14-2.72,3.25-.31.39-.63.89-.67,1.36-.23,2.85,0,5.66,1.24,8.3.56,1.2.81,1.26,1.78.35.38-.36.71-.76,1.13-1.2-.11,1.16-.73,1.78-1.89,2.28-1.61.69-2.17-.64-3.16-1.69-.21.75-.55,1.33-.5,1.87.39,4-1.43,7.1-3.9,9.96-1.09,1.27-2.12,2.6-3.25,3.84-.42.46-1.02.75-1.54,1.11-.08-.08-.17-.16-.25-.25.69-1.18,1.5-2.31,2.03-3.56,1.04-2.44,1.53-4.99.98-7.65-.13-.65-.29-1.29-.44-1.93-1.32.06-1.6.88-1.97,1.99-.9,2.67-2.07,5.25-3.16,7.85-.12.28-.4.5-.89.6.12-.44.19-.9.36-1.33,1.69-4.28,1.52-8.67.75-13.09-.08-.43-.2-.88-.42-1.25-1.22-1.99-2.48-3.95-3.83-6.1.21.53.31.9.5,1.22,1.73,2.9,2.24,6.13,2.61,9.4.33,2.92-.67,5.6-1.68,8.25-1.26,3.31-2.6,6.59-3.82,9.91-.39,1.06-.92.84-1.61.44.12-1,.1-2.05.4-3,.53-1.64,1.31-3.19,1.88-4.81.27-.76.28-1.61.41-2.42-.15-.02-.31-.05-.46-.07-1.71,3.45-3.41,6.9-2.86,11.21.3-.44.47-.69.63-.93ZM262.5,152.01c-.45,2.66-.21,5.32.44,7.84.97,3.73,2.71,7.17,5.22,10.15.31.37.89.53,1.34.78.05-.47.23-.98.12-1.41-.92-3.5-1.88-7-2.89-10.48-.17-.6-.58-1.19-1.03-1.63-1.53-1.47-2.78-3.09-3.2-5.26ZM260.62,165.88l-.5.04c0,.77.01,1.55,0,2.32-.01.57.12,1.25-.14,1.7-.92,1.6-.33,3.05.27,4.51,1.66,4.04,3.62,7.99,3.33,12.55,0,.14.13.28.2.42.17-.04.33-.07.5-.11,1.84-7.65-.62-14.59-3.65-21.44ZM276,187.19c1.44-2.73,2-5.59,1.12-8.66-2.15,2.67-1.05,5.73-1.12,8.66ZM278.71,161.71c-.14,0-.28-.01-.42-.02-.11.76-.35,1.54-.29,2.29.08,1.15.38,2.29.54,3.44.12.85.18,1.71.27,2.56,1.1-2.83.89-5.57-.09-8.27ZM261.33,159.35c-.07,4.21.51,6.37,2.13,8.57-.74-2.98-1.43-5.78-2.13-8.57ZM279.08,159.26c.4,1.32.81,2.65,1.21,3.97.14-1.5.43-3.04-1.21-3.97ZM270.35,162.13c-.16.07-.33.15-.49.22.48,1.15.97,2.31,1.45,3.46.13-.05.26-.11.39-.16-.45-1.17-.9-2.35-1.36-3.52Z"/>
      <path class="cls-1" d="M285.57,104.23c-.21-1.23-.42-2.46-.63-3.68.09-.02.17-.03.26-.05.97,2.36,1.94,4.72,2.91,7.08.14-.06.28-.11.42-.17-.39-1.07-.79-2.15-1.28-3.5,1.67,1.26,2,2.94,2.44,4.49.44,1.55.6,3.18,1.17,4.8,0-.7.12-1.42-.02-2.08-.38-1.82-.69-3.67-1.34-5.4-1.53-4.1-.81-7.81,1.57-11.33.25-.36.64-.63,1.06-.86-1.77,4.22-3.5,8.37-1.05,13.07.26-.28.43-.46.75-.81,1.16,2.03,1.94,4.02,1.88,6.38-.09,3.21-1.2,6.14-2.05,9.16-.41,1.45-.51,3.03-.51,4.55,0,1.88.27,3.75.42,5.63.15,0,.31,0,.46.01.06-.48.22-.97.16-1.43-.52-4.42,1.15-8.25,3.17-11.99.48-.9.95-1.81,1.5-2.66,1.4-2.17,1.46-4.52.88-6.91-.11-.45-.69-1-1.15-1.12-3.46-.84-4.82-2.87-3.77-6.25.78-2.51,1.89-4.91,3.15-7.35.04.42.19.88.1,1.27-.32,1.28-.7,2.55-1.11,3.81-.61,1.89-1.43,3.74-.94,5.81.36,1.51,1.58,2.33,3.04,1.98-.13-.62-.27-1.24-.4-1.86,1.44,1.4,2.21,3.08,2.68,4.96.62,2.49.04,4.72-1.19,6.87-1.1,1.92-2.16,3.86-3.2,5.82-.35.65-.57,1.36-.7,2.1,4.72-6.06,8.12-12.52,6.01-20.63.15-.03.3-.06.45-.08.43,1.2,1.11,2.38,1.25,3.62.4,3.38.64,6.78.81,10.19.05.97-.27,2-.57,2.95-.68,2.15-1.5,4.26-2.18,6.41-.57,1.79-.35,3.57.23,5.42.62-1.14-.48-3.02,1.24-3.33,1.16-1.95,2.27-3.73,3.28-5.56.51-.92.84-1.93,1.27-2.89.26-.6.55-1.2.92-2.01,1.36,1.69.76,3.08.16,4.59,1.29.06,1.2.87,1.08,1.75-.11.83-.22,1.68-.17,2.51.05.79.3,1.56.46,2.34-1.8.25-2.54-1.36-2.26-4.8-1.27,3.33-1.56,6.85-2.13,10.55-.25-.51-.54-1-.74-1.52-.21-.56-.35-1.16-.64-1.7-.6,1.4.25,2.98,2.5,5.02-.03.07-.06.21-.11.21-2.83.23-4.76-.89-5.78-3.49-.49-1.25-.8-2.58-1.32-3.84.16,2.31-.29,4.61,1.32,6.82,1.18,1.63,1.74,3.75,2.39,5.71.7,2.14.28,4.18-.97,6.08-.24.36-.17,1.02-.06,1.49.66,2.95.44,5.82-1.39,8.26-1.31,1.75-3.1,3.09-3.91,5.28-.39,1.04-1.47,1.22-2.43,1.01.44-.57.92-1.18,1.57-2.01-1.76-.16-2.24-1.02-2.25-2.39.22.1.31.12.37.18.48.5.95,1.01,1.42,1.51.1-.71.38-1.45.27-2.12-.49-3.13-2.19-5.68-4.17-8.03-1.11-1.32-2.29-2.62-3.63-3.69-2.18-1.73-3.53-3.92-4.32-6.53-.5-1.65-1.04-3.29-1.52-4.94-.11-.37-.06-.78.13-1.25,2.08,5.54,4.34,10.88,9.93,13.83-.02-.14,0-.43-.1-.66-1.07-2.54-1.72-5.29-3.98-7.23-.72-.62-1.16-1.67-1.52-2.61-1.34-3.5-2.17-7.1-2.04-10.89.04-1.31-.24-2.63-.37-3.95-.03-.28,0-.56,0-1.08,1.78,1.12,3.18,2.25,3.92,4.05,1.42,3.46,1.97,7.05,1.71,10.79-.03.41.18.95.46,1.26.75.81,1.55,1.59,2.42,2.27,2.89,2.29,4.6,5.44,6.28,8.59.43.81.53,1.78.59,2.78-1.52-2.99-3.55-5.44-6.55-7.05.58.96,1.18,1.9,1.73,2.88.48.85.87,1.74,1.34,2.59.42.77.39,1.73,1.63,2.1.58.17.89,1.53,1.15,2.4.21.7.17,1.48.26,2.44,1.17-2.07,1.53-4.18,1.09-6.24-1.1-5.16-3.17-9.77-8.12-12.47-.99-.54-1.13-.98-.84-1.83.81.55,1.59,1.24,2.5,1.66,2.88,1.35,4.61,3.79,6.25,6.34.42.66.78,1.36,1.27,2.22.79-1.44.72-2.81.27-3.98-.94-2.41-2.06-4.76-3.25-7.06-1.17-2.26-1.92-4.57-1.47-7.12.23-1.29.66-2.53.86-3.84-1.72,2.94-3.11,5.99-3.15,9.81-.99-.97-1.93-1.65-2.54-2.55-1.47-2.19-2.54-4.55-2.65-7.27-.03-.64.29-1.6-1-1.74.84-4.79,3.09-9.39,1.82-14.48-.26,3.11-1.64,5.63-3.8,7.71-.11-.04-.23-.09-.34-.13.3-1.11.6-2.21.89-3.32.31-1.2.58-2.41.9-3.61.56-2.12.19-4.12-.8-6.03v.02ZM284.69,125.85c.18,4.11.79,8.1,2.85,11.73-.1-4.12-.7-8.12-2.85-11.73ZM296.11,157.67c.14-.04.27-.07.41-.11-.16-1.14-.31-2.28-.47-3.42-.17-.04-.34-.08-.51-.12-.22.42-.69.92-.59,1.24.25.84.76,1.6,1.16,2.4Z"/>
      <path class="cls-1" d="M227.16,194.4c2.83-.65,5.2-1.19,7.57-1.74.04.16.09.32.13.48-2.54.69-5.17,1.2-7.26,3.2,1.1,1.11,2.11,2.14,3.12,3.16-.08.12-.17.25-.25.37-.28,0-.62.11-.82-.02-1.51-.99-3.2-1.62-4.36-3.25-1.02-1.43-1.97-2.73-2.08-4.54-.04-.74-.45-.98-1.28-.88-1.86.24-3.74.3-5.61.46-.91.07-1.82.15-2.72.28-1.02.15-1.99.71-3.08.04-.33-.2-.95-.01-1.42.08-5.4,1.08-10.87,1.62-16.37,1.46-5.71-.17-11.45-.52-16.96-2.17-4.49-1.34-8.84-3.12-13.26-4.69-1.62-.57-3.26-1.11-4.91-1.61-.97-.3-1.77.06-2.26.94-.78,1.38-1.5,2.8-2.24,4.21-.19.37-.33.76-.49,1.15l-.46-.08c.05-.73-.06-1.52.17-2.18.42-1.15,1.19-2.19,1.54-3.36.25-.85.4-1.56,1.59-1.52-.03-.12-.06-.23-.09-.35-.47-.22-.93-.43-1.69-.79-.99,2.86-1.93,5.57-2.9,8.37-1.14-1.13-1.95-2.54-1.79-4.22.16-1.63.58-3.26,2.01-4.3.14.05.28.1.42.16-.42,1.46-.84,2.93-1.27,4.39.06.01.13.03.19.04.81-1.51,1.62-3.01,2.53-4.7-1.82-.7-3.71-1.42-5.6-2.14.04-.19.07-.38.11-.57,1.66.16,3.34.21,4.98.5,1.65.29,3.29.73,4.88,1.26,4.87,1.65,9.71,3.36,14.55,5.07,2.54.89,5.01,2.01,7.6,2.68,3.14.81,6.33.96,9.57.04,3.06-.87,6.23-1.35,9.33-2.06,1.25-.29,2.45-.78,3.68-1.14,1.3-.38,2.76-1.24,3.89-.94,1.47.39,2.38-.22,3.5-.66.11-.04.34-.05.38,0,.85,1.36,1.82.18,2.74.22.98.04,1.85-.45,2.59-.47,1.57-.03,2.68-.89,3.91-1.61l.22.38c-1.2,1.63-2.41,3.26-3.55,4.8,1.12-.17,2.47-.35,3.81-.58.95-.17,1.22-.58.98-1.68-.29-1.28-.13-2.67-.08-4.01.02-.49.28-.97.48-1.59-2.33.38-4.26,1.85-6.52,1.45-.05-.13-.1-.26-.14-.39.35-.2.68-.44,1.05-.61,2.85-1.26,5.18-3.04,6.42-6.03.15-.37.64-.61.97-.91.16.5.49,1.02.44,1.5-.08.72-.43,1.42-.67,2.12.12.09.23.18.35.27.59-.78,1.22-1.53,1.74-2.35.59-.93,1.11-1.9,1.57-2.89.25-.53.39-1.14.46-1.72.29-2.41.47-4.83.83-7.23.14-.96.73-1.76,2-1.89-.18,2.17-.42,4.22-.49,6.28-.07,1.94-.07,3.89.13,5.82.15,1.39.94,1.91,2.25,1.96-.16-.83-.32-1.65-.51-2.63,1.48.24,1.7,1.3,2.04,2.13.77,1.89,1.84,3.52,3.44,4.8.26.21.51.44.7.75-1.84-.6-3.37-1.66-4.42-3.29-.49-.76-1.12-1.09-2-1.31-1.15-.29-2.23-.87-3.55-1.41-.96,2.57-1.83,5.33-1.29,8.48,1.7-.2,1.8-2.82,3.86-2.4-.55.98-1.33,1.86-1.54,2.85-.34,1.56-.3,3.2-.43,4.95,1.12-.45,1.97-.78,2.73-1.09-1.03,2.29-2,4.46-3.08,6.88ZM223.6,180.04c-2.29,2.78-2.94,4.47-2.24,6.2,1.21-1.97,3.88-3.22,2.24-6.2Z"/>
      <path class="cls-1" d="M357.43,228.54c-3.09,2.8-6.64,4.83-10.69,6.33,1.19.38,2.39.76,3.58,1.14l-.07.37h-3.03c-.02.06-.03.12-.05.19.94.47,1.88.94,2.82,1.41-.03.09-.06.18-.09.27-.26-.03-.54-.02-.78-.1-1.47-.49-3.04-.81-4.37-1.55-2.2-1.21-4.44-1.01-6.56-.29-3.37,1.15-6.84,1.42-10.31,1.75-1.12.11-2.25.02-3.39.1,4.96,1.33,9.4,4.35,14.79,4.2-.01.18-.03.35-.04.53-.94,0-1.93.19-2.82-.04-2.39-.6-4.76-1.32-7.11-2.08-4.55-1.49-9.12-2.59-13.89-.99-.38.13-.74.29-1.11.45-.35.15-.68.33-1.36.66.24-.72.37-1.09.64-1.88-2.13,1.01-4,1.9-5.98,2.84-.06-.6-.11-1.04-.16-1.47-.11-.05-.22-.1-.32-.15-.46.73-.92,1.47-1.43,2.27.74.52,1.37.96,2.05,1.43-.89-.2-1.84-.73-2.41-.46-.59.28-.81,1.34-1.32,2.29-.64-1.32-.22-2.25.26-3.1.95-1.7,2.07-3.31,2.98-5.03,1.11-2.08,2.07-4.24,3.1-6.37-.11-.07-.23-.15-.34-.22-1.59,1.22-3.17,2.44-4.76,3.65-.1-.08-.2-.16-.3-.24.34-.48.6-1.06,1.04-1.43.91-.76,1.79-1.39,2.13-2.71.27-1.05,1.12-2,1.86-2.87,2.43-2.87,2.84-6.19,2.32-9.75-.24-1.66-.43-3.33-.6-5-.04-.36.07-.73.11-1.09.15-.02.29-.03.44-.05.74,3.3,1.48,6.59,2.23,9.89.11.02.22.03.33.05.27-1.03.55-2.07.81-3.1.49-1.98.81-4.01,1.49-5.92,1.31-3.69,3.8-6.68,6.24-9.68.83-1.02,1.68-2.03,2.52-3.05.22.18.43.36.65.53-2.07,3.34-4.13,6.68-6.22,10.06,1.16.71,1.88.6,2.53-.15,1.27-1.48,2.6-2.9,3.8-4.43.34-.43.41-1.14.43-1.73.11-2.49,1.23-4.44,3.14-6.03-.52,1.91-2.06,3.52-1.75,5.76,3.7-1.96,7.29-3.87,10.88-5.78.09.14.17.28.26.42-.28.21-.55.44-.84.63-2.97,1.94-5.96,3.83-8.89,5.82-1.5,1.02-1.6,1.46-.51,2.92,1.67,2.23,3.64,4.24,5.22,6.52,1.42,2.06,2.52,4.36,3.68,6.59.41.8.61,1.71-.1,2.59-.63-1.63-1.27-3.1-1.76-4.63-.92-2.89-3-4.34-5.84-4.9-2.43-.48-4.87-.95-7.31-1.35-.33-.05-.85.23-1.09.51-1.22,1.46-2.54,2.88-3.52,4.49-1.04,1.71-1.75,3.63-2.71,5.69,3.47-.99,6.73-1.93,9.99-2.86.05.13.1.25.15.38-.44.22-.86.5-1.31.66-3.21,1.16-6.42,2.31-9.63,3.45-1.02.36-1.77.8-1.72,2.14.02.63-.56,1.27-.84,1.91-.69,1.61-1.35,3.22-2.03,4.84.11.09.22.18.34.26.77-.43,1.54-.86,2.3-1.29.11.1.23.2.34.31-2.4,1.6-4.32,3.51-4.49,6.5,5.14-.98,8.84-5.28,9.02-10.58.04-1.02-.04-2.04.03-3.05.02-.29.41-.55.63-.82.16.27.42.52.48.82.8,4.55.78,4.68-1.18,9.77,1.33-.63,2.49-1.18,3.25-2.45.8-1.32,1.72-2.59,2.75-3.74,1.81-2.02,3.2-4.23,3.84-6.89.08-.33.26-.63.4-.95.14-.03.28-.06.41-.1.16.48.47.98.44,1.45-.13,2.49-1.09,4.64-2.88,6.38-.75.73-1.53,1.43-2.29,2.14.1.11.19.22.29.33,1.07-.75,2.13-1.5,3.2-2.25,4.56-3.22,9.47-5.65,14.93-7.01,1.7-.42,3.19-1.65,4.8-2.48,1.02-.53,2.06-1.03,3.11-1.49.4-.17.88-.18,1.38-.09-1.35,1.66-3.55,1.91-5.04,3.59,1.88,0,3.76.02,5.64-.02.32,0,.64-.26.95-.41,4.03-2.01,8.05-4.05,12.1-6.02.37-.18.93.05,1.4.08-.3.4-.51.99-.91,1.18-2.87,1.38-5.79,2.68-8.68,4.02-.75.35-1.48.74-2.19,1.25,5.63.88,11.35.89,16.73,2.98-1.74-.29-3.47-.65-5.22-.86-2.63-.31-5.27-.63-7.92-.72-4.28-.14-8.57-.23-12.84-.07-1.86.07-3.85.48-5.52,1.27-3.87,1.83-7.66,3.86-11.35,6.04-3.92,2.31-7.68,4.87-11.28,7.17.94-.17,2.23-.46,3.53-.63,2.71-.37,5.42-.76,8.15-.99,3.45-.29,6.45-1.8,9.48-3.25,1.04-.5,2.07-1.01,3.09-1.53,2-1.02,3.78-2.28,4.79-4.41.15.02.3.05.45.07,0,.57.16,1.2-.03,1.7-.63,1.72-2.05,2.74-3.59,3.57-.88.47-1.8.88-2.78,1.35,1.57.24,2.98.48,4.41.64.34.04.75-.15,1.07-.34,3.25-1.89,6.48-3.82,9.74-5.7.42-.24.97-.25,1.46-.37.05.14.09.28.14.42ZM323.94,210.95c3.01.74,5.88,1.45,9.01,2.22-1.83-2.14-3.54-4.15-5.33-6.23-1.27,1.38-2.47,2.69-3.68,4.02ZM318.01,216.04c.12.04.24.08.36.12.95-1.34,1.89-2.68,3.01-4.26-1.03-.33-1.82-.58-2.73-.88-.22,1.75-.43,3.38-.64,5.01Z"/>
      <path class="cls-1" d="M306.07,253.66c-.63-1.11-1.12-1.98-1.6-2.84-1.37.84-2.55,3.77-2.41,5.79-.62-.58-1.24-1.16-1.91-1.79-1.36.54-2.76,1.48-4.84.92.59-.38.92-.55,1.2-.78,1.35-1.13,2.71-2.24,4.02-3.42.75-.67,1.41-1.45,2.11-2.18.62-.64.73-1.2.24-2.08-2.93-5.32-8.12-5.99-13.34-6.74-2.35-.34-4.7-.8-7.01-1.39-1.41-.36-1.71-.96-1.6-2.33,1.57,2.98,4.45,2.49,6.92,2.9,2.87.48,5.77.73,8.61,1.08-3.33-1.54-7.04-2.81-8.89-6.6,3.33,3.3,7.34,5.36,11.83,6.73-1.07-1-.82-2.21-.98-3.42-.23-1.81-.9-3.61-1.66-5.29-2.24-5-3.1-10.13-1.92-15.53.09-.42.24-.84.36-1.26.12,0,.24.01.37.02-.07,1.56-.17,3.11-.2,4.67-.03,1.62,0,3.23,0,4.92,1.72-3.57,3.34-6.92,4.98-10.26.06-.13.37-.14.92-.32-.38.85-.66,1.42-.89,2-1.24,3.08-2.5,6.14-3.69,9.24-.58,1.51-.45,3,.24,4.5.8,1.75,1.46,3.57,2.39,5.39.46-4.42,2.53-7.83,6.02-10.45-1.25,2.2-2.5,4.41-3.76,6.61.11.09.22.18.34.27.49-.3.97-.61,1.46-.91.08.06.16.11.24.17-.18.35-.35.69-.53,1.04-.96,1.83-2.19,3.52-2.22,5.75-.01.81,1.06,1.86-.32,2.53-.02,0,.21.52.51,1.23,1.38-3.39,3.33-5.9,6.16-7.6.1.07.2.15.31.22-.21.32-.37.69-.64.95-2.37,2.37-3.5,5.41-4.52,8.48-.21.64.21,1.64.63,2.29.49.76,1.27,1.35,1.98,1.94,1.36,1.13,1.94,3.39,1.09,5.56Z"/>
      <path class="cls-1" d="M133.83,133.18c-6.23.52-11.97,2.41-17.54,4.85-.69.3-1.28.95-1.78,1.54-1.73,2.07-3.41,4.18-5.09,6.29-1.41,1.77-1.78,3.88-1.53,6.03.47,4.09,1.02,8.17,1.72,12.22.24,1.36,1.03,2.62,1.62,4.03-1.01.41-1.58-.21-2.14-.8-2.71-2.81-3.65-6.29-3.81-10.07-.09-2.12-.15-4.24-.28-6.36-.15-2.54.39-4.93,1.56-7.19-.11-.1-.23-.2-.34-.3l-1.87,2.32c-.13-.1-.26-.21-.39-.31.63-.9,1.13-1.94,1.91-2.69,2.68-2.57,5.45-5.05,8.2-7.55.49-.45,1.02-.85,1.55-1.25,1.42-1.08,2.11-.91,2.88.67.09.19.18.39.27.6,2.55-.77,5.01-1.62,7.53-2.26,1.79-.46,3.65-.7,5.49-.92,1.11-.13,1.48.17,2.04,1.15Z"/>
      <path class="cls-1" d="M89.08,196.92c-.24,2.88-.49,5.75-.73,8.64.58-.86,1.21-1.79,1.84-2.73.12.06.25.12.37.18-.34.92-.67,1.85-.97,2.65,1.09,1.21-.41,2.08-.26,3.21.44-.31.87-.6,1.3-.9.07.05.13.09.2.14-.12.29-.21.6-.37.87-3.49,5.59-7.57,10.6-13.66,13.58-.36.17-.68.42-1.01.64-1.41.91-2.18,1.9-1.92,3.87.36,2.73.09,5.53.09,8.31l-.38.08c-.19-.77-.49-1.52-.56-2.3-.24-3-.43-6-.58-9-.02-.32.3-.68.53-.97.71-.92,1.45-1.81,2.18-2.71.08-.1.13-.26.23-.32,3.27-2.04,4.02-5.82,6.03-8.73,2.65-3.84,4.8-7.95,6.13-12.47.22-.76.65-1.47.98-2.21.19.06.38.12.56.18Z"/>
      <path class="cls-1" d="M258.75,107.2c.26.69.53,1.37.77,2.06,1.18,3.4,2.88,6.43,5.82,8.68,1.42,1.08,2.66,2.41,4.2,3.47-.34-.47-.71-.92-1.02-1.42-1.64-2.62-3.29-5.23-4.88-7.88-.27-.45-.29-1.06-.43-1.59.14-.05.28-.09.42-.14.5.75.94,1.54,1.51,2.23,2.3,2.79,4.41,5.81,7.03,8.27,4.65,4.34,5.79,9.86,6.15,15.76.04.61-.2,1.23-.31,1.84-.14,0-.28.01-.43.02-.69-1.76-1.42-3.51-2.08-5.29-.87-2.34-2.56-4.06-4.43-5.53-3.2-2.52-6.02-5.38-8.33-8.69-2.23-3.19-3.49-6.84-4.3-10.64-.07-.35.05-.74.08-1.11.08-.01.16-.03.23-.04Z"/>
      <path class="cls-1" d="M316.59,116.44c-.6-1.31-.95-2.77-1.82-3.82-.87-1.05-2.24-1.68-3.44-2.53-.08,1.96,1.43,3.7.68,5.71-.67,1.81-1.34,3.61-3.32,4.58.2-.4.44-.79.59-1.22.53-1.49,1.12-2.97,1.51-4.5.38-1.47-.15-2.83-.78-4.21-1.1-2.4-2.24-4.83-2.95-7.36-.37-1.34.13-2.93.27-4.41.02-.17.23-.33.6-.83.1,2.02.18,3.68.27,5.33l.43-.02c0-1.26.21-2.57-.05-3.78-.31-1.4-.09-2.59.76-3.61,1.15-1.37,2.46-2.61,3.69-3.91.18.09.35.18.53.27-.14.56-.29,1.13-.45,1.78,3.11-.68,6.19-1.35,9.28-2.02-.25.55-.47,1.06-.86,1.92-4.07.72-7.04,3.69-9.61,7.23-.14-.1-.28-.21-.42-.31.3-.79.61-1.59,1.03-2.7-1.25,1.22-1.68,2.45-1.64,3.78.07,2.53.26,5.09,1.83,7.23.75,1.01,1.68,1.91,2.65,2.72,1.63,1.37,2.14,2.6,1.52,4.26-.07.18-.23.32-.29.39Z"/>
      <path class="cls-1" d="M143.27,254.45c-1.5-1.18-2.99-2.36-4.49-3.53-.11.1-.21.19-.32.29.36.56.72,1.12,1.08,1.68-.05.06-.1.12-.14.19-1.14-.73-2.29-1.46-3.73-2.39.22.58.3.8.39,1.02-2.21.71-3.81-.66-3.64-3.2-3.91-1.45-8.6-1.45-11.22-5.52,4.65,2.37,10.06,1.73,15.1,4.13-.54-1.94-.95-3.43-1.36-4.9-2.2-.14-2.94-.7-3.51-2.8-.45-1.66-.8-3.35-1.14-5.04-.07-.33.14-.72.22-1.08.36.12.79.15,1.05.38,1.86,1.65,2.74,3.88,3.52,6.15.47,1.38.71,2.84,1.18,4.21.14.41.69.89,1.11.97,2.79.48,5.39,3.71,5.26,6.61-.02.41.21.83.35,1.23.17.5.36.99.54,1.49-.08.04-.16.08-.24.12ZM131.74,235.23l-.41.16c.32,1.49.55,3.01.99,4.46.28.93,1.11,1.36,2.3,1.36-.47-2.37-1.28-4.37-2.88-5.98ZM138.42,248.21c1.05.85,2,1.61,3.06,2.47-.06-1.51-1.31-2.49-3.06-2.47Z"/>
      <path class="cls-1" d="M221.55,213.41c2.07-3.16,4.15-6.31,6.22-9.47.15.03.31.06.46.09-.05.46.04,1-.17,1.36-1.27,2.13-2.39,4.39-3.96,6.27-3.01,3.59-3.87,7.72-3.95,12.21-.08,4.23-.33,8.45-.5,12.68-.11.06-.23.12-.34.17-.32-.51-.81-.99-.92-1.54-.32-1.55-.56-3.13-.7-4.7-.43-4.83-.32-9.62.62-14.41.45-2.29.52-4.65.84-6.97.09-.68.53-1.31.69-1.99.11-.45.04-.94,0-1.41-.09-.97-.22-1.93-.08-2.93,1.91,3.32,1.4,6.99,1.81,10.64Z"/>
      <path class="cls-1" d="M106.77,186.14c.17.87.28,1.45.4,2.1,1.32-2.21,2.59-4.36,3.87-6.51.17.07.33.13.5.2.79,1.38-.03,2.86.04,4.28.13.04.25.08.38.12,1.03-3.12,2.06-6.23,3.1-9.35.71,2.17-1.07,4.21.13,6.54.92-1.58,1.77-3.03,2.62-4.48l.22.06c0,.22.07.47-.01.66-1.19,2.8-2.13,5.76-3.69,8.34-1.37,2.25-3.48,4-6.25,4.66-.8.19-1.55.6-2.33.9-.74.28-1.21.01-1.04-.77.45-2.06.98-4.11,1.5-6.15.03-.11.17-.19.55-.59Z"/>
      <path class="cls-1" d="M318.53,65.06c2.97-.13,5.89-.07,8.32,1.91.45.36.85.92,1.02,1.47.66,2.17,1.25,4.37,1.8,6.57.17.67.11,1.39.15,2.08,0,.17-.09.44,0,.51,1.39,1.23.14,2.31-.34,3.22-1.11,2.06-2.55,3.93-3.77,5.94-.86,1.42-2.02,2.27-3.62,2.65-2.02.49-4.01,1.12-6.03,1.61-.54.13-1.15-.05-1.72-.09-.03-.18-.05-.35-.08-.53.47-.26.92-.59,1.42-.75,1.98-.64,3.97-1.23,5.95-1.85.37-.12.82-.25,1.03-.53,1.93-2.57,3.94-5.1,5.65-7.81.53-.85.36-2.23.26-3.35-.08-.95-.5-1.87-.8-2.79-.29-.88-.8-1.33-1.85-1.33-1.04,0-2.09-.3-3.12-.57-.3-.08-.64-.46-.73-.76-.05-.16.36-.58.64-.68,1.36-.5,2.75-.94,4.32-1.46-2.54-2.13-5.82-2.05-8.51-3.43Z"/>
      <path class="cls-1" d="M163.17,256.99c1.98-1.61,4.36-2.2,6.79-2.56,9.15-1.33,17.97.13,26.58,3.26,5.61,2.04,11.17,4.26,16.85,6.08,5.29,1.7,10.75,2.08,16.25.84.26-.06.53-.07.79-.07.11,0,.22.1.55.26-.51.2-.84.35-1.19.46-5.5,1.72-11,1.19-16.34-.46-5.7-1.77-11.29-3.91-16.89-5.99-6.54-2.43-13.32-3.67-20.26-3.82-4.28-.1-8.58.28-12.65,1.88-.15.06-.33.07-.49.11Z"/>
      <path class="cls-1" d="M131.3,175.42c1.47-2.19,2.85-4.46,4.44-6.56,2.87-3.79,3.63-8.17,3.93-12.73.13-2.03.41-4.04.68-6.06.05-.38.4-.72.62-1.08.34.31.79.55,1.01.93.69,1.17,1.02,2.42.62,3.81-.29,1.02-.44,2.08-.65,3.12-.05.26-.18.56-.11.78,1.13,3.2-.22,5.93-1.73,8.56-1.87,3.25-4.3,6.06-7.2,8.45-.46.38-.98.67-1.48,1-.04-.07-.09-.15-.13-.22Z"/>
      <path class="cls-1" d="M116.1,261.49c.33-.07.67-.15,1-.22,3.56-.66,7.09-.5,10.65.14,2.37.43,4.8.55,7.2.81.06-.11.11-.22.17-.33-.6-.73-1.21-1.46-1.81-2.2.09-.12.18-.24.27-.37.65.33,1.3.66,2.08,1.05.99-1.39-.43-2.6-.31-3.8.16-1.68-1.05-2.25-2.14-3.21,4.06.34,5.78,3.31,5.28,6.99-.36-.21-.67-.4-.98-.59-.04.04-.14.09-.15.15-.19,1.32-1.33,2.07-1.89,3.14-.88,1.67-2.14,1.07-3.38.95-4.97-.46-9.93-.9-14.9-1.4-.45-.05-.87-.41-1.31-.63.07-.16.13-.33.2-.49Z"/>
      <path class="cls-1" d="M254.85,112.35c.19.33.48.63.56.99.89,4.08,3.73,6.7,6.76,9.22,2,1.66,3.96,3.39,5.87,5.16,1.8,1.66,2.69,3.84,3.54,6.12,1.42,3.81,1.57,7.67,1.15,11.62-.07.67-.25,1.32-.64,2.01-.62-6.86-1.94-13.36-7.63-18.03,2.68.73,4.3,2.69,6.02,4.65-.07-.22-.16-.43-.21-.65-1.06-4.2-4.51-6.39-7.5-8.99-1.96-1.71-3.89-3.47-5.71-5.33-1.78-1.82-2.15-4.26-2.57-6.63.12-.04.24-.09.36-.13Z"/>
      <path class="cls-1" d="M104.13,186.92c-.19-.42-.41-.83-.55-1.27-.9-2.83-2.52-5.22-4.39-7.51-1.33-1.63-2.23-3.62-3.57-5.25-2.38-2.9-3.11-6.47-4.32-9.85-1.07-3-.63-6.03.21-9.01.11-.38.41-.71.77-1.31,0,1.41.02,2.47,0,3.53-.1,5.85,1.61,11.13,4.95,15.92,1.54,2.21,3.03,4.45,4.54,6.68,1.33,1.96,2.46,4,2.74,6.4.06.51,0,1.03,0,1.55-.13.04-.26.07-.39.11Z"/>
      <path class="cls-1" d="M159.56,170.45c-2.51-2.11-5.02-4.21-7.66-6.43,3.18,5.04,8.3,7.52,12.99,10.61-.29.22-.37.32-.41.3-6.42-2.05-11.94-5.24-14.54-11.89-.72-1.85-.99-3.87-1.41-5.83-.05-.25.25-.57.38-.86.28.25.7.44.81.75.91,2.61,2.49,4.77,4.34,6.76,1.6,1.71,3.28,3.35,4.91,5.03.35.36.68.74,1.02,1.11-.14.15-.28.3-.43.44Z"/>
      <path class="cls-1" d="M254.22,131.05c-3.15-3.18-5.73-6.73-7.33-10.94-1.04-2.75-1.74-5.58-1.71-8.54,0-.45.2-.89.3-1.34.12,0,.25-.02.37-.03.12.42.3.84.34,1.27.44,4.75,2.32,9.03,4.81,12.96,1.46,2.31,3.64,4.18,5.54,6.21,2.02,2.16,4.11,4.26,6.12,6.42.35.38.51.94.51,1.58-2.99-2.54-5.98-5.09-8.97-7.63,0,0,.03.03.03.03Z"/>
      <path class="cls-1" d="M307.85,250.77c.2.36.46.7.61,1.09,1.87,4.84,5.14,8.8,8.33,12.75,1.84,2.29,4.71,3.01,7.51,3.62.72.15,1.44.27,2.3.42-1.67.78-4.13.5-7-1.18-2.05-1.2-3.85-2.83-5.67-4.2-.39,2.25-.02,3.44,1.57,4.36-.24.2-.44.38-.77.66.51.31.97.59,1.67,1.01-3.16-1.1-7.37-3.9-6.67-7.34.11-.56.07-1.21.35-1.67.78-1.28.36-2.27-.41-3.36-1.26-1.79-1.79-3.88-2.21-5.99.13-.06.26-.11.39-.17ZM312.78,266.25c-.23-1.46-.46-2.93-.68-4.39-.15.02-.3.05-.45.07-.02,1.51-.49,3.08,1.13,4.32Z"/>
      <path class="cls-1" d="M250.96,75.3c-.93,2.81-1.74,5.24-2.55,7.68.08.03.15.07.23.1.88-1.72,1.77-3.44,2.76-5.37,1.44,4.53-6.92,14.1-13.26,15.44.47-.54.76-1.06,1.21-1.35,4.37-2.92,6.79-7.21,8.58-11.97.48-1.27,1.16-2.46,1.82-3.65.17-.31.63-.46,1.22-.88Z"/>
      <path class="cls-1" d="M109.61,212.6c.19.92.62,1.87.52,2.76-.32,3.1-1.62,5.76-3.96,7.88-1.98,1.79-3.43,3.93-4.11,6.54-.51,1.96-.28,2.33,1.69,2.68.76.13,1.54.15,2.51.23-1.98.9-4.21.61-5.37-.8-.48-.58-.75-1.53-.71-2.29.14-2.6,1.31-4.8,3.26-6.47,3.08-2.64,4.46-6.18,5.54-9.91.06-.19.12-.38.18-.57.15-.02.3-.04.45-.06Z"/>
      <path class="cls-1" d="M127.68,272.38c-.36.35-.69.96-1.08,1-.49.05-1.04-.33-1.54-.57-.55-.26-1.06-.83-1.59-.83-1.21-.01-2.45.14-3.64.4-1.78.39-2.4.09-3.32-2.09.42.11.74.16,1.03.27,1.26.49,2.38.36,3.47-.52.4-.33,1.06-.33,1.6-.49-.06.51-.12,1.01-.2,1.66.03.02.21.15.4.19.21.05.43.01.48-.27.26-.23.57-.69.77-.64,2.07.46,3.95-.28,5.83-.9,1.01-.34,1.79-.58,1.74,1.06,1.44-.43,2.74-.82,4.04-1.2,1.48-.44,2.68.08,3.76,1.49-1.25.01-2.5-.06-3.74.06-1.36.13-2.7.5-4.06.67-1.35.18-2.72.25-4.08.36.04.12.08.24.12.36Z"/>
      <path class="cls-1" d="M325.8,91.83c1.11,1.57.93,3.29,2.34,4.19.15-.22.25-.3.23-.35-.28-1.05-.8-2.03,1.11-2.18,1.39-.11,2.19-1.14,1.85-2.74-.1-.45.04-.97.13-1.44.44-2.56.75-5.1-.76-7.46-.14-.22-.18-.5-.23-.76-.02-.12.02-.25.05-.47.19.07.41.08.47.18,1.42,2.34,2.68,4.71,1.79,7.6-.26.83-.57,1.68.21,2.47.14.14.06.6-.04.87-.15.46-.39.89-.6,1.33-.65,1.32-1.87,2.64.27,3.97-.11.07-.21.13-.32.2-1.05-.21-2.1-.44-3.15-.62-.36-.06-.83-.08-1.11.1-.85.52-1.53.23-1.92-.49-.47-.88-.83-1.85-1.02-2.83-.08-.42.4-.95.7-1.57Z"/>
      <path class="cls-1" d="M132.69,252.73c-2.91.86-5.79,1.88-8.75,2.49-1.38.28-2.93-.15-4.37-.45-.48-.1-.84-.78-1.18-1.35,2.88,1.18,5.56.36,8.27-.46-2.5-.2-5.13-.19-7.07-1.97-1.81-1.67-3.45-3.59-3.66-6.22.1-.05.21-.1.31-.15.11.35.24.7.34,1.05.43,1.46,1.14,2.68,2.71,3.17.12.04.31.08.35.16,1,2.45,3.54,1.84,5.35,2.67.87.4,1.83.73,2.77.81.88.08,1.79-.26,2.7-.34.73-.06,1.47-.01,2.21-.01,0,.19.02.38.03.57Z"/>
      <path class="cls-1" d="M280.23,119.35c2.04,2.79,2.82,5.87,2.06,9.27-.23,1.03-.67,2.02-1.01,3.02-.16-.04-.31-.08-.47-.12.04-.44.07-.88.1-1.31.25-3.52.5-7.11-2-9.98-1.31-1.5-3.06-2.67-4.76-3.75-3.08-1.97-5.05-4.75-6.45-8.03-.12-.28-.16-.6-.21-.9-.02-.12.05-.25.14-.67.38.82.6,1.46.94,2.02,1.85,3.06,4.06,5.75,7.3,7.49,1.55.83,2.92,1.97,4.38,2.98,0,0-.02-.02-.02-.02Z"/>
      <path class="cls-1" d="M306.1,118.58c0-2.02.24-4.07-.07-6.04-.28-1.8-1.11-3.52-1.76-5.26-1.02-2.76-1.92-5.53-1.14-8.52.14-.52.48-.99.72-1.48.12.05.23.1.35.15,0,1.29-.25,2.64.05,3.86.61,2.47,1.3,4.97,2.37,7.27,1.28,2.74,1.42,5.43.66,8.25-.18.68-.63,1.29-.96,1.93-.08-.05-.15-.11-.23-.16Z"/>
      <path class="cls-1" d="M226.99,148.79c.38.85.84,1.67,1.12,2.55.43,1.35.64,2.76,1.09,4.09.87,2.58,2.15,4.94,4.16,6.85.38.36.61.87.76,1.44-2.38-.61-4.44-1.75-5.43-3.98-.83-1.86-1.27-3.92-1.69-5.93-.33-1.58-.35-3.22-.52-4.84.17-.06.33-.13.5-.19Z"/>
      <path class="cls-1" d="M323.31,74.22c-2.57,3.36-5.09,6.65-7.61,9.93-.1-.07-.2-.14-.31-.21,1.54-3.18,3.87-5.84,5.98-8.64-.12-.13-.24-.25-.35-.38-2.26,1.78-4.58,3.48-6.76,5.36-2.19,1.89-4.23,3.96-6.55,5.79.57-.77,1.06-1.6,1.71-2.3,3.28-3.48,6.72-6.79,10.82-9.34.91-.56,1.8-.94,3.06-.22Z"/>
      <path class="cls-1" d="M290.17,81.51c.13-1.24.59-2.56.3-3.69-.37-1.44-1.32-2.74-2.06-4.08-.19-.35-.54-.61-.85-.96,1.29-.13,2.39-.24,3.6-.36,3.08,4.3,2.6,8.16-1,9.09Z"/>
      <path class="cls-1" d="M285.56,104.2c.07,1.24.13,2.47.2,3.71-.14.02-.28.04-.42.07-.12-.25-.25-.49-.34-.75-.68-1.87-1.31-3.75-2.02-5.61-.85-2.24-.71-4.34.76-6.27,1.12-1.46,2.29-2.86,3.44-4.29.13.05.27.1.4.16-.1.45-.09.96-.31,1.35-.52.92-1.12,1.8-1.73,2.67-2.12,3.01-1.52,6,.02,9,0,0-.01-.02-.01-.02Z"/>
      <path class="cls-1" d="M298.59,71.38c.99-1.99,1.97-3.99,3-6.06-.03,0,.16-.05.21,0,1.37,1.72,3.28,2.49,5.33,2.89,1.2.23.79,1.32,1.37,1.85l-.13.33c-1.35-.25-2.72-.42-4.05-.75-1.71-.43-3.1-.14-4.23,1.29-.28.36-.8.53-1.21.79l-.29-.33Z"/>
      <path class="cls-1" d="M224.78,103.34c.42-1.3.71-2.65,1.28-3.87.96-2.09,2.56-3.69,4.45-4.98,1.65-1.13,3.33-2.23,4.91-3.29.16.87-.42,1.99-1.96,3.1-2.25,1.61-4.26,3.44-5.81,5.74-.78,1.16-1.51,2.35-2.27,3.53l-.6-.23Z"/>
      <path class="cls-1" d="M292.64,255.23c-.12-.32-.36-.67-.37-1.03-.02-.52.11-1.04.18-1.56.28-1.98,2.52-3.04,4.25-2.06.28.16.83.04,1.15-.13.62-.33,1.15-.82,1.75-1.18.21-.13.53-.08.79-.11.01.29.03.57.04.86,0,.04-.04.08-.07.11-2.36,1.46-3.93,4.02-6.72,4.9-.21.07-.43.09-1,.21Z"/>
      <path class="cls-1" d="M238.05,198.05c.18.38.36.75.46.97-2.08-.8-4.2-1.61-6.45-2.47.49-.03.97-.15,1.42-.08.74.11,1.49.28,2.19.53.78.28,1.41.24,2.23-.07.75-.28,1.99-.22,2.59.25,2.92,2.24,4.14,5.45,4.77,8.92-.1.07-.2.13-.31.2-.28-.4-.56-.8-.83-1.21-1.16-1.77-2.25-3.61-3.51-5.3-.6-.81-1.55-1.36-2.34-2.02-.08.1-.15.2-.23.3Z"/>
      <path class="cls-1" d="M94.16,209.55c-.17.46-.38,1-.58,1.54.07.1.14.2.21.29,1.72-.92,3.49-1.76,5.13-2.79,1.67-1.04,3.21-2.28,5.1-3.26-.35.52-.64,1.1-1.07,1.54-2.59,2.64-5.73,4.37-9.21,5.57-.65.22-1.18.79-1.78,1.18-.27.17-.55.32-.83.47-.15-.3-.51-.67-.43-.88.29-.79.58-1.67,1.14-2.24.61-.63,1.53-.96,2.32-1.42Z"/>
      <path class="cls-1" d="M325.06,261.14c1.01.58,1.73,1,2.56,1.48-.36.29-.54.43-.74.59.12.14.2.32.29.33,1.59.1,2.68-.81,4.02-2.05-.84-.18-1.43-.22-1.95-.44-.41-.17-.73-.55-1.09-.83.46-.4.89-1.09,1.38-1.13,1.19-.1,3.03,1.39,3.22,2.58.08.53-.2,1.43-.6,1.67-1.05.61-2.22,1.11-3.41,1.36-1.46.32-3.25-1.35-3.68-3.56Z"/>
      <path class="cls-1" d="M291.02,248.83c.26.68.59,1.12.52,1.46-.4,1.86-1.25,3.5-2.89,4.59-.62.41-1.31.73-2.01,1-.26.1-.62-.05-.93-.08.06-.28.03-.7.2-.81,1.18-.74,1.29-1.77,1.18-3.06-.12-1.32.11-2.68.21-4.36,2,1.69.61,3.44,1.06,5.15.82-1.19,1.63-2.39,2.66-3.88Z"/>
      <path class="cls-1" d="M308.75,219.57c-4.43,2.86-7.64,6.84-10.36,11.27.06-4.47,6.5-11.5,10.36-11.27Z"/>
      <path class="cls-1" d="M215.06,271.25c-1.28.11-2.27.34-3.23.24-3.34-.32-6.67-.7-10-1.17-3.37-.47-6.72-1.04-10.07-1.62-.93-.16-1.82-.5-2.71-.85,8.48,1.05,16.82,3.08,25.44,2.71.07,0,.16.18.56.68Z"/>
      <path class="cls-1" d="M315.88,251.19c-.6-.35-1.21-.69-1.82-1.04-.47,3.9,2.16,6.38,8.7,8.37-.43.04-.86.12-1.29.1-4.76-.21-8.72-4.31-8.88-9.1-.02-.47-.43-1.01-.8-1.36-1.06-1-2.19-1.93-3.29-2.89.09-.1.17-.19.26-.29,1.65,1.37,3.31,2.73,4.93,4.13.76.65,1.44,1.39,2.15,2.1l.02-.02Z"/>
      <path class="cls-1" d="M214.5,152.59c.49,1,.93,1.73,1.21,2.51.66,1.82,1.13,3.73,1.9,5.5.87,2.01,1.97,3.92,2.92,5.77-2.55-.61-7.11-10.28-6.03-13.78Z"/>
      <path class="cls-1" d="M308.69,122.82c.03-.26.01-.38.06-.42,2.43-1.77,3.67-4.33,4.74-7.03.11-.29.59-.68.79-.63.3.09.66.51.69.81.06.6-.02,1.24-.19,1.82-.77,2.58-2.43,4.35-4.97,5.27-.34.12-.72.11-1.13.17Z"/>
      <path class="cls-1" d="M212.06,196.05c1.12.94,2.27,1.23,3.41.69,1.26-.6,2.42-1.43,3.6-2.2.61-.4,1.16-.87,1.74-1.31.11.11.23.22.34.32-.67.82-1.26,1.71-2.01,2.45-2.29,2.24-6.54,2.4-8.77.37-.24-.22-.31-.63-.46-.96.31,0,.63.04.93-.01,1.24-.21,2.48-.43,3.71-.68.43-.09.84-.29,1.33-.27-.89,1.28-2.4,1.14-3.82,1.6Z"/>
      <path class="cls-1" d="M292.26,261.97c1.23-.56,2.38-1.04,3.49-1.6.94-.47,1.85-.11,2.42,1.07.24.5.43,1.03.62,1.51.6-.23,1.14-.64,1.54-.54.32.08.78.95.65,1.18-.22.4-.89.85-1.29.78-.59-.1-1.31-.51-1.63-1.01-.72-1.16-1.49-1.24-2.73-.84-1.03.33-2.28.47-3.09-.55Z"/>
      <path class="cls-1" d="M239.13,174.68c-.47-.19-.96-.34-1.39-.59-2.82-1.58-4.62-4.07-5.99-6.9-.2-.41.03-1.03.06-1.55.44.3,1,.5,1.28.9.77,1.13,1.33,2.41,2.15,3.5,1.18,1.57,2.51,3.02,3.89,4.64Z"/>
      <path class="cls-1" d="M294.79,231.47c-2.61-.44-4.07-1.69-4.03-4.3.05-3.01.72-6,1.15-9,.03-.21.27-.4.41-.6l.34.08c-.11.91-.24,1.82-.34,2.74-.21,1.97-.55,3.94-.58,5.91-.03,2.24.68,4.21,3.05,5.17Z"/>
      <path class="cls-1" d="M297.9,227.63c-.37-3.13,4.75-11.21,6.72-10.8-2.22,3.58-4.49,7.21-6.72,10.8Z"/>
      <path class="cls-1" d="M128.26,235.79c.23.29.57.54.66.87.57,2.02,1.86,3.56,3.21,5.1.88,1,1.54,2.15,1.07,3.68-.18-.09-.38-.12-.46-.23-1.11-1.52-2.26-3-3.26-4.58-.65-1.03-1.12-2.19-1.58-3.33-.16-.39-.02-.9-.02-1.35.13-.05.26-.1.38-.15Z"/>
      <path class="cls-1" d="M280.79,250.59c-1.52-.68-2.9-1.55-3.48-3.27-.25-.74-.25-1.45.98-1.17.84.19,1.79.02,2.59.3,1.5.53,1.67,1.27.74,2.96-.33-.56-.59-1.01-.97-1.65-.33.25-.67.5-1.01.76.22.28.44.57.67.84.26.3.53.6.8.89l-.32.35Z"/>
      <path class="cls-1" d="M146.81,256.64c-.97.11-1.94.31-2.91.32-1.1.01-2.21-.11-3.3-.24-.38-.04-.9-.18-1.06-.45-.35-.6-.51-1.3-.75-1.97.64-.1,1.29-.31,1.92-.26.44.04,1.02.33,1.24.69.86,1.39,2.18,1.31,3.52,1.29.44,0,.88.1,1.33.16,0,.15,0,.3.01.46Z"/>
      <path class="cls-1" d="M223.85,163.1c-.26-.22-.57-.39-.77-.66-1.56-2.07-2.85-4.28-3.16-6.9-.06-.49.37-1.04.58-1.56.33.46.77.87.95,1.38.75,2.02,1.42,4.07,2.13,6.11.17.48.38.95.58,1.42-.1.07-.2.13-.3.2Z"/>
      <path class="cls-1" d="M290.47,230.47c-.63-.97-1.57-1.86-1.84-2.92-.51-2.03-.68-4.15-.92-6.25-.04-.37.25-.82.49-1.16.1-.14.48-.16.69-.1.13.04.28.38.24.54-.97,3.49.47,6.55,1.7,9.65-.12.08-.25.16-.37.24Z"/>
      <path class="cls-1" d="M233.86,188.13c4.14.77,6.73,3.71,9.09,6.99-1.52-1.2-3.04-2.42-4.56-3.61-1.49-1.16-3.68-1.18-4.91-2.77.13-.2.25-.4.38-.61Z"/>
      <path class="cls-1" d="M257.48,127.07c-2.98-1.56-5.88-8.7-4.55-11.45.9,4.2,2.01,8.11,4.55,11.45Z"/>
      <path class="cls-1" d="M304.75,264.13c-.85-1.35-.69-7.44.13-8.41.18-.22.58-.3.89-.34.08-.01.32.4.3.59-.29,2.23-.6,4.45-.93,6.67-.06.43-.21.84-.38,1.5Z"/>
      <path class="cls-1" d="M296.29,88.35c3.2,2.22,5.53,8.03,3.42,10.46.17-4.14-1.15-7.46-3.42-10.46Z"/>
      <path class="cls-1" d="M237.06,185.78c2.97,1.76,5.76,4.71,5.44,7.64-.18-.26-.36-.41-.4-.58-.47-2.2-1.99-3.54-3.72-4.76-.71-.5-1.51-1.05-1.32-2.3Z"/>
      <path class="cls-1" d="M285.62,66.83c1.98,2.25,1.03,6.63-1.68,7.96.5-1.3,1.14-2.51,1.42-3.79.28-1.3.19-2.68.27-4.16Z"/>
      <path class="cls-1" d="M147.52,190.21c-.83-.18-1.15-1.01-1.26-1.95-.23-1.99-.18-3.93.88-5.66.2.03.4.05.6.08-.15,1.25-.38,2.5-.42,3.75-.04,1.22.12,2.45.2,3.78Z"/>
      <path class="cls-1" d="M112.87,199.76c-2.51,3.48-5.81,6.07-9.6,8.08,3.2-2.69,6.4-5.39,9.6-8.08Z"/>
      <path class="cls-1" d="M243.16,192.2c-1.52-2.29-1.06-5.54,1.05-7.11-.35,2.36-.7,4.73-1.05,7.11Z"/>
      <path class="cls-1" d="M279.77,67.1c.21.72.58,1.43.6,2.16.04,1.62-.89,3.14-2.09,3.75.38-1.91.77-3.84,1.15-5.77.11-.05.22-.09.33-.14Z"/>
      <path class="cls-1" d="M293.33,85.12c1.22,1.23-.1,4.38-2.81,6.35.92-2.09,1.88-4.25,2.81-6.35Z"/>
      <path class="cls-1" d="M283.85,246.86c1.9.44,2.04,2.05,2.6,3.38-2.16.33-3.04-.78-2.6-3.38Z"/>
      <path class="cls-1" d="M325.92,97.44c-1.85-.52-2.32-2.13-2.87-3.62-.12-.32.28-.83.54-1.52.87,1.91,1.57,3.46,2.33,5.14Z"/>
      <path class="cls-1" d="M315.86,251.22c.59.37,1.16.78,1.77,1.1,2.35,1.23,4.72,2.43,6.95,3.57.11-.03-.08.08-.25.05-3.17-.6-5.84-2.17-8.23-4.27-.12-.1-.15-.31-.22-.47l-.02.02Z"/>
      <path class="cls-1" d="M318.84,71.43c-1.45.78-2.57,1.39-3.92,2.12.61-1.55,2.17-2.41,3.92-2.12Z"/>
      <path class="cls-1" d="M311.76,73.97c-1.01-.34-2.02-.67-3.03-1.01.08-.23.16-.47.24-.7,1,.36,2.01.73,3.01,1.09-.08.21-.15.41-.23.62Z"/>
      <path class="cls-1" d="M293.15,71.69c1.07-.51,1.95.07,2.84.61-.03.15-.05.29-.08.44-.95-.18-1.9-.37-2.85-.55.03-.17.06-.34.09-.5Z"/>
      <path class="cls-1" d="M285.45,66.26c-1.01-.59-1.99-1.16-2.93-1.71,1.36-.46,2.39.11,2.93,1.71Z"/>
      <path class="cls-1" d="M299.58,65.14c-.86-.33-1.72-.66-2.58-.99,1.2-.5,2.12-.26,2.77.68-.06.1-.13.2-.19.31Z"/>
    </g>
  </g>
</svg>