<?xml version="1.0" encoding="UTF-8"?>
<svg id="Layer_1" xmlns="http://www.w3.org/2000/svg" viewBox="0 0 339.26 297.64">
  <defs>
    <style>
      .cls-1 {
        fill: #a61e2f;
      }
    </style>
  </defs>
  <g id="VYONxp">
    <g>
      <path class="cls-1" d="M130.13,70.78c.49-2.55,1.58-3.3,4.72-2.98-4.59-4.05-2.16-9.49-3.18-14.2-.21-.02-.42-.05-.63-.07-.8,4.64-1.6,9.28-2.4,13.93-.22-.04-.43-.08-.65-.12-.56-10.48,2.75-20.3,5.08-30.29l.93.06v12.7c.35.03.69.06,1.04.09.42-4.61.51-9.29,1.37-13.82.85-4.5,2.47-8.86,3.75-13.28-.26-.17-.52-.33-.78-.5-2.42,3.11-4.85,6.21-7.39,9.47-1.55-1.37-2.46-.09-3.65.82-3.3,2.5-4.1,6.21-4.53,9.84-1.11,9.42-1.88,18.88-2.71,28.32-.33,3.78-.49,7.58-.72,11.2-1.23-2.09-1.58-5.13-1.31-13.14.15-4.48.43-8.96.31-13.47-1.74,12.02-3.01,24.06-2.82,36.31-.21-2-.49-3.99-.62-6-.13-2.05-.13-4.11-.15-6.16-.02-2.11,0-4.22,0-6.33-.21-.04-.41-.08-.62-.13-.23.33-.65.66-.66.99-.2,5.19-1.11,10.14-4.39,14.41-.42.54-.34,1.55-.31,2.33.07,1.72.25,3.44.39,5.29-.64.03-1.09.05-1.67.08.09,1.74.18,3.43.27,5.13-.15.08-.3.17-.45.25-.78-.89-1.55-1.78-2.33-2.67-.16.04-.32.09-.48.13.26,2.28.51,4.55.87,7.75-1.75-1.7-3.05-2.95-4.44-4.3.95,2.7,1.91,5.44,2.87,8.18-.19.15-.39.29-.58.44-1-1.26-2-2.53-3.41-4.31,1.13,3.91,2.08,7.23,3.04,10.55l-.51.31c-1.04-1.5-2.09-2.99-3.13-4.49.22,3.39,2.24,6.29,2.19,9.6-.35.11-.71.23-1.06.34-1.24-2.66-2.47-5.33-3.71-7.99-.19.06-.38.12-.56.18.49,1.74.95,3.49,1.46,5.22,1,3.32,2.13,6.61,2.97,9.97.21.85-.45,1.92-.71,2.89-.06-.39.02-.94-.21-1.16-1.97-1.9-2.66-4.38-3.6-6.85-.97-2.56-2.82-4.78-4.28-7.15,1.28,6.92,4.06,13.43,4.19,20.54-1.54-2.94-2.58-6.05-3.86-9.05-3.44-8.04-6.95-16.06-10.53-24.05-.54-1.2-1.59-2.17-2.4-3.25-.3.15-.6.3-.91.45.26.59.42,1.25.79,1.75.59.8,1.61,1.37,1.94,2.24,3.83,9.94,7.66,19.87,11.26,29.9,1.23,3.42,1.8,7.07,2.71,10.76,3.18-3.02,5.06-6.24,4.53-10.54-.15-1.19.25-2.45.4-3.68.12,2.06.38,4.13.29,6.18-.05,1.26-.37,2.68-1.05,3.72-3.32,5.05-6.74,10.03-10.26,14.94-1.06,1.48-2.54,2.66-3.94,4.09.91,2.23.62,2.98-2.07,4.4-1.39.73-2.91,1.25-4.21,2.1-2.44,1.59-5.21,2.73-6.56,5.76-.58,1.3-2.22,2.12-3.39,3.15.64-.84,1.28-1.68,2.22-2.92-.95.08-1.32,0-1.54.15-3.17,2.17-6.33,4.35-9.45,6.58-.34.24-.44.83-.66,1.25-1.08,2.15-1.3,2.16-4.21,1.56-.83-.17-1.79.2-2.67.41-1.77.42-3.5,1.03-5.29,1.31-3.41.52-5.58-1.82-5.06-5.23.17-1.14.06-2.32.27-3.44.21-1.12.66-2.19,1.45-3.27.06.75-.04,1.56.22,2.23.38.97,1.05,1.82,1.53,2.75.28.55.63,1.18.61,1.77-.09,3.3,1.2,4.15,4.3,3.23,5.59-1.66,9.82-5.55,14.66-8.43,4.07-2.42,4.95-5.43,4.19-9.67-1.28-7.07-2.22-14.21-3.63-21.26-1.29-6.45-3.01-12.81-4.54-19.21,2.02,5.26,4.05,10.52,5.84,15.17-.11-1.02-.35-2.79-.47-4.57-.03-.38.38-.78.58-1.17.02.64-.06,1.3.07,1.92.7,3.22,1.58,6.41,2.18,9.65,1.41,7.62,2.71,15.25,4.15,23.48,2.62-1.43,4.8-2.68,7.04-3.82,1.79-.92,1.53-1.89.55-3.35-.76-1.13-1.09-2.56-1.51-3.89-.24-.77-.17-1.65-.42-2.42-3.7-11.28-7.36-22.58-11.22-33.82-.99-2.88-2.62-5.54-4-8.39-2,2.27-2.11,2.7-1.1,4.96,1.39,3.12,2.86,6.2,4.23,9.34,2.9,6.65,6.04,13.21,6.9,20.55.35,2.93.81,5.86,1.22,8.78l-.73.18c-.24-.45-.6-.87-.71-1.35-.89-4.03-1.5-8.15-2.68-12.09-1-3.33-2.66-6.47-4.03-9.69-1.73-4.9-3.46-9.79-5.22-14.68-.12-.32-.43-.57-.66-.85-.27.02-.55.04-.82.06-.06,1.43-.13,2.87-.19,4.3-.7-1.69-1.45-.96-1.96.05-1.3,2.56-2.22,5.36-3.79,7.73-3.27,4.91-2.63,10.07-1.76,15.38.53,3.22.77,6.48,1.14,9.73,0,0,.02-.03.02-.03-.36-.23-.99-.43-1.02-.7-.53-4.24-1-8.48-1.46-12.73-.12-1.11-.14-2.24-.71-3.46-4.5,9.5-9,18.99-13.49,28.49-.14-.04-.27-.09-.41-.13.69-2.23,1.27-4.5,2.1-6.67,2.3-6.01,4.73-11.97,7.05-17.97.24-.62,1.57-1.63-.33-1.97,2.07-1.45,2.85-3.51,3.12-6.22-4.21,1.97-7.54,4.2-8.08,9.26,1.85-1.13,3.44-2.11,5.03-3.09-1.28,1.15-2.5,2.38-3.86,3.42-2.28,1.76-3.54,4.12-4.27,6.81-2.17,8.07-4.28,16.16-6.47,24.22-.22.79-.84,1.47-1.23,2.22-.27.53-.68,1.09-.68,1.64.04,3.95,1.15,4.67,4.76,3.18,1.19-.49,2.4-.95,3.6-1.42.11.2.22.39.32.59-1.56.94-3.04,2.06-4.7,2.76-1.8.75-4.05-.65-4.58-3.06-.83-3.76-1.65-7.52-.64-11.49,1.1-4.3,1.66-8.73,2.62-13.06.19-.87,1.16-1.57,1.77-2.36-.38.88-.95,1.73-1.12,2.66-.9,5.01-1.75,10.04-2.51,15.08-.21,1.37-.03,2.8-.03,4.2.25.02.5.05.76.07.48-8.55,4.07-16.34,5.47-24.79-.87.95-1.75,1.9-2.62,2.85.24-.75.26-1.74.76-2.21,3.36-3.1,5.41-6.99,6.9-11.37-3.55,2.75-8.68,3.7-9.53,9.47-.33-.09-.65-.18-.98-.27-.04-1.33-.56-2.9-.04-3.95,1.81-3.67,3.51-7.57,6.11-10.66,6.21-7.37,12.91-14.32,19.41-21.44.65-.71,1.29-1.42,1.67-2.63l-4.28,1.41c2.53-1.74,5.19-3.09,8.32-3.14-.28.43-.49.92-.85,1.28-2.86,2.9-5.75,5.78-8.76,8.79,4.34,1.67,5.06,1.4,6.99-1.89,1.94-3.32,3.94-6.61,5.99-9.87.77-1.22,1.74-2.3,2.62-3.45-.21-.17-.43-.35-.64-.52-1.8,1.91-3.61,3.82-5.41,5.73.98-1.36,1.91-2.77,2.97-4.08.66-.81,1.52-1.46,2.37-2.26-5.76-1.04-13.46,3.54-20.51,11.74.26-1.52.52-3.04.78-4.55,1.74-1.83,3.48-3.64,5.2-5.48.62-.66,1.76-1.5,1.65-2.06-.41-1.97,1.16-2.06,2.13-2.76.89-.64,1.74-1.33,2.61-2.01-.18-.23-.37-.45-.55-.68-.34.17-.76.25-1.01.51-1.69,1.71-3.49,3.35-4.97,5.23-1.82,2.31-3.35,4.85-5.01,7.29-1.49,2.73-2.97,5.46-4.02,7.38-.26-4.6,2.94-8.96,5.76-13.47-.15-.15-.3-.3-.44-.45-1.21,1.1-2.42,2.19-3.63,3.28-.48.43-1.03,1.24-1.45,1.18-2.72-.38-3.11,1.44-3.84,3.46-.11-1.02-.27-2.04-.33-3.07-.63-10.76-.75-21.58,1.74-32.07,2.34-9.87,5.54-19.57,8.93-29.14,1.74-4.92,4.7-9.41,7.16-14.08,1.38-2.61,2.91-5.15,4.23-7.79.45-.9.5-2.01.87-3.61-4,2.44-7.22,4.61-10.63,6.4-2.61,1.38-5.5,3.21-8.23,3.15-3.23-.07-5.78,1.44-8.69,1.83-1.58.21-3.26-.36-4.9-.57-.13-.33-.26-.66-.39-1,3.67-4.39,7.35-8.78,11.01-13.17.52-.62.97-1.3,1.45-1.95l-.06.06c1.48-1.32,2.95-2.65,4.43-3.97.5,0,1,0,1.49,0-3.85,3.64-4.34,8.75-5.91,13.39-.2-1.48-.39-2.96-.64-4.89-2.87,3.41-5.68,6.74-8.48,10.07.18.24.36.48.55.71,1.56-.79,3.22-1.44,4.65-2.42,1.45-1,2.66-2.34,3.98-3.53.38.08.77.26,1.15.23.95-.08,2.04-.59,2.79-.28.57.24.71,1.49,1.16,2.59,4.74-2.64,9.63-5.37,14.81-8.25-1.07-.49-1.78-.82-2.41-1.11-2.02,1.39-3.04,4.58-6.25,2.78-.12-.07-.42.18-.64.28-1.54.7-3.04,1.61-4.65,2.02-1.05.27-2.29-.19-3.45-.32.24-1.15.23-2.42.76-3.42,1.41-2.69,3.05-5.25,4.59-7.87,2.16,0,4.31,0,6.47,0,.02.4.05.8.04.68,1.43.44,2.56.79,3.86,1.19.42-.51,1-1.19,1.57-1.88,1.16,0,2.32,0,3.48,0-.4,1.03-.8,2.06-1.34,3.46,1.47-.86,2.58-1.5,3.69-2.14.18.22.35.43.53.65-.93,1.04-1.8,2.15-2.8,3.12-2.76,2.63-2.82,2.81-1.26,6.37,2.38-3.82,4.77-7.64,7.15-11.46.5,0,1,0,1.49,0-.66,1.26-1.32,2.53-1.98,3.79.31.17.63.34.94.51.84-1.43,1.68-2.87,2.53-4.3,2.16,0,4.31,0,6.47,0,1.5,9.83,3.05,19.66,4.49,29.5.85,5.78,1.87,11.58.56,17.91-3.31-13.76-6.5-27.05-9.76-40.6-.94,1.57-1.67,3.15-2.72,4.47-2.15,2.72-.3,5.47-.11,8.13.18,2.39,1.35,4.69,2,7.05.67,2.45,1.2,4.94,1.86,7.39.72,2.67,1.94,5.29,2.17,8,.33,3.92-.03,7.9-.09,11.86-.08-.04-.16-.08-.24-.11-2.64-12.49-5.28-24.97-8.07-38.2-3.66,6.59-7,12.59-10.33,18.6.19.12.37.24.56.36,1.58-2.06,3.17-4.12,4.75-6.18-.83,2.04-1.82,3.97-3.1,5.69-1.63,2.2-1.74,4.32-1.07,6.97.82,3.24,2.17,6.73-.28,9.98-.35-2.28-.65-4.57-1.08-6.84-.15-.8-.63-1.53-.96-2.29-.36.34-.98.63-1.04,1.02-.76,4.88-2.35,9.6-1.7,14.73.8,6.35-.07,12.69-1.63,18.88-.4,1.6-1.19,3.11-1.94,5.03.56-4.93,1.34-9.33,1.5-13.76.19-5.19-.21-10.4-.23-15.6,0-1.79.36-3.58.55-5.37-.26-.05-.53-.1-.79-.15-1.94,7.52-3.91,15.02-5.8,22.55-1.9,7.55-3.72,15.11-5.58,22.67.22.1.45.2.67.31,2.39-2.52,4.78-5.04,7.17-7.56.06.06.12.12.18.19-.64,1.13-1.28,2.26-1.91,3.39,3.17-2.58,6.09-5.24,8.87-8.04,2-2.02,3.82-4.22,5.72-6.34.42.08,1,.37,1.24.19,1.52-1.14,2.84-2.56,4.45-3.54,1.68-1.03,1.6-2.14,1.07-3.74-.65-1.95-1.05-3.98-1.44-6-.09-.48.28-1.04.43-1.57.17.04.35.09.52.13.54,2.95,1.07,5.9,1.77,9.71,2.48-2.53,4.39-4.52,6.35-6.45,1.75-1.73,3.35-3.76,5.42-4.98,2.63-1.56,4.49-3.64,4.77-6.48.69-6.87,1.07-13.76-.17-20.66-.79-4.38-1.74-8.83-1.64-13.23.09-4.06.41-8-.79-11.97-.46-1.54-.41-3.24-.6-4.87,1.32,3.59,2.88,7.11,3.9,10.78,2.06,7.38,3.83,14.84,5.71,22.27-.11.04-.23.07-.34.11-.46-.64-.92-1.28-1.63-2.25.3,2.45.39,4.45.83,6.36.54,2.31,1.3,4.58,2.13,6.8.56,1.5,1.65,1.43,2.73.43,2.11-1.96,4.46-3.73,6.26-5.95,4.87-6,9.5-12.19,13.72-17.65-.92,2.05-2.22,4.95-3.53,7.86.19.12.38.24.56.35,1.78-1.82,3.6-3.62,5.34-5.48,1.18-1.26,2.35-2.56,3.31-3.99.69-1.03.88-2.13-1.05-2.25-.51-.03-1.15-.82-1.41-1.4-.26-.6-.14-1.37-.18-2.07-.16-.01-.33-.02-.49-.03-.1,1.16-.21,2.32-.31,3.47l-.37-.04c-1.57-4.97-3.15-9.95-4.72-14.92.22-.08.44-.15.66-.23,1.56,1.67,3.11,3.34,4.67,5,.19-.13.38-.26.57-.39-1.01-2.32-2.02-4.63-3.02-6.95,2.32,0,4.65,0,6.97,0,.42,1.17.83,2.35,1.25,3.52.16-.04.32-.09.48-.13v-2.47c.94.75,1.71,1.35,2.97,2.35-.1-1.53-.16-2.4-.22-3.27.83,0,1.66,0,2.49,0-.82,2.73-.14,5.25.93,8.45,1.44-2.07,2.5-3.6,3.56-5.12.14.08.28.16.42.24-.47,1.25-.93,2.5-1.58,4.22,1.24-.76,1.9-1.17,2.57-1.57.04.09.07.18.11.26-1.66,1.9-3.31,3.8-4.97,5.7.21.18.42.35.63.53,3.72-3.26,7.45-6.52,11.52-10.08-.09.86.02,1.39-.2,1.69-3.43,4.77-4.94,10.29-5.58,15.95-.72,6.47-.59,13.03-1.27,19.51-.34,3.27.77,6.92-2.14,9.82-.76.75-.4,2.62-.56,3.98l.85.29c1.29-1.38,2.69-2.68,3.85-4.16,1.1-1.42,2.1-1.34,3.62-.65,1.72.78,3.66,1.05,5.37-.47-2.46-2.09-1.91-4.91-2.01-7.36-.33-8.24-.61-16.5-.36-24.73.11-3.69,1.51-7.34,2.33-11.01.21.05.42.1.63.15-.17,1.36-.33,2.71-.5,4.07.13,0,.25.02.38.03.36-.87.72-1.75.86-2.09.15,9.3.35,19.04,1.5,28.77,1.13-.73,1.85-1.53,2.61-2.27,1.08-1.04,2.13-2.21,3.88-1.33-.92.83-1.84,1.66-2.75,2.5-2.26,2.09-2.23,2.33.45,3.7,1.59.81,3.35,1.41,4.73,2.49,1.52,1.19,2.68,2.83,4,4.27-.3-4.98-4.27-7.33-6.84-10.62.12-.2.23-.4.35-.6.85.16,1.7.32,2.55.49.06-.14.13-.27.19-.41-.92-.59-1.83-1.19-2.75-1.78.16-.46.22-1.24.51-1.33,2.67-.9,3.22-3.15,3.69-5.49.06-.3.31-.58.5-.85,5.35-7.58,7.47-16.41,9.71-25.19,1.83,0,3.65,0,5.48,0-.17.64-.39,1.27-.5,1.91-1.39,8.07-2.76,16.13-4.14,24.2-.36,2.13-.72,4.25-1.07,6.38l.63.22c1.13-2.22,1.37-5.31,4.39-5.02.46,3.05.97,6.35,1.47,9.64.84-5.83.43-11.73,1.72-17.24,1.33-5.68,3.41-11.38,7.3-16.14-4.54,8.37-6.03,17.32-5.26,26.73.44-8.77,4.73-16.31,7.07-24.33-.62,9-1.24,17.99-1.86,26.99.34.04.68.08,1.02.12,1.71-8.56.97-17.65,5.14-25.68-.79,4.96-1.59,9.92-2.38,14.88.24.06.49.12.73.18.7-1.83,1.39-3.66,2.1-5.48.72-1.85,1.36-3.74,2.24-5.51.82-1.66,1.91-3.18,2.88-4.76-1.3,4.7-3.12,9.14-4.21,13.76-1.12,4.76-1.53,9.69-2.25,14.54.27.1.55.19.82.29,1.07-1.52,2.66-2.9,3.12-4.58,1.69-6.13,3-12.35,4.45-18.51v7.13c.2.02.41.04.61.07.46-2.48.91-4.96,1.39-7.43.81-4.12,1.65-8.23,2.48-12.35.33,0,.66,0,1,0-.67,4.38-1.34,8.77-2,13.15-.57,3.8-1.13,7.6-1.73,11.69,3.32-2.95,3.11-3.08,3.69-6.69.98-6.08,2.33-12.1,3.52-18.15.33,0,.66,0,1,0-.7,5.87.03,11.69.32,17.61,1.49-1.51,2.35-3.2,3.5-4.66.85-1.08,2.02-1.95,3.16-2.74.94-.65,2.18-.9,3.07-1.6,1.95-1.55,2.85-4.61,6.24-4.04.42.07.99-.52,1.45-.87,1.57-1.22,3.12-2.46,4.67-3.69.5,0,1,0,1.49,0-1.9,2.19-3.78,4.3-3.75,7.55.05,5.69-.19,11.38-.21,17.07,0,1.13.43,2.26.67,3.39l1.03.13c3.02-9.86,6.1-19.69,12.21-28.13h.5c-.12.78-.15,1.59-.37,2.35-.99,3.34-2.03,6.65-3.06,9.98.23.1.46.2.7.3,1.86-2.75,1.38-6.86,4.88-9.27-.17,1.28-.26,2.07-.38,2.86-.12.82-.27,1.63-.41,2.44,1.03-1.26,1.56-2.63,2.13-3.97.58-1.37.97-2.99,3.47-2.91-2.73,6.73-5.33,13.16-8.14,20.1,2.04-1.18,3.58-2.06,5.12-2.95l-.06-.05c-.39.62-.77,1.24-1.16,1.87.12.17.25.33.37.5,2.52-1.3,6.31-1.98,7.31-4.02,2.65-5.42,4.09-11.42,6.02-17.2.83,0,1.66,0,2.49,0-1.1,3.54-2.19,7.08-3.31,10.6-.29.92-.72,1.8-1.09,2.69.19.14.39.27.58.41,1.69-2.13,3.38-4.26,5.06-6.39.17.12.34.23.5.35-.26.53-.52,1.07-.79,1.6-3.3,6.46-8.99,9.7-15.59,11.95-3.49,1.19-6.77,3.02-10.11,4.63-3.31,1.6-6.57,3.29-9.75,4.9-2.2-1.6-2.32-3.6-2.18-5.58.35-5.02.82-10.04,1.24-15.06.05-.57.08-1.13.13-1.7-3.14-.21-4.77.97-5.1,3.92-.75,6.82-1.39,13.65-2.4,20.48-1.59-6.35-.1-12.75.27-19.75-2.07,1.64-3.65,2.88-5.03,3.97.41,1.49,1.07,2.74,1.04,3.98-.12,5.68-.48,11.35-.65,17.02-.04,1.28.35,2.56.6,4.23-.86.81-2.04.38-2.21-1.17-.26-2.38.05-4.81-.02-7.21-.03-1.06-.58-2.11-.58-3.17-.01-2.71.15-5.41.23-8.12.03-.87,0-1.74,0-2.61-.25-.07-.51-.14-.76-.21-1.33,3.06-2.66,6.11-3.98,9.17-1.23,2.88-2.67,3.16-4.9.89-3.24,2.49-4.25,5.47-3.46,9.68,1.14,6.06,1.46,12.27,2.15,18.42.06.55.25,1.09.39,1.66,2.97-1.44,3.72-3.29,3.43-6.35-.63-6.57-1.03-13.15-1.5-19.73-.02-.29.23-.59,1.03-1.14.4.9,1.06,1.78,1.16,2.71.56,5.25.99,10.52,1.47,15.78.18,1.99.42,3.99.53,5.98.04.65-.25,1.31-.39,1.97-.64-.21-1.28-.42-2.46-.81-1.09,1.64-2.35,3.53-3.61,5.42-1.98,1.81-4.05,3.71-6.12,5.61q2.29-2.95,1.07-4.57c-2.71,3.03-2.8,3.25-2.23,5.77-1.7-.63-2.37.54-3.07,1.72-3.24,5.48-6.47,10.95-9.74,16.41-.27.44-.72.77-1.36.95,1.07-4.24,3.27-7.79,5.75-11.25,2.18-3.03,4.16-6.21,6.17-9.36.22-.35.14-.96.06-1.43-1.15-6.47-2.33-12.94-3.5-19.41-.03-.15-.15-.28-.38-.71-.98,1.26-1.88,2.43-2.78,3.59.66-1.54,1.32-3.08,1.98-4.62-1.96,2.04-4.16,3.92-4.12,7.48.94-1.25,1.56-2.08,2.19-2.92-.84,1.45-.6,3.75-3.26,3.82-.43.01-.86,1.48-1.23,2.3-1.39,3.14-2.75,6.3-4.14,9.47-.11-.1-.21-.16-.2-.18,2.07-6.13-1.33-11.9-1.19-17.94.1-4.17-.76-8.37-1.25-12.54-.16-1.37-.47-2.71-.84-4.76-.55,1.09-.9,1.59-1.07,2.15-2.19,7.34-2.41,14.88-2.7,22.47-.16,4.27,1.38,8.05,2,12.07.15.97-.37,2.04-.58,3.06-1.11-3.31-2.25-6.62-3.32-9.95-.55-1.72-.55-3.78-1.54-5.15-2.78-3.87-5.91-7.48-8.99-11.13-.49-.58-1.4-.82-2.11-1.22l-.53.7c.66.3,1.32.59,1.99.89-1.22,1.31-2.05,2.21-2.89,3.11.17.05.35.09.52.14-.16.97-.32,1.94-.58,3.51,3.7,7.65,10.56,13.7,16.36,20.85.46-.74.8-1.28,1.13-1.82-.3,3.92-.65,7.84-.9,11.76-.32,5.11-.54,10.22-.87,15.33-.18,2.79-.49,5.58-.75,8.37-.02.16-.15.34-.11.48.92,3.04-.44,5.93-.58,8.9-.15,3.14-.42,6.27-.5,9.41-.09,3.54.2,7.1-.08,10.62-.39,4.81-1.17,9.58-1.75,14.37-.28,2.29-.49,4.58-.73,6.89-.13-.27-.27-.58-.63-1.34-.24,2.35-3.09,3.93-.24,6.31.58.48-.48,2.77-.58,4.24-.38,5.73-.67,11.47-1,17.2-.24,4.15-.5,8.3-1.04,12.44-.11-1.63-.22-3.27-.33-4.9.2-3.83.44-7.66.58-11.49.04-1.11-.22-2.22-.34-3.33.48-2.82.94-5.64,1.44-8.45.41-2.33,1.18-4.75-1.95-5.93-.28-.1-.47-.45-.68-.72-4.56-5.88-9.28-11.64-13.61-17.68-2.65-3.7-5.64-6.88-9.46-9.32-7.15-4.56-12.47-10.94-17.56-17.56-1.31-1.7-2.75-3.3-4.51-5.4-.19,1.71-.33,2.68-.39,3.65-.07,1.07.05,2.15-.09,3.21-.45,3.42.31,4.7,3.87,6.13-.55-.81-1.06-1.57-1.57-2.32,11.96,9.92,22.22,21.31,31.58,33.52l-.54.52c-2.62-2.86-5.24-5.72-7.87-8.57-.17.12-.35.23-.52.35.29.63.51,1.32.89,1.88,2.32,3.39,4.69,6.75,7.02,10.14,2.61,3.81,5.19,7.64,7.78,11.46.03.79-.08,1.63.14,2.37.41,1.37,1.02,2.68,1.55,4.01-.98-.47-1.55-1.1-1.88-1.83-2.26-4.95-5.73-8.98-9.52-12.79-.65-.65-1.13-1.47-1.69-2.21l-.05.05c1.52-2.01-.75-2.74-1.44-3.9-3.56-5.96-8.46-10.94-11.9-17.07-2.28-4.06-6.34-7.12-9.66-10.58-1.84-1.93-3.79-3.75-5.69-5.63-.28.1-.56.19-.84.29,0,2.51-.09,5.02.05,7.52.04.76.57,1.63,1.13,2.2,5.76,5.86,12.66,10.39,17.22,17.69,5.49,8.79,12.4,16.68,18.48,25.11,2.78,3.86,5.06,8.09,7.57,12.15-6.38-8.12-12.71-16.28-19.16-24.34-5.01-6.26-10.14-12.43-15.29-18.58-2.75-3.29-5.64-6.46-8.49-9.66-.41-.46-.95-.79-1.76-1.45,0,5.88-.24,11.31.07,16.7.29,5.14.13,10.44,3.31,15.25,11.13,5.46,17.66,15.89,24.51,26.01-7.82-8.71-14.56-18.49-25.09-25.48.02,5.69.75,10.58,1.82,15.5,1.04,4.79,1.58,9.69,1.91,14.6-.38-.88-.77-1.77-1.15-2.65-.16.02-.32.05-.49.07v7.64c-.44-1.6-.76-2.74-1.21-4.38-.38.97-.69,1.56-.86,2.19-1.22,4.47-2.44,8.94-3.6,13.42-1,3.87-4.57,5.32-7.08,2-1.54-2.03-3.33-3.91-4.62-6.08-1.43-2.41-3.64-4.4-3.48-7.75.14-2.9-.63-5.84-1.01-8.76.22-.05.44-.11.65-.16.32,1.1.64,2.2,1.18,4.03,1.19-3.79,2.08-7.06,3.24-10.24,2.22-6.04,4.55-12.05,6.93-18.03.7-1.76,1.79-3.36,2.61-5.07.27-.57.48-1.3.36-1.89-2.41-12.46-1.27-24.93-.28-37.41.5-6.24.52-12.54,1.25-18.75.47-3.98,1.92-7.84,2.79-11.79,2.36-10.79,6.11-21.14,9.68-31.55.4-1.16,1.1-2.21,1.66-3.3-.55,1.99.36,2.84,4.29,3.97.87-2.33-1.14-4.71-4.07-4.83ZM169.94,98.59c.4.04.8.08,1.18.12.32-2.55.78-5.06.87-7.59.04-.93-.55-2.16-1.26-2.79-2.57-2.3-5.35-4.37-7.97-6.62-.45-.39-.51-1.22-.76-1.85v.08c.34-2.19-1.02-3.43-2.52-4.65-1.35-1.09-2.65-2.25-3.94-3.41-2.48-2.24-5.4-3.72-8.59-4.56-.5-.13-1.97,1.38-1.91,1.46.91,1.46-.22,2.01-1,2.87-1.62,1.78-1.46,4.58.18,6.34,1.51,1.62,2.93,3.33,4.47,4.92,4.73,4.87,8.92,10.33,15.34,13.48-.64.87-1.06,1.44-1.59,2.15,2.14,1.89,4.3,3.8,6.1,5.39.41-1.54.93-3.47,1.45-5.4l-.05.05ZM74.29,115.31c-.48-.6-1.07-1.14-1.42-1.81-1.08-2.06-2.07-4.17-3.27-6.62-1.1,1.43-1.79,2.46-2.61,3.36-1.48,1.62-1.51,3.21-.53,5.16,1.7,3.37,3.22,6.84,4.73,10.31.72,1.66.97,3.57,1.89,5.09,3,4.96,4.36,10.46,5.74,15.97.65,2.59,1.44,5.15,2.17,7.72.3,0,.6-.02.9-.03.22-1.77,1.14-3.81.56-5.26-4.5-11.26-9.3-22.41-13.99-33.6-.16-.37-.16-.8-.24-1.21,9.39,13.88,15.04,29.29,19.29,45.45,2.47-3.11,4.54-6.19,6.49-9.34.28-.45.16-1.29-.03-1.86-2.99-8.66-6.01-17.3-9.06-25.94-.18-.5-.63-.9-.95-1.34-.11.08-.22.17-.33.25,2.24,6.68,4.48,13.35,6.72,20.03-.25.09-.5.19-.75.28-.72-2.02-1.35-4.07-2.18-6.05-2.18-5.16-4.44-10.29-6.66-15.43-2.06-4.78-4.14-9.55-6.12-14.36-.26-.64.05-1.49-.02-2.23-.07-.76-.29-1.5-.44-2.25-.61.33-1.32.56-1.81,1.02-2.18,2.04-1.92,4.02-.3,6.48,1.18,1.79,1.49,4.15,2.18,6.26l.06-.06ZM123.04,99.64c-1.67,1.9-2.01,4.1-.85,6.26,2.55,4.73,5.12,9.47,7.99,14.01,2.7,4.29,5.79,8.35,8.71,12.51-8.07-6.34-13.01-15.07-18.08-23.96-.85,2.59-1.24,5.17-1.85,7.69-.46,1.89-.74,3.38,1,5.02,3.75,3.52,7.17,7.39,10.79,11.06,4.63,4.7,9.59,9.1,13.89,14.08,5.16,5.99,9.69,12.51,14.68,18.66,1.67,2.06,3.89,3.66,6.1,5.68.36-1,.68-1.52.71-2.05.37-6.61.83-13.21.97-19.82.04-1.9-.84-3.81-1.28-5.64.19.04.87.2,1.8.42.11-1.71.28-3.25.28-4.79-.02-3.76.29-7.42-3.09-10.44-4.3-3.84-8.14-8.2-12.12-12.39-.73-.77-1.21-1.79-1.8-2.7.17-.12.33-.23.5-.35,5.39,5.09,10.78,10.18,16.56,15.65.18-1.42.24-2.14.38-2.85.58-2.95-.85-4.37-3.34-5.91-4.18-2.59-7.99-5.81-11.8-8.96-6.8-5.62-13.49-11.4-20.23-17.09-1.84-1.55-3.72-3.06-5.58-4.58.16-.19.31-.39.47-.58.94.74,1.8,1.64,2.85,2.16.83.4,1.9.32,2.86.45.03-.22.06-.45.09-.67-3.84-.58-4.57-4.38-7.01-6.81-.3.79-.63,1.44-.8,2.12-.96,3.8-1.91,7.6-2.79,11.42-.18.78-.04,1.63-.05,2.44l.05-.03ZM115.15,178.74c-.16,0-.31-.01-.47-.02-.6,1.6-1.22,3.19-1.79,4.81-2.94,8.43-5.79,16.89-8.82,25.29-1.03,2.85-.76,5.45.42,8.11,1.93,4.36,4.03,8.59,8.7,11.74,1.66-5.57,3.15-10.78,4.78-15.94,1.38-4.37,2.55-8.69,1.4-13.36-1.19-4.78-2.13-9.63-3.13-14.46-.42-2.04-.74-4.11-1.1-6.17ZM129.28,82.01c-.15.16-.31.31-.46.47.81.86,1.52,1.85,2.45,2.56,5.3,4.03,10.71,7.93,15.96,12.01,3.8,2.95,6.38,7.45,10.86,9.29.93,1.25,1.87,2.5,2.8,3.75.21-.15.42-.31.62-.46-.31-.77-.63-1.55-1.22-3.01,3.08,2.85,5.59,5.18,8.21,7.61.36-3.44.38-6.38-2.48-9.07-7.88-7.4-15.5-15.07-23.12-22.75-1.31-1.32-2.17-2.57-3.73-.44-.92-.75-1.67-1.39-2.45-2-.83-.64-1.68-1.25-2.57-1.9-1.95,4.66-1.66,5.49-4.88,3.95ZM69.17,20.25c-.2-.1-.4-.2-.59-.3-11.93,21.5-24.2,42.88-24.65,69.03.38-1.06.66-1.7.83-2.36,2.93-11.39,5.48-22.89,11.03-33.43.74-1.41-.22-3.37,1.13-4.89.79-.89,1.19-2.16,1.69-3.29,2.96-6.74,5.9-13.48,8.82-20.23.64-1.49,1.17-3.02,1.75-4.53ZM191.94,58.98c1.51,7.33,2.9,14.01,4.36,21.08,2.17-1.75,3.49-3.16,3.01-5.84-1.08-6.01-1.91-12.07-2.77-18.13-.11-.8.22-1.67.35-2.51.25.03.5.05.75.08,1.37,7.84,2.73,15.68,4.1,23.52.34-.04.69-.08,1.03-.12.71-4.32-1.18-8.48-1.45-12.73-.28-4.39-.89-8.75-1.35-13.07-5.91-.05-5.82,5.53-8.03,7.72ZM53.44,125.6c-9.16,3.43-18.1,12.01-18.81,17.88,3.69-2.96,7.24-5.81,10.97-8.81,1.68.64,3.93.11,4.99-1.49,1.36-2.05,1.82-4.69,2.84-7.58ZM59.52,102.59c.15.26.3.52.45.78,2.5-.24,5.01-.44,7.5-.76.52-.07,1.11-.46,1.45-.88,3.96-4.75,7.89-9.53,11.82-14.31-.24-.23-.47-.45-.71-.68-3.5,2.8-7.02,5.56-10.47,8.43-.33.27-.17,1.13-.17,1.19-3.48,2.2-6.68,4.21-9.87,6.23ZM91.08,110.25c.29-.1.58-.2.87-.29-2.91-7.23-5.82-14.47-8.74-21.7-.25-.06-.49-.12-.74-.18-1,1.66-1.99,3.32-3.01,5.02,3.3,1.58,7.46,7.88,11.62,17.16ZM147.98,40.06v17.5h.86c2.5-5.83,1.13-11.67-.86-17.5ZM242.34,36.46c-.16-.16-.31-.31-.47-.47.85-2.3,1.7-4.59,2.58-6.99-3.98,2.13-5.92,5.51-6.76,9.98,1.66-.9,3.16-1.71,4.65-2.52ZM56.29,121.55c-4.47-.56-7.93,1.21-8.81,4.52,1.95-.63,3.86-1.65,5.84-1.79,2.02-.15,2.74-.98,2.97-2.73ZM90.05,79.35c-1.8,1.45-1.82,2.8-.58,4.57,1.41,2.02,2.45,4.29,3.72,6.41.35.58.96.99,1.77,1.8-1.76-4.59-3.31-8.61-4.91-12.78ZM83.28,103.17c.25-.16.49-.33.74-.49-1.39-2.45-2.75-4.91-4.21-7.32-.21-.35-.92-.41-1.39-.6-.1.5-.47,1.18-.27,1.47,1.65,2.35,3.41,4.63,5.13,6.94ZM84.67,155.16c-.23,0-.46.02-.7.03-.25,1.01-.65,2.01-.69,3.03-.04.99.29,2,.45,3.01.97-.17,1.94-.34,3.07-.53-.81-2.09-1.47-3.81-2.13-5.53ZM78.32,85.61c-.23-.29-.46-.59-.69-.88-2.66,1.93-5.31,3.86-7.97,5.79.18.24.35.49.53.73,2.71-1.88,5.42-3.76,8.12-5.63ZM78.91,15.52c-1.96,2.03-1.72,4.39.81,7.63-.3-2.79-.54-5.1-.81-7.63ZM78.71,103.08c-.79-1.69-1.58-3.38-2.39-5.11-1.7,1.57-1.07,3.19,2.39,5.11ZM43.11,84.45c-.28-.02-.56-.04-.84-.07-.23,3.47-.45,6.94-.68,10.42.25.02.5.04.74.06.26-3.47.52-6.94.78-10.41ZM183.05,58.31v6.36c1.17-2.09,1.93-4.14,0-6.36Z"/>
      <path class="cls-1" d="M265.82,144.87c-.08.18-.16.35-.24.53-.5-.4-1.13-.7-1.47-1.2-1.96-2.96-3.73-6.04-5.77-8.93-5.99-8.49-12.06-16.92-18.15-25.34-.67-.93-1.63-1.64-2.54-2.54-.44,1.42-.58,2.53-1.1,3.4-1.85,3.06-1.68,3.33,1.08,5.16,2.28,1.52,4.19,3.59,6.34,5.32,5.93,4.77,10.12,11.01,14.54,17.07,2.1,2.89,4.36,5.66,6.55,8.48,1.52,5.72,3.04,11.45,4.73,17.82-1.24-2.93-2.22-5.27-3.2-7.6-.18.01-.36.03-.54.04-.52,3.03-.74,6.14-1.62,9.06-1.74,5.76-3.72,11.46-5.85,17.09-1.98,5.22-4.36,10.29-6.39,15.5-.58,1.5-.47,3.25-.82,4.85-.64,2.93-2.17,5.39-3.7,7.98-2.05,3.46-3.15,7.59-4.09,11.57-.71,3.02-1,6.31-.62,9.37.35,2.83,1.85,5.51,2.77,8.03-.77-.96-1.76-2.19-2.88-3.59-.56,3.75-.95,7.24-1.65,10.66-.47,2.3-1.11,4.65-2.17,6.71-1.42,2.74-2.31,5.25-.2,8.03-.41-.58-.81-1.17-1.46-2.09.08,1.65.14,2.86.2,4.07-.12.06-.23.11-.35.17-.4-.79-.81-1.57-1.39-2.71-2.13,4.34-1.44,9.85-6.69,13.09.89-2.58,1.58-4.56,2.27-6.55-.15-.07-.3-.14-.45-.21-1.58,1.7-3.17,3.39-4.75,5.09l.05.06c.1-.31.12-.71.32-.92,4.75-4.93,3.69-9.67-.13-14.63-2.94-3.82-5.48-7.94-8.46-12.32-.62,1.09-1.01,1.53-1.14,2.04-1.11,4.26-2.06,8.57-3.29,12.8-.71,2.44-.26,4.51.99,6.56-.59.09-1.7.19-1.69.26.05,1.6-.29,3.54.48,4.73,1.73,2.65,4.03,4.93,6.13,7.4,2.06-.99.85-2.16.22-3.34-1.34-2.52-2.62-5.06-3.93-7.59,1.66,2.22,3.27,4.48,5.02,6.63.41.5,1.31.59,1.98.86l-.05-.04c-.04.69-.36,1.54-.08,2.04,1.26,2.2,2.7,4.3,4.08,6.44h-1.99c-1.12-1.87-2.23-3.74-3.35-5.61-.31.04-.61.09-.92.13-.07.79-.41,1.68-.15,2.34.44,1.12,1.27,2.1,1.93,3.14h-1.49c-.8-1.18-1.6-2.35-2.39-3.53-1.74-2.76-3.47-5.53-5.21-8.29-.26.13-.52.26-.78.38.16,3.16.32,6.32.49,9.48-.47-2.73-.94-5.46-1.39-8.19-.11-.68-.15-1.38-.77-2.1-.13.71-.26,1.43-.49,2.69-.41-1.58-.68-2.65-.96-3.72-.19,0-.38-.01-.57-.02,0,1.04.2,2.14-.06,3.11-.26.98-.97,1.83-1.49,2.74-.73-.51-1.75-.85-2.13-1.55-2.62-4.78-5.23-9.58-7.56-14.51-.81-1.73-.86-3.84-1.16-5.79-1.29-8.34-2.61-16.67-3.77-25.03-.22-1.55.23-3.2.38-4.87-1.51.36-3.12.75-5.18,1.24.16-1.52.33-2.39.33-3.26,0-2.79.04-5.59-.18-8.36-.05-.64-1.08-1.2-1.91-2.06-.21-.45-.63-1.29-.97-2.17-.22-.55-.47-1.16-.43-1.73.13-1.97.55-3.93.52-5.89-.02-1.23-.62-2.46-.89-3.42.97-3.02,1.76-6.09,2.94-9.01.99-2.48,2.37-4.8,3.67-7.15.52-.93,1.52-1.65,1.87-2.62,1.35-3.81,4.72-5.94,7.23-8.75,2.63-2.95,5.67-5.56,8.66-8.16,4.05-3.52,8.25-6.86,12.31-10.36.63-.54,1.09-1.48,1.28-2.32.74-3.21,1.34-6.46,2-9.72-.41-.1-.85-.22-1.38-.35.16-.32.25-.53.37-.73.69-1.18,1.8-2.28,2.01-3.54,2.03-12.16,5.37-23.9,10.51-35.12.68-1.49.88-3.21,1.45-5.38.2-.24,1.06-.95,1.46-1.85,4.37-9.8,9.76-18.99,16.18-27.59.46-.62.73-1.39.69-2.53-1.37.65-2.7,1.39-4.11,1.94-1.85.72-3.72,1.42-5.64,1.89-7.85,1.92-13.05,7.16-17.36,13.57-.07.1.02.3.08.77,4.37-2.03,8.65-4.02,12.92-6.01.08.16.16.32.25.48-4.34,2.21-8.7,4.38-13.02,6.64-.92.48-1.97,1.07-2.5,1.91-2.2,3.48-4.22,7.07-6.59,11.09,3.79-1.13,6.03-3.55,8.56-5.57,3.41-2.72,6.92-5.31,10.42-7.9.67-.49,1.52-.73,2.43-.85-1.69,2.05-4.83,2.78-4.98,6.44,1.09-.39,2.03-.72,2.97-1.05-15.38,7.4-26.78,18.54-33.14,34.78,0-.82-.12-1.67.02-2.47.81-4.8,3.41-8.73,6.18-12.57,1.07-1.48,2.18-2.95,3.04-4.54.56-1.02.57-2.33,1.07-3.4,2.6-5.63,5.06-11.34,8-16.8,2.65-4.94,6.01-9.43,10.05-13.43,1.46-1.44,2.16-3.61,3.34-5.36,2.62-3.87,5.26-7.74,8.03-11.5,3.67-4.98,7.45-9.87,11.23-14.77,4.23-5.48,8.48-10.93,12.79-16.34.38-.47,1.26-.54,2.1-.87-1.48-3.66,3.25-3.64,4.29-6.86.27,1.27.38,1.77.54,2.53,3.23-.87,6.39-1.72,9.55-2.57,12.61,0,25.22,0,37.83,0,.33.71.67,1.43,1.17,2.5-1.6-.15-2.78-.27-4.95-.48,1.5,2.56,2.66,4.54,3.87,6.6-.9-.07-1.65-.13-2.73-.22.49.71.76,1.12,1.11,1.62-.57-.16-.95-.28-1.32-.37-.03,0-.1.11-.32.35.65,1.98,1.33,4.08,2.22,6.8-2.35-1.75-4.26-3.18-6.17-4.61-.26.15-.51.31-.77.46.56,1.19.95,2.52,1.73,3.54,1.64,2.13,3.52,4.07,5.25,6.14,1.51,1.81,2.94,3.69,4.4,5.54v3.98c-.7-.42-1.4-.85-2.19-1.33,0,3.74.06,7.38-.04,11.02-.02.8-.68,1.55-.94,2.36-2.14,6.73-4.21,13.47-6.42,20.18-.37,1.13-1.27,2.09-1.93,3.13l.06-.05c-.89,1-1.78,1.99-2.42,2.7,1.3-3.1,2.78-6.66,4.27-10.21-.24-.1-.49-.2-.73-.3-2.23,4.66-4.26,9.42-6.73,13.94-2.36,4.32-2.97,8.9-3.63,13.67-.49,3.6-2.6,6.98-3.96,10.46-2,5.11-3.91,10.26-6.01,15.33-.56,1.37-1.67,2.51-2.86,3.55,1.05-2.27,2.11-4.54,3.16-6.8-.26-.13-.51-.26-.77-.39-.33.4-.69.78-.97,1.21-1.2,1.89-2.49,3.72-3.49,5.71-.49.97-.42,2.23-.58,3.36-.15,1.09-.26,2.18-.39,3.27-.27.11-.54.23-.81.34-.41-.65-.82-1.31-1.33-2.11-5.65,8.23-11.18,16.3-16.71,24.36-.11-.07-.23-.14-.34-.22,2.93-4.91,5.85-9.82,8.78-14.72-.15-.18-.3-.37-.44-.55-.82.25-1.63.51-3.2.99,4.2-5,6.74-10.08,4.45-16.98-2.7,4.72-5.13,8.96-7.66,13.39-.2-.04-.58-.14-.96-.2-3.87-.62-3.85-.61-5.6,2.93-.28.57-.76,1.05-1.15,1.57,2.96-5.73,3.17-11.47-.71-16.78-4.3-5.9-8.97-11.53-13.49-17.28-1.52-1.93-3.05-3.86-4.04-5.1-2.47-1.95-4.36-3.45-6.27-4.96-2.66,3.86-2.7,4.46.06,7.43,8.63,9.25,15.66,19.59,21.34,30.87.99,1.97,2.1,3.87,3.16,5.8ZM284,95.1c.36,1.57.72,3.14,1.07,4.72,2.98-4.93,3.21-7.86,1.12-9.27-.75,1.55-1.49,3.08-2.24,4.61.18-1.2.42-2.4.53-3.62.08-.95.35-2.11-.07-2.83-2.29-3.96-6.52-5.35-10.13-7.57,2.66,4.55,5.41,8.96,8.24,13.32.24.37.97.44,1.47.64ZM322.85,42.72v7.73c.75-2.09,1-4.18,1.04-6.27,0-.46-.71-.94-1.09-1.41-2.68-2.5-5.35-5.01-8.07-7.48-.29-.27-.84-.26-2.13-.62,2.78,8.56,5.37,16.5,7.95,24.43.57-1.46.77-2.91.94-4.37.46-4,.91-8.01,1.37-12.01ZM292.03,33.98c.67.5,1.66.87,1.95,1.54,2.34,5.26,4.55,10.57,6.78,15.88.29.69.43,1.44.72,2.43,3.1-4.13,3.33-4.6,2.04-7.92-2.18-5.62-4.51-11.17-6.84-16.73-.39-.92-1.09-1.71-1.8-2.82-1.78,2.21-4.81,3.4-2.66,6.72.13.2-.09.63-.15.95-.61-.73-1.22-1.46-1.86-2.23-1.59,1.77-3.07,3.41-4.2,4.67,4.42,7.72,8.7,15.19,12.89,22.51.94-1.22,1.25-2.45-.06-5.83-2.05-5.31-4.47-10.47-6.79-15.68-.54-1.21-1.48-2.32,0-3.49ZM308.93,86.66c3.44-3.29.82-7.18,1.25-10.87.58,1.35,1.15,2.7,1.98,4.64,1.12-2.41,1.95-4.21,2.51-5.42-1.35-1.01-2.65-1.54-3.2-2.49-1.69-2.92-3.08-6.02-4.61-9.03-.6-1.18-1.25-2.33-2.1-3.89-1.15,2.31-1.59,3.6.07,5.51,1.95,2.26,3.13,5.22,4.49,7.95.27.55-.14,1.45-.23,2.18-.22-.05-.45-.1-.67-.15-1.65-3.08-3.3-6.17-5.04-9.41-2.55,3.29-2.8,4.67-1.7,6.76,2.47,4.74,4.87,9.51,7.3,14.26-1.03-1.52-2.19-2.98-3.08-4.59-1.66-2.99-3.16-6.06-5.06-9.74-.88,1.64-1.38,2.54-1.83,3.46-.23.46-.33,1.35-.57,1.38-2.64.3-2.07,2.05-1.34,3.39,2.57,4.65,5.33,9.19,8.23,14.13,1.28-2.87,2.45-5.47,3.61-8.07ZM317.15,65.72c1.58.82,2.28-.05,2.24-1.43-.04-1.47-.34-2.97-.77-4.38-1.69-5.51-3.64-10.95-5.19-16.49-1.37-4.91-5.62-7.79-7.94-12.01-.1-.18-.55-.17-.97-.28.25,1.41.42,2.65.69,3.87.73,3.32.58,7.29,2.42,9.83,4.6,6.36,7.92,13.07,9.41,20.73-.61-.54-1.44-.96-1.78-1.64-1.38-2.79-2.58-5.67-3.9-8.49-1.24-2.63-2.56-5.22-4.12-8.41-.45,1.97-.69,3.22-1.02,4.44-.6,2.25-.44,4.26.78,6.4,1.76,3.06,3.13,6.35,4.63,9.56.98,2.12,1.89,4.27,2.83,6.41.32-.01.65-.03.97-.04.64-2.67,3.27-4.77,1.73-8.06ZM274.48,74.69c1.99-1.42,2.57.35,3.37,1.52,2.49,3.65,4.95,7.31,7.53,11.13,2.43-3.26,2.38-3.99.53-6.49-2.99-4.04-5.89-8.14-8.77-12.26-.84-1.2-1.47-2.54-2.19-3.82.3-.19.61-.38.91-.58,4.03,5.9,8.06,11.79,12.08,17.69.26,0,.52,0,.77,0,.38-2.07,1.67-4.54.97-6.13-1.85-4.19-4.46-8.07-6.97-11.94-2.02-3.12-4.42-5.99-6.5-9.08-1.31-1.94-2.34-4.06-3.49-6.1-.32.06-.64.12-.96.18.08.91-.12,1.97.28,2.71,1.79,3.35,3.77,6.61,5.66,9.91,1.43,2.49,2.83,5,4.24,7.51-.32.19-.64.39-.95.58-3.61-5.65-7.22-11.3-10.94-17.11-1.4,2.43-1.9,4.26.57,5.98,1.39.97,2.41,2.49,3.52,3.83.27.32.23.89.34,1.35l-.65.36c-1.27-1.52-2.64-2.98-3.79-4.59-1.27-1.76-2.62-2.5-4.75-.96.27.54.48,1.17.85,1.66,2.63,3.5,5.27,6.99,7.96,10.44,1.07,1.37,1.56,2.71.44,4.25-1.93-2.81-3.86-5.62-5.8-8.44l-.84.6c2.59,4.02,5.18,8.05,7.77,12.07.29-.17.58-.35.87-.52-.69-1.26-1.37-2.51-2.06-3.77ZM252.8,77.23c-1.95,3.43-3.62,6.26-5.13,9.18-.21.4.22,1.47.68,1.84,6.17,4.91,11.89,10.22,16.18,16.95,2.17,3.4,4.71,6.57,6.94,9.93,1.04,1.56,1.77,3.34,2.63,5.02-.18.11-.37.21-.55.32-2.84-3.65-5.67-7.29-8.51-10.94-.15.13-.31.27-.46.4,3.38,6.57,6.76,13.13,10.31,20.04,1.9-3.22,3.54-6.21,5.38-9.06,3.02-4.67,3.65-9.57,1.87-14.81-.93-2.74-1.88-5.49-2.88-8.41,1.99,2.31,1.85,5.73,4.5,7.34-.22-1.37-.87-2.52-1.2-3.75-1.79-6.64-5.55-12.19-9.81-17.38-3.71-4.52-7.79-8.74-11.76-13.05-.86-.94-1.65-2.63-3.37-1.15-1.93,1.67-2.43,4.08-1.22,5.53,1.91,2.29,3.9,4.52,5.7,6.89,3.57,4.71,7.03,9.49,10.54,14.25l-.6.44c-.66-.89-1.28-1.8-1.98-2.65-.67-.82-1.4-1.59-2.1-2.39,3.74,7.65,9.62,14.07,11.3,22.67-4.4-6.1-8.48-12.39-12.72-18.58-4.26-6.22-8.2-12.71-13.75-18.62ZM205.71,226.15c.21.04.42.08.63.12,1.69-3.66,3.34-7.33,5.08-10.97.37-.77,1.05-1.39,1.61-2.06.54-.65,1.47-1.21,1.61-1.94.58-2.99.97-6.01,1.34-9.03.76-6.31,1.47-12.63,2.18-18.95.08-.71.01-1.43.01-2.15-.24-.07-.48-.14-.73-.21-7.91,8.07-15.9,16.06-23.68,24.25-1.9,2-4,4.13-3.67,7.49.38,3.82.4,7.67.61,12.07.66-.82,1.43-1.37,1.62-2.08.6-2.28.43-4.92,1.55-6.86,2.83-4.93,6.19-9.55,9.37-14.27.22-.32.72-.45,1.09-.66-4.36,6.84-8.98,13.41-10.68,21.53,2.79-6.69,7.54-11.77,12.84-16.45-.16.65-.42,1.25-.83,1.71-4.08,4.63-7.67,9.55-9.46,15.58-.13.43-.56,1.12-.83,1.11-1.66-.05-1.07.63-.59,1.43.23.37.33.85.38,1.3.22,2.27.27,4.55.63,6.8.61,3.83,1.4,7.64,2.11,11.46.26.06.52.12.78.18,2.66-7.93,5.33-15.85,7.99-23.78-.13-.05-.26-.11-.39-.16-.19,1.51-.39,3.03-.58,4.54ZM190.31,201.97c7.33-8.02,13.67-16.81,22.54-23.18-1.66,2.05-3.33,4.1-4.99,6.15.6.26.91.21,1.13.04,2.89-2.2,5.78-4.4,8.63-6.66.4-.32.73-.9.81-1.41.83-4.86,1.62-9.72,2.37-14.59.36-2.34.6-4.7.94-7.51-10.1,6.65-29.4,29.38-28.99,34.87,5.03-5.12,9.62-9.81,14.22-14.49-4.6,5.66-9.41,11.11-14.26,16.52-2.67,2.98-2.36,6.62-2.41,10.26ZM224.02,194.4c.18,2.54.71,4.48.33,6.23-.29,1.35.05,1.9.84,2.7,4.01,4.05,7.99,8.13,11.93,12.25,1.07,1.12,1.96,2.43,2.93,3.65-.19.17-.39.34-.58.51-5.18-5.17-10.37-10.35-15.54-15.52-2.24,2.18-.75,3.41.48,4.63,2.39,2.38,4.89,4.65,7.2,7.11,2.92,3.11,5.68,6.36,8.57,9.61,2.25-4.98,4.47-9.79,6.54-14.66.2-.48-.42-1.49-.91-2.05-2.13-2.42-4.43-4.69-6.51-7.14-4.97-5.85-9.47-12.13-15.75-16.81-1.15,2.53-.64,5.84.94,7.42,5.61,5.59,11.21,11.19,16.78,16.83,1.11,1.13,2.06,2.42,3.09,3.63-.21.2-.42.39-.62.59-7.26-5.2-12.84-12.23-19.7-18.97ZM246.37,202.31c-.24.2-.47.4-.71.6-6.83-7.68-13.67-15.37-20.85-23.44-.38,3.51-.09,3.23,1.7,5.08,5.52,5.68,10.84,11.56,16.15,17.45,2.05,2.27,3.87,4.76,5.79,7.15.29-.12.57-.25.86-.37.02-7.66,2.43-15.56-2.2-22.76l-.69.13c.47.97.95,1.93,1.42,2.9-1.02-.13-1.79-.54-2.35-1.14-2.58-2.79-5.1-5.63-7.66-8.44-.43-.47-.9-.95-1.44-1.25-1.36-.74-3-1.12-4.13-2.1-1.64-1.43-2.94-3.25-4.53-5.07-.75,1.58-1.31,2.38-1.49,3.26-.16.8-.19,1.92.25,2.49,6.09,7.73,12.27,15.38,18.4,23.07.59.74.99,1.63,1.47,2.45ZM253.18,184.02c.59-1.56.76-2.48,1.23-3.2,1.51-2.32,1.32-4.38-.44-6.53-6.32-7.71-12.55-15.5-18.85-23.23-1.91-2.34-3.96-4.57-5.94-6.84l-.98.63c-.46,1.98-.85,3.98-1.39,5.94-.43,1.59-.27,2.93,1.08,4,1.87,1.48,3.81,2.87,5.58,4.45,5.74,5.16,10.56,11.12,14.81,17.55,1.49,2.25,3.02,4.46,4.9,7.23ZM257.3,172.73c2.98-3.18,3.02-6.26.34-9.09-.44-.47-.81-1.02-1.19-1.55-5.54-7.55-10.45-15.6-17.38-22.07-2.3-2.14-4.43-4.46-6.74-6.6-.47-.44-1.38-.42-2.08-.6-.32,2.46-.67,4.92-.91,7.39-.02.24.56.55.86.83,2.42,2.2,5.02,4.23,7.21,6.62,4.16,4.53,8.22,9.17,12.06,13.97,2.78,3.47,5.16,7.27,7.83,11.09ZM208.61,269.43c.17-.02.35-.05.52-.07,1.5-17.79,3-35.59,4.49-53.38-.2-.06-.39-.12-.59-.18-1.62,4.57-3.66,9.04-4.75,13.74-1.29,5.53-1.76,11.24-2.58,16.88-.78,5.3-1.61,10.6-2.31,15.91-.5,3.8,1.51,6.76,3.76,9.68.29-2.39.57-4.78.86-7.17.07,0,.15.02.22.03.13,1.52.26,3.04.38,4.56ZM231.3,263.88c2.36-2.68,3.39-5.11,1.59-8.26-1.22-2.14-1.88-4.58-2.97-6.8-1.56-3.15-3.23-6.26-4.96-9.32-.81-1.42-1.89-2.69-2.84-4.03.13-.1.26-.21.39-.31.84.75,1.68,1.49,2.52,2.24.17-.12.34-.24.5-.37-1.89-4.12-3.78-8.25-5.67-12.37-.78.73-1.04,1.27-1.08,1.83-.41,5.57-.82,11.14-1.1,16.71-.04.7.53,1.5.99,2.13,3.29,4.61,6.66,9.17,9.92,13.8,1.01,1.43,1.75,3.05,2.71,4.74ZM264.46,154.43c-.63-1.74-.98-3.57-1.89-5.04-2.39-3.85-4.81-7.7-7.6-11.25-5.3-6.74-10.81-13.32-16.41-19.81-.77-.89-2.62-.86-3.97-1.26,1.09,1.95,2.35,3.26,3.36,4.75,1.34,1.98,2.36,4.18,3.74,6.12,4.2,5.92,8.44,11.82,12.81,17.62,2.67,3.55,4.21,8.41,9.97,8.87ZM293.52,69.47c3.36-3.51,3.69-6.49,1.36-10.66-1.72-3.08-3.26-6.26-5.01-9.32-2.1-3.68-4.35-7.27-6.49-10.85-1.02.53-2.16.75-2.49,1.38-.54,1.05-2.07,1.82-1,3.56,2.28,3.67,4.43,7.43,6.43,11.27,2.51,4.81,4.8,9.73,7.2,14.63ZM235.47,238.56c.72-1.87,1.11-3.32,1.8-4.61,1.38-2.57.71-4.61-1.05-6.72-3.32-3.96-6.48-8.07-9.73-12.09-.42-.52-1.03-.88-1.83-1.54-.2,1.85-.7,3.31-.39,4.58.33,1.38,1.4,2.58,2.15,3.86.17.29.3.59.46.88,2.77,5.05,5.55,10.09,8.59,15.64ZM290.56,100.09c-1.22,4.07-2.29,7.54-3.29,11.04-.2.69-.43,1.62-.13,2.16,1.47,2.69,3.11,5.29,4.76,8.03,2.02-1.72,2.9-3.45,1.58-5.77-.44-.79-.88-1.6-1.19-2.44-.66-1.82-1.23-3.67-1.84-5.5.28-.1.57-.2.85-.3,1.35,2.81,2.69,5.63,4.12,8.59,1.54-2.32-1.06-10.83-4.87-15.8ZM239.37,64.46c.99-.16,1.61-.22,2.2-.36,4.4-1.09,8.74-2.52,13.21-3.19,4.3-.64,5.95-3.79,8.59-7.1-1.19.29-1.73.38-2.26.55-4.86,1.55-9.63,3.56-14.61,4.5-3.43.64-5.54,2.05-7.13,5.6ZM252.07,188.36c.15-.01.3-.02.45-.03-.15-.84-.05-1.86-.5-2.48-2.95-4.09-5.84-8.24-9.09-12.08-3.57-4.22-7.54-8.11-11.28-12.2-1.53-1.67-2.93-3.47-4.6-5.45-2.33,4.67-1.5,5.96,4.86,10.5.15-.48.31-.96.37-1.13,3.71,3.54,7.7,6.81,11.02,10.65,3.27,3.77,5.87,8.12,8.77,12.22ZM293.53,93.44c-1.97,2.69-2.15,4.54-.55,6.9,1.64,2.41,2.61,5.28,3.87,7.96.37.78.7,1.59,1.05,2.38.26-.09.53-.18.79-.28.91-6.24-3.2-11.01-5.15-16.96ZM268.34,74.84l.53-.33c-2.16-3.77-4.32-7.54-6.49-11.31-1.26,1.75-3.83,2.91-2.03,4.77,2.42,2.52,5.31,4.59,8,6.86ZM266.47,49.4c-5.68,1.42-10.95,2.69-16.18,4.12-.75.2-1.27,1.21-1.98,1.92,4.11-.69,7.87-1.6,11.67-1.86,2.85-.2,5.18-.6,6.49-4.18ZM240.34,232.86c-.36-.06-.73-.12-1.09-.18-.85,2.38-1.72,4.75-2.55,7.14-.41,1.16-1.15,2.4-1.03,3.52.22,1.96.98,3.86,1.52,5.79l1.24-.29c-.41-1.8-.82-3.6-1.27-5.58.6.33,1.04.58,1.88,1.05.46-4.03.88-7.74,1.3-11.45ZM242.36,96.31c.23.91.18,2.11.75,2.68,3.12,3.12,6.4,6.08,9.64,9.08.05.05.28-.09.42-.14-2.22-5.73-5.95-10.2-10.81-11.63ZM259.64,163.89c1.94-2.61-2.2-11.88-6.76-15.01.57,1.15.92,1.83,1.24,2.52.58,1.27,1.75,2.61,1.61,3.8-.45,3.83,2.43,5.8,3.92,8.7ZM252.5,100.94c.2-.14.4-.27.6-.41-2.22-3.01-4.42-6.02-6.72-8.97-.1-.12-1.46.35-1.66.81-.29.66-.41,1.94-.01,2.29,2.51,2.2,5.18,4.21,7.8,6.28ZM300.83,103.54c.28-.12.57-.24.85-.37-.86-5.46-3.37-10.23-6.22-15.17-1.67,1.84-.75,3.04-.03,4.37,1.43,2.68,2.72,5.44,4.05,8.17.48.98.91,1.99,1.36,2.98ZM206.71,233.27c-3.61,6.65-4.1,13.88-3.49,21.28,1.16-7.09,2.32-14.19,3.49-21.28ZM287.17,115.57c-.35.09-.7.18-1.05.27.11,1.5.01,3.06.41,4.49.26.94,1.2,1.72,1.91,2.49.48.53,1.11.93,1.67,1.39.13-.82.6-1.79.31-2.44-.94-2.13-2.14-4.15-3.25-6.21ZM284.05,122.2c.2,3.44.37,6.51.56,9.82,3.26-3.93,3.17-5.58-.56-9.82ZM232.94,124.96c-.18.18-.37.37-.55.55,4.08,3.9,8.17,7.79,12.68,12.1-2.86-5.98-7.9-8.9-12.13-12.65ZM296.7,84.48c-.17,2.85,2.57,4.28,3.46,6.66.92,2.46,2.04,4.85,3.08,7.27.8-2.47-2.78-9.92-6.54-13.93ZM234.14,242.07c.84-2.78-2.66-9.39-5.66-10.79,1.97,3.77,3.68,7.03,5.66,10.79ZM232.05,219.13c2.29,3.04,4.58,6.08,7.05,9.36.44-1.76-4.62-8.64-7.05-9.36ZM316.81,30c-.58,2.73,1.89,6.06,5.13,7.34-1.58-2.26-3.16-4.53-5.13-7.34ZM290.82,81.86c-.29-.09-.59-.18-.88-.27-.36,2.72-3.25,4.66-2.31,7.79.28.09.56.17.84.26.78-2.59,1.57-5.18,2.35-7.77ZM292.36,24.8c-3.95-.89-4.7,2.06-6.63,3.13.2.31.41.62.61.94,1.83-1.24,3.66-2.47,6.02-4.07ZM261.12,49.01c3.65.72,7.03-.52,7.78-2.76-2.55.91-4.98,1.77-7.78,2.76ZM237.79,126.96l.68-.55c-1.43-1.7-2.86-3.4-4.29-5.1-.24.2-.49.4-.73.59.39,2.52,3.05,3.26,4.35,5.06ZM297.38,69.35c-.24-.06-.47-.12-.71-.18-1.92,2.67-2.14,3.72-.79,5.66.56-2.05,1.03-3.77,1.5-5.48ZM281.78,140.01c.25.15.51.31.76.46,1.37-2.22,2.75-4.45,4.12-6.67l-.72-.43c-1.39,2.21-2.78,4.43-4.16,6.64ZM285.11,30.73c-2.71.34-3.89,1.32-4.17,3.22.23.23.46.47.69.7,1.02-1.15,2.04-2.29,3.47-3.91ZM237.34,251.56c-1.06-.62-1.88-1.09-3.06-1.78.58,1.63,1.03,2.92,1.72,4.85.66-1.5,1-2.29,1.35-3.07Z"/>
      <path class="cls-1" d="M102.29,13.43c1.65,2.88,3.52,5.66,4.91,8.67,2.7,5.86,4.31,12.03,4.53,18.52-2.2-5.75-4.39-11.45-6.57-17.15-.29.1-.57.19-.86.29,1.36,6.96,2.72,13.93,4.08,20.89-.34.08-.68.15-1.01.23-3.52-10.48-7.03-20.96-10.55-31.45,1.83,0,3.65,0,5.48,0Z"/>
      <path class="cls-1" d="M94.33,13.43c2.56,5.78,3.75,11.89,4.69,18.11.88,5.86,2.25,11.64,3.45,17.67-3.35-3.22-4.27-7.37-5.49-11.39-2.14-7.04-4.4-14.04-6.52-21.09-.31-1.02-.09-2.2-.11-3.3h3.98Z"/>
      <path class="cls-1" d="M159.54,13.43c.17,4.36.45,8.72.48,13.08.03,4.83-.11,9.67-.3,14.5-.02.61-.8,1.2-1.23,1.79-.22-.11-.45-.22-.67-.33,0-4.34,0-8.68,0-13.02,0-3.54-.05-7.08-.01-10.61.02-1.8.16-3.6.25-5.4.5,0,1,0,1.49,0Z"/>
      <path class="cls-1" d="M226.21,273.22c.13.96.05,2.01.43,2.85.93,2.02,2.06,3.94,3.16,5.87.15.27.55.41,1.14.81-.01.09-.12.77-.23,1.45h-1c-1.75-3.22-3.51-6.44-5.32-9.78-.91.71-1.29,1-1.67,1.3l.05.04c1.17-1.78.65-3.33-.48-4.94-1.75-2.49-3.36-5.07-5-7.64-.51-.79-.9-1.65-1.35-2.48,2.88,3.18,5.21,6.65,7.65,10.04.71.98,1.77,1.7,2.67,2.54l-.05-.06Z"/>
      <path class="cls-1" d="M102.81,160.43c-.82,8.63-1.65,17.26-2.47,25.89l1.04.26c1.04-8.56,7.2-14.61,9.94-22.34l.79.32c-.75,2.18-1.51,4.36-2.37,6.85.92-.56,1.63-1,2.91-1.77-5.1,12.09-9.97,23.62-14.74,34.91-.05-.89-.13-2.22-.21-3.55-.11-.03-.21-.06-.32-.1-.59,2.09-1.17,4.17-1.76,6.26-.71-4.22.41-8.14,1.65-12.04.33-1.02.83-2.01,1.03-3.05.32-1.71.45-3.46.67-5.2.23-1.79.47-3.59.71-5.38.95-7.03,1.91-14.07,2.86-21.1.09,0,.18.02.27.02Z"/>
      <path class="cls-1" d="M158.04,205.44c-4.03-3.61-8.24-7.04-12.03-10.88-5.56-5.63-10.85-11.53-16.18-17.38-3.71-4.07-7.29-8.26-10.92-12.4-.38-.43-.82-.88-.99-1.4-.13-.38-.02-1.03.24-1.31.2-.2.95-.17,1.23.05,2.12,1.69,4.4,3.27,6.24,5.24,5.01,5.37,9.83,10.92,14.72,16.41,5.74,6.44,11.48,12.89,17.21,19.34.43.49.79,1.05,1.18,1.58-.23.25-.46.5-.68.75Z"/>
      <path class="cls-1" d="M57.17,131.85c.54,2.47,1.13,4.61,1.45,6.79,1.63,11.26,3.33,22.53,2.43,33.96-.08.98-.77,1.92-1.17,2.88-.44-.98-1.19-1.93-1.26-2.94-.42-6.02-.67-12.04-.99-18.06-.14-2.61-.4-5.21-.44-7.82-.07-4.8-.02-9.61-.02-14.8Z"/>
      <path class="cls-1" d="M125.19,76.98c-.26-1.84-.71-3.68-.75-5.53-.13-5.29-.22-10.59-.11-15.89.15-7.18.9-14.28,4.48-20.74.5-.9,1.18-1.7,2.18-2.22-1.01,3.28-2.15,6.53-3.01,9.85-2.02,7.78-1.24,15.74-1.34,23.65-.04,3.6-.31,7.2-.48,10.8-.32.03-.64.06-.96.08Z"/>
      <path class="cls-1" d="M214.56,148.26c-1.5,1.76-2.99,3.52-4.5,5.27-.25.29-.58.52-.59,1.19,3.56-2.68,7.11-5.35,10.67-8.03.09.15.19.3.28.45-4.64,4.45-9.51,8.69-13.85,13.41-4.34,4.71-8.15,9.9-11.85,14.46,2.33-5.95,6.58-11.35,11.32-16.43-.14-.15-.29-.31-.43-.46-1.04.92-2.12,1.79-3.1,2.77-1.1,1.1-2.1,2.29-3.15,3.45-.16-.15-.33-.3-.49-.45.93-1.03,1.83-2.08,2.78-3.09,3.63-3.84,7.26-7.68,10.95-11.46.5-.51,1.37-.67,2.07-.99,0,0-.1-.08-.1-.08Z"/>
      <path class="cls-1" d="M217.11,134.37c-7.28,7.16-11.03,16.48-16.33,25.41.8-8.53,11.45-24.94,16.33-25.41Z"/>
      <path class="cls-1" d="M34.11,15.89c-5.54,7.02-12.38,12.51-19.9,17.2-.16-.19-.32-.38-.48-.57,6.62-5.75,13.24-11.49,19.87-17.24.17.2.35.41.52.61Z"/>
      <path class="cls-1" d="M207.32,124.12c3.06-6.36,17.22-19.18,20.71-20.33.16.17.32.34.48.5-3.58,3.15-7.14,6.32-10.73,9.45-3.72,3.24-7.48,6.44-11.22,9.66.25.24.51.48.76.72Z"/>
      <path class="cls-1" d="M41.68,17.34c-2.17,1.57-4.39,3.07-6.5,4.71-3.36,2.63-6.64,5.37-9.97,8.03-.4.32-.95.45-1.56.73.32-2.31,11.98-12.46,17.22-15.14.25.58.5,1.16.75,1.73,0,0,.06-.06.06-.06Z"/>
      <path class="cls-1" d="M185.33,77.31c-1.23,8.89-2.46,17.77-3.68,26.66-.35-.05-.71-.11-1.06-.16,1.14-8.9,2.09-17.83,4.75-26.5Z"/>
      <path class="cls-1" d="M11.98,30.16c2.52-5.16,5.04-10.32,7.56-15.48.31.15.62.3.92.45-1.17,5.82-4.68,10.51-7.8,15.39l-.69-.36Z"/>
      <path class="cls-1" d="M213.64,130.68c1,1.47-.31,2.19-1.03,3.05-3.26,3.9-6.56,7.77-10.03,11.51,2.76-5.55,6.99-9.98,11.1-14.51l-.04-.05Z"/>
      <path class="cls-1" d="M213.97,126c-3.81,5.02-7.61,10.03-11.09,14.62.11-2.23,6.66-11.76,11.09-14.62Z"/>
      <path class="cls-1" d="M225.87,115.68c-3.68,3.29-7.37,6.57-11.05,9.86-.17-.19-.34-.38-.52-.58,3.1-3.93,6.92-7.07,11.57-9.28Z"/>
      <path class="cls-1" d="M213.67,130.73c3.51-3.09,7.03-6.17,10.54-9.26l.6.68c-3.13,2.92-6.24,5.86-9.44,8.71-.29.26-1.14-.1-1.74-.18,0,0,.03.04.03.04Z"/>
      <path class="cls-1" d="M122.15,216.18c.78,4.48,1.56,8.96,2.34,13.44-.22.04-.44.09-.67.13-.92-4.47-1.83-8.94-2.75-13.41.36-.05.72-.11,1.07-.16Z"/>
      <path class="cls-1" d="M214.56,148.26s.1.08.1.08c.21-.57.27-1.31.67-1.68,1.84-1.71,3.78-3.32,5.96-4.67-1.66,2.7-3.86,4.83-6.73,6.26Z"/>
      <path class="cls-1" d="M54.84,163.92c.32,1.14.77,2.25.93,3.41.48,3.56.85,7.13.84,10.74-.58-4.73-1.15-9.46-1.73-14.19l-.03.04Z"/>
      <path class="cls-1" d="M264.56,15.73c1.03.68,2.06,1.37,3.09,2.05-.23.33-.46.67-.69,1-1.02-.72-2.04-1.44-3.06-2.16.22-.3.44-.59.66-.89Z"/>
      <path class="cls-1" d="M54.87,163.88c-.05-2.44-.11-4.88-.16-7.32,0,0-.02.03-.01.03.05,2.44.1,4.88.14,7.33,0,0,.03-.04.03-.04Z"/>
      <path class="cls-1" d="M315.76,80.65c.27.68.72,1.34.77,2.03.06.86-.23,1.74.21,2.82,1.61-3.37,3.21-6.74,4.82-10.1.4.19.8.37,1.19.56-3.85,9.12-7.7,18.24-11.56,27.36-.17-.07-.34-.13-.51-.2,1.47-5.56,2.99-11.1,4.36-16.68.46-1.89.53-3.89.78-5.83,0,0-.06.05-.06.05Z"/>
      <path class="cls-1" d="M326.74,67.54c-1.15,2.4-1.92,5.02-3.79,7.02-.28-.15-.55-.3-.83-.45,1.29-2.32,2.58-4.65,3.87-6.97.25.13.49.27.74.4Z"/>
      <path class="cls-1" d="M74.23,115.36c.58.48,1.4.84,1.69,1.46,4.09,8.65,7.72,17.48,9.9,26.84.36,1.55.94,3.05,1.41,4.58-.25.1-.49.2-.74.3-.6-1.33-1.27-2.63-1.79-3.99-3.4-8.86-6.78-17.73-10.11-26.62-.3-.8-.21-1.74-.3-2.62,0,0-.06.05-.06.05Z"/>
      <path class="cls-1" d="M162.01,79.86c-1.37-.75-2.81-1.39-4.09-2.27-1.13-.77-2.07-1.81-2.94-2.96,2.42.55,4.39,1.78,5.83,3.84.36.51.79.98,1.18,1.47,0,0,0-.08,0-.08Z"/>
      <path class="cls-1" d="M68.03,71.27c-.75-8.48-1.51-16.97-2.28-25.71,1.67,1.84,4.01,21.86,3.18,25.58-.3.04-.6.08-.9.12Z"/>
      <path class="cls-1" d="M63.01,80.16c-.62-1.91-1.58-3.79-1.78-5.75-.34-3.39-.2-6.83-.26-10.25,1.51.26,2.1.96,2.05,2.67-.1,3.43.23,6.87.3,10.31.02,1.04-.22,2.09-.34,3.13,0,0,.04-.11.04-.11Z"/>
      <path class="cls-1" d="M63.01,80.16s-.03.11-.04.11c1.73,2.29.24,4.58,0,6.87-.26-1.76-.59-3.52-.72-5.29-.04-.54.49-1.12.76-1.68Z"/>
      <path class="cls-1" d="M249.59,32.34c1.95-5.44,3.89-10.87,5.84-16.31.05,4.45-.61,8.68-2.33,12.74-.75,1.78-1.37,3.35-3.57,3.51,0,0,.06.05.06.05Z"/>
      <path class="cls-1" d="M146.63,173.69c-2.12-1.89-4.25-3.77-6.34-5.69-.77-.71-1.42-1.54-2.13-2.32.23-.2.46-.41.69-.61,2.58,2.89,5.15,5.78,7.73,8.67,0,0,.05-.05.05-.05Z"/>
      <path class="cls-1" d="M152.91,139.57c-1.52-.9-3.2-1.6-4.53-2.72-7.83-6.61-14.27-14.44-19.77-23.06-1.92-3-3.66-6.11-5.09-9.44,9.46,11.95,17.66,24.92,29.65,34.64-.09.19-.18.39-.27.58Z"/>
      <path class="cls-1" d="M122.99,99.67c.44.19,1.03.27,1.3.6,5.91,7.34,11.78,14.71,17.66,22.07,0,0,.08-.06.08-.06-3.09-.8-4.36-3.63-6.1-5.78-4.44-5.5-8.6-11.22-12.88-16.85,0,0-.06.03-.06.03Z"/>
      <path class="cls-1" d="M142.03,122.27s-.08.06-.08.06c1.75,1.79,3.49,3.57,5.43,5.55-2.42-.8-5.26-3.91-5.34-5.61Z"/>
      <path class="cls-1" d="M169.99,98.55c-1.76-2.12-.18-3.99.09-5.96.27.03.54.06.81.09-.32,1.97-.64,3.94-.96,5.91,0,0,.05-.05.05-.05Z"/>
      <path class="cls-1" d="M115.23,189.78c-.93,11.51-1.88,23.27-2.81,34.76-3.75-3.01.07-30.57,2.81-34.76Z"/>
    </g>
  </g>
</svg>