<?xml version="1.0" encoding="UTF-8"?>
<svg id="Layer_1" xmlns="http://www.w3.org/2000/svg" viewBox="0 0 395.83 297.64">
  <defs>
    <style>
      .cls-1 {
        fill: #a61e2f;
      }
    </style>
  </defs>
  <g id="K6dHRg">
    <g>
      <path class="cls-1" d="M240.6,232.04c.18-.05.46-.05.54-.17.25-.4.4-.86.64-1.27q1.12-1.87,3.69-2.44c-.43,1.83-1.68,3.1-2.6,4.64.8.16,1.15-.36,1.51-.86.58-.82,1.2-1.62,1.75-2.46.51-.79,1.16-.99,2.09-.64.11,1.44-1.16,2.29-1.55,3.52.06.04.14.13.22.14,2.35.27,2.45.22,2.27-2.19-.1-1.24-.45-2.47-.71-3.81,1.21.56,1.56,1.7,2.12,2.89.5-.63.9-1.14,1.37-1.73.84.94-.2,1.35-.42,1.91-.25.59-.68,1.11-.9,1.74,1.22-.77,1.4-2.46,2.66-3.14.14.11.28.23.43.34-.85,1.22-1.69,2.44-2.63,3.79,2.78.12,2.47-2.61,3.93-3.66-.61-.74-1.1-1.35-1.59-1.95,1.48,1.06,3.2,1.38,4.86,1.79,3.13.77,6.22.16,9.3-.45.56-.11,1.12-.2,1.68-.3.04.12.07.24.11.37-.89.27-1.78.58-2.68.81-1.03.26-2.06.5-3.11.65-.99.15-2,.23-3.01.23-.98,0-1.97-.15-3.08-.24.13,1.78-.57,3.07-2,4.17,2.53-.3,4.87-.72,7.22-.83,3.55-.17,7.14-.46,10.65-.06,3.15.35,6.24.17,9.35.04,2.69-.12,5.4-.4,8.05-.91,2.06-.4,4.03-1.25,6.05-1.89.65-.21,1.3-.44,1.96-.62,1.28-.33,2.59-.58,3.86-.96,1.56-.46,2.73-1.35,3.1-3.09.19-.87.6-1.7.93-2.54.35-.87.28-1.68-.34-2.39-2.11-2.38-2.15-5.46-2.83-8.32.74-2.15-.85-3.36-1.89-4.84-1.38-1.94-2.63-3.97-3.92-5.97-.1-.16-.12-.37.09-.72,1.74,2.56,3.49,5.13,5.23,7.69l.35-.2c-1.31-2.84-2.61-5.68-3.92-8.52.13-.07.26-.15.39-.22.71,1.09,1.41,2.19,2.12,3.28.04-.02.09-.03.13-.05-.4-1.33-.81-2.67-1.21-4,.13-.06.25-.12.38-.18.44.77.89,1.53,1.33,2.3.06-.02.12-.04.18-.05-.08-.71-.17-1.42-.25-2.14.14-.03.28-.05.42-.08.93,2.22,2.2,4.35,1.64,6.69.85-1.39,1.83-2.99,2.81-4.59.15.08.31.16.46.24-.36.69-.72,1.37-1.09,2.06.05.05.1.1.15.15,1.19-1.03,2.37-2.05,3.56-3.08.1.1.21.19.31.29-.85,1.88-2.4,3.32-3.63,5.18,1.5.11,2.64.21,3.93-.74,2.13-1.56,4.55-2.71,6.86-4.02.05-.03.18.07.45.19-1.96,1.88-4.21,3.19-6.4,4.69.47-.17,1-.25,1.41-.51,3.03-1.94,6.04-3.92,9.2-5.97-3.62-.66-7.12-.54-10.72-.31.11-.95.85-1.01,1.47-1.15,2.32-.55,4.65-.25,6.96.09,1.5.22,2.98.6,4.4.89-2.46,1.69-4.88,3.38-7.32,5.03-1,.68-2.03,1.3-2.99,2.27.5-.1,1.06-.09,1.48-.33,1.44-.79,2.87-1.62,4.25-2.51,1.78-1.15,3.51-2.38,5.28-3.56.24-.16.53-.25,1-.13-.94.93-1.87,1.87-2.81,2.8.04.06.08.11.11.17,1.67-1.15,3.34-2.3,5.17-3.56-.27,1.77-2.12,2.11-2.64,3.53,2.11-1.6,4.22-3.21,6.33-4.81-2.35,3.91-6.1,6.25-9.55,8.95,4.95-2.57,8.71-6.69,12.95-10.2.09.09.19.17.28.26-.78.98-1.55,1.96-2.33,2.94,1.99-1.29,3.28-3.37,5.56-4.29-1.6,1.86-3.21,3.72-5.05,5.86,1.46-.72,2.59-1.28,3.43-2.32.93-1.16,1.85-2.33,2.89-3.39.62-.63,1.08-1.55,2.27-1.52.39,0,.9-.71,1.19-1.19,1.34-2.23,2.62-4.49,3.93-6.74.28-.49.57-.98.85-1.46.14.05.28.11.43.16-.45,1.56-.9,3.12-1.35,4.68.06.03.11.07.17.1.52-1.01,1.11-2,1.54-3.05.46-1.1.77-2.25,1.14-3.39.14.02.27.04.41.06-.04.69.07,1.43-.13,2.07-.75,2.42-1.61,4.82-2.41,7.23-.21.63-.36,1.27-.36,1.99,1.33-1.11,2.8-1.96,2.99-4.02.15-1.66.87-3.27,1.3-4.92.33-1.27.62-2.55,1.01-4.15,1.45,1.4.4,2.96,1,4.27.29-.41.57-.81.86-1.22.06.02.12.04.18.06-.08.31-.17.62-.24.94-.75,3.5-1.88,6.95-1.79,10.58.02.71.26,1.42.45,2.41,1.54-2.07,2.44-4.24,4.22-5.71.12.08.25.17.37.25-.3.43-.61.85-.9,1.29-.93,1.41-1.9,2.81-2.77,4.27-.29.48-.3,1.13-.27,1.76,1.71-1.76,2.32-4.38,4.97-5.34-.15.32-.27.67-.47.96-1.12,1.61-2.26,3.21-3.41,4.8-.55.76-.54,1.43.24,2.18,1.3-1.46,1.92-3.46,4.03-4.08-.61.89-1.21,1.79-1.83,2.67-.37.52-.78,1.01-1.14,1.54-.88,1.29-.86,1.46.31,2.94,1.16-1.46,2.07-3.18,3.88-3.92l.28.22c-.4.51-.77,1.05-1.2,1.53-.53.59-1.12,1.13-1.67,1.71-1.25,1.32-1.27,1.61-.13,3.52.93-.88,1.83-1.72,2.73-2.57.13.12.27.25.4.37-.67.74-1.26,1.59-2.04,2.19-.88.68-.84,1.37-.65,2.34.35,1.81.48,3.66.72,5.6.52-.08,1.15-.18,1.78-.27.07.13.14.26.21.38-.45.35-.84.84-1.35,1.02-1.03.38-1.43,1.06-1.64,2.11-.95,4.7-3.11,8.81-6.51,12.19-1.31,1.3-2.83,2.41-4.35,3.47-3.35,2.35-6.8,4.55-10.6,6.11-1.02.42-2.11.7-3.18.98-5.74,1.54-11.51,2.95-17.38,3.86-1.62.25-3.26.42-4.9.49-3.66.16-7.32.2-10.98.35-6.07.25-12.09-.37-18.12-.9-5.07-.45-10.12-1.16-15.19-1.54-2.63-.2-5.29.04-7.93.15-2.19.09-4.31.2-6.28-1.14-3.25-2.21-6.78-2.09-10.58-.87,2.41.33,4.37,1.3,6.31,2.39,2.43,1.36,5.11,1.83,7.86,1.47,1.07-.14,2.09-.68,3.16-1.04-.16,1.18-1.04,2.25-2.72,3.41-1.24.86-2.45,1.76-3.62,2.74,1.74-.47,3.32-1.23,4.71-2.4.89-.75,1.78-1.5,2.69-2.23.22-.18.54-.23.9-.22-1.89,3.15-4.33,5.61-8.04,6.62,2.73-.21,5.18-1.05,7.22-2.82.73-.63,1.11-1.69,1.87-2.27.65-.5,1.62-.88,2.42-.84,2.8.15,5.58.53,8.38.77,1.52.13,3.07.07,4.59.23,4.63.49,9.26,1.08,13.89,1.56,2.9.3,5.81.54,8.73.66,2.86.12,5.72.07,8.58.08,2.27.01,4.54,0,6.81-.11-2.48-.4-5.04.08-7.5-.5,0-.13.01-.26.02-.39h10.43c-.5.28-.68.37-.87.47.07.06.14.16.21.15,3.27-.32,6.54-.64,9.8-.99.69-.07,1.05-.47.72-1.42-2.48.7-4.98,1.51-7.64,1,1.01-.16,2.04-.23,3.01-.49,1.62-.44,3.21-1.03,4.82-1.5,1.4-.4,2.84-.66,4.23-1.08.88-.26,1.95-.14,2.51-1.12.05-.08.19-.2.21-.19,1.19.75,2.18-.53,3.41-.36-.73,1.03-3.04.43-2.49,2.82.97-.33,1.92-.57,2.8-.98.26-.12.41-.69.42-1.06.01-.5-.16-1-.26-1.49.12-.04.24-.09.36-.13.31.68.62,1.35.97,2.13.98-.43,1.97-.8,2.89-1.3.28-.15.45-.66.51-1.03.05-.32-.12-.69.01-1.12.28.45.57.9.93,1.47,1.07-.5,2.11-.99,3.22-1.51-.31-.97-.59-1.84-.91-2.85,1.37.26,1.18,1.44,1.81,2.25.62-.27,1.25-.55,2.01-.88-.41-.85-.75-1.54-1.09-2.23.08-.06.16-.12.24-.18.48.63.95,1.26,1.59,2.09,1.31-.86,2.76-1.57,3.9-2.61,5.42-4.9,9.77-10.62,12.57-17.41,1.84-4.46,2.46-9.09,1.73-13.88-1.03-6.74-3.11-13.22-5.27-19.66-.59-1.77-1.88-3.31-2.86-4.94-1.12-1.87-2.25-3.73-3.4-5.58-.3-.49-.69-.93-1.13-1.52-1.08,1.43-2.08,2.76-3.08,4.09.1-2.04,1.08-3.7,2.16-5.41-.75-.97-1.52-1.91-2.22-2.9-1.23-1.73-2.37-3.51-3.63-5.22-.98-1.34-1.54-2.96-2.77-4.13-.18-.17-.32-.44-.38-.69-.85-3.77-3.19-6.79-5.02-10.07-.92-1.65-1.9-3.38-3.22-4.69-2.76-2.73-5.92-4.97-9.37-6.83-6.19-3.33-12.77-5.74-19.31-8.25-3.96-1.52-7.95-2.95-11.93-4.42-3.11-1.15-6.36-1.1-9.6-1-2.49.07-4.98.19-7.47.28-4.4.17-8.8.35-13.2.5-4.61.16-9.25.04-13.82.52-4.58.48-8.99-.32-13.46-.81-3.65-.4-7.3-.42-10.96-.01-1.37.15-2.76.15-4.14.19-3.18.09-6.36.22-9.54.21-1.22,0-.96,1.08-1.61,1.68-.6-2.88-3.16-1.43-4.82-2.59.2,2.57,1.56,4.06,3.09,5.5,1.23,1.15,2.37,2.41,3.47,3.69,1.12,1.32,1.53,2.92,1.31,4.62-.28,2.18-1.13,4.15-2.47,6.31.2-1.7.55-3.05.45-4.36-.1-1.33-.64-2.62-1.22-3.93-.71,3.16-.89,6.46-4.09,8.61-.15-2.3.19-4.59-1.17-6.6-.02.22-.1.46-.06.67.62,3.27,0,6.46-.77,9.6-.89,3.6-1.09,7.15.38,10.6.66,1.53,1.65,2.96,2.67,4.29,1.07,1.38,1.57,2.84,1.53,4.56-.05,2.2-.29,4.35-1.38,6.31-.25.45-.56.87-1.12,1.17.28-.91.53-1.83.84-2.73.98-2.77-1.01-6.82-3.51-8.44-1.64-1.06-3.15-2.33-4.71-3.5-.12,0-.25-.02-.37-.03-.28-.62-.47-1.29-.85-1.84-1.91-2.8-2.72-5.97-3.01-9.27-.32-3.63-.43-7.29-.69-10.93-.04-.53-.38-1.04-.58-1.57.07-.45.35-1.01.18-1.34-.67-1.31.25-2.41.3-3.62.45,2.4.84,4.8,1.17,7.2.44,3.25.75,6.53,1.29,9.77.36,2.2.8,4.42,1.79,6.16,0-1.22-.03-2.63,0-4.05.11-3.87.3-7.74.34-11.61.02-2.18-.3-4.36-1.36-6.32-.57-1.07-1.39-2-2.07-3.01-.59-.88-1.14-1.79-1.71-2.69.08-.05.15-.09.23-.14.28.17.55.35.83.52-1.84-3.7-2.39-7.5-1.72-11.5.14.72.12,1.45.14,2.18.07,3.28.97,6.27,3,8.89,1.59,2.05,3.76,3.37,5.88,4.79,2.61,1.75,5,3.75,6.2,6.8,1.08-2.73-.55-6.04-3.29-7.39-1.33-.66-2.67-1.31-4.03-1.9-2.2-.96-3.51-2.76-4.32-4.86-.94-2.43-1.4-4.98-1.31-7.64.06-1.63-.17-3.28-.25-4.91-.03-.5,0-1.01,0-1.52.99,1.71,1.15,3.59,1.3,5.47.11,1.43.14,2.86.34,4.28.38,2.79,1.35,5.34,3.36,7.4.83.85,1.26,1.1,2.73,1.36-3.31-2.24-4.77-5.51-5.45-9.13-.5-2.68-.69-5.42-1.01-8.13.28.38.54.82.64,1.29.36,1.66.7,3.32.99,4.99.59,3.38,2.07,6.25,4.55,8.53-.44-2.49-.98-4.96-1.3-7.46-.29-2.22.04-4.52-1.13-6.63.11-.03.23-.05.34-.08.36.72.73,1.44,1.09,2.15.1-.04.19-.09.29-.13-.8-2.01-1.59-4.02-2.42-6.01-.17-.41-.48-.9-.85-1.08-1.19-.57-2.41-1.1-3.67-1.48-3.3-1-5.9-2.92-7.6-5.91-1.08-1.9-2.37-3.42-4.5-4.2-.85-.31-1.55-1.06-2.02-1.4.78.87,1.76,1.97,2.76,3.07.64.7,1.32,1.37,1.95,2.09.14.17.25.59.15.69-.18.2-.53.38-.79.35-.35-.04-.71-.23-1.01-.43-1.28-.85-2.58-1.68-3.81-2.61-1.27-.96-2.46-2.03-3.68-3.05l-.27.18c1.39,4.28,2.74,8.57,4.2,12.83.32.92.92,1.83,1.62,2.5,2.8,2.68,4.73,5.83,5.73,9.56.11.42.26.83.38,1.25.49-1.38.9-2.73.9-4.08-.02-2.35-.36-4.67-2.41-6.3-.66-.53-1.36-1.04-1.92-1.66-1.02-1.13-2.14-2.24-2.87-3.55-1.02-1.84-1.7-3.86-2.58-5.78-.4-.87-.94-1.68-1.42-2.51.09-.07.18-.14.26-.21.38.39.77.77,1.14,1.17,1.49,1.61,3.08,3.06,5.02,4.13.98.53,1.92,1.13,2.85,1.75,1.9,1.26,3.11,3.02,3.55,5.27.06.3-.04.62-.09,1.13-.5-.62-.83-1.03-1.17-1.44.08,1.12.47,2.1.73,3.1.2.79.28,1.62.35,2.44.09,1.05.04,2.12.19,3.17.26,1.78.43,3.51.24,5.36-.43,4.04-.36,8.08,1.81,11.76.43.72.84,1.46,1.25,2.18-1.27-.36-2.03-1.29-2.65-2.36-1.35-2.32-1.6-3.14-1.97-6.14-.34.58-.53,2.06-.41,3.2.19,1.69.32,3.38.59,5.05.43,2.69,1.26,5.17,4.06,6.41-.04.1-.08.21-.13.31-.91-.24-1.83-.47-2.74-.71q-.3,1.22.74,2.11c-.28.03-.47.06-.67.08-.15.02-.31.02-.5.04-.64,3.15.14,6.14,1.09,9.05.72,2.2,1.8,4.29,2.69,6.44.75,1.81,1.56,3.6,2.16,5.45.81,2.54-.17,5.03-.42,7.55-.11,1.1-.1,2.21-.08,3.32.02,1.09,0,2.19.2,3.26.37,2.06,1.22,3.94,2.45,5.65.49.69.91,1.43,1.3,2.19.99,1.88.89,3.65-.64,5.24-.21.22-.32.53-.63,1.05-.84-2.54-1.48-4.91-2.4-7.17-.93-2.3-2.13-4.48-3.23-6.75-.1,2.78-.55,5.62,1.12,8.29-.29-.25-.6-.46-.85-.74-.28-.31-.49-.68-.93-1.28.12,1.4.28,2.45,1.03,3.3,1.65,1.85,2.58,3.99,2.79,6.46.04.51.23,1.04.46,1.5,1.04,2.06,1.38,4.19.91,6.48-.23,1.13-.24,2.32-.3,3.48-.02.3.11.62.21.93.67,2.08,2.41,3.16,3.98,4.42-.92-1.9-3.24-2.89-3.4-5.48,2.03,2.12,3.89,4.06,5.75,6,.77.8,1.68,1.21,3.02,1.02-2.71-2.16-5.22-4.26-6.97-7.09-.11-.18-.07-.47-.12-.83,2.18,2.02,4.23,3.92,6.28,5.82.12.13.25.25.37.38.65.65,1.3,1.29,2,1.99-1.09.24-2,.66-2.84.55-.8-.1-1.54-.75-2.33-1.17.71,1.15,1.35,2.23,2.05,3.28.19.28.5.59.8.66,1.07.26,2.16.43,3.42.67-.1-3.59,1.4-6.42,4.45-8.39-.93,1.51-2,2.94-2.26,4.77-.01.1-.06.2-.08.31-.49,2.32-.04,2.96,2.28,3.34,1.09.18,2.17.61,3.26.63,2.3.05,4.53-.36,6.54-1.62.94-.59,1.93-1.19,2.98-1.51,1.24-.38,2.64-.82,3.86-.62,3.5.58,6.87-.09,10.28-.53,2.73-.36,5.49-.49,8.22-.83,1.89-.23,3.77-.59,5.64-.98,2.7-.56,5.4-1.12,8.07-1.81,2.85-.74,5.21-2.41,7.28-4.42.84-.82,1.33-2.02,1.9-3.1.15-.28.06-.73-.02-1.08-.77-3.47-1.53-6.94-2.36-10.39-.14-.56-.57-1.07-.9-1.57-.17-.26-.47-.43-.68-.67-1.55-1.78-3.89-2.01-5.68-.41-2.75,2.47-4.93,5.4-6.56,8.72-.37.74-.7,1.5-.78,2.4.42-.66.84-1.32,1.28-2.01.98,1.34.53,1.91-2.75,3.76,3.85-.39,7.65-1.09,11.48-2.01-.17.14-.33.36-.53.42-2.51.82-5.03,1.65-7.56,2.42-3.25.99-6.46,2.16-9.78,2.83-4.33.88-8.77,1.07-13.13.11-5.41-1.19-10.31-.13-14.81,3.01-.09.06-.19.11-.27.17-.87.73-1.94,1.65-1.49,2.72.27.64,1.64,1.05,2.56,1.17,3.23.41,6.19-.59,9.02-2.04.66-.34,1.31-.73,2.01-.95.61-.19,1.28-.18,2.25-.3-1.01,1.61-2.29,2.32-3.52,2.95-1.74.89-3.58,1.63-5.44,2.2-2,.61-3.99.19-5.88-.7-2.91-1.38-3.43-4.3-.9-6.21,4.01-3.04,8.48-4.78,13.67-3.93,2.56.42,5.14.86,7.72.94,2.42.08,4.85-.3,7.5-.49-.64-.95-.2-1.32.42-1.78,1.48-1.1,2.87-2.33,4.3-3.5-.07-.1-.15-.2-.22-.3-1.18.86-2.35,1.72-3.73,2.72.02-.37.04-.56.05-.75-.65.16-1.3.32-1.96.48.25-.26.51-.52.76-.79,2.77-.74,4.71-2.67,6.38-4.8,2.09-2.67,3.92-5.54,5.87-8.32.11-.16.26-.29.71-.37-.03.56-.06,1.13-.09,1.74,2.76-2.7,4.14-5.84,3.51-9.7-.32-1.97-.73-3.92-1.1-5.89.07.05.31.14.41.31,1,1.76,1.96,3.52,1.88,5.66-.03.84.24,1.68.26,2.53.03,1.15-.05,2.3-.09,3.45-1.43.37-.72,1.99-1.77,2.58l.2.29c1.42-.15,2.84-.29,4.4-.45-.11-.39-.14-.75-.3-1.05-1.33-2.62-1.91-5.36-1.59-8.31.1-.93-.04-1.9-.14-2.84-.03-.28-.27-.57-.48-.78-.92-.88-1.86-1.73-2.81-2.58-.31-.28-.66-.51-.99-.77.09-.13.19-.26.28-.39.66.37,1.32.75,1.98,1.12.04-.06.08-.12.11-.17-1.81-1.66-3.62-3.32-5.43-4.98.09-.12.17-.24.26-.37,1.37.88,2.74,1.76,4.42,2.85-1.11-1.5-2.61-2.2-2.87-3.93,1.62,1.34,3.24,2.68,4.85,4.02.07-.08.15-.16.22-.24-2.37-2.49-5.26-4.51-7.04-7.56,1.66.66,2.7,2.13,4.19,3.06-1.15-1.59-2.31-3.18-3.49-4.81.36-.2.58-.32.77-.43-.6-1.22-1.2-2.43-1.8-3.65l.38-.25c1.79,1.91,3.2,4.14,4.89,6.3.34-1.02,0-1.61-.53-2.3-1.26-1.63-2.39-3.37-3.54-5.08-.25-.37-.36-.84-.37-1.37,1.83,1.5,2.72,3.75,4.56,5.64.37-2.33.51-4.53,1.09-6.61.59-2.1,1.62-4.09,2.45-6.12.15.05.3.1.45.15-.14.58-.18,1.22-.44,1.74-1.49,2.95-2.1,6.1-2.18,9.38-.02.79-.18,1.58-.28,2.37-.44,3.29.77,6.29,1.72,9.31,1.57,4.96,3.4,9.83,4.9,14.8.63,2.1.74,4.37,1,6.57.52,4.39,1.44,8.68,2.75,12.9.6,1.94,1.55,3.6,3.36,4.67.43.26.79.64,1.25,1.02-2.05.26-3.84.52-5.34,1.49-2.12,1.36-4.33,2.04-6.87,2.13-2.37.09-4.75.54-7.06,1.12-5.63,1.42-11.35,2.18-17.12,2.68-1.95.17-3.99.23-5.8.87-3.79,1.34-5.92,4.18-5.61,8.94.01.21.08.41.13.65-2.86-2.13-1.75-6.21,2.57-9.59-2-.83-3.57-.77-5.38.2-.14.08-.27.18-.42.23-2.08.73-3.42,2.15-4.23,4.21-.75,1.9-1.38,3.75-1.06,5.85.16,1.07.03,2.19.03,3.42-1.17-1.09-1.31-1.64-2.09-7.96-.92.68-1.76,1.28-2.59,1.9-.96.72-1.57,2.03-3.1,1.81-.15-.02-.35.22-.51.36-1.53,1.39-3.13,2.71-4.54,4.2-.58.62-.77,1.61-1.13,2.44-.28.66-.54,1.33-.82,2-.12-.01-.25-.03-.37-.04-.06-.43-.24-.89-.15-1.29.41-1.7.83-3.46,2.21-4.67,1.73-1.52,2.05-3.68,2.68-5.66.36-1.14-1.13-3.37-2.4-4-1.29-.65-2.63-1.13-4.13-1.03-.45.03-.92-.06-1.36-.1-.02-.21-.08-.36-.04-.41,1.17-1.26,1.15-1.25.29-2.79-.66-1.19-1.6-2.06-2.67-2.89-1.38-1.07-2.64-2.3-3.86-3.55-1.68-1.72-1.33-3.8-.82-5.84.53-2.11.4-4.13-.89-5.92-.58-.8-1.32-1.51-2.1-2.13-2.18-1.74-3.82-3.82-4.4-6.61-.33-1.59-.61-3.18-.92-4.78-3.05,2.8-4.66,6.39-5.79,10.24-.15.51-.34,1.02-.41,1.54-.32,2.43-1.81,3.77-3.95,4.75-1.57.72-2.95,1.85-4.42,2.78-.78.49-1.57.95-2.49,1.24,1.64-1.67,2.55-4.06,5.12-4.71.8-.2,1.53-.74,2.22-1.22,1.21-.84,1.16-1.5-.1-2.23-.32-.19-.66-.33-1.13-.57-1.99,1.85-3.94,3.86-6.62,4.75-.07-.1-.13-.19-.2-.29.26-.19.5-.42.78-.57,1.66-.92,2.94-2.25,4.14-3.68.63-.76.67-1.34-.09-2.03-.94-.86-1.78-1.83-2.71-2.7-1.11-1.04-1.69-2.28-1.74-3.8-.02-.53-.03-1.09-.23-1.56-1.21-2.84-.16-5.04,2.08-6.69,1.3-.96,1.43-1.9,1.01-3.26-.46-1.49-1.41-2.59-2.5-3.63-2.73-2.61-4.53-5.76-5.23-9.47-.52-2.79-.39-5.61.33-8.37.72-2.74,1.89-5.27,3.31-7.73,1.12-1.94,1.94-4.05,2.84-5.96.2,1.15-.29,2.38-.81,3.57-.65,1.51-1.45,2.96-2.18,4.43-1.71,3.42-2.74,7.03-2.68,10.86.08,4.76,1.88,8.88,5.15,12.33.62.65,1.34,1.21,2.13,1.92-.14-.56-.21-1.09-.42-1.57-.43-.97-.79-2.01-1.42-2.84-2.01-2.65-2.08-5.67-2.1-8.79-.02-3.54,1.62-6.46,3.25-9.36,1.4-2.5,2.91-4.94,3.76-7.71.71-2.33,1.53-4.65.43-7.12.12-.03.24-.05.36-.08.21.62.54,1.22.62,1.86.44,3.66-.59,7.04-2.16,10.29-1.25,2.58-2.68,5.07-3.79,7.7-1.21,2.9-1.27,6.01-.86,9.09.13.96.65,1.9,1.11,2.78,1.21,2.3,2.75,4.51,2.5,7.27-.17,1.88-.31,3.71-1.48,5.45-1.35,2.01-1.86,4.37-.66,6.8.77,1.55,1.41,3.17,2.23,4.74.28-2.92,1.39-5.54,2.41-8.19.87-2.27,2.29-4.12,4.36-5.32,2.19-1.27,3.39-3.31,4.65-5.33,1.28-2.05,1.94-4.3,1.86-6.76.12-.03.25-.05.37-.08.2.59.64,1.21.56,1.76-.64,4.45-1.57,8.76-5.48,11.76-2.15,1.65-3.53,3.94-4.34,6.55-.34,1.12-.67,2.24-.99,3.36-.1.35-.29.78-.18,1.07.36.95.01,1.77-.3,2.62-.53,1.45-.29,1.85,1.44,2.28.44-.81.54-1.66.29-2.56-.19-.66-.47-1.33-.5-2-.03-.77,0-1.63.32-2.3,1.04-2.12,2.53-3.89,4.38-5.39,1.81-1.47,3.58-3.01,5.19-4.69.72-.76,1.02-1.93,1.47-2.93.25-.56.04-1.41,1.17-1.3.23.02.55-.94.83-1.44.48-.85.24-2.03,1.42-2.6.36-.18.35-1.16.48-1.78.52-2.42.31-4.73-.87-6.95-1.39-2.62-3.02-5.11-3.94-7.98-.82-2.57-1.33-5.13-.8-7.82.04-.21.05-.42.06-.63.14-2.13.16-2.23-1.87-2.79-3.18-.88-5.23-2.91-6.46-5.88-.3-.73-.74-1.1-1.5-1.44-2.29-1.03-3.71-2.96-4.57-5.26-.78-2.06-.94-4.24-.88-6.43.04-1.38.08-2.76.21-4.14.32-3.49-.6-6.62-2.66-9.42-.17-.23-.42-.48-.69-.57-2.47-.81-4.23-2.55-5.92-4.41-2.52-2.78-5.08-5.53-7.64-8.27-.92-.98-1.9-1.91-2.68-3.1.35.17.74.28,1.04.51,4.01,2.97,7.9,6.08,10.98,10.08.64.83,1.46,1.52,2.27,2.2,1.4,1.16,2.85,2.26,4.49,3.28-1.08-2.03-2.05-4.13-3.28-6.06-1.59-2.5-3.26-4.98-5.16-7.24-1.56-1.85-3.5-3.38-5.28-5.04-1.54-1.44-3.34-2.43-5.33-3.1-.28-.09-.54-.25-.77-.61.26,0,.54-.06.78,0,2.18.58,4.22,1.39,5.87,3.02.9.89,1.95,1.63,2.96,2.4,2.49,1.91,4,4.63,5.88,7.05,2.43,3.12,4.27,6.55,5.81,10.19.85,2.01,2.31,3.68,4.02,5.08.22.18.44.37.56.74-.53-.16-1.06-.32-1.83-.55.06.57.04.97.14,1.33.47,1.72.34,3.45.25,5.21-.11,2.1.13,4.22.26,6.33.02.28.22.55.43.81.41-4.95,1.6-9.81,1.37-14.8-.08-1.79-.57-3.17-2.2-4.25-2.84-1.88-4.14-4.9-5.15-8.02-.65-2.02-1.21-4.07-1.84-6.1-1.28-4.14-2.89-8.11-6.25-11.1.09-.1.18-.19.27-.29.62.46,1.29.85,1.84,1.38,1.84,1.75,3.13,3.9,4.08,6.21.99,2.4,1.85,4.86,2.64,7.33.75,2.34,1.98,4.32,3.84,5.9.38.32.83.56,1.46.65-.51-1.38-1.07-2.73-1.51-4.13-.62-1.98-1.18-3.97-1.7-5.97-.98-3.81-3.14-6.97-5.67-9.84-1.16-1.32-2.77-2.29-4.31-3.2-1.92-1.14-3.74-2.36-5.46-3.76.06-.1.12-.2.18-.3,1.41.75,2.83,1.5,4.23,2.24,1.42-1.29,2.81-2.57,2.71-4.91-2.6.19-5.14.02-7.5-1.23,1.24.14,2.48.3,3.72.43.63.07,1.27.15,1.9.13,1.93-.07,2.37-.67,1.99-2.57-1.6.25-3.2.59-4.81.71-1.15.08-2.32-.16-3.48-.22-.99-.05-1.99,0-2.98-.09-1.58-.15-3.14-.43-4.72-.58-1.41-.14-2.84-.19-4.26-.24-.24,0-.48.15-.96.3,4.53,1.05,8.33,2.92,11.25,6.42-.17.09-.4.22-.73.41,1.49,1.33,2.96,2.63,4.42,3.93-.06.09-.11.18-.17.27-.51-.16-1.03-.32-1.54-.47,3.21,2.91,6.02,6.14,8.4,9.73-.07.08-.15.16-.22.24-.88-.71-1.8-1.37-2.62-2.14-3.27-3.06-6.74-5.84-10.58-8.15-2.62-1.57-5.42-2.67-8.39-3.35-.18-.04-.35-.16-.55-.25q.59-.66,2.58-.91c-1.58-.97-3.54-.66-4.91-2.08,1.83-.94,3.53-1.28,5.38-.47,1.65.71,3.32,1.38,5.05,1.9-1.67-1.24-3.46-2.25-5.53-2.58-1.61-.26-3.26-.28-4.88-.51-1.38-.19-2.74-.53-4.42-.87.64-.87.99-1.65,1.58-2.09,1.49-1.1,2.98-2.29,4.66-3,3.3-1.39,6.73-2.49,10.11-3.71-.05,1-.97,1.37-1.71,1.74-2.13,1.07-4.33,2.01-6.49,3.01-1.81.84-3.62,1.68-5.43,2.53.05.17.1.35.15.52.5-.1,1.05-.09,1.48-.31,2.85-1.49,5.78-1.57,8.82-.73,2.26.63,4.57.55,6.98.22-.14.31-.23.49-.31.67.08.05.16.14.24.14,2.73.08,5.37-.33,7.98-1.17,2-.64,3-1.85,3.13-3.88v.02c.21-.29.56-.55.62-.87.39-1.93.37-3.82-.57-5.65-1.45.83-2.79,1.59-4.13,2.36-.07-.1-.14-.21-.21-.31.39-.3.77-.61,1.17-.89q1.31-.92.69-2.44c-.06-.14-.15-.28-.26-.47-1.84,1.06-3.68,2.11-5.52,3.17-.07-.1-.13-.2-.2-.29.2-.21.37-.45.6-.62.82-.58,1.66-1.13,2.48-1.71,2.55-1.78,2.67-2.08.85-4.63-1.07-1.5-2.37-2.86-3.65-4.19-1-1.03-3.44-1.04-4.56-.06-1.06.92-1.83,2.01-1.99,3.5-.11,1.04-.37,2.1-.79,3.05-.71,1.6-2.13,2.45-3.73,3.02-1.75.62-3.5,1.23-5.24,1.89-4.43,1.68-7.38,4.83-9.03,9.24-.07.18-.2.33-.42.45-.12-1.28.31-2.42.81-3.53,2.12-4.73,5.85-7.54,10.71-9.04,1.11-.34,2.21-.76,3.28-1.22,1.64-.7,2.8-2.2,3.01-3.75-.09-.02-.23-.1-.26-.06-1.97,1.87-4.42,2.88-6.84,3.98-2.36,1.07-4.72,2.18-6.98,3.45-2.33,1.32-3.99,3.3-4.92,5.85-.44,1.19-.86,2.4-1.3,3.59-.08.23-.24.43-.62.58,0-.4-.11-.84.02-1.2.78-2.25,1.4-4.58,2.47-6.69,1.38-2.72,4.08-4.1,6.71-5.4,2.33-1.15,4.73-2.15,7.07-3.28.95-.46,1.86-1.04,2.7-1.67,1.87-1.4,3.13-3.16,3.03-5.64.19.62.39,1.23.62,1.98,2.03-2.11,4.71-1.99,7.49-2.04-2.37-2.33-4.86-1.95-7.43-1.19-.71.21-.62.75-.68,1.26-.34-.46-1.02-.78-.69-1.54l.12-.1c1.43-.4,2.84-.88,4.29-1.16,1.29-.25,2.63-.45,3.92-.35,1.7.13,2.36,1.83,1.41,3.27.28.2.57.39.97.67-.4.14-.68.23-.77.26,1.38,1.41,2.9,2.8,4.2,4.37.64.77.95,1.86,1.28,2.85.38,1.14.61,2.33.93,3.49.2.71.61,1.4.64,2.12.08,1.71,1.16,2.52,2.51,3.14,2.52,1.16,5.05,2.3,7.59,3.42,2.91,1.29,5.93,2.36,8.71,3.87,2.07,1.13,3.89,2.74,5.69,4.29.63.54,1.04,1.51,1.22,2.36.64,3.06,1.16,6.15,1.69,9.23.09.54.01,1.11.01,1.67-.13.03-.26.06-.39.1-.22-.44-.47-.87-.65-1.32-.73-1.88-1.45-3.77-2.14-5.66-1.58-4.31-4.56-7.17-8.84-8.74-.5-.18-.99-.4-1.51-.51-.42-.08-1.02-.91-1.31.19,0,.02-.51-.02-.73-.14-.56-.3-1.08-.67-1.64-.97-.67-.36-1.12-1.28-2.19-.75-.28.14-.92-.42-1.37-.7-1.36-.82-2.7-1.69-4.08-2.49-.53-.31-1.13-.5-1.67-.73-1.62,2.3-1.56,2.78.13,4.65,2.66,2.94,5.46,5.79,7.82,8.96,1.19,1.59,2.51,3.1,3.62,4.75.07.1.03.28.07.72-5.14-3.42-9.35-7.81-14.74-10.46l-.26.29c.15.23.24.53.45.67,3.44,2.23,6.06,5.29,8.63,8.41.4.49.83.97,1.24,1.45.17.2.49.42.48.61-.16,2.02,1.68,2.71,2.66,3.93.71.88,1.73,1.51,2.73,2.35-.18-1.75-.76-2.56-4.24-6.01,1.06.24,2.05.82,2.94,2,1.05,1.39,2.03,2.85,2.97,4.32,1.95,3.02,4.12,5.81,7.44,7.44,1.19.58,2.39,1.13,3.72,1.77.07-.97-.64-1.43-1.06-2.01-.42-.58-.95-1.08-1.43-1.62.08-.09.15-.18.23-.27.96.78,1.92,1.55,2.87,2.32.05-1.59-.32-2.12-1.88-2.43-4.92-.98-7.75-4.27-9.64-8.62-.03-.07.05-.19.18-.65,2.09,3.26,4.35,6.06,8.26,7.06-1.61-2.93-3.13-5.8-4.76-8.62-1.61-2.79-4.07-4.71-6.82-6.31-1.31-.76-2.56-1.64-3.83-2.46.07-.11.14-.22.21-.34,2.43,1.38,4.85,2.76,7.28,4.14l.2-.26c-1.62-1.38-3.42-2.61-4.81-4.19-1.36-1.55-2.29-3.47-3.27-5.41.37.35.75.71,1.12,1.06.42.4.87.78,1.25,1.22,1.59,1.86,3.54,3.18,5.81,4.07.44.17.95.34,1.26.66,1.38,1.44,3.08,2.42,4.75,3.44.53.33,1.02.8,1.38,1.31,2.02,2.81,3.79,5.76,4.52,9.21.11.52.17,1.05.32,1.56.54,1.87,1.59,2.55,3.65,2.43-.27.14-.54.28-.98.51,1.03.56,1.83,1.05,2.67,1.44,2.4,1.13,3.75,3.04,4.27,5.59.62,3.01,1.24,6.03,1.88,9.04.57,2.68.08,2.24,2.6,2.48,3.48.34,6.97.63,10.47.68,2.37.04,4.75-.58,7.12-.53,3.39.08,6.76.53,10.14.78,3.01.22,5.98.62,9.04.27,2.83-.32,5.73-.07,8.6-.06,5.41.02,10.82.03,16.24.07,1.91.02,3.82.2,5.72.15,1.58-.04,3.18-.18,4.73-.47,2.52-.47,4.87.19,7.18.95,4.18,1.38,8.32,2.89,12.47,4.37,2.25.8,4.59,1.42,6.71,2.48,3.15,1.57,6.52,2.51,9.74,3.87.89.38,1.66,1.05,2.49,1.59.26.17.52.35.78.52l.24-.27c-2.54-2.19-5.09-4.38-7.63-6.58.06-.1.12-.2.18-.3.23.04.5.02.69.13,4.69,2.71,9.26,5.61,13.61,8.86,2.39,1.78,4.29,3.93,5.78,6.49,2.06,3.53,4.2,7.01,6.24,10.55.52.9.75,1.97,1.2,2.92.49,1.05.98,2.11,1.62,3.07,2.78,4.14,5.7,8.19,8.39,12.39,1.55,2.41,2.72,5.05,4.14,7.54,1.14,1.99,2.02,4.06,2.66,6.27,1.42,4.95,2.97,9.86,4.47,14.78,1.15,3.79,1.73,7.67,1.61,11.62-.11,3.5-1.3,6.75-2.65,9.94-2.05,4.86-5.21,8.95-8.64,12.91-2.96,3.43-6.65,5.75-10.63,7.66-4.64,2.23-9.27,4.52-14.27,5.89-4.09,1.12-8.2,2.21-12.48,2.37-3.5.13-7,.19-10.5.33-3.5.15-6.99.37-10.49.54-.9.04-1.82.1-2.71-.01-6.05-.76-12.12-1.33-18.09-2.63-1.69-.37-3.48-.34-5.22-.46-3.49-.23-6.98-.42-10.48-.64-.24-.01-.47-.14-.89-.27.3-.28.46-.44.62-.58-1.07-.35-1.82.12-2.44.95-.29.38-.63.72-.91,1.11-2.58,3.59-6.08,4.72-10.34,3.92-.66-.12-1.36-.11-2.03-.05-2,.19-3.9.06-5.61-1.17-1.46-1.05-2.97-2.04-4.45-3.06-.43-.29-.85-.59-1.27-.89.1-.13.2-.26.3-.39.54.09,1.09.19,1.85.32-1.24-1.09-2.34-2.07-3.61-3.19-.41.36-1.06.94-1.71,1.51.03.1.07.21.1.31h1.67c.06.13.12.25.19.38-.66.53-1.26,1.19-2,1.58-1.11.58-1.56,1.49-1.86,2.61-.23.89-.57,1.76-.89,2.69.33.06.76.15,1.34.26-.18.39-.28.66-.43.91-1.08,1.83-2.23,3.61-3.23,5.48-.36.67-.44,1.52-.51,2.29-.1,1-.05,2,1.63,1.92-.88,1.06,0,1.56.4,2.33-1.05-.89-1.8-.27-2.63.27-2.21,1.45-4.47,2.82-6.96,4.03.6-1.1,1.2-2.19,1.92-3.5-1.18.83-2.18,1.54-3.19,2.25.43-2.12,2.08-3.2,3.39-4.57-1.37.73-2.98,1.2-3.71,2.68-.7,1.42-1.08,3-1.74,4.44-.76,1.67.49,3.01.71,4.5-1.93.78-3.19-.17-4.41-1.27-.05-.05-.09-.09-.14-.14-1.32-1.25-2.64-2.5-3.96-3.75,2.84.59,4.56,3,7.36,4.08-.29-.62-.46-1.03-.67-1.43-.73-1.4-1.41-2.83-2.21-4.19-.6-1.02-1.36-1.95-1.98-2.81.87,0,1.32.29,2.12,1.72.54.96,1.01,1.97,1.65,3.22.65-1.8,1.22-3.35,1.76-4.91.08-.22-.06-.51-.05-.77.04-1.2-.07-2.44.2-3.59.32-1.37.31-2.55-.45-3.79-.54-.88-.79-1.93-1.21-2.89-.16-.38-.34-.82-.64-1.05-1.99-1.51-4.08-2.85-6.6-3.3-.01-.14-.03-.27-.04-.41,3.29.49,6.12,2.03,8.74,3.96,1.94,1.43,5.83,1.82,7.93.68.3-.16.65-.23.97-.35.09.08.17.16.26.25-.34.53-.67,1.06-1.01,1.59.06.06.12.11.17.17.96-.99,1.94-1.98,2.88-3,.15-.17.2-.49.19-.73-.07-1.18-.18-2.35-.27-3.6-.26.07-.69.2-1.15.34-.17-.35-.33-.65-.51-1.02-.55.35-1.03.65-1.51.95-.69-1.41-.34-1.98,2.19-3.58-.05-.52-.11-1.09-.17-1.77-.45-.04-.88-.08-1.32-.12.18-1.12,1.04-1.54,1.88-.91.63.47,1.23.98,2.06,1.63-.24-1.51-.66-2.64-1.85-3.76,1.9.41,2.25,2,3.19,2.95,1.19-.67,2.35-1.32,3.58-2.01-.27-.04-.53-.09-.8-.13.41-2.27,2.9-2.95,3.84-4.78-.09-.09-.17-.18-.26-.27-.64.42-1.28.84-2.15,1.42.16-.62.26-1,.43-1.69-.98.7-1.72,1.23-2.47,1.77l-.28-.24c.5-.62.96-1.27,1.51-1.84.54-.55,1.17-1.02,1.67-1.59-3.34.99-4.21,3.56-4.06,6.76l-.34-.03c-.22-1.04-.58-2.08-.61-3.12-.05-1.63.55-3.05,2.2-3.71,1.17-.47,2.39-.83,3.59-1.22.54-.18,1.1-.31,1.64-.69-1.05-.11-2.11-.13-3.14-.34-1.24-.26-2.46-.66-3.68-1.02-.54-.16-.91-.06-1.41.32-1.04.79-2.24,1.39-3.39,2.03-.54.3-1.25.39-1.19,1.27.01.17-.18.38-.32.53-1.56,1.72-3.56,2.47-5.89,2.55.84-.54,1.71-1.03,2.51-1.62.83-.61,1.87-.97,2.23-2.14.11-.36.73-.57,1.12-.84,1.21-.84,2.42-1.68,3.73-2.59-1.25-1.37-3.51-.77-4.48-2.54,2.04-.38,3.37,1.45,5.36,1.22-.3-.37-.48-.59-.81-1,.68,0,1.21-.08,1.71.02,1.66.33,3.29.76,4.95,1.06.56.1,1.33.33,1.6-.57l-.02.02ZM252.22,235.25c0,.15.01.3.02.44.25.05.51.06.76.14,2.02.62,4.12,1.07,6.04,1.93,2.09.95,3.92,2.4,4.91,4.57.43.94.95,1.17,1.93,1.19,2.97.04,5.96.03,8.9.38,5.8.7,11.6,1.25,17.44,1.17,2.44-.03,4.87-.14,7.31-.22,2.06-.07,4.11-.13,6.17-.26,1.58-.1,3.16-.34,4.74-.43,2.97-.16,6,.08,8.89-.45,5.51-1.02,11.18-1.36,16.5-3.36,1.25-.47,2.5-.95,3.71-1.5,1.23-.56,2.41-1.22,3.61-1.85.42-.22.83-.48,1.22-.75,2.05-1.42,4.11-2.82,6.13-4.29,2.73-1.98,3.83-5.05,5.06-7.96,1.62-3.84,2.72-7.83,2.4-12.06-.25-3.24-1.82-6.07-2.98-9.03-.04-.11-.47-.07-.76-.1,0-.52.21-1.55-.04-1.67-.93-.46-.55-1.23-.73-1.87-.36-1.25-.73-2.5-1.13-3.87-.33.23-.53.32-.65.47-1.48,1.93-3.39,3.39-5.47,4.56-3.56,2-7.2,3.87-10.82,5.75-2.48,1.29-5.18,2.02-7.93,2.2-4.44.29-8.91.28-13.36.39-.36,0-.76-.05-1.08-.2-2.58-1.17-5.09-.55-7.6.24-.24.08-.56.39-.59.63-.15,1.31-.52,2.7-.27,3.94.53,2.57.83,5.25,2.6,7.42,1.13,1.38,1.02,2.94.24,4.49-1.12,2.22-2.79,3.9-5.13,4.76-2.39.88-4.82,1.61-7.24,2.39-3.38,1.09-6.73,2.24-10.3,2.63-2.84.31-5.65.82-8.54.5-2.58-.28-5.18-.53-7.77-.55-4.14-.03-8.28.14-12.43.21-1.25.02-2.5,0-3.75,0ZM193.74,144.87c.73-1.61.65-1.76.2-2.99-.59-1.63-1.14-3.3-1.48-5-.77-3.8-.49-7.69-.89-11.55-.65-6.26-3.22-11.22-8.01-15.15-.1-.08-.27-.08-.74-.2.53.79.86,1.37,1.28,1.87,2.3,2.69,2.47,5.89,2.22,9.17-.23,2.96-.69,5.9-.82,8.85-.08,1.67.06,3.43.53,5.02.61,2.07,1.59,4.04,2.51,6,1.02,2.17,2.89,3.3,5.21,3.99ZM207.68,160c.11-.05.22-.11.33-.16-.17-.66-.33-1.32-.5-1.98-.59-2.3-.73-4.6-.03-6.91.32-1.06.56-2.16.86-3.23.78-2.78,1.06-5.62.98-8.5-.04-1.3-.37-2.45-1.44-3.21-1.35-.96-2.78-1.8-4.47-2.87.56,1.12,1.09,1.87,1.34,2.71.9,3.02,1.53,6.13,1.04,9.26-.52,3.34-.36,6.65-.29,9.99.04,1.98,1.04,3.47,2.19,4.91ZM263.3,243.62c-.13-1.2-.69-2.19-1.53-3.03-1.96-1.97-4.51-2.42-7.1-2.77-.78-.11-1.62.03-2.37-.17-1.91-.51-3.8-.51-5.52-.05,2.84.73,6.06.77,8.9,2.71-.45.28-.68.42-.98.61,1.13.61,2.15,1.17,3.18,1.72-.04.11-.08.21-.13.32-.45-.09-.9-.14-1.34-.28-.49-.15-.96-.37-1.48-.57-.16,1.47-1.36.04-1.8.71,1.74,2.06,5.39,2.02,10.17.8ZM226.36,221.55c-4.04,1.37-7.74,1.27-11.2-1.52,0,.31-.03.61,0,.92.2,1.63,3.51,5.18,5.09,5.43.27.04.59-.11.85-.24,1.11-.59,2.22-1.19,3.32-1.82.35-.2.71-.46.92-.79.39-.62.68-1.31,1.01-1.97ZM204.5,105.93c-.38.82-.17,1.49.28,2.21.75,1.21,1.51,2.44,2.07,3.75,1.12,2.63,2.1,5.32,3.16,7.97.52,1.29.72,1.35,2.14,1.03-.42-.78-.97-1.52-1.24-2.36-.56-1.78-1.25-3.48-2.41-4.96-.41-.53-.65-1.16-.2-1.97.23.26.35.42.49.55.1.09.22.15.51.35-1.08-2.43-3.49-5.69-4.8-6.57ZM251.23,247.57c-3.81-2.14-7.6-4.3-12.19-2.7,3.97,1.36,7.93,2.75,12.19,2.7ZM273.48,190c-.06-4.31-.74-8.42-3.59-11.85.55,4.15,1.12,8.29,3.59,11.85ZM195.28,184c-2.09,3.23.52,11.06,4.13,12.93-.35-1.9-1.27-3.44-2.48-4.76-1.24-1.36-1.57-2.97-1.64-4.68-.05-1.16,0-2.32,0-3.48ZM212.94,167.55c.08-.05.16-.1.24-.15-.7-1.08-1.17-2.69-2.16-3.11-1.75-.75-2.93-2-4.21-3.22-.47-.45-.87-.99-1.3-1.48l-.25.21c.91,1.13,1.72,2.36,2.74,3.37,1.56,1.54,3.28,2.93,4.93,4.38ZM180.18,126.3c.12,3.02.35,6.02,2.48,8.43-.53-2.47-1.07-4.95-1.59-7.38-.07.1-.17.26-.36.53-.21-.61-.37-1.1-.53-1.58ZM209.91,128.01c-.2-1.47-.4-2.61-.51-3.76-.09-.99-.53-1.41-1.64-1.24.16,1.83.79,3.37,2.15,4.99ZM334.49,202.28c-1.77.2-3.29,1.37-4.15,3.12,2.06-.11,3.06-1.58,4.15-3.12ZM336.29,246.3q-2.6.75-2.26,2.13c2.37-.26,2.66-.52,2.26-2.13ZM247.42,250.38c-2.34-.31-3.48-2.87-5.86-3.06,1.83,1.27,3.52,2.79,5.86,3.06ZM340.66,200.07c1.93-.55,2.8-2,3.13-3.88-1.04,1.29-2.09,2.59-3.13,3.88ZM332.85,247.32c-.98.34-1.63.52-2.22.79-.16.07-.26.43-.26.65,0,.14.27.41.39.39.56-.05,1.18-.07,1.64-.34.26-.15.25-.76.46-1.51ZM331.03,202.74c-.06-.08-.12-.16-.19-.25-1.58,1.23-3.16,2.46-4.74,3.69,2.23-.37,3.42-2.12,4.93-3.45ZM254.64,234.22c-2.05-1.12-3.53.16-5.18.39l.05.31c1.66-.23,3.31-.46,5.13-.71ZM335.58,203.29c1.76-.27,2.38-1.57,3.03-2.85-.08-.07-.16-.15-.24-.22-.93,1.02-1.85,2.05-2.78,3.07ZM256.03,229.76c-.12-.08-.25-.16-.37-.25-.54.69-1.11,1.37-1.6,2.09-.13.19-.02.53-.02.8.27-.05.71-.01.8-.17.45-.8.81-1.64,1.2-2.47ZM222.39,259.59c-.1.1-.2.19-.3.29.2.57.39,1.14.71,2.07.52-.78.81-1.22,1.21-1.81-.69-.23-1.16-.39-1.62-.54ZM223.77,265.13c-.79.31-1.43.56-2.06.83-.12.05-.24.18-.28.3-.21.65-.39,1.31-.61,2.07,1.06-1.16,1.99-2.16,2.95-3.2ZM347.08,193.98c-.09-.07-.18-.14-.27-.21-.61,1.13-1.22,2.26-1.98,3.68,1.72-.86,1.66-2.35,2.25-3.47Z"/>
      <path class="cls-1" d="M86.57,183.56c-2.89-.89-4.08-3.79-2.6-6.49,1.38-2.52,2.98-4.91,5.17-6.83.64-.56.68-1.06.52-1.89-.77-4.04-2.99-7.09-6.22-9.47-2.54-1.88-3.7-4.31-3.68-7.5.01-2.02.45-3.86,1.37-5.8-1.8,1.29-2.58,2.95-4.29,8.34-.04-.39-.17-.81-.11-1.18.63-3.47,1.48-6.84,4.08-9.49,1.71-1.75,2.65-3.88,2.14-6.38-.3-1.45-.85-2.84-1.23-4.27-.46-1.76-1.14-3.36-2.47-4.69-.91-.91-1.32-2.13-1.4-3.47-.06-.94-.3-1.9-.65-2.78-.77-1.94-.63-3.83-.06-5.77,1.36-4.58,4.68-7.11,8.87-8.93,2.71-1.18,5.33-2.6,7.9-4.08.89-.51,1.49-1.52,2.23-2.31l-.28-.29c-1.49,1.13-3.04,2.19-4.47,3.39-1.88,1.58-6.08,2.31-8.26,1.06.54,0,1.07-.03,1.61,0,1.38.08,2.6-.32,3.76-1.05.46-.29.91-1.18,1.67-.36.03.03.28-.11.4-.2.82-.67,1.68-1.3,2.44-2.03.45-.43,1.04-.84.71-1.73-.12-.31.33-.85.54-1.27.9-1.78,1.81-3.55,2.49-5.45-1.11,1.57-2.22,3.13-3.32,4.7-.12-.06-.24-.13-.36-.19,1.31-2.63,2.61-5.25,4.07-8.18-1.22.76-2.18,1.26-3.02,1.92-.37.29-.57.87-.7,1.36-.86,3.2-2.27,6.08-4.77,8.31-1.45,1.3-3.01,2.45-4.81,2.88,1.64-1.71,3.35-3.47,5.04-5.25.27-.29.42-.7.7-1.18-1.88-.55-3.94-.29-5.51-2.01,2.44-.18,3.94-1.65,5.38-3.21,1.4-1.51,2.58-3.15,3.2-5.46-.85.25-1.38.41-2.01.6,1.74-2.13,3.44-4.12,5.04-6.18,1.63-2.09,4.1-3.11,6.35-4.91-4.86-.1-7.9-2.62-9.98-6.4-.67-1.22-1.17-2.7-.36-4.35,2.19,6.54,6.8,10.25,12.2,9.75-.93-.24-1.87-.48-2.8-.72.01-.12.03-.24.04-.36,2.54.21,5.1-.31,7.64.34.51.13,1.03.3,1.47.58.27.17.39.58.71,1.12.12-.2.32-.53.54-.91-1.45-1.38-3.23-2.14-5.15-2.64-1.95-.51-3.96-.87-5.82-1.6-2.98-1.16-4.98-3.37-5.87-6.48-.15-.53-.14-1.11-.1-1.71,1.62,4.59,5.2,6.61,9.59,7.65,2.35.56,4.83.77,6.87,2.28.69.51,1.35.94,1.51,1.96.08.51.17.85-.15,1.25-.72.92-1.47,1.82-2.13,2.78-.53.78-.93,1.66-1.43,2.45-.3.47-.79.82-1.04,1.31-1.16,2.31-2.53,4.57-1.93,7.45-.97-.38-1.18-1.16-1.36-2-2.29,4.17-1.09,8.65-1.3,13.01-1.24-2.01-1.15-4.3-1.53-6.76-1.03,3.36.55,5.86,1.83,8.54-1.26-.1-1.75-1.12-2.51-2.33-.07,1.81-.3,3.21.59,4.58.38.59.51,1.4.58,2.12.16,1.69.22,3.38.31,5.07.13,2.33.25,4.65.38,6.98.01.19.11.38.27.92.36-1.26.6-2.2.91-3.12.3-.9.64-1.8,1.01-2.68.29-.69.77-1.06,1.64-.33-.77,1.45-.22,3.28-1,4.94-1.02,2.17-1.18,4.55-.87,6.87.24,1.81.84,3.58,2.47,4.8,1.22.91,2.24,2.06,3.88,2.38,1.46.28,2.73-.09,4.01-.62.34-.14.64-.38.97-.55,2.36-1.27,2.74-2.12,2.14-4.8-.1-.47-.32-.91-.4-1.38-.33-1.98-1.43-3.05-3.45-3.4-1.19-.2-2.36-.68-3.44-1.23-2.18-1.11-4.25-4.69-1.64-7.78-.18,1.09-.4,1.97-.45,2.87-.08,1.36.05,1.35,1.37,1.3,3.53-.15,7.07-.21,10.6-.31.1,0,.24.09.31.04,1.33-.92,2.69-.32,4.05-.14.34.04.78-.27,1.1-.51.81-.59,1.58-1.24,2.67-1.77-.08.37-.02.87-.25,1.09-.99.94-2.02,1.86-3.11,2.68-.76.56-1.64.98-2.49,1.4-2.35,1.18-3.02,3.24-3.08,5.66,0,.37,0,.74,0,1.12.05,3.79.5,3.82,3.56,4.62,3.1.82,6.28,1.37,9.56,1.34,2.33-.02,4.2-.79,5.83-2.35.56-.54,1.09-1.1,1.63-1.66.11.06.21.13.32.19-.09.29-.09.65-.28.85-1.73,1.83-3.72,3.33-6.09,4.23-.63.24-1.35.38-2.02.33-3.64-.25-7.31-.16-10.86-1.24-.66-.2-1.52-.13-2.18.11-2.01.76-4.07,1.18-6.2,1.28-1.12.06-2.01.37-2.75,1.39-.83,1.13-1.97,2.03-2.97,3.03.09.1.18.19.26.29.55-.51,1.06-1.06,1.65-1.51.24-.18.63-.16.96-.24-.04.33-.03.67-.13.98-.11.34-.33.64-.51.96-.13.13-.27.26-.4.39-2.77,3.09-4.47,6.67-5.01,10.79-.07.57.12,1.16-.57,1.61-.24.15-.05,1,0,1.53.37,4.69-1.06,8.76-4.14,12.28-.25.29-.62.49-1.01.66,1.6-2.61,2.76-5.37,3.45-8.32.13-.54.12-1.14.04-1.7-.5-3.38-.61-6.78-.1-10.15.38-2.55.97-5.06,1.49-7.72-1.2,1.3-1.82,2.82-2.33,4.39-.93,2.89-1.04,5.86-.53,8.8.53,3.12-.08,5.9-1.82,8.48-1.44,2.13-2.73,4.33-3.16,6.89-.19,1.11-.16,2.33.08,3.43.39,1.7,1.04,3.34,1.6,5,.08.24.26.44.49.81.39-1.45.74-2.72,1.08-3.99.7-2.56,2.3-4.65,3.62-6.88,1.87-3.14,3.31-6.4,3.37-10.15.11,0,.22-.02.33-.03.12.58.32,1.16.35,1.75.15,2.96-.84,5.64-2.08,8.25-1.12,2.35-2.36,4.64-3.41,7.01-2.22,5.01-1.18,9.64,1.82,13.99.16.23.55.3.99.52.16.4.34,1.11.71,1.71,1.25,2.02,2.57,3.99,3.87,5.99.49-1.76.47-3.68.1-5.53-.33-1.65-.92-3.27-1.58-4.82-1.32-3.12-2.24-6.31-2.05-9.73.07-1.28.18-2.58,1.09-3.69-.9,6.03.87,11.4,4.05,16.46-.19-1.06-.34-2.13-.57-3.18-.67-3-1.42-5.99-2.04-9-.69-3.34-.36-6.7.51-9.93,1.11-4.14,2.58-8.18,3.87-12.28.38-1.21.74-2.44.97-3.69.17-.91-.11-1.93.18-2.79.5-1.5,1.27-2.91,1.95-4.34.1-.2.38-.3.63-.5.68,1.26-1.34,2.27-.12,3.47.48-.71.95-1.41,1.42-2.11.14.05.28.1.42.15-.02,2.21-.57,4.39-.5,6.65.58-2.32,1.15-4.63,1.73-6.95.64,1.67.08,3.36.52,5.12.77-1.59,1.54-3.18,2.31-4.77.06.01.12.03.18.04-.04.71-.07,1.42-.13,2.48.58-1.1,1-1.9,1.43-2.71.12.04.23.07.35.11-.24,1.25-.48,2.5-.73,3.74.1.03.21.06.31.09.42-.76.84-1.52,1.26-2.28.09.03.18.06.28.09v2.83c.48.04.86.26,1.06-.59.32-1.3.89-2.54,1.55-3.76.04.52.07,1.03.13,1.88.17-.66.27-1.03.41-1.56.19.24.34.33.35.44.03.39.01.78.14,1.18.92-1,.61-2.35,1.06-3.61.81,1.76,0,3.49.3,5.52.86-2.28,1.61-4.28,2.4-6.4,1.11.74,1.14,1.68.91,2.6-.43,1.69-.87,3.4-1.5,5.02-1.25,3.16-2.76,6.18-4.79,8.95-3.11,4.25-4.81,9.04-4.79,14.35,0,1.92.49,3.76,1.24,5.55,1.35,3.23,1.87,6.53.53,9.91-.78,1.98-1.87,3.74-3.62,5.02.75-1.3,1.53-2.59,2.24-3.92,1.31-2.47,1.4-5.08.71-7.73-.37-1.44-.76-2.88-1.23-4.28-.96-2.86-1.48-5.75-.96-8.76.08-.46.08-.94.12-1.49-1.03.87-1.83,2.55-1.84,4.35,0,2.06.14,4.12.33,6.17.24,2.58.73,5.14.85,7.72.08,1.72-.21,3.48-.46,5.2-.11.74-.53,1.44-.97,2.09.07-2.02.26-4.05.18-6.07-.08-2-.42-3.98-.64-5.97-.11,0-.22,0-.33.01v2.38c-1.01-1.03-1.16-2.26-1.25-3.5-.06-.85.02-1.7-.02-2.55-.02-.46-.05-1.01-.3-1.37-1.8-2.63-1.48-5.46-.8-8.29.53-2.2,1.25-4.36,1.93-6.72-.71.61-1.35,1.15-2.25,1.93.13-.64.19-.9.25-1.17-.1.03-.24.02-.27.08-1.38,2.36-3.22,4.54-3.55,7.37-.34,2.95-.49,5.92-.73,8.88-.02.29-.07.58-.15,1.26-.43-.84-.68-1.32-1.04-2-.19,1.91.31,3.51.75,5.11.61,2.25,1.36,4.47,1.86,6.74.32,1.47.32,3.02.45,4.42.02-.02.17-.2.34-.38.36.79.36.79-.32,3.37-.31,1.17-.58,2.35-.71,3.63.11-.13.26-.24.32-.38,1.32-3.32,2.32-6.71,2.31-10.34,0-2.48-.64-4.82-1.47-7.13-.18-.49-.24-1.02-.16-1.58,1.52,2.38,2.59,4.93,2.88,7.72.4,3.84-.11,7.53-2.16,10.9-.33.54-.73,1.04-1.09,1.56-.49.72-1.34,1.43-1.39,2.18-.18,2.57-.38,4.7.73,5.97,1.28-1.14.25-2.95,1.39-4.5.14.78.31,1.24.28,1.69-.11,1.57.22,2.04,2.07,2.48-.36-1.44.44-2.44,1.1-3.56.52-.89.63-2.01.98-3.02.19-.56.49-1.09.87-1.58,0,2.45-1.84,4.87.19,7.47.23-1.2.43-2.22.65-3.42,1.35.68,2.07,1.38,1.69,2.79.14,0,.28-.02.42-.03.1-.44.32-.9.27-1.32-.17-1.42-.41-2.83-.68-4.24-.56-2.96-.25-5.76,1.07-8.51,1.21-2.52,3.04-4.58,4.59-6.86,1.91-2.8,3.57-5.77,5.23-8.73,1.09-1.94,2.14-3.92,2.44-6.18.1-.72.2-1.45.4-2.15.35,2.54-.02,5-1.05,7.33-1.39,3.16-2.92,6.25-4.32,9.4-1.33,2.98-1.15,5.87.98,8.64,0-.52-.03-1.05,0-1.57.08-1.04,0-2.14.33-3.1.76-2.2,1.72-4.34,2.6-6.5,1.06-2.6,2.19-5.18,3.17-7.81.42-1.12.53-2.35.84-3.85.39,2.16.04,3.94-.53,5.67-1.05,3.17-2.18,6.32-3.28,9.48-.03.1-.07.2-.11.3-1.57,3.46-1.43,7-.54,10.59.14.57.31,1.13.37,1.71.06.69.23,1.46-.88,1.63-.24.04-.39.71-.72,1.37.6-.16.9-.2,1.16-.32,1.96-.94,3.93-1.86,5.86-2.85,2.52-1.29,2.5-1.32,2.21-4.35-.61,1.1-.57,2.47-2.03,3.29.04-.7.03-1.14.09-1.56.28-2.1.07-4.13-.77-6.09-.25-.57-.39-1.11-1.2-1.29-.35-.07-.76-.92-.74-1.4.04-1.21.13-2.47.52-3.6.88-2.55,1.96-5.03,2.97-7.53.03-.07.17-.09.46-.23-.13.62-.21,1.11-.33,1.59-.6,2.26-1.25,4.5-1.82,6.76-.4,1.58.93,4.65,2.54,5.65-.34-.87-.59-1.58-.89-2.27-1.21-2.78-.57-5.39.69-7.96.33-.67.81-1.29.98-1.99.16-.68.29-1.61-.05-2.12-1.81-2.76-1.72-5.65-1.15-8.73.58-3.14,1.79-5.94,3.41-8.67.77-1.3,1.06-3,1.2-4.55.44-4.94-.62-9.7-2.05-14.4-.2-.66-.33-1.34-.49-2.01-.21-.89-.65-1.62-1.69-2.38.23.72.36,1.1.47,1.5.86,3.17,1.83,6.31,2.56,9.51,1.02,4.47-.04,8.65-2.21,12.57-.71,1.29-1.69,2.44-2.47,3.7-.35.56-.56,1.23-.7,1.89-.11.55-.02,1.13-.02,1.7-.14,0-.29-.01-.43-.02.12-1.79.23-3.58.35-5.37-.05,0-.11-.02-.16-.03-.7,1.53-1.36,3.08-2.1,4.59-1.31,2.66-2.78,5.24-3.99,7.94-.91,2.02-1.53,4.16-2.35,6.44-.06-.47-.19-.84-.15-1.2.3-3,1.53-5.72,2.61-8.49,1.78-4.54,4.07-8.87,5.31-13.63.8-3.1,1.35-6.22,1.44-9.41.02-.63-.06-1.29-.26-1.88-.12-.35-.57-.6-.93-.95-.4,1.09-.85,2.23-.66,3.51.69,4.69-.29,9.05-2.44,13.22-1.73,3.35-3.4,6.73-5.12,10.08-1.39,2.71-2.48,5.52-3.01,8.52-.07.4-.22.79-.39,1.37-.72-1.37-.57-2.62-.37-3.87.61-3.71,2.14-7.1,3.7-10.48,1.45-3.13,3.01-6.21,4.41-9.37,1.19-2.69,1.72-5.55,1.43-8.57-.28.61-.54,1.23-.84,1.83-.65,1.32-1.43,2.51-2.38,3.68-1.32,1.62-2.24,3.58-3.21,5.45-2.06,3.93-4.04,7.91-6.28,11.83.01-.32-.01-.64.05-.95.74-3.81,2.54-7.19,4.21-10.62,1.81-3.72,3.74-7.39,5.37-11.19.76-1.77.95-3.78,1.4-5.68.13-.57.1-1.24.42-1.67.21-.29-.27-1.3.74-.9v-1.4c.27-.1.58-.21,1.02-.38.07.36.16.78.25,1.23.17-.07.32-.11.32-.15,0-1.03.06-2,1.19-2.5.19-.09.34-.38.41-.62.39-1.24.38-1.24,1.71-.77v-1.94c.82.17,1.56.78,2.13-.58.44-1.05,1.69-1.78,2.6-2.62.17-.16.46-.19.69-.28.08.08.16.17.24.25-.83.95-1.67,1.89-2.58,2.93.4.34.74.63,1.13.96.26-.46.48-.85.77-1.37.8.94.69,1.91.81,3.07-.7-.37-1.21-.64-1.71-.9-.15,6.19,3.04,11.76,2.95,18.05.27-.26.6-.47.78-.78,1.42-2.45,1.83-5.09,1.21-7.84-.59-2.63-.99-5.32-2.39-7.72-.42-.72-.41-1.67-.47-2.55,2.38,3.68,4.27,7.54,4.85,11.89.14,1.02-.09,2.1-.22,3.14-.06.51-.28,1-.5,1.75,1.37-.58,2.15-1.47,2.69-2.51,1.45-2.77,1.53-5.69.65-8.65-.26-.86-.41-1.9-.99-2.5-2.62-2.73-1.63-6.28-2.26-9.44-.18-.88.42-1.94.76-2.88.43-1.19,1.14-2.31,1.39-3.53.64-3.16,2.57-5.54,4.44-7.98.65-.86,1.22-1.78,2.03-2.64-.11,1-.21,2-.32,3,.06.02.12.04.19.07.24-.74.51-1.48.72-2.23.23-.82.45-1.64.61-2.47.16-.83.24-1.67.37-2.6.34.02.67.04,1.03.06-.47-2.09-1.11-3.97-3.09-4.89.03-.23.02-.3.05-.32.18-.1.36-.2.68-.37-.38-.61-.75-1.21-1.27-2.06,1.16.45,1.89,1.06,2.5,1.84,2.32,2.95,4.65,5.9,6.98,8.85,1.86,2.37,3.06,5.08,4.06,7.89.22.62.21,1.36.16,2.03-.36,4.51-1.83,8.7-3.77,12.75-1.1,2.3-2.22,4.6-1.98,7.08.71-1.33,1.48-2.79,2.26-4.24.14.05.28.11.42.16-1.79,3.38-2.41,6.97-1.87,10.75-.11.03-.21.07-.32.1-.23-.29-.55-.55-.69-.89-.84-2.03-1.34-4.12-1.15-6.36.07-.81.03-1.73-.27-2.46-.86-2.05-1.84-4.05-2.87-6.02-1.07-2.06-2.26-4.07-3.51-6.09.27.7.49,1.42.82,2.09.86,1.76,1.75,3.52,2.67,5.26,1.57,2.95,2.42,6.12,2.8,9.41.48,4.18-.86,7.86-3.35,11.17-.48.64-.95,1.3-1.52,1.84-.94.89-1.97,1.7-3.08,2.43.8-1.63,1.65-3.25,2.41-4.91,1.86-4.1,2.16-8.39,1.44-12.78-.11-.66-.42-1.28-.63-1.92.04-.55.23-1.14.09-1.64-.51-1.82-1.12-3.61-1.7-5.41.77,1.48,1.68,2.91,2.28,4.46,1.25,3.22,1.66,6.65,2.12,10.07.08-2.31.11-4.63-.16-6.91-.38-3.19-1.64-6.13-3.05-9-1.15-2.34-2.15-4.73-2.64-7.3-.84,1.47-.82,3.02-.44,4.61-.27-.29-.54-.59-.84-.92-.13.65-.26,1.22-.35,1.79-.24,1.56.14,2.08,1.76,2.28-.35.38-.64.7-.98,1.07.58.98,1.15,1.93,1.69,2.9.75,1.33,1.48,2.67,2.22,4.01-.36-.37-.79-.7-1.07-1.12-1.26-1.9-2.46-3.84-3.72-5.74-.43-.65-.99-1.22-1.62-1.98-.51.99-.68,1.78-.39,2.69.86,2.73,1.6,5.49,2.55,8.19,1.66,4.73-.32,10.35-4.68,12.8-.73.41-1.18.93-1.58,1.67-1.05,1.9-2.2,3.75-3.37,5.58-1.68,2.62-2.91,5.4-3.42,8.5-.63,3.83.12,6.73,2.7,9.91-.12-3.21.63-6.23,2.07-9.01,2.34-4.52,4.81-8.97,7.32-13.4.86-1.52,1.28-3.12,1.64-4.78.09-.39.22-.77.5-1.12.17,1.51.02,2.98-.61,4.35-.93,2.02-1.86,4.05-2.95,5.99-1.62,2.89-2.36,5.88-1.52,9.04.23-1,.46-2.12.76-3.22.29-1.07.94-1.89,1.94-2.41.88-.46,1.6-.13,1.65.82.13,2.43.24,4.87.28,7.3.01.64-.24,1.28-.59,1.92-1.62-1.69-1.1-3.86-1.56-5.81-.13,1.88-.26,3.77-.39,5.65-2.14-.3-2.96-1.55-3.9-5.96-2.16,3.05-3.54,9.48-2.53,11.96,1.69-1.94,2.63-4.18,3.09-6.66.31,2.17-.22,4.16-1.03,6.13-.3.72-.41,1.51-.68,2.24-.11.3-.45.51-.59.81-1.38,2.85-2.46,5.76-1.81,9.03.45,2.26,1.8,3.65,4.1,4.44-.24-1.77.08-3.35.81-4.86l-.02-.02c.22,1.49.44,2.99.65,4.48.13.02.25.04.38.06.46-1.02.92-2.04,1.39-3.05.32,1.79-.06,3.4-.81,4.92-.66,1.33-1.37,2.63-2.13,3.91-.25.42-.66.81-1.1,1.03-.93.48-1.92.88-2.46-.55-1.97-1.05-2.97-2.82-3.72-4.92-.07.36-.05.77-.22,1.06-.37.61-.73,1.35-1.3,1.68-2.29,1.34-4.65,2.54-6.99,3.78-.23.12-.46.29-.71.35-3.2.76-5.59,2.91-8.28,4.6-1.86,1.17-4.02,1.86-6.04,2.79-.75.35-1.79.12-2.24,1.15-.07.16-.69.13-1.05.12-3.82-.12-7.57.66-11.08,1.88-2.84.99-5.38,2.91-7.95,4.59-2.48,1.62-4.78,3.53-7.25,5.17-1.03.68-2.31,1.01-3.49,1.47-1.47.57-2.95,1.11-4.42,1.67.04.15.08.3.12.45,1.03-.24,2.05-.47,3.08-.71-.59,1.08-1.58,1.28-2.49,1.59-1.76.59-3.51,1.22-5.31,1.66-4.13,1.01-7.03,3.6-9.31,7.01-.67,1-1.15,2.12-1.82,3.13-.41.62-1,1.12-1.53,1.7-.6-.94-.47-1.98-.1-3,2.11-5.81,5.91-9.99,11.8-12.13.45-.16.9-.34,1.3-.58,2.2-1.28,4.39-2.57,6.58-3.87.26-.15.5-.35.67-.83-.96.12-1.95.12-2.88.38-3.5.95-6.82,2.32-9.93,4.22-2.75,1.68-5.78,2.62-8.98,3.07-2.46.35-4.9.91-7.37,1.14-2.36.22-4.71.82-7.12.26-.73-.17-1.57.09-2.36.18-3.02.37-6.03.83-9.06,1.1-1.35.12-2.81.17-4.07-.24-1.86-.6-3.6-.08-5.42.08.42.14.83.27,1.25.41-.01.1-.03.19-.04.29-.75-.09-1.51-.16-2.26-.26-.61-.08-1.25-.35-1.82-.23-1.6.34-3.06.07-4.45-.73-.97-.55-1.97-1.07-2.86-1.73-1.37-1.03-1.73-2.39-1.03-3.95,1.03-2.27,2.12-4.52,3.29-6.72.44-.82,1.09-1.59,1.8-2.2,1.57-1.35,3.21-2.61,4.88-3.83.5-.37,1.14-.58,1.75-.73,3.3-.76,6.61-1.53,9.93-2.2,1.86-.38,3.76-.57,5.64-.87,1.39-.22,2.63-.8,3.73-1.69.45-.37.9-.76,1.41-1.03,2.99-1.59,6.01-3.13,9-4.72,2.3-1.22,4.65-2.27,7.09-3.19,1.75-.65,3.25-1.98,4.87-2.98.45-.28.91-.57,1.41-.73,3.59-1.16,6.64-3.29,9.77-5.29,1.92-1.22,3.9-2.36,5.85-3.53,1.13-.64,2.26-1.29,3.49-1.98-1.83-3.19-1.09-6.31-.58-9.48-1.17,1.35-2.25,2.71-3.22,4.15-1.93,2.86-1.82,4.67.33,7.33ZM97.09,212.58c-.16-.02-.43.01-.45-.06-.41-.99-1.25-.88-2.07-.89-.8,0-1.6-.06-2.39-.1,0-.13,0-.25,0-.38.96-.61,2.06-.55,3.14-.45,1.65.15,1.71.2,2.37-1.32,1.03-2.38,1.93-4.82,2.98-7.19.51-1.14.16-1.89-.69-2.61-2.55-2.17-3.32-4.93-2.66-8.15.12-.56.21-1.12.31-1.68-1.27,2.07-2.23,4.23-3.78,6.05.23-1.04.63-1.99,1.04-2.94.83-1.94,1.67-3.88,2.5-5.81,2.04-1.41,1.74-3.58,1.61-5.57-.08-1.17-.67-2.34-1.17-3.44-1.21-2.65-2.48-5.27-3.12-8.14-.05-.22-.21-.41-.37-.73-1,2.2-.8,4.43-.21,6.37.59,1.92,1.12,3.83,1.43,5.8.16,1.02.1,2.09.01,3.12-.09,1-.35,2-.53,2.99.1.05.21.11.31.16.91-.98,1.82-1.96,2.73-2.94.07.07.13.14.2.2-.29.73-.58,1.46-.87,2.19-.84,1.21-1.72,2.39-2.51,3.62-.97,1.52-1.85,3.09-2.8,4.62-.15.24-.42.4-.64.59-.09-.06-.18-.11-.27-.17.86-1.81,1.72-3.62,2.61-5.49-1.22-.16-1.71.46-2.13,1.27-.56,1.07-1.25,2.05-2.43,3.07.29-1.76,1.7-2.62,1.6-4.4-1.79,1.45-2.31,3.77-4.5,4.89.78-2.05,2.38-3.35,2.77-5.3-1.52,1.88-2.67,4.07-4.78,5.46.95-2.78,3.1-4.92,4.1-7.68-2.34,2.46-3.94,5.54-6.58,7.7l-.3-.23c1.39-2.01,2.78-4.03,4.18-6.04-.11-.08-.22-.16-.33-.25-1.76,1.89-3.24,4.07-5.41,5.52l-.25-.23c1.18-1.52,2.35-3.05,3.53-4.57-.1-.08-.2-.16-.31-.24-2.05,2.25-4.1,4.5-6.14,6.74-.08-.06-.17-.11-.25-.17.18-.48.36-.96.63-1.68-.77.5-1.29.84-1.82,1.18l-.12-.19c.61-.76,1.22-1.52,1.82-2.28-.07-.09-.14-.17-.21-.26-3.07,1.49-6.5,2.21-9.26,4.41-.53.42-1.17.77-1.82.96-2.85.83-5.35,2.36-7.8,3.93-4.7,3.03-9.6,5.66-14.71,7.92-1.76.78-3.55,1.37-5.54,1.2-1.41-.12-2.84-.08-4.26-.11-.63-.01-1.27-.06-1.9,0-.76.08-1.62.1-2.26.45-2.28,1.27-4.37,2.84-6.1,4.82-.76.87-1.58,1.82-1.94,2.88-.42,1.24-.38,2.65-.52,3.83.65-.88,1.22-2.1,2.18-2.84.99-.77,1.6-1.66,2.03-2.74.58-1.43,1.59-2.54,2.77-3.43,1.47-1.1,3.03-2.15,5.14-1.82-2.71,1.83-5.11,3.95-6.99,6.64.35-.02.59-.22.86-.28.48-.1,1.12-.33,1.43-.12.31.21.4.88.44,1.36.17,2-.87,3.66-1.55,5.43-.3.77-1.34,1.75-.44,2.4.53.39,1.73-.14,2.64-.26-.04-1.27-1.06-2.28-.16-3.33,1.31.47.53,1.49.75,2.3.14-.21.24-.36.4-.61.12.38.22.7.32,1.02,2.58-.23,5.1-.44,7.62-.7.28-.03.66-.36.75-.63.54-1.74,1.65-3.07,2.93-4.29.47-.45.91-.92,1.36-1.38-.06-.07-.13-.13-.19-.2-.95.42-1.9.83-2.85,1.25-.06-.12-.12-.23-.19-.35,1.36-1.1,2.73-2.19,4.3-3.46h-1.37c.23-.29.33-.46.47-.58,1.4-1.21,2.79-2.43,4.21-3.62.15-.12.55-.16.65-.06.14.14.22.53.12.68-.34.53-.77,1.01-1.17,1.49-.44.52-1.03.79-1.03,1.76,0,.75-.07,1.42.39,2.02-1.03,1.23-2.5,2.09-2.3,3.77.4-.08.89-.33,1.19-.19.6.29.38.86.2,1.39-.28.8-.48,1.63-.72,2.45.07.02.13.04.2.05.32-.8.63-1.6,1.06-2.7.47.62.86.94.98,1.35.14.46.03,1,.03,1.86.59-.37,1.06-.51,1.23-.82.24-.42.07-1.24.78-1.14.36.05.64.73.94,1.14.08.12.08.29.16.59.4-.76.61-1.16.94-1.78.46.64.8,1.12,1.2,1.68.43-.66.8-1.23,1.24-1.9.31.35.48.48.58.66.89,1.62,1.38,1.66,2.49.17.53-.71,1.05-1.44,1.57-2.16,1.46.92,1.94.7,1.97-.91.02-1.1-.12-2.21-.22-3.32-.09-.9-.23-1.8-.34-2.7.13-.05.26-.11.4-.16.47.57.93,1.15,1.43,1.75,2.31-.91,3.88-2.98,6.33-3.54-.31.56-.68,1.05-1.17,1.37-1.37.89-2.77,1.76-4.21,2.54-.57.31-.84.56-.63,1.21.13.42.17.88.3,1.57,2.21-2.17,4.22-4.21,6.3-6.16,1.27-1.19,2.59-2.36,4.02-3.33,1.17-.8,2.55-1.29,3.83-1.92.56-.27,1.11-.55,1.66-.83.07.13.15.27.22.4-1.04.68-2.06,1.42-3.14,2.03-1.76,1.01-3.35,2.2-4.75,3.7-1.51,1.62-3.17,3.11-4.84,4.57-.95.83-2.08,1.47-3.09,2.23-.28.21-.43.59-.84,1.18,1.38-.28,2.34-.47,3.31-.67-1.5,1.53-3.61,2.02-5.09,3.45,1.24-.36,2.62-.57,3.52-1.34,1.74-1.5,3.79-2.07,5.86-2.71,2.99-.92,5.98-1.82,8.99-2.69,2.65-.77,5.32-1.49,7.98-2.21.4-.11.93-.25,1.23-.08.76.45,1.46.26,2.14-.03,1.65-.69,3.3-1.41,4.91-2.2.93-.45,1.77-1.07,2.65-1.61,1.2-.35,1.44-1.48,1.87-2.4,1.24-2.65,2.37-5.35,3.54-8.04-.64-.5-.75-.11-.96.42-.82,2.11-1.66,4.21-2.57,6.29-.56,1.27-1.24,2.49-1.87,3.74ZM91.62,165.94c.52-1.57.56-3.19.16-4.69-.5-1.82-1.3-3.57-2.12-5.28-1.92-3.99-2.56-8.08-1.22-12.35.91-2.9,2.26-5.59,3.85-8.19.81-1.33,1.56-2.82,1.82-4.33.37-2.12.18-4.34.41-6.5.18-1.66.62-3.31,1.02-4.94.48-1.97,1.05-3.91,1.58-5.87-.11-.04-.22-.09-.32-.13-1.18,1.03-1.89,2.63-3.67,3.18,1.03-1.41,2-2.65,2.88-3.96,1.55-2.29,1.84-3.02,1.82-3.74-1.58,1.93-3.32,4.12-5.14,6.24-.72.84-1.76,1.42-2.4,2.3-1.16,1.59-2.07,3.37-2.29,5.36-.24,2.2-.54,4.43.46,6.57.29.63.35,1.36.59,2.37.37-3.04.68-5.77,1.04-8.49.22-1.68.91-3.16,2.11-4.68.02.42.09.61.03.71-1.53,2.5-1.81,5.3-1.81,8.11,0,4.9-1.29,9.32-4.54,13.08-1.9,2.2-3.39,4.65-4.24,7.42-.81,2.64-.81,5.26.51,7.87,1.02,2.02,2.95,3.01,4.4,4.52.59.62,1.32,1.11,1.98,1.66-1.04-2.26-2.27-4.35-3.42-6.49-1.72-3.2-1.38-6.36.38-9.44.07.41.05.82-.06,1.21-.67,2.49-.7,4.98.38,7.33.84,1.82,1.94,3.53,3.02,5.23,1.17,1.84,2.35,3.66,2.8,5.89ZM161.54,111.76c-.1.15-.14.19-.15.24-1.05,3.34-1.44,6.64.63,9.79.08.12-.18.46-.41.98-1.15-1.22-2.13-2.24-3.11-3.27.18,4.77,2.93,8.41,5.03,12.72.87-3.32,1.68-6.23,2.38-9.16.19-.8.07-1.66.09-2.5.03-.98.07-1.96.11-2.95.17-.01.33-.02.5-.03.24,1.61.63,3.21.67,4.82.03,1.57-.22,3.17-.5,4.72-.27,1.55-.73,3.06-1.11,4.59,1.26-1.33,1.49-2.96,1.9-4.58.89-3.48,1.51-6.95,1.24-10.52-.25-3.4-1.69-6.33-3.85-8.92.55,2.74,1.49,5.43.55,8.26-.38-1.85-.76-3.7-1.14-5.56-.12.02-.23.03-.35.05.53,3.49.97,6.98.48,10.53-.32-.37-.61-.76-.71-1.19-.28-1.18-.49-2.38-.72-3.58-.29-1.53-.18-3.19-1.53-4.44ZM84.94,139.84c.54-.71,1.16-1.38,1.61-2.15.48-.81,1.17-1.75,1.1-2.58-.17-2.25-.19-4.55-1.19-6.69-.61-1.31-.78-2.79-.37-4.21.45-1.58,1.03-3.12,1.55-4.67.17-.52.2-1.18.53-1.55,1.02-1.14,2.19-2.15,3.24-3.26.97-1.02,2.39-1.74,2.27-3.52-.03-.39.49-.81.76-1.21-1.57,1.04-2.92,2.23-4.3,3.38-3.2,2.66-5.79,5.74-7.16,9.75-.7,2.05-1.08,4.07-.42,6.22.51,1.66.97,3.35,1.32,5.06.35,1.74,1.39,3.38,1.07,5.44ZM126.24,187.18c-2.53,3.64-3.93,7.53-3.29,11.98.17,1.2.21,2.42.32,3.64.03.39.08.78.14,1.32.57-.37.98-.61,1.35-.89.63-.49,1.16-1.05,2.11-.47.29.18.97-.18,1.42-.4.56-.28,1.04-.75,1.61-.99.78-.32.98-.8.91-1.61-.2-2.28-1.01-4.33-2.31-6.2-1.33-1.92-2.22-3.98-2.27-6.39ZM94.45,103.88c-2.12,1.15-4.14,2.25-6.17,3.34-1.49.8-3.03,1.52-4.47,2.4-3.72,2.26-4.96,5.92-5.43,9.98,1.68-3.61,4.64-5.83,8.05-7.59,1.74-.9,3.5-1.77,5.21-2.72,1.46-.81,2.76-1.83,3.28-3.59-.5.37-.99.73-1.49,1.1-.08-.08-.16-.15-.23-.23.41-.88.82-1.76,1.25-2.69ZM140.95,186.95c.11-.58.09-.87.22-1.07.23-.36.55-.66.83-.99.23.37.56.72.67,1.13.28.97.5,1.95.67,2.94.26,1.52.82,2.8,2.21,3.68.7.45,1.27,1.14,1.8,1.79.51.62.91,1.34,1.41,2.09.93-1.92.87-2.09-.75-2.96-.32-.18-.65-.37-.92-.62-2.47-2.38-3.86-5.21-3.15-8.7.3-1.49.9-2.93,1.45-4.35.46-1.2.47-1.48-.56-2.27-.85-.66-1.74-1.26-2.65-1.91-.09,3.73-2.61,7.09-1.23,11.26ZM93.15,145.53c1.07-3.08,2.02-5.77,2.93-8.47.13-.37.28-.94.1-1.17-.56-.71-.34-1.39-.19-2.12.74-3.52,1.5-7.04,2.2-10.57.24-1.18.32-2.39.47-3.59-.1,0-.2-.02-.29-.03-.49.66-.99,1.32-1.48,1.99-.07-.06-.15-.12-.22-.18.56-1.66,1.11-3.32,1.67-4.98-.69.69-1.05,1.51-1.52,2.27-.92,1.49-1.41,3.06-1.36,4.82.05,1.99-.73,3.96.31,5.98.39.76.05,1.99-.19,2.95-.64,2.57-1.43,5.1-2.1,7.65-.44,1.67-.76,3.37-.32,5.46ZM94.51,154.15c.08-.01.16-.03.24-.04-.53-1.54-1.03-3.09-1.61-4.61-1.21-3.2-1.74-6.43-.61-9.78.4-1.18.64-2.42.98-3.7-.22.08-.35.09-.39.15-1.76,2.99-3.32,6.09-3.21,9.67.05,1.84.51,3.7,1.68,5.2.87,1.12,1.94,2.08,2.93,3.11ZM103.47,188.49c-1.08,2.18-1.64,4.42-2.27,6.65-.99,3.51.78,6.26,4.33,8.23-.61-1.12-1.57-2.42-2.08-3.88-.9-2.55-.19-5.05.87-7.4.63-1.39.65-2.49-.85-3.6ZM140.75,140.05c0,1.99,0,3.98,0,5.97,0,.64.09,1.29-.04,1.9-.56,2.85-1.15,5.7-1.81,8.52-.31,1.35-.43,2.14-.14,3.5,3.41-6.28,4.04-12.95,1.98-19.9ZM88.62,113.01c-.29-.06-.4-.12-.48-.1-.3.09-.61.19-.89.32-4.2,2-6.52,5.44-7.33,9.91-.23,1.29-.31,2.72.74,3.91.7-5.81,3.23-10.5,7.96-14.05ZM89.78,150.39c-.12.07-.25.14-.37.21.69,4.09,3.79,7.16,4.73,11.47.29-.79.44-1.24.61-1.68.71-1.9.48-3.6-.91-5.16-1.4-1.57-2.71-3.23-4.06-4.84ZM106.12,201.88c.34-3.48,1.94-7.03-.6-10.48-.85,3.68-1.44,7.17.6,10.48ZM21.08,226.73c1.05.43,1.8.84,2.59,1.04.98.24,1.26-.04,1.28-1.02,0-.26.02-.55-.06-.79-.46-1.37-.04-2.61.55-3.83.15-.31.24-.64.36-.96l-.34-.19c-.66,1.01-1.32,2.02-2.17,3.31v-2.36c-.1-.03-.2-.06-.3-.09-.61,1.55-1.23,3.1-1.93,4.88ZM100.67,184.79c-.2.69-.62,1.35-.5,1.89.29,1.23-.3,2.15-.75,3.15-.63,1.39-.91,2.83-.71,4.16.82-1.29,1.71-2.64,2.56-4.01.52-.84,1.38-1.75,1.33-2.58-.05-.85-1.03-1.65-1.6-2.47-.02-.04-.09-.04-.33-.14ZM111.31,160.49c-1.57.97-1.91,2.77-2.09,4.64-.03.32-.16.62-.16.94-.01,2.5,0,5,0,7.51.05,0,.1,0,.15.01.71-4.42,1.43-8.85,2.11-13.1ZM96.81,159.29c1.18-1.31,1.77-2.24,1.1-3.71-1.14-2.5-2.05-5.1-3.07-7.69h-1c1.2,3.72,3.14,7.11,2.97,11.41ZM109.27,204.9c-.11-2.8.44-5.45,1.38-8.13-1.41.3-1.97,1.11-2.15,2.24-.2,1.2-.37,2.4-.55,3.6-.16,1.09.34,1.81,1.32,2.29ZM91.29,180.4c.45-.25.73-.37.97-.55,1.38-1,1.37-1,.86-2.56-.36-1.08-.7-2.17-1.04-3.25-.61,2.01-1.73,3.94-.78,6.36ZM114.58,118.05l-.14.29c1.14.61,2.29,1.21,3.45,1.83.16-.37.3-.73.53-1.28.39.64.66,1.1,1.05,1.73.5-1.08.9-1.96,1.42-3.08-2.28.18-4.3.35-6.31.51ZM86.28,95.31c.02.13.03.26.05.39,1.19.06,2.39.13,3.58.15.21,0,.54-.2.61-.38.51-1.22.97-2.45,1.44-3.69l-.32-.17c-1.49,1.67-2.99,3.33-5.37,3.7ZM144.67,193.53c.73,1.81.45,4.01,2.15,5.63.93-3.57.12-4.81-2.15-5.63ZM100.07,210.73l.33.41c.21-.36.43-.71.62-1.08,1.04-1.96,2.08-3.91,3.1-5.88.43-.83-.31-.93-.72-1.22-1.13,2.64-2.23,5.2-3.33,7.76ZM98.11,85.07c-3.82,1.28-4.66,2.38-3.83,4.92,1.33-1.71,2.58-3.31,3.83-4.92ZM106.01,76.16l-.15-.3c-3.45.63-5.58,1.68-6.59,3.37,2.36-1.07,4.55-2.07,6.74-3.07ZM107.67,204.9c.29,1.98.3,1.99,2.33,2.17q-.37-1.1-2.33-2.17ZM102.84,209.42c1.24-.99,2.5-3.52,2.53-5.02-.91,1.81-1.72,3.41-2.53,5.02ZM39.72,225.9c1.57.64,1.8.4,2-2.23-.77.86-1.37,1.52-2,2.23ZM121.6,147.38c-.1-.06-.2-.13-.3-.19-.9,1.12-1.7,2.28-1.77,3.77l.36.17c.57-1.25,1.14-2.5,1.71-3.75ZM114.62,155.65c1.44-2.13,1.64-2.79,1.4-4.56-.52,1.69-.96,3.13-1.4,4.56Z"/>
      <path class="cls-1" d="M119.41,90.42c-1.43-1.36-1.78-3.08-1.48-4.94.36-2.17,1.36-4.11,2.34-6.06.8-1.6,1.43-3.31,1.89-5.04.46-1.71-.48-3.04-1.78-4.29-.27.94-.51,1.78-.75,2.61-.13-.02-.26-.05-.4-.07-.09-.6-.18-1.2-.3-2.02-.39.57-.68,1.01-1.03,1.53-1.08-.3-1.59-1.29-2.32-2-.79-.76-1.73-1.43-2.33-2.33-.59-.89-1.27-1.65-2.07-2.31-.94-.77-1.87-1.59-2.93-2.16-1.99-1.07-3.1-2.62-3.14-4.99,1.95,3.36,5.53,4.06,8.67,5.44.72.32,1.59.32,2.61.51-1.26-3.02-2.39-5.76-1.78-8.76.66,2.02,1.33,4.07,2,6.12.16,0,.32-.01.47-.02.11-.57.31-1.14.32-1.7.05-2.99,1.03-5.72,2.16-8.42.18-.43.34-.88.44-1.34.45-2.05,1.5-3.78,3.11-5.06,2.54-2.01,5.18-3.87,7.78-5.8.85-.63,1.69-1.26,2.63-1.96.14.91-.45,1.32-.95,1.72-1.72,1.34-3.49,2.6-5.19,3.95-1.36,1.09-2.75,2.19-3.95,3.44-1.89,1.98-2.52,4.49-2.46,7.42-.4-.3-.63-.49-.86-.66-1.27,2.32-.49,9.22,1.35,10.76.47-2.79-.53-5.71,1.09-8.29v2.51s.1.02.14.03c.62-1.76,1.25-3.52,1.87-5.27.11.03.23.05.34.08v.95c.13-.08.23-.12.27-.18,1.96-3.4,4.44-6.31,7.77-8.47,1.95-1.27,3.88-2.57,5.82-3.86.77-.51,2.53-2.26,2.86-2.86.96.35.65,1.05.46,1.69-.86,2.88-2.71,5-5.16,6.65-2.13,1.43-4.06,3.08-5.58,5.17-1.52,2.09-2.11,4.49-2.33,7.01-.02.23.08.47.15.79.88-1.46,1.63-2.83,2.51-4.11,1.57-2.28,3.73-3.89,6.17-5.12,1.09-.55,2.21-1.03,3.31-1.56,1.56-.74,2.86-1.81,3.91-3.19.17-.22.37-.42.65-.56-.42,1.96-1.75,3.22-3.28,4.39,2.19-.73,4.36-1.17,6.71-.43-.98.4-1.96.81-2.94,1.21,3.65-.24,6.42-2.18,9.23-4.47-.15.65-.31,1.29-.46,1.94.1.03.2.06.3.09.3-.86.6-1.72.92-2.62.57.93.6,1.87.34,2.91-.85,3.33-3.06,5.52-5.97,7.08-2.33,1.24-4.7,2.4-7.32,3.73.53-.71.86-1.36,1.38-1.79,1.02-.84,2.17-1.52,3.23-2.31,1.78-1.33,3.55-2.68,5.3-4.06.36-.28.6-.7.77-1.28-.3.09-.66.11-.9.29-2.43,1.84-5.2,2.89-8.18,3.34-3,.45-4.92,2.08-5.93,4.87-.55,1.52-1.44,2.96-1.25,4.71,2.73-1.24,5.38-2.45,8.03-3.63,2.08-.92,4.22-1.73,6.26-2.72,1.89-.92,3.08-2.48,3.79-4.5.37-1.06,1.12-2.01,1.84-2.9.35-.43,1.02-.59,1.54-.87.08.09.16.17.24.26-.12.31-.24.62-.37.93l-.12.1c-.68.77-1.76,1.45-1.98,2.34-1.1,4.35-4.45,6.24-8.11,7.85-1.65.73-3.3,1.43-4.97,2.12-2.58,1.06-3.99,3.22-5.28,5.51-.6,1.06-1.3,2.06-1.85,3.14-.44.86-.71,1.81-1.16,3.02-.22-.57-.34-.86-.55-1.4-.94.76-1.84,1.48-2.73,2.2.09-.79.18-1.58.28-2.37l-.29-.09c-.51.84-1.02,1.67-1.54,2.53-.11-.21-.22-.43-.4-.78-1.26.72-2.76,1.22-3.71,2.23-.8.84-1,2.27-1.39,3.47-.23.7-.2,1.48-.45,2.17-1.36,3.64-2.13,7.42-2.9,11.21-.07.35-.21.68-.28.89-.46-.64-.94-1.29-1.39-1.96-.29-.43-.53-.88-.79-1.32.56.44,1.12.87,1.55,1.2.67-2.54,1.34-5.03,1.97-7.53.34-1.36.65-2.74.88-4.13.1-.65.09-1.25-.48-1.91-.48-.56-.35-1.65-.52-2.66-.22.29-.34.4-.4.53-.84,2.28-1.67,4.56-2.51,6.83-.93,2.51-1.66,5.03-.48,7.68ZM137.28,52.93c-.11-.09-.22-.18-.33-.26-4,1.98-6.85,6.92-6.86,11.06,2.36-3.55,4.78-7.17,7.19-10.8ZM136.55,57.9c-2.43,3.23-2.22,6.9-2.74,10.52,1.96-2.43,3.66-8.03,2.74-10.52ZM137.86,58.94c.78-1.78,1.48-3.41,2.24-5.15-1.64,1.31-3.29,2.49-2.24,5.15ZM125.71,60.64c-.11,0-.23.02-.34.03.16,2.24.32,4.47.48,6.71l.45-.03c.38-2.28-.37-4.47-.59-6.7Z"/>
      <path class="cls-1" d="M152.16,254.11c-2.4,2.27-4.37,4.87-5.88,7.81-.25.5-.27,1.11-.4,1.67h-.02c-.71-.19-.63-.69-.5-1.25.2-.85.34-1.72.51-2.58.21-.14.49-.23.62-.42,1.05-1.52,2.08-3.06,3.1-4.6.09-.14.09-.33.2-.76-2.18,1.59-3.72,3.25-3.91,5.81-.72-1.14-.58-2.3-.05-3.45,1.22-2.67,3.44-4.2,6.16-4.79,1.72-.37,3.12-1.19,4.6-2.24-.58,0-1.18-.1-1.74.02-2.71.59-5.34,1.35-7.3,3.53-.3.33-.8.49-1.12.81-.7.69-1.4,1.38-2.01,2.15-1.3,1.62-2.55,3.29-3.82,4.95-.11-.06-.22-.12-.33-.18.05-.27.1-.53.15-.8-1.79.76-3.6,1.53-5.4,2.29.3-.32.61-.63.91-.95,1.76-1.06,3.53-2.11,5.29-3.17.79-.48,1.21-1.2,1.5-1.98-2.29.45-4.45.86-6.61,1.34-.36.08-.71.4-.95.71-.29.36-.43.85-.7,1.24-1.61,2.25-3.51,4.08-6.46,4.33.67-.42,1.33-.87,2.01-1.27,2.84-1.65,3.85-4.53,5.03-7.32.72-1.7,1.46-3.43,2.49-4.94,1.34-1.96,3.34-3.06,5.79-3.15.2,0,.4.08.96.21-2.39.85-4.28,1.93-5.61,3.75-1.29,1.76-2.02,3.78-2.89,6.01,2.87-.67,5.58-1.18,7.83-2.64,1.59-1.03,3.38-1.99,4.47-3.7.24-.1.5-.18.72-.32,2.52-1.55,5.11-2.55,8.14-1.5.9.31,1.36-.23,1.32-1.17-2.83-.81-5.53-.57-8.14.57-1.05.46-1.94,1.13-2.03,2.42-.14-.6-.28-1.21-.41-1.81.46-.47.92-.93,1.37-1.4,1.89-.68,3.74-1.57,5.84-1.29,1,.13,1.98.38,2.98.45.58.04,1.29-.03,1.76-.32,1.92-1.21,3.77-2.52,5.78-3.89-.84-1.11-1.75-2.31-2.64-3.49.16-.35.39-.73.49-1.13.27-1.07.44-2.17.74-3.23.19-.65.65-1.14,1.58-1.43-.83,2.38-1.25,4.57-.79,6.96.63-2.6.31-5.53,3.49-6.67-1.71,2.65-1.97,5.59-1.97,8.76.56-.09.97-.1,1.35-.21,2.76-.79,4.87.29,6.66,2.29.42.47.75,1.09,1.26,1.41.42.26,1.09.31,1.59.19.59-.14.96-.66.84-1.35-.11-.61-.14-1.28-.41-1.82-.62-1.22-.45-2.17.54-3.13.71-.69,1.24-1.58,1.86-2.37.36-.46.67-1.07,1.14-1.29,1.17-.53,1.48-1.51,1.8-2.6.3-1.02.66-2.04,1.17-2.96.42-.77,1.04-1.46,1.68-2.07.65-.62,1.41-1.13,2.16-1.62.74-.48,1.29-1.15,2.49-.96.8.13,1.78-.78,2.66-1.25,1.6-.86,3.19-1.75,4.98-2.72-.43-.49-.7-.94-1.1-1.23-1.67-1.21-3.32-2.46-5.08-3.54-1.99-1.23-3.49-2.96-4.82-4.79-.89-1.21-.49-2.77-.26-4.18.08-.53.46-1.01.86-1.86-.13,1.53-.28,2.67-.32,3.81-.05,1.46.56,2.64,1.6,3.67,1.4,1.39,2.87,2.63,4.61,3.62,1.51.86,2.82,2.06,4.2,3.14.68.54,1.28.95,2.28.66.69-.2,1.54.12,2.32.2.26-1.24-.13-2.05-1.37-2.68-1.37-.7-2.74-1.4-4.11-2.1-2.03-1.03-3.43-2.67-4.35-4.71-.3-.65-.49-1.43-.45-2.14.15-2.75,1.04-5.29,2.57-7.59.08-.12.26-.16.59-.37-.15.51-.19.87-.35,1.16-1.17,2.09-1.57,4.4-1.74,6.72-.2,2.63,1.2,4.58,3.3,5.95,1.32.87,2.84,1.44,4.26,2.15,1.97.98,3.38,2.38,3.54,4.73-.06.06-.16.19-.21.18-2.69-.9-4.67.6-6.75,1.91-1.11.7-2.28,1.36-3.52,1.76-1.78.57-2.96,1.79-4.02,3.19-2.09-1.18-3.43-.72-4.29,1.5-.5,1.29-1.02,2.58-1.35,3.91-.25,1-.23,2.07-.34,3.19-.37-.48-.76-.99-1.34-1.74-.82.9-1.62,1.71-2.34,2.58-.36.44-.55,1.02-.87,1.49-1.14,1.69-1.02,2.81.52,4.15.31.27.65.51.98.76-.05.09-.1.18-.16.27-.67-.39-1.34-.79-2.04-1.2-.14,1.09-.2,2.18-.45,3.23-.3,1.27.44,1.89,1.35,2.3,1.6.73,3.24,1.2,5.07.8,2.74-.59,5.56-.86,7.98-2.51.32-.22.8-.21,1.25-.17-.77,1.32-2,1.89-3.29,2.36-2.38.87-4.83,1.62-7.13,2.69-1.1.51-2.01,1.54-2.86,2.46-1.98,2.14-3.33,4.65-3.86,7.55-.11.6-.08,1.22,0,1.87.95-2.06,1.65-4.27,4.39-4.83-.61.93-1.28,1.83-1.81,2.81-.53.97-.91,2.01-1.44,3.22,1.99.5,3.78-.44,5.85-.15-1.75,1.45-3.69,1.52-5.79,1.79,3.27.6,6.16-.36,9.06-1.16.07.12.14.23.21.35-.45.43-.89.86-1.41,1.36.11.2.25.46.4.75-.12.1-.21.26-.34.29-1.07.29-2.14.6-3.23.82-.74.15-1.44.36-2.2-.34-.74-.68-1.73-.29-2.56.67-.21.1-.42.2-.62.3-1.67.68-3.33,1.37-5,2.04-.32.13-.69.13-1.4.25,1.91-1.8,4.22-2.37,5.77-4-2.65,1.63-5.63,2.33-8.53,3.22-.25.08-.56.17-.78.09-1.25-.45-2.48-.72-3.83-.47-.34.06-.8-.58-1.16-.86.2-.52.44-.98.55-1.46.33-1.56,1.2-2.77,2.61-3.42,1.43-.66,2.96-1.15,4.48-1.58,1.78-.5,3.7-.66,4.76-2.79.17,1.6-.18,2.36-1.47,3.01-.99.5-2.09.76-3.11,1.19-1.51.64-3.02,1.28-4.47,2.03-.53.27-.92.84-1.37,1.27,1.35-.16,2.66-.19,3.9-.5,1.27-.32,2.49-.85,3.68-1.4.86-.4,1.62-1.02,2.45-1.49.32-.18.7-.24,1.06-.35.08.14.16.28.25.43-1.03.84-2.07,1.67-3.39,2.74,1.35-.21,2.41-.38,3.66-.57.03-.64.08-1.31.09-1.97.04-2.68-.59-5.46.82-7.98,1.48-2.66,3.34-4.99,6.35-6.1-1.41-.59-2.85-1.19-4.4-1.83-.9,4.49-3.91,7.54-7.3,10.31-.47.39-1.18.49-1.87.5,1.17-1.44,2.35-2.88,3.52-4.32,1.97-2.06,3.33-4.42,3.7-7.56-.74.52-1.28.9-1.89,1.33.77,1.27.29,2.38-.29,3.47-.49.93-1.01,1.84-1.51,2.77-.93.87-1.84,1.76-2.79,2.6-.95.84-1.95,1.62-3.59,1.73,2.85-2.91,5.42-5.75,6.97-9.57-1.11.3-1.64.71-1.93,1.76-.27.97-.88,1.96-1.6,2.68-2.86,2.83-6.31,4.64-10.26,5.43-.55.11-1.15-.06-1.71-.22,4.46-1.35,8.18-3.72,11.32-7.03-.05-.13-.1-.25-.15-.38-1.57.59-3.14,1.17-4.72,1.76-.05-.1-.1-.2-.14-.31,1.39-.73,2.82-1.42,4.17-2.21,1.37-.8,2.76-1.61,3.99-2.62,1.25-1.03,2.3-2.3,3.44-3.46-1-1.04-1.88-1.94-2.75-2.86-1.23-1.31-2.87-1.27-4.32-.89-2.09.55-4.18,1.29-6.06,2.34-1.35.75-2.27,2.07-1.99,3.95.33,2.25-.28,4.42-1.29,6.85,2.49-1.42,3.11-3.69,3.99-5.84.76,1.31.7,2.67.06,3.79-2.09,3.66-5.29,5.91-9.51,6.67.27-.15.57-.28.81-.47,1.28-1.05,2.54-2.11,3.81-3.18.07-.06.12-.18.14-.28.45-2.44.89-4.89,1.32-7.33.03-.18-.07-.38-.13-.63-.84.53-1.55,1.06-2.34,1.47-.7.36-.57.98-.6,1.52-.13,1.93-.75,3.7-1.76,5.38-.06-1.94.97-3.72.97-5.92-1.56.75-2.85,1.57-4,2.64-.06.05-.12.1-.17.14Z"/>
      <path class="cls-1" d="M154.74,240.88c-.92-1.3-1.92-2.54-2.75-3.9-1.13-1.87-.79-3.24.96-4.54.25-.19.5-.36.75-.54-.84-1.63-.85-1.49-2.53-1.52-3.92-.06-7.69.82-11.49,1.54-3.02.57-6,1.31-9.03,1.81-2.4.4-4.83.56-7.25.85-2,.24-4.01.43-5.99.77-2.95.51-5.34,2.25-7.82,3.78-2.88,1.78-5.74,3.62-8.74,5.18-1.32.69-2.95.76-4.44,1.13-.61.16-1.23.32-1.79.59-1.73.84-3.5.8-5.28.31-.32-.09-.54-.53-.81-.8.3-.17.58-.4.9-.48.98-.24,2.01-.36,2.66-1.26.24-.34.36-.77.41-1.22-1.5.86-2.73,2.17-4.97,1.78,2.18-.95,3.7-2.27,4.87-3.99.13-.18.49-.38.67-.33.76.23.97-.39,1.42-.72.41-.3,1.05-.52,1.53-.45,1.14.17,1.39.67.74,1.65-.8,1.22-1.79,2.31-2.72,3.47,1.78-.19,2.84-1.83,4.51-2.68.24.88.78,1.01,1.48.55,1.99-1.31,4-2.58,5.94-3.96,1.29-.92,2.47-1.99,3.72-3,.37.37.4,1.04,1.14.61,1.19-.69,2.44-1.29,3.7-1.84.44-.2.99-.13,1.49-.23.97-.2,1.94-.43,2.9-.66.35-.08.8-.38,1.02-.25,1.38.79,2.7.02,4.02-.12,2.16-.24,4.3-.65,6.44-1.04.98-.18,1.97-.39,2.92-.7,3.82-1.28,7.61-2.69,11.46-3.87,1.65-.51,3.43-.61,5.16-.84,1.26-.17,2.53-.21,3.79-.36.35-.04.76-.17,1-.4.98-.95,2.06-.93,3.25-.55.86.27,1.77.39,2.62.68.82.28,1.59.7,2.39,1.06-.04.12-.09.24-.13.36-1.09-.21-2.22-.31-3.28-.64-1.77-.54-3.17-.16-4.41,1.2-.65.7-1.35,1.27-1.44,2.35-.1,1.13.25,1.71,1.39,2.06.68.21,1.32.56,1.98,1-1.93.48-3.33,1.41-3.71,3.42-.07.36-.17.74-.11,1.09.38,2.08,2.67,4.27,4.79,4.64.5.09,1,.2,1.46.44-1.91.87-3.28-.21-4.65-1.28-.05-.05-.1-.1-.14-.15Z"/>
      <path class="cls-1" d="M204.57,258.83c-.97-.67-1.11-1.68-.9-2.68.2-.92.56-1.84,1.05-2.65.3-.5.96-.79,1.55-1.25,1.25.52.96,1.87,1.32,2.89.88-.99.02-2.04.12-3.2,1.08.38,1.64,1.18,1.64,2.1-.01,1.35-.22,2.72-.55,4.03-.24.96-.79,1.85-1.25,2.74-1.15,2.19-2.34,4.36-3.55,6.61,1.35.89,1.9,2.2,2.22,3.61.47,2.09.97,4.14,3.23,5.16-2.06-.22-3.35-1.5-4.68-3.12-.07.51-.11.87-.17,1.31-1.18-.45-1.22-1.66-1.81-2.56-1.28,1.37-2.44,2.8-4.4,3.35.58-.8,1.17-1.6,1.93-2.66-1.53.61-2.77,1.1-4.01,1.59-.08-.12-.15-.24-.23-.36.71-.51,1.42-1.03,2.14-1.54-.03-.08-.06-.17-.08-.25-1.07.28-2.13.56-3.54.92.32-.45.41-.6.54-.73.14-.14.31-.25.39-.6-2.38.57-4.76,1.13-7.14,1.7-.04-.13-.08-.26-.13-.39,1.46-.58,2.92-1.16,4.38-1.74-.03-.1-.05-.19-.08-.29-3,.74-6.01,1.49-9.01,2.23-.05-.16-.11-.31-.16-.47,1.61-.6,3.21-1.2,4.89-1.83-.42-.14-.74-.25-1.06-.36,0-.11,0-.21,0-.32,1.51-.5,3.03-.97,4.69-.69.89.15,1.77.4,2.66.46.72.05,1.48-.04,2.19-.19,1.39-.31,2.79-.62,4.13-1.09,1.37-.48,2.36-1.51,3.13-2.79-.53.42-1.06.84-1.59,1.25-.07-.07-.14-.13-.2-.2,1.5-2.3,2.99-4.61,4.45-6.84-.82-.48-1.45-.84-2.08-1.2.21.05.41.15.61.13.54-.05,1.29.04,1.56-.27.28-.32.2-1.08.07-1.59-.27-1.01-.69-1.98-1.11-3.13-.7,1.67-1.26,3.18-1.13,4.87Z"/>
      <path class="cls-1" d="M168.36,144.76c.84-1.87,1.51-3.47,2.27-5.03.51-1.04,1.09-2.06,1.71-3.04,1.1-1.75,2.33-3.41,3.37-5.2.57-.99.86-2.15,1.28-3.23.19-.49.36-.97.65-1.43.14,1.44-.23,2.8-.83,4.04-.92,1.91-1.9,3.8-3.05,5.57-1.88,2.88-3.3,5.94-4.02,9.29-.25,1.17-.22,2.4-.32,3.6.13.05.27.11.4.16.98-1.34,2.01-2.64,2.92-4.02,1.08-1.64,2.1-3.32,3.05-5.04.87-1.57.99-3.33,1.03-5.09,0-.39,0-.79.11-1.18,1.03,2.79.69,5.51-.79,8-1.71,2.87-3.61,5.63-5.41,8.45-.27.43-.46.92-.68,1.38-.06.13-.1.39-.15.39-1.21.03-1.27,1.18-1.75,1.86-1,1.44-1.83,2.99-2.79,4.46-1.36,2.1-1.38,4.41-1.2,6.77.06.85.24,1.68.33,2.53.18,1.65.86,3,2.08,4.17.9.86,1.58,1.94,2.36,2.92-.1.09-.19.18-.29.26-.18-.19-.36-.37-.54-.56-1.14-1.18-2.23-2.41-3.42-3.52-.96-.9-1.39-1.99-1.56-3.22-.22-1.57-.44-3.15-.56-4.73-.13-1.63.32-3.17,1.17-4.56,1.41-2.31,2.86-4.59,4.33-6.87.44-.69.83-1.29.51-2.19-.4-1.14-.62-2.35-.96-3.52-.73-2.52-.93-5.03.36-7.43,1.56-2.89,3.13-5.78,4.83-8.58,1.59-2.62,2.42-5.39,2.44-8.44,0-.41.11-.81.18-1.38.48,1,.5,2.6.36,4.07-.31,3.19-2.08,5.74-3.55,8.43-1.09,2-2.14,4.03-3.08,6.1-.78,1.71-1.07,3.55-.77,5.81Z"/>
      <path class="cls-1" d="M73.9,242.51c.36-.77.69-1.55,1.07-2.31.93-1.84,2.08-2.82,3.8-3.2-.14,1.3-1.19,1.95-1.8,2.86-.64.96-1.27,1.92-1.96,2.97.42.22.7.5.85.44,1.71-.7,3.18.53,4.79.59,1.04.04,2.08.25,2.95.36.42-1.35.86-2.52,1.13-3.73.12-.52-.04-1.15-.19-1.69-.67-2.32.11-4.21,1.84-5.7.95-.82,2.07-1.47,3.18-2.07,1.05-.57,2.2-.69,3.67-.07-2.37.41-4.08,1.41-5.55,2.94-1.42,1.48-2.72,2.94-2.61,5.39,1.05-.61,1.96-1.14,2.89-1.67,1,2.49-.05,4.44-.99,6.42-.22.46-.29.99-.41,1.44-.67.19-1.36.4-2.06.58-1.67.43-3.22.01-4.77-.63-1.83-.75-3.69-.79-5.67-.42-.98.18-2.15-.34-3.17-.72-1.62-.6-2.71-1.84-3.44-3.37-.25-.52-.29-1.15-.31-1.75,1.46,2.69,3.13,4.16,5.62,4.83-2.24-2.35-2.41-2.66-2.08-4.29.36,1.77,1.34,2.53,2.74,2.82.17,0,.33,0,.5-.01ZM85.45,244.82c.72-2,1.3-3.59,1.88-5.18-1.37,1.08-2.1,2.53-2.54,4.12-.07.25.38.63.66,1.07Z"/>
      <path class="cls-1" d="M159.66,187.03c1.04,2.1,2.07,4.2,3.11,6.3,1.66-2.1,1.2-4.72,1.47-7.26,1.25,2.55,2.07,5.22,2.86,7.9.88-.97,1.37-3.01.96-4.81-.47-2.06-1.01-4.12-1.65-6.13-.48-1.5-.29-2.85.34-4.21.49,1.63-.46,3.41.67,4.93,1.04-.65,1.25-.54,1.53.5.33,1.23.83,2.4,1.17,3.63.51,1.85.89,3.71.33,5.64-.5,1.75-1.5,2.87-3.36,3.16-.82.13-1.62.37-2.72.63,1.26-2.12,2.02-4.06,1.13-6.22-1.32,4.82-3.23,6.85-6.52,6.67,3.24-3.47,2.38-7.02.1-10.6l.57-.12Z"/>
      <path class="cls-1" d="M183.63,176.22c.1-.32.13-.54.23-.72,1.07-1.97.63-3.71-.59-5.49-.98-1.43-1.72-3.04-2.45-4.62-1.65-3.55-.75-6.82,1.24-9.95,1.22-1.92,2.43-3.86,3.53-5.84.56-1,.87-2.14,1.44-3.26-.03.67.11,1.4-.12,1.99-.99,2.51-2.01,5.01-3.17,7.45-.98,2.06-2.11,4.03-2.46,6.34-.26,1.73.24,3.28,1.03,4.73.93,1.71,2.01,3.35,3.16,5.25-.31-1.55-.63-2.86-.84-4.19-.46-3.01-.72-6.06.74-8.88.77-1.49,1.8-2.85,2.81-4.2.83-1.1,1.92-2.01,2.67-3.15.76-1.17,1.24-2.53,1.91-3.94.24,1.72-.21,3.24-1.08,4.59-1,1.56-2.21,2.98-3.27,4.5-2.22,3.2-3.44,6.67-2.72,10.64.27,1.51.51,3.03.63,4.56.07.82-.08,1.69-.26,2.5-.26,1.17-1,1.83-2.44,1.69Z"/>
      <path class="cls-1" d="M142.29,88.8c.21.53.24.93.44,1.08,1.96,1.37,3.96,2.67,6.52,2.45.18-.02.37.1.6.41-.82.25-1.64.47-2.45.75-1.04.36-2.06.79-3.11,1.13-1.45.47-2.9,1.04-4.4,1.3-3.3.57-6.15,2.04-9,4.05-.03-.36-.16-.68-.05-.84.26-.39.61-.73.98-1.03,1.79-1.5,2.95-3.43,3.89-5.53.5-1.11,1.1-2.17,1.77-3.18.21-.32.78-.52,1.2-.54,1.27-.07,2.54-.03,3.6-.03ZM143.95,92.25c-.86-.45-1.48-.78-2.19-1.15-.07.88-.13,1.58-.2,2.54.86-.5,1.52-.88,2.39-1.38ZM137.57,92.43c-.31.88-.53,1.53-.82,2.36.89-.19,1.55-.33,2.41-.51-.62-.72-1.02-1.18-1.59-1.84Z"/>
      <path class="cls-1" d="M159.87,217.66c-.03.34,0,.71-.11,1.03-1.14,3.4-4.36,5.17-7.83,4.23-1.27-.34-2.48-.88-3.78-1.35-2.6,4.41-6.67,4.55-11.01,3.8-.81-.14-1.44-.05-2.23.27-2.1.85-4.27,1.59-6.48,2.11-4.33,1.02-8.69,1.86-13.05,2.77-.14.03-.29.04-.73.09.36-.26.49-.39.65-.46,4.82-2.08,9.65-4.09,14.97-4.65,1.61-.17,3.17-.84,4.76-1.24.34-.09.81-.18,1.05-.01.9.63,1.82.42,2.75.22,1.71-.37,3.44-.64,5.11-1.15.99-.3,1.88-.95,2.8-1.46.17-.1.45-.32.42-.42-.27-1.04.47-.72.89-.63.77.16,1.52.47,2.29.64,3.23.69,5.96-.15,8.12-2.71.36-.43.76-.82,1.15-1.22.09.05.17.09.26.14Z"/>
      <path class="cls-1" d="M99.25,57.62c-1.41-2.37,2.13-10.36,4.96-11.12-.48,1.56-.93,3.03-1.38,4.5.07.03.14.07.21.1.54-.74.99-1.55,1.62-2.2,2.22-2.31,4.71-4.17,7.84-5.24,1.92-.66,3.62-1.96,5.43-2.97.14-.08.28-.14.54-.12-2.62,2.52-4.82,5.31-6.19,8.72-.32-.91.19-1.59.53-2.31.34-.71.68-1.43.92-2.25-2.08,1.36-3.64,3.3-5.58,4.92.21-.62.42-1.25.64-1.89-1.1.25-3.1,1.98-4.55,3.91-1.25,1.66-2.41,3.36-2.05,5.66-1.38-1.63-.83-3.55-1.04-5.55-1.21,1.85-1.57,3.79-1.89,5.83Z"/>
      <path class="cls-1" d="M273.34,155.18c1.56,2.35,2.94,4.43,4.32,6.52-.13.09-.25.18-.38.27-1.19-1.62-2.38-3.24-3.56-4.86-.09.04-.19.09-.28.13.27.7.45,1.46.84,2.09,1.26,2.09,2.6,4.13,3.89,6.2.22.35.36.75.54,1.13-.09.07-.18.13-.27.2-1.46-1.98-2.92-3.97-4.37-5.95-.05.03-.1.06-.15.1,1.39,2.44,2.79,4.87,4.18,7.31-.14.09-.28.18-.43.27-1.32-1.91-2.64-3.82-3.96-5.74-.08.04-.15.07-.23.11.19.39.35.8.57,1.17.87,1.46,1.8,2.89,2.61,4.37.34.62.41,1.39.67,2.06.35.92.76,1.81,1.02,2.8-2.11-1.94-3.44-4.51-5.29-6.68,1.45,3.04,3.68,5.65,5.04,9.02-.49-.23-.7-.33-1.09-.51.47.96.87,1.77,1.27,2.57-.11.06-.21.12-.32.17-.82-1.26-1.65-2.52-2.46-3.78-.52-.8-.97-1.65-1.54-2.41-.21-.28-.17-1.25-1-.63-.15-.32-.42-.63-.44-.95-.07-.9-.09-1.81-.03-2.71.26-3.96.56-7.91.87-12.27Z"/>
      <path class="cls-1" d="M270.29,143.28c.28-.87.45-1.8.86-2.61,2.46-4.8,6.16-8.33,11.13-10.48.54-.23,1.19-.21,1.79-.3.26-.04.53-.02.79-.06,5.9-1.04,11.7-.83,17.44,1.04,6.41,2.08,12.85,4.06,19.27,6.1.59.19,1.16.45,1.74.67l-.1.29c-1.95-.59-3.91-1.18-5.86-1.76-5.8-1.72-11.59-3.49-17.41-5.11-1.72-.48-3.55-.55-5.34-.72-1-.1-2.03.06-3.03-.04-3.59-.33-6.99.51-10.24,1.87-1.34.56-2.59,1.46-3.68,2.43-2.82,2.51-5.17,5.43-6.9,8.82-.15-.05-.29-.1-.44-.15Z"/>
      <path class="cls-1" d="M149.08,247.33c-.46.47-.92.93-1.37,1.4-.29.49-.57.99-.95,1.63-.07-2.09,1.08-3.69,4.49-6.41-1.47.47-2.86.96-4.26,1.36-1.01.29-1.21.09-1.24-1.03-1.61-.33-2.98.21-4.33,1.04-.89.54-1.87.91-2.97,1.44,1.34-2.53,9.91-7.04,12.47-6.52-.83.42-1.49.75-2.14,1.08,1.96-.71,3.97-.45,5.96-.44.05.05.09.1.14.15-.45.67-.91,1.34-1.33,1.95,1.21.35,2.63.76,4.05,1.17-.01.09-.02.18-.03.28-.32,0-.69.1-.95-.02-2.57-1.17-4.5.14-6.37,1.62-.45.36-.78.86-1.17,1.3Z"/>
      <path class="cls-1" d="M109.46,139.25l.4-.39c.5-.13,1.01-.26,1.37-.36.72.6,1.39,1.16,2.08,1.73-1.19,3.28-2.41,6.66-3.68,10.19-.1-.64-.17-1.14-.25-1.64-.11,0-.21-.02-.32-.02-.09.72-.18,1.44-.31,2.49-.86-1.24-.36-2.43-.8-3.52-.37,1.72-.74,3.45-1.17,5.46-.52-2.3-.18-4.3.31-6.22.66-2.61,1.56-5.15,2.36-7.72Z"/>
      <path class="cls-1" d="M248.43,278.83c-.74-.47-1.44-.97-2.18-1.38-1.94-1.08-3.67-2.36-4.62-4.44-.23-.49-.35-1.03-.28-1.66,1.41,1.22,2.82,2.45,4.34,3.76-.6-2.94-1.16-5.66-1.76-8.57,1.18.43,1.56,1.24,1.83,2.15.52,1.77,1.04,3.53,1.75,5.27.16-1.81.32-3.61.5-5.56,1.13,2.39,1.32,9.33.43,10.44Z"/>
      <path class="cls-1" d="M150.35,188.66c-1.49-3.84-.53-7.4,1.27-10.85.12-.23.27-.52.48-.62,1.31-.62,2.32-1.58,3.28-2.63.09-.1.29-.09.7-.2-1.69,3.61-2.85,7.2-2.86,11.4-.43-.52-.65-.78-.93-1.11,0,.6.01,1.13,0,1.66,0,.26-.02.72-.12.75-1.17.33-.72,1.31-.85,2.22-.4-.26-.69-.45-.98-.64l.02.02Z"/>
      <path class="cls-1" d="M182.64,239.47c2.09,2,3.12,4.74,5.74,5.89.75.33,1.58.48,2.42.6-2.2-2.87-5.67-4.31-7.71-7.3,1.71,1.21,3.52,2.3,5.11,3.65,1.77,1.5,3.76,2.06,5.98,2.13.85.03,1.7-.03,2.54.05.47.04.92.29,1.58.52-1.23,1.3-2.62.49-3.75.9.88.38,2.04-.31,2.89.82-1.07.74-2.23.88-3.21.53-2.02-.72-4.15-.74-6.2-1.22-2.81-.65-5.22-3.52-5.38-6.57Z"/>
      <path class="cls-1" d="M203.95,161.86c.12,0,.25.02.37.03,1.33,3.21.72,6.42.09,9.67-.47,2.44-.81,4.91-1.07,7.38-.19,1.78.41,3.32,1.91,4.47,1.04.8,1.99,1.72,3.25,2.82-.68-.21-1.15-.24-1.47-.47-1.46-1.06-2.96-2.08-4.28-3.3-1.4-1.3-1.58-3.12-1.26-4.88.42-2.34.93-4.67,1.59-6.96.82-2.88,1.52-5.73.87-8.74Z"/>
      <path class="cls-1" d="M159.53,182.66c-.68-.26-1.17-.45-1.88-.73.21-3.24,1.79-6.21,3.43-9.24-2.77-3.44-1.97-7.13-.93-10.83.18-.01.36-.03.53-.04.03.47.08.95.1,1.42.07,2.21,0,4.44.23,6.63.16,1.51.9,2.84,2.69,3.29-1.11.1-1.51.83-1.92,1.71-1.14,2.47-1.93,5.03-2.26,7.78Z"/>
      <path class="cls-1" d="M103.56,91.63c2.45-1.81,6.33-1.96,8.52-.4.88.62,1.35,1.46,1.29,2.57-.03.57,0,1.14,0,1.94-1.35,0-2.65.09-3.93-.04-.59-.06-1.36-.38-1.65-.83-1.03-1.58-2.67-2.31-4.23-3.24ZM112.16,93.19c-.61.4-1.09.93-1.64,1.02-1.13.2-1.57-.57-1.73-1.6-.03-.19-.43-.33-.66-.49-.14.25-.4.5-.39.75,0,.29.22.58.39.84.76,1.17,2.04.97,3.15,1.08,1.15.11,1.32-.29.88-1.61Z"/>
      <path class="cls-1" d="M176.12,221.56c-.19.57-.46,1.12-.55,1.7-.28,1.85-1.92,3.08-3.92,2.67.32-.25.52-.42.75-.57,1.88-1.24,2.09-3.08,1.77-5.07-.2-1.21-1.34-1.81-2.54-1.42-1.16.39-1.99,1.18-2.58,2.24-.26.46-.53.92-.81,1.37-.33.53-.68,1.05-1.24,1.54.03-.31,0-.65.11-.94.48-1.23.93-2.48,1.52-3.66.99-2,2-2.34,4.13-1.58.2.07.4.13.99.31-.65-1.48-1.15-2.72-1.74-3.91-.49-.98-.79-1.97-.61-3.06.04-.22.2-.41.47-.92-.39,2.49,3.09,8.58,4.38,11.17-.04.04-.08.07-.12.11Z"/>
      <path class="cls-1" d="M208.78,244.28c1.92,1.06,1.98,1.03,2.81-.69.14-.3.41-.54.7-.91.38,3.03-1.7,3.5-3.65,3.82,0,.54.12.94-.03,1.16-.14.21-.55.26-.86.33-1.16.28-1.16.27-.95,1.64-2.27.55-4.08-.38-5.91-1.7.46-.59.87-1.17,1.34-1.69.51-.56,1.08-.61,1.65-.05.56.54,1.13,1.07,1.68,1.59,1.02-.86-.13-1.39-.12-2.16h1.27c-.05-.22-.1-.41-.11-.46.78-.04,1.51-.07,2.24-.1-.02-.19-.04-.39-.08-.77Z"/>
      <path class="cls-1" d="M180.26,213.98c-1.89-1.08-3.57-1.87-5.07-2.93-2.36-1.68-2.07-3.47-1.19-5.94.25-.71.72-.9,1.89-1.18-1.22,1.44-1.41,3.02-1.31,4.69.04.76.31,1.26.94,1.71,2.04,1.46,4.21,2.46,6.8,2.23.3-.03.62.07,1.01.11-.29,1.57-1.33,2.36-2.65,2.67-2.31.55-4.17-.46-6.13-2.01,2.05.23,3.81.43,5.7.64Z"/>
      <path class="cls-1" d="M177.14,270.62c.21-.1.42-.2.62-.3.99-.37,1.94-.85,2.93.14.21.21.9-.08,1.36-.05.23.01.44.23.66.35-.03.12-.06.24-.09.36.55-.25,1.08-.6,1.66-.73.58-.13,1.2-.03,1.84.18-2.39,1.28-4.61,2.84-7.76,3.07.49-.47.73-.69.9-.86-2.05.36-4.14.73-6.23,1.1-.04-.11-.07-.21-.11-.32,1.41-.98,2.82-1.97,4.22-2.95Z"/>
      <path class="cls-1" d="M201.41,241.56c-.37-.07-.74-.15-1.11-.22-.03.06-.06.12-.09.18.52.3,1.05.6,1.63.94-.83,1.31-1.92,1.97-3.47,1.41-.94-.34-1.92-.64-2.75-1.17-1.39-.88-2.79-1.79-3.95-2.97.06-.1.13-.2.19-.29,1.85.94,3.69,1.88,5.81,2.95-1-2.62-3.45-2.97-4.96-4.45,2.32.61,4.2,2.37,6.84,2.36-1.11-1.09-2.22-2.18-3.32-3.27,2.17.97,3.42,3.01,5.37,4.23-.06.1-.13.21-.19.31Z"/>
      <path class="cls-1" d="M109.45,103.5c.25.46.42.79.57,1.07.67-1.17,1.5-2.3,1.99-3.57.47-1.22.59-2.57.91-4.08.94,1.94.86,3.78-.21,6.05-.85,1.81-1.79,3.58-2.88,5.75-.19-.84-.3-1.35-.48-2.12-.75,1.75-1.42,3.31-2.11,4.9-.68-.99-.66-.99.26-4.12.4-1.37.96-2.64,1.96-3.88Z"/>
      <path class="cls-1" d="M157.13,274.35c.25.1.53.33.73.27,1.86-.51,2.7,1.24,4.13,1.62-1.07.37-2.04.66-2.97,1.02-1.71.66-3.34.43-4.91-.41-2.74-1.47-4.74-3.71-6.53-6.17.07-.08.15-.16.22-.25.54.53,1.06,1.09,1.63,1.59,1.82,1.6,3.76,3,6.29,3.1.41.02,1.24.48,1.22-.58.06-.07.12-.13.18-.2Z"/>
      <path class="cls-1" d="M107.82,234.24c1.86-2.74,4.54-4.64,7.03-6.8-2.46.67-4.66,1.89-6.72,3.4.83-1.94,2.23-3.22,4.11-3.94.79-.3,1.64-.42,2.43-.73,1.11-.43,1.94-.17,2.67.93-3.05,2.51-6.11,5.04-9.16,7.56-.12-.14-.23-.29-.35-.43Z"/>
      <path class="cls-1" d="M127.37,39.53c-6.73,2.39-10.1,7.21-10.77,14.18-1.28-3.15-.48-6.03,1.19-8.65,2.2-3.45,5.6-5.06,9.58-5.53Z"/>
      <path class="cls-1" d="M277.77,231.26c5.08-.98,10.14-2.07,15.25-2.89,2.74-.44,5.58-.19,8.25-1.28-.37.98-1.22,1.22-1.99,1.36-3.68.71-7.38,1.38-11.08,2-1.98.33-3.98.54-5.98.75-1.46.15-2.93.21-4.4.3-.02-.08-.03-.17-.05-.25Z"/>
      <path class="cls-1" d="M155.94,181.38c1.11,3.13,1.24,6.39,1.14,9.69.13.01.26.02.39.03.21-1.52.42-3.04.64-4.55,1.42,4.67-.78,10.37-4.71,11.51.38-.61.64-1.03.91-1.44.56-.84,1.18-1.63,1.66-2.51.24-.43.3-1,.29-1.51-.02-1.21-.12-2.42-.22-3.63-.16-2-.35-3.99-.51-5.99-.04-.54,0-1.08,0-1.62.14,0,.27.02.41.03Z"/>
      <path class="cls-1" d="M250.56,202.62c-.25.26-.51.52-.76.79-.51.22-1.01.45-1.52.67.33-.47.65-.94.98-1.41,1.08-.83,2.31-1.53,3.22-2.53,2.36-2.58,4.73-5.17,6.83-7.96,2.43-3.24,4.05-6.94,5.34-10.93.04.48.21.99.11,1.45-.83,3.72-2.31,7.18-4.69,10.17-1.72,2.15-3.56,4.22-5.46,6.21-1.24,1.29-2.69,2.37-4.05,3.55Z"/>
      <path class="cls-1" d="M176.24,221.46c2.93,2.43,2.57,8.38-.78,10.47-.89.55-1.55,1.45-2.4,2.08-.8.59-1.66,1.16-2.58,1.49-.56.2-1.29-.05-1.97-.27,3.51-1.29,5.84-3.87,7.65-6.86,1.3-2.15,1.36-4.55-.05-6.81.04-.04.08-.07.12-.11Z"/>
      <path class="cls-1" d="M145.89,263.6c.26-.05.52-.09,1.09-.2-.35.73-.53,1.32-.87,1.79-2.58,3.54-1.14,8.21,1.31,10.62,1.72,1.69,3.95,2.19,6.25,2.41.88.09,1.77.01,2.65.18-2.1.84-4.2.7-6.26-.1-3.31-1.28-6.76-5.23-6.63-10,.02-.93.6-1.89,1.06-2.76.36-.7.93-1.29,1.4-1.93h.02Z"/>
      <path class="cls-1" d="M179.43,229.19c.24,3.69-.15,7.22-2.96,10.06-.25.25-.79.51-1.03.4-.55-.25-.31-.7-.12-1.2,1.03-2.59,1.96-5.21,2.96-7.81.2-.54.51-1.03.77-1.55.13.03.25.07.38.1Z"/>
      <path class="cls-1" d="M252.34,196.59c4.01-6.39,2.13-11.48-2.46-16.15,3.22,1.9,5.7,4.28,6.22,8.2.33,2.5-1.28,6.21-3.76,7.96Z"/>
      <path class="cls-1" d="M89.6,74.51c-.15-.38-.41-.75-.42-1.13-.13-3.64-.54-7.33.89-10.83.52-1.26,1.27-2.43,1.99-3.59.22-.36.7-.56,1.22-.72-1.03,2.61-2.34,5.06-2.6,7.87-.25,2.78-.57,5.54-.86,8.32-.08.02-.15.05-.23.07Z"/>
      <path class="cls-1" d="M343.88,168.34c1.87-.18,2.8.87,3.65,1.81,2.22,2.47,3.82,5.35,4.96,8.46.35.96.4,2.02.36,3.13-2.2-4.9-4.83-9.46-8.96-13.4Z"/>
      <path class="cls-1" d="M169.21,212.86c.77,5.51-5.06,11-10.84,10.06,5.12-1.96,9.21-4.68,10.84-10.06Z"/>
      <path class="cls-1" d="M202.27,243.07c.2-3.08-.04-5.89-1.36-8.54,1.63,1.71,2.41,3.81,2.86,6.07.11,0,.23.01.34.02.2-2.32.41-4.64.61-6.96.8,2.04,1.55,3.99.91,6.16-.48,1.61-1.38,2.68-3.36,3.26Z"/>
      <path class="cls-1" d="M320.38,186.81c-.74.85-1.11-.06-1.45-.4-.83-.8-1.55-1.72-2.33-2.57-.22-.24-.49-.45-.94-.49.92,1.22,1.83,2.44,2.75,3.66-.1.08-.2.17-.31.25-1.05-1.12-2.1-2.24-3.16-3.36-1.29-2.05-2.58-4.09-3.87-6.14.14-.25.28-.51.47-.85,2.59,2.98,5.08,5.85,7.58,8.72.17.19.41.33.61.49.22.23.43.46.65.69Z"/>
      <path class="cls-1" d="M171.51,205.1c-.05.47-.03.96-.17,1.4-.54,1.63-1.73,2.77-3.03,3.8-.54.43-1.12.75-.8,1.66.13.37-.08.99-.34,1.33-1.33,1.77-2.92,3.22-5.17,3.74-.13.03-.29-.05-.36-.06,1.22-1.2,2.5-2.37,3.67-3.64.43-.47,1.36-.96.58-1.9-.05-.06.13-.4.28-.5,2.04-1.39,3.28-3.43,4.45-5.51.1-.19.18-.39.27-.58.21.09.41.18.62.26Z"/>
      <path class="cls-1" d="M240.62,232.02c-.2-.07-.49-.08-.57-.22-.99-1.72-2.58-3.17-2.37-5.43-.1-.03-.2-.07-.3-.1-.33.63-.66,1.25-1,1.91-.74-1.76-.67-2.54.7-3.61,1.1-.87,2.39-1.5,3.77-2-.52,1.15-1.05,2.3-1.57,3.46-.77,1.71-.55,3.28.83,4.82.73-1.15,1.45-2.28,2.16-3.4.11,1.16-.58,1.98-1.04,2.89-.27.54-.42,1.13-.63,1.69l.02-.02Z"/>
      <path class="cls-1" d="M128.33,264.22c1.57.02,2.78-.85,4-1.66,1.53-1.01,3.02-2.06,4.73-2.91-.37.49-.74.98-1.12,1.47-.3.32-.61.63-.91.95-1.56.84-3.13,1.68-4.99,2.68,3.99.45,7.35-.86,10.81-1.62-1.88,1.38-4.08,1.82-6.25,2.39-2.28.59-4.38.04-6.53-.83.06-.12.16-.29.25-.47Z"/>
      <path class="cls-1" d="M249.27,202.66c-.33.47-.65.94-.98,1.41-.43.27-.86.53-1.28.8-.09-.08-.18-.15-.27-.23,1.62-1.9,3.03-3.86,3.54-6.39.52-2.61-.78-4.79-1.15-7.23,1.46,1.45,2.47,3.09,2.67,5.16.25,2.59-.96,4.6-2.52,6.48Z"/>
      <path class="cls-1" d="M211.33,242.22c-1.61-.49-2.55-1.45-2.59-2.99-.07-2.75,1.05-5.07,2.94-7.07-.21,3.3-1.86,6.52-.35,10.06Z"/>
      <path class="cls-1" d="M133.84,222.04c4.66.31,8.76-.87,12.79-3.04.4.38.31.94-.12,1.37-.47.48-1.02,1.05-1.63,1.2-2.65.65-5.22,1.71-8.02,1.56-1.05-.06-2.06-.28-3.02-1.09Z"/>
      <path class="cls-1" d="M153.91,65.71c-3.76,3.45-8.59,5.51-11.47,10.03-.35-1.6.61-2.63,1.49-3.62,1.95-2.23,4.46-3.73,7.06-5.08.95-.49,1.94-.89,2.92-1.33Z"/>
      <path class="cls-1" d="M255.2,177.45c2.17.63,4.11,1.59,4.74,4.05.45,1.79.85,3.6,1.05,5.43.09.85-.34,1.76-.6,2.92-.64-2.88-1.21-5.39-1.75-7.9-.33-1.53-1.07-2.73-2.55-3.41-.41-.19-.76-.53-1.13-.8.08-.1.16-.19.24-.29Z"/>
      <path class="cls-1" d="M291.63,209.05c.71.83,1.41,1.67,2.14,2.48.32.36.7.67.97,1.12-1.02.17-1.93.2-2.69-.5-2.36-2.14-4.45-4.52-6.27-7.13-.08-.11-.08-.28.08-.61.74.75,1.49,1.49,2.21,2.26.31.33.46.87,1.12.45.12-.07.56.32.82.53.56.46,1.1.94,1.65,1.42l-.02-.02Z"/>
      <path class="cls-1" d="M157.33,160.36c.26,3.56.52,7.13.78,10.73-1.07.44-1.46-.24-1.55-.99-.21-1.77-.41-3.56-.37-5.34.04-1.49.42-2.96.65-4.45l.49.05Z"/>
      <path class="cls-1" d="M90.43,229.5c-.75.48-1.5.97-2.25,1.46-.78.51-1.45,1.25-2.51.29-.66-.6-1.62-.86-1.55-2,.01-.18-.14-.37-.21-.51,1.46-.75,2.84-.59,4.24.03.35.15.82.03,1.23.08.37.04.73.15,1.1.23-.02.14-.03.29-.05.43Z"/>
      <path class="cls-1" d="M173.56,190.27c-1.02-1.64-2.2-3.21-3.02-4.94-.7-1.5-.17-3.1.55-4.55.11-.21.47-.3.97-.59,0,1.22.04,2.21-.01,3.18-.07,1.31.25,2.48.9,3.63.52.93.84,1.98,1.26,2.97-.22.1-.43.2-.65.3Z"/>
      <path class="cls-1" d="M68.56,240.47c-.53-1.82-.12-3.41.78-4.86.78-1.25,1.68-2.42,2.57-3.59.28-.37.66-.73,1.07-.91.29-.13.72.04,1.09.07-.08.32-.06.73-.26.95-.82.97-1.86,1.78-2.51,2.84-1.02,1.69-1.79,3.54-2.76,5.51Z"/>
      <path class="cls-1" d="M92.48,63.91c2.19,3.69,4.91,6.34,8.7,7.89-2.64,1.56-9.18-4.02-8.7-7.89Z"/>
      <path class="cls-1" d="M297.34,208.02c-1.42-2.58-3.54-4.58-5.59-6.63-.93-.93-1.97-1.76-2.95-2.63.14-.16.28-.32.42-.48.85.67,1.74,1.3,2.55,2.02,2.32,2.07,4.73,4.08,6.45,6.73.44.68.82,1.36.26,2.36-.27-.37-.46-.64-.66-.91-.16-.16-.31-.31-.47-.47Z"/>
      <path class="cls-1" d="M110.5,66.9c1.77.66,3.37,1.52,4.41,3.16.14.22.4.48.37.68-.09.67-.29,1.33-.45,2-.39-.29-.86-.52-1.15-.89-.88-1.14-2.07-1.79-3.33-2.36-.57-.26-1.14-.51-1.69-.88,1.41-.36,2.64.52,4.15.68-.48-1.25-1.62-1.59-2.3-2.4Z"/>
      <path class="cls-1" d="M221.78,244.17c4.29-1.54,8.36-3.41,10.72-7.68.09.06.18.12.27.18.03.27.19.64.07.81-1.29,1.75-2.15,3.89-4.28,4.88-1.2.56-2.44,1.02-3.7,1.43-.94.31-1.93.48-2.9.72-.06-.11-.12-.22-.18-.33Z"/>
      <path class="cls-1" d="M191.37,170.02c-1.74-5.21-1.62-10.38.62-15.46-.87,5.12-1.22,10.26-.62,15.46Z"/>
      <path class="cls-1" d="M73.9,242.51c-.17,0-.33,0-.5.01-.59-3.23.83-6.15,3.78-7.62.43-.21,1-.14,1.5-.2.04.13.08.25.13.38-.94.98-1.9,1.94-2.83,2.93-1.19,1.27-1.97,2.73-2.08,4.5Z"/>
      <path class="cls-1" d="M145.42,94.63c-.35,1.44-1.23,2.27-2.21,2.99-1.45,1.07-2.94,2.08-4.42,3.1-1.08.74-2.05,1.53-1.8,3.28-.89-1.57-.86-2.25.1-3.31.38-.43.85-.79,1.33-1.12,1.31-.9,2.67-1.73,3.97-2.64.98-.68,1.9-1.43,3.04-2.3Z"/>
      <path class="cls-1" d="M210.97,214.22c-.12-.13-.25-.25-.37-.38.17-1.35-.87-1.94-1.65-2.72-.74-.74-1.45-1.52-2.12-2.32-.21-.25-.25-.64-.12-1.15,2.59,2.43,5.18,4.85,7.76,7.28-.03.07-.05.15-.08.22-1.14-.31-2.28-.62-3.42-.93Z"/>
      <path class="cls-1" d="M249.27,270.54c0-1.62-.21-3.28.05-4.86.34-2.04-.06-3.75-1.3-5.33-.08-.11-.09-.27-.17-.53,1.51.14,2.35,1.13,2.54,2.28.46,2.88.02,5.71-1.12,8.44Z"/>
      <path class="cls-1" d="M96.96,76.53c-2.11.18-3.57,1.54-5.11,2.73-1.38,1.07-2.74,2.18-4.17,3.18-.85.6-1.82,1.06-2.94.95,2.3-1.74,4.49-3.52,6.82-5.11,1.59-1.08,3.25-2.23,5.39-1.75Z"/>
      <path class="cls-1" d="M157.2,92.28c4.65,1.35,7.62,4.63,10.63,7.86-.07.09-.14.19-.22.28-1.05-.91-2.1-1.84-3.17-2.74-1.88-1.58-3.9-2.92-6.2-3.81-.55-.22-1.3-.35-1.05-1.59Z"/>
      <path class="cls-1" d="M95.3,75.39c-2.14.64-3.93,1.74-5.68,2.94-1.18.81-2.34,1.66-3.61,2.28-.97.48-2.08.71-3.16.88-.47.08-1-.27-1.49-.64,1.75.77,3.07-.13,4.38-.99,1.02-.66,1.94-1.5,3.01-2.05,1.68-.86,3.44-1.57,5.19-2.28.41-.17.9-.1,1.36-.14Z"/>
      <path class="cls-1" d="M192.73,167.25c-1.4-4.03-1.28-8.08.03-12.16.67,1.26-.05,2.55.03,3.83.09,1.43-.04,2.87,0,4.3.04,1.34.17,2.68.26,4.02-.11,0-.22,0-.33,0Z"/>
      <path class="cls-1" d="M200.08,252.45c.58,1.11.19,1.75-.33,2.38-1.52,1.82-4.39,3.29-7.06,3.46,2.7-1.53,5.35-3.13,7.39-5.84Z"/>
      <path class="cls-1" d="M160.66,160.02c.13-4.52,1.47-8.78,2.59-13.09.24,4.59-1.53,8.77-2.59,13.09Z"/>
      <path class="cls-1" d="M174.59,70.63c-1.51,1.74-3.23,3.17-5.56,3.66-.76.16-1.54.18-2.37.04,2.59-1.47,5.18-2.93,7.86-4.46.02.28.04.53.07.78v-.02Z"/>
      <path class="cls-1" d="M156.96,274.55c-2.18-1.25-3.18-3.34-3.93-5.57-.56-1.67-.98-3.4-1.47-5.17,1.27,1.09,1.89,2.55,2.27,4.11.58,2.43,1.7,4.55,3.31,6.43-.06.07-.12.13-.18.2Z"/>
      <path class="cls-1" d="M126.68,105.42c.92,1.74-.17,6.21-2.37,9.71-.21-1.22,1.07-6.46,2.37-9.71Z"/>
      <path class="cls-1" d="M127.63,109.47c.72-1.19,1.34-2.45,2.18-3.54.83-1.08,1.22-2.17,1.05-3.51-.05-.35.04-.72.07-1.2,1.82,3.23.45,6.15-3.29,8.25Z"/>
      <path class="cls-1" d="M207.57,233.36v8.43c-1.07-.22-1.3-.99-1.35-1.66-.19-2.3-.31-4.61,1.35-6.77Z"/>
      <path class="cls-1" d="M216.44,277.39c-.79.7-1.72.8-2.67.22-.45-.27-.88-.61-1.23-.99-1.26-1.36-2.49-2.74-3.71-4.13-.15-.17-.21-.43-.08-.85.49.42,1,.84,1.47,1.28,1.55,1.43,2.89,3.12,4.9,3.97.38.16.79.25,1.18.37.04.05.09.1.14.14Z"/>
      <path class="cls-1" d="M263.26,174.63c-1.16-1.42-2.33-2.84-3.48-4.27-.45-.56-.87-1.16-1.31-1.74.07-.11.15-.22.22-.33.41.21.91.34,1.21.65,1.24,1.28,2.48,2.59,3.61,3.96.43.52.9,1.32-.28,1.7l.02.02Z"/>
      <path class="cls-1" d="M164.52,229.7c-1.61-2.8-1.04-5.27,1.65-6.82-.03.57.02,1-.1,1.37-.29.9-.72,1.76-.99,2.66-.25.84-.36,1.73-.57,2.79Z"/>
      <path class="cls-1" d="M115.1,96.35c-1.04-3.13-1.78-6.17-4.78-8.12,2.65-.41,5.87,5.3,4.78,8.12Z"/>
      <path class="cls-1" d="M311.07,177.75c1.29,2.05,2.58,4.09,3.87,6.14.69,1.16,1.38,2.31,2.11,3.52-1.59-.9-6.21-7.8-6.87-10.3.36.26.63.45.89.64Z"/>
      <path class="cls-1" d="M77.65,230.61c-1.77,2.13-3.26,3.92-4.74,5.7-.1-.07-.21-.14-.31-.21.71-2.07,1.51-4.12,3.54-5.39.33-.21.88-.07,1.52-.11Z"/>
      <path class="cls-1" d="M320.38,186.81c-.22-.23-.43-.46-.65-.69-1.03-1.39-2.08-2.78-3.1-4.18-.41-.57-.76-1.19-.95-1.91,2.63,2.47,4.8,5.3,6.9,8.18l-.24.24c-.65-.55-1.3-1.1-1.96-1.65Z"/>
      <path class="cls-1" d="M215.19,212.66c-2.23-.23-6.48-4.39-6.99-7.05,2.37,2.39,4.75,4.8,6.99,7.05Z"/>
      <path class="cls-1" d="M149.11,104.83c-.29,1.69-1.08,2.46-2.72,2.81-2.31.49-4.5-.08-5.38-1.4,3.34,1.1,5.26.79,8.1-1.4Z"/>
      <path class="cls-1" d="M319.49,181.51c2.51,1.71,3.69,4.25,5.81,6.26-1.89-.21-5.24-3.87-5.81-6.26Z"/>
      <path class="cls-1" d="M135.05,91.06c-1.36,1.36-2.75.74-4.08.37-1.3-.36-1.67-1.45-1.92-2.58,1.53,1.65,3.65,1.5,5.56,1.93.09.02.17.1.44.28Z"/>
      <path class="cls-1" d="M168.81,160.35c.12.45.4.92.35,1.35-.31,2.4-.69,4.79-1.06,7.24-.76-1.19-.6-4.96.32-8.48.13-.04.27-.07.4-.11Z"/>
      <path class="cls-1" d="M137.91,173.05c.2-1.39.42-2.78.59-4.18.16-1.36.27-2.72.54-4.09.81,1.32.51,2.8.4,4.18-.12,1.43-.3,2.91-1.14,4.16-.13-.03-.26-.05-.39-.08Z"/>
      <path class="cls-1" d="M234.11,267.96c1.37,3.83,3.57,6.55,7.11,8.36-3.06.11-7.35-4.87-7.11-8.36Z"/>
      <path class="cls-1" d="M297.34,208.02c.16.16.31.31.47.47-.05.2-.1.4-.21.81-3.01-1.83-4.51-4.91-6.95-7.09.1-.11.21-.21.31-.32.84.81,1.68,1.63,2.53,2.44,1.28,1.23,2.57,2.46,3.85,3.69Z"/>
      <path class="cls-1" d="M315.38,187.61c-2.2-2.76-5.02-5.08-5.81-8.79,2.02,2.87,4.05,5.74,6.07,8.61-.09.06-.17.12-.26.17Z"/>
      <path class="cls-1" d="M291.65,209.07c-.3-.53-.6-1.05-.96-1.67,1.39.33,4.65,3.31,5.4,4.95-1.87-.78-3.08-2.16-4.46-3.29l.02.02Z"/>
      <path class="cls-1" d="M201.08,254.68c.6,1.88-1.61,4.91-4.31,5.8,1.44-1.94,2.87-3.86,4.31-5.8Z"/>
      <path class="cls-1" d="M296.83,210.96c-2.37-1.74-4.21-3.99-6.25-6.39,1.58.57,5.22,4.24,6.25,6.39Z"/>
      <path class="cls-1" d="M164.42,210.41c-1.28,2.62-3.3,3.42-5.06,2.15,1.73-.74,3.4-1.44,5.06-2.15Z"/>
      <path class="cls-1" d="M210.97,203.57c2.04,2.23,4.08,4.46,6.01,6.56-.89.07-1.75-.51-3.45-2.57-1-1.2-1.97-2.43-2.95-3.65.13-.12.27-.23.4-.35Z"/>
      <path class="cls-1" d="M152.34,253.97c.19.52.62,1.09.53,1.56-.4,2.09-1,4.13-2.42,5.8-.05.06-.17.04-.2.05.64-2.4,1.28-4.83,1.92-7.27.06-.05.12-.09.17-.14Z"/>
      <path class="cls-1" d="M244.01,255.35c.35-.59.88-.78,1.46-.44,1.55.91,2.72,2.17,3.3,3.94-1.56-1.15-3.12-2.29-4.76-3.5Z"/>
      <path class="cls-1" d="M263.1,152.58c1.48,2,2.92,4.02,3.54,6.48-1.75-1.85-2.95-3.99-3.54-6.48Z"/>
      <path class="cls-1" d="M164.43,249.37c1.54-2.26,4.62-1.39,7.42.3-2.4-.27-4.76-1.27-7.42-.3Z"/>
      <path class="cls-1" d="M136.46,84.65c-1.72-.97-1.99-.89-2.64.58-.27.62-.49,1.26-.75,1.95-.44-1.29-.25-2.96.4-3.85.49-.68,1.22-.8,1.92-.29.17.12.32.28.44.45.17.26.3.54.64,1.16Z"/>
      <path class="cls-1" d="M262.33,177.2c-1.16-1.25-2.31-2.51-3.47-3.76.08-.08.16-.15.23-.23,2.13,1.49,4.01,3.23,5.62,5.27-.08.11-.16.21-.25.32-.61-.42-1.23-.85-1.84-1.27-.1-.11-.2-.22-.31-.33Z"/>
      <path class="cls-1" d="M156.58,216.37c-.26,1.95-2.09,2.59-5.61,2.2,1.81-.71,3.67-1.43,5.61-2.2Z"/>
      <path class="cls-1" d="M243.92,199.93c1.37,1.35,1.13,4.48-.51,6,.18-2.07.34-3.94.51-6Z"/>
      <path class="cls-1" d="M263.24,174.61c.44.68.88,1.37,1.32,2.05-.1.07-.2.15-.3.22-1.93-2.06-3.87-4.13-5.8-6.19.1-.1.2-.2.3-.31,1.5,1.41,3,2.83,4.5,4.24l-.02-.02Z"/>
      <path class="cls-1" d="M306.21,197.46c2.38-1.96,4.88-.99,7.33-.59-2.35.19-4.71.38-7.33.59Z"/>
      <path class="cls-1" d="M213.69,203.76c1.76,1.72,3.58,3.49,5.19,5.07-1.97-1.22-3.98-2.81-5.19-5.07Z"/>
      <path class="cls-1" d="M309.29,204.01c1.97-1.17,3.94-2.35,6-3.57-.34,1.29-3.9,3.54-6,3.57Z"/>
      <path class="cls-1" d="M262.33,177.2c.1.11.2.22.31.33.38.61.76,1.23,1.14,1.84-.07.07-.14.15-.2.22-1.69-1.55-3.37-3.11-5.06-4.66.09-.12.18-.24.27-.36.41.26.85.49,1.23.79.78.6,1.54,1.23,2.31,1.85Z"/>
      <path class="cls-1" d="M321.86,181.36c1.25,1.79,2.5,3.58,3.76,5.37-.12.08-.24.17-.36.25-1.64-1.52-2.99-3.25-3.79-5.37.13-.08.26-.17.39-.25Z"/>
      <path class="cls-1" d="M130.84,92.08c.65,1.73-.64,3.25-3.13,3.45,1.09-1.2,2.08-2.3,3.13-3.45Z"/>
      <path class="cls-1" d="M263.38,150.81c1.52,1.27,2.54,2.88,3.13,4.77-.12.08-.24.16-.36.25-1.05-1.57-2.1-3.15-3.15-4.72.13-.1.26-.19.39-.29Z"/>
      <path class="cls-1" d="M217.83,250.79c-2.24.89-4.14.46-5.56-1.21,1.86.4,3.58.78,5.56,1.21Z"/>
      <path class="cls-1" d="M243.33,262.26c-1.27-2.34-2.54-4.66-3.88-7.13.29.07.68.05.76.19,1.11,2.2,2.19,4.43,3.26,6.66.03.05-.08.17-.13.28Z"/>
      <path class="cls-1" d="M205.05,250.36c-1.44,1.03-2.73,1.96-4.03,2.89.04-1.85,1.79-3.18,4.03-2.89Z"/>
      <path class="cls-1" d="M142.24,198.63c.19,1.79-1.27,3.37-3.42,3.9,1.17-1.33,2.19-2.5,3.42-3.9Z"/>
      <path class="cls-1" d="M211.59,253.38c.01.14.03.27.04.41-.04.16-.07.33-.11.49-1.28-.85-2.3-1.9-2.85-3.61,1.14.09,1.46.81,1.89,1.42.32.45.69.86,1.03,1.29Z"/>
      <path class="cls-1" d="M143.83,198.85c.77,1.71.1,3.02-2.01,4.05.68-1.38,1.3-2.62,2.01-4.05Z"/>
      <path class="cls-1" d="M277.23,160.06c-1.12-1.75-2.25-3.5-3.51-5.47,1.41.61,3,3.05,3.51,5.47Z"/>
      <path class="cls-1" d="M278.16,227.67c.14-1.06.28-2.12.44-3.37,1.18,1.05,1.1,2.12,0,3.44-.15-.02-.29-.05-.44-.07Z"/>
      <path class="cls-1" d="M276.68,228.42c-.05-1.35-.3-2.5.76-3.39.8,1.24.63,2.16-.76,3.39Z"/>
      <path class="cls-1" d="M280.39,227.16c-.43-1.29.08-2.29.56-3.42.89.97.66,2.17-.56,3.42Z"/>
      <path class="cls-1" d="M283.77,224.3c-.22.83-.42,1.67-.69,2.48-.06.17-.4.26-.61.38-.14-.25-.44-.56-.38-.74.27-.8.65-1.56.99-2.34.23.07.46.15.68.22Z"/>
      <path class="cls-1" d="M285.38,223.4c.31,1.37-.02,2.29-.9,3.1-.6-1.05-.39-1.84.9-3.1Z"/>
      <path class="cls-1" d="M145.58,216.99c1.76.16,3.52.32,5.65.51-2.22.91-3.97.36-5.65-.51Z"/>
      <path class="cls-1" d="M275.72,228.91c-.67-1.19-.08-2.27.17-3.69.9,1.47.27,2.58-.17,3.69Z"/>
      <path class="cls-1" d="M363.24,212.13c-.92.58-1.74,1.1-2.71,1.72-.08-1.05.58-1.36,1.14-1.74.46-.32.93-.75,1.57.02Z"/>
      <path class="cls-1" d="M287.62,224.05c-.26.77-.51,1.55-.83,2.51-.83-1.38-.71-1.85.44-2.67.13.05.26.1.39.16Z"/>
      <path class="cls-1" d="M113.22,73.24c-.98-.74-1.96-1.48-2.94-2.22.08-.1.15-.21.23-.31,1.25.36,2.19,1.15,3.02,2.11-.1.14-.2.29-.3.43Z"/>
      <path class="cls-1" d="M87.77,210.71c-3.91,1.6-7.26,4.27-11.36,5.93,1.01-3.55,7.67-7.03,11.36-5.93Z"/>
      <path class="cls-1" d="M95.05,212.7c-4.04,1.79-8.27,2.92-12.65,3.53,4.18-1.31,8.23-3.04,12.65-3.53Z"/>
      <path class="cls-1" d="M57.3,222.8c-.39-1.02-.7-2-1.14-2.91-.42-.86-.99-1.65-1.6-2.66,2.63,1.36,3.98,4.38,2.74,5.57Z"/>
      <path class="cls-1" d="M56.17,222.54c-.82-1.36-1.64-2.72-2.49-4.13,1.3-.05,2.87,2.32,2.49,4.13Z"/>
    </g>
  </g>
</svg>