<?xml version="1.0" encoding="UTF-8"?>
<svg id="Layer_1" xmlns="http://www.w3.org/2000/svg" viewBox="0 0 395.83 159.43">
  <defs>
    <style>
      .cls-1 {
        fill: #a61e2f;
      }
    </style>
  </defs>
  <g id="Letokp">
    <g>
      <path class="cls-1" d="M342.03,102.82c.76-.36,1.5-.76,2.27-1.06,5.27-2.05,6.77-6.73,7.84-11.56.49-2.2-.92-3.48-3.27-3.5-10.21-.06-20.42-.05-30.62-.16-9.55-.1-19.1-.34-28.65-.49-2.69-.04-5.38,0-8.07-.22,23.77-.58,47.53-.82,71.4-.86-.53,2.78-.23,3.12,2.18,3.05,2.9-.09,5.11-1.24,6.04-4.17.55-1.75,1.2-3.5,1.47-5.31.34-2.27,0-2.54-2.25-2.51-8.24.11-16.47.28-24.71.38-4.09.05-8.22-.35-12.25.14-3.49.42-6.89-.31-10.36.03-3.58.35-7.23,0-10.85-.03-.39,0-.82.03-1.17-.1-.32-.12-.56-.45-.84-.69.31-.27.57-.68.93-.79.49-.15,1.04-.09,1.57-.09,4.73,0,9.46,0,14.38,0-7.22-6.15-29.01-3.17-34.66,4.83,19.05.2,37.89.4,56.72.6,0,.29,0,.58,0,.87-4.25,0-8.5-.02-12.76,0-20.42.11-40.85.23-61.27.35-.26,0-.57.1-.78-.01-.58-.3-1.11-.67-1.66-1.02.54-.25,1.08-.71,1.62-.72,4.22-.03,8.43-.03,12.65.07,1.54.04,2.46-.2,3.09-1.9,1.68-4.51,5.74-6.67,9.71-8.64,4.57-2.27,9.4-2.41,14.45-1.36,3.24.68,6.67.51,10.02.57,10.6.18,21.21.29,31.82.42.39,0,.78-.05,1.74-.11-2.03-2.2-4.05-3.56-6.61-4.07-3.47-.7-6.94-.87-10.31.51-1.27.52-2.36.54-3.37-.66-.33-.39-1.19-.46-1.81-.46-8.17,0-16.37-.4-24.48.26-4.03.33-7.75-1.45-11.65-.63-3.34.7-6.63,1.6-9.94,2.42-.44.11-.87.48-1.29.47-.72-.03-1.43-.27-2.15-.42.14-.66.25-1.33.45-1.97.09-.29.37-.52.69-.94-1.97-1.17-4.02-.58-5.98-.69-.88-.05-1.74-.4-2.62-.61-.44-.1-.89-.29-1.33-.27-4.17.18-8.28.59-11.92,2.99-1.58,1.04-3.26,1.93-4.87,2.88-1.56-2.06-1.28-3.2.81-4.61,5.55-3.75,11.66-4.62,18.14-3.73.71.1,1.41.17,2.24.26-.42-1-.77-1.85-1.17-2.81-8.49.18-17.11.89-25.7-.28,8.31-1.3,16.65-.38,25-.44-1.19-2.93-1.94-3.34-5.01-3.29-8.9.15-17.79.26-26.69.33-1.74.01-3.2.21-4.62,1.52-1.1,1.02-2.95,1.2-4.23,2.09-1.37.96-2.56,2.23-3.66,3.51-1.2,1.39-2.34,2.87-3.25,4.45-.81,1.39-1.27,2.99-2.04,4.86-1.52.25-3.72.36-5.75.99-3.06.95-6.07,2.12-8.98,3.47-2.44,1.13-4.66,2.72-7.05,3.98-2.54,1.34-4.88,2.84-6.39,5.4-.55.94-1.28,1.13-2.58.96-2.35-.3-4.79.11-7.19.31-.89.07-1.76.37-2.64.56-.6-3.03.33-3.98,3.7-4.26,2.16-.18,4.3-.52,6.45-.84.39-.06.75-.35,1.08-1.04-.64-.09-1.28-.24-1.92-.25-6.39-.03-12.78-.06-19.18,0-.71,0-1.8.48-2.04,1.03-1.39,3.18-3.77,4.04-7.1,4.69-3.25.64-6.24,2.92-9.2,4.73-2.55,1.56-4.88,3.48-7.45,5.04.89-3.98,3.31-6.78,6.45-9.05-.05-.2-.11-.4-.16-.6h-28.18c-.01-.27-.03-.53-.04-.8,1.57-.15,3.15-.41,4.72-.42,7.44-.05,14.88-.07,22.32,0,2.16.02,4.35.49,6.32-1.89-13.08-.04-25.81.29-38.52-.26,0-.24,0-.49,0-.73,2.05-.12,4.09-.33,6.14-.34,9.62-.04,19.23-.06,28.85.02,2.07.02,4.16.42,6.21.79,1.95.35,3.28-.47,3.92-2.39.41-1.22,1.1-2.34,1.7-3.59-12.67,1.8-25.28.79-37.87.75-.01-.25-.02-.49-.03-.74,2.92-.06,5.85-.14,8.77-.18,3.03-.04,6.06-.04,9.1-.04,3.02,0,6.03,0,9.07,0,.2-1.97-.33-2.65-2.39-2.61-7.18.17-14.37.08-21.55.06-.71,0-1.43-.18-2.14-.68h25.49c.68-1.94-.06-2.39-1.68-2.39-8.11.02-16.21,0-24.32-.05-1.77-.01-3.54-.25-5.32-.84h31.05c-1.47-3.04-6.92-4.75-9.62-3.98-2.37.68-4.95.7-7.45.79-3.28.13-6.58.1-9.87.03-6.06-.13-12.11-.38-18.17-.47-.96-.01-2.07.36-2.88.89-3.1,2.03-4.6,5.33-6.36,8.42-.51.9-1.27,1.67-1.8,2.56-.4.66-.66,1.41-.9,2.15-.28.88-.57,1.45-1.64.79-.75-.47-1.61-.96-2.46-1.06-5.23-.59-10.44-.65-15.25,1.91-1.66.88-3.16,2.12-4.63,3.32-1.17.96-2,1.09-3.45.22-3.78-2.26-8.09-2.75-12.41-2.49-10.36.61-18.31,5.24-23.39,14.47-.6,1.1-1.28,2.15-1.96,3.2-.75,1.17-1.51,1-2.33,0-1.15-1.39-.92-2.82-.19-4.25,7.59-14.86,23.45-20.4,37.16-15.27,3.04,1.14,4.5.47,6.64-1.12,4.26-3.17,9.22-3.68,14.34-2.97,2.2.3,4.37.8,6.22,1.15,1.12-3.04,2.09-6.01,3.29-8.88,2.65-6.35,7.89-9.81,14.18-11.59,6.35-1.79,12.86-2.66,19.48-.97,2.1.54,3.88,1.41,5.01,3.2,1.07,1.7,2.42,2.06,4.32,1.9,3.85-.33,7.72-.78,11.47.94,4.01,1.84,6.63,4.71,7.42,9.06.26,1.45.69,2.19,2.35,2.18,1.49,0,2.98.44,4.46.74,2.2.45,3.37-.12,4.62-1.98.5-.74,1.28-1.57,2.09-1.78,4.07-1.04,8.18-1.9,12.29-2.79,1.02-.22,2.07-.33,3.22-.51-.34-2.16,1.47-2.51,2.73-3.29,2.73-1.69,5.52-3.29,8.25-4.99,1.63-1.01,2.49-2.4,2.89-4.42,1.06-5.29,4.62-8.7,9.29-11.1,5.23-2.69,10.57-5.04,16.45-5.98.88-.14,1.74-.87,2.45-1.5,1.47-1.32,2.76-2.83,4.24-4.13,4.08-3.59,9.06-4.65,14.3-4.88,1.51-.07,3.04.02,4.55-.11,3.59-.29,6.78.72,9.64,2.81,3.45,2.53,6.97,5,9.26,8.78.6.98,2.24,1.32,1.87,2.96-.01.06,1,.5,1.52.49,7.63-.26,13.38,3.44,18.16,8.88,1.28,1.46,1.84,3.56,2.85,5.61.36-.21.95-.54,1.52-.91,5.62-3.57,11.82-5.11,18.41-5.06,3.93.03,7.18,1.56,9.3,5.03,1.13,1.85,2.34,3.67,3.33,5.59.58,1.13,1.25,1.36,2.37,1.06,1.39-.38,2.79-.84,4.22-.98,5.47-.53,10.09,1.46,13.97,5.18,1.04,1,2.1,1.21,3.44,1.47,3.58.68,7.58.23,10.27,3.65,3.82,4.84,4.04,14.63.15,19.36-.71.86-2.07,1.34-3.22,1.64-1.04.27-2.21.06-2.9.06-.82,2.61-1.59,5.09-2.52,8.06h16.42c0,.38-.01.75-.02,1.13-3.99,0-7.98,0-11.98,0-1.65,0-3.3-.09-4.94-.02-.75.03-1.49.37-2.23.56.04.23.08.45.11.68,1.6,0,3.21-.01,4.81,0,3.29.03,6.59.03,9.88.16.56.02,1.1.62,1.64.95-.55.24-1.1.71-1.65.7-6.31-.12-12.62-.33-18.93-.47-1.22-.03-2.44.12-3.65.19-.04-.18-.09-.37-.13-.55ZM313.3,70.41c.01.14.02.28.04.42,1.94,1.23,3.86,2.47,5.82,3.67.38.23.85.44,1.28.44,5.4.03,10.8.16,16.18-.02,6.94-.23,13.88-.74,20.82-1.09,1.01-.05,2.02.08,3.03.13.09-.19.18-.38.27-.57-.7-.44-1.36-1.15-2.11-1.26-2.06-.29-4.15-.31-6.23-.49-.81-.07-1.97.03-2.35-.45-1.25-1.56-2.83-1.4-4.48-1.36-8.09.21-16.17.41-24.26.57-2.67.06-5.33,0-8,0ZM265.7,51.68c.06-.11.12-.23.18-.34-.7-.35-1.36-.8-2.09-1.05-3.93-1.32-7.88-1.32-11.8.03-1.24.42-2.23.4-2.67-1.04-.37-1.22-1.24-1.3-2.32-1.3-11.39.06-22.78.08-34.17.1-2.34,0-3.93,1.22-4.64,3.59h57.51ZM200.03,71.62c-.06-.15-.11-.3-.17-.45-.57-.03-1.15-.1-1.72-.07-5.71.26-11.43.46-17.12.07-2.71-.19-4.91.46-6.96,2.04-1.2.92-2.42,1.82-3.56,2.81-.5.43-.83,1.06-1.37,1.78.59.12.83.21,1.08.2,5.91-.04,11.85-.44,17.73-.01,3.32.24,5.41-.93,7.55-3.03,1.33-1.3,3.01-2.25,4.54-3.35ZM226.28,53.15c-.22-.01-.87-.05-1.51-.07-4.79-.11-9.59-.18-14.38-.33-3.66-.11-3.66-.15-5.11,3.19-.83,1.89-.53,2.38,1.47,2.43,3.47.09,6.94.23,10.41.27,1.55.02,3.5.39,4.57-.38,1.84-1.33,3.12-3.43,4.56-5.11ZM220.66,59.6c-.21-.06-.45-.2-.7-.19-4.93.04-9.87.01-14.79.17-2.44.08-4.32,1.15-4.58,3.97-1.68-1.4-2.43-.06-3.71.83.59.16.77.25.95.26,6.97.06,13.95.14,20.92.11.45,0,1.17-.71,1.31-1.22.34-1.24.42-2.56.61-3.91ZM325.21,61.81c-.99-2.6-1.98-3.24-4.52-3.26-6.57-.05-13.13-.12-19.69-.28-2.04-.05-4.31,1.1-5.58,3.55,10.09-.8,19.89,2.12,29.8,0ZM107.09,63.35c.05.12.1.25.15.37h25.05c-.48-1.04-.82-1.95-1.31-2.78-.34-.57-.82-1.37-1.34-1.46-1.86-.3-3.75-.39-5.64-.47-1.68-.08-3.45-.36-5.04,0-2.93.68-5.79,1.73-8.64,2.72-1.13.39-2.16,1.06-3.24,1.6ZM244.58,39.57c-.06.14-.12.27-.18.41.74.63,1.63,1.14,2.19,1.9,1.17,1.59,2.65,1.83,4.49,1.75,3.54-.16,7.1-.11,10.65-.13,2.7-.01,5.39,0,8.09,0,.02-.22.05-.45.07-.67-1.14-1.18-.74-3.65-3.51-3.5-4.2.23-8.42.2-12.63.24-3.06.03-6.12,0-9.18,0ZM267.87,38.26c-1.13-2.02-2.25-2.91-4.17-2.9-9.09.03-18.18-.05-27.27-.04-.67,0-1.34.37-2.01.57.03.18.05.36.08.54,2.66.63,5.3,1.72,7.97,1.81,7.31.24,14.62.05,21.94.03,1.02,0,2.04,0,3.47,0ZM237.36,34.07h26.14c-6.2-5.48-19.9-5.46-26.14,0ZM219.16,66.37c-.02-.21-.04-.43-.06-.64-1.1,0-2.21,0-3.31,0-6.05.03-12.1.24-18.14.04-3.37-.11-5.14,2.02-7.7,4.03.95.15,1.44.29,1.94.3,3.42.03,6.84.07,10.26.03.76,0,1.58-.22,2.27-.54,4.19-1.93,8.61-2.77,13.18-2.96.52-.02,1.04-.17,1.57-.25ZM247.63,46.93c.06-.15.12-.31.18-.46-1.75-.72-3.47-2-5.24-2.05-7.83-.21-15.68-.09-23.52-.05-2.03,0-3.8.72-5.19,2.56h33.77ZM290.57,53.58c-.59-3.13-2.27-4.53-4.85-4.3-3.43.31-6.86.7-10.29,1.05-1.66.17-3.33.31-5.22.49.95,1.83,1.86,2.93,3.87,2.82,2.69-.15,5.4-.06,8.09-.07,2.74,0,5.49,0,8.4,0ZM321.52,57.33c-4.16-5.73-13.38-4.18-19.81,0h19.81ZM273.19,54.99c1.55,2.83,3.14,3.6,5.97,3.28,2.67-.3,5.35-.57,8.04-.67,1.22-.04,2.46.36,3.75.57.79-2.43.18-3.39-2.22-3.37-4.46.05-8.92-.01-13.39,0-.68,0-1.37.12-2.15.19ZM284.63,47.93c.02-.2.04-.39.06-.59-6.89-3.2-14.1-1.4-21.27-1.14,1.19.78,2.44,1.63,3.71,1.66,5.83.15,11.66.06,17.49.06ZM239.58,43.15c-4.07-3.79-14.92-2.81-18.15,0h18.15Z"/>
      <path class="cls-1" d="M281.59,73.5c-.87-.15-1.76-.2-2.59-.46-4.41-1.39-8.91-1.52-13.15.17-3.31,1.32-6.3,3.47-9.42,5.26-.87.5-1.87,1.71-2.65.48-.39-.61.05-2.24.65-2.94,5.88-6.85,17.12-9.08,25.3-5.08.82.4,1.45,1.16,2.17,1.76-.1.27-.21.54-.31.8Z"/>
      <path class="cls-1" d="M305.68,102.68c-4.58,1.04-49.1,1.11-51.41-.04.86-.28,1.38-.6,1.91-.6,7.51-.04,15.02-.07,22.53-.02,7.43.05,14.87.17,22.3.3,1.41.02,2.81.21,4.67.37Z"/>
      <path class="cls-1" d="M345.78,90.74c-1.86,0-3.73-.02-5.59,0-12.83.17-25.66.36-38.5.53-.52,0-1.09.05-1.57-.11-.53-.18-.99-.58-1.48-.88.53-.25,1.07-.72,1.6-.72,9.35.02,18.7.07,28.05.17,5.4.06,10.79.24,16.19.37.43.01.86.05,1.29.08,0,.18,0,.36,0,.55Z"/>
      <path class="cls-1" d="M40.68,96.3h39.59c-2.84,1.42-38,1.41-39.59,0Z"/>
      <path class="cls-1" d="M93.21,94.85h-51.25c1.58-1.19,46.35-1.4,51.25,0Z"/>
      <path class="cls-1" d="M228.35,124.59c-18.64.64-37.29.51-55.93.52,0-.34,0-.68,0-1.02,18.64-.14,37.28-.01,55.93.5Z"/>
      <path class="cls-1" d="M258.29,106.27h45.77c0,.22,0,.44,0,.67h-45.82c.02-.22.03-.44.05-.67Z"/>
      <path class="cls-1" d="M208.65,95.95c-12.78.21-25.56.42-38.34.63-.05-.16-.1-.33-.15-.49.43-.2.85-.56,1.28-.57,4.14-.15,8.28-.17,12.41-.37,7.39-.36,14.78-.82,22.21-.98-2.13.21-4.26.42-6.4.63,0,.17.01.34.02.51h8.89c.03.21.05.43.08.64Z"/>
      <path class="cls-1" d="M339.1,114.99c2.91-1.74,24.82-1.59,26.56.21-8.86,1.27-17.71.48-26.56-.21Z"/>
      <path class="cls-1" d="M279.16,111.03c13.07-.31,26.15-.17,39.22.61-13.07.29-26.15.96-39.22.4,0-.34,0-.67,0-1.01Z"/>
      <path class="cls-1" d="M340.51,106.15c3.04-1.58,23.37-1.51,25.81.07-8.6,1.04-17.21.84-25.81-.07Z"/>
      <path class="cls-1" d="M265.21,113.62c-10.34.42-20.69.57-31.03.07,1.35-1.49,28.32-1.42,31.03-.07Z"/>
      <path class="cls-1" d="M143.1,105.36c9.57-.58,19.13-.49,28.7.11-2.43,1.4-26.47,1.4-28.7-.11Z"/>
      <path class="cls-1" d="M364.93,111.52c-8.88.81-17.27.3-25.66-.33,3.59-1.52,23.66-1.33,25.66.33Z"/>
      <path class="cls-1" d="M181.79,117.73c-11.92.8-23.81.67-35.7.63,0-.36,0-.71,0-1.07,11.91-.3,23.82.04,35.7.43Z"/>
      <path class="cls-1" d="M38.41,90.26h53.05c0,.13,0,.25,0,.38h-53.06c0-.13,0-.25,0-.38Z"/>
      <path class="cls-1" d="M53.55,101.67c2.24-1.15,21.58-.91,22.78.28-2.3,1-21.08.77-22.78-.28Z"/>
      <path class="cls-1" d="M142.91,88.45c-8.81.87-17.61.76-26.41.06,8.81-1.16,17.61-.73,26.41-.06Z"/>
      <path class="cls-1" d="M214.16,128.31c-4.64.94-27.31.83-29.14-.05,1.2-.91,24.66-.95,29.14.05Z"/>
      <path class="cls-1" d="M197.99,98.88h-31.22c1-1.34,21.39-1.55,31.22,0Z"/>
      <path class="cls-1" d="M182.78,102.22c-3.1,1.26-25.52,1.14-27.59-.24,9.55-.7,18.57-.1,27.59.24Z"/>
      <path class="cls-1" d="M283.25,115.26c2.48-1.02,21.59-1.06,25.69-.17-1.93.97-21.85,1.16-25.69.17Z"/>
      <path class="cls-1" d="M134.42,90.51c-2.8,1.37-18.7,1.14-20.59-.37,7.21-.31,13.91-.32,20.59.37Z"/>
      <path class="cls-1" d="M241.66,117.51c8.04-.5,16.09-.34,24.65-.06-2.6,1.18-22.73,1.23-24.65.06Z"/>
      <path class="cls-1" d="M244.6,90.24c-5.61,1.15-19.05,1.01-21-.32,7-.49,14-.42,21,.32Z"/>
      <path class="cls-1" d="M153.09,114.42h26.69c0,.17,0,.34,0,.52h-26.69c0-.17,0-.34,0-.52Z"/>
      <path class="cls-1" d="M229.76,83.74c2.01-1.19,12.56-1.16,15.28-.05-1.67,1.32-12.87,1.42-15.28.05Z"/>
      <path class="cls-1" d="M242.89,87.63c-5.29.68-10.59,1.01-16.28.11,1.94-1.55,13.98-1.57,16.28-.11Z"/>
      <path class="cls-1" d="M307.26,123.86c-5.41-.2-10.82-.4-16.24-.6,1.62-1.88,13.29-1.45,16.29.03-.02.19-.04.38-.06.57Z"/>
      <path class="cls-1" d="M226.24,64.55c6.32-.95,12.63-.73,18.95-.63,0,.33,0,.66,0,.99-6.32.67-12.63.04-18.95-.36Z"/>
      <path class="cls-1" d="M99.13,79.57h16.5c0,.24,0,.49,0,.73-5.51.57-11.02.79-16.54.24.01-.32.02-.65.04-.97Z"/>
      <path class="cls-1" d="M140.61,98.76h22.97c0,.22,0,.43,0,.65h-22.98c0-.22,0-.43,0-.65Z"/>
      <path class="cls-1" d="M247.58,68.62h-20.57v-.64h20.58c0,.21,0,.42-.01.64Z"/>
      <path class="cls-1" d="M212.78,121.29h-21.61v-.59h21.63c0,.2-.01.39-.02.59Z"/>
      <path class="cls-1" d="M110.73,94.58h20.48c0,.2,0,.4,0,.59h-20.48c0-.2,0-.4,0-.59Z"/>
      <path class="cls-1" d="M102.95,76.79c5.09-.89,9.88-.64,14.99-.12-1.76,1.53-12.86,1.58-14.99.12Z"/>
      <path class="cls-1" d="M55.95,104.39c4.95-1.35,9.91-.85,14.87-.02-4.95.81-9.91.85-14.87.02Z"/>
      <path class="cls-1" d="M97.85,82.37h14.89c0,.25,0,.49,0,.74-4.96.52-9.93.95-14.89-.1v-.64Z"/>
      <path class="cls-1" d="M70.41,108.23v2.27c-1.73-.48-3.36-1.05-5.04-1.37-1.45-.28-2.96-.28-4.51-.41.71-1.04,6.36-1.26,9.55-.49Z"/>
      <path class="cls-1" d="M289.16,118.75h15.66c0,.2,0,.41,0,.61h-15.65c0-.2,0-.41-.01-.61Z"/>
      <path class="cls-1" d="M295.3,99.2h-20.36c0-.11,0-.22-.01-.33h20.33c.01.11.03.22.04.33Z"/>
      <path class="cls-1" d="M229.21,60.6h13.07c0,.21,0,.41,0,.62h-13.01c-.02-.21-.04-.41-.06-.62Z"/>
      <path class="cls-1" d="M161.8,112.46h12.84c0,.15,0,.31,0,.46h-12.84c0-.15,0-.31,0-.46Z"/>
      <path class="cls-1" d="M195.18,133.29h14.01c0,.13,0,.25,0,.38h-14.01c0-.13,0-.25,0-.38Z"/>
      <path class="cls-1" d="M116.08,74.17h-13.85c0-.15,0-.3,0-.45h13.92c-.02.15-.05.3-.07.45Z"/>
      <path class="cls-1" d="M243.97,81.28h-7.73v-.49h7.73c0,.16,0,.33,0,.49Z"/>
    </g>
  </g>
</svg>