<?xml version="1.0" encoding="UTF-8"?>
<svg id="Layer_1" xmlns="http://www.w3.org/2000/svg" viewBox="0 0 395.83 236.08">
  <defs>
    <style>
      .cls-1 {
        fill: #a61e2f;
      }
    </style>
  </defs>
  <g id="YepkoA">
    <g>
      <path class="cls-1" d="M322.51,167.53c.06-1.3-.8-1.33-1.75-1.33-7.05.01-14.09.02-21.14.01-6.73,0-13.46,0-20.18-.04-1.02,0-2.04-.18-3.06-.58,2.07-.1,4.13-.29,6.2-.3,12.41-.05,24.82-.08,37.24-.05,1.57,0,2.79-.2,4.07-1.32,1.02-.9,2.64-1.14,3.74-1.57-.28-1.82-.56-3.6-.84-5.38v.02c.5-.75,1.01-1.49,1.57-2.31-1.52-.85-2.6-1.13-3.96.12-1.69,1.55-4.65.87-5.9-1.06-1.03-1.59-.73-2.71,1.16-4.56-1.53-.66-3.12-1.3-4.66-2.02-1.06-.5-1.17-1.22-.2-1.99.77-.61,1.53-1.24,2.29-1.86,1.31-1.05,2.63-.7,3.61-.11.95-.79,1.78-1.42,2.53-2.14,1.43-1.36,2.09-2.87,1.07-4.84-.55-1.06-.01-1.69,1.2-1.58,1.76.16,3.19.9,3.84,2.63.42,1.12.62,2.31.95,3.58.19-.1.41-.22.63-.31.36-.14.74-.25,1.11-.38.04.44.16.89.09,1.32-.06.42-.38.8-.46,1.22-.2,1.08-.03,1.99,1.32,2.15,1.17.14,2.33.28,3.63.44-2.45,1.43-5.3.45-7.08-2.43-.33.53-.64,1.03-.95,1.52-.19-.1-.37-.2-.56-.31.08-.51.06-1.07.26-1.53.89-2.04.5-4.02-.41-5.86-.25-.51-1.28-.62-1.96-.92-.02.53-.21,1.13-.02,1.57.97,2.21-.18,3.86-1.43,5.38-1.12,1.37-1.21,2.73-.26,4.04.5.69,1.47,1.05,2.38,1.65-.39.06-.77.19-1.13.15-1.93-.2-4.27,1.2-4.8,3.08-.17.61.02,1.38.26,2,.06.15,1.05.14,1.45-.09.57-.33,1.04-.9,1.47-1.43.3-.37.44-.86.66-1.3.5.27,1.31.44,1.46.85.47,1.29,1.3,1.1,2.23.8,1.4-.44,2.84-.79,4.19-1.36,2.56-1.07,5.18-1.24,7.98-.79.12-.5.24-.95.41-1.67-1.09.39-1.98.71-2.61.94-.61-.8-1.12-1.47-1.81-2.38.96-.36,1.98-.75,3.08-1.17-.37-.44-.74-.9-1.4-1.7,1.15-.08,1.89-.13,2.73-.19-.32-.69-.63-1.36-1.13-2.43,1.02.33,1.66.54,2.63.86.11-1.04.66-2.3.25-3.02-1.2-2.13-2.56-4.23-5.66-3.9-2.9.31-3.21.58-2.44,3.23.06.2.09.41-.16.77-.69-1.3-1.44-2.56-2-3.91-.11-.26.45-1.02.87-1.24.65-.34,1.45-.41,2.16-.59-.32-3.91-.76-7.7-.9-11.5-.22-6.12-.22-12.25-.34-18.37-.03-1.73-.48-3.27-2.32-3.96-1.57-.59-3.29-.2-4.32,1.41-.62.98-.85,2.34-.88,3.55-.11,3.83.02,7.67-.08,11.5-.11,3.98-.38,7.96-.61,11.94-.04.63-.27,1.25-.81,1.92-.18-.57-.45-1.13-.52-1.71-.76-6.02,0-12,.48-17.99.04-.46.03-1.09-.23-1.37-2.6-2.8-5.26-5.54-8.23-8.66-.23,1.06-.47,1.79-.52,2.53-.24,3.04-.32,6.1-.66,9.13-.21,1.87-.79,3.7-1.24,5.72,1.01.4.82,1.48.39,2.49-.45,1.06-.29,1.8.54,2.62.93.91,1.68,2.02,2.47,3.06.23.31.34.7.5,1.06-.13.09-.27.18-.4.28-3.35-3.71-6.7-7.42-10.05-11.13l.3-.34c1.08.95,2.16,1.9,2.96,2.6,1.01-1.22,1.93-2.33,2.83-3.43-2.42-.6-3.08-1.65-2.47-4.54.48-2.29,1.27-4.52,1.81-6.8.14-.6-.1-1.3-.23-1.95-.39-1.95-.81-3.89-1.23-5.84-.09-.41-.1-.92-.35-1.19-3.78-4.01-7.6-7.98-11.5-12.06-1.06,1.66-.74,12.53.33,13.67-.85.71-1.71,1.37-2.5,2.11-.22.2-.42.83-.35.88,1.4,1.09.45,2.3.01,3.25-.67,1.47-.29,2.49.74,3.51,1.64,1.61,3.26,3.24,4.87,4.88.34.35.58.79.87,1.19-.12.12-.25.24-.37.36-1.1-.92-2.23-1.8-3.29-2.76-3.28-2.96-6.27-6.32-9.84-8.87-8.4-6.01-17.05-11.69-25.64-17.43-3.36-2.25-6.84-4.31-10.26-6.47-.26-.17-.45-.45-.68-.68.9.33,1.8.67,3.14,1.16-.27-1.11-.46-1.9-.65-2.68-.64.34-1.27.68-1.91,1.01-.19.1-.4.16-.61.23-1.27-2.3,1.39-1.35,1.57-1.85.27-5.33.52-10.28.79-15.56-2.07-.77-2.06-2.73-1.16-5.17-3.72-1.24-7.32-2.44-10.96-3.65-.26.38-.39.76-.63.87-2.27,1.01-1.71,3-1.7,4.8,0,1.31-.05,2.61,0,3.92.02.54.23,1.07.37,1.71-1.68,1.76-3.76.92-5.88.55.28,1.7,1.36,1.96,2.63,1.91,1.18-.05,2.36-.14,3.72.13-.48.32-.95.65-1.3.88.73,1.34,1.58,2.64,2.17,4.04.41.97-.07,1.93-1.25,1.65-2.41-.57-4.77-1.36-7.54-2.18.94-1.39,1.73-2.57,2.5-3.72-3.31-1.46-3.54-2.06-2.06-3.85.24-3.2.36-5.78.65-8.35.1-.91.37-1.71-.62-2.26-.05-.03-.1-.07-.11-.12-1.1-3.85-4.59-3.33-7.41-4.04-.48-.12-.97-.16-1.45-.26-2.85-.57-4.39.98-4.03,3.86.19,1.51.03,3.07-.23,4.62-1.19-1.79-1.08-3.8-1.19-5.77-.03-.47-.22-.92-.33-1.39-.23.42-.61.83-.66,1.27-.32,2.91-.57,5.84-.88,9.14,1.13-.78,2.03-1.4,2.93-2.03.31,1.55.08,1.76-2.82,2.7q.63,1.12,3.43-.01c0,.46.13.91-.03,1.22-.44.86-.47,1.57.17,2.39.16.2-.19,1.19-.46,1.26-1.32.37-2.7.56-4.04.81,6.96,2.24,14.29,3.38,20.72,7.08-.05.14-.09.27-.14.41-1.47-.51-2.94-1.03-4.42-1.52-6.91-2.3-14.02-3.76-21.16-5.16-8.76-1.72-17.45-.61-26.16-.28-5.61.21-11.23.92-16.79,1.73-3.55.52-7.02,1.63-10.52,2.47-2.15.51-4.31,1-6.47,1.5-.06-.15-.11-.29-.17-.44,1.08-.49,2.14-1.02,3.23-1.48.94-.4,1.25-.94,1.05-2.03-.17-.93.13-1.95.54-2.91-.49-.71-1.09-1.37-1.43-2.14-.35-.77-.99-1.72.42-2.31.27-.11.42-.76.46-1.17.15-1.68.28-3.37.34-5.06.04-1.09-.73-1.67-1.4-2.49-1.57-1.93-3.06-.9-4.58-.43-2.76.85-5.48,1.85-8.27,2.81,1.37,1.96.8,4.5-1.13,5.67.36,2.61.8,5.24,1.07,7.88.11,1.04-.05,2.14-.24,3.18-.23,1.29-.46,2.49.16,3.8.27.57-.02,2.05-.37,2.17-1.09.36-1.77-.57-1.84-1.55-.09-1.36-.88-1.83-1.99-2.23-.9-.33-1.91-.71-1.65-2.16.4-.05.82-.1,1.23-.16,1.73-.25,2.61-1.24,2.62-2.95,0-1.25,0-2.5-.37-3.82-.27,1.15-.46,2.32-.85,3.43-.25.7-.8,1.29-1.22,1.93-.27-.82-.78-1.65-.76-2.47.03-1.46.39-2.92.57-4.38.11-.92-.22-1.52-1.22-1.81-1.36-.38-2.36-1.18-2.21-3.17-1.69.92-3.15,1.69-4.58,2.51-3.03,1.75-6.03,3.55-9.07,5.3-1.41.81-1.62,1.77-.48,3.17.51-.77.94-1.51,1.48-2.17.2-.24.64-.39.96-.38.15,0,.37.49.41.78.26,2.04-.47,3.65-2.26,4.66.83,2.31,1.59,4.46,2.37,6.6,1.14,3.11.62,4.01-2.64,4.51-.31.05-.63.07-1.03.11.77,1.09,1.37,2.01,2.86,1.07.34-.21,1.25.48,1.97.79,4.39-2.08,8.97-4.25,13.64-6.46-.97-1.26-.98-2.74.03-4.4,1.77,1.07.77,2.71,1.09,4.11h1.64c.03.1.06.19.09.29-.51.27-.99.6-1.52.81-6.97,2.75-13.23,6.77-19.53,10.73-11.98,7.52-22.01,17.27-31.6,27.51-3.96,4.23-7.95,8.45-11.68,12.87-3.03,3.59-5.82,7.4-8.48,11.27-1.11,1.62-1.6,3.67-2.69,5.64-.12-.66-.37-1.32-.33-1.97.05-.75.36-1.48.56-2.22.58-2.14-.34-3.41-2.6-3.6.95-1,1.02-.98,4.03,1.23.17-.47.45-.89.44-1.31-.08-4.48-.29-8.96-.3-13.44,0-4.43.2-8.85.26-13.28.03-2.39-.05-4.78-.05-7.17,0-1.96-1.4-3.17-3.39-2.95-.91.1-1.82.15-2.73.22-.02-.21-.05-.42-.07-.63,1.3-.16,2.6-.33,3.97-.5.21-.89.46-1.97.66-2.86-1,.34-2.14.71-3.27,1.1-.31.11-.71.18-.88.4-1.73,2.35-4.25,4.08-4.11,7.68.28,6.88.15,13.77.06,20.66-.04,3-.4,6-.63,8.99-.02.3-.17.58-.6.87-.13-1.41-.37-2.82-.36-4.23.05-4.6.15-9.19.3-13.78.16-4.86.33-9.72.67-14.57.1-1.41.68-2.85,1.3-4.15.93-1.97.74-2.86-.69-4.48-.78-.89-1.31-2.16-1.52-3.34-.23-1.25-.08-2.61.1-3.9.39-2.81,1.83-4.36,4.7-4.69,4.93-.57,9.93,1.76,9.99,8.09.02,2.06-.8,3.44-2.66,4.28-1.59.71-1.9,3.62-.65,4.82.5.47.96,1.26.98,1.91.15,5.34.23,10.69.25,16.04.02,4.97-.06,9.95-.11,14.92,0,.65-.07,1.29-.11,2.11,3.56-4.66,7.01-9.18,10.48-13.71-1.74-2.3-.68-4.52.46-6.77-1.02-.7-2.46-1.16-1.71-2.77.69.22,1.37.45,2.05.67.33-1.05,1.01-2.12.93-3.14-.15-2.21-.69-4.4-1.05-6.51-.18,2.28-.36,4.7-.55,7.12-.26,0-.53-.02-.79-.03,0-1.3-.01-2.61,0-3.91,0-.32.16-.64.17-.97.03-1.5-.1-2.93-2.03-3.47-1.92,2.39-3.89,4.84-5.87,7.29-.18-.12-.36-.25-.54-.37.27-.62.46-1.29.83-1.85,3.67-5.54,8.01-10.49,13.02-14.88,3.07-2.7,5.89-5.68,8.89-8.47,11.51-10.7,24.21-19.75,37.98-27.3,6.6-3.62,13.59-6.29,20.8-8.35,6.88-1.96,13.79-3.88,20.78-5.43,3.38-.75,6.95-.62,10.44-.83,2.62-.16,5.24-.22,7.86-.35.43-.02.97-.03,1.26-.28.43-.37.76-.92.93-1.46.04-.13-.73-.74-1.14-.74-5-.08-9.99-.44-14.98.73-5.68,1.34-11.51,2.09-17.21,3.36-6.83,1.52-13.68,3.08-20.04,6.13-7.09,3.4-14.23,6.73-21.16,10.43-3.89,2.07-7.47,4.73-11.09,7.27-4.07,2.86-8.01,5.89-12.02,8.83-5.93,4.34-10.66,9.82-14.97,15.71-2.39,3.27-4.8,6.52-7.27,9.72-.49.64-1.27,1.05-1.92,1.56-.18-.14-.36-.27-.55-.41.38-.77.64-1.62,1.14-2.3,5.53-7.47,10.91-15.08,17.78-21.42,2.48-2.29,5.29-4.23,8.03-6.22,4.29-3.12,8.55-6.28,12.99-9.16,4.35-2.82,8.88-5.37,13.4-7.92,3.48-1.95,7.03-3.78,10.61-5.53,8.4-4.11,17.22-6.95,26.42-8.66,4.19-.78,8.32-1.88,12.51-2.63,5.76-1.03,11.56-1.7,17.41-.64,1.28.23,2.07.09,2.26-1.62.12-1.07,1.22-2.04,1.88-3.05.12.07.24.14.35.2-.39,1.4-.78,2.81-1.17,4.21.15.05.3.1.45.15.23-.41.46-.83.7-1.24,1.44-2.51,3.3-3.31,6.17-2.98,1.86.21,2.79,1.17,2.95,2.9.11,1.22.73,1.5,1.84,1.51,9.45.06,18.74,1.43,27.9,3.67,5.14,1.26,10.41,2.21,15.35,4.04,7.88,2.92,15.67,6.18,23.26,9.82,9.17,4.4,17.3,10.37,24.56,17.58,5.27,5.24,10.96,10.05,16.26,15.26,3.58,3.52,6.8,7.39,10.19,11.1.58.64,1.17,1.27,1.84,2,.53-.48.96-.87,1.52-1.37-3.07-.6-4.62-2.63-5.22-5.31-.68-3.05.07-5.81,2.76-7.7,1.42-1,2.9-1.99,4.5-2.66,3-1.26,6.02.14,7.23,3.16,1.78,4.45.77,8.82-3.61,11.33-.17.1-.3.27-.51.47.8.41,1.55.72,2.21,1.16,1.72,1.14,1.64,3.04,1.71,4.74.22,5.8.28,11.6.44,17.39.07,2.56.3,5.12.32,7.69.01,1.24-.29,2.48-.49,3.96,3.57.83,5.61,3.64,7.74,6.62.2-1.14.19-2.36.64-3.39.76-1.71,1.7-3.37,2.82-4.86.32-.43,1.62-.47,2.29-.21.93.35,1.28,1.27.84,2.33-.39.95-.71,1.93-1.43,2.84.1-1.18.19-2.37.32-3.93-3.34,2.33-3.55,5.85-4.61,8.92.13.13.26.25.4.38.37-.49.66-1.07,1.12-1.43.39-.3.98-.34,1.48-.49.01.83,1.6,1.37.49,2.37-.84.76-1.79,1.4-2.69,2.1.12.3.23.6.35.9,2.88-1,5.31-.4,7.67,1.8-1.27-.33-2.2-.74-3.16-.78-1.83-.08-3.68-.06-5.51.11-2.8.25-4.15,3.18-2.85,5.65.72,1.36,1.09,2.9,1.61,4.36-.13.05-.26.11-.38.16-.49-.89-1.06-1.75-1.44-2.68-.95-2.28-2.48-3.52-5.07-3.64-2.64-.12-5.64,1.49-6.73,3.94-.53,1.2-1.1,2.38-1.66,3.55-.91,1.89-.36,3.23,1.66,3.66,1.53.32,3.11.41,4.65.69.57.1,1.11.43,2.07.83-2.32,1.08-4.16.99-6.01.4-2.26-.72-5.76.93-6.44,3.18-.16.54.1,1.25.3,1.84.43,1.22,1.02,2.39,1.43,3.61.57,1.7,1.05,3.43,1.62,5.31,2.73-.38,5.56-.39,7.96-2.01,1.54-1.04,2.9-2.35,4.41-3.44.86-.62,1.75-.58,2.28.51-1.93,1.79-3.83,3.56-5.74,5.31-1.86,1.7-2.09,3.17-.81,5.38,1.28,2.2,2.31,4.66,5.2,5.25,1.27.26,2.72.88,3.29-1.09.03-.12.21-.26.34-.28,2.1-.34,2.58-1.98,2.48-3.62-.12-1.92-.71-3.8-1.08-5.7-.18-.94-.32-1.89-.52-3.11-1.35,1.48-2.43,2.79-3.66,3.97-1.18,1.14-2.51,2.13-3.77,3.18-.1-.12-.2-.23-.31-.35,2.14-2.32,4.28-4.64,6.63-7.19-2.24-.27-1.2-1.13-.92-1.72-.44-.6-.82-1.12-1.2-1.63,1.63-1.47,3.1-.91,4.02,1.33.24.59.78,1.06,1.35,1.79-.02.03-.29.41-.56.79.14-.03.27-.05.41-.08.56,2.85,1.22,5.69,1.63,8.56.11.76-.31,1.79-.82,2.41-1.11,1.34-2.37,2.58-3.72,3.68-.56.45-1.59.74-2.26.55-2.96-.81-5.66-2.01-6.82-5.28-.58-1.63-1.49-3.15-2.34-4.67-.15-.27-.82-.45-1.18-.37-3.91.87-6.08-.99-7.1-4.84-.71-2.7-.88-5.78-3.07-7.98l.02.03ZM324.87,108.54c.24-1.86.49-3.36.6-4.87.03-.41-.22-.94-.51-1.27-1.73-1.97-3.45-3.96-5.28-5.83-7.76-7.93-15.5-15.88-23.37-23.7-7.09-7.03-15.33-12.53-24.27-16.85-6.19-2.99-12.57-5.65-19.07-7.86-7.07-2.41-14.31-4.4-21.59-6.08-5.57-1.29-11.31-1.87-16.99-2.65-3-.41-6.03-.58-9.44-.89,1.98,7.88.45,15.43.2,22.91,3.77.76,7.28,1.46,10.5,2.11.64-1.48,1.19-2.74,1.61-3.7-.3-1.22-.74-2.31-.78-3.42-.04-1.07.41-2.15.52-3.23.13-1.25.02-2.53.22-3.76.22-1.39.83-2.79-1.17-3.39-.22-.07-.44-.37-.52-.61-.54-1.65-1.93-1.88-3.35-2.1-1.24-.19-2.49-.38-3.71-.66-.59-.14-1.14-.48-2.15-.93,3.05-1.2,5.75,1.41,8.17-.34.61.39,1.15.97,1.79,1.1,3.63.75,7.33,1.22,10.92,2.12,7.42,1.85,14.87,3.62,22.13,5.98,4.8,1.56,9.42,3.83,13.89,6.21,8.43,4.48,17,8.77,24.27,15.15,4.51,3.96,9.4,7.52,13.74,11.66,5.56,5.31,10.77,10.99,16.08,16.56,2.52,2.64,4.92,5.4,7.59,8.34ZM100.92,94.8c-1.62-.91-2.39-2.12-1.37-3.91.07-.12-.04-.32-.03-.48.16-2.11.36-4.22.45-6.34.02-.54-.13-1.43-.46-1.57-.88-.38-1.71-1.57-2.9-.4-1.87,1.84-3.83,3.57-5.73,5.38-2.25,2.15-4.48,4.31-6.66,6.52-.36.37-.67,1.14-.53,1.57.71,2.27-.54,3.73-1.84,5.27-.4.47-.78,1.24-.7,1.79.27,1.66.85,3.28,1.16,4.93.38,2.03,1.33,4.12-.25,5.99.61.29,1.14.55,1.75.84-1.66,1.8-2.97,3.48-3.47,5.47,6.95-7.04,13.9-14.08,20.84-21.11-1.26-.87-1-2.33-.26-3.96ZM294.27,97.84c-.4-.96-.97-1.63-.88-2.19.51-3.01,1.1-6.01,1.85-8.96.55-2.15.86-4.15-.84-5.95-.25-.26-.28-.71-.48-1.03-.59-.92-1.04-2.04-1.85-2.7-2.8-2.26-5.72-4.38-8.62-6.5-1.5-1.09-3.08-2.08-4.62-3.11-.05,1.55.84,2.85-.28,4.1-.1.11.02.42.03.64.03,1.63.16,3.27.05,4.9-.21,3.18-.26,3.17-3.26,3.52-.08,0-.16.13-.3.26.43.97,1.14,1.46,2.17,1.01.8-.35,1.5-.94,2.24-1.42.15.21.31.42.46.63-.77.64-1.53,1.28-2.35,1.95.19.44.59.99.61,1.54.04,1.09.28,2.55-.3,3.21-1.2,1.36-.65,1.78.48,2.6,4.09,2.98,8.11,6.07,12.15,9.12.8.61,1.59,1.24,2.49,1.94.52-1.46.95-2.69,1.26-3.58ZM258.84,79.08c4.91,2.81,9.62,5.5,14.61,8.35.18-1.85,2.13-3.12.23-4.73-.16-.13-.05-.62,0-.94.26-1.78.51-3.56.82-5.33.38-2.17.81-4.32,1.23-6.55-2.4-1.19-2.61-1.9-1.3-5.29-2.94-1.73-5.92-3.45-8.86-5.23-1.32-.8-2.56-1.52-3.87,0-.16.19-.49.33-.73.33-1.68-.02-1.54,1-1.45,2.21.17,2.27.21,4.56.21,6.83,0,.41-.47.83-.72,1.24-.26-.06-.52-.11-.78-.17-.17-3.34-.34-6.68-.51-10.03-.59,2.78-.97,5.57-1.2,8.37-.05.65.23,1.47.65,1.98.37.44,1.14.55,1.85.85-.68.26-1.34.52-2.11.82,2.21,1.19,2.74-1.38,4.21-1.72.26,1.7.24,1.72-3.46,3.31,1.53,1.61,2.91,3.27,1.19,5.71ZM120.16,85.52c-.69-1.54-1.4-3.01-1.99-4.52-.14-.34.08-.83.16-1.25.06-.34.22-.67.23-1,.06-2.32-.04-4.65.21-6.94.13-1.23.31-2.02-1.15-2.48-.88-.28-1.61-1.04-2.52-1.66-3.48,2.55-7.1,5.17-10.67,7.85-.32.24-.52,1-.4,1.4.58,1.81-.07,3.28-.95,4.8-.32.55-.43,1.42-.26,2.03.63,2.24,1.55,4.41,2.1,6.67.34,1.4,1.19,2.89.15,4.39-.21.3-.24.72-.35,1.08.42-.08.94-.04,1.25-.27,2.23-1.67,4.36-3.47,6.63-5.08,2.44-1.74,4.98-3.32,7.57-5.04ZM176.26,57.52c-1.16-1.27-.89-2.48-.48-3.87.41-1.4.57-2.9.62-4.37.05-1.38-.13-2.71-2.03-2.93-.55-.06-1.25-.73-1.46-1.28-.36-.98-.82-1.07-1.73-.82-2.69.73-5.4,1.36-8.12,2.04.75,1.13.79,1.8-.51,2.24-2.28.77-2.14,2.4-2.05,4.15.07,1.42.16,2.83.25,4.25.04.6.12,1.19.18,1.79-1.89-2.69-1.82-5.65-1.36-8.79-1.03.26-2.09.02-1.97,1.42.22,2.6.45,5.19.62,7.79.06.9.53,1.23,1.28.96.91-.32,1.76-.82,3.12-1.46-.34.99-.49,1.77-.86,2.44-.54.96-.69,1.79.09,2.69.74.86,1.37,1.56,2.74,1.14,2.03-.63,4.12-1.08,6.21-1.46,1.87-.34,3.61-.4,4-3.02.17-1.13.43-1.99-.24-2.95-.13-.19-.15-.46-.25-.8.75.33,1.34.59,1.93.86ZM179.72,53.54l-.53.08c-.11-.61-.25-1.23-.34-1.85-.21-1.35-.41-2.7-.58-4.05-.14-1.1-.66-1.24-1.17-.93v8.39c.22-.02.48-.09.74-.07.76.07,1.98-.07,2.18.31.37.7.5,1.95.11,2.57-.88,1.4-.48,2.55.03,3.81,4.26-.14,8.46-.29,12.66-.41,1.11-.03,1.13-.64,1.07-1.54-.34-5.54-.61-11.08-.91-16.63-.02-.36-.14-.72-.2-1.05-3.42.22-6.72.43-9.92.64,1.01,3.67-2.68,2.72-3.97,4.06.27,2.2.55,4.43.83,6.66ZM203.2,61.36c0-2.73,0-5.28,0-7.84,0-4.26.04-8.51,0-12.77-.01-1.42-.12-2.86-.33-4.26-.13-.86-.33-2.22-.83-2.4-.84-.3-2.17-.14-2.9.38-2.55,1.8-4.1,4.8-4.26,7.5-.37,6.02.26,12.09.54,18.14.02.43.58,1.17.92,1.19,2.11.11,4.24.06,6.86.06ZM335.42,92.52c-.31-1.42-.65-2.96-1-4.49-.34-1.51-1.42-2.25-2.82-2.66-3.42-1-7.08,1.76-7.19,5.32-.08,2.66.81,4.91,2.42,6.95,1.12,1.42,3.24,1.92,4.86,1.11,2.49-1.25,3.11-3.62,3.72-6.23ZM59.14,90.87c.17.9.3,2.2.67,3.44.41,1.37,2.34,2.69,3.3,2.38,4.61-1.51,6.19-4.83,5.05-9.33-.64-2.52-1.72-3.24-4.23-3.22-2.27.02-3.9,1.21-4.42,3.39-.23.94-.22,1.94-.37,3.34ZM236.56,61.16c.91.17,1.54.37,2.16.34.18,0,.48-.66.48-1.02.04-2.93.02-5.85.02-8.95-.93-.49-1.58-.32-1.49,1.1.04.65.17,1.3.19,1.96.08,2.15.58,4.38-1.36,6.57ZM322.85,147.24c-.81-1.16-1.4-2.12-2.13-2.96-.22-.25-1-.41-1.19-.24-.99.86-1.86,1.84-2.78,2.78.08.14.15.28.23.42h5.87ZM135.29,55.49c1.01.65,1.61,1.36,2.24,1.39,2.56.12,3.58-1.62,4.2-4.08-2.06.86-3.97,1.65-6.45,2.69ZM173.52,43.57c.87,1.01,1.1,2.28,2.63,1.83,1.67-.49,3.69-.29,4.73-2.71-2.59.31-4.85.58-7.36.89ZM101.25,83.18c-.1-.01-.19-.03-.29-.04v8.5c.6-.14,1.52-.1,1.99-.54.36-.34.35-1.33.18-1.95-.55-2.01-1.25-3.99-1.89-5.97ZM120.29,70.9v8.55c1.92-1.48,2.58-.82,0-8.55ZM314.2,106.4c-.07-.01-.14-.02-.21-.03-.3.69-.49,1.46-.91,2.07-1.19,1.7-.26,3.34.05,4.99.04.21.43.35.66.52.14-.2.39-.39.39-.59.03-2.32.02-4.64.02-6.96ZM261.04,56.94c-1.61-.79-3.13-1.53-4.64-2.27-.12.16-.24.33-.36.49.57.65,1.15,1.3,1.71,1.97,1.15,1.37,1.63,1.37,3.3-.19ZM157.44,66.36c.18.21.37.42.55.63,1.28-.48,2.55-.96,3.83-1.44.02-.2.04-.39.06-.59-.8-.26-1.76-.92-2.35-.68-.84.35-1.41,1.36-2.1,2.08ZM116.3,66.79c.79.98,1.28,2.41,2.57,1.48.42-.3-.01-1.79-.07-3.15-1.1.74-1.72,1.15-2.5,1.67ZM297.1,96.74c-.3-1.81-.58-3.5-.85-5.16-1.58,3.32-1.35,5,.85,5.16ZM98.11,80.73c2.57-.03,3.91-1.26,4.26-3.85-1.46,1.32-2.72,2.46-4.26,3.85ZM160.74,47.38c-.05-.15-.1-.29-.14-.44-1.59.42-3.19.85-4.78,1.27.06.21.12.41.18.62,1.75.1,3.24-.68,4.74-1.45ZM276.41,75.15c-1.42,3.6-1.41,3.67.35,4.61-.12-1.56-.23-3.04-.35-4.61ZM314.5,100.69c.9-1.5.44-2.3-1.73-3.43.62,1.23,1.1,2.19,1.73,3.43Z"/>
      <path class="cls-1" d="M49.41,166.21c1.35-3.61,3.89-5.9,7.65-6.73.72-.16,1.52.07,2.29.11,0,.19,0,.38.01.57-.96.45-1.93.9-3.05,1.42,5.81,1.49,11.41,1.76,17.1-.04,0-.08.05-.37-.06-.59-.49-.98-.81-2.38-1.61-2.76-.63-.3-1.9.6-2.81,1.1-1.15.62-2.15,1.56-3.34,2.02-.81.32-1.85.06-2.97.06.47-.44.96-.87,1.42-1.32.88-.87,1.87-1.67,2.58-2.67,1.57-2.23,1.46-3.12-.29-5.24-1.28-1.55-3.3-2.14-5.16-1.19-1.77.9-3.36,1.29-5.37.61-1.38-.47-3.02-.31-4.53-.21-3.19.21-4.76,2.58-6.26,4.98-.26.41-.48.84-.73,1.29-.85-1.46-.77-1.83,1.15-5.8-.82-1.17-1.74-2.26-2.4-3.48-1.12-2.08-.72-3.41,1.19-4.76,1.7-1.2,1.76-2.72.25-4.16-.53-.5-.92-1.16-1.22-1.97,4.65-.18,8.64,1.01,11.37,5.29,1.4-1.96,2.57-3.85,4-5.52,1.54-1.79,3.64-2.35,6.22-2.2-.28.39-.34.55-.45.62-4.28,2.42-6.54,6.52-8.72,10.64-.44.84-.69,2.55-.24,2.93.93.79,2.21,1.47,3.74.65,5.09-2.72,7.42.38,9.33,5.27.17.44.18.95.27,1.43,1.9-.31,3.85-.8,5.36,1.05.17.2.58.3.87.3,5.96-.06,11.92-.23,17.88-.2,4.02.02,8.04.32,12.06.5,0,.17,0,.33-.01.5h-29.93c-.06.16-.12.32-.18.48.64.26,1.28.74,1.92.75,13.67.26,27.35.46,41.02.69,1.1.02,2.19.18,3.29.27,0,.17,0,.35-.01.52-.67.08-1.34.22-2.01.22-9.64.01-19.27-.02-28.91.02-3.99.02-7.97.17-11.96.34-.59.02-1.16.46-1.73.7.59.61,1.11,1.65,1.78,1.76,2.15.33,4.36.31,6.54.41.59.03,1.19,0,1.78,0,.02.17.04.34.06.51-1.06.09-2.11.18-3.17.27,0,.04-.01.09-.02.13,1.44.13,2.89.21,4.32.39,2.44.31,4.87.82,7.32,1,2.4.18,4.82.04,7.22.06.56,0,1.13.08,1.69.44-8.42.92-16.83.31-25.32-.02-.15,1.41.18,1.92,1.65,1.92,14.07-.06,28.13-.06,42.2-.02,2.61,0,5.23.24,7.85.58-16.93.87-33.87.83-50.9.34-.11,1.12-.2,2.07-.31,3.18,18.24.16,36.36.31,54.48.47,0,.19,0,.38,0,.57-.39.04-.78.11-1.17.11-17.51.09-35.03.18-52.54.27-1.72,0-1.95.3-1.82,2.7h54.83c0,.22,0,.43,0,.65-18.38.76-36.77.81-55.24.27.11,2.67-1.12,4.52-2.67,6.18-1.21,1.3-2.78,1.89-4.6,1.75-1.5-.12-1.5-.11-1.97,1.54.38.13.75.34,1.15.39,3.15.38,6.28.85,9.38-.45.54-.22,1.66.19,2.08.68.43.51.33,1.47.5,2.45.67,1.05,1.51,2.39,2.35,3.72-.08.08-.16.17-.23.25-.26-.18-.61-.3-.76-.55-1.89-3.22-5.15-3.55-8.36-4.05-1.98-.31-3.92-.86-5.9-1.17-.47-.07-1.16.23-1.52.59-1.25,1.24-1.99,2.9-3.92,3.55-4.36,1.48-7.81-.39-11.22-2.68,2.48.23,4.95.6,7.43.64,3.43.06,5.94-1.54,7.44-4.7.41-.87.33-1.29-.48-2.01-1.82-1.6-3.5-3.4-5.01-5.3-.68-.86-1.2-1.22-2.12-.74-.9.46-2.31.87-2.5,1.58-.47,1.7-.63,3.62,1.12,4.95.22.16.47.28.71.41-.11.15-.23.29-.34.44-.41-.29-.91-.5-1.23-.87-1.29-1.49-2.1-3.17-2.05-5.22.02-.64-.27-1.29-.48-2.21-3.29,3.67-3.61,5.37-1.75,7.79-3.46-1.11-3.46-5.43.1-9.09-.66-.87-1.33-1.76-2.05-2.72-2.14,1.44-4.16,2.8-6.18,4.15l-.47-.51c1.78-1.76,3.55-3.52,5.33-5.28-.09-.15-.17-.3-.26-.44-1.83.82-3.65,1.64-5.8,2.6.73-3.16,4.26-3.28,5.72-6.02-2.43.21-4.33.38-6.34.55.86-1.95,3.36-2.95,5.49-2.46.36.08.78-.13,1.18-.2l-.02.02ZM50.21,171.99c.53.47,1.76,1.06,2.15,2,.66,1.57,1.81,2.19,3.21,2.31,1.55.13,3.15-.04,4.71-.23,1.12-.14,2.33.62,1.81,1.28-.92,1.17-.18,1.91.45,2.5,1.29,1.21,2.65,2.43,4.18,3.31,3.01,1.73,6.44.63,8.12-2.42.31-.56.87-1.46.67-1.75-1.08-1.54-.52-2.67.75-3.8-.52-.31-.92-.55-1.44-.86,1.85-.55,2.45-1.49,2.46-3.65-.62-.13-1.26-.27-1.89-.4.01-.11.03-.22.04-.33.66-.11,1.32-.23,1.95-.34.04-.22.09-.33.07-.43-.13-.64-.27-1.28-.41-1.92-.3-1.39-1.24-1.77-2.43-.97-.23.15-.42.36-.85.75-.32-1.33-.57-2.4-.83-3.45-4.71,1.72-6.96,1.83-9.28.37-.17,1.56-3.06,2.04-1.2,4.41-2.15-.98-2.73-1.94-2.73-4.04-4.07-.47-4.44-.24-4.45,2.88.85.16,1.74.37,2.64.48,2.23.28,2.69.87,2.55,3.08-.05.75.18,1.54,1.21,1.52.73-.01,1.52.08,1.08.99-.19.4-1.27.77-1.71.59-.8-.33-1.42-1.09-2.13-1.67-.77.43-1.56.92-2.39,1.3-1.36.62-1.87-.37-2.32-1.36-.53-1.14.32-1.42,1.11-1.72.49-.19.98-.4,1.19-.48-1.01-.77-2.44-1.35-2.97-2.39-.51-1.01-.11-2.48-.11-3.9-2.37,2.23-3.09,5.02-3.22,8.34ZM51.94,148.93c-.99-1.56-1.78-2.8-2.57-4.04.11-.07.22-.14.33-.21,1.24,1.33,2.48,2.66,3.77,4.05.18-1.7.36-3.16.46-4.62.04-.52-.03-1.1-.23-1.57-.71-1.67-5.45-3.56-7.34-2.93.06.2.11.41.18.61.86,2.33,1.25,4.5-1.24,6.26-.54.38-.79,1.56-.71,2.32.14,1.25,1.33,1.38,2.3,1.19.49-.09.86-.76,1.6-1.47.7.08,1.93.23,3.45.41Z"/>
      <path class="cls-1" d="M326.79,156.97c-1.07.58-2.14,1.15-3.49,1.88,1.38.6,2.35,1.03,3.32,1.45.02.15.04.3.06.45-.69.29-1.36.72-2.09.84-1.29.21-2.61.22-3.92.33-2.03.17-4.03.13-6.08.76-2.07.64-4.44.33-6.68.37-3.54.07-7.08.17-10.62.11-5.79-.1-11.58-.33-17.37-.48-1.34-.04-2.67,0-4.01-.3,10.68-1.04,21.4-.74,32.1-.82.01-.15.02-.31.03-.46-1.64-.14-3.28-.4-4.93-.42-10.88-.14-21.76-.24-32.64-.35-1.09-.01-2.17,0-3.26,0,0-.17,0-.34,0-.52,13.93-.19,27.86-.37,41.78-.56.05-.15.1-.31.15-.46-1.13-1.26-2.27-2.53-3.67-4.09.08.82.12,1.26.17,1.81-.22-.17-.42-.25-.52-.41-2.57-3.93-4.96-7.99-7.73-11.79-4.88-6.7-10.61-12.7-16.9-18.07-8.86-7.56-18-14.79-27.02-22.16-.16-.13-.31-.28-.32-.71.62.28,1.25.55,1.87.84.69.33,1.39.64,2.06,1.01,7.03,3.87,13.49,8.61,19.42,13.95,5.32,4.78,10.34,9.92,15.2,15.17,4.79,5.19,8.83,11,12.28,17.19.16.29.27.68.52.82,2.25,1.27,4.54,2.5,6.98,3.84.4-3.28-3.33-3.47-4.15-6.03,2.26.18,3.61,1.36,4.75,2.82,1.11,1.41,2.12,2.9,3.18,4.37.76-.97.78-1.32.03-2.58-.49-.82-1.05-1.59-1.58-2.38.15-.17.31-.34.46-.51.77.63,1.74,1.12,2.27,1.92.69,1.04,1.09,2.23,2.43,2.7.37.13.6.62.92.91.46.42.95.81,1.42,1.22.4-.55.81-1.09,1.2-1.63.8-.09,1.8-.25,2.79-.29.51-.02,1.03.16,1.55.25,0,0,.01-.02.01-.02ZM312.98,156.55c-1.65,1.81-2.81-.8-4.37-.66.54.8,1.03,1.58,1.58,2.32.24.32.59.78.9.79,2.4.07,4.81.04,7.22.04.02-.19.03-.37.05-.56-.58-.08-1.17-.15-1.75-.23-.69-.09-1.45-.04-2.06-.32-.61-.28-1.06-.9-1.57-1.37Z"/>
      <path class="cls-1" d="M233.73,94.51c-1.76-.48-3.55-.85-5.26-1.47-5.45-1.95-11.15-2.67-16.84-3.4-4.22-.54-8.47-1.23-12.71-1.23-8.32,0-16.65.57-24.72,2.71-14.27,3.77-28.19,8.49-40.64,16.73-2.15,1.42-4.49,2.56-6.75,3.82-.14-.22-.27-.44-.41-.66,5.97-4.06,11.94-8.12,17.4-11.82-3.27.33-15.4,7.72-26.16,15.7-8.46,6.28-15.13,14.27-21.91,22.2l-.55-.41c.28-.51.52-1.04.85-1.51,5.29-7.68,11.63-14.39,19.15-19.89,6.13-4.49,12.39-8.79,18.71-13.01,3.98-2.66,8.5-4.26,13.06-5.66,8.06-2.47,16.09-5.01,24.2-7.31,6.01-1.7,12.16-2.73,18.42-3.03,2.89-.14,5.77-.47,8.67-.54,5.47-.12,10.76,1.04,16,2.45,4.43,1.19,8.87,2.36,13.28,3.62,1.88.54,3.71,1.28,5.55,1.95.28.1.52.33.77.5-.03.09-.07.17-.1.26Z"/>
      <path class="cls-1" d="M24.45,214.85c-.27-.02-.56,0-.81-.08-1.12-.41-2.22-.86-3.38-1.31,3.45-2.15,7.61-3.98,8.81-9.22-.55.47-.85.69-1.11.95-1.52,1.56-3.54,1.49-5.02-.13-.83-.91-.67-1.62.4-2.01.63-.23,1.39-.27,2.07-.19,2.36.26,3.81-.77,5.11-2.68,1.19-1.76,2.74-3.46,4.5-4.63,3.65-2.43,6.66-5.49,9.61-8.64.66-.7,1.11-1.61,1.47-2.67-.58.33-1.15.67-1.74,1-2.02,1.11-3.78.82-5.31-.89-1.49-1.67-2.25-3.63-2.11-5.87.08-1.29-.4-2.21-1.45-2.91-2.98-1.99-4.53-4.98-5.67-8.23-.45-1.27-.25-2.56.96-3.16,1.51-.76,3.19-1.17,4.79-1.73.09.19.18.37.28.56-.68.57-1.37,1.13-2.05,1.7-2.79,2.3-2.78,5.66.02,8.02.79.67,1.63,1.3,2.4,2,1.6,1.46,2.54,3.14,2.49,5.46-.09,3.73,1.8,4.95,5.36,3.6,1.37-.52,2.65-1.26,4.22-2.01-.6,3.1-1.79,5.69-3.76,7.8-2.12,2.28-4.43,4.39-6.72,6.5-1.76,1.62-1.88,3.63-.23,5.43.44.48,1.01,1.02,1.08,1.59.1.83.1,2.13-.39,2.46-.85.59-2.03.28-2.69-.76-.85-1.33-1.65-2.68-2.69-4.38-.36.91-.63,1.62-.91,2.32-.93,2.32-1.89,4.63-2.76,6.97-.31.85-.46,1.77-.56,2.68-.22,2.01-.98,3.16-2.59,3.57-.88.23-1.81.32-1.65-1.1,1.66-.98,1.92-1.39,1.75-2.84-.74.36-1.46.7-2.13,1.02.15.71.27,1.27.4,1.84ZM37.48,204.13l.61-.42c-1.08-1.67-2.15-3.35-3.5-5.43-.17.77-.53,1.42-.34,1.72.94,1.48.89,3.83,3.24,4.13Z"/>
      <path class="cls-1" d="M355,188.19c.77-.42,1.5-.83,2.25-1.22,1.79-.91,2.62-2.23,2.43-4.36-.21-2.37.75-3.38,3.49-3.87,1.88-.34,3.77-1.28,3.52-3.02-.51-3.53,1.71-7.37-.68-10.51-1.73-2.28-1.55-4.33-1.03-6.79.68-3.2-1.61-5.52-4.9-5.24-2.25.19-4.3.59-5.27,3.08-.32.82-1.1,1.5-1.8,2.1-.4.34-1.04.41-1.57.6-.09-.15-.17-.3-.26-.45,1.24-1.78,2.6-3.48,3.69-5.35,1.06-1.81,1.85-3.78,2.93-6.06-.19,1.95-.35,3.57-.52,5.26.16,0,.46.08.68-.01,5.52-2.27,10.14,4.91,8.63,9.25-.51,1.48-.17,2.47.69,3.72,1.6,2.32,2.72,4.88,1.37,7.83-.24.53-.13,1.3.03,1.91.77,3.08-.49,5.16-3.59,5.68-2,.34-3.38,1.08-3.71,3.42-.37,2.62-4.23,4.89-6.42,4.03Z"/>
      <path class="cls-1" d="M87.81,156.17c.77-1.95,1.35-4.01,2.35-5.84,1.84-3.35,3.8-6.65,5.93-9.82,5.1-7.57,11.53-13.99,18-20.35,2.46-2.42,5.4-4.34,8.12-6.49.11.13.21.27.32.4-3.23,3.17-6.57,6.23-9.65,9.52-3.14,3.35-6.17,6.82-8.99,10.43-2.79,3.56-5.33,7.33-7.85,11.09-2.54,3.78-4.92,7.67-7.37,11.52l-.85-.46Z"/>
      <path class="cls-1" d="M290.14,146.14c-.41.12-.82.34-1.23.34-5.69.02-11.38,0-17.07.02-.59,0-1.17.25-1.85.41-1.03-1.74-1.54-.08-2.2.72-.81-2.78-3.2-.66-4.62-1.73,1.1-.12,2.12-.29,3.14-.34.99-.05,1.25-.54,1.31-1.47.19-3.4-.71-6.48-2.4-9.4-3.12-5.39-7.9-8.94-13.32-12.22.28,2.09-1.03,2.2-2.32,2.29-1.25.08-2.46-.04-2.96-1.48-.39-1.1,0-1.46,1.18-1.4.97.05,1.96-.19,2.94-.24.41-.02.87.07,1.25.24,9.83,4.19,15.74,11.33,16.65,22.22.04.44.43.84.65,1.27.26-.37.67-.71.75-1.11.8-4.29.53-8.38-2.31-11.98-.12-.16-.19-.35-.34-.64,1.72.96,2.67,2.55,3.37,6.45.42,2.34.39,4.77.76,7.21.94-3.9,1.87-7.79,2.81-11.69.24.04.48.09.71.13.19,3.85-.9,7.6-1.44,11.77h16.49c.02.21.05.41.07.62Z"/>
      <path class="cls-1" d="M375.2,196.53c-2.53.2-4.92.38-7.48.58.07.23.29.8.45,1.38.28.99.65,1.98.75,2.99.19,1.98,1.63,3.78,3.58,4.36,1.04.31,2.05.77,3.07,1.15-.07.22-.15.44-.22.66-1.56-.41-3.13-.82-5.02-1.31.06.71.12,1.52.18,2.29-1.48-.64-2.24-2.03-1.91-3.56.08-.36.36-.91.22-1.06-2.07-2.15-1.01-5.33-2.57-7.63-.26-.38-.41-.83-.59-1.2-.32,2.45-.64,4.86-.93,7.26-.06.48.04.98-.01,1.46-.08.68-.22,1.36-.37,2.23-2.49-1.68-2.81-3.14-1.81-5.27.69-1.47,1.19-3.05,1.56-4.63.39-1.68.11-3.14-1.63-4.2-1.22-.74-2.47-1.72-2.57-3.5.2.18.46.32.6.54,1.39,2.1,2.95,3.81,5.83,3.43,2.22-.29,4.48-.5,6.53.79,1.11.7,2.16,1.46,2.36,3.23ZM371.22,194.37c.01-.15.03-.31.04-.46-1.55-.12-3.11-.24-4.66-.36-.01.2-.02.41-.03.61,1.47,1.23,3.08.35,4.65.2Z"/>
      <path class="cls-1" d="M36.42,153.69c-.67-2.39-1.35-4.79-1.99-7.19-.01-.05.49-.23.71-.32,1.34,3.59,2.69,7.2,4.02,10.75-.21-.11-.63-.33-1.05-.55-1.73,2.14-3.93,2.77-6.58,1.66-3.01-1.27-6.15-2.37-8.36-5.01-.28-.33-.83-.47-1.28-.62-1.18-.39-1.54-1.47-.54-2.18.98-.69,2.21-1.32,3.38-1.42,4.1-.35,7.6,1.18,10.58,3.95.35.33.58.79.87,1.19.08-.09.16-.18.25-.27ZM23.26,152c4.24,2.86,8.4,4.32,13.26,3.53-2.03-3.07-8.54-5.15-13.26-3.53Z"/>
      <path class="cls-1" d="M236.95,148.97c19.2-.74,38.4-1.38,57.6.07-19.2,1.04-38.4.87-57.6-.07Z"/>
      <path class="cls-1" d="M107.42,144.51c-1.22-1.8-3.05-2.83-2.78-5.15.52.49,1.04.98,1.72,1.61.14-.89.26-1.69.44-2.86.89.83,1.53,1.43,2.25,2.11.32-.61.63-1.2,1.24-2.35.54.76.91,1.27,1.25,1.76.49-.41,1.06-1.25,1.53-1.19.61.07,1.15.84,1.39,1.04,1.19,0,2.28.31,3.01-.07,1.35-.69,1.67.26,2.12.99.15.25.03.88-.2,1.1-.54.52-1.18,1.01-1.87,1.3-.38.16-1.11.06-1.38-.22-.55-.55-.89-1.31-1.32-1.98-.16.15-.32.3-.48.45-.65.45-1.25.98-1.96,1.29-.23.1-.72-.38-1.2-.66-.74.73-1.5,1.89-2.65.52-.34.56-.61,1.03-1.07,1.79.72.18,1.35.45,1.98.48,3.16.15,6.33.21,9.49.35.84.04,1.67.24,2.77.4-2.69,1.23-17.14,1.15-18.28-.17,1.32-.18,2.51-.34,3.97-.54Z"/>
      <path class="cls-1" d="M201.11,31.49c-3.57,1.62-7.95-.28-8.4-3.73-.14-1.12-.09-2.31.09-3.43.44-2.73,2.16-4.26,4.93-4.31,2.76-.05,5.3.6,7.2,2.84,1.45,1.72,1.67,3.73,1.03,5.71-.6,1.84-2.42,2.12-4.16,2.45.53-1.25,1.23-2.37,1.43-3.57.21-1.24.14-2.62-.2-3.83-.41-1.48-1.46-2.58-3.2-2.56-2.21.02-3.59.76-4.05,2.61-.38,1.5-.56,3.15-.36,4.67.32,2.49,2.23,3.52,5.69,3.14Z"/>
      <path class="cls-1" d="M331.65,103.15c2.32,2.78,3.05,22.65.99,24.67-1.79-2.21-2.66-22.22-.99-24.67Z"/>
      <path class="cls-1" d="M297.23,150.94c-15.54.9-31.05,1.11-46.55-.03,15.53-.94,31.05-.71,46.55.03Z"/>
      <path class="cls-1" d="M129.84,165.31c2.38-.36,4.76-.81,7.15-1.05,1.73-.17,3.5-.13,5.24-.05.9.04,1.78.4,2.67.6,1.11.25,2.21.67,3.32.68,2.55.02,5.11-.18,7.66-.26,1.22-.04,2.1.43,2.26,1.58-.87.13-1.67.23-2.47.36-.21.03-.42.17-.63.18-2.19.06-4.38.11-6.57.15-.32,0-.68-.03-.96-.16-4.47-1.98-9.25-1-13.87-1.44-1.25-.12-2.52-.02-3.77-.02,0-.2-.02-.39-.03-.59Z"/>
      <path class="cls-1" d="M81.92,157.18c-.9-.55-1.93-4.49-1.47-5.9,1.31-4,4.89-8.37,6.87-8.24-.8,1.41-1.58,2.77-2.35,4.14-.76,1.36-1.5,2.73-2.4,4.36,2.03-1.3,3.76-2.41,5.49-3.52.06.11.12.21.19.32-2.11,2.94-4.22,5.89-6.34,8.84Z"/>
      <path class="cls-1" d="M265.78,153.08c12-.89,23.98-.86,35.97-.02-11.99.9-23.99.8-35.97.02Z"/>
      <path class="cls-1" d="M92.22,154.54c12.93-.8,25.84-.3,39.08.14-3.14,1.02-37.74.97-39.08-.14Z"/>
      <path class="cls-1" d="M80.22,163.82c10.01-1.27,20.03-1,30.04-.04-10.01.99-20.03.95-30.04.04Z"/>
      <path class="cls-1" d="M246.19,137.62c1.08,1.77,2.07,3.4,3.07,5.04.93-4.27,3-7.5,6.03-10.15.37-.32,1.04-.3,1.84-.5-2.08,4.32-4.01,8.32-5.94,12.32-2.63-.49-5.38-4.08-4.99-6.7Z"/>
      <path class="cls-1" d="M230.56,132.64c-.55,2.37-1.1,4.73-1.67,7.23,1.52-1.13,2.93-2.17,4.33-3.22.06.1.12.2.18.31-1.31,2.08-2.63,4.16-3.92,6.26-.23.37-.57.88-.46,1.19.45,1.23-1.16.71-1.17,1.49-.56-.43-1.38-.74-1.64-1.31-.95-2.05-1.71-4.19-2.72-6.72,1.21,1.81,2.19,3.29,3.22,4.83.53-3.66,1.61-7.03,3.37-10.17.16.04.31.08.47.12Z"/>
      <path class="cls-1" d="M322.49,167.5c.08,1.13-.74,1.02-1.44,1.02-5.31,0-10.61.05-15.92-.02-5.03-.06-10.05-.24-15.08-.36-.26,0-.51-.05-.8-.39.72-.08,1.43-.23,2.15-.23,3.99-.04,7.99-.01,11.98-.06,4.74-.06,9.49-.2,14.23-.23,1.63-.01,3.27.2,4.9.3,0,0-.02-.03-.02-.03Z"/>
      <path class="cls-1" d="M328.8,107.37c1.63,4.44,1.07,14.9-.6,17.67-1-1.77-.59-15.93.6-17.67Z"/>
      <path class="cls-1" d="M337.93,168.84c.51-.62,1.02-1.23,1.53-1.85-.21-.02-.42-.04-.62-.05-.18-1.07-.36-2.13-.54-3.2.86.12,1.84.01,2.54.42,1.11.65,1.5,1.71.3,2.89.45.34.84.64.99.75-.11,1.24-.19,2.17-.29,3.37-.76-.35-1.41-.65-2.15-.99-1.65.99-3.43,1.99-5.9,1.93,1.57-1.23,2.87-2.25,4.17-3.27,0,0-.02.02-.02.02Z"/>
      <path class="cls-1" d="M143.16,149.32c.86.05,1.72.09,2.58.14,0,.09,0,.19,0,.28h-18.4c0-.22,0-.43,0-.65,13.21.27,26.43-1.17,39.63.39,0,.17,0,.34,0,.51-7.93-.27-15.86-.55-23.79-.82v.15Z"/>
      <path class="cls-1" d="M340.25,160.61c.74.24,1.64.29,2.2.74,1.09.89,1.6.46,2.07-.67.52.22,1.04.38,1.48.65,1.23.76,1.61,2.18.85,3.4-.5.8-.81,1.56-.38,2.47l.02-.02c-.84.16-1.68.31-2.52.47.02.19.05.37.07.56.53.21,1.06.41,1.6.62,0,.12,0,.25,0,.37-.48,0-1.12.2-1.41-.04-.68-.56-1.22-1.32-1.73-2.05-.04-.06.7-.58,1-.95.38-.48,1.07-1.23.93-1.5-.3-.57-1.01-1.19-1.62-1.28-1.54-.21-2.49-.94-2.95-2.39.13-.12.26-.25.39-.37Z"/>
      <path class="cls-1" d="M117.48,152.55c-7.9.52-15.81.8-24.16.19,1.67-1.31,21.29-1.28,24.16-.19Z"/>
      <path class="cls-1" d="M155.78,140.27c1.71-.86,3.44-1.73,5.17-2.59.08.16.17.32.25.48-1.06.91-2.23,1.72-3.14,2.75-.9,1.03-1.54,2.3-2.36,3.56-.72-1.44-3.4-.98-3.41-3.29,0-1.12.32-2.24.49-3.36.24.01.47.03.71.04.07.92.14,1.84.23,3.01.74-1.45,1.38-2.69,2.02-3.94.17.05.34.11.51.16-.16,1.12-.32,2.23-.46,3.19Z"/>
      <path class="cls-1" d="M264.63,101.82c7.19,3.06,13.86,6.98,19.52,12.4-.12.19-.25.38-.37.56-6.38-4.32-12.76-8.64-19.14-12.97Z"/>
      <path class="cls-1" d="M351.36,151.28c.65,3.77-.99,6.41-4.3,8.01,1.09.59,1.97,1.08,2.85,1.56-.89,1.54-1.3,1.52-2.61.53-1.68-1.27-1.85-2.71-1.1-4.54.72-1.75,1.26-3.57,1.88-5.37.14,0,.28,0,.42,0-.12,1.8-.24,3.6-.37,5.61,1.74-1.65,2.81-3.52,3.23-5.81Z"/>
      <path class="cls-1" d="M27.51,188.54c1.67-.53,2.92-.42,4.13.49.49.37,1.27.66,1.85.56,2.51-.44,4.99-1.04,7.49-1.59.45-.1.9-.2,1.35-.31.08.13.15.25.23.38-.39.34-.72.87-1.17.99-2.14.57-4.32.99-6.47,1.52-.84.21-1.74.43-2.45.89-1.56,1.01-2.96.82-3.91-.75-.38-.64-.65-1.34-1.06-2.19Z"/>
      <path class="cls-1" d="M66.25,105.97c-.36,6.75-.73,13.5-1.09,20.26-2.17-2.5-.31-16.66.51-20.29.19,0,.39.02.58.03Z"/>
      <path class="cls-1" d="M200.94,73.92c-5.55,0-10.94,0-16.33,0,2.98-1.75,15.13-1.96,16.33,0Z"/>
      <path class="cls-1" d="M144.02,92.34c-7.13,2.76-14.26,5.52-21.39,8.28,6.53-4.3,13.78-6.76,21.16-8.92.08.21.15.43.23.64Z"/>
      <path class="cls-1" d="M123.01,143.17c.05-.94-.09-1.51.13-1.77,2.98-3.45,6.56-5.96,11.22-6.7-3.64,2.72-7.29,5.44-11.35,8.47Z"/>
      <path class="cls-1" d="M60.79,130.76c-1.18-6.09.28-11.78.04-17.71,1.55,2.29,1.54,14.18-.04,17.71Z"/>
      <path class="cls-1" d="M160.53,87.53c-5.67,2.12-10.94,4.09-16.3,6.09,1.34-2.35,14.03-7.41,16.3-6.09Z"/>
      <path class="cls-1" d="M342.71,203.23c-2.21.24-3.97-2.09-3.15-4.11.8-1.96,2.07-3.74,3.14-5.59.22.06.44.13.66.19,0,.57.13,1.17-.02,1.69-.5,1.72-1.06,3.42-1.68,5.1-.43,1.18-.86,2.26,1.04,2.72Z"/>
      <path class="cls-1" d="M212.64,80.89c5.71.29,11.28,1.18,16.67,3.08-5.77.12-11.22-1.56-16.67-3.08Z"/>
      <path class="cls-1" d="M243.66,146.15c5.9-.25,11.78-1.17,17.67.14-5.89.78-11.78.5-17.67-.14Z"/>
      <path class="cls-1" d="M275.29,157.2h26.89c0,.15,0,.3,0,.46-8.96.4-17.93-.1-26.89,0,0-.15,0-.31,0-.46Z"/>
      <path class="cls-1" d="M273.03,164h-20c0-.14,0-.28,0-.42,6.67-.15,13.34-.66,20,0,0,.14,0,.29,0,.43Z"/>
      <path class="cls-1" d="M362.36,168.93c-2.96.33-5.41.69-7.88.79-.55.02-1.13-.9-1.7-1.39.52-.29,1.02-.8,1.56-.84,2.6-.16,5.2-.13,8.03,1.43Z"/>
      <path class="cls-1" d="M333.67,196.44c-1.2-.24-1.44-.99-1.24-1.83.49-2.08,2.15-3.19,3.8-4.27.16-.1.62-.02.71.12.14.23.23.65.11.87-.84,1.59-1.72,3.15-2.63,4.69-.12.2-.47.26-.75.41Z"/>
      <path class="cls-1" d="M360.94,157.74c-2.69,1.39-5.18,2.71-7.71,3.94-.46.23-1.08.13-1.63.19.23-.54.32-1.29.73-1.57,2.55-1.74,5.27-3.01,8.61-2.56Z"/>
      <path class="cls-1" d="M144.05,155.86c5.32-.46,10.29-.75,15.27-.34.03.19.06.37.1.56-.35.16-.7.48-1.04.47-4.62-.08-9.25-.2-13.87-.32-.04,0-.08-.06-.46-.37Z"/>
      <path class="cls-1" d="M154.07,145.88c-.14.07-.28.19-.43.2-3.92.14-7.83.3-11.75.38-.36,0-.72-.43-1.08-.66.31-.23.63-.68.93-.67,4.11.08,8.23.23,12.34.36,0,.13-.01.26-.02.39Z"/>
      <path class="cls-1" d="M346.48,167.2c.87-.09,1.74-.18,2.81-.28-.78,1.56-.29,3.05.95,3.69.38.2.88.26,1.17.55.52.51.93,1.13,1.39,1.71-.62.42-1.24.83-2.23,1.5.34-2.36-.72-3.32-2.22-4.06-1.24-.61-2.06-1.59-1.84-3.13l-.02.02Z"/>
      <path class="cls-1" d="M259.96,125.43c2.23-1.27,4.18-2.41,6.19-3.46.18-.09.96.44.99.72.05.57-.05,1.48-.42,1.7-.86.52-1.89.86-2.89,1-1.2.16-2.43.04-3.86.04Z"/>
      <path class="cls-1" d="M236.79,74.12c-3.8-1.15-7.34-2.22-11.06-3.34,3.61-.73,10.12,1.09,11.06,3.34Z"/>
      <path class="cls-1" d="M215.92,147.38c-.64-2.25-1.28-4.5-1.9-6.7.96.42,1.76.82,2.59,1.13,1.52.57,2.58,3.58.7,5.78,0-1.03-.01-2.05,0-3.08.02-1.08.02-2.14-1.67-2.06.36,1.61.72,3.18,1.07,4.75-.26.05-.52.11-.78.16Z"/>
      <path class="cls-1" d="M214.09,146.9c-1.35-2.23-2.12-4.49-3.68-5.82-1.61-1.37-3.99-1.82-6.19-2.74,2.34-.53,4.32.04,6.06,1.45,2.13,1.72,3.78,3.74,3.81,7.11Z"/>
      <path class="cls-1" d="M117.71,137.21c.09-.51,0-1.21.29-1.5,2.27-2.16,4.87-3.77,8.09-4.22-1.34.95-2.69,1.88-4.02,2.85-1.31.96-2.6,1.95-3.9,2.93-.15-.02-.31-.05-.46-.07Z"/>
      <path class="cls-1" d="M103.37,146.42c5.81.24,11.63.48,17.73.73-2.19.68-16.02.39-17.74-.27,0-.15,0-.31.01-.46Z"/>
      <path class="cls-1" d="M337.95,168.82c-2.82.13-5.64.26-8.46.36-.32.01-.64-.24-.96-.36,2.9-.5,5.71-1.02,8.55-1.46,1.37-.21,1.33.54.85,1.48,0,0,.02-.02.02-.02Z"/>
      <path class="cls-1" d="M201.58,28.13c-.97,1.51-2.04,1.74-3.88.95-1.09-.47-1.68-1.31-1.3-2.47.17-.52.72-1.13,1.22-1.27.32-.09,1.03.53,1.26.98.34.7.41,1.53.62,2.42.71-.21,1.33-.39,2.08-.6Z"/>
      <path class="cls-1" d="M130.85,131.55c-2.35,1.93-4.71,3.85-7.06,5.78-.15-.06-.3-.13-.45-.19.08-.5-.03-1.17.26-1.48,1.95-2.1,4.38-3.45,7-4.45l.24.35Z"/>
      <path class="cls-1" d="M85.08,120.69c2.15-.66,1.7,1.22,2.02,2.09.28.74.44,1.79-1.09,1.75-.45,0-.92.7-1.65,1.3-.23-1.35-.43-2.53-.65-3.85.56.06.92.11,1.36.16v-1.45Z"/>
      <path class="cls-1" d="M361.41,164.71c-2.24.35-4.48.72-6.72,1.06-1.22.19-1.63-.48-1.66-1.76,2.88-.18,5.68-.58,8.38.7Z"/>
      <path class="cls-1" d="M162.94,72.03c-3.71.99-7.15,1.92-10.58,2.84,2.32-2.19,9.18-4.07,10.58-2.84Z"/>
      <path class="cls-1" d="M184.86,68.26c-3.28.27-6.32.52-9.37.77,3.64-2.18,8.32-2.61,9.37-.77Z"/>
      <path class="cls-1" d="M49.43,166.19c-3.09-.87-6.18-1.74-9.13-2.58,1.57-1.56,7.37-.08,9.11,2.6,0,0,.02-.02.02-.02Z"/>
      <path class="cls-1" d="M315.89,130.58c-1.31-.79-2.69-1.49-3.85-2.45-.26-.22.27-1.39.44-2.12.4.27.82.52,1.2.8.2.15.34.48.54.52,1.17.23,2.01.62,1.43,2.08-.05.13.36.45.55.68-.11.16-.21.33-.32.49Z"/>
      <path class="cls-1" d="M78.4,146.31v8.77c-2.18-2.26-2.37-7.66,0-8.77Z"/>
      <path class="cls-1" d="M360.57,170.27c-2.62,2.1-6.57,2.57-7.88.75,2.67-.26,5.17-.49,7.88-.75Z"/>
      <path class="cls-1" d="M285.46,120.11c-1.99-1.84-3.86-3.59-5.74-5.33,2.57.2,5.93,3.54,5.74,5.33Z"/>
      <path class="cls-1" d="M306.76,143.64c-.82-.77-1.48-1.31-2.04-1.95-.88-1.02-.63-1.77.68-1.88,1.79-.15,3.4.41,4.92,1.77-3.85-.86-4.14-.71-3.57,2.06Z"/>
      <path class="cls-1" d="M157.28,145.89h9.86c0,.16,0,.32,0,.48-3.3.16-6.6.84-9.9.06.01-.18.03-.36.04-.55Z"/>
      <path class="cls-1" d="M316.43,133.21c1.5.06,3.1,1.36,3.2,2.32.11,1.07-1.1,2.15-3.13,2.52,1.33-1.68,1.53-3.27-.07-4.84Z"/>
      <path class="cls-1" d="M202.93,79.91c5.18-1.09,8.81-1.03,10.53,0h-10.53Z"/>
      <path class="cls-1" d="M42.68,156.09c-.37,2.27-2.45,5.08,1.67,6.28-.53,0-1.13.16-1.57-.03-1.17-.52-2.51-2.84-2.17-3.94.28-.9.97-1.67,1.47-2.5l.59.2Z"/>
      <path class="cls-1" d="M80.45,130.12c.3-1.64.57-3.28.91-4.91.05-.22.48-.52.68-.48.22.04.52.42.54.67.13,1.86-.24,3.56-1.67,4.85-.15-.04-.3-.08-.46-.13Z"/>
      <path class="cls-1" d="M67.38,144.47c1.66-.35,3.34,1.11,3.66,3.06.2,1.19-.21,1.64-1.6,1.77.06-.99.43-2.11.09-2.95-.31-.77-1.37-1.24-2.16-1.89Z"/>
      <path class="cls-1" d="M351.64,164.47c-.12.77-.76,1.54-1.67,1.18-.73-.29-1.22-1.24-1.75-1.95-.06-.08.31-.69.47-.69.52.01,1.07.11,1.53.34.48.24.86.67,1.42,1.12Z"/>
      <path class="cls-1" d="M140.63,79.89c1.56-1.98,5.18-3.37,6.81-2.54-2.46.92-4.63,1.73-6.81,2.54Z"/>
      <path class="cls-1" d="M196.34,67.3c3.72-1.34,5.15-1.26,5.96.38-2.14-.14-4.05-.26-5.96-.38Z"/>
      <path class="cls-1" d="M340.25,160.61c-.13.12-.26.25-.39.37-.19-.24-.53-.46-.55-.71-.15-1.53-.23-3.07-.34-4.68,1.79,1.33,1.74,3.12,1.28,5.02Z"/>
      <path class="cls-1" d="M199.83,77.51h-5.79c0-.15,0-.3.01-.45h5.82c-.01.15-.03.3-.04.45Z"/>
      <path class="cls-1" d="M151.88,79.79c-1.47.52-2.9,1.32-4.52.75-.04-.23-.07-.47-.11-.7,1.5-.27,3-.55,4.49-.82.05.26.09.51.14.77Z"/>
      <path class="cls-1" d="M203.69,67.07c1.12,0,2.24-.04,3.35.03.23.02.44.47.65.73-.26.15-.54.45-.78.41-1.12-.16-2.23-.41-3.34-.63.04-.18.08-.36.12-.55Z"/>
      <path class="cls-1" d="M213.74,68.71c1.11-1.18,1.99-1.28,2.64-.21.17.28,0,.76-.02,1.15-.87-.31-1.74-.63-2.62-.94Z"/>
      <path class="cls-1" d="M259.88,157.08h5.52c0,.12,0,.24-.01.36h-5.52c0-.12,0-.24.01-.36Z"/>
      <path class="cls-1" d="M78.54,134.08c-.08-1.43-.14-2.48-.21-3.69,1.62.73,1.68,1.73.21,3.69Z"/>
      <path class="cls-1" d="M254.37,121.07c-.24-.49-.45-.9-.85-1.73-.14.8-.2,1.15-.33,1.85-.45-.95-.78-1.64-1.11-2.34,1.76-.66,2.48.09,2.29,2.22Z"/>
      <path class="cls-1" d="M126.93,164.45c-1.48.12-2.95.25-4.43.37-.02-.21-.04-.42-.06-.63,1.48-.13,2.97-.26,4.45-.39,0,.22.02.43.03.65Z"/>
      <path class="cls-1" d="M346.4,197.78c-.6-1.52-1.2-3.03-1.8-4.55.19-.08.39-.16.58-.24.6,1.52,1.2,3.03,1.81,4.55-.2.08-.39.16-.59.24Z"/>
      <path class="cls-1" d="M200.9,38.74c1.36,1.87,1.6,10.18.36,12.19-1.61-1.76-1.86-10.25-.36-12.19Z"/>
      <path class="cls-1" d="M200.85,61.16c-1.74-2.06-.3-4.76-2.44-6.08,1.96-.97,2.84-.51,2.85,1.56,0,1.36-.23,2.72-.4,4.53Z"/>
      <path class="cls-1" d="M325.75,90.65c.9.82,1.83,1.61,2.69,2.47,1.04,1.03,2.17,1.35,3.58.79.41-.16.97.03,1.46.07-.22.5-.33,1.28-.7,1.43-.74.29-1.84.61-2.39.26-1.69-1.07-3.2-2.42-4.73-3.73-.24-.21-.19-.75-.27-1.14l.36-.15Z"/>
      <path class="cls-1" d="M330.91,91.63c-1.59-.48-2.03-1.36-1.67-2.87,1.51.37,1.88,1.29,1.67,2.87Z"/>
      <path class="cls-1" d="M65.22,86.87c1.98.84,2.83,4.46,1.16,6.03-.36.34-1.13.24-1.71.34-.03-.47-.13-.95-.08-1.4.18-1.68.42-3.35.63-4.97Z"/>
      <path class="cls-1" d="M65.39,167.39c3.04.39,5.91.76,8.79,1.13-1.6,1.6-3.5,1.66-5.42,1.46-1.63-.17-2.85-.97-3.37-2.58Z"/>
      <path class="cls-1" d="M64.93,170.34c2.93,1.05,5.66,2.03,8.67,3.11-2.67,1.29-7.83-.66-8.67-3.11Z"/>
      <path class="cls-1" d="M70.76,175.88c-2.41,1.33-6.03.64-7.17-1.19,2.48.41,4.82.8,7.17,1.19Z"/>
    </g>
  </g>
</svg>