<?xml version="1.0" encoding="UTF-8"?>
<svg id="Layer_1" xmlns="http://www.w3.org/2000/svg" viewBox="0 0 254.22 267.29">
  <defs>
    <style>
      .cls-1 {
        fill: #a61e2f;
      }
    </style>
  </defs>
  <g id="DbhRe9">
    <g>
      <path class="cls-1" d="M215.57,222.77c.69.4,1.38.79,2.51,1.44-3.36,2.55-6.68,1.06-10.3.73,1.62,2.56,3.12,4.92,4.92,7.77-7.78.99-12.75-3.33-18.31-6.87,1.35,2.34,2.7,4.69,4.05,7.03-.23.15-.45.29-.68.44-2.73-3.5-5.46-6.99-8.19-10.49-.44-.65-.88-1.3-1.31-1.95-.41-1.24-.81-2.49-1.43-4.37,6.35,6.84,13.75,10.63,22.01,13.29-.94-1.19-1.78-2.49-2.85-3.56-4.93-4.93-10.32-9.22-17.08-11.37-1.22-.39-2.61-.18-3.9-.39-2.57-.42-5.12-.94-8.21-1.52,2.41,10.71,9.26,18.79,14.58,27.91-1.72-1.75-3.55-3.41-5.12-5.29-1.61-1.93-2.97-4.08-4.68-6.47.26,4.44,2.05,8.63-.63,12.61,2.39-10.27-3.41-19.13-4.93-28.72-.21-1.31-2.56-2.29-4.34-2.92.97,3.05,2.02,6.07,2.86,9.16.26.95.36,2.39-.16,3.01-1.89,2.25-1.38,4.58-.83,7.02,1.09,4.91,2.13,9.83,2.95,14.8-2.66-6.08-4.8-12.37-4.47-19.09.14-2.77-.11-5.13-1.29-7.58-1.27-2.65-2.28-5.42-3.51-8.39-1.92,7.94-.55,28.16,2.1,32.47-.2.23-.41.46-.61.7-1.22-1.17-3.1-2.14-3.54-3.56-1.11-3.58-1.97-7.34-2.22-11.07-.36-5.41-.09-10.87-.09-15.65-1.78,3.2-3.79,7.11-6.08,10.86-2.45,4.01-5.33,7.77-7.69,11.84-1.17,2.02-1.58,4.48-2.34,6.74-.35-.07-.71-.15-1.06-.22.45-2.11.47-4.44,1.42-6.29,2.8-5.42,6.1-10.59,8.97-15.98,2.13-4,3.93-8.18,5.77-12.33.67-1.51.96-3.13-1.23-3.84-9.53-3.1-16.67-9.34-22.62-17.16-.31-.41-.75-.73-1.42-1.36-5.4,3.38-11.59,2.76-17.63,2.9-4.92.12-9.88-.63-14.75-.21-9.35.81-19.11.58-27.16,8.12,5.9-1.74,11.3-3.33,16.71-4.93.12.23.24.45.36.68-2.33,1.23-4.54,2.9-7.02,3.61-10.74,3.07-21.57,5.82-32.34,8.75-8.73,2.38-17.44,4.86-26.16,7.26-1.09.3-2.23.44-3.57.03,3.53-1.4,7.26-2.44,10.56-4.26,9.93-5.49,21.25-6.01,31.74-9.4,3.63-1.18,7.05-3.25,10.28-5.36,6.07-3.98,12.72-5.47,19.82-5.39,3.86.05,7.71.39,11.57.51,7.56.25,14.92-.57,21.67-4.4,2.55-1.44,3.07-2.88,1.63-5.8-3.06-6.21-5.5-12.72-8.25-19.09-.36-.83-1.2-1.45-1.59-2.28-1.41-3.02-3.29-5.98-3.9-9.17-.46-2.4-1.05-3.68-3.4-3.93-1.87-.2-3.75-.3-6.31-.49,3.4,1.78,6.15,3.22,8.9,4.66-.19.41-.39.81-.58,1.22-4.71-1.7-9.43-3.4-14.14-5.11.05-.32.09-.65.14-.97,4.84-.61,9.45-2.34,14.66-.78,2.65.79,5.85.27,8.7-.25,8.86-1.61,16.11.45,21.9,7.77,2.37,3,5.78,5.19,8.79,7.65,2.27,1.86,4.23.63,5.75-1.11,8.99-10.3,14.88-22.15,17.73-35.55,1.23-5.79,2.78-11.55,7.56-15.67.74-.64,1.63-1.12,3.12-2.12-.28,2.73-.49,4.65-.73,6.97-.69-.56-1.16-.93-2-1.61-2.03,6.72-3.82,13.34-6.02,19.81-3.21,9.42-7.11,18.56-13.93,26.06-1.75,1.93-3.83,3.55-5.68,5.24,3.37,2.85,6.99,5.56,10.19,8.69,4.51,4.42,8.67,9.18,13.07,13.71.72.74,1.86,1.43,2.84,1.48,12.29.54,24.47-.44,36.48-3.15,1.96-.44,3.78-1.47,5.75-2.26-.86,4.32-4.18,7.14-7.83,10.19,1.85-.18,3.34-.32,4.99-.48-3.18,3.48-7.9,4.19-15.04,2.3,4.4-2.43,8.67-4.79,12.94-7.15-.08-.15-.16-.29-.25-.44-3.81.98-7.58,2.21-11.45,2.86-4.14.71-8.38,1.15-12.58,1.2-4.06.04-8.13-.56-12.54-.91.99,2.41,1.84,4.48,2.69,6.55-.29.23-.58.45-.87.68-11.9-15.57-26.29-28.3-43.09-38.43-.82.55-1.89,1.26-3.45,2.31.79-2,1.92-3.44,1.67-4.58-.28-1.25-1.84-2.21-2.81-3.32-4.2-4.78-9.27-6.17-15.41-4.39-2.57.74-5.32.84-8.61,1.32.07.48-.03,1.6.42,2.42,4.37,7.95,8.66,15.95,13.31,23.73,3.08,5.15,6.69,9.99,10.14,14.92,5.28,7.55,12.69,12.48,21.09,15.63,13.91,5.22,28.03,9.87,42.05,14.76l-.04-.05c-.71,2.6-2.8,1.67-4.43,1.61-1.33-.05-2.65-.49-3.98-.76,4.91,4.89,11.08,5.98,17.34,6.82l-.05-.02Z"/>
      <path class="cls-1" d="M205.01,80.32c-.97.28-1.44.41-2.61.74,1.17-4.34,2.11-8.38,3.34-12.33,2.57-8.26,5.64-16.38,7.84-24.73,1.79-6.76,2.64-13.77,1.13-20.77,3.6,1.27,5.55,6.97,6.78,20.22.67-1.43,1.26-2.69,2.28-4.85,1.3,3.12,2.78,5.39,3.14,7.82.63,4.21.53,8.53.82,12.8.1,1.53-.95,3.37,1.46,4.44.47.21-.04,2.89-.28,4.4-1.4,8.71-3.65,17.13-8.87,24.45-.86,1.2-2.02,2.19-3.04,3.28-.24-.17-.49-.33-.73-.5.72-1.9,1.44-3.8,2.25-5.91-.83.26-1.44.45-2.63.81,4.99-13.41,10.77-26.19,8.41-40.59-1.05,6.78-1.67,13.66-3.26,20.31-1.58,6.59-3.91,13.05-8.81,18.05-.32-.1-.63-.2-.95-.31.45-2.18.83-4.37,1.35-6.53,1.76-7.27,3.74-14.49,5.31-21.8.74-3.46.76-7.08.65-10.66-1.79,6.56-3.5,13.15-5.37,19.69-3.18,11.13-8.03,21.55-14.26,31.28-1.69,2.65-4.38,4.66-6.77,7.13-.85-2.02.05-3.77,1.09-5.54,3.41-5.81,6.81-11.63,10.18-17.47.52-.9.87-1.91,1.55-3.45Z"/>
      <path class="cls-1" d="M104.24,231.22c.41-4.97.81-9.95,1.28-15.64-2.7,5.89-5.15,11.23-7.59,16.56-.38-.01-.76-.02-1.14-.03-.29-4.03-.57-8.06-.91-12.79-2.45,4.25-4.63,8.03-6.81,11.81-.33-.13-.66-.27-.99-.4.4-3.55.81-7.11,1.31-11.55-4.51,4.57-7.99,9.17-14.02,10.28,1.85-1.65,3.65-3.37,5.58-4.93,4.86-3.91,8.13-8.9,11-14.42,1.74-3.34,5.06-5.85,7.67-8.73.45.17.91.34,1.36.51-.31,3.54-.51,7.09-.95,10.6-.44,3.46-1.12,6.89-1.7,10.33.31.07.62.15.94.22,1.12-1.99,2.23-3.97,3.35-5.96.1-.18.17-.42.32-.54,2.96-2.37,4.14-5.5,3.36-9.8,4.35,4.7,3.26,20.47-1.13,24.65-.31-.06-.62-.11-.93-.17ZM93.86,216.37c1.69-3.68,3.38-7.36,5.07-11.03-.32-.14-.64-.28-.97-.43-2.92,3.14-5.09,6.61-4.11,11.46Z"/>
      <path class="cls-1" d="M227.05,99.55c-3.29,1.26-6.38,2.73-8.91,5.35-1.3,1.34-3.15,2.15-4.75,3.2-.17-.22-.34-.44-.52-.65,3.44-5.42,7.15-10.69,10.25-16.3,4.56-8.22,7.04-17.12,7.01-26.61,0-.65.2-1.29.57-1.91,3,7.99.28,15.62-1.48,23.49,2.62.89,2.78,2.95,1.91,5.02-1.21,2.89-2.74,5.64-4.14,8.45,0,0,.05-.05.05-.05Z"/>
      <path class="cls-1" d="M137.01,199.3c2.29,1.3,4.61,2.62,7.12,4.05-.97-1.3-1.94-2.48-2.75-3.77-.27-.43-.3-1.19-.1-1.65.12-.28,1.04-.54,1.35-.37,1.96,1.08,4.07,2.05,5.71,3.53,1.53,1.39,2.72,3.25,3.71,5.1.63,1.19,1.04,2.84.71,4.06-.15.57-2.26.63-3.59.95.35,1.18.8,2.72,1.25,4.26l-.79.49c-2.21-2.6-4.42-5.21-6.87-8.1-.33,4.7-.65,9.08-.96,13.47-.3,0-.59.01-.89.02-1.25-7.05-2.49-14.1-3.9-22.05Z"/>
      <path class="cls-1" d="M218.44,197.61c1.79,1.95,3.39,3.56,4.83,5.32.46.56.87,1.81.58,2.18-.47.6-1.59,1.1-2.33.98-2.98-.48-5.93-1.22-8.85-1.85,1.71,2.15,3.51,4.42,5.31,6.69-.19.16-.38.32-.58.49-3.82-3.28-7.65-6.55-11.47-9.83.18-.44.37-.88.55-1.32,3.82.62,7.64,1.24,11.41,1.85-2.09-2.48-4.25-5.03-6.41-7.59.28-.34.55-.68.83-1.03,4.08-.49,7.66.81,11.65,3.64-2.23.2-3.71.33-5.53.49Z"/>
      <path class="cls-1" d="M48.77,225.47c7.47-4.06,14.34-7.46,20.85-11.45,6.44-3.95,12.52-8.49,19.25-13.12-.72,1.36-1.05,2.58-1.82,3.34-9.74,9.62-20.78,17.14-34.2,20.68-1.09.29-2.24.31-4.08.55Z"/>
      <path class="cls-1" d="M183.57,135.47c3.15-.51,6.3-1.04,9.46-1.53,2.79-.43,4.14-2.07,5.62-4.55,1.9-3.18,1.01-7.6,4.63-9.83.92-.56,1.85-1.1,3.31-1.96-.26,2.78.12,4.57-1.76,6.58-1.61,1.73-1.97,4.87-2.34,7.46-.46,3.27-2.24,5.16-5.63,5.25-2.92.08-5.84.36-8.76.4-1.48.02-2.97-.29-4.46-.45l-.08-1.37Z"/>
      <path class="cls-1" d="M227.12,108.05c-2.84,3.65-3.53,9-8.72,10.73-1.6.54-3.49.21-5.25.32-1.3.08-2.6.22-4.25-.12,5.81-3.91,11.62-7.82,17.43-11.72.26.26.52.53.78.79Z"/>
      <path class="cls-1" d="M59.87,228.87c11.18-5.07,20.05-12.5,28.32-20.71.59,6.51-18.2,20.52-28.32,20.71Z"/>
      <path class="cls-1" d="M208.83,134.82c-.69-1.04-1.19-1.79-2.06-3.12,4.12-1.33,7.91-2.56,11.71-3.79.18.31.36.62.54.92-1.73,1.28-3.46,2.57-5.58,4.14,1.18-.08,1.96-.13,2.74-.18.26.26.52.52.78.78-1.47,1.2-2.9,2.47-4.43,3.6-4.1,3.04-6.44,3.05-8.79-.21,1.67-.7,3.26-1.37,5.1-2.15Z"/>
      <path class="cls-1" d="M157.57,225.63c-.64,4.37-1.28,8.75-1.92,13.12.38.09.75.18,1.13.27,1.62-2.7,3.25-5.41,4.87-8.11.26.12.52.24.78.36-1.58,4-3.16,8.01-4.73,12.01-5.87-1.97-6.25-11.82-.13-17.65Z"/>
      <path class="cls-1" d="M126.39,230.61v-25.56c1.13,2.15,2.63,3.75,2.72,5.43.23,4.26-.09,8.56-.36,12.83-.16,2.49-.66,4.95-1,7.43-.45-.04-.91-.08-1.36-.12Z"/>
      <path class="cls-1" d="M208.93,126.39c1.95-1.68,3.71-3.69,5.9-4.97,2.41-1.41,5.21-2.17,7.89-3.23.05,5.17-.1,4.81-7.05,8.18-3.74,1.82-4.83,1.63-6.74.02Z"/>
      <path class="cls-1" d="M186.63,128.16c-2.14-5.45,4.67-9.68.85-14.93,1.32-.58,2.34-1.03,3.81-1.68-.2,1.2-.32,1.94-.45,2.76h4.97c.11.21.22.42.32.63-1.17.68-2.44,1.24-3.48,2.08-.94.76-1.62,1.83-2.41,2.76.98.49,1.96.99,2.95,1.47.35.17.72.32,1.6.71-2.88,2.24-7.69,1.26-8.16,6.19Z"/>
      <path class="cls-1" d="M111.28,231.03c1.08-7.98,2.06-15.25,3.04-22.5,4.06,3.75,2.7,15.29-3.04,22.5Z"/>
      <path class="cls-1" d="M116.62,227.54c1.06-7.75,2.05-15.06,3.12-22.93,3.51,5.98,1.74,18.52-3.12,22.93Z"/>
      <path class="cls-1" d="M20.93,213.61c8.96-1.5,17.93-3,26.89-4.5.05.27.09.54.14.81-8.39,4.68-17.63,4.49-27.03,3.69Z"/>
      <path class="cls-1" d="M133.52,223.31c-.67-6.84-1.35-13.73-2.02-20.47,4.6,1.62,6.16,15.58,2.02,20.47Z"/>
      <path class="cls-1" d="M63.4,213.1c-6.21,7.2-15.14,5.72-23.34,6.72,7.78-2.24,15.56-4.48,23.34-6.72Z"/>
      <path class="cls-1" d="M29.57,216.69c7.51-1.9,14.62-3.71,22.58-5.72-3.93,4.51-17.52,7.66-22.58,5.72Z"/>
      <path class="cls-1" d="M211.16,114.18c4.74-4.01,9.51-7.98,14.2-12.05.75-.65,1.14-1.71,1.69-2.57,0,0-.05.05-.05.04.34.79,1.14,1.71.96,2.35-1.1,3.75-12.62,11.99-16.77,12.18l-.03.05Z"/>
      <path class="cls-1" d="M188.25,220.85c.44.65.88,1.3,1.31,1.95,1.77,4.34,3.54,8.67,5.32,13.01-.12.04-.24.09-.36.13-3.96-6.78-7.91-13.56-12.35-21.15,2.38,2.37,4.23,4.21,6.08,6.06Z"/>
      <path class="cls-1" d="M191.74,203.62c-2.64-1.76-5.28-3.53-7.92-5.29.11-.23.23-.47.34-.7,1.36.3,2.72.61,4.47,1-.35-.89-.73-1.43-.72-1.96,0-.52.42-1.03.65-1.55.44.2,1.12.29,1.28.63,1.09,2.21,2.07,4.47,3.09,6.71-.4.39-.8.78-1.2,1.17Z"/>
      <path class="cls-1" d="M233.28,184.61c-2.13,5.01-7.94,8.29-13.66,7.25,4.79-2.55,9.27-4.92,13.66-7.25Z"/>
      <path class="cls-1" d="M204.8,98.31c2.9,3,2.4,7.85-.36,9.52-.85-1.42-1.7-2.84-2.73-4.55.93-1.49,1.97-3.18,3.09-4.98Z"/>
      <path class="cls-1" d="M199.67,140.79c4.98.48,9.4.9,14.26,1.36-4.63,2.9-10.9,2.37-14.26-1.36Z"/>
      <path class="cls-1" d="M203.73,210.44c-4.07-5.73-8.14-11.46-12.2-17.2,6.01,4.29,8.94,10.87,13.04,16.58-.28.21-.56.41-.84.62Z"/>
      <path class="cls-1" d="M206.28,153.74c-4.71,2.83-11,2.28-13.43-1.21,4.52.41,8.83.79,13.43,1.21Z"/>
      <path class="cls-1" d="M210.39,146.65c-4.65,3.14-9.22,3.09-11.68,0h11.68Z"/>
      <path class="cls-1" d="M170.52,192.98c-6.31.54-10.57-3.19-14.68-7.23,4.89,2.41,9.79,4.82,14.68,7.23Z"/>
      <path class="cls-1" d="M206.72,215.18c.31-.53.63-1.54.93-1.53,2.15.06,7.87,6.77,7.92,9.12,0,0,.05.02.05.02-2.98-2.55-5.96-5.11-8.94-7.66l.04.05Z"/>
      <path class="cls-1" d="M183.31,130.99c3.11-.76,6.22-1.53,9.7-2.38-2.19,3.6-6.1,4.78-9.7,2.38Z"/>
      <path class="cls-1" d="M101.69,194.31c2.31-1.4,4.03-2.54,5.85-3.46.44-.22,1.51.08,1.79.49.29.41.21,1.65-.12,1.84-2.07,1.24-4.1,2.99-7.53,1.13Z"/>
      <path class="cls-1" d="M205.45,108.92c2.09.28,3.73.51,5.37.73.14.2.28.41.42.61-1.89.95-3.71,2.2-5.71,2.75-1.3.36-2.52-.56-1.45-2.29.43-.7,1-1.32,1.37-1.8Z"/>
      <path class="cls-1" d="M180.93,163.68c3.79,2.01,7.21,3.83,10.84,5.75-3.55.92-8.33-1.59-10.84-5.75Z"/>
      <path class="cls-1" d="M173.06,197.72c3.52,1.73,7.04,3.45,10.56,5.18-.22.46-.44.91-.66,1.37-3.47-1.76-6.94-3.51-10.41-5.27.17-.42.34-.85.51-1.27Z"/>
      <path class="cls-1" d="M213.16,211.92c3.01.58,6.01,1.16,9.42,1.82-2.62,1.96-6.38,1.27-9.42-1.82Z"/>
      <path class="cls-1" d="M211.19,114.13c-1.3.88-2.49,2.05-3.92,2.55-1.03.37-2.37-.14-3.57-.26,0-.57,0-1.13,0-1.7,2.49-.18,4.98-.36,7.47-.54,0,0,.04-.05.04-.05Z"/>
      <path class="cls-1" d="M202.67,188.29c1.91.46,3.12,1.46,2.52,3.47-.2.68-1.37,1.08-2.09,1.6-.4-.7-1.09-1.39-1.13-2.11-.05-.92.41-1.87.7-2.96Z"/>
      <path class="cls-1" d="M117.51,190.07c.68,1.8,1.08,2.85,1.47,3.89-1.39.32-2.78.65-4.18.97-.15-.32-.29-.64-.44-.96.81-1.01,1.62-2.02,3.14-3.91Z"/>
      <path class="cls-1" d="M192.03,155.89c3.28.58,6.07,1.07,9.07,1.6-2.93,1.82-6.05,1.33-9.07-1.6Z"/>
      <path class="cls-1" d="M188.54,161.75c3.23.47,6.09.89,9.18,1.34-2.99,1.64-7.07,1.12-9.18-1.34Z"/>
      <path class="cls-1" d="M133.35,146.46c-.33,1.23-.65,2.46-.98,3.69-.6-.27-1.73-.66-1.7-.8.25-1.16.71-2.27,1.11-3.4.52.17,1.05.34,1.57.5Z"/>
      <path class="cls-1" d="M185.9,174.34c-2.42-1.46-4.84-2.91-7.26-4.37.19-.32.37-.64.56-.97,2.38,1.42,4.76,2.83,7.14,4.25-.15.36-.29.72-.44,1.08Z"/>
      <path class="cls-1" d="M152.96,170.85v6.36c-2.35-2.51-2.26-4.24,0-6.36Z"/>
      <path class="cls-1" d="M163.64,169.82c1.38.65,2.76,1.31,4.14,1.96-.18.35-.36.69-.54,1.04-1.35-.71-2.69-1.42-4.04-2.12.15-.29.3-.59.44-.88Z"/>
      <path class="cls-1" d="M176.18,149.72c1.78-.37,3.44-.71,5.3-1.09-2.29,3.35-3.79,3.73-5.3,1.09Z"/>
    </g>
  </g>
</svg>