<?xml version="1.0" encoding="UTF-8"?>
<svg id="Layer_1" xmlns="http://www.w3.org/2000/svg" viewBox="0 0 267.73 297.64">
  <defs>
    <style>
      .cls-1 {
        fill: #a61e2f;
      }
    </style>
  </defs>
  <g id="W3IfxC">
    <g>
      <path class="cls-1" d="M116.89,21.67c-.09.07-.19.2-.27.2-1.77-.13-1.93,1.61-2.87,2.49.99-.31,1.97-.61,2.96-.92.06.1.12.19.18.29-2.08,1.28-5,2.07-3.34,5.52-.83.55-.99,2.05-.19,2.49.74.4,1.56.65,2.35.96l.29-.31c-.17-.32-.35-.64-.52-.96.63-.23,1.4.8,1.94-.23.41-.1.82-.19,1.24-.29.02-.08.04-.17.05-.25-.44-.22-.89-.44-1.34-.66.48-.03.94-.1,1.41-.1,1.31,0,2.35-.45,2.67-1.81.12-.49-.1-1.06-.16-1.59-.57.15-1.21.18-1.69.48-.76.47-1.41,1.12-2.23,1.8-.48-1.06-.85-1.89-1.24-2.77-.13.22-.36.61-.57.99-1.05-.48-1.12.35-1.26,1.07-1.06-.81-.1-1.36.36-1.74.71-.58,1.6-.93,2.4-1.4.19-.11.37-.29.48-.49.96-1.68,1.88-2.04,3.66-1.33.34.14.62.43.93.66-1.08-.27-2.16-.87-3.2-.27,1.24.5,2.48,1,3.78,1.53.05-.24.1-.49.15-.75.32.55.63,1.1.95,1.66-.34-.14-.69-.28-.93-.38-.28.41-.52.76-.77,1.11,0-.41.18-.96-.02-1.21-.65-.81-1.63-1.02-2.57-.71-.96.32-1.86.86-1.86,2.47,1.47-1.83,2.93-1.98,4.47-.57,1,1.13.01,2.27-.08,3.52,1.31-.64.51-1.82,1.1-2.6-.07,1.04-.13,2.08-.2,3.05,1.7-1.32,1.88-1.91,1.1-3.92-.1-.26-.18-.52-.27-.78,1.45,1.58,1.65,3.18-.09,4.79,1.66.37,2.08-.04,2.3-2.03,2.45-.7,3.75-.38,4.21,1.03-.57-.09-1.15-.18-1.72-.27-.04.11-.09.21-.13.32.3.32.6.64.91.96-.15.3-.3.61-.45.91-.86-.6-1.8-1.14-1.82-2.49-.37.67-.81,1.41-.65,1.99.58,2.15,3.41,2.71,4.99,1.07-.14-.5-.27-1.01-.41-1.51-.08-.16-.15-.33-.23-.49.51.4,1.35.71,1.47,1.2.22.93-1.02,1.98-2.68,2.47.55.14.99.25,1.43.37-1.15.33-2.3.67-3.54,1.02.41.28.69.47.97.67-.7.24-1.39.48-2.08.72.7.43,1.2.75,1.7,1.06-.4.65-.68,1.11-.98,1.59.3.25.55.46.79.66-.05.08-.1.15-.15.23-.56-.36-1.12-.73-1.88-1.23.03.64.05,1.05.07,1.5-.16-.11-.26-.18-.36-.25-.27-1.2-.54-2.39-.84-3.73-.79,1.01-.75,1.37.35,4.69.1,1.11.6,1.8,1.83,1.63.05,0,.07-.28.1-.43.51,0,1.02,0,1.53,0,2.12-.07,3.29-.4,2.99-2.85.72-.34,1.04-.9.94-1.69.58.68.35,1.28-.17,1.86-.15.17-.41.4-.38.53.31,1.2-.39,1.7-1.21,2.46-1.04.96-1.93,1.15-3.18.77-.36-.11-.84.19-1.26.3-.58-.34-1.11-.8-1.88-.33-.18.11-.63-.23-.96-.36.3-.19,1.03.49.97-.46h.58c-.27-2.15-1.42-4.1-1.18-6.33-.22.36-.37.74-.35,1.13.05,1.43.16,2.86.25,4.29-.16-.34-.43-.66-.46-1.01-.11-1.19-.13-2.39-.19-3.73-.69.24-1.16.41-1.73.61.33,1.03.62,1.96.91,2.89-.52-1.07-1.04-2.14-1.62-3.32-.22.06-.55.16-1.03.3.89.78,1.97,1.34,1,2.58.03-1.74-.01-1.8-1.6-2.03.98,1.17,1.2,2.76.37,3.26-.51.3-1.29.62-1.76.44-.74-.28-1.33-.97-2-1.5-.02.19-.08.59-.14,1.1-.29-.48-.51-.84-.72-1.2.61,1.08-.49,1.42-.81,2.03-.37.44-.65,1.07-1.13,1.3-1.45.7-1.32,2.18-1.99,3.27,2.23.46,4.12-.11,5.92-1.32-.08.48-.13.78-.18,1.07v-.02c-1.91.38-3.82.76-5.74,1.13-.33.06-.66.08-1.23.14.36-.72.66-1.21.85-1.74.12-.33.08-.72.11-1.09-.41,0-.83-.08-1.23-.01-.46.08-.9.28-1.35.43-1.39.48-2.53.06-3.5-.97.47.07.94.13,1.41.2.02-.1.04-.2.06-.3-1.23-.45-1.1-1.56-1.26-2.53.21.37.39.76.63,1.1.22.3.62.82.74.77.53-.21.98-.6,1.46-.93,1.02-.09,2.03-.19,3.05-.27.26-.02.51.02.77.03-.08.28-.16.56-.24.83.09.08.18.17.27.25.53-.51,1.07-1.02,1.6-1.53-.11-.14-.22-.28-.33-.43-.44.3-.88.59-1.32.89.28-.59,1.18-1.13.17-1.87-.03.42-.07.82-.1,1.22-.13.04-.26.08-.38.12.04-1.21-.05-2.32-1.29-2.47-.87,1.07-1.65,2.03-2.42,2.99-.45-.23-1.2-.36-1.3-.69-.32-1.12-.41-2.3-.59-3.46-1.7,1-1.88,1.41-1.23,2.95-.54.71-.74,1.49-.47,2.37-.22-.3-.44-.61-.69-.96-.72.38-1.51.74-2.23,1.2-.62.4-.9,1.06-.08,1.47,1.72.86,3.47,1.71,5.29,2.33,1.51.51,3.13.69,4.66,1.29-1.09-.18-2.2-.31-3.28-.57-1.15-.27-2.29-.61-3.41-1.01-1.11-.4-2.17-.92-3.57-1.52,0,1.76,0,3.36,0,4.97,0,.4,0,.79.02,1.19.06,2.35.49,2.54,2.98,2.54,1.4,0,2.81.61,4.2,1.01,1.47.43,2.92.94,4.39,1.48-1.32-.41-2.6.98-4.07-.26-.71-.6-2.02-.46-3.04-.74-1.1-.31-2.17-.72-3.26-1.1-.41-.14-.8-.3-1.43-.54-.28,1.21-.44,2.34-.83,3.39-.19.51-.76.99-1.28,1.24-.69.34-1.44.5-1.52,1.44,0,.11-.06.24-.13.31-1.47,1.32-1.51,2.35.29,3.09,2.46,1.01,5.1,1.61,7.67,2.36.53.15,1.08.2,1.85.33-.45.11-.7.17-1.16.28.97.23,1.73.41,2.5.59-4.23-.49-8.44-1.05-12.14-3.93,0,1.76-.11,3.32.09,4.83.04.33,1.15.58,1.8.76.9.24,1.85.34,2.75.59.37.1.68.45,1.16.79-1.88-.34-3.54-.61-5.19-.97-.77-.17-1.06.17-1.12.8-.12,1.42-.96,2.11-2.23,2.56-.52.18-.93.68-1.55,1.16,1.73.96,2.09-.59,2.93-1.02.09,1.14-.65,1.96-1.83,2.03-.95.05-1.17.37-.86,1.31.48-.27.95-.53,1.57-.88-.33.85-.59,1.46-.79,2.09-.02.06.32.24.44.33.41-.6.77-1.12,1.13-1.65v-.02c-.14.41-.22.84-.4,1.23-.15.31-.4.58-.61.86-.33-.25-.75-.45-.99-.77-.44-.58-.78-1.24-1.16-1.88-1.71,1.29-1.83,2.77-.18,3.8,2.01,1.25,4.16,2.28,6.24,3.41.2.11.4.21.56.41-2.82-.92-5.63-1.88-7.97-3.91.06.16.1.34.18.49.09.16.22.31.34.46-1.07.86-.66,3.06.81,3.79-1.19-.04-1.37.67-1.35,1.47.02.94.17,1.89.15,2.83,0,.48-.35.96-.36,1.44-.03,1.34.13,2.66,1.54,3.34,2.14,1.03,4.25,2.11,6.45,2.98,2.8,1.1,5.64,2.13,8.75,1.76.22-.03.47.05.7.11,1.36.39,2.72.8,3.97,1.16-1.88.76-3.7-1.33-5.98-.66.77.23,1.35.41,1.93.58-2.59.12-5.14.28-7.64-.84-2.81-1.26-5.72-2.25-8.32-3.99-1.87-1.25-2.67-2.81-2.57-4.96.01-.27-.03-.54-.05-.9-.22.21-.37.35-.68.63v-1.74c-1.74.56-3.27,2.14-3.17,3.44.76-.47,1.47-.9,2.17-1.33.06.07.13.15.19.22-.87.66-1.73,1.32-2.6,1.98l.33.47c.43.27.94.46,1.26.82.61.68,1.11,1.46,1.67,2.19.26.35.48.83.84.98,1.01.43,2.08.73,2.8.97.33.46.45.82.66.88,2.54.72,5.06,1.56,7.64,2.05,6.7,1.28,13.49,1.74,20.31,1.71,2.68-.01,5.37-.02,8.05,0,.42,0,.83.15,1.25.23-2.17.07-4.34.19-6.51.21-3.08.03-6.17-.02-9.25.02-.46,0-.92.37-1.31.55-.26-.14-.64-.45-1.06-.54-.17-.04-.45.36-.67.57.4.28.8.81,1.2.81,3.16,0,6.33-.09,9.49-.17.79-.02,1.59-.27,2.35-.18,1.41.18,2.79.54,4.18.82.08-.57.14-1.01.2-1.46.09.02.18.03.27.05.07.29.14.58.17.69.29-.44.61-.92.92-1.39.74.48.59,1.01.12,1.6-.11.14-.1.38-.15.57v-.02c-.77.17-1.45.46-2.36.07-1.08-.47-1.94.44-1.89,1.81.11,3.22,1.09,6.13,3.13,8.64.84,1.03,1.76,2.01,2.7,3.07-1.34-.36-2.56-1.68-5.08-5.5-.05.87-.08,1.47-.12,2.07-.11.02-.22.04-.34.06-.5-1.85-1-3.7-1.52-5.65.18,2.18.35,4.27.52,6.36-.09,0-.19.02-.28.03-.28-1.97-.56-3.94-.85-5.91l-.2-.02v4.88h-.23c-.12-1.59-.23-3.18-.35-4.78-.15,0-.31-.02-.46-.03-.28,1.52-.57,3.03-.85,4.55-.59-.95.87-2.25-.55-3.14-.15,1.34-.29,2.62-.43,3.9-.14.02-.27.04-.41.06-.19-.82-.38-1.63-.59-2.59-.2.7-.38,1.32-.56,1.95l-.18-.02c.08-.78.15-1.55.23-2.33-.06,0-.12-.02-.18-.03-.19.79-.39,1.58-.6,2.43-.27-.6-.5-1.13-.74-1.66-.12,0-.23.01-.35.02-.21.6-.42,1.2-.63,1.8-.04,0-.09,0-.13-.01.04-.47.09-.94.15-1.66-.49,1.01-.87,1.81-1.35,2.81.09-.76.16-1.33.23-1.89-.08-.08-.16-.17-.24-.25-1.16,2.63-3.52,3.39-6,4.02.69-.73,1.39-1.46,2.09-2.21-2.02-.39-3.7,1.91-3.23,4.37l.02-.02c-.21-.14-.42-.29-.62-.43-.09.08-.18.17-.27.25.5.53.91,1.31,1.51,1.52,1.24.43,2.6.56,3.9.81l-.02-.02c1.69.48,3.36,1.08,5.09,1.42,1.78.35,3.6.52,5.41.62,3.79.2,7.44-.14,10.3-3.1,1.54-1.6,1.4-2.55-.61-3.48-.64-.29-1.33-.45-2.03-.69,1.22-.4,3.06.31,3.73,1.42.6,1,.11,2.66-1.04,3.72-2.18,2.03-4.88,2.7-7.72,2.9-2.51.18-5.04.39-7.54.24-2.53-.15-5.07-.57-7.4-1.76-.17-.09-.34-.19-.53-.22-2.4-.48-3.53-2.24-4.18-4.33-.17-.55.11-1.47.51-1.94,1.37-1.59,3.13-3.02,5.23-2.97,2.67.06,3.13-1.76,3.67-3.49.45-1.46.51-3.04.72-4.57.09-.65-.23-.9-.89-.92-2.45-.07-4.9-.23-7.35-.26-.59,0-1.18.34-1.77.53-.22-.22-.44-.62-.66-.62-1.29,0-2.59.11-4.17.2.77.61,1.26.99,1.75,1.37-.42-.17-.95-.24-1.26-.54-1-.95-1.74-.51-2.46.32-.23.26-.46.52-.74.85,1.08.63,2.08,1.24,3.11,1.81.17.09.51.1.63-.01.49-.44.92-.93,1.32-1.36-.24-.42-.43-.75-.62-1.07.72.63,1.36.72,2-.17.25-.35.73-.53,1.11-.78-.51.6-1.01,1.21-1.6,1.9.59.5,1.2,1.02,1.81,1.54-1.35-.99-2.67-1.8-3.65.53,1.02.79,2.09,1.62,3.24,2.51,1.93-2.02,3.82-4.01,5.71-5.99.08.06.16.13.24.19-1.81,2.05-3.62,4.1-5.45,6.17.49.53.86.93,1.24,1.32-.03.04-.06.08-.09.12-.43-.33-.87-.66-1.29-.98-1.44.89-1.99,1.76-1.71,2.35-.48.3-.99.49-1.33.85-1.42,1.53-2.79,3.12-4.19,4.68-.25.27-.56.48-1.02.55.91-1.1,1.82-2.21,2.74-3.3.7-.82,1.38-1.67,2.15-2.41.56-.53.28-.97.09-1.47,1.72.68,1.67-1.19,2.8-1.72-1.2-.88-2.19-1.62-3.21-2.33-.14-.1-.5-.09-.62.02-.61.57-1.18,1.18-1.8,1.81,1.08.84,1.97,1.54,2.86,2.24-.61-.33-1.25-.61-1.81-1-1.3-.9-1.28-.92-2.4.31.27.26.55.52.82.79-1.14-.73-1.73.02-2.44.77-1.37,1.46-2.82,2.84-4.24,4.25-.09-.08-.18-.16-.27-.24,1.01-1.09,2.01-2.19,3.14-3.41-.89-.56-1.7-1.18-2.61-1.57-.3-.13-.97.21-1.27.53-.71.73-1.31,1.58-2.18,2.25.08-.23.16-.45.27-.76-.95-.54-1.94-1.04-2.86-1.63-.63-.41-1.03-.17-1.43.29-.47.54-.92,1.08-1.43,1.68.21.22.41.44.89.95-1.67-.96-1.93.56-2.75.97.29-.61.58-1.23.86-1.83-2.98-1.93-3.72-1.87-4.61.38.71.47,1.41.94,2.12,1.41-.88-.33-1.75-.67-2.66-1.02-.68.76-1.35,1.51-2.02,2.25-.1-.07-.19-.14-.29-.21.57-.8,1.14-1.6,1.71-2.41-1.64-1-1.65-1.01-2.74.23-1.61,1.82-3.2,3.65-4.8,5.48-.09-.07-.19-.15-.28-.22,1.8-2.2,3.6-4.41,5.37-6.58-.24-.36-.44-.66-.64-.97,1.38.54,1.42.52,2.95-1.61-.69-.36-1.36-.7-2.04-1.06-.61.73-1.13,1.35-1.7,2.03.33.27.57.46.81.66-1.81-.28-2.3,1.29-3.17,2.3-.16.19-.15.53-.22.81-2.11,1.13-3,3.6-5.03,4.98,1.16-1.47,2.46-2.84,3.43-4.42.91-1.49,2.54-2.38,3.21-4.15-.52-.19-1.03-.37-1.53-.56,1.68.41,2.94-.04,3.64-1.97-.46,0-.85-.04-1.24,0-1.69.19-3.37.43-5.07.59-.68.06-1.16.18-1.53.86-.26.48-.84.79-1.31,1.2.47.43.98.9,1.59,1.46-.77.08-1.41.15-2.03.22-.17-.58-.35-1.16-.55-1.84.18-.1.52-.27,1.03-.55-1.48-1.17-3.28-.58-4.83-1.42,0,1.04-.11,1.96.06,2.82.07.35.75.57,1.08.81,0,0-.23-.04-.37.06-.21.14-.36.37-.53.56.22.07.44.19.67.21.19.02.39-.07.58-.12,2.24-.54,2.57-.24,2.29,1.98-.07.59-.56,1.41.55,1.64l-.02-.02c-.83,2.39.53,4.23,1.52,6.17.59,1.14,1.18,2.29,1.7,3.46.1.22-.1.58-.18.87-.07.25-.16.49-.28.83-.35.19-.87.48-1.66.91.66.12,1.02.18,1.37.24v.16c-2.72.15-5.44.26-8.15.48-.53.04-1.22.39-1.52.82-1.75,2.48-3.4,5.02-5.09,7.55.17.13.26.21.36.26q2.96,1.6,4.68-1.23c1.45-2.38,2.91-4.75,4.47-7.07-1.35,3.38-3.6,6.29-5.35,9.7,2.19.68,4.3,1.34,6.72,2.1-.59.16-.86.23-1.42.38,7.68,1.97,15.23,3.1,23.08,4.13-2.48.89-4.63.18-6.76-.14-7.36-1.1-14.63-2.6-21.71-4.92-1.12-.37-1.09.69-1.84,1.08.18-.57.31-.95.49-1.5-5.88-1.92-11.43-4.45-15.88-8.99-.23.2-.42.37-.74.66,0-.65.11-1.17-.03-1.6-.15-.45-.54-.82-.83-1.23-.13.01-.27.02-.4.03-.62,3.13-1.24,6.26-1.87,9.38,1.63-1.66,2.26-3.98,4.05-5.43-1.62,3.85-4.58,7.06-5.18,11.35.12.07.23.14.35.21,2.2-3.33,4.4-6.66,6.6-9.98.08.02.15.03.23.05-.18.54-.29,1.11-.54,1.61-.6,1.2-1.29,2.36-1.91,3.55-.41.79-.78,1.6-1.17,2.41-1.27,1.47-2.53,2.95-3.8,4.42.15.12.3.24.46.36.65-.85,1.3-1.7,1.94-2.56.42-.56.81-1.14,1.21-1.71-.33.86-.57,1.78-1.02,2.58-.97,1.71-2.07,3.35-3.06,5.05-.27.46-.36,1.02-.38,1.61,2.48-4.31,6.23-7.85,7.75-12.79.02.38.04.76.05,1.14.21.02.42.03.5.04-.44,1.68-.87,3.32-1.29,4.96.18.05.36.1.55.14.65-2.5,1.3-5,1.95-7.5.05,0,.1.02.16.03-.32,2.33-.64,4.66-.96,6.99.07.02.14.04.22.05.22-.93.44-1.86.66-2.8.08.01.16.03.24.04-.07.79-.13,1.57-.2,2.36.07.03.14.06.21.09.5-.82,1-1.64,1.66-2.71-.94,4.33-1.81,8.36-2.68,12.4.05.03.11.05.16.08,1.62-2.44,3.24-4.88,4.86-7.31.07-.1.15-.31.19-.3.14.03.27.13.4.21-1.82,2.71-3.81,5.33-5.39,8.18-.78,1.41-.79,3.24-1.15,4.89.11.03.22.05.33.08,1.45-2.19,2.74-4.51,4.38-6.55,1.63-2.01,2.05-4.17,1.79-6.61.41-2.04.82-4.09,1.25-6.13.08-.4.25-.79.54-1.14-.13,1.42-.27,2.84-.43,4.58.34-.44.47-.61.71-.94-.27,2.89-.52,5.61-.77,8.32.07,0,.14.01.22.02.53-2.29,1.06-4.59,1.59-6.88.08.02.15.03.23.05-.13,1.9-.26,3.8-.38,5.71.12.03.25.05.37.08.15-.38.3-.76.49-1.23.35.03.73.05,1.22.09.78-1.48,1.6-3.02,2.42-4.57.11.04.21.08.32.12-.55,1.58-1.02,3.19-1.66,4.74-1.01,2.47-2.4,4.83-3.12,7.37-.7,2.48-.79,5.14-1.1,7.72-.12,1.01-.14,2.03-.24,3.42.77-.91,1.3-1.55,1.83-2.19.11.04.22.07.33.11-2.05,2.39-2.97,5.05-2.27,8.2.37-.31.72-.6,1.31-1.1-3.09,4.69-5.99,9.07-8.9,13.48.91.25,1.74.47,2.56.7,0,.08-.01.16-.02.24h-3.64c.11-.22.22-.49.38-.72,2.25-3.48,4.65-6.87,6.68-10.47.73-1.29.56-3.08.8-4.64-.13-.03-.27-.07-.4-.1-2.41,3.48-4.81,6.97-7.22,10.45-.11-.07-.23-.15-.34-.22.87-1.4,1.7-2.82,2.61-4.19,1.48-2.25,3.03-4.45,4.49-6.7.34-.53.57-1.21.63-1.84.18-2,.26-4.01.4-6.32-.82,1.34-1.51,2.46-2.19,3.58-1.75,2.87-3.59,5.69-5.2,8.63-.63,1.16-.81,2.6-1.08,3.93-.27,1.35-.43,2.73-.59,4.1-.08.7-.07,1.41-.08,2.11-.01,1.14,0,2.27-.29,3.49-.16-.56-.28-1.13-.48-1.67-.12-.35-.3-.9-.53-.94-2.16-.41-3.8-2.07-6.02-2.4-1.08-.16-2.08-.74-3.16-.02-.18.12-.52.02-.9.02.07-.43.13-.74.22-1.33-1.02.1-1.97.19-3.14.31-.87-.71-.9-1.94-.71-3.09.59-3.54,1.21-7.08,2.01-10.58.94-4.12,2.18-8.18,3.1-12.31,1.14-5.13,2.15-10.29,3.1-15.46.43-2.32.66-4.69.85-7.04.24-2.89,1.12-5.51,2.39-8.13,1.69-3.47,3.94-6.48,6.97-8.7,3.08-2.25,6.52-4.01,9.85-5.89,1.54-.87,3.21-1.5,4.75-2.21.03-1.42-.8-1.8-1.97-1.98-3.86-.58-7.71-1.24-11.57-1.84-2.65-.41-4.96-1.64-6.96-3.31-.88-.74-1.37-2.05-1.8-3.19-.29-.76-.15-1.61.81-2.11.69-.36,1.45-.82,1.82-1.45.32-.55.19-1.4.13-2.11-.17-1.73.58-3.15,2.12-3.94.36-.19.67-.5,1-.75h-.02c.29.32.54.68.88.94.47.37,1,.82,1.4.03.71.25,1.45.77,2.1.67,1.01-.16,2.03-.61,2.9-1.17.5-.32.72-1.09,1.07-1.66l-.02.02c.18.08.53.2.53.23-.24.88-.51,1.76-.8,2.72.08.06.31.22.53.38h-.02c-.05.05-.1.17-.13.17-1.54-.12-3.06.72-4.63.13-.4-.15-.96-.28-1.3-.12-.95.44-1.7.2-2.48-.36-.23-.17-.83-.26-.89-.16-.55.89-1.11,1.8-1.43,2.78-.07.21.79.95,1.32,1.08,1.95.5,3.93.86,5.91,1.24.7.13,1.41.18,2.12.23.66.05,1.05-.12.92-.94-.31-1.91.54-3.27,2.15-4.24.22-.13.53-.31.58-.52.55-2.19,2.35-3.33,3.88-4.68.98-.87,2.03-1.66,3.01-2.47.03.11.14.53.26.94-.5,1.04-.5,1.84.66,2.57,1.16.73,2.14,1.75,3.2,2.65l-.3.34c-1.34-1.67-3.8-2.1-4.63-4.45-.56.65-1.08,1.26-1.77,2.07,1.17.44,2.12.79,3.06,1.15,1.21.47,2.57.76,2.8,2.74.72-.64,1.24-1.1,1.68-1.49.31,2.09-.22,2.91-2.37,2.36-.24-.06-.57,0-.77.12-1.69,1.07-3.4.61-5.1.09-.52-.16-.98-.48-1.48-.72.02-.1.03-.2.05-.29,2.44,1.05,4.41.41,6.03-1.49-1.41-.73-2.82-1.46-4.28-2.22-1.09,1.23-1.01,1.84.58,3.53-.06.08-.12.16-.18.24-.9-.71-1.81-1.43-2.8-2.22-.25.56-.5,1.13-.78,1.68-.11.22-.29.41-.43.61-.74,1.05-1.67,2.03-2.16,3.18-.74,1.73-.04,2.46,1.86,2.34.91-.06,1.84-.14,2.73-.02,1.5.2,2.96.62,4.46.8.8.1,1.64-.11,2.46-.2.77-.09,1.54-.22,2.31-.33,1.03-.15,1.81-.46,2.44-1.53.76-1.29,1.08-2.46.8-3.92.34.69.68,1.39,1.02,2.08-.24-1.34-.67-2.66.78-3.78-1.36-.53-2.48-.97-3.61-1.4.99,1.73.93,2.21-.52,2.46.93-1.31.11-1.88-.85-2.55-1.29-.9-2.45-1.97-3.67-2.96,1.14.68,2.28,1.36,3.42,2.03.37-.19.73-.36,1.07-.55.98-.55,1.18-1.55.34-2.27-.85-.73-1.83-1.3-2.67-1.88-.34.89-.65,1.69-.96,2.49l-.26-.12c.19-1.03.38-2.05.56-3.08-.16-.06-.32-.13-.49-.19-.55.87-1.1,1.74-1.64,2.6-.12-.16-.25-.32-.37-.47.81-1.33,1.62-2.66,2.42-3.99.12-.02.25-.04.37-.06-.01,1.85,1.38,2.37,2.55,3.14.58.39,1.06.94,1.55,1.46,1.42,1.52,1.35,2.11-.33,3.19,1.56.59,3.1,1.18,4.75,1.81.15-.52.34-.85.33-1.17-.06-1.66,1.05-2.29,2.33-2.91,1.84-.88,3.96-1.49,4.36-3.92.52.03.92.06,1.38.09-.06.34-.1.64-.15.93-.21.49-.48.96-.63,1.47-.47,1.56-1.33,2.77-3.1,3.66.85-1.21,2.11-1.8,2.06-3.03-1.2.7-2.39,1.4-3.6,2.09-.48.28-1.14.4-1.45.8-.53.7-.84,1.55-1.24,2.34-.76.57-1.57,1.19-1.78,2.22-.14.7-.33,1.77.03,2.11.7.66,1.75,1.22,2.71,1.3,2.28.2,4.6.24,6.88.09,2.53-.17,5.12-.1,7.4-1.66,1.46-1,1.63-2.62.15-3.56-.43-.28-.88-.56-1.36-.72-.31-.1-.83-.12-1.03.06-1.47,1.32-3.25,1.09-5.01,1.03.68-.3,1.4-.49,2.13-.57,1.66-.17,2.95-1.47,2.71-3-1.62,2.38-4.45,2.02-6.48,3.39-.07-.11-.15-.21-.22-.32.57-.54,1.15-1.09,2.01-1.91-1.83.15-3.34.15-4.78.46-.52.11-1.22.94-1.25,1.47-.05.79.81.96,1.53.88.68-.08,1.35-.25,2.06-.39-.72,1.82-3.28,1.68-5.44-.31.48.04.85.07,1.22.11.17-2.16.96-2.61,2.47-2.66,1.26-.04,2.53-.03,3.79-.03,1.44,0,1.67-.19,1.89-1.66.12.35.25.7.37,1.05.32-.05.59-.09.94-.14-.25.39-.41.65-.58.91.54-.12,1.02-.29,1.31-.62.17-.2.15-.9.03-.96-.74-.33-1.53-.54-2.31-.78-1.26-.68-1.8-1.71-1.48-3.14.47.63.05,1.78,1.31,2,.83.14,1.61.6,2.23.84,2.08-1.5,4.11-2.97,6.44-4.65,0-1.53.01-3.55,0-5.56-.01-1.66.67-2.97,1.9-4.04.65-.57,1.58-.84,1.8-1.87.04-.21.57-.45.87-.45,1.05,0,1.36-.57,1.41-1.49.15-2.88.34-5.75.46-8.63.04-.97.39-1.61,1.22-2.14.72-.45,1.45-.91,1.16-2.11-.24-1,.87-1.95,2.3-2.15-.43.39-.77.69-1.17,1.04,1.26-.03,1.76-.49,1.74-1.65-.06-2.45-.21-4.91-.24-7.36-.02-1.24.15-2.49.23-3.84-.56.03-.99.12-1.4.07-.26-.04-.69-.26-.71-.44-.03-.27.15-.69.38-.84,1.55-1.03,3.06-2.18,4.99-1.96.41-1.95-.96-2.77-2.13-3.81-.87-.77-1.12-1.87-.78-3.06.28.06.5.11.74.16-.11-1.45-.2-2.83-.32-4.21-.07-.78.22-1.14,1.02-1.27.85-.14,1.63-.22,2.25.53-.07.13-.23.3-.19.39.39,1.01.12,1.63-.97,1.88-.18.04-.3.3-.48.5-.27-.23-.49-.42-.72-.62.92.22.77-.76,1.2-1.11.18-.14.2-.67.08-.93-.09-.19-.55-.35-.79-.29-.28.07-.7.39-.71.61-.03.57.14,1.15.24,1.73-.64,1.58-.19,2.51,1.2,3.07.04.47-.03.81.1,1.02.7,1.1,1.63,1.2,2.72.49,0-.95.08-1.79-.02-2.61-.1-.81-.39-1.6-.59-2.41-.07,0-.14,0-.22.01v3.02c-.71-.96-.75-2.07-.47-3.03.24-.8.07-1.24-.41-1.75.75.72,1.51,1.43,2.05,1.95,1.05-.92,2.31-2,3.54-3.12.19-.17.34-.52.31-.76-.25-2.2.46-2.82,2.63-2.24.11.03.22.05.41.09.31-2.65,2.41-3.03,4.44-3.5.08.08.16.16.23.24ZM118.79,39.51c.16-.04.32-.08.48-.12-.26-.35-.57-1.03-.76-1-.71.13-1.62-.97-2.13.29-.02.04.06.13.11.22.72-.09,1.58-.85,2.07.36h-1.71c.25.82.4,1.35.56,1.86.97-.27,1.68-.56,1.38-1.63ZM115.24,33.8c-.67-.46-1.35-.9-2.01-1.38-1.54-1.13-1.56-1.25-.99-3.05.11-.35.22-.74.19-1.1-.08-.88-.25-1.74-.43-2.91-.52.27-1.28.43-1.62.91-.27.39-.14,1.17,0,1.73.33,1.2.98,2.34,1.16,3.56.25,1.67,1.98,2.85,3.66,2.24,1.59,1.78,3.31,1.65,4.96.34-1.59-.32-3.33-.67-5.27-1.05.18.39.26.56.33.73ZM37.92,178.94c-.59.78-1.16,1.57-1.78,2.33-1.22,1.49-2.46,2.97-3.61,4.35,1.39.82,2.77,1.64,4.44,2.62.33-3.37.63-6.34.92-9.32.14-1.21.27-2.43.44-3.92-.38.29-.49.33-.55.42-2.34,3.03-4.68,6.06-7.03,9.09-.66.86-.05,1.15.64,1.44,2.06-2.53,4.11-5.05,6.22-7.65.13.28.22.45.3.63ZM48.55,125.83c-.73.87-1.47,1.75-2.2,2.62-.06-.06-.13-.12-.19-.19,2.1-3.26,4.2-6.52,6.3-9.78-.1-.1-.2-.21-.3-.31-.69.62-1.55,1.14-2.03,1.89-1.49,2.33-2.81,4.76-4.24,7.13-.53.88-1.18,1.68-1.77,2.52-.1-.06-.2-.13-.3-.19,1.85-3.12,3.7-6.23,5.7-9.59-1.29.29-2.01.78-2.5,1.67-1.93,3.49-3.87,6.98-5.83,10.45-.41.73-.87,1.43-1.31,2.15-.13-.07-.26-.15-.39-.22,2.22-4.05,4.44-8.11,6.66-12.16-.27-.03-.39.01-.45.1-2.25,3.77-4.51,7.53-6.71,11.32-.15.26-.05.9.17,1.09,1.26,1.05,2.59,2.02,3.91,3,.67.5,1.14.21,1.51-.45.37-.67.77-1.33,1.16-2l.24.14c-.51.94-1.03,1.87-1.56,2.84,1.01.5,1.89.93,2.82,1.38,1.58-2.46,3.11-4.83,4.64-7.21-.4-.21-.69-.35-1.24-.64.64-.12,1.03-.09,1.3-.26.29-.18.71-.63.65-.81-.49-1.44.21-2.5.89-3.65,1.44-2.43,3.4-4.65,3.3-7.87-2.28,3.28-4.51,6.5-6.74,9.71-.1-.07-.2-.14-.31-.21,2.75-4.18,5.5-8.36,8.25-12.53-.09-.08-.18-.16-.27-.24-.49.46-1.07.86-1.45,1.4-1.96,2.82-3.85,5.69-5.8,8.52-.74,1.08-1.57,2.1-2.36,3.14-.06-.04-.11-.08-.17-.12.23-.65.47-1.3.7-1.96.29-.28.65-.52.87-.84.98-1.43,1.89-2.91,2.87-4.33,1.06-1.53,2.17-3.03,3.26-4.54l-.37-.28c-3.05,2.48-4.42,6.24-6.71,9.3ZM86.75,96.8c-.6.69-1.23,1.41-1.85,2.13.05.07.09.14.14.21.62-.43,1.25-.86,1.99-1.37-.25.58-.49,1.15-.61,1.43.1.69.27,1.16.21,1.61-.29,2.37-.97,3.27-3.32,3.54-3.49.4-7,.61-10.51.75-1.81.07-3.71.02-4.74-2.11-.82,1.38-1.62,2.31-3.27,2.36-2.52.08-5.02.61-7.53.65-1.8.03-3.61-.4-5.4-.67-.28-.04-.68-.25-.77-.48-.44-1.1-1.19-1.03-2.19-.93-1.84.18-3.7.06-5.55.14-3.13.14-5.08-1.13-6.13-4.12-1,.54-1.43,1.26-1.48,2.45-.05,1.2.65,1.49,1.47,1.82,3.75,1.5,7.52,2.93,11.61,3.15,2.96.16,5.94.27,8.91.19,4.46-.12,8.91-.42,13.36-.63,1.03-.05,2.07,0,3.1,0-.07.29-.18.41-.3.43-9.98,1.3-19.97,1.86-29.94-.15,4.99,1.51,10.08,1.91,15.28,1.74-.69.12-1.38.25-2.16.39,4.05.81,14.2.34,18.02-.65,1.45-.38,2.95-.61,4.35-1.13,1.02-.38,1.92-1.09,2.94-1.57,2.39-1.13,5.35-1.35,6.74-4.17.13.08.25.15.38.23-.34,1.02-.68,2.04-1.03,3.09.87-.13,1.83-.18,2.73-.42.9-.24,1.74-.66,2.61-1.01q.18.56,4.17,0c-.34-1.18-1.15-1.34-2.3-1.43-1.16-.09-2.27-.78-3.4-1.23-.43-.17-.83-.46-1.27-.57-1.3-.34-2.61-.63-3.92-.93.4-.82.97-.72,1.96-.21,1.31.68,2.75,1.11,4.13,1.65.44-1.21.03-1.67-.92-1.93-1.25-.35-2.48-.8-3.7-1.27-.64-.25-1.21-.64-1.78-.95ZM60.28,116.13c-1.37.14-1.42.83-1.45,1.64-.08,1.74.04,3.56-.46,5.18-.63,2.05-1.1,4.28-3.06,5.74-.91.68-.66,2.46.17,2.49.83.04,1.66-.22,2.41-.34.4.1.77.26,1.14.25,1.18-.04,2.36-.22,3.54-.2,1.08.02,2.09-.04,2.97-.74.15-.12.29-.24.43-.36-1.39.49-1.56-.48-1.87-1.36-.29-.85-.68-1.66-1.03-2.49l-.28.02v4.41h-.53c-.18-4.51-.36-9.02-.55-13.83-.3.62-.65,1.07-.74,1.57-.43,2.28-.8,4.57-1.18,6.86-.09-.01-.18-.02-.26-.03.25-2.9.51-5.8.77-8.8ZM27.77,175.42c.09.05.19.1.28.15,2.66-3.78,5.32-7.56,7.98-11.34.12.08.24.15.36.23-.73,2.33-2.47,4.13-3.41,6.27.14.3.29.66.16.88-.35.62-.83,1.15-1.21,1.75-1.65,2.59-3.32,5.18-4.91,7.82-.26.42-.17,1.05-.24,1.58.12.04.24.07.35.11.58-.73,1.19-1.44,1.73-2.2,2.3-3.17,4.43-6.47,6.92-9.48,1.36-1.65,2.45-3.15,2.31-5.39-.13-2.06-.03-4.14-.03-6.39-3.5,5.38-7.49,10.32-10.29,16ZM30.03,168.11c.05.04.1.07.16.11.13-.12.29-.23.4-.37,2.39-3.25,4.79-6.49,7.14-9.78.34-.48.52-1.16.57-1.77.14-1.85.19-3.7.25-5.56.03-.87,0-1.75,0-2.62-.1-.03-.19-.06-.29-.09-2.29,3.82-4.58,7.63-6.87,11.45.13.08.27.17.4.25,1.11-1.62,2.22-3.24,3.42-5,.21.44.32.66.45.93.53-.62,1.01-1.18,1.49-1.74.12.09.25.17.37.26-2.5,4.65-4.99,9.29-7.49,13.94ZM46.68,155.44c-.35.42-.57.63-.73.88-1.12,1.67-2.25,3.35-3.35,5.04-.71,1.09-1.72,2.12-2,3.32-.47,2.02-.47,4.16-.66,6.24.14.07.29.14.43.21.05-.15.08-.32.17-.45,2.06-3.37,4.12-6.74,6.17-10.12.15-.25.26-.59.25-.89-.05-1.33-.16-2.66-.26-4.23ZM39.66,178.11c.37-.56.61-.91.83-1.27,1.92-3.17,3.8-6.37,5.76-9.52,1.31-2.1,1.54-3.51.7-6.05-1.87,3.06-3.72,6.03-5.52,9.04-.54.9-1.16,1.84-1.36,2.84-.31,1.53-.28,3.12-.41,4.96ZM47.7,139.5c.89.33,1.56.55,2.21.84.75.33,1.17.14,1.63-.57,1.43-2.22,2.97-4.38,4.46-6.56.13-.2.2-.45.26-.58-.77-.2-1.48-.31-2.11-.57-.94-.39-1.57-.14-2.09.68-.88,1.4-1.79,2.79-2.68,4.18-.53.82-1.06,1.63-1.67,2.57ZM28.21,184.13c.3-.16.64-.25.84-.46,2.66-2.81,5.21-5.72,7.97-8.43,1.68-1.66,1.01-3.4.88-5.18-.14-.07-.28-.13-.42-.2-3.07,4.72-6.14,9.45-9.27,14.27ZM68.26,101.32c.22,1.35.54,2.26,1.84,2.39,1.37.13,2.74.47,4.1.41,3.26-.15,6.51-.45,9.75-.78.96-.1,1.55-.79,1.77-2.03-.69.33-1.23.53-1.71.83-1.74,1.09-3.55,1.11-5.46.55-.57-.17-1.2-.24-1.8-.21-1.25.08-2.54.51-3.75.32-1.54-.23-3.02-.92-4.74-1.49ZM49.68,101.98c1.12,1.86,2.82,2.65,4.77,2.69,2.8.06,5.6-.12,8.4-.18,1.86-.04,3.37-.6,4.16-2.88-5.85,2.66-11.56,2.93-17.34.38ZM89.56,107.65c.25.27.31.38.41.44.65.37,1.3.75,1.96,1.1,1.27.67,1.54.54,2.05-.95-.64-.4-1.29-.82-1.94-1.23.06-.09.11-.19.17-.28.79.39,1.58.79,2.39,1.19.55-.59,1.06-1.13,1.57-1.67-1.14-.7-2.2-1.77-3.52-1.05-1.13.62-2.05,1.61-3.09,2.45ZM90.9,112.31c-1.15-.63-2.16-1.22-3.21-1.73-.19-.09-.61.07-.79.24-.49.49-.91,1.05-1.48,1.73,1.12.68,2.13,1.33,3.19,1.89.2.1.68-.08.87-.29.48-.51.86-1.1,1.42-1.85ZM84.23,108.03c.88.48,1.64.94,2.44,1.32.19.09.6.04.74-.11,1.08-1.1,2.12-2.25,3.18-3.38-2.33.11-4.63.09-6.37,2.17ZM84.37,112.6c-.63-.37-1.12-.67-1.63-.96-1.28-.74-2.14-.48-2.99,1.13-.64,1.21.77,1.05,1.23,1.51.24.24.59.43.92.51.28.06.71.02.88-.17.55-.59,1.01-1.27,1.57-2.01ZM100.22,108.33c-.78-.46-1.55-.92-2.33-1.37-.97-.56-2.3,0-2.58,1.1-.04.16.04.39.14.52,1.62,1.98,3.06,2,4.66.07.02-.03.02-.07.1-.32ZM37.61,98.11c.14.27.21.69.46.85.49.32,1.06.5,1.61.72.94.39,1.89.29,2.89.29,1.48,0,2.96.65,4.45.95.37.07.81-.06,1.17-.22.08-.04.05-.72-.12-.84-.3-.22-.74-.3-1.13-.33-1.29-.09-2.6-.03-3.87-.23-1.79-.29-3.54-.77-5.44-1.2ZM81.97,110.67c2.91,1.69,3.83,1.51,4.48-.79-3.08-1.6-3.23-1.57-4.48.79ZM94.78,114.22c.58-.63,1.11-1.18,1.72-1.84-1.18-.68-2.25-1.3-3.35-1.94-.52.63-.95,1.17-1.45,1.78,1.04.68,1.99,1.29,3.07,2ZM96.46,100.23c0,1.34.64.88,1.1.85,1.85.76,3.7,1.52,5.63,2.32.2-1.17.43-2.07-.96-2.26-1.87-.26-3.73-.58-5.77-.91ZM92.66,110.16c-.46-.22-.81-.37-1.15-.55-.34-.18-.67-.39-1-.58-1.4-.83-1.75-.7-2.57.99.82.49,1.68.96,2.49,1.48.63.4,1.08.34,1.45-.33.17-.3.43-.55.78-1.01ZM113.4,39.08c.15-.54.29-1.08.46-1.68-1.9.04-4.15,1.32-4.44-2-.62.44-1.04.74-1.62,1.15.88.8,1.53,1.7,2.4,2.09.88.4,1.99.3,3.2.44ZM57.43,113.34c-1.59.82-3.13,1.54-4.59,2.42-.52.31-.8,1-1.19,1.52,1.61-.44,2.99-1.13,4.45-1.57,1.26-.38,1.44-1.17,1.33-2.36ZM43.68,120.91c.09.14.19.28.28.43,1.72-1.07,3.44-2.14,5-3.11.01-.06-.03.16-.06.39,1.62-.32,2.28-.9,2.5-2.28-2.75,1.3-5.46,2.56-7.71,4.56ZM93.52,110.06c.81.49,1.51.92,2.22,1.34,1.29.76,1.32.75,2.13-.64-.52-.35-1.03-.71-1.56-1.04-.55-.35-1.12-.67-1.68-1-.39.47-.69.83-1.12,1.34ZM122.65,32.44c-.05-.11-.1-.22-.15-.34h-6.19l-.02.28c.4.05.79.1,1.19.15-.06.09-.12.19-.18.28.29.21.56.6.86.6.9.03,1.81,0,2.69-.17.63-.13,1.21-.52,1.81-.8ZM80.63,110.76c-1.47-1.41-2.13-.9-3.41,1.36,1.44,1.44,1.8.56,3.41-1.36ZM75.02,114.46c1.6,1.21,2.09,1.02,3.13-1.15q-1.6-1.03-3.13,1.15ZM74.5,110.43c0,.18.01.37.02.55.71.21,1.42.61,2.11.57.57-.03,1.47-1.6,1.43-2.13-1.2.34-2.38.67-3.56,1.01ZM125.62,31.17c-.63.17-1.3.26-1.88.54-.27.13-.54.63-.5.93.03.27.44.66.73.71,1.3.19,2.08-.81,1.66-2.17ZM76.95,99.64c.65.86,4.65.46,6.12-.71-1.98.23-3.96.46-6.12.71ZM100.78,35.36c-.09,1.48,1.05,2.14,1.84,3.13.48-.55.85-.99,1.18-1.37-.99-.58-1.96-1.15-3.01-1.76ZM113.55,36.82c-.21-.75.62-1.72-.55-2.04-1.02-.28-1.78.35-1.94,1.36.55.04,1.09.08,1.81.14-.31.3-.44.42-.68.65.52-.04.89-.07,1.37-.1ZM83.02,108.35c-.04-.12-.08-.23-.12-.35-1.12.35-2.24.71-3.54,1.12,1.69,1.44,2.03,1.34,3.66-.77ZM44.23,102.78c-1.97-.58-4.07-1.21-6.18-1.83,1.84,1.76,4,2.18,6.18,1.83ZM40.47,126.15c-.09-.05-.17-.1-.26-.15-1.35,1.59-2.7,3.18-2.52,5.53.92-1.79,1.85-3.59,2.77-5.38ZM108.73,33.36c-.12-.12-.24-.24-.36-.36-.88,1.35-1.82.21-2.83.14-.06.45-.17.88-.14,1.29.02.26.2.69.38.73.28.06.64-.09.93-.24.5-.26.97-.57,1.43-.9.24-.17.41-.44.61-.66ZM103.65,103.01c.71-.15,1.07,1.38,1.89.39.26-.32.34-1.21.11-1.41-.41-.38-1.11-.44-1.74-.65-.11.69-.18,1.15-.26,1.68ZM38.37,131.27c.11.04.23.08.34.13,1.35-2.46,2.7-4.92,4.06-7.38-.13-.07-.26-.14-.39-.21-1.34,2.49-2.67,4.97-4.01,7.46ZM107.05,32.12c-.08-.08-.16-.15-.25-.23.19-.12.38-.23.62-.37-.32-.22-.61-.42-.92-.63-.29.63-.56,1.23-.84,1.83,1.99.49,2.23.42,2.78-.91-.49.11-.94.21-1.39.31ZM106.41,44.77c.05.12.1.25.15.37,1.17-.45,2.34-.9,3.51-1.35-.05-.13-.1-.26-.15-.39-1.27.19-2.75-.11-3.5,1.37ZM106.49,41.25c.14.1.28.2.42.31.38-.46.8-.89,1.11-1.4.14-.24.14-.65.04-.92-.05-.15-.5-.3-.68-.23-.28.11-.61.37-.69.64-.15.51-.14,1.06-.2,1.6ZM63.73,124.97c.2,1.2.32,2.43,1.45,3.15.18.11.48.02.73.02,0-.21.08-.5-.02-.63-.7-.86-1.44-1.7-2.16-2.54ZM57.36,122.87c-.72,1.15-1.43,2.31-2.23,3.6,1.18-.06,1.94-1.24,2.23-3.6ZM114.12,34.87v2.28c.74-.42,1.33-.76,2.02-1.15-.69-.39-1.25-.7-2.02-1.13ZM103.06,41.18c-.05-.08-.1-.17-.14-.25-.62.09-1.33.03-1.83.33-.46.28-.69.94-1.02,1.44.05.08.1.16.15.24.95-.59,1.9-1.17,2.84-1.76ZM37.26,104.85c-.05.13-.09.25-.14.38,1.71.57,3.42,1.15,5.12,1.72.04-.12.08-.24.12-.35-1.7-.58-3.4-1.16-5.1-1.75ZM109.12,103.19l.24-.33c-.38-.34-.75-.69-1.13-1.03-.31.38-.62.76-1.11,1.36h2ZM55.47,142.79c-.04.15-.08.29-.12.44,1.37.39,2.74.79,4.11,1.18.04-.14.08-.28.12-.41-1.37-.4-2.74-.8-4.11-1.2ZM97.93,104.37c-1.09.16-1.88.28-2.84.43q1.65,1.04,2.84-.43ZM107.09,30.73c1.74-.62,1.84-.82.84-1.91-.28.64-.53,1.2-.84,1.91ZM72.46,102.21c.73-.05,1.45-.09,2.4-.15-.96-.8-1.7-1-2.4.15ZM94.39,101.23c.1-.04.21-.09.31-.13.06-.41.13-.82.21-1.3-.42-.09-.78-.16-1.47-.3.41.74.69,1.23.96,1.73ZM95.16,101.36c.1.08.2.15.3.23.24-.3.61-.57.67-.9.04-.22-.37-.51-.58-.78l-.27.22c-.04.41-.08.82-.12,1.22ZM56.89,102.61l.05.24c.65-.07,1.3-.11,1.94-.22.12-.02.2-.27.3-.42-.15-.1-.33-.3-.44-.27-.63.19-1.24.44-1.86.67Z"/>
      <path class="cls-1" d="M176.88,203.25c.2-.42.41-.84.73-1.5,1.35.32,2.77.65,4.41,1.03-.31-.44-.47-.66-.68-.97,1.25.17,2.38.31,3.51.5.34.06.85.16.95.39.52,1.17,1.41.78,2.2.57,3.05-.8,4.06-1.99,4.17-5.4.07-2.07-.28-4.15-.38-6.23-.05-.94.06-1.88.08-2.82.08-4.71.32-9.42.17-14.12-.19-5.78.04-11.52.56-17.26.11-1.23.46-2.44.83-3.66.14,2.38.05,4.77.74,7.18.33-.56.65-1.08,1.08-1.8.02,1.48-1.07,2.63-.22,4.47-.28,2.62-1.97,5.62-1.34,9.02.39-1.29.78-2.57,1.18-3.86.05.01.11.02.16.04-.13.72-.29,1.43-.36,2.15-.05.53-.6,1.2.36,1.55.09.03.02.59-.04.89-.42,2.52-.86,5.03-1.04,7.61.46-1.63.92-3.26,1.38-4.9.12.03.25.06.37.09-.13.66-.24,1.32-.39,1.98-.49,2.15-1.1,4.28-1.46,6.46-.39,2.37-.75,4.77-.74,7.16,0,1.78.42,3.63,1.02,5.32.29.81,1.35,1.42,2.17,1.95.29.19.9-.12,1.36-.2.41.21.85.44,1.3.67.21-.49.63-1,.58-1.47-.15-1.73,1.18-3.02,1.24-4.7.09-2.76.38-5.51.58-8.26.01-.14.05-.27.35-.38-.05.59-.09,1.18-.14,1.77-.3,3.9-.6,7.8-.92,11.7-.1,1.22.09,1.44,1.28,1.2,1.73-.36,3.45-.77,5.16-1.21.22-.05.43-.32.54-.54,1.93-3.8,3.85-7.61,5.77-11.42.09-.17.17-.38.15-.57-.43-3.52-.87-7.05-1.32-10.57,0-.06-.1-.11-.31-.32-2.06,7.07-5.15,13.59-9.03,19.75.28-.58.56-1.17.85-1.74,3.14-6.26,6.02-12.63,8.08-19.34.07-.22.15-.47.12-.69-.28-2.52-.59-5.03-.9-7.54-.01-.1-.12-.18-.18-.26-2.19,4.83-4.37,9.64-6.55,14.46-.13-.06-.26-.11-.39-.17.42-.93.84-1.86,1.25-2.79,1.78-4.04,3.58-8.07,5.31-12.13.26-.61.16-1.37.02-2.1-.11.21-.22.41-.45.84-.16-1.18-.29-2.13-.47-3.4-1.4,3.45-2.68,6.63-3.97,9.81-.1-.04-.21-.08-.31-.13.75-1.91,1.51-3.82,2.25-5.73.68-1.77,1.44-3.51,1.99-5.32.27-.88.07-1.89.2-2.82.14-.97.43-1.92.65-2.87.18-.79.48-1.57.49-2.36.01-1.36-.16-2.73-.02-4.19.31,1.12.69,2.22.9,3.36.14.77.01,1.58.04,2.37.07,2.08.08,4.17.25,6.24.23,2.71.52,5.43.92,8.12.68,4.53.37,9.14,1.59,13.64.75,2.78.62,5.79.95,8.69.05.48.57.88.7,1.37.32,1.18.53,2.39.81,3.58.07.3.28.57.43.85.12-.06.24-.11.36-.17-.04-.3-.09-.59-.1-.68,1.75-.27,3.5-.54,5.25-.81.18-.21.36-.42.54-.63,1.52.16,2.9-.13,4.05-1.2.12-.12.37-.12.56-.14,1.28-.1,1.91-.89,2.36-2.02.36-.93,1.08-1.72,1.42-2.65.54-1.46,1.22-2.98,1.25-4.49.05-2.38-.44-4.76-.6-7.14-.28-4.38-.49-8.76-.71-13.15-.05-1.01,0-2.03-.17-3.07-.83,2.4-1.65,4.8-2.51,7.19-.54,1.49-1.08,2.98-1.75,4.41-.93,1.99-.3,3.97-.27,5.95.14.04.29.08.43.11,1.33-3.24,2.66-6.48,3.99-9.72.13.05.26.1.38.15-1.67,4.45-3.35,8.9-5.02,13.35.08.05.15.09.23.14-.06-.23-.11-.45-.21-.82-2.07,3.69-4.08,7.28-6.1,10.88-.14-.08-.28-.15-.43-.23.55-1.04,1.1-2.09,1.65-3.13,1.43-2.73,2.89-5.45,4.25-8.21.3-.62.31-1.43.29-2.15-.03-1.05-.21-2.09-.34-3.28-2.51,4.9-4.94,9.65-7.37,14.4-.14-.07-.28-.14-.42-.21.62-1.28,1.24-2.57,1.86-3.85,1.77-3.67,3.5-7.35,5.31-11,.7-1.41.51-2.85.43-4.3-.04-.7-.17-1.39-.29-2.32-1.62,3.29-3.15,6.38-4.68,9.47-.09-.03-.17-.06-.26-.1.25-.64.48-1.3.76-1.93,1.14-2.48,2.31-4.94,3.43-7.42.51-1.12.93-2.27.19-3.66-1.39,2.41-2.71,4.71-4.03,7-.11-.06-.21-.11-.32-.17.55-1.04,1.09-2.07,1.64-3.11.8-1.5,1.62-2.99,2.39-4.5.76-1.51.27-3.06.03-4.59-.02-.14-.2-.28-.18-.39.87-4.13.47-8.25-.02-12.38,0-.05.09-.12.27-.37.43,1.97.82,3.78,1.21,5.58-.06-.09-.14-.21-.29-.42v9.92c.1,0,.19.01.29.02v-3.87c.1,0,.19,0,.29,0,.04.8.08,1.6.11,2.4.07.03.13.05.2.08.35-.75.74-1.49,1.05-2.26.66-1.61,1.45-3.19,1.87-4.86.3-1.21.17-2.56.06-3.83-.14-1.6-.45-3.19-.7-4.89.33.3.57.51.73.65.16,1.88.33,3.79.5,5.77.36-.09.56-.15.52-.13,0,1,.14,2.05-.04,3.05-.2,1.18-.65,2.31-1.03,3.45-1.04,3.11-2.2,6.19-3.09,9.34-.33,1.16-.09,2.49-.07,3.74,0,.55.12,1.09.39,1.73.63-1.52,1.31-3.02,1.89-4.56.84-2.22,1.7-4.43,2.38-6.7.41-1.37.51-2.84.74-4.17.31.51-.39,1.55.54,2.24-1.07,1.56-.23,3.55-.2,5.45.04,3.04.4,6.07.63,9.11.13,1.77.28,3.54.61,5.34,1.2-4.15,2.96-8.13,3.36-12.47-.11-.03-.22-.06-.32-.09-.77,2.49-1.53,4.98-2.3,7.47-.13-.03-.25-.05-.38-.08.12-.69.18-1.4.36-2.08.6-2.17,1.16-4.36,1.89-6.5.83-2.44.62-4.92.28-7.47-1.07,4.1-2.15,8.2-3.22,12.29-.1,0-.19-.02-.29-.03.06-.81.02-1.64.2-2.42.83-3.58,1.76-7.14,2.56-10.74.27-1.23.25-2.53.36-3.8-.17-.03-.35-.06-.52-.09-.9,3.26-1.79,6.52-2.69,9.78-.09,0-.18-.01-.27-.02.02-.47-.03-.95.08-1.4.83-3.38,1.7-6.76,2.53-10.15.14-.56.08-1.17.12-1.75-.1,0-.2-.01-.31-.02-.55,2.01-1.1,4.03-1.64,6.04-.19-.03-.37-.05-.56-.08,2.67-5.59,1.51-11.25.36-16.9.11,0,.22-.02.34-.03.25.94.51,1.88.76,2.83-.79-2.32.04-5-1.27-7.2-.13.02-.26.04-.39.05v2.31c-.21-.6-.33-.95-.39-1.12-7.02,5.81-15.17,8.48-24.34,8.55.21-.09.43-.19.64-.28-5.52,1.21-10.67,3.38-16.19,4.32-5.5.95-10.84,2.89-16.55,2.49.56-.13,1.11-.26,1.67-.39,0-.06,0-.12,0-.18-.33-.06-.67-.18-.99-.16-2.44.19-4.88.42-7.32.63-1.53.13-3.07.32-4.6.38-4.15.17-8.31.28-12.46.41-.01-.1-.02-.2-.03-.31,1.55-.22,3.1-.55,4.66-.65,5.64-.38,11.28-.74,16.93-1.01,3.91-.19,7.79-.56,11.65-1.21,2.16-.37,4.41-.27,6.57-.66,2.56-.45,5.07-1.19,7.6-1.82.84-.21,1.69-.43,2.49-.75.71-.29,1.8.13,2.09-1.09.03-.14.73-.11,1.11-.2,3.57-.83,7.15-1.63,10.71-2.53.76-.19,1.43-.76,2.15-1.14.3-.16.63-.27.95-.41,1.57-.51,3.14-1.02,4.71-1.53-.04-.18-.08-.37-.11-.55-1.06.15-2.12.31-3.19.46-.35-.15-.7-.4-1.07-.43-1.54-.11-3.09-.15-4.72-.21,1.33-.5,2.52-.94,3.71-1.39-.05.25-.1.51-.2,1.06,1.25-.07,2.34-.14,3.44-.2,1.37.32,2.73.5,4.03-.24,1.11.81,1.57-.37,2.36-.56-.04-.15-.09-.3-.13-.45-.57.17-1.14.35-1.72.52-.08-.21-.11-.53-.26-.61-.87-.43-2.49-.07-3.25.62-.31.29-.7.5-1.05.74.36-.53.72-1.05,1.16-1.69-.63-.11-1.21-.14-1.75-.31-1.17-.36-1.66.86-2.58,1.06.67-.65,1.34-1.29,2.01-1.94,1.2,1.14,3.28.71,4.51-.99-1.2-.26-2.35-.71-3.52-.02-.22-.28-.44-.55-.61-.76.6-.17,1.29-.37,1.97-.57.02.15-.02.38.07.44,1,.73,3.21.18,3.79-1-1.19-.09-2.35-.98-3.46.18-.08-.28-.12-.78-.23-.8-1.23-.15-2.5-.98-3.85-.05.43-.38.87-.76,1.3-1.14.17.13.32.36.5.39,1.43.2,2.94.87,4.17-.52-.16.34-.33.68-.49,1.03,2.24.87,2.89.71,3.81-1.1h-3.24c-.02-.12,0-.28-.06-.34-.97-.78-3.3-.69-4.27.15.11-.37.21-.75.34-1.17.51-.41,1.24-.98,1.96-1.55-.07-.11-.14-.23-.21-.34-1.15-.23-2.31-1.02-3.44.28-.05-.11-.1-.21-.16-.32.44-.36.88-.71,1.33-1.07.88.85,2.65.86,3.93,0,.06.04.11.09.16.14-.12.21-.23.43-.38.69.72.13,1.33.28,1.94.33.59.05,1.2-.01,1.8-.02.46.29.91.57,1.61,1.01-.11-1.13-.2-1.77-1.15-1.72v-.72s0,.02,0,.02c-.6-.66-1.02-1.6-2.17-1.41-.53-.24-1.06-.48-1.48-.66.21-.03.57-.08.93-.13.04-.1.07-.2.11-.29-.58-.32-1.17-.65-1.75-.97-.39-.51-.73-1.08-1.21-1.48-.16-.13-.7.19-1.12.32.12-.22.27-.48.51-.89-5.96-3.75-11.77-7.77-19.1-8.61.07-.18.13-.37.2-.55.67.16,1.35.32,2.02.48.73.18,1.45.36,2.27.39l-1.82-.95s.02-.07.02-.1c.23.05.46.07.68.15,4.37,1.7,8.76,3.36,13.11,5.13,2.9,1.18,5.27,3.16,7.35,5.46,1.19,1.32,2.16,2.83,3.3,4.2,1.02,1.23,2.14,2.38,3.43,3.45-.44-.71-.89-1.43-1.33-2.14,1.3.79,2.1,2,2.46,3.36,1.02,3.89,1.95,7.81,2.81,11.73.73,3.31,1.01,6.75,2.06,9.95.61,1.87-.17,3.58.33,5.36.51,1.82.65,3.74.99,5.61.67,3.61,1.29,7.24,2.12,10.82.25,1.05.28,2.03.3,3.07.02,1.09.5,2.18.5,3.27,0,1.09-.37,2.18-.57,3.27-.04.2,0,.42.18.66.07-.34.15-.68.22-1.05.79.75.74,2.02-.14,2.45-1.29.63-2.64,1.17-3.97,1.72-1.37.57-2.8,1.04-3.69,2.47-.9-.58-1.45.14-1.87.81-.96,1.53-1.8,3.15-2.73,4.7-.26.43-.61.86-1.02,1.13-.85.55-1.78.97-2.65,1.5-1.15.7-2.3,1.17-3.74,1.2-2.22.05-4.44.42-6.79.67.46,2.43-1.38,2.88-3.04,3.4-2.38.75-4.77,1.45-7.18,2.08-1.02.27-1.95.59-2.91,1.07-1.02.51-2.37.33-3.58.46-.31.04-.62.13-1,.22.17-1.44-.79-1.21-1.75-1.09-1.3.17-2.62.83-3.86-.17-1.08,2.13-2.44,3.81-4.91,4.22.24-.17.49-.33.79-.54-.98-.21-1.87-1.08-2.84.06.33.11.63.2,1.06.34-.25.11-.4.24-.51.21-2.39-.72-4.79-1.42-7.15-2.2-.85-.28-1.6-.59-2.38.18-.24.23-.74.18-1.12.26v.02ZM228.24,130.39c-.13.35-.27.69-.41,1.05,1.43.32,2.06-.06,2.42-1.67-.78.24-1.41.44-2.03.64-.05-.25-.03-.65-.16-.71-1.58-.76-2.65-.44-3.81,1.12,1.44.61,2.77.72,3.99-.43ZM226.08,124.22c1.03.8,2.3.98,3.13.42-.43.79-.86,1.58-1.33,2.42.26.1.51.2.76.29.26.1.52.18.78.28-2.23-.25-2.45-.18-2.94,1.15,1.14.03,2.22,1.01,3.32-.06.25-.24.34-.66.59-.9,1.05-1.04,1.01-1.39-.26-1.96-.04-.02-.05-.1-.08-.17.2-.03.39-.05.58-.07-.11-.54-.22-1.06-.33-1.59-.23.05-.42.09-.61.14.05-.27.1-.53.14-.79-1.72-.75-2.06-.69-3.3.51-.14.14-.31.24-.47.35.27-.46.54-.92.81-1.39-2.89-.97-3.53-1.02-4.52,1.09,1.3.1,2.51.19,3.73.28ZM207.73,198.33c1.08-.22,1.84-.39,2.61-.53.42-.08.95-.28,1.27-.11,1.33.71,2.44.06,3.3-.69.96-.84.98-2.83.28-3.86-1.09-1.6-1.59-3.31-1.28-5.25.06-.35-.03-.73-.05-1.09-.12-.03-.24-.07-.37-.1-1.87,3.78-3.75,7.56-5.76,11.63ZM234.87,180.47c-.15-.04-.3-.07-.44-.11.06-.46.06-.93.18-1.37.75-2.87,1.55-5.73,2.27-8.6.18-.73.16-1.52.22-2.28-1.06,2.51-1.74,5.08-2.67,7.56-.69,1.85-.57,3.67-.19,5.49.14.67.74,1.25,1.13,1.88.18-.04.36-.08.53-.12.39-3.52,2.25-6.79,1.42-10.51-.82,2.69-1.64,5.39-2.46,8.08ZM238.37,177.2h-.33c-.38,1.6-.76,3.22-1.17,4.99,1.92-.85,3.58-1.59,5.25-2.33-.24-.63-.42-1.12-.64-1.7-.14.26-.23.42-.46.85v-2.33c-.1-.01-.2-.02-.3-.03-.16,1.13-.33,2.26-.49,3.39-.07-.08-.14-.16-.21-.24-.19.15-.37.31-.56.46-.17-.5-.33-1.02-.52-1.53-.18-.51-.38-1.02-.56-1.53ZM239.69,178.35c.23-2.77.45-5.54.68-8.31-1.18,2.68-2.17,5.38-.68,8.31ZM229.05,154.42c-.12-.06-.24-.11-.35-.17-.68,2.55-2.86,4.61-2.53,7.49.14.05.28.09.43.14.82-2.48,1.64-4.97,2.46-7.45ZM239.8,166.18c-.1,1.11-.2,2.23-.32,3.5,1.04-1.14,1.15-2.25.32-3.5ZM241.29,171.07c-.06,0-.13,0-.19-.01-.07.54-.17,1.07-.2,1.61-.04.55,0,1.11,0,1.66h.4v-3.26ZM192.77,161.8c.15,0,.3.02.45.03.08-.89.16-1.77.24-2.66-.16-.01-.31-.02-.47-.03-.07.89-.14,1.78-.21,2.66Z"/>
      <path class="cls-1" d="M106.46,205.14c.1-.4.22-.8.28-1.21.24-1.71.33-3.46.71-5.13.36-1.61,1.07-3.14,1.52-4.74.18-.66.16-1.41.07-2.09-.51-3.67-1.15-7.33-1.61-11.01-.59-4.7-1.14-9.42-1.54-14.14-.2-2.34-.03-4.71-.03-7.27.28.3.37.39.48.51.22-.57.43-1.13.64-1.69l.4.05c-.76,2.7-.66,5.39-.27,8.09.39,2.67.24,5.44,1.25,8.25.91-1.32.91-1.39.63-3.27.98,1.67,1.95,3.34,2.93,5.01-.1.07-.2.13-.3.2-.41-.6-.81-1.2-1.22-1.79-.08.02-.16.04-.24.06v2.33c.41-.44.59-.63.87-.93.05.94.1,1.77.14,2.6l.52.06c.55-2.28,1.09-4.56,1.64-6.85l.16.03c.02.11.07.23.05.34-.79,5.56-.68,11.21-1.75,16.74-.32,1.65-.98,3.24-1.46,4.86-1,3.44-2.06,6.87-2.92,10.35-.27,1.07-.07,2.16,1.53,2.5.69.15,1.27.98,2.18.57.03-.01.1,0,.11.02,1.08,1.96,2.68.18,4.04.45,1.31.27,2.84-.68,4.3-1,2.08-.46,4.18-.82,6.27-1.24.81-.16,1.61-.36,2.4-.59,1.48-.43,2.96-.84,4.41-1.35.97-.34,1.9-.83,2.84-1.25.43-.19.86-.39,1.28-.58,0,.12-.02.24-.03.35.63.15,1.28.23,1.87.48.45.18.89.51,1.19.89.44.54.67,1.25,1.14,1.77.55.61,1.18,1.22,1.9,1.56.86.4,1.54.84,2,1.72.88,1.65,3.3,1.98,4.72.74.2-.17.48-.33.72-.34,1.48-.03,2.11-.85,2.22-2.24.04-.48.16-.96-.03-1.51-.26.71-.51,1.42-.77,2.13-.09-.02-.18-.05-.28-.07.55-2.35,1.11-4.7,1.66-7.05-.08-.02-.16-.04-.24-.06-.51,1.51-1.01,3.03-1.52,4.54-.07-.01-.14-.03-.21-.04.14-.65.27-1.29.43-1.94.35-1.42.75-2.83,1.05-4.26.11-.52.02-1.09.02-1.64-.15-.02-.29-.04-.44-.06-.37.98-.73,1.96-1.1,2.94-.06,0-.11,0-.17,0,0-.49-.17-1.07.03-1.46.75-1.47.55-2.8-.55-4.4-.13,4.52.35,8.78-.31,12.98-.11,0-.21,0-.32,0-.09-1.62-.24-3.25-.26-4.87-.07-6.29-.13-12.59-.13-18.88,0-1.74.24-3.47.27-5.21.01-.73-.25-1.46-.39-2.18-.11-.54-.22-1.08-.33-1.62.11-.03.22-.07.34-.1.12.22.25.43.44.77-.13-6.68-.07-13.21-.85-19.71.12-.01.24-.03.36-.04.46,4.14.91,8.27,1.37,12.41.09,0,.19.01.28.02.34-.81.68-1.62,1.02-2.44-.18,2.13-1.09,4.12-1.07,6.26.11.03.22.05.33.08.42-1,.83-2.01,1.25-3.01l.31.12c-.05,1.69-1.25,3.23-.97,4.96.1.02.2.04.31.06.3-.61.59-1.21.89-1.82.52,1.44-1.13,2.63-.22,4.04.24-.06.44-.11.38-.09.17,1.03.34,2,.48,2.97.04.29-.01.6-.02.9-.19-.32-.38-.64-.57-.95l-.37.12c.17.68.33,1.37.5,2.05.14-.02.28-.04.43-.05v-1.19c.19.18.56.38.55.53-.13,1.04-.33,2.08-.52,3.11-.03.17-.26.39-.21.46,1.1,1.68-.88,3.54.21,5.27-.17-.26-.33-.52-.5-.78-.08.03-.16.05-.24.08l.63,2.22c.13.02.25.04.38.06.26-.99.57-1.98.77-2.98,1.12-5.45,2.27-10.9,3.29-16.37.42-2.25.55-4.55.8-6.82.31-2.86.62-5.72,1.02-8.6,0,1.19.06,2.38-.01,3.56-.15,2.64-.18,5.31-.58,7.91-.63,4.17-1.6,8.29-2.29,12.46-.78,4.71-1.42,9.45-2.13,14.18-.06.42-.18.84-.41,1.26v-3.68c-.83,1.2-.96,2.19-.62,3.46.41,1.56.46,3.24.53,4.87.08,1.93.02,3.87.02,6,.91.11,1.57.16,2.23.28.28.05.62.19.78.41.75,1.02,1.65,1.23,2.81.79.43-.16.95-.08,1.44.05-.62.15-1.24.42-1.86.41-.91-.01-1.86-.12-2.73-.38-1.07-.32-2.08-.84-3.27-1.34,0,.46-.01.71,0,.96.1,1.49-.44,2.24-1.82,2.93-1.09.54-2.07,1.29-3.14,1.86-.29.15-.78.08-1.11-.05-2.03-.78-3.08-.31-3.99,1.44-.98-1.03-1.9-2.01-2.9-3.06-2.4,2.05-5.42,1.64-8.34,2.03.65.1,1.3.23,1.95.29.67.06,1.34.06,2.02.08,1.33.04,2.66.14,3.99.08.44-.02.86-.44,1.34-.7.1.22.24.54.39.89-1.47,1.34-3.22,2.02-5.04,2.6-.39.12-.99.49-.99.74,0,.52.24,1.11.57,1.53.44.56,1.06.98,1.72,1.56-2.08.63-3.99,1.38-6.3.12,1.14-.2,2.02-.35,3.16-.55-.8-.17-1.34-.29-2.24-.48.86-.23,1.37-.36,1.88-.5-1.13-.69-1.17-1.29-.15-2.41-1.12.06-2.24.12-3.36.21-.11,0-.25.2-.29.33-.29,1.13-.35,2.4-1.87,2.82l1.58.67c-.02.11-.05.22-.07.33-.71-.13-1.42-.26-2.14-.4-.02.05-.05.1-.07.15.42.19.85.37,1.27.56-.01.07-.02.14-.03.21-.57-.06-1.13-.11-1.7-.17-.04.06-.07.12-.11.17.46.28.92.56,1.38.85-.68-.05-1.37-.1-2.05-.14-.02.17-.04.33-.06.5,2.3.51,4.45,1.73,7.13,1.51.3.33.77.85,1.24,1.38.16.24.31.48.47.71-.38.2-.75.54-1.14.56-2.63.17-5.23-.01-7.76-.97l2.64.17.06-.32c-1.09-.45-2.18-.91-3.29-1.37,2.74.55,5.45,1.1,8.15,1.64.05-.16.1-.32.15-.48-.25-.1-.5-.3-.75-.28-2.47.16-4.65-.64-6.66-2.01-.62-.42-2.11-.25-2.53.33-.04.06.11.26.23.52-.31-.13-.52-.2-.72-.3-.83-.41-1.62-.28-1.76.65-.3,1.97-.41,3.98-.55,5.97-.06.89-.01,1.79-.01,2.79,1.26.83,2.62,1.73,3.98,2.63-1.78.14-3.08-.77-4.4-1.68-.32-.22-.72-.33-1.09-.49-.09-1.32-.87-1.71-1.96-1.59.42.47.87.97,1.32,1.48-2-1.24-4.22-.89-6.37-.8-7.07.28-12.15,4.28-16.58,9.25-2.49,2.79-4.67,5.87-6.99,8.81-1.65,2.08-3.78,3.4-6.32,4.17-1.16.35-2.18,1.11-3.33,1.49-1.35.45-2.77.69-4.16,1.01-.03-.13-.06-.25-.09-.38.57-.12,1.15-.25,1.72-.37,0-.07,0-.15,0-.22h-2.2l.02.02c-.9-.15-1.81-.29-2.71-.44-.03-.09-.05-.18-.08-.27,1.37-.3,2.75-.59,4.12-.89-.01-.15-.03-.3-.04-.44h-5.67c0-.08,0-.16,0-.24,1.49-.19,2.98-.39,4.47-.58,0-.07-.01-.14-.02-.21-.85-.11-1.7-.23-2.9-.38,1.34-.22,2.34-.45,3.35-.54,4.2-.37,7.23-2.69,10.2-5.49,4.2-3.96,7.34-8.79,11.27-12.94,1.25-1.32,2.85-2.33,4.29-3.48-.59.72-1.19,1.44-1.75,2.18-2.01,2.63-4.01,5.27-6.02,7.9-.64.83-1.3,1.64-1.95,2.46-.06-.05-.13-.1-.19-.15.12-.34.25-.69.41-1.14-.25.1-.39.11-.46.19-2.42,2.44-4.84,4.88-7.22,7.35-.25.26-.3.72-.44,1.09.12.11.24.22.36.34,2.06-1.52,4.13-3.04,6.36-4.68-.45.61-.77,1.05-1.1,1.5.11.09.21.18.32.27.74-.73,1.54-1.41,2.19-2.21.25-.31.04-.96.25-1.33,2.27-3.93,5.51-6.97,9.12-9.62,1.35-1,3.06-1.54,4.35-2.59,1.15-.93,2.37-1.37,3.75-1.58.73-.11,1.45-.21,2.4-.34-.7-.21-1.15-.35-1.61-.48.6-.4,1.13-.59,1.67-.62,2.25-.1,4.5-.13,6.75-.22.4-.02.79-.16,1.19-.25-.04-.16-.07-.32-.11-.48-3.94-.09-7.83.04-11.62,1.48-3.78,1.43-6.8,3.93-9.75,6.58,1.46-2.61,3.49-4.66,6.02-6.06,2.49-1.37,5.16-2.41,7.65-3.55.09.08-.03-.02-.19-.16.36-.21.68-.4,1.3-.77-3.47.21-6.07,1.68-8.67,3.19-.72.42-1.48.77-2.22,1.15,5.38-4.39,11.42-6.54,18.46-5.39.22-1.44,1.43-1.83,2.46-2.22,1.41-.54,2.52-1.25,3.18-2.67.22-.46.82-.81,1.32-1.06,1.19-.61,1.21-.57,1.09-1.84h.96c-.25-.19-.37-.32-.52-.4-1.28-.68-2.6-1.29-3.84-2.03-1.44-.86-2.43-2.13-2.92-3.75-.19-.64-.56-.75-1.15-.66-1.5.24-3.01.16-4.55.46-1.57.31-3.12.97-4.76.95-.35,0-.74-.21-1.02-.43-.75-.58-1.35-1.24-2.48-1.26-.5,0-1.06-.93-1.46-1.52-.4-.59-.63-1.28-.94-1.93v.02ZM131.36,207.59c2.15.17,4.19.34,6.23.51.01-.11.02-.23.03-.34-.33-.05-.66-.1-1.22-.18,1.28-.27,2.35-.49,3.41-.71-.02-.1-.04-.2-.06-.3-1,.13-2.01.27-3.01.4-.02-.1-.03-.2-.05-.31.27-.08.53-.15.83-.23-.2-.26-.39-.51-.58-.76.31-.1.59-.2,1.18-.39-.6-.46-1.02-1.03-1.37-1-1.5.16-3.07.32-4.11,1.65-.26.33-.46.71-.67,1.04.29.02.73.05,1.16.09,0,.04,0,.08,0,.11-.57.13-1.13.26-1.77.41ZM140.83,209.84c.02-.19.04-.38.06-.58-.35-.05-.74-.22-1.06-.13-1.3.36-2.56.99-3.88,1.15-3.55.44-6.97-.13-10.16-1.84-.31-.16-.78,0-1.18,0,.05.45-.07,1.1.17,1.3.72.57,1.59.95,2.4,1.4l.16-.3c-.24-.15-.48-.3-.92-.57,5.01.81,9.75,1.18,14.4-.44ZM127.65,213.5c.03-.07.05-.13.08-.2h4.31c0-.05.02-.11.03-.16-2.45-.84-4.9-1.68-7.56-2.6.18.56.18,1.34.56,1.69,1.81,1.61,4,2.45,6.47,2.55-1.3-.43-2.6-.85-3.89-1.28ZM130.47,205.98c-.7.17-1.41.35-2.26.56.48.27.78.44,1.35.77-1.21.27-2.06.46-2.91.65,0,.12.01.24.02.36.41,0,.82.04,1.23,0,.5-.06.99-.23,1.5-.29,1.43-.15,1.64-.49,1.08-2.04ZM109.33,191.87c.11.02.23.03.34.05,1.04-2.59,1.1-3.01.17-3.8-.19,1.39-.35,2.57-.51,3.75ZM152.51,189.67c-.16.03-.31.06-.47.1.18.83.36,1.66.61,2.77,1.03-1.33.33-2.08-.14-2.87ZM151.85,191.73c-.18.05-.36.1-.54.15.23.81.47,1.62.7,2.44.17-.05.35-.1.52-.14-.23-.81-.45-1.63-.68-2.44ZM150.63,181.6c.21-.02.43-.04.64-.06-.12-.77-.25-1.54-.37-2.31-.17.03-.35.05-.52.08.09.76.17,1.53.26,2.29ZM82.01,252.6c-.06-.13-.12-.25-.18-.38-1.22.48-2.44.96-3.66,1.43.05.11.09.23.14.34,1.24-.47,2.47-.93,3.71-1.4ZM152.12,182.02c-.21.01-.42.03-.62.04.07.58.13,1.16.2,1.73.19-.02.39-.04.58-.06-.05-.57-.1-1.14-.16-1.72Z"/>
      <path class="cls-1" d="M148.34,219.1c-1.29-.23-2.58-.47-3.87-.7l.02.02c-.48-.44-.95-.88-1.43-1.32.02-.05.04-.1.06-.14.5.25,1,.49,1.52.75.13-.42.28-.91.43-1.41-1.06-.82-2.31-.7-3.21.24-.45.47-1.04.81-1.7,1.02,1.09-.85,1.46-2.57,3.29-2.55,1.53.02,2.3,1.05,3.23,1.85-.42.27-.74.48-1.05.68.07.13.15.27.22.4.49-.2,1.13-.26,1.44-.61,1.53-1.72,3.6-1.56,5.57-1.71,1.17-.08,2.36-.02,3.54.04,5.09.26,9.57,1.96,13.19,5.65.49.5.82,1.16,1.24,1.74.18.25.33.62.57.72,1.58.65,1.87,1.98,2.23,3.48.58,2.37,1.33,4.74,2.32,6.97.55,1.25,1.61,2.32,2.62,3.29,2.08,2,4.45,3.72,6.36,5.86.93,1.04,1.86,1.14,2.98,1.28.86.11,1.72.35,2.58.38,1.83.06,3.66.02,5.7.02-.22-.66-.38-1.16-.55-1.66l-.02.02c.69-.48,1.36-1,2.07-1.44,1.25-.77,2.47-.56,3.64.23l.02-.02c-1.32-.33-2.65-.39-3.67.63-.46.46-.78,1.26-.78,1.91,0,.75.6,1.06,1.42.48-.28-.31-.55-.59-.89-.96h2.05c.32,1.54-1.39,1.38-1.89,2.66.99-.49,1.71-.84,2.38-1.17.32,1.13-1.53,2.8-4.68,4.06.51-.03,1.03-.07,1.54-.1.02.15.04.3.06.45-1.28.2-2.55.47-3.84.6-6.07.63-11.35-1.36-15.83-5.31-2.96-2.61-5.51-5.68-8.44-8.34-4.37-3.97-9.43-6.52-15.5-6.46-.76,0-1.57.23-2.26.55-1.72.78-1.74.82-3.63.3.13,1.15.3,2.25.37,3.36.28,4.78.51,9.56.78,14.33.19,3.35.42,6.71.6,10.06.15,2.77,1.17,5.3,2.18,7.83.14.35.27.71.41,1.06l-.28.13c-1.08-2.34-2.16-4.68-3.25-7.02-.1.03-.2.07-.29.1.21.71.4,1.44.64,2.14.65,1.83,1.35,3.63,1.96,5.47.14.43-.02.97-.05,1.76-.55-.54-.91-.92-1.31-1.26-.27-.23-.59-.38-.88-.57l.02.02c1.39-1.08.56-2.24.22-3.47-.69-2.54-1.39-5.1-1.77-7.7-.38-2.59-.4-5.24-.54-7.86-.02-.46.12-.92.18-1.38.11,0,.21-.02.32-.03.47,2.93.95,5.86,1.42,8.79.09,0,.19-.02.28-.03-.39-4.9-.77-9.8-1.16-14.71-.11-.01-.21-.02-.32-.04-.1.32-.23.64-.29.97-.26,1.42-.41,2.87-.76,4.26-.66,2.63-.03,5.25-.06,7.88-.01.98,0,1.96,0,2.94-.11,0-.22.02-.32.02-.21-2.61-.42-5.22-.63-7.82h-.36c-.75,2.69.22,5.44.15,8.15l-.37.03c-.27-2.89-.53-5.77-.8-8.66l.32.11c.27-.23.71-.41.79-.69.53-1.8,1.3-3.63,1.33-5.45.01-1.02.05-1.99.17-3.01.09-.8-.26-1.7-1.47-1.95-.56-.12-.95-1.03-1.62-1.81,1.93-.35,2.1-1.58,2.21-2.81.07-.75.04-1.51-.01-2.25-.09-1.48-.99-2.43-2.41-2.54-.91-.07-1.49-.49-1.96-1.28-.58-.97-1.35-1.83-2.04-2.74,0,0,.01.02.01.02.31-.09.61-.17.92-.26.35.15.68.34,1.04.45,1.52.46,2.84-.46,2.76-1.9.47.11.94.21,1.68.38,4.63-2.8,9.61-1.38,14.59.03-3.41-.66-6.83-1.35-10.32-.37,4.29-.06,8.46.58,12.44,2.2,4.1,1.66,6.68,5.12,9.43,8.36.09-.09.19-.17.28-.26-2-2.4-4-4.8-6.01-7.19.01-.03.02-.06.04-.09.35.26.77.47,1.05.8,2.75,3.31,5.5,6.62,8.2,9.97,2.5,3.11,4.67,6.55,8.3,8.52,3.58,1.94,7.45,2.85,11.53,2.63.69-.04,1.36-.52,2.01-.92-3.99.44-7.76-.13-11.34-1.9.19-.12.39-.25.7-.45-1.15-.66-2.2-1.25-3.24-1.84.34.56.83.86,1.29,1.21.44.34.85.73,1.27,1.1-3.72-1.39-5.98-4.31-8.15-7.47-2.86-4.17-5.71-8.39-9.76-11.58-4.88-3.83-10.35-5.73-16.59-4.87-1.89.26-3.75.72-5.63.99,5.23-2.51,10.65-2.5,15.95-.53,5.22,1.94,9.22,5.66,12.61,10.19-.54-2.05-1.01-3.94-1.54-5.82-.19-.67-.42-1.37-.8-1.94-.3-.46-.85-.76-1.5-1.31.03.63.05.95.07,1.41-1.67-1.14-3.22-2.19-4.77-3.24.03-.11.05-.21.08-.32.64.15,1.28.3,2.06.49-2.14-1.96-4.69-2.88-7.34-3.62.79.48,1.58.96,2.37,1.43-.06.1-.11.2-.17.3-1.18-.67-2.59-1.13-3.49-2.07-.98-1.04-2.09-1.24-3.27-1.29-2.41-.11-4.82-.03-7.25-.03-.24.44-.48.86-.69,1.24.22.28.46.58.69.88h.02ZM146.61,234.37h-.28c-.41,1.04-.81,2.09-1.22,3.13.56.46,1.14.94,1.77,1.47-.09-1.57-.18-3.09-.27-4.6ZM174.08,240.71c1.67,2.18,3.5,4.25,5.73,5.91.08-.08.15-.15.23-.23-1.99-1.89-3.98-3.79-5.96-5.68ZM166.42,220.26c-.09.13-.17.25-.26.38,1.2.87,2.4,1.74,3.6,2.6.09-.13.19-.27.28-.4-1.21-.86-2.41-1.72-3.62-2.58ZM197.12,246.17c-.03-.16-.06-.33-.1-.49-1.35-.43-2.32,1.02-3.63.79.03.13.05.26.08.39,1.22-.23,2.43-.46,3.65-.69ZM167.96,234.76c.08-.12.17-.24.25-.35-1.28-.91-2.55-1.81-3.83-2.72-.06.09-.13.19-.19.28,1.26.93,2.51,1.86,3.77,2.79ZM181.14,242.55s-.08.04-.12.06c-.7-.95-1.4-1.89-2.09-2.84-.09.1-.19.19-.28.29.83.83,1.66,1.66,2.5,2.49Z"/>
      <path class="cls-1" d="M73.16,164.23c.94-2.57,1.76-4.81,2.58-7.04.14.05.28.1.42.14-.55,1.58-1.41,3.14-1.58,4.76-.16,1.5-1.78,2.76-.62,4.69.92-2.83,1.77-5.44,2.61-8.06.12.04.24.08.35.11-.47,2.28-.95,4.57-1.42,6.85l.45.11c.57-1.42,1.15-2.85,1.72-4.27-.06,2.69-1.67,5.17-1.03,7.93.12.02.23.03.35.05.22-1.57.44-3.14.7-5.02.11.59.16.88.24,1.31,2.23-3.57,1.11-7.42,1.56-11.14.08.61.18,1.21.24,1.82.07.67.19,1.34.17,2.01-.11,4.59-.27,9.17-.37,13.76-.05,2.18,0,4.36-.04,6.54-.06,2.96-.14,5.92-.27,8.88-.1,2.37-.27,4.74-.44,7.11-.14,1.89-.34,3.77-.62,5.66-.95-3.51,1-7,0-10.93-3.38,4.53-6.6,8.84-9.82,13.16-.05-.03-.1-.06-.14-.09.6-1.01,1.18-2.03,1.82-3.02.66-1.03,1.31-2.07,2.09-3.02,2.03-2.47,4.13-4.88,6.16-7.34.22-.27.29-.71.32-1.08.23-2.61-.28-5.12-1.14-7.57-.85-2.45-1.68-4.92-2.64-7.73-4.35,6.25-8.46,12.16-12.57,18.07l-.37-.26c2.6-3.8,5.19-7.6,7.79-11.39,1.43-2.08,2.91-4.14,4.34-6.23.2-.3.39-.77.3-1.08-.47-1.82-1.02-3.61-1.63-5.7-1.14,1.61-2.1,2.95-3.04,4.29-2.41,3.47-4.88,6.91-7.18,10.45-.65,1.01-.99,2.3-1.18,3.51-.42,2.73-.66,5.5-.98,8.25-.01.12-.04.24-.05.35-.11,2.22-.22,4.44-.33,6.66-.12.03-.25.07-.37.1-.31-.55-.62-1.1-.85-1.51-1.36-.16-2.71-.31-4.05-.47v-.26c.29-.06.58-.12.91-.19-.11-.27-.2-.48-.3-.74.16.03.27.04.38.07.5.12,1,.25,1.5.36,2.01.46,2.43.03,2.01-2.26-.31.61-.56,1.11-.82,1.61-.07-.02-.14-.03-.22-.05.17-1.55.34-3.1.52-4.65.22-1.84.54-3.68.65-5.53.31-5.05.58-10.1.79-15.16.1-2.4.11-4.82-.04-7.22-.15-2.26-.57-4.51-.86-6.76-.02-.19,0-.39,0-.69.35.12.62.22.91.32.36-2.66.72-5.29,1.08-7.93.09,0,.17.02.26.03v8.23c.16.05.31.1.47.15,1.09-2.06,2.17-4.11,3.26-6.17.04,0,.08,0,.12,0-.07.37-.06.77-.22,1.09-.94,1.91-1.93,3.8-2.87,5.71-.29.6-.45,1.27-.67,1.9.16.07.31.14.47.21,1.25-2.22,2.5-4.45,3.78-6.72v3.55c.07,0,.13.01.2.02.19-1.44.37-2.88.56-4.32.54,2.67-.46,5.09-.99,7.61-.54,2.54-.59,5.19-.69,7.88,1.44-2.8,2.89-5.59,4.33-8.39l.28.14c-.72,1.51-1.4,3.04-2.17,4.53-.77,1.51-1.74,2.93-2.41,4.48-.54,1.25-.83,2.62-1.15,3.95-.6,2.52-1.14,5.06-1.75,7.76.28-.24.5-.37.63-.56,3.13-4.45,6.27-8.89,9.34-13.39.35-.51.52-1.38.34-1.95-.95-3.08-.56-6.03.6-8.94.08-.21.19-.4.4-.59-.4,2.98-1.1,5.94-.11,9.24ZM65.5,155.01c-.1-.03-.2-.06-.31-.09-.33,1.96-2.09,3.23-2.01,5.51.05,1.66-.79,3.35-1.23,5.02-.1.4-.18.81-.27,1.21.08.02.16.03.24.05.55-1.34,1.1-2.67,1.68-4.08.18.26.3.42.41.58.12,0,.24,0,.36,0,.37-2.73.75-5.47,1.12-8.2ZM74.65,169.3c-.03-1.1,1.47-1.94.41-3.19-.63.99-1.26,1.97-.41,3.19ZM79.05,166.47c-.1,0-.2,0-.3,0v3.72c.1,0,.2,0,.3,0v-3.72Z"/>
      <path class="cls-1" d="M159.7,106.37c-.33.48-.65.96-1.03,1.51,1.96.87,3.96.7,5.63,1.53-.03.14-.06.29-.09.43-.63-.07-1.28-.06-1.89-.21-1.31-.32-2.75-.09-3.88-1.16-1.01-.96-1.18-1.71-.46-3.05-1.57.84-3.13,1.69-4.78,2.58-1-.97-2.03-1.97-3.27-3.17-.3.15-.9.48-1.51.77-1,.48-2.01.94-3.01,1.41-2.81,1.33-4.34,3.86-5.82,6.38-.87,1.48-.45,3.05.52,4.46,2.2,3.19,5.51,4.68,8.91,6.2,3.26,1.46,6.78,1.47,10.1,2.41,3.26.92,6.54,1.03,9.82,1.2,4.45.24,8.92.11,13.39.12,2.57.01,5.15,0,7.72.18-5.63.21-11.25.42-16.88.63,0,.13,0,.26-.01.39.33.06.66.17,1,.19,8.29.46,16.54.13,24.63-1.87,3.6-.89,7.3-1.69,10.46-3.72,2.08-1.33,4.06-2.91,5.75-4.7.93-.98,1.16-2.63,1.76-3.95-.26,2.14-.79,4.09-2.43,5.78-3.72,3.83-8.44,5.65-13.39,7.01-5,1.38-10.11,2.17-15.31,2.48-5.29.32-10.5.03-15.74-.69-3.68-.5-7.41-.54-11.12-.79-.26-.02-.53-.04-.79-.26h6.75s0-.04,0-.05c-2.08-.29-4.22-.36-6.23-.9-4.97-1.32-10.18-1.9-14.66-4.77-2.42-1.56-4.47-3.39-5.77-6.05.26.82.51,1.64.77,2.46-.12.03-.23.06-.35.09-.31-1.21-.93-2.44-.88-3.64.14-3.89,1.48-7.13,5.49-8.67,1.26-.48,2.4-1.3,3.63-1.88.59-.28,1.26-.43,1.9-.51.98-.12,1.51-.82,1.23-1.78-.4-1.36.36-2.35,1.81-2.33.46,0,.92.05,1.29.08,0-2.69-.04-5.27.01-7.84.03-1.41,1.32-1.13,2.24-1.34-.18.14-.35.31-.55.43-.75.41-.94.93-.83,1.85.18,1.56.14,3.16.02,4.73-.1,1.31-.09,2.42,1.25,3.16.47.26.77.84,1.24,1.36-.29,0-.62.1-.83-.02-.8-.44-1.53-.99-2.34-1.4-.34-.17-.91-.26-1.18-.08-.45.3-1.02.84-1.02,1.28,0,.89.35,1.79.55,2.68.33,1.45,1.44,1.53,2.85,1.49-.97-1.36-1.85-2.59-2.73-3.83.17-.13.34-.26.51-.4.29.31.73.57.84.94.39,1.26,1.01,1.68,2.27,1.06,1.49-.73,2.75-.63,3.87.58.29.32.37.83.55,1.25v-.02Z"/>
      <path class="cls-1" d="M142.81,77.33c-.04.06-.14.14-.13.19.07.45.38,1.09.2,1.3-.48.54-1.18.89-1.68,1.23.11-.61.4-1.28.26-1.84-.07-.26-.99-.3-1.59-.45.03-.19.09-.52.14-.84-.1-.1-.19-.19-.29-.29-.43.35-.96.63-1.24,1.08-.15.24.14.76.24,1.23-.46.31-1.1.72-.31,1.58.11.12.01.63-.14.73-.64.4-1.3.82-2.01,1.03-.6.18-1.36-.13-1.69.74-.04.12-.41.17-.63.16-1.19-.06-2.39-.15-3.58-.21-.39-.02-.84.13-1.18-.01-1.07-.45-1.94.26-2.9.41-.73.11-1.45.29-2.18.43-.03-.13-.05-.25-.08-.38.61-.18,1.25-.3,1.83-.56.54-.24,1-.63,1.38-1.15-.47.04-.94.08-1.53.13.11-.41.18-.65.27-.95.14.22.24.38.35.56.36-.46.7-.89,1.2-1.52.13.56.12.91.28,1.14.33.45.71,1.13,1.14,1.19,1.22.15,2.53.41,3.55-.71.31-.34.74-.65,1.17-.78,1.17-.35.71-.77.36-1.11-1.49.6-2.79,1.25-4.17,1.59-.4.1-1.17-.64-1.48-1.17-.12-.2.53-1.17.96-1.29.8-.22,1.7-.06,2.69-.06,0,.02.04-.27.06-.43.49-.21.92-.41,1.36-.58.14-.05.41-.11.43-.07.57,1.28,1.59.25,2.51.49-.7.39-1.29.72-1.87,1.04.72,1.79,1.67,1.86,3.12.05-.44.19-.88.38-1.31.57-.3-.99-.26-1.05,1.09-1.38.42-1.01.15-2.6,1.95-2.53.03-.3.03-.77.08-.77,1.23-.09,1.21-1.19,1.62-1.95.2-.36.44-.71.72-1.15-.14-.49-.37-1.34-.61-2.19-1.8.39-2.22.17-1.92-1.16.17.11.32.29.45.27.37-.05.72-.18,1.08-.27-.16-.27-.25-.65-.48-.78-.91-.53-1.85-.35-2.71.16-1.63.97-3.23,2-4.84,3-.87.54-1.78.77-2.78.23,1.97.24,3.14-1.22,4.56-2.11,1-.63,1.92-1.41,2.96-1.94,1.51-.76,2.67-.39,3.83,1.11v-6.84c-3.13,4.5-7.83,5.06-12.38,5.96,4.39-1.58,9.07-2.63,12.16-6.74-.64-.82-1.22-1.68-1.93-2.4-.27-.27-.86-.34-1.28-.3-.24.02-.43.45-.68.74-1.32-.64-1.61-.53-2.14.69-.6.23-.98.37-1.35.52-.03-.05-.07-.1-.1-.14-.19-.66-.9-1.52.75-1.21.54.1,1.23-.64,1.68-.89,0-.91.04-1.65-.02-2.39-.03-.36-.25-.71-.39-1.06l.02.02c-.17-1.42-.39-2.84-.5-4.27-.07-.82-.59-.99-1.2-.96-.82.03-1.66.34-2.46.25-1.74-.21-2.39,1-3.22,2.11-.92,1.25-2.19,2.03-3.73,2.3-.77.13-1.5.14-1.99-.63l-.02.02c2.4,0,4.34-.97,5.91-2.76.42-.47.82-.97,1.3-1.37.5-.41,1.02-.6,1.81-.5,1.05.13,2.16-.25,3.35-.43.04-.34.07-.71.11-1.11-1.71.3-3.33.59-4.95.88-.03-.15-.07-.3-.1-.45,1.11-.38,2.26-.68,3.31-1.17.73-.34,2.57,0,1.48-1.89-.1-.17.37-.64.52-1,.16-.38.26-.79.33-1.01-.47.18-.94.37-1.4.55-.1-.08-.21-.16-.31-.24-.46-.54-.72-.24-1.09.17-1.16,1.29-2.39,2.48-4.38,2.01-.18-.04-.42.13-.63.21-.39-.32-.78-.63-1.18-.95.32.03.63.06.95.1,2.73.4,4.5-.6,5.55-3.17.32-.79.58-1.61.86-2.41.13.38.27.76.4,1.14.92-.82.75-2.22-.39-3.56-.24.26-.49.53-.74.8.22-1.01-.52-1.44-1.17-1.93.74.06,1.48.13,2.22.19l.08-.41c-.51-.19-1.02-.37-1.55-.56.93-1.21,2.65-1.7,4.14-1.15.59.22,1.14.57,1.71.86-.48.43-.92.93-1.45,1.29-.73.5-1.54.91-2.44,1.43-.01,1.13,1.67,2.31.27,3.78,2.36.81,2.57,2.81,2.65,4.67.07,1.48-.39,2.97-.53,4.47-.18,1.84-.31,3.69-.38,5.54-.01.28.35.72.64.83,1.98.77,3.25,2.09,4.24,4.02.83,1.61,1.13,3.13,1.05,4.85-.11,2.21-.18,4.42-.27,6.63-.01.39,0,.77,0,1.27.68-.16,1.47-.63,1.47.55-.25.63-.49,1.26-.81,2.08-.32-.52-.57-.91-.82-1.32q-.52.47-.14,2.06c.32.04.65.09.68.09-.03.45-.05.8-.07,1.15ZM128.77,80.71c.9-.32,1.54-.55,2.17-.77-.14-.24-.24-.66-.42-.7-.8-.16-1.48.02-1.75,1.47Z"/>
      <path class="cls-1" d="M68.75,244.75c-.43-.14-.79-.4-1.09-.34-1.23.26-2.92,2.26-2.77,3.53.05.48.9.87,1.38,1.29-.42.45-.5.44-2.09-.22.23.63.47,1.25.68,1.81-1.23-.45-1.49-1.54-1.28-5.72-2.61,2.27-2.12,6.31,1.1,8.7-.15.09-.33.25-.39.22-2.35-1.34-4.35-3.04-5.21-5.7-.64-1.97.71-5.19,2.48-6.24.3-.17.67-.33,1-.31,1.7.13,3.41.24,5.09.51,1.98.32,3.59,1.22,4.15,3.45.27-.17.47-.3.82-.52-.05.52-.03.91-.13,1.27-.19.69.08,1.01.75.96,3.04-.24,5.87-1.1,8.34-3.04l-1.95.63c-.03-.06-.05-.12-.08-.18.99-.6,1.96-1.23,2.96-1.8,3.27-1.86,5.34-4.91,7.56-7.77,1.81-2.34,3.34-4.89,5.08-7.29,2.72-3.75,6.12-6.71,10.4-8.57,1.76-.77,3.56-1.53,5.41-1.99,1.31-.32,2.74-.17,4.12-.14.39,0,.78.32,1.11.66-3.76-.69-6.95.89-10.06,2.43-2.32,1.15-4.41,2.75-6.76,4.25.42.35.62.52.67.56-.58.8-1.24,1.48-1.61,2.3-.36.78.28,1.29,1.76,1.8-.64.07-1.28.14-2.06.22-.55,1.63-1.44,3.15-3.74,2.97-.19.81-.37,1.58-.55,2.36-.1,0-.2-.02-.3-.02v-2.76c-.44.49-.66.68-.83.92-.94,1.37-1.9,2.72-2.79,4.12-.34.53-.4,1.25-.77,1.76-1.32,1.85-2.66,3.69-4.08,5.46-1.85,2.29-3.98,4.37-6.63,5.68-2.9,1.43-5.93,1.61-8.87-.06-.12-.07-.19-.23-.41-.51h5.15c0-.13.02-.27.03-.4-1.28-.12-2.57-.25-3.92-.38-.01-.44.69-1.34-.93-1.43,1.59-.34,1.7-1.5.72-3.29-.32.1-.65.14-.9.3-.29.18-.5.48-.57.55ZM93.46,231.85c1.48.02,2.69.01,3.36-1.22.53-.97.96-2,.48-3.39-1.32,1.59-2.49,2.99-3.83,4.61Z"/>
      <path class="cls-1" d="M149.73,276.69c-.08.02-.2.08-.22.06-1.22-1.57-2.53-3.08-3.62-4.74-.79-1.2-1.28-2.59-1.92-3.93-.26,1.17.94,3.92,3,7.33-.28-.25-.67-.45-.83-.77-1-2.04-2.16-4.04-2.87-6.19-.97-2.94-1.69-5.97-2.31-9.01-.69-3.4-1.15-6.85-1.71-10.28-.08-.46-.19-.92-.49-1.34.48,3.51.96,7.03,1.45,10.54-.07.08-.14.15-.21.23-.24-1.22-.5-2.44-.7-3.67-.37-2.27-.68-4.55-1.05-6.82-.22-1.36-.31-2.79-.81-4.05-.89-2.25-2-4.42-3.1-6.58-.26-.51-.87-.83-1.4-1.32-.88-.06-1.94-.12-2.89-.18-.05-.29-.1-.54-.16-.87.42-.02.92-.05,1.44-.08.32-.88-.3-.95-.85-1.18-1.93-.79-3.83-1.63-5.69-2.58,2.65.25,5.18,1.96,7.84.38-1.75-.43-3.53-.86-5.3-1.29.02-.18.04-.37.06-.55.52,0,1.06-.07,1.57.01,1.36.21,2.71.52,4.07.72.36.05.77-.13,1.12-.4-2.09-.49-4.18-.97-6.27-1.46l.1-.48c.26.06.51.13.77.19.27.07.54.15.81.19.78.11,1.57.25,2.35.29,2.45.12,2.45.11,3.19-2.49.97,1.36,2.02,2.4,2.54,3.66,1.69,4.12,2.36,8.47,2.59,12.92.15,2.87.71,5.72,1.03,8.58.23,2.04.42,4.08.57,6.12.18,2.41.28,4.82,1.44,7.03.09.16.21.31.21.31-.27-4.19-.56-8.51-.84-12.82.17-.02.33-.04.5-.06.68,6.17.55,12.5,3.64,18.32-.33-.11-.5-.17-.67-.23-.08.06-.16.12-.24.19,1,1.29,1.91,2.68,3.05,3.84.75.76,1.3,1.38.82,2.46l.02-.02Z"/>
      <path class="cls-1" d="M173.02,209.3c-.73.27-1.56.6-2.4.89-1.17.4-1.92.1-2.56-1.02-.38-.66-.85-.88-1.57-.57-.4.17-.82.3-1.24.4-1.6.4-2.7-.28-3.32-2.15.44.42.78.72,1.1,1.04.82.83,1.73.98,2.82.55,1.58-.62,2.55-.32,3.54.94.41.52.84.65,1.4.14.37-.34.84-.58,1.57-1.06.08-2.33.16-5.01.28-7.68.09-1.88.25-3.75.37-5.63.11-1.57.23-3.14.31-4.72.02-.32-.14-.65-.24-1.1-.3.23-.48.37-.66.51-.02-.09-.07-.16-.05-.23.3-1.41.74-2.81.88-4.24.21-2.2.05-4.44.35-6.62.77-5.72.1-11.27-1.56-16.74-.36-1.2-.6-2.43-.9-3.65.15-.04.3-.09.44-.13.79,2.75,1.8,5.45,2.32,8.25.53,2.81.76,5.72.79,8.58.03,2.86-.35,5.72-.28,8.61.23-2,.45-4,.68-6,.06,0,.12,0,.19-.01.06.33.12.67.18,1h.11c.14-1.07.29-2.14.43-3.22.05,0,.1,0,.16.01v1.5c.12,0,.24.02.36.03.78-2.87.61-5.84.48-8.81.11,0,.22,0,.33,0,.1,1.89.19,3.78.3,5.98,1.19-2.21,2.09-4.15,2.38-6.43.53-4.19,1.2-8.38,2.06-12.51.26-1.24,1.34-2.32,2.16-3.67.19.43.25.53.23.54-1.83,1.76-1.73,4.14-2.11,6.37-.67,3.97-1.33,7.95-2.1,11.91-.87,4.53-1.42,9.1-1.76,13.7-.3,4.06-.58,8.13-.97,12.19-.13,1.35-.55,2.66-.84,3.99-.1-.02-.19-.03-.29-.05.14-1.26.28-2.53.42-3.79-.12-.01-.24-.03-.35-.04-.15,1.21-.31,2.42-.46,3.6-.07-.29-.15-.63-.28-1.16-.41.53-.72.93-1.02,1.32.12-1.6,1.44-2.91.91-4.59-.13-.05-.26-.11-.39-.16-.47,1.15-1.21,2.26-1.37,3.45-.42,3.17-.6,6.37-.86,9.56-.02.29.03.59.05.91ZM177.9,183.32c-.2-.02-.39-.04-.59-.07-.26,2.41-.51,4.81-.77,7.22l.53.06c.27-2.4.55-4.81.82-7.21ZM173.87,195.68c.15.04.3.09.45.13.34-1.29,1.41-2.37,1.23-3.82-.12-.04-.25-.07-.37-.11-.43,1.27-.87,2.53-1.3,3.8ZM177.04,182.63l.53.13c.21-.92.42-1.83.62-2.75-.14-.03-.29-.07-.43-.1-.24.91-.48,1.82-.72,2.73ZM177.18,192.15c-.18-.03-.35-.06-.53-.09-.16,1.04-.33,2.08-.49,3.12.13.02.27.05.4.07.2-1.03.41-2.07.61-3.1Z"/>
      <path class="cls-1" d="M201.93,113.28c-.22-2.38-.46-4.94-.69-7.43q-2.23,1.46-4.42.79c.44,1.21-.21,1.55-1.23,1.62-.59.04-1.16.24-1.75.27-.57.02-1.17-.02-1.71-.17-.81-.22-1.64-.47-2.37-.86-.48-.26-.81-.81-1.21-1.23.08-.1.16-.2.25-.3.97.44,1.96.84,2.9,1.32,1.12.57,2.05.27,3.06-.58h-1.15c.75-1.31,2.11-1.7,3.59-.96,1,.5,2.06.52,2.81-.1.98-.82,1.69-1.96,2.51-2.97.26-.32.49-.66.86-1.16.33,1.43-.45,2.25-.88,3.18-.17.38-.23.83-.24,1.25-.03,1.62-.01,3.25-.01,4.94h1.05c.07.43.17.81.18,1.19.04,1.34.49,1.71,1.83,1.58.38-.04.78.1,1.17.2.02,0,0,.47-.08.51-.41.17-.84.34-1.27.38-.33.03-.68-.15-1.03-.24,0,.08-.04.18-.01.2,1.84,1.85,1.52,3.67-1.01,5.62-1.61,1.24-3.46,1.84-5.46,1.45-.82-.16-1.55-.8-2.44-1.29-5.36,2.12-11.11,3.43-17.44,2.92.44-.13.66-.19.98-.28-6.26-.93-12.41-1.77-18.52-2.78-2.74-.45-5.15-1.83-7.27-3.59-2.12-1.75-2.16-4.28-2.15-6.74,0-.88.27-1.77.57-2.65,0,1.04.08,2.08-.01,3.11-.32,3.47,1.11,6,4.2,7.59,3.21,1.64,6.7,2.1,10.18,2.57,3.8.51,7.63.75,11.43,1.25,2.88.38,5.81-.27,8.58.11,3.2.44,5.46-1.55,8.24-1.99.32-.05.66-.65.78-1.05.37-1.16.54-2.38.95-3.52.61-1.7,2.57-3.07,4.33-2.95.72.05,1.41.58,1.94.81ZM198.1,120.88c.3-.05.94-.1,1.54-.27,1.96-.58,3.64-1.5,4.36-3.61.35-1.05.21-1.82-.89-2.31-.49-.22-.87-.68-1.36-.91-.49-.22-1.08-.46-1.58-.39-3.08.42-3.99,2.8-4.44,4.98-.39,1.88.15,2.45,2.38,2.51Z"/>
      <path class="cls-1" d="M159.71,93.26c-.51.83-1.24,1.07-2.11.69-.91-.4-1.45-1.6-1.27-2.65.83-.4,1.99.34,2.87-1.02-.66-.05-1.11-.05-1.55-.11-.6-.08-1.24-.1-1.8-.32-1.5-.59-2.95-1.28-4.57-1.99-.32,4.34-3.31,5.81-6.43,7-2.56.98-5.19,1.79-7.85,2.45-1.9.47-3.81,1.07-5.87.75-.92-.14-1.92.29-2.89.46-.26.04-.52.08-.79.11-.71.07-1.43.12-2.35.2-.02-.03-.2-.31-.38-.58.13-.09.19-.16.26-.16,2.43-.24,4.86-.42,7.28-.72,2.08-.26,4.24-.39,6.19-1.06,3.24-1.12,6.34-2.61,9.5-3.97.97-.42,1.44-1.13,1.3-2.25-.19-1.54-.26-3.08-.4-4.89-.33.41-.45.56-.57.7,0,0,.02.03.02.03-.14-1.94-.28-3.88-.45-6.14-1.57.97-2.8,1.73-4.03,2.49-.04-.06-.08-.12-.12-.19.86-.76,1.74-1.5,2.58-2.28,1.04-.97.66-2.86-.78-3.53-.26,1.59-1.31,1.36-2.4,1.04.51-.37,1.02-.73,1.53-1.1.48-.81.35-1.78-.34-2.65.64.24,1.34.38,1.9.75,1.09.72,2.05,1.54,2.25,3.02.36,2.6.85,5.19,1.27,7.78.15.93.53,1.52,1.53,1.86,1.22.41,2.35,1.1,3.54,1.69.52-.55,1.08-1.13,1.67-1.75-.51-1.91-.14-2.52,1.52-2.26-.03.15-.05.31-.1.45-.64,1.81.35,3.23,2.3,3.19,1.43-.03,2.62.26,3.84,1.17,1.02.75,2.49.9,3.75,1.33.24.08.46.24.64.54-1.41-.22-2.99.1-4.1-1.01-.93-.93-1.98-1-3.06-.81-.56.09-1.03.66-1.3.84-.27.86-.49,1.54-.71,2.21l.02-.02c-.65-.29-1.28-.47-2.18.38,1.09.14,1.88.25,2.66.35l-.02-.02ZM155.46,89.34c.84.17,1.39.29,2.19.45-.45-.81-.76-1.36-1.17-2.09-.36.58-.61.99-1.01,1.64Z"/>
      <path class="cls-1" d="M159.22,92.57c.63,0,1.27.07,1.9,0,.39-.05.88-.21,1.1-.5.58-.76,1.25-.78,1.99-.42,1.33.66,2.63,1.37,3.85,2.01-.15.03-.51.09-.81.14.17.34.34.69.52,1.05,1.66.4,3.15,2.18,5.18.83-.92-.87-1.94-1.73-2.83-2.71-.26-.28-.14-.9-.2-1.36.37.07.79.07,1.11.24.32.18.51.6.82.81.37.26.82.56,1.23.57,1.06.02,1.06-.05,1.51,1.09-.27.19-.55.38-.99.68,1.46,1.18,2.97,2.19,4.82,1.8,1.16-.24,2.37-.35,3.48-.78.75-.29,1.43-.78,2.14-1.18.1-.06.2-.18.3-.19,1.13-.06,2.27-.07,3.4-.16.58-.04,1.3-.02,1.71-.34,1.98-1.6,4.2-2.68,6.72-3.37.44,1.24-.59,1.83-1.23,1.88-2.02.16-2.87,1.89-4.29,2.83-.63.41-1.08.61-1.82.37-.44-.14-.99.1-1.5.15-.39.04-.8.12-1.17.04-.91-.19-1.79-.47-2.45.51-.1.15-.29.29-.47.34-2.31.66-4.59,1.61-7.01.33-.42-.22-1.09-.22-1.55-.05-1.73.63-3.25.56-4.99-.3-1.24-.61-2.54-1.69-4.25-1.09-.7.25-1.57-.06-1.93-.92.29-.55,1.85-.13.95-1.57-1.58,1.33-3.14.35-4.74-.04l.02.02c-.16-.24-.32-.49-.48-.73l-.02.02Z"/>
      <path class="cls-1" d="M161.64,82.82c-1.08-.44-1.9-1.37-1.78-2.39.1-.88,1.02-1.67,1.66-2.64-.22-.14-.55-.35-1.18-.74,1.14-.72,2.01-1.27,2.97-1.87v-1.93c-.73-.3-1.43-.45-1.95-.84-.5-.38-.8-1.01-1.38-1.79,1.38.16,2.42.32,3.46.37.32.02.83-.19.96-.45.52-.98.87-1.08,1.92-.33-1.27.39-2.48,3.02-2.18,4.74.24,1.34,2.13,2.4,4.2,2.32-.33-.37-.65-.72-.98-1.08.82-.53,1.63,1.04,2.34-.22.29.2.58.4,1.05.72.29-.53.56-1.04,1.01-1.87.23.74.47,1.3.55,1.88.09.59.24.9.88,1.18.91.4,1.67,1.17,2.53,1.8-1.83-.55-3.5-1.07-5.18-1.55-.24-.07-.56,0-.8.11-1.19.48-1.23,1.54-1.25,2.59-.02.94.04,1.84,1.14,2.23,1.36.48,2.65.43,3.81-.48.59-.46,1.11-1,1.67-1.5.55,1.23.21,2.18-1.38,3.71.21.13.4.24.59.35-.53,1.03-10.35.22-12.75-1.13.46.05.92.09,1.21.12-.33-.38-.74-.86-1.16-1.33.42.21.82.52,1.26.61.78.17,1.58.25,2.38.25.16,0,.32-.53.46-.79.76.08,1.63.17,2.69.28-1.6-1.54-1.03-3.32-.94-4.68-.89-.54-1.66-.89-2.3-1.4-1.58-1.24-1.91-1.25-3.47.23.28.31.56.62.83.93-.07.15-.1.27-.16.36-.11.16-.24.31-.37.46q-1.68,1.84-.36,3.76ZM166.26,84.44c1.56.2,2.98.37,4.65.58-2.11-1.77-3.6-1.95-4.65-.58ZM161.16,71.4l-.11.19c.58.3,1.14.64,1.74.87.19.07.49-.17.74-.27-.17-.18-.31-.46-.5-.51-.61-.14-1.24-.2-1.87-.28Z"/>
      <path class="cls-1" d="M95.07,204.7c-.94-3.57-1.71-7.2-2.87-10.7-1.23-3.74-1.45-7.58-1.71-11.44-.15-2.28-.35-4.57-.38-6.85-.06-4.22-.02-8.45.19-12.71.21,1.48.48,2.95.63,4.44.37,3.69.68,7.39,1.03,11.09.27,2.87.45,5.75.85,8.6.4,2.88,1.1,5.73,1.54,8.61.45,2.98.75,5.98,1.11,8.97-.12,0-.25,0-.37,0Z"/>
      <path class="cls-1" d="M139.2,148.73c-1.65.12-3.31.18-4.95.36-2.04.21-4.06.69-6.09.74-5.02.13-10.06.3-15.07.05-6.55-.33-13.07-1.07-19.61-1.58-2.17-.17-4.36-.12-6.52-.31-2.43-.21-4.84-.57-7.27-.87.01-.14.02-.28.03-.41,3.09.14,6.18.19,9.26.44,6.86.56,13.7,1.38,20.56,1.79,5.48.33,10.99.26,16.49.26,1.49,0,2.97-.48,4.46-.53,2.88-.09,5.77-.03,8.66-.03.02.03.04.05.06.08Z"/>
      <path class="cls-1" d="M138.2,200.01c-.11-1.07-.28-2.14-.33-3.21-.23-5.68-.28-11.37.2-17.04.27-3.23.62-6.47.62-9.7,0-3.74-.35-7.49-.5-11.23-.06-1.48-.01-2.97-.01-4.44,1.04.37,2.08.68,3.06,1.12.2.09.32.7.24,1.01-.32,1.22-.69,2.43-1.11,3.62-.92,2.59-.89,5.24-.79,7.96.1,2.63-.27,5.29-.43,7.93-.17,2.88-.42,5.76-.48,8.64-.11,4.91-.11,9.82-.15,14.72,0,.21-.06.42-.09.63-.07,0-.15,0-.22,0Z"/>
      <path class="cls-1" d="M153.99,275.74c.16-.55.32-1.1.49-1.65.1-.03.2-.06.3-.09.19.55.38,1.1.6,1.76.18-.53.32-1.01.51-1.47.12-.28.25-.61.48-.79.94-.75.9-1.11-.35-1.86-.09.37-.17.72-.29,1.21-1.17-1.08-.08-3.29-2.34-3.63,1.33-.6,2.34-.26,3.21.38,3.08,2.27,3.07,6.76,0,9.06-2.67,2-5.65,2.82-8.94,2.05-1.57-.37-2.31-1.61-2.1-2.87.79-.18,1.5-.36,2.21-.5.3-.06.67-.15.92-.04.71.34.92-.02,1.06-.6l-.02.02c.98.06.77-.8,1.03-1.31.18-.35.41-.68.62-1.01.19.39.5.76.54,1.16.2,1.92-.67,2.77-3.19,3.15.2.32.38.59.55.87-.24-.1-.65-.14-.7-.3-.4-1.2-1.4-.86-2.34-1.05.35,1.05.86,1.73,1.92,1.82,2.24.2,4.44-.02,6.54-.86.47-.19.87-.53,1.31-.8-.04-.11-.08-.22-.12-.33h-2.2c.12-.84.23-1.58.34-2.31Z"/>
      <path class="cls-1" d="M172.83,109.93c-.35-.46-.65-.86-1.1-1.45.64-.28,1.15-.5,1.66-.72.06.09.11.18.17.27-.25.4-.5.81-.92,1.48.95-.35,1.62.15,2.31-.83.46-.65,1.96-.56,3.08-.61-.52.81-.1,2.07-1.33,2.26-.86.13-1.73.17-2.6.25,0,.11,0,.22,0,.33.74,0,1.49.04,2.23,0,.89-.05,1.78-.15,2.66-.28.87-.12,1.73-.29,2.63-.45.41.96,0,1.61-1.26,1.63-1.17.02-2.37-.17-3.49.94h7.72c-5.43.7-10.86.71-16.3.34,0-.1,0-.2,0-.3h7.48c.01-.11.02-.23.04-.34-.96-.09-1.92-.18-2.88-.28-.84-.09-1.76-.02-2.51-.33-1.08-.45-2.04-1.2-3.07-1.8-.32-.19-.68-.36-1.05-.41-.94-.15-.9-.56-.34-1.27,1,.63,2,1.23,2.97,1.87,1.48.97,2.78.9,3.88-.31Z"/>
      <path class="cls-1" d="M104.52,79.95c-1.03,1.15-.91,2.01.38,2.68,1.56.82,3.11.56,4.28-.72.29-.32.53-.67.83-1.06.14.23.26.41.42.67.36-.55.67-1.06,1.01-1.54.79-1.11,2.21-1.33,3.24-.42.3.26.52.83.47,1.21-.04.31-.51.75-.84.81-1.06.18-2.14.21-3.32.31.09.3.24.78.39,1.27,2.07.34,4.06-.52,4.62-1.88.33.46.6,1.19,1.11,1.44.56.27,1.33.12,2.01.08.52-.02.98-.78,1.58-.12.04.05.4-.09.5-.22.51-.64.95-1.34,1.47-1.97.52-.63,1.11-1.19,1.67-1.79.12.1.23.21.35.31-.42.51-.85,1.02-1.37,1.65.61.23,1.12.43,1.63.62-.73.22-1.48.45-2.28.7.32.61.51.98.72,1.4-1.75,1.21-3.59.8-5.25.35-1.9-.52-3.66-.29-5.51.06-.86.16-1.81-.19-2.73-.26-.47-.04-.98-.1-1.42.03-1.7.5-3.1,0-4.39-1.09-.21-.17-.59-.13-.88-.22-.45-.14-.88-.3-1.32-.63,1.04-.04,1.73-.08,1.24-1.42-.15-.41.36-1.07.59-1.67.28.5.53.97.78,1.44l.02-.03ZM114.68,79.97c-.86-.19-1.51-.33-2.21-.48.18,1.15.42,1.2,2.21.48Z"/>
      <path class="cls-1" d="M174.84,75.91c-.01-.65.06-1.32-.05-1.95-.16-.93.09-1.17,1.17-.94-.21.41-.43.84-.5.99,1.28,1.61,2.9,1.21,4.83,1.14-.38.95-.7,1.7-.97,2.45-.09.25-.08.55-.11.82.25-.13.52-.22.73-.4.52-.42.96-.95,1.51-1.31,1.34-.89,2.61-.67,3.78.48-2.78-1.05-3.79,1.6-5.39,2.44-.56-.52-1.04-1.02-1.58-1.45-.12-.1-.55-.03-.63.1-.1.16,0,.45.01.58-.72-.31-1.57-.54-2.23-1.01-.75-.54-1.36-1.28-1.98-1.99-.51-.59-.93-1.25-1.39-1.86.74-.95,1.64-2.11,2.57-3.32-.39-.27-.73-.5-1.06-.73.02-.09.04-.17.05-.26.35.03.69.05,1.14.08-.08-.35-.16-.7-.28-1.21.52.36.89.63,1.41.99.11-.79.2-1.43.35-2.46.73,1.3,1.33,2.38,1.89,3.38-1.83-.29-4.35,1.63-4.64,3.73-.03.22.25.71.34.69.84-.12.8.56,1,1.02-.75.11-.41.53-.18.81.5.61,2,.55,2.82-.22-.94-.21-1.76-.4-2.58-.59Z"/>
      <path class="cls-1" d="M118.86,72.08c1.08-1.23,2.06-2.45,4.09-2.31-.65.28-1.09.47-1.52.66,2.16-.43,4.24,1.56,6.37.19-.12-.17-.23-.33-.4-.56.91-.21,1.42.09,1.58.88.17.83-.51,1.08-1.07,1.11-1.09.06-2.2,0-3.29-.12-2.03-.23-3.99-.21-5.45.85-.92-.29-1.62-.7-2.33-.69-.96.01-1.97.22-2.88.56-2.33.87-4.15.28-5.58-1.76-.73-1.04-.32-1.46.72-1.87.11.26.22.51.21.48.78.28,1.36.5,1.94.71-.13.31-.27.61-.4.92-.09-.02-.18-.04-.28-.05-.06-.26-.12-.53-.21-.9-.35.17-.68.32-1.09.52.61.96,1.35,1.44,2.33,1.07,2.48-.94,4.91-1.23,7.26.32Z"/>
      <path class="cls-1" d="M187.71,68.84c1.03,1.93,1.12,3.96.37,6.13,3.16.43,3.76,2.94,4.39,5.33.39,1.47-1.24,1.52-1.93,2.2-.22.22-1.18-.06-1.61-.37-.82-.59-1.5-1.36-2.24-2.06.07-.09.14-.18.21-.27.47.31.97.59,1.41.94.58.47,1.27.29,1.38-.23.22-1.1.85-.87,1.53-.66.15-2.29-1.06-3.62-3.14-3.54-.74.03-1.49.05-2.22,0-.24-.02-.52-.24-.68-.45-.06-.09.1-.42.24-.57.34-.38.71-.74,1.11-1.06,1.23-.99,1.55-2.21,1.04-3.73-.16-.49-.14-1.04-.2-1.56.12-.04.24-.07.35-.11Z"/>
      <path class="cls-1" d="M127.84,90.42c.31-.5.61-1.01,1.01-1.67.22.25.44.49.66.73-.99-.03-1.05.94-.86,1.29.25.48,1,.7,1.41.96-.21-.85-.39-1.56-.57-2.27.44-.15.88-.34,1.33-.44.45-.1,1.13-.32,1.34-.11.8.76,1.52.22,2.3.09,1.08-.19,2.17-.29,3.26-.42.31-.04.73.1.93-.06,1.16-.94,1.23-.15,1.27,1.11,1.3-.9,2.41-1.75,3.59-2.46,1.12-.68,2.3-1.31,3.52-1.8.3-.12.84.37,1.27.57,0,0-.02-.03-.02-.03,0,1.01-.7,1.06-1.63,1.16.42-.44.71-.74,1-1.04-.08-.07-.15-.14-.23-.21-.08.09-.16.26-.24.25-2.43-.12-3.51,2.02-5.24,3.07-.81.49-1.43,1.29-2.65.18-.63-.57-2.28-.17-3.43.01-1.52.25-2.96.7-3.97,2.09-.99,1.35-3.04,1.1-4.04-1.02v.02Z"/>
      <path class="cls-1" d="M218.53,151.99c.77,6.09,1.09,12.17.47,18.32-.44,4.36-.38,8.78-.53,13.17-.02.51,0,1.03-.28,1.55-.08-2.13-.2-4.25-.24-6.38-.03-1.7,0-3.41.09-5.11.14-2.73.4-5.45.5-8.17.08-2.05,0-4.1-.01-6.16,0-2.4,0-4.81,0-7.21Z"/>
      <path class="cls-1" d="M79.05,202.59c.56.41,1.12.82,1.69,1.23.01-.16.02-.32.03-.48.38-.21.74-.46,1.14-.6.4-.15.95-.05,1.24-.3.86-.74,1.88-.5,2.82-.72,1.67-.38,3.09.96,4.7.36.59-.22,1.23-.33,2.1-.55.04.04.3.29.57.54-1.96,2-2.17,2.04-4.78.93-.22-.09-.55-.14-.75-.05-.83.42-1.61.53-2.5.12-.25-.11-.78.1-1.04.33-1.26,1.09-2.64,1.13-4.07.52-.51-.22-.9-.73-1.34-1.1l.19-.22Z"/>
      <path class="cls-1" d="M40.05,92.08c-.71-.87-.69-1.93.11-2.57.55-.44,1.14-.87,1.77-1.16.68-.31,1.17-.61,1.38-1.43.1-.38.79-.61,1.22-.92.15.35.39.69.42,1.05.08.85.11,1.42,1.35,1.33,1.84-.13,3.86,2.07,3.92,3.94.04,1.12-.69,1.6-1.62,1.9,0,0,.02.01.02.01.16-.42.29-.86.49-1.27.78-1.57.28-2.93-1.12-3.02.12.32.25.64.37.96l.02-.02c-1.32-.8-2.64-1.61-4.07-2.47-.77,1.17-1.57,2.4-2.37,3.62h-.19c.33-1.17.66-2.34.97-3.45-2.64.97-3.06,2.06-2.69,3.49h.02Z"/>
      <path class="cls-1" d="M190.24,89.32c-.38.12-.76.23-1.15.35-.01.09-.03.18-.04.27.93.18,1.86.36,3.11.61-.74.25-1.2.54-1.67.54-1.27.01-2.53-.1-3.85-.16v-.82c-.6.1-1.16.2-1.72.29-.06.1-.13.2-.19.3.41.26.82.52,1.24.78-.05.07-.09.14-.14.21h-3.58c.11-.29.19-.49.29-.77-2.2.2-4.34.4-6.49.6-.02-.18-.04-.37-.06-.55,4.73-.65,9.45-1.3,14.18-1.95.02.11.04.21.06.32Z"/>
      <path class="cls-1" d="M182.99,105.68c-8.77,1.24-17.42.89-25.77-2.48,8.36,3.31,17.14,2.01,25.77,2.48Z"/>
      <path class="cls-1" d="M106.45,205.12c-.59.29-1.15.69-1.77.85-.98.26-2.31.03-2.94.61-.9.83-1.75.92-2.78.87-.35-.02-.72-.04-1.06,0-1.3.18-2.18-.34-2.74-1.7,1.24.07,2.42.01,3.55.22,1.1.21,1.85-.03,2.35-1.02,1.55.74,2.21.55,3.44-1.07.1.35.17.61.19.68.64.2,1.21.38,1.78.56,0,0-.01-.02-.01-.02Z"/>
      <path class="cls-1" d="M106.65,119.22c1.78.58,3.54,1.25,5.34,1.72,1.97.52,3.98.94,6,.1.21-.09.47-.09.7-.08,3.49.17,6.98.37,10.47-.36-1.09,1.11-2.68,1.87-3.91,1.53-1.04-.29-2-.17-2.97-.28-1.12-.13-2.42.32-3.36-.12-1.38-.65-2.34.82-3.7.25-1.22-.52-2.69-.45-4.05-.64,0,0,.02.02.02.02-.47-.15-.94-.34-1.42-.46-1.18-.3-2.38-.55-3.11-1.69l-.02.02Z"/>
      <path class="cls-1" d="M201.85,170.5c.19-4.77.38-9.54.58-14.31.11-2.68.61-5.28,1.87-7.71-1.86,7.25-1.27,14.72-2.09,22.06-.12,0-.24-.02-.36-.03Z"/>
      <path class="cls-1" d="M198.83,93.09c-.67,1.94-1.27,3.46-3.3,3.94-1.87.44-3.59,1.45-5.62,1.25-.34-.03-.73.26-1.08.43-2,.99-4.07.86-6.15.43,3.03-.6,6.07-1.15,9.08-1.83,1.57-.36,3.18-.77,4.59-1.52.93-.49,1.52-1.61,2.48-2.7Z"/>
      <path class="cls-1" d="M130.19,63.08c.5.4.72.82.19,1.37-.43.45-2.54.72-3.12.48-.31-.13-.7-.12-1.04-.06-.87.15-1.73.51-2.6.5-.56,0-1.32-.39-1.61-.85-.49-.76.08-2.14.89-2.67.32-.21.69-.36,1.2-.63.34.56.69,1.14,1.07,1.76.05-.03.21-.12.1-.06.63.3,1.06.61,1.54.71.85.17,1.74.29,2.6.27.28,0,.54-.55.81-.84,0,0-.02.02-.02.02ZM123.57,64.47c.38-.9.68-1.62.97-2.33-.15-.1-.3-.2-.46-.3-.45.39-.96.73-1.32,1.19-.27.34-.6.99-.46,1.23.21.35.82.45,1.26.66.05-.1.11-.19.16-.29-.12-.12-.25-.24-.17-.16Z"/>
      <path class="cls-1" d="M118.79,62.92c-.11-.29-.23-.57-.36-.91-.13.03-.29.04-.42.1-1.02.47-1.87,1.92-1.51,2.57.29.53,2.05.8,2.9.42.31-.14.59-.37.84-.76-.48.11-.96.21-1.57.34.76-.71,1.42-1.32,2.07-1.93.22.69.5,1.58.81,2.57-1.53.16-2.94.94-4.61.23-.85-.37-2-.07-3.01-.06-.33,0-.66.06-1.02-.03,1.15-.17,1.35-2.26,3.15-1.22-.16-2.24.98-3.04,2.96-2.93v1.6h-.23Z"/>
      <path class="cls-1" d="M201.35,242.2c.19.14.45.24.56.43.59,1.02,1.26,1.79,2.71.67-.02.14-.05.29-.07.43-.2.26-.41.52-.45.57.04.74.06,1.3.09,1.85-.13.06-.26.11-.4.17-.33-.35-.66-.7-.95-1.01-.53,4.11-6.59,7.72-10.65,6.22,2.87-.09,5.35-1.06,7.75-2.47,2.16-1.27,3.35-4.43,1.53-6.54-.07-.08-.06-.22-.09-.34,0,0-.02.02-.02.02Z"/>
      <path class="cls-1" d="M199.87,124.52c1.16-.41,2.33-.79,3.47-1.23,1.84-.71,3.72-1.35,5.47-2.24,2.74-1.4,5.47-4.25,5.52-7.83.38,1.67,0,3.2-.95,4.61-2.51,3.77-6.47,5.13-10.53,6.31-.93.27-1.9.45-2.85.67-.05-.1-.09-.19-.14-.29Z"/>
      <path class="cls-1" d="M73.25,203.31c1.3-.34,2.55-.67,4-1.06.08.06.37.29.67.52-1.34,1.59-6.98,2.96-9.07,2.33v-1.11c1.34-.11,2.79-.23,4.36-.36,0-.02.02-.26.03-.33Z"/>
      <path class="cls-1" d="M150.1,113.19c.38,3.51,2.91,5.05,5.72,6.2,2.61,1.08,5.31,1.94,7.74,2.81-3.81.66-9.91-2.02-12.53-5.67-1.05-1.47-1.37-2.55-.93-3.34Z"/>
      <path class="cls-1" d="M172.74,66.54c.21,1.64.38,2.97.54,4.26-.72-.87-1.76-1.75-2.93-1.06-.9.53-1.43,1.68-2.14,2.57-.2-.26-.54-.68-.98-1.24.29.05.45.07.74.12-.07-1.88.93-2.82,2.71-3.23.67-.15,1.23-.83,2.05-1.42Z"/>
      <path class="cls-1" d="M121.65,42.13c.5.47,1.03.91,1.5,1.41.42.45.76.97,1.14,1.45-.95.14-1.9.24-2.84.43-.28.05-.51.33-.76.51-1.03-.16-2.07-.31-3.1-.47h.02c-.43-.18-.92-.27-1.27-.53-.65-.48-1.22-1.07-1.82-1.61.55.35,1.06.77,1.65,1.02,1.82.79,3.41-.15,5-.83.18-.07.17-.6.24-.91.08-.16.16-.32.24-.48Z"/>
      <path class="cls-1" d="M47.8,193.62c-.56.98-1.29.87-2.02.53-.28-.13-.51-.38-.79-.53-.68-.36-1.4-.92-1.87.35-.17-.68-.3-1.19-.41-1.62.17-.09.56-.15.71-.38,1.59-2.29,3.13-4.62,4.71-6.92.66-.97,1.37-1.91,2.27-2.73-2.04,3.2-4.08,6.4-6.13,9.61.67.67,2.41.17,1.7,1.95.65-.1,1.23-.19,1.82-.27Z"/>
      <path class="cls-1" d="M205.86,241.7c1.21.87,1.75,2.88,1.16,4.46-.82,2.18-3.07,3.54-5.14,3.35.87-.65,2.09-1.37,3.06-2.33,1.05-1.05.91-1.44-.15-2.25.4-.46.99-.86,1.16-1.39.18-.56-.04-1.25-.09-1.85Z"/>
      <path class="cls-1" d="M186.74,68.9c-3.19.38-5.09,2.16-4.51,5.24.38-.28.72-.54,1.25-.93-.22.87-.39,1.5-.65,2.53-.68-1.01-1.73-1.85-1.66-2.58.27-2.73,1.42-4.95,4.72-5.11-.13-.39-.21-.63-.29-.87.12-.05.23-.1.35-.15.25.58.5,1.16.81,1.86Z"/>
      <path class="cls-1" d="M185.83,93.57c-.54-.2-.84-.23-1.03-.39-.85-.69-1.4-.49-1.74.51-.39,1.12-1.29,1.36-2.18.88-1.14-.6-2.24-.64-3.42-.41-.2.04-.43-.06-.68-.11.96-1.71,1.29-1.8,2.88-.94.84.46,1.7.61,2.6-.05-.26-.3-.52-.6-.99-1.14,1.68.41,3.34-.38,4.57,1.64Z"/>
      <path class="cls-1" d="M140.44,102c-.56-.74-.97-1.3-1.31-1.74q1.99-.46,2.24.89c1.36.28.81-.88,1.12-1.51.38-.1.83-.22,1.27-.34.12.46.23.91.38,1.5.43-.62.75-1.09,1.23-1.78.05.69.08,1.09.1,1.51.53-.03,1-.06,1.47-.08l.06.42c-2.17.75-4.51.7-6.57,1.15Z"/>
      <path class="cls-1" d="M223.5,191.95c-.18.21-.36.42-.54.63.03-.25,0-.54.1-.75,2.24-4.43,4.5-8.85,6.76-13.26.31-.61.69-1.17,1.16-1.69-2.05,5.25-4.51,10.29-7.49,15.08Z"/>
      <path class="cls-1" d="M194.06,118.02c-.58.47-1.09,1.11-1.75,1.38-3.55,1.48-7.19,2.57-10.84,2.12,1.85-.33,4.02-.54,6.06-1.15,1.87-.56,3.62-1.55,5.42-2.36.27-.12.54-.25.8-.38.1.13.2.26.3.39Z"/>
      <path class="cls-1" d="M109.96,85.18c7.89.7,15.8,1.43,23.65-.43-7.84,2.05-15.73,1.83-23.65.43Z"/>
      <path class="cls-1" d="M193.22,81.17c1.37.88,1.6,4.15-.02,6.06.11-1.37.22-2.74.33-4.17-2.22,1.18-4.62,1.99-7.14,1.34,1.02-.37,2.14-.78,3.26-1.19.06.06.12.13.19.19-.3.17-.59.34-.89.51.06.12.12.25.19.37,1.43-.58,2.88-1.13,4.27-1.81.13-.06-.12-.9-.18-1.31Z"/>
      <path class="cls-1" d="M198.95,100.39c-1.2.77-2.37,1.61-3.63,2.28-.81.43-1.76.61-2.95,1,1.34.26,2.32.55,3.33-.15.42-.29,1.01-.34,1.53-.5.06.2.11.4.17.6-1.59.42-3.16.9-4.77,1.22-.55.11-1.23-.14-.87-1.03-.44.03-.85.06-.98.07,2.59-1.1,5.39-2.29,8.19-3.48l-.02-.02Z"/>
      <path class="cls-1" d="M140,258.6c.07-.08.14-.15.21-.23.3,1.93.57,3.87.9,5.8.74,4.29,1.71,8.34,4.72,12.59-1.49-1.03-2.23-2.64-2.89-4.22-1.67-3.99-2.28-8.26-2.93-12.51-.07-.46-.01-.95-.01-1.42Z"/>
      <path class="cls-1" d="M183.54,110.62c-.3.07-.6.14-1.08.25.21-.77.39-1.41.57-2.09-1.24.17-2.4.32-3.56.48,0-.07.02-.13.03-.2,1.71-1.08,3.42-2.16,5.13-3.24.09.09.18.18.28.27-.22.33-.43.65-.65.98-.39.58-.87,1.07-.4,1.9.2.36-.08.98-.13,1.47-.06.05-.11.11-.17.16Z"/>
      <path class="cls-1" d="M148.32,219.11c.6-.11,1.29-.06,1.79-.35,1.84-1.09,2.32-.96,2.88.99h1.18c-2.07,1.32-4.29-.22-6.43.55-.22.42-.5.94-.77,1.47-.08-.03-.15-.06-.23-.09.08-.64.17-1.27.25-1.91.45-.22.9-.45,1.35-.67,0,0-.02.01-.02.01ZM150.72,218.91c.02.25.03.51.05.76.53-.03,1.06-.06,1.59-.09-.04-.26-.08-.73-.14-.74-.5-.03-1,.03-1.5.06Z"/>
      <path class="cls-1" d="M74.81,181.77c-3.22,4.94-6.43,9.88-9.65,14.82,2.63-5.33,5.97-10.2,9.65-14.82Z"/>
      <path class="cls-1" d="M191.49,108.67c-.69,1.66-1.99,2.16-4.81,1.66.73-.17,1.47-.35,2.2-.52.01-.07.02-.13.04-.2-1.14-.35-2.29-.71-3.58-1.1.44-.11.92-.38,1.35-.32,1.13.15,2.23.49,3.35.66.43.07.89-.11,1.45-.18Z"/>
      <path class="cls-1" d="M48.35,194.74c.69.13,1.73.02,1.99.42.89,1.36,2.11,1.03,3.32,1.01-.03,1.34-1.33,1.98-2.72,1.19-.98-.56-1.79-1.39-2.68-2.1.03-.17.06-.34.09-.51Z"/>
      <path class="cls-1" d="M174.18,126.64h12.56c0,.11,0,.22,0,.33-4.19.73-8.38.33-12.56-.33Z"/>
      <path class="cls-1" d="M101.13,71.67c.36-1.09,1.71-1.65,3.05-1.08.75.32,1.35.51,2.09,0,.22-.16.74.03,1.08.16.11.04.21.52.13.59-.24.22-.57.49-.87.48-1.41-.02-2.82-.14-4.23-.2-.42-.02-.85.04-1.26.06Z"/>
      <path class="cls-1" d="M117.6,52.36c.62.11,1.31.42,1.41-.68.01-.13.84-.18,1.29-.26.03.53.26,1.18.04,1.57-.47.84-2.06,1.03-3.15.51-.87-.42-1.72-.89-2.51-1.6.59.23,1.17.5,1.78.68.4.12.99.9,1.15-.23v.02Z"/>
      <path class="cls-1" d="M99.04,63.05c-.19-.43-.39-.85-.63-1.4-.32-.03-.82-.08-1.43-.14.21-.77.39-1.2,1.31-1.41,1.09-.25,2.06-1.03,3.18-1.63.06.13.19.42.3.66-1.49.99-2.8,1.98-2.75,3.94,0,0,.02-.02.02-.02Z"/>
      <path class="cls-1" d="M117.62,52.34c-1.17-.4-2.33-.83-3.51-1.19-1.25-.38-2.1.27-2.8,1.23-.18.25-.4.48-.69.82-.6-.69-1.06-1.51-1.76-1.95-.69-.43-1.61-.49-2.59-.75,1.89-.63,2.96.58,4.13,1.59.39-.37.72-.76,1.12-1.04,1.55-1.11,4.56-.45,6.09,1.31,0,0,.01-.02.01-.02Z"/>
      <path class="cls-1" d="M148.29,268.85c-.16.37-.32.74-.48,1.1l-.31-.04c-.54-2.35-1.07-4.7-1.61-7.05.12-.05.23-.1.35-.15.2.32.49.62.59.98.43,1.48.8,2.97,1.2,4.45.07.25.18.49.27.74,0,0-.02-.02-.02-.02Z"/>
      <path class="cls-1" d="M127.85,90.4c-1.56.36-3.12.75-4.69,1.08-1.12.23-2.26.26-2.98-.84-.22-.32-.13-.85-.19-1.28.1,0,.2-.01.3-.02.12.4.11.95.38,1.16.33.26.9.35,1.33.29,1.05-.16,2.06-.49,3.1-.7.94-.18,1.92-.59,2.74.32,0,0,.01-.02.01-.02Z"/>
      <path class="cls-1" d="M107.61,63.06c.45-.43.89-.85,1.32-1.26v1.19c.45-.12.76-.2,1.16-.3-.14.56-.18,1.08-.41,1.49-.17.32-.58.71-.88.72-1.03.02-2.07-.12-3.1-.22-.13-.01-.25-.15-.48-.3,1.04-.17,2.13-.08,2.41-1.34,0,0-.02.02-.02.02Z"/>
      <path class="cls-1" d="M136.18,223.19c1.45-.76,2.88-1.56,4.35-2.27.66-.32,2.45.7,2.74,1.74-.25-.16-.48-.38-.75-.46-.51-.15-1.24-.49-1.53-.28-1.47,1.07-3.18,1-4.83,1.26,0,0,.02.02.02.02Z"/>
      <path class="cls-1" d="M110.14,89.9c.77.11,1.55.35,2.31.3,1.31-.09,2.6-.38,3.91-.55.91-.12,1.83-.2,2.73-.06-1.21.39-2.39.97-3.63,1.12-1.49.18-3.03,0-4.54-.07-.3-.02-.58-.31-.87-.48.03-.08.06-.17.09-.25Z"/>
      <path class="cls-1" d="M135.69,54.25c-.98.53-1.9,1.25-2.95,1.54-1.49.4-3.06.49-4.6.71-.03-.18-.07-.36-.1-.54,2.56-.56,5.11-1.12,7.67-1.68,0,0-.02-.02-.02-.02Z"/>
      <path class="cls-1" d="M133.67,59.81s.07.09.1.14c-.12.14-.24.27-.37.41-.04-.05-.07-.11-.11-.16-.18.75-.36,1.5-.56,2.35-.78-.22-1.41-.39-2.2-.61-.11.36-.23.75-.35,1.15,0,0,.02-.02.02-.01-.6.05-1.21.09-1.81.14,1.21-.5,2-1.14,2.13-2.54.08-.92,1.86-1.34,3.14-.85ZM132.75,60.24c-.12-.09-.24-.18-.36-.28-.48.42-.96.84-1.44,1.26.35.33.7.66,1.16,1.09.27-.88.46-1.48.64-2.07Z"/>
      <path class="cls-1" d="M126.65,46.43c.64-.19,1.74.34,1.62-1.04.96-.02,2.11.28,2.85-.14,1.09-.62,1.89-1.75,2.81-2.67.1.08.21.16.31.24-.08.21-.12.45-.25.64-.1.15-.36.21-.45.36-1.24,2.16-3.51,2.37-5.58,2.9-.39.1-.87-.18-1.31-.29Z"/>
      <path class="cls-1" d="M119.84,159.3c.27.58.27,1.48-.28,2.25-1.37,1.91-2.81,3.77-4.22,5.65-.13-.1-.27-.2-.4-.3.94-1.21,1.96-2.37,2.78-3.66.83-1.29,1.46-2.7,2.12-3.94Z"/>
      <path class="cls-1" d="M97.78,155.23c-.27,2.21-.55,4.43-.86,6.92-1.02-2.56-.52-5.93.86-6.92Z"/>
      <path class="cls-1" d="M104.53,162.08c-.16-1.95-.32-3.93-.48-5.92,0-.1.07-.21.1-.33,1.53,1.52,1.66,4.06.38,6.25Z"/>
      <path class="cls-1" d="M138.18,217.86c.4.61,1.13,1.24,1.09,1.83-.03.52-.82,1.21-1.43,1.44-1.07.41-2.25.54-3.38.79-.05-.16-.1-.31-.14-.47.94-.36,1.9-.69,2.83-1.08.58-.25,1.11-.6,1.66-.9-.3-.46-.59-.93-.89-1.39.09-.07.17-.14.26-.21Z"/>
      <path class="cls-1" d="M97.03,76.82c.6-.13,1.11-.25,1.74-.39-1,1.19-1.88,2.24-2.8,3.32-.51-.09-1.21-.2-2.15-.36,1.06-.42,1.86-.74,2.92-1.17-.36-.26-.65-.47-.94-.68.24-.38.54-.86.89-1.41.11.23.22.45.34.69Z"/>
      <path class="cls-1" d="M195.64,243.39c-.21-.34-.63-.7-.58-1,.38-2.79,4.56-3.94,5.98-3.01-1.01.26-2.18.45-3.26.87-1.48.58-2.28,1.89-2.15,3.16,0,0,.02-.02.02-.02Z"/>
      <path class="cls-1" d="M103.59,62.38c-.22-.69-.38-1.48.38-1.85.59-.29,1.33-.26,2-.37-.46.66-1.68.73-1.48,1.91.05.99.8.67,1.37.82.59.16,1.27-.8,1.74.17,0,0,.02-.02.02-.02-1.5.66-2.87.57-4.04-.68l.02.02Z"/>
      <path class="cls-1" d="M116.89,21.67c-.08-.08-.16-.16-.23-.24-.18-.52-.43-1.02-.52-1.56-.06-.36-.05-.91.16-1.11.39-.37.97-.55,1.47-.81.13.47.26.93.46,1.65-.07-.03.17.08.74.35-.8.67-1.44,1.2-2.07,1.73ZM116.44,20.49c.2.08.4.16.6.24.2-.74.4-1.48.6-2.22-.15-.05-.29-.1-.44-.16-.26.71-.51,1.42-.77,2.14Z"/>
      <path class="cls-1" d="M104.5,79.98c1.11-1.37,2.21-1.73,3.03-1.2-.05.67-.08,1.21-.12,1.76.58-.05,1.17-.11,1.95-.18.28.61-.52.7-1.04.85-1.07.32-1.62-.21-2.11-2.04-.43.33-.8.65-1.21.9-.09.06-.31-.08-.48-.12,0,0-.02.03-.02.03Z"/>
      <path class="cls-1" d="M105.79,49.37c-.51.35-.93.71-1.41.95-.34.17-.77.19-1.16.23-.3.03-.62,0-.93-.02-.24-.02-.47-.09-.7-.14.1-.26.14-.69.31-.75,1.32-.43,2.65-1.01,3.89-.27Z"/>
      <path class="cls-1" d="M193.75,89.14c.72-2.45,2.39-2.67,4.24-2.6-1.86-.03-2.21,2.45-4.24,2.6Z"/>
      <path class="cls-1" d="M154.01,275.75c-.58.95-1.16,1.91-1.76,2.85-.07.11-.25.16-.38.23.31-1.4.61-2.8.93-4.2.06-.27.18-.53.27-.8.24.22.58.39.7.66.17.38.17.84.24,1.27Z"/>
      <path class="cls-1" d="M144.47,218.4q.72,1.38-1.53,2.66c-.76-.73-1.46-1.4-2.15-2.07.07-.09.14-.18.21-.28.91.44,1.82.88,2.63,1.27.38-.69.62-1.12.86-1.56,0,0-.02-.02-.02-.02Z"/>
      <path class="cls-1" d="M151.22,95.98c.22,1.43-1.03,2.25-4.19,2.94.38-.33.76-.66,1.15-.97.42-.33.84-.67,1.29-.96.53-.34,1.08-.63,1.75-1.01Z"/>
      <path class="cls-1" d="M101.26,88.78c-.33-.6-1.04-.4-1.99.8-.3-.42-.59-.81-.84-1.16,1.76-.58,3.47-1.31,4.99.1-.61.07-1.3.16-2.16.26Z"/>
      <path class="cls-1" d="M60.27,201.08c.81.32,1.61.59,2.36.96.3.15.48.56.71.85-.38.16-.82.55-1.12.45-1.11-.35-1.86-1.1-1.95-2.27Z"/>
      <path class="cls-1" d="M120.94,46.17c.57.47,1.14.94,1.96,1.61-.49-.15-.78-.16-.91-.3-.49-.55-1-.44-1.59-.2-1.52.61-2.83.18-3.99-.88v.02c.96.08,1.82,1.04,2.98.51-.67-.55-1.23-1.01-1.79-1.48h-.02c.8.4,1.62.77,2.41,1.18.55.29.89.25.94-.46Z"/>
      <path class="cls-1" d="M64.51,203.34c.85.07,1.65.11,2.44.21.26.03.72.19.72.31.02.29-.09.72-.3.88-.97.74-2.52-.1-2.86-1.4Z"/>
      <path class="cls-1" d="M118.3,79.49c-.3.55-.59,1.09-.89,1.64,1.2.42,2.12.16,2.61-.94.17.39.27.62.37.85-.8.34-1.59.77-2.43.97-.27.06-.88-.41-.98-.75-.29-.96.34-1.5,1.32-1.77Z"/>
      <path class="cls-1" d="M201.78,180.07v-8.59c.18,0,.35,0,.53.01-.16,2.84-.33,5.69-.49,8.53-.01.02-.02.03-.04.05Z"/>
      <path class="cls-1" d="M121.81,220.62c-.53-.44-1.05-.88-1.65-1.37-.55.34-1.32.54-.87,1.6-.32-.28-.65-.56-.99-.85.4-.34.71-.61,1.15-.99-1.08-.24-1.95-.92-2.8.06.06-.9.11-.9.94-.85,1.79.09,3.24.8,4.21,2.4Z"/>
      <path class="cls-1" d="M135.47,30.56c-.12,1.67-.68,2.18-2.54,2.17-.26-2.27,1.83-2.5,3.1-3.46-.19.44-.37.88-.56,1.32-1.45-.37-1.53.99-2.39,1.67,1.66.3,1.91-.83,2.39-1.69Z"/>
      <path class="cls-1" d="M95.88,156.31c.11,1.99.22,3.98.33,5.98l-.56.03c-.09-2.01-.18-4.01-.27-6.02.17,0,.33.01.5.02Z"/>
      <path class="cls-1" d="M224.49,120.91c-.04-.22-.04-.63-.11-.65-1.11-.18-2.29-.87-3.3.26.03-.78.42-1.23,1.2-1.33,1.05.57,2.13.93,3.33.49.95.32,1.91.64,2.86.96v-.02c-.57.02-1.14.11-1.7.05-.76-.08-1.53-.37-2.13.38-.05-.05-.1-.1-.16-.14Z"/>
      <path class="cls-1" d="M113.23,60.63c.51,1.25.25,2.02-1.06,2.83.28-.76.5-1.34.72-1.92-.07-.07-.13-.13-.2-.2-.64.45-1.29.9-1.9,1.33q.04-1.11,2.44-2.04Z"/>
      <path class="cls-1" d="M90.17,160.84c-.66-1.01-1.35-1.99-1.95-3.04-.72-1.25-.68-1.27-.22-2.42.73,1.69,1.53,3.55,2.33,5.4-.05.02-.11.04-.16.06Z"/>
      <path class="cls-1" d="M102.13,78.41c-1.42.56-1.98,1.74-2.42,3.05-.63-1-.05-1.82.35-2.54.39-.69,1.15-.96,2.08-.51Z"/>
      <path class="cls-1" d="M155.25,220.25c.2-.07.37-.14.56-.21-.32-.23-.63-.46-.95-.7.08-.15.16-.29.24-.44,1.21.65,2.41,1.28,3.97.24-.85,1.47-2.29,1.77-3.82,1.11Z"/>
      <path class="cls-1" d="M63.85,119.22c1.35-2.35,2.71-4.7,4.06-7.04.05.04.09.07.14.11-.37,1.04-.57,2.2-1.15,3.11-.88,1.36-2.03,2.55-3.06,3.81,0,0,.02.02.02.02Z"/>
      <path class="cls-1" d="M125.57,94.47c-2.22.68-4.54-.01-6.84.16,1.11-.45,2.18-.51,3.4-.22,1.09.26,2.29.06,3.44.06Z"/>
      <path class="cls-1" d="M199.71,248.28c.71-1.73,2.16-2.95.9-4.69.83.48,1.24,1.1,1.15,1.96-.12,1.16-.79,1.97-2.06,2.74Z"/>
      <path class="cls-1" d="M75.51,255.3c-2.22.93-4.47.57-6.72.16-.92-.17-1.83-.36-2.7-.81,1,.17,1.99.38,2.99.52,1.08.15,2.17.31,3.27.33,1.06.02,2.12-.12,3.18-.19,0,0-.02-.02-.02-.02Z"/>
      <path class="cls-1" d="M137.11,102.55c-.99.85-2.25.98-3.3.27.86-.56,2.58.38,2.47-1.74.15.06.3.12.46.17.12.44.24.88.36,1.31l.02-.02Z"/>
      <path class="cls-1" d="M111.45,221.98c-1.46.95-4.03.94-5,0h5Z"/>
      <path class="cls-1" d="M111.47,19.7h1.5c-.17-.18-.28-.31-.43-.47h1.43c.14-.89.28-1.73.41-2.58h.08v3.54c-1.06-.07-2.03-.14-3-.21,0-.09.01-.19.02-.28Z"/>
      <path class="cls-1" d="M150.7,98.3c.07.21.28.57.2.66-.86.93-1.75,1.84-3.36,1.31,1.05-.66,2.03-1.26,3.16-1.97Z"/>
      <path class="cls-1" d="M167.86,108.09c.67-.32,1.33-.67,2.02-.92.18-.07.49.2.74.32-.14.26-.23.69-.42.73-.72.18-1.46.24-2.2.34-.05-.16-.09-.31-.14-.47Z"/>
      <path class="cls-1" d="M92.94,87.12c.62-.1,1.24-.2,1.86-.31-.07-.27-.14-.53-.25-.92,1.05.48,2.05.94,3.05,1.4-.99-.31-1.87-.41-2.86.2-.42.26-1.22-.1-1.85-.19.02-.06.04-.12.06-.18Z"/>
      <path class="cls-1" d="M180.17,83.77c1.42.18,2.83.35,4.19.52-.56,1.11-2.51.95-4.17-.54l-.02.02Z"/>
      <path class="cls-1" d="M103.58,62.36c-.18.37-.37.74-.56,1.12-1.32-.05-2.76.89-3.97-.42,0,0-.02.02-.02.02.3.06.61.18.91.18.71-.01,1.46.36,2.09-.47.25-.34,1.03-.28,1.56-.4,0,0-.01-.02-.01-.02Z"/>
      <path class="cls-1" d="M183.54,110.62c.06-.05.12-.11.17-.16.48-.25.95-.55,1.46-.74.22-.08.67,0,.75.14.11.2.06.71-.09.79-.74.41-1.55.89-2.29-.03Z"/>
      <path class="cls-1" d="M159.22,86.32c-.19-1.07-.38-2.14-.57-3.21l.48-.1c1.2.84.09,2.22.6,3.23-.17.03-.34.06-.51.09Z"/>
      <path class="cls-1" d="M114.24,220.73h-2.87c.14.3.21.45.35.74-.5-.25-.89-.44-1.28-.63,1.18-.42,2.27-1.41,3.79-.12Z"/>
      <path class="cls-1" d="M100.71,38.31c-.93-.11-1.87-.22-2.8-.33-.04.11-.07.23-.11.34l.76.71c-.59-.16-1.19-.32-1.8-.49.65-1.29,2.76-1.51,3.94-.23Z"/>
      <path class="cls-1" d="M198.97,100.41c.2-1.44.98-2.08,2.86-2-1.12.77-2,1.38-2.88,1.98,0,0,.02.02.02.02Z"/>
      <path class="cls-1" d="M125.45,216.86c-.71.48-1.42.95-1.86,1.25-1.42-.4-2.64-.74-3.87-1.09,0-.05,0-.09,0-.14.89.14,1.85.11,2.66.45.79.33,1.35.36,1.99-.2.27-.24.64-.35.97-.52.04.08.07.17.11.25Z"/>
      <path class="cls-1" d="M110.66,94.34c-1.94-.24-3.87-.49-5.81-.73.01-.09.02-.19.03-.28,1.93.21,3.86.42,5.78.63,0,.13,0,.25,0,.38Z"/>
      <path class="cls-1" d="M72.94,161.07c.78-1.84,1.56-3.67,2.33-5.51.11.04.21.09.32.13-.78,1.82-1.56,3.64-2.34,5.47-.1-.03-.21-.06-.31-.08Z"/>
      <path class="cls-1" d="M135.93,225.09c-.16-.24-.31-.48-.47-.71-.03-.56-.29-1.26.72-1.19,0,0-.02-.02-.02-.02-.22,1.63.74,2.59,2.64,2.64,0,0-.01-.02-.01-.02-1.11.41-2.15.52-2.86-.7Z"/>
      <path class="cls-1" d="M128.29,104.01c1.39-.63,4.37-.83,4.69-.22-.49.06-.94.16-1.4.18-1.09.03-2.19.02-3.28.03,0,0-.01.02-.01.02Z"/>
      <path class="cls-1" d="M161.21,220.77c-1.22,1.17-1.78,1.2-2.97.18,1.12-.07,2.04-.12,2.97-.18Z"/>
      <path class="cls-1" d="M104.5,62.07c-.21-1.18,1.02-1.25,1.48-1.91.12.23.37.64.33.67-.58.44-1.2.83-1.81,1.24Z"/>
      <path class="cls-1" d="M184.23,82.72c1.03-.38,1.82-.67,2.61-.96-.51,1.31-1.34,1.61-2.61.96Z"/>
      <path class="cls-1" d="M137.1,102.57c.88-.21,1.76-.42,2.64-.63.05.17.1.35.14.52-.74.23-1.48.5-2.24.66-.13.03-.35-.37-.53-.58,0,0-.02.02-.02.02Z"/>
      <path class="cls-1" d="M109.47,90.62c-.29-.17-.51-.3-.94-.56.42-.03.73-.08.74-.05.13.46.42,1.03.26,1.39-.38.85-1.66.88-2.95.06,1.17.16,2.23.44,2.89-.84Z"/>
      <path class="cls-1" d="M176.87,203.23c-.39.34-.78.68-1.17,1.02-.37.32-.75.64-1.24.79.24-.36.59-.7.71-1.1.42-1.45.43-1.48,1.72-.69,0,0-.01-.02-.01-.02Z"/>
      <path class="cls-1" d="M181.93,80.08c-.14.31-.28.63-.45,1.02.28.18.54.36.8.54-.05.1-.11.19-.16.29-.42-.25-.9-.44-1.23-.78-.18-.19-.28-.75-.14-.9.22-.26.67-.32,1.02-.46.05.1.11.2.16.3Z"/>
      <path class="cls-1" d="M99.68,76.91c.06.26.1.48.16.72.21-.09.37-.16.54-.24.29.7-.52,1.24-2.16,1.42.49-.64.95-1.24,1.46-1.9Z"/>
      <path class="cls-1" d="M110.36,171.7c-.72-1.23-1.45-2.45-2.17-3.68.12-.07.23-.14.35-.21.72,1.23,1.44,2.46,2.16,3.69-.11.07-.23.13-.34.2Z"/>
      <path class="cls-1" d="M108.87,17.96c1.26-.5,2.49-.44,3.92.15-1.46.08-2.68.15-3.91.22v-.37Z"/>
      <path class="cls-1" d="M120.65,154.68c-.1.83-.2,1.67-.3,2.5l-.32-.02v-2.53c.21.02.41.03.62.05Z"/>
      <path class="cls-1" d="M134.64,62.63c.04,1.17-.79,1.68-2.83,1.54.96-.52,1.93-1.05,2.83-1.54Z"/>
      <path class="cls-1" d="M202.4,100.56c-1.01.32-1.77.56-2.53.81,0-1.06.89-1.43,2.53-.81Z"/>
      <path class="cls-1" d="M104.49,223.09c-1.2.58-2.4,1.15-3.6,1.73-.05-.09-.1-.19-.14-.28,1.19-.61,2.37-1.21,3.56-1.82.06.12.13.25.19.37Z"/>
      <path class="cls-1" d="M184.51,79.15c-.22.16-.44.31-.66.47-.21.16-.41.33-.61.5-.11-.03-.23-.06-.34-.1.06-.37,0-.93.21-1.06.36-.22.88-.18,1.34-.24.02.14.04.28.06.42Z"/>
      <path class="cls-1" d="M204.31,240.56c-.7.5-1.36.98-2.02,1.46-.03-1.24.83-1.86,2.02-1.46Z"/>
      <path class="cls-1" d="M122.61,53.07c-.13-.33-.43-.87-.35-.94.44-.36.98-.6,1.62-.65-.17.38-.35.76-.48,1.05-.27.18-.54.37-.81.55,0,0,.02-.02.02-.02Z"/>
      <path class="cls-1" d="M180.19,83.75c-.39-.12-.78-.33-1.17-.33-.39,0-.77.23-1.16.36-.05-.09-.11-.18-.16-.28.52-.39,1.03-.78,1.59-1.2.3.49.59.97.89,1.46l.02-.02Z"/>
      <path class="cls-1" d="M189.58,93.23c-1.31.96-1.52.89-1.95-.67.67.23,1.25.43,1.95.67Z"/>
      <path class="cls-1" d="M99.97,226.09c.64.05,1.29.11,2.25.18-.99.75-1.64,1.05-2.25-.18Z"/>
      <path class="cls-1" d="M93.57,76.15c.65-.31,1.3-.62,1.96-.93.06.03.13.06.19.09-.45.58-.9,1.15-1.38,1.76-.26-.32-.52-.64-.78-.95,0,0,.01.02.01.02Z"/>
      <path class="cls-1" d="M114.06,56.91c1.2-.1,2.4-.2,3.6-.31,0,.1.02.21.03.31-1.2.11-2.4.23-3.6.34-.01-.12-.02-.23-.03-.35Z"/>
      <path class="cls-1" d="M103.75,226.21c.4-.92.8-1.85,1.2-2.77.25,1.21-.39,2.05-1.2,2.77Z"/>
      <path class="cls-1" d="M143.54,224.13c-.23.24-.53.44-.69.72-.33.6-.76.5-1.24.26.72-.68,1.45-1.36,2.32-2.18-.17.51-.28.85-.39,1.19Z"/>
      <path class="cls-1" d="M128.02,61.02c-.59.67-1.01,1.15-1.44,1.64-.63-.9-.28-1.37,1.44-1.64Z"/>
      <path class="cls-1" d="M117.4,220.12c-1.13.73-2.12.37-3.1-.31,1,.1,2,.2,3.1.31Z"/>
      <path class="cls-1" d="M118.5,222.65c-.91-.18-1.82-.36-2.73-.54.03-.14.06-.28.08-.41.91.19,1.81.38,2.72.58-.03.12-.05.25-.08.37Z"/>
      <path class="cls-1" d="M98.82,39.29c.82-.03,1.77.56,2.38-.49.21.16.43.32.74.55-1.13.27-2.13,1.19-3.12-.06Z"/>
      <path class="cls-1" d="M124.31,219.39c-.1-1.42,1.29-.92,1.64-1.59-.02.96-.86,1.08-1.64,1.59Z"/>
      <path class="cls-1" d="M159.68,106.39c.7-.12,1.41-.24,2.11-.35.01.15.03.31.04.46-.72.45-1.43.58-2.14-.13,0,0-.01.02-.01.02Z"/>
      <path class="cls-1" d="M110.87,55.7c1.35.12,2.7.24,4.05.37,0,.08-.01.15-.02.23-1.35-.11-2.7-.21-4.05-.32l.02-.28Z"/>
      <path class="cls-1" d="M136.09,62.07c.73-.49,1.45-.97,2.08-1.38-.15,1.13-.94,1.7-2.08,1.38Z"/>
      <path class="cls-1" d="M105.44,225.31c.24-.18.48-.37.74-.56-.18-.13-.34-.25-.61-.45.51-.12.87-.21,1.24-.29.07.06.13.12.2.19-.41.49-.82.97-1.23,1.46-.11-.12-.23-.23-.34-.35Z"/>
      <path class="cls-1" d="M165.52,106.87c.64.13,1.28.26,1.92.38-.03.17-.06.34-.1.52l-1.92-.39c.03-.17.06-.34.09-.51Z"/>
      <path class="cls-1" d="M131.32,32.22c-.99.46-1.83.29-2.52-.57.15-.3.3-.61.45-.91.47.25.93.5,1.47.8.03-.13.11-.48.19-.83.14.5.27,1.01.41,1.51Z"/>
      <path class="cls-1" d="M121.41,42.61c-.37.12-.8.16-1.1.38-1.65,1.24-3.27,1.3-4.83.13.53-.06,1.07-.13,1.61-.19.11-.01.29-.05.34,0,1.11,1.37,1.84-.06,2.54-.48.85-.49.62-1.42.2-2.22-.01-.03.2-.18.31-.27.39.72.79,1.43,1.18,2.15-.08.16-.16.32-.24.48Z"/>
      <path class="cls-1" d="M130.21,41.15c-.44.73-2.27.77-3.61,0h3.61Z"/>
      <path class="cls-1" d="M197.69,116l1.77.4c.02.1.04.2.07.29-.29.17-.68.55-.85.47-.44-.21-.78-.62-1.17-.95.06-.07.12-.14.18-.21Z"/>
    </g>
  </g>
</svg>