<?xml version="1.0" encoding="UTF-8"?>
<svg id="Layer_1" xmlns="http://www.w3.org/2000/svg" viewBox="0 0 395.83 159.43">
  <defs>
    <style>
      .cls-1 {
        fill: #a61e2f;
      }
    </style>
  </defs>
  <g id="calzda">
    <g>
      <path class="cls-1" d="M262.26,67.63h-59.16c0,.13-.02.26-.03.39,1.36.42,2.72.82,4.07,1.26.52.17,1.13.33,1.48.7,2.97,3.11,6.78,2.24,10.39,2.26,14.67.08,29.33.13,44,.22,1.51,0,3.01.25,4.52.38,0,.15,0,.3,0,.46h-50.6c1.62,2.16,3.21,2.83,5.44,2.78,8.89-.2,17.78-.3,26.67-.24,9.74.06,19.48.33,29.22.52.54.01,1.08.11,1.63.16,0,.15,0,.3,0,.46h-59.27c-.04.19-.09.39-.13.58,2.32,1.22,4.35,3.13,7.21,3.12,12.18-.05,24.36-.2,36.54-.23,5.42-.01,10.83.16,16.25.27.68.01,1.36.21,2.03.64-15.85,1.14-31.71.6-47.84.57,1.44,1.68,2.83,2.34,4.94,2.31,11.08-.15,22.17-.11,33.25-.08,2.92,0,5.83.2,8.75.32.38.02.75.15,1.13.23-.01.18-.02.36-.03.54h-43.75l-.14.8c.7.24,1.44.74,2.11.67,3.82-.43,7.07.58,9.81,3.34.41.42,1.33.44,2.02.45,10.77.17,21.54.32,32.31.48.16,0,.32.1.48.16,0,.17,0,.33,0,.5h-33.43c-.3,3.57-.02,3.72,2.98,3.71,6.96-.02,13.92.13,20.89.21,0,.31,0,.62,0,.93-7.47.1-14.94.24-22.41.28-1.37,0-2.24.31-2.36,1.91,8.77.19,17.49.38,26.22.57,0,.22,0,.45,0,.67-4.44.11-8.89.27-13.33.32-4.38.06-8.76,0-13.13.04-.69,0-1.5.16-2.04.55-2.56,1.85-5.35,2.06-8.32,1.48-.55-.11-1.13-.13-1.7-.11-.06,0-.19.77-.14.79.58.21,1.19.48,1.8.49,5.6.06,11.21.02,16.81.13,5.5.11,11,.35,16.49.9-7.79.17-15.57.35-23.36.49-3.29.06-6.59.2-9.86-.06-2.89-.23-5.33.82-7.99,1.9,12.09.2,24.01.39,35.94.59,0,.23,0,.46,0,.7-11.7.18-23.4.37-35.11.55.7,3.2.74,3.17,3.73,3.2,9.92.11,19.85.28,29.77.43.26,0,.53.08.79.12,0,.19-.01.38-.02.58h-29.24l-.11.68c1.15.88,2.06,1.87,3.92,1.77,4.35-.24,8.72-.32,13.01.92-4.12,1.2-8.38.79-12.59.97-.07.21-.13.42-.2.63.71.3,1.4.77,2.14.87,2.16.29,4.34.43,6.51.63,0,.19.01.38.02.57-2.4.15-4.79.3-7.3.46.04.74.07,1.32.09,1.9-.1.05-.2.1-.3.15-.6-1.14-1.35-2.23-1.76-3.44-.49-1.44-1.39-2.22-2.8-2.56-.89-.21-1.78-.43-2.64-.72-1.03-.35-1.79-.23-2.6.63-1.15,1.23-1.74,1.05-2.62-.45-.37-.62-.78-1.23-1.23-1.8-.69-.88-.9-1.7-.45-2.85,1.03-2.61-1.14-5.43-3.95-5.22-1.45.11-2.88.57-4.32.59-1.39.02-2.91-.05-4.16-.58-3.73-1.56-7.4-1.84-11.15-.19-2.34,1.03-3.85,2.72-4.21,5.32-.08.58-.27,1.15-.43,1.84-.91-.2-1.65-.42-2.41-.52-3.96-.53-6.83,1.31-9.03,4.36-1.06,1.48-1.88,3.13-2.86,4.67-.44.7-.69,2.04-1.92,1.33-1.1-.63-1.89-1.76-1.17-3.08,1.17-2.13,2.53-4.15,3.81-6.22.21-.34.45-.68.85-1.29-12.05.2-23.83.42-35.59-.04,0-.2-.02-.4-.03-.6.63-.07,1.26-.22,1.89-.21,10.65,0,21.3-.06,31.94.13,1.85.03,3.25-.44,4.86-1.11,1.78-.73,3.84-.87,5.8-1.01.91-.07,1.53-.08,1.74-1.08.97-4.77,4.67-6.11,8.75-6.62,1.82-.23,3.93-.14,5.55.59,2.48,1.12,4.83.71,7.27.52,1.51-.12,3.04-.19,4.55-.16.64.01,1.36.21,1.88.56,3.92,2.68,8.43.91,9.36-3.71.08-.41.24-.8.41-1.38,5.73,2.45,9.43-.24,12.46-5.02-2.31-1.5-4.7-2.62-7.6-2.32-.61.06-1.46-.16-1.86-.58-4.04-4.28-8.97-4.41-14.19-3.09-.99.25-1.52.14-1.79-.83-.07-.23-.14-.47-.21-.7-.63-2.27-1.43-4.37-4.65-4.1.26-.53.42-.85.77-1.56-1.48-.25-2.88-.42-4.24-.76-.74-.19-1.48-.58-2.1-1.04-.7-.52-1.28-1.21-1.92-1.85.1-.06.43-.27.76-.48-1.15-3.09-3.95-2.31-6.62-2.67.64-.54.95-.8,1.3-1.1-.13-.12-.24-.33-.38-.34-2.64-.28-5.28-.51-7.91-.83-.61-.07-1.32-.32-1.75-.73-1.49-1.41-2.87-2.95-4.32-4.41-.25-.25-.59-.5-.92-.56-3.42-.61-6.7-2.53-10.34-1.1-.14.05-.34-.06-.6-.11.34-1.61,1.72-1.96,2.87-2.1,3.08-.38,6.14-.56,8.88,1.58.83.65,2.29.68,3.47.67,14.01-.06,28.01-.25,42.02-.25,9.25,0,18.51.24,27.76.39.69.01,1.37.12,2.04.49-24.15.91-48.28.51-72.79.52.64.94,1.11,1.74,1.71,2.42.18.2.95.23,1.09.05,1.3-1.57,3.15-1.18,4.74-1.19,17.91-.08,35.81-.07,53.72-.04,1.95,0,3.91.31,5.86.47-.01.19-.02.38-.03.56Z"/>
      <path class="cls-1" d="M138.88,48.65c6.93,0,13.85,0,20.78,0,2.19,0,4.39.09,6.58.02.82-.02,1.63-.46,2.46-.55,1.43-.15,2.87-.14,4.3-.28.46-.04.9-.34,1.35-.52-.41-.22-.82-.63-1.24-.65-4.67-.19-9.34-.33-14.02-.48,0-.24,0-.47-.01-.71,7.21-.22,14.42-.44,21.63-.66,0-.33,0-.65-.01-.98h-20.61c-.01-.26-.02-.51-.03-.77.62-.08,1.23-.23,1.85-.23,19.67-.14,39.33-.29,59-.36,3.25-.01,6.5.35,9.75.55,0,.16-.01.31-.02.47-4.24.19-8.49.37-12.73.56-.01.06-.03.12-.04.18.62.13,1.25.37,1.87.36,7.91-.05,15.83-.2,23.74-.18,7.18.02,14.37.2,21.55.35.87.02,1.74.24,2.61.36,0,.27-.01.53-.02.8-4.59.21-9.17.42-14.02.65,1.75,1.79,3.01,3.08,5.84,3,9.34-.27,18.71.06,28.06.58-9.72,1.13-19.47,1.18-29.53.99.53,1.23.89,2.3,1.47,3.24.17.27.98.33,1.43.21,2.83-.73,5.59-.88,8.44.11,1.13.4,2.52.04,3.79.05,8.34.06,16.67.13,25.01.21.65,0,1.3.2,1.94.65-9.21.98-18.44,1.16-27.74.75.8,2.72,1.07,2.82,3.52,2.84,3.77.03,7.54.22,11.31.35.26,0,.52.15.78.24,0,.21-.02.41-.02.62h-13.74c.43,2.39.77,4.26,1.1,6.13-.12.02-.24.05-.35.07-.25-1.11-.54-2.22-.76-3.34-.35-1.76-.8-3.39-3.22-3.38.43-.23.86-.46,1.31-.69-2.39-2.89-7.21-3.05-12.77-.89-.26-.7-.64-1.39-.78-2.12-.93-4.87-4.67-7.82-9.63-7.95-5.83-.16-10.68,1.95-14.95,5.73-.49.43-1.05.77-1.86,1.35-.39-1.06-.53-2-1.03-2.67-.86-1.16-1.75-2.67-2.98-3.15-6.36-2.48-12.6-2.47-18.4,1.73-.32.24-1.18.29-1.37.07-3.38-3.98-8.16-4.59-12.83-5.33-6.36-1.01-11.3,1.73-15.5,6.68h30.15c0,.31,0,.61,0,.92-2.39,0-4.77,0-7.16,0-6.38.02-12.76.07-19.14.05-4.86-.02-9.74.02-14.58-.28-2.82-.17-4.47,1.16-5.81,3.26-.62.96-1.13,2-1.69,3-2.85-.59-5.41.1-7.84,1.29-1.84.9-2.05,4.5-.36,5.62.96.64,1.96,1.19,3.06,1.85,2.86-3.52,6.33-5.01,10.7-3.39,1.37.51,1.83,1.63,1.92,3.36-3.65-1.62-6.82-.91-9.62,1.5-.52.45-.76,1.24-1.2,2-5.99-3.16-12.04-3.81-17.46,1.45-1.13-.72-2.31-1.48-3.74-2.39-.22-2.75-3.2-3.87-5.55-4.24-.06,0-.13-.02-.18,0-4.05,1.09-6.71-1.35-9.49-3.64-3.68-3.03-8.54-2.84-12.16.27-.36.3-1.14.3-1.67.18-3.24-.75-6.05-2.93-9.67-2.56-2.31.24-4.26.82-5.81,2.6-.64.73-1.35,1.42-2.12,2-.5.38-1.18.53-2.01.42.3-.54.61-1.08,1.13-2.01h-13.84c-.02-.19-.03-.39-.05-.58.79-.12,1.57-.34,2.36-.34,3.84,0,7.67.07,11.51.04.61,0,1.22-.39,1.82-.61-.05-.28-.11-.57-.16-.85h-11.12c0-.26-.01-.52-.02-.77,2.25-.13,4.49-.31,6.74-.38,2.16-.06,4.32-.01,6.48-.01,0-.23,0-.45.01-.68-1.7-.22-3.4-.44-5.1-.66-.01-.11-.02-.22-.03-.34,1.76-.13,3.53-.21,5.29-.39,1.56-.16,3.09-.52,4.65-.64,1.5-.12,3.16-.45,4.48.04,2.71,1.02,5.1,0,7.6-.41,0-.16,0-.31,0-.47h-29.75c1.59-1.45,41.09-1.51,44.03-.2h-7.98c1.59,1.46,3.01,1.79,4.6,1.8,3.41.02,6.82.1,10.23.18.51.01,1.03.13,1.54.19,0,.19,0,.38-.01.57h-10.95c-.12.26-.24.52-.37.78,1.03.89,2.03,1.82,3.11,2.65.27.21.8.23,1.18.16,3.28-.55,6.26.21,9.13,1.8.73.41,1.68.56,2.54.58,3.59.08,7.18.13,10.76.06,2.1-.04,2.27-.39,1.96-2.87-4.96,0-10.01.65-14.95-.36-.02-.22-.03-.44-.05-.66.97-.15,1.95-.42,2.92-.42,3.59.02,7.18.17,10.77.16.63,0,1.66-.38,1.81-.82.39-1.18-.46-1.55-1.55-1.55-3.65,0-7.31-.03-10.96-.07-.68,0-1.36-.11-2.05-.17,0-.19.01-.39.02-.58,1.42-.09,2.83-.25,4.25-.25,3.9-.01,7.79.07,11.69.05.77,0,1.54-.29,2.31-.43,1.55-.27,3.1-.68,4.66-.72,1.19-.03,1.64-.47,1.81-1.78-.8-.05-1.55-.14-2.29-.13-6.94.08-13.87.19-20.81.26-.77,0-1.54-.22-2.31-.34.01-.23.02-.46.03-.69.6-.08,1.2-.23,1.79-.23,5.85.01,11.69.03,17.54.09,1.7.02,3.4.12,5.1.25,1.25.1,2.12-.29,2.72-1.97h-24.97c0-.25,0-.51,0-.76,3.86-.11,7.72-.29,11.58-.32,4.43-.03,8.87.11,13.3.09.93,0,1.86-.41,2.79-.63-.03-.29-.06-.58-.1-.87h-26.64l.03-1.06ZM168.1,52.49h9.08c-3.95-1.99-7.06-2.97-9.08,0Z"/>
      <path class="cls-1" d="M76.05,98.71c1.48-.7,2.9-1.55,4.44-2.06,4-1.34,8.11-1.29,12.23-.62.28.05.64.08.87-.04,2.33-1.27,4.65-2.57,7.18-3.98-1.66-1.17-3.55-1.76-5.42-1.6-2.83.25-5.61.99-8.42,1.44-.58.09-1.55.04-1.77-.31-2.06-3.23-5.07-2.66-8.02-2.05-2.55.53-3.58.32-4.25-2.18-.48-1.83-.67-3.66-2.82-4.01-1.71-.28-3.51-.27-5.24-.1-1.11.11-1.84-.08-2.15-1.1-.59-1.93-2.14-2.76-3.86-2.84-2.7-.13-5.42.2-8.14.23-1.08.01-2.15-.28-3.24-.39-.59-.06-1.21-.12-1.77.02-1.92.48-3.82,1.05-6.25,1.74,2.46-2.44,4.98-3.74,7.76-4.41,3.24-.78,6.53-1.38,9.82-1.87,1.03-.15,2.2.13,3.21.48,1.94.68,3.8,1.55,5.6,2.31-.4.07-1.11.2-1.82.32-.04.16-.08.33-.12.49.5.12,1.02.39,1.49.32,2.38-.35,4.58-.09,6.64,1.29.54.36,1.39.34,2.11.36,4.02.11,8.03.17,12.05.27.5.01.99.18,1.49.28-.02.2-.03.39-.05.59h-13.78c-.03,1.81.99,1.57,1.85,1.58,5.23.06,10.46.12,15.69.2.38,0,.76.18,1.17.69-.4.11-.8.31-1.2.31-4.75.07-9.49.09-14.24.16-.7.01-1.41.17-2.1.31-.03,0,.02.78.07.78.69.06,1.39.06,2.09.06.85,0,1.8-.24,2.53.05,4.64,1.84,9.53.42,14.23,1.2,10.66,1.78,21.36.18,32.05.43,10.77.25,21.56,0,32.33.04,6.39.03,12.77.19,19.16.33.83.02,1.65.22,2.46.59-26.68.84-53.36.36-80.49.4,1.84,1.72,3.39,2.37,5.61,2.31,14.55-.39,29.1-.67,43.65-.8,7.3-.06,14.61.25,21.91.46,1.46.04,2.91.35,4.37.53l-.03.57c-11.35.68-22.7,1.36-34.05,2.04,0,.24,0,.48,0,.72,9.04.41,18.14-.56,27.15.5.01.22.02.45.03.67-2.04.16-4.08.36-6.12.45-2.12.1-4.25.12-6.38.12-2.13,0-4.25-.12-6.38-.14-2.11-.03-4.22,0-6.33,0-.06.22-.12.44-.18.66.48.16.95.4,1.44.48,1.78.27,3.56.58,5.36.7,2.78.19,5.58.24,8.37.36,2.4.11,4.8.24,7.2.36,0,.25,0,.51,0,.76h-12.5c.42,1.92,1.41,2.01,2.59,2.03,2.29.03,4.58.19,6.87.29l.03.66c-2.35.22-4.69.45-7.16.68.34,1.09.64,2.05.94,3.01-1.47-2.95-3.46-5.27-6.81-5.94-1.21-.24-2.55-.2-3.77.04-1.25.24-2.04.03-2.42-1.19-.58-1.87-1.99-2.4-3.71-2.21-3.2.35-6.42.65-9.25,2.51-.46.31-1.78.24-1.96-.08-2.17-3.91-5.94-3.86-9.15-2.82-3.67,1.19-6.63,1.18-10.21-.39-4.18-1.84-8.23.06-11.77,2.6-1.15.83-2,.77-3.4.44-4.77-1.1-9.55-.96-13.89,1.8-.67.42-1.29.91-1.95,1.36-.25.17-.54.42-.79.41-3.79-.16-7.57-.36-11.35-.57-.29-.02-.57-.16-.9-.53.4-.1.8-.26,1.21-.28,1.95-.06,3.91-.24,5.84-.06,2.07.2,3.62-.25,4.52-2.23l-.03.03ZM132.51,93.97h-6.29c.01.2.02.4.03.6,2.12.47,4.21.17,6.26-.6ZM105.7,91.86l-.02.31c1.6.09,3.19.17,4.79.26,0-.19.02-.38.03-.57h-4.8Z"/>
      <path class="cls-1" d="M326.18,96.41c-2.65.15-5.3.4-7.95.42-8.59.05-17.18.02-25.76-.01-1.5,0-2.84.05-3,2.55h39.13c0,.29,0,.58,0,.87-4.22.11-8.43.3-12.65.32-9.01.03-18.03-.06-27.04-.01-.94,0-1.97.49-2.8,1-1.54.94-2.94,2.14-5.48,1.98.82-.67,1.28-1.05,1.75-1.41,3.23-2.41,5.99-5.19,7.03-9.23.19-.73.02-1.65-.26-2.37-.65-1.64-1.47-3.2-2.22-4.8-.49-1.05-.36-1.69.86-2.27,3.66-1.72,4.36-3.94,2.5-7.51-1.15-2.22-2.35-4.36-4.86-5.47-2.05-.9-4.02-1.04-5.98-.09-1.24.6-2.31.43-2.75-.7-.43-1.11.04-2.15,1.39-2.73,3.97-1.73,8.52-.02,11,4.56.83,1.53,1.74,1.76,3.3,1.75,13.27-.1,26.55-.11,39.82-.14,4.49,0,8.99,0,13.48,0,0,.28.02.56.03.84-3.54.09-7.09.2-10.63.25-3.71.05-7.43.03-11.15.04-3.65,0-7.31.01-10.96,0-3.72,0-7.43-.02-11.15-.03-3.63,0-7.26,0-10.89,0,.49,2.58.67,2.67,3.11,2.65,12.29-.11,24.57-.22,36.86-.25,5.65-.02,11.3.11,16.96.22,1.43.03,2.85.23,4.28.36,0,.21,0,.42,0,.63h-29.88c0,.29,0,.58,0,.87h32.36c0,.27,0,.55,0,.82h-28.35c1.24,1.79,1.23,1.6,2.52,1.08,1.04-.42,2.33-.37,3.5-.32,7.29.28,14.57.62,21.86.95,1.5.07,3,.18,4.5.27,0,.19,0,.37,0,.56h-9.76c1.1,1.54,2.17,2.77,2.94,4.16.76,1.37,1.41,1.45,2.67.56,3.76-2.64,8.13-3.03,12.56-3.09.26,0,.53.19.84.51-5.45,1.02-10.77,2.26-15.2,6.23-1.73-5.08-5.95-4.53-9.56-4.26-2.94.22-5.84,1.51-8.64,2.61-1.13.44-1.5,0-2.11-.62-5.17-5.31-11.4-7.81-18.82-6.76-4.22.6-8.06,2.25-11.49,4.86-.51.39-1.46.2-2.2.27-.03-.7-.28-1.5-.04-2.1.93-2.3,3.26-2.94,5.15-4.11.37-.23.64-.6.74-1.21,1.25-.19,2.51-.37,3.76-.56,0-.15-.01-.3-.02-.45h-17.21c1.21,3.92.59,7.16-3.55,8.82.97,3.16,1.76,3.71,4.75,3.71,8.52,0,17.03.02,25.55.08,1.7.01,3.39.24,5.09.37,0,.17,0,.33,0,.5h-32.84v3.95h34.93c0,.3,0,.59.01.89Z"/>
      <path class="cls-1" d="M200.52,95.97c-.05-.57-.09-1.14-.15-1.71-.48-5.36-4.59-8.66-9.93-7.94-.96.13-1.92.35-2.85.62-1.95.55-2.84.25-2.85-1.69-.02-3.68-2.56-5.06-5.27-5.9-6.82-2.11-13.11-1.15-18.32,4.18-.16.17-.38.29-.72.54-6.77-5.58-13.58-5.97-20.21.22-7.51-5.88-11.58-5.67-20.89,1.16-.51-.79-1.11-1.53-1.5-2.36-1.2-2.54-3.22-3.74-5.95-3.8-4.39-.09-8.76.07-13.01,1.42-.8.26-1.69.25-2.5.47-1.78.48-2.42-.73-2.94-2-.59-1.43.74-1.79,1.55-2.26,5.1-2.98,10.41-3.39,15.96-1.28,2.5.95,5.12,1.53,6.89,3.82.22.28,1.22.12,1.78-.06,2.93-.96,5.79-2.18,8.77-2.95,3-.77,5.82.2,8.24,2.02,1.55,1.17,2.82,1.29,4.39.09,2.68-2.04,5.94-2.86,9.12-2.62,2.26.17,4.54,1.48,6.58,2.69,1.49.88,2.56,1.36,4.04.11,3.9-3.28,8.59-4.44,13.55-4.64,4.86-.2,9.1,2.57,11.02,7.21.53,1.28,1.02,1.58,2.4,1.24,4.13-1.02,8.24.63,10.6,4.11,1.89,2.78,2.92,5.83,2.65,9.22-.16.03-.32.06-.48.08Z"/>
      <path class="cls-1" d="M288.83,110.94c1.97-1.56,4.34-3.43,6.8-5.38-3.68-.46-7.5.12-11.17-.88,8.16-.83,16.3-.67,24.44-.16.01.15.02.3.03.46-1.86.15-3.71.3-5.62.46.03.32-.01.55.08.64,1.65,1.66,3.29,3.34,5.02,4.91.31.28,1.11.24,1.58.06,1.37-.5,2.65-1.26,4.03-1.7,2.21-.7,4.35-.69,5.95,1.4.67.88,1.21.49,1.99.02,1.8-1.09,3.63-2.23,5.6-2.92,3.09-1.08,4.63-.33,6.52,2.62-4.24-2.07-7.03.83-10.03,2.94-.68.48-1.23,1.14-1.94,1.81-.43-.46-.8-.76-1.06-1.14-1.46-2.17-2.71-2.72-5.21-1.86-1.48.51-2.9,1.28-4.22,2.12-1.08.69-1.75.56-2.38-.5-1.26-2.12-2.94-3.82-5.1-5.07-1.34-.78-2.59-.98-4.15-.56-3.63.98-6.16,3.27-8.39,6.12-1.64,2.1-2.22,2.07-3.15-.29-.73-1.85-1.94-2.36-3.69-2.13-1.27.17-2.52.46-3.79.55-.59.04-1.42-.06-1.77-.44-.49-.53-.91-1.41-.83-2.08.04-.37,1.12-.78,1.78-.89,1.25-.22,2.62-.57,3.79-.28,1.59.39,3.05,1.34,4.9,2.21Z"/>
      <path class="cls-1" d="M308.32,69.81c-6.53-3.45-12.28-1.07-17.82,2.73-.11-.18-.23-.36-.34-.54.3-.49.51-1.07.92-1.45,3.54-3.32,7.53-5.48,12.61-5.12,2.04.14,4.13-.28,6.17-.16,1.13.07,2.2.82,3.34,1.1.58.14,1.38.15,1.85-.15,2.54-1.59,5.17-2.72,8.24-2.18.62.11,1.44.32,1.74.77,1.07,1.61,2.61,1.58,4.19,1.43,3.87-.37,7.47.68,11.05,1.92,1.52.53,2.2,1.58,1.94,2.99-3.66-.59-7.22-1.17-10.79-1.73-.25-.04-.52.12-.79.57,1.22.09,2.43.17,3.65.26,0,.15,0,.3,0,.44-12.04.33-24.07.68-36.44-.35,3.71-.19,7.09-.37,10.47-.54ZM325.45,69.68c-2.48-2.33-6.79-2.33-8.94,0h8.94Z"/>
      <path class="cls-1" d="M167.46,56.6c3.17-1.41,59.62-1.27,61.71.11-20.57.78-41.14.57-61.71-.11Z"/>
      <path class="cls-1" d="M173.76,39.4c20.36-.75,40.73-.16,61.09.5-20.37.6-40.74,1.34-61.11.42,0-.31.01-.61.02-.92Z"/>
      <path class="cls-1" d="M197.98,104.13c-2.53-3.93-6.11-2.08-9.35-1.8-.96.08-1.47.1-2.01-.87-1.55-2.78-4.16-3.97-7.2-3.62-2.39.28-4.69,1.22-7.06,1.72-.55.12-1.66-.26-1.74-.6-.16-.62.02-1.67.48-2.05,2.95-2.46,9.91-2.76,13.17-.66.6.39,1.28.84,1.62,1.44.87,1.55,2.06,2.03,3.76,1.71.76-.14,1.58-.04,2.37-.03,3.5.03,4.86,1.04,5.98,4.77Z"/>
      <path class="cls-1" d="M177.23,60.13h72.38c-3.53,1.22-67.39,1.28-72.38,0Z"/>
      <path class="cls-1" d="M139.52,104.33c-16.72.5-33.44,1.17-50.16.37v-.91c16.72-.69,33.44-.16,50.16.54Z"/>
      <path class="cls-1" d="M143.39,107.83c16.04-1.15,32.04-.63,48.05-.11-2.38,1.12-42.02,1.27-48.05.11Z"/>
      <path class="cls-1" d="M97.99,108.79c11.36-.7,22.73-.79,34.09-.04,0,.22,0,.43,0,.65h-34.09c0-.2,0-.41,0-.61Z"/>
      <path class="cls-1" d="M100.34,113.09c8.06-1.05,16.09-1,24.11-.41v.91c-8.05.54-16.09.64-24.11-.5Z"/>
      <path class="cls-1" d="M131.97,122.48c7.38-.52,14.76-.69,22.57.03-2.42,1.59-20.76,1.57-22.57-.03Z"/>
      <path class="cls-1" d="M54.61,96.74c-7.21.53-13.97.65-20.73-.08,1.5-1.52,18.52-1.46,20.73.08Z"/>
      <path class="cls-1" d="M46.44,103.33c-7.41.4-14.83.7-22.25.08,1.31-1.34,19.47-1.38,22.25-.08Z"/>
      <path class="cls-1" d="M289.8,61.09c9.86-.37,19.73.2,29.59.46-9.86.42-19.73,1.01-29.59.45,0-.3,0-.6,0-.9Z"/>
      <path class="cls-1" d="M57.98,104.98h29.18c0,.21,0,.42,0,.62h-29.18c0-.21,0-.42,0-.62Z"/>
      <path class="cls-1" d="M85.12,67.63h-22.09c1.99-1.36,19.76-1.41,22.09,0Z"/>
      <path class="cls-1" d="M186.05,105.12c-7.56.82-15.14.58-22.9,0,2.68-1.14,20.37-1.23,22.9,0Z"/>
      <path class="cls-1" d="M181.95,114.8c-6.75.77-13.5.96-20.25.01,6.75-.99,13.5-.75,20.25-.01Z"/>
      <path class="cls-1" d="M95.58,53.29c6.48-1,12.99-.76,19.5-.01-6.49.95-12.98.94-19.5.01Z"/>
      <path class="cls-1" d="M126.42,120.13c6.23-.67,12.47-.7,19.08-.09-1.78,1.39-17.07,1.39-19.08.09Z"/>
      <path class="cls-1" d="M371.63,98.74h-23.32c0-.22,0-.43,0-.65h23.32v.65Z"/>
      <path class="cls-1" d="M33.23,99.11c6.09-.29,12.18-.64,18.74.12-2.18,1.33-17.33,1.24-18.74-.12Z"/>
      <path class="cls-1" d="M350.03,94.38h17.78c-1.2,1.24-14.36,1.35-17.78,0Z"/>
      <path class="cls-1" d="M59.13,69.44h19.99v.56h-19.94l-.05-.56Z"/>
      <path class="cls-1" d="M340.8,91.32h15.3c-1.43,1.38-11.98,1.53-15.25.48-.02-.16-.03-.32-.05-.48Z"/>
      <path class="cls-1" d="M164.14,119.8c1.98-1.34,13.75-1.35,15.75-.01-5.39.64-10.36.55-15.75.01Z"/>
      <path class="cls-1" d="M207.12,35.93h19.36c-2.05,1.18-16.88,1.34-19.36,0Z"/>
      <path class="cls-1" d="M66.72,88.34c-5.96.22-11.92.33-17.87.01,0-.23,0-.46,0-.7h17.92c-.02.23-.04.46-.05.69Z"/>
      <path class="cls-1" d="M100.02,116.39h18.5c0,.21,0,.42,0,.62-6.18.43-12.36.46-18.55.03l.05-.65Z"/>
      <path class="cls-1" d="M58.83,91.39c5.7-.55,11.41-.35,17.5-.14-1.63,1.17-15.85,1.26-17.5.14Z"/>
      <path class="cls-1" d="M43.17,84.83h19.09c0,.2,0,.4,0,.6h-19.09c0-.2,0-.4,0-.6Z"/>
      <path class="cls-1" d="M193.63,35.65h-15.97c2.64-1.26,13.97-1.27,15.97,0Z"/>
      <path class="cls-1" d="M143.18,126.28h14.99c0,.21,0,.43,0,.64h-14.99c0-.21,0-.43,0-.64Z"/>
      <path class="cls-1" d="M86.16,77.86h-15.05c0-.16,0-.31,0-.47h15.05c0,.16,0,.31,0,.47Z"/>
      <path class="cls-1" d="M68.57,94.44h11.1c0,.27,0,.53,0,.8-3.69.2-7.38.38-11.08-.2,0-.2-.02-.4-.02-.59Z"/>
      <path class="cls-1" d="M219.67,33.65h-10.53c2.27-1.35,8.5-1.43,10.53,0Z"/>
      <path class="cls-1" d="M112.13,50.18h-10.74c0-.18,0-.36,0-.55h10.74c0,.18,0,.36,0,.55Z"/>
      <path class="cls-1" d="M72.76,72.8h-8.19c0-.23,0-.45,0-.68,2.73-.5,5.46-.57,8.19.16,0,.17,0,.35,0,.52Z"/>
      <path class="cls-1" d="M76.08,98.69h-8.53c-.03-.15-.06-.3-.08-.45.33-.17.65-.49.98-.49,2.17.03,4.33.09,6.49.24.39.03.74.47,1.12.73,0,0,.03-.03.03-.03Z"/>
      <path class="cls-1" d="M34,104.86c2.06.1,4.12.2,6.18.3-.01.24-.03.48-.04.71-2.1.24-4.21.89-6.25-.12l.12-.89Z"/>
      <path class="cls-1" d="M177.72,124.3h-8.13c0-.14,0-.29,0-.43h8.17c-.01.14-.03.29-.04.43Z"/>
      <path class="cls-1" d="M35.15,107.66c1.98-.26,3.96-.59,5.9.17,0,.17,0,.34-.01.51h-5.93c.01-.23.03-.45.04-.68Z"/>
      <path class="cls-1" d="M68.6,75.37h-6.33c0-.17,0-.34,0-.51h6.33c0,.17,0,.34,0,.51Z"/>
      <path class="cls-1" d="M191.34,32.51h6.87c0,.12,0,.24,0,.36h-6.8c-.02-.12-.04-.24-.07-.36Z"/>
    </g>
  </g>
</svg>