<?xml version="1.0" encoding="UTF-8"?>
<svg id="Layer_1" xmlns="http://www.w3.org/2000/svg" viewBox="0 0 168.13 297.64">
  <defs>
    <style>
      .cls-1 {
        fill: #a61e2f;
      }
    </style>
  </defs>
  <g id="ReDxl3">
    <g>
      <path class="cls-1" d="M111.09,67.21c1.34-1.16,2.96-1.73,4.64-2.13.32-.08.74.14,1.08.3.67.31,1.31.67,1.93,1.14-.26-.08-.52-.17-.79-.22-.68-.12-1.19.05-1.22.85-.03.68-.23,1.43.88,1.56.84.09,1.9-.37,2.44.79.05.1.67.11.81-.04.84-.86,1.61-1.78,2.58-2.88-1.08-.29-1.93-.51-2.79-.74.02-.1.04-.21.06-.31.78.14,1.56.26,2.33.41,1.27.25,2.36.1,3.32-.93.51-.54,1.28-.84,1.96-1.19,1.24-.63,1.96-1.68,2.55-2.83-.07-.09-.13-.17-.2-.26-.77.47-1.54.94-2.31,1.41-.03-.06-.07-.12-.1-.17.7-1.01,1.4-2.02,2.09-3.04.02-.04-.05-.14-.15-.4-1.11.84-2.76.96-2.7,3-.16-.03-.32-.06-.48-.09-.11-.53-.45-1.15-.28-1.56.41-.98,1.07-1.86,1.63-2.79.21-.35.56-.67.62-1.05.19-1.06.26-2.14.42-3.55-.91.93-1.71,1.75-2.56,2.61.06-.41.12-.79.18-1.17-.11-.06-.22-.11-.33-.17-.41.7-.81,1.39-1.22,2.09-.14,0-.29,0-.43.01-.26-.98-.63-1.95-.75-2.95-.15-1.19-.86-1.74-2.06-2.33.07.67.05,1.11.17,1.52.36,1.27.4,2.47-.42,3.6-.14.19-.25.57-.15.74.44.78.96,1.52,1.53,2.39-.36.57-.79,1.27-1.27,2.03-1.33-.66-1.87.4-2.59,1.13-.47.48-1.02.9-1.69,1.18.1-.33.19-.67.29-1-.09-.08-.17-.16-.26-.24-.53.4-1.05.8-1.7,1.29-.01,0-.23-.14-.23-.15.5-1.56.99-3.01,1.41-4.47.16-.56.33-1.18,1-.99.42.12.8.6,1.06,1.01.2.31.14.76.26,1.13.09.27.25.68.44.71.24.04.59-.17.79-.38.79-.81.85-1.77.59-2.84-.15-.63-.02-1.33-.07-1.99-.05-.7-.1-1.4-.25-2.08-.26-1.16-.82-2.27-.25-3.5.15-.32.05-.75.07-1.13.39.33.75.72,1.18.97.38.22,1.19.49,1.24.4.35-.6.56-1.28.81-1.94-.31-.08-.63-.24-.93-.23-.44.02-.88.17-1.65.33,1.06-1.38,1.9-2.47,2.75-3.56-.11-.1-.22-.2-.33-.3-.69.5-1.32,1.18-2.09,1.47-.71.27-1.65,1.03-2.53-.15,1.67.24,2.26-1.03,3.26-1.63-.05-.1-.11-.2-.16-.3-.73.38-1.46.75-2.29,1.17,1.44-1.96,2.93-2.4,5-1.58.39.15.86.11,1.25.26.42.16.76.51,1.18.68.62.25,1.28.61,1.9.56,1.59-.12,3.16-.43,4.75-.67.16-1.14-.25-1.91-1.39-2.09-1.6-.26-3.24-.34-4.92-.51,1.07-.54,2.07-1.04,2.82-1.42.6.45,1.13.84,1.66,1.25.77.59,1.63,1.09,2.26,1.79.59.66.43,1.52-.48,1.79-1.02.3-2.11.42-3.18.48-.68.04-1.37-.18-2.2-.3.22.77.4,1.39.58,2-2.76-3.54-3.21-3.85-4.15-2.53.43.1.81.19,1.36.32-.27.98-.55,1.93-.78,2.88-.08.34-.02.71-.03,1.06.32-.1.71-.12.96-.32.89-.67,2.91-.88,3.61-.1.58.64.96,1.54,1.2,2.39.24.84.66.97,1.26.54.98-.69,1.84-1.59,2.86-2.2.68-.41,1.57-.48,2.59-.76-.84,1.32-1.58,2.47-2.5,3.9.91-.07,1.4-.11,1.89-.15-.5.34-1,.68-1.5,1.02.44.99.86,1.34,1.58,1,.45-.21.73-.77,1.09-1.17-.4-.28-.8-.55-1.19-.83,1.1-1.1,2.44-.39,3.66-.45.68-.03,1.37.24,1.78.32.22.63.32,1.17.57,1.62.52.89.87,1.74.01,2.69-.23-.15-.43-.27-.61-.4-1.4-.99-1.3-.92-2.32.34-.48.6-1.41.84-2.14,1.24-.32.18-.64.37-.95.55.18.31.29.73.56.91,1.32.88,1.81,2.23,2.12,3.67.18.86,0,1.11-.96,1.56.19-.55.38-1.11.56-1.62-1.28-.17-2.42-.32-3.56-.47.01-.09.02-.18.03-.27.5-.11,1.19-.07,1.44-.38.29-.36.3-1.04.24-1.57-.03-.31-.38-.7-.68-.82-.23-.09-.7.1-.9.31-.7.76-1.36,1.56-1.97,2.4-.11.15,0,.58.15.8.29.45.68.83.93,1.52-.61-.15-1.23-.27-1.83-.46-.75-.24-1.45-.07-1.62.66-.08.33.5.98.93,1.22.48.26,1.13.23,1.7.32.39.06.78.11,1.14.38-1.52.45-2.99.32-4.37-.49-.37-.22-.69-.52-1.02-.8-1.12-.97-1.19-.94-2.11.13-1.35,1.58-2.75,3.11-4.1,4.69-.27.31-.54.71-.6,1.1-.29,1.85-.27,1.85-1.87,3.47.12-.42.22-.64.24-.86.03-.28,0-.56,0-.84-.34.09-.76.09-1.01.3-.38.31-.64.77-.97,1.15-.09.1-.27.12-.41.17v-3.6c-.11,0-.23-.01-.34-.02-.12.85-.25,1.69-.39,2.68-.73-.36-1.3-.87-1.8-.81-.37.04-.65.82-1.13,1.5-.8.16-1.91,1.39-1.95,2.5-.03,1.05-.26,1.39-1.49,2.11.33-.47.6-.79.8-1.16.18-.34.52-.89.39-1.05-.87-1.15.08-2.32-.13-3.46-.12-.64-.07-1.41-1.16-1.16-.17.04-.48-.46-.73-.72-.81,1.04-.75,1.52.43,2.03-.56.53-1,1.06-1.56,1.45-.89.61-1.22,1.34-.93,2.39.14.51.14,1.06.22,1.7-1.16-.28-1.06-1.21-1.29-1.94-.56-1.83.78-2.26,2.3-2.71-.65-.54-1.09-.92-1.39-1.17-1.38,1.39-2.69,2.7-4.14,4.16-.41-1.32-.73-2.36-1.06-3.39-1.07.43-1.4,1.05-1.01,2.03-1.49.69-1.44.66-2.32-.84-.19-.32-.94-.37-1.45-.41-.13-.01-.3.48-.45.74-.92,1.55.26,3.02.18,4.54-.02.45,0,.89,0,1.34-.15.02-.31.03-.46.05-.21-1.32-.42-2.64-.68-4.32-.97.92-1.71,1.62-2.45,2.33-.81-.36-.82-.94-.4-1.53.61-.86,1.3-1.66,1.96-2.49.25-.31.64-.66-.18-.7,3.16-2.67,5.84-5.95,9.61-7.42-.04-.82-.07-1.35-.09-1.88-1.67-.44-2.79.03-2.81,1.19-.02,1.13-.36,1.35-1.63.97.07-.48.18-.98.21-1.47.02-.31-.07-.64-.11-.95-.3.2-.65.34-.88.6-.52.57-.86,1.48-1.49,1.74-1.19.5-1.52,1.48-1.91,2.47-.48,1.24-.9,2.5-1.31,3.77-.14.43-.42.97.44.97-.29.19-.57.38-.86.56-.1-.04-.2-.08-.3-.12.33-1.37.55-2.78,1.02-4.1.63-1.77,1.57-3.43,2.19-5.2,1.32-3.76,2.62-7.54,1.93-11.77.3.13.48.21.78.34.37-1.68.73-3.32,1.09-4.97l-.37-.16c-.23.32-.42.68-.69.95-.42.42-.93.74-1.35,1.16-.23.23-.54.58-.51.85.1,1.04.32,2.08.51,3.2-1.68-.07-1.78,1.11-2.05,2.07-.36,1.3-.26,1.52.58,2.1-1.72,2.72-1.89,5.84-2.18,8.92-.2,2.2-1.05,4.14-1.89,5.74-.21-.42-.48-.96-.74-1.51-.1-.21-.29-.43-.27-.63.15-1.4.33-2.8.55-4.5.92,1.22.27,2.61.94,3.85.99-1.51,1-3.11,1.12-4.87-.4.23-.67.38-.94.54-.91-.78-2-.48-2.52.61-.11.23-.59.4-.88.39-1.07-.06-1.34.22-1.03,1.28.22.77.49,1.53.83,2.56-.59-.29-.88-.43-1.28-.63-.16.32-.31.6-.46.9-.06-.03-.17-.05-.18-.1-.27-.87.35-1.89-.54-2.73-.18-.17.25-1.09.52-1.6.42-.82.57-1.57.11-2.45-.16-.3,0-.79.09-1.17.22-.96.49-1.91.7-2.87.02-.09-.3-.25-.38-.31.4-.7.8-1.42,1.24-2.19-1.15.41-2.06.68-2.92,1.06-.39.17-.82.49-.99.85-.5,1.06-.96,2.16-1.29,3.28-.15.53.04,1.17.27,1.74-1.77,2.68.1,4.51,1.75,6.38-.09.06-.19.13-.28.19-1.79-.89-3.58-1.78-5.37-2.67-.06.07-.13.13-.19.2.3.41.6.81.9,1.22-.02.11-.04.23-.06.34-.5-.07-1.1,0-1.46-.25-.54-.39-1.45-.47-1.3-1.67.07-.61-.68-1.55-1.3-1.97-1.54-1.05-1.91-2.58-2.29-4.34-.24.14-.5.3-.93.54-.09-.14-.19-.37-.35-.52-.28-.27-.61-.5-.91-.74-.08.37-.22.75-.23,1.12-.03,1.06-.01,2.13-.27,3.21-.14-.77-.28-1.55-.47-2.63-.74.89-1.29,1.55-1.84,2.22l-.16-.1c.35-.65.76-1.27,1.04-1.94.19-.46.21-.98.34-1.66.92-.06,1.49-.82,1.69-2,.06-.36.37-.67.5-1.02.27-.76.5-1.53.75-2.29l-.55-.25c-.91,1.5-1.81,3-2.72,4.5-.11-.04-.21-.09-.32-.13.08-.26.11-.55.25-.78.4-.66.11-1.19-.49-1.24-.51-.04-1.53.38-1.53.57.05,1.33-1.06,1.86-1.69,2.69-.48.64-.52.74.34,1.34-.58,1.02-1.49.62-2.26.46-.74-.15-1.32-.65-1.17-1.5.17-.94-.31-.98-1.05-1.22-1.76-.58-3.48-.7-5.27.06-.03-.12-.06-.24-.09-.36.35-.3.69-.6,1.08-.94-.72-.92-1.47-.48-2.06-.05-.23.16-.11.81-.14,1.19-2.26-.64-3.68-3.73-2.63-6.06.16-.36.22-.95.03-1.26-.86-1.46-.7-1.78.83-1.91.57.88.98,1.68,1.56,2.35.66.76,1.47,1.38,2.22,2.06.1-.08.19-.15.29-.23.11.92.17,1.86.34,2.77.06.3.39.56.59.83.34-.26.85-.45.99-.8.61-1.5,1.66-2.47,3.19-2.89.4-.11.87.04,1.3.19-1.19.76-2.23,2.75-1.94,4.04.05.24.76.6.98.5,1.07-.47,2.1-1.03,3.09-1.65.76-.48,1.4-1.14,2.45-.74.2.07.74-.2.8-.4.37-1.43.69-2.87.95-4.32.04-.22-.25-.57-.47-.77-1.18-1.07-1.59-2.15-.67-3.71.8-1.35,1.47-2.24,2.8-2.7.14.79.42,1.6.37,2.39-.04.6-.58,1.14-.75,1.75-.46,1.63-.84,3.28-1.24,4.92-.02.08.1.2.34.67.31-.75.59-1.24.71-1.77.26-1.14.68-2.17,1.72-2.79.28-.17.69-.12,1.04-.17,0,.34.16.79,0,1.02-1.02,1.43-.95,3.03-.9,4.99.66-1.47,1.19-2.65,1.72-3.82.18.06.35.11.53.17-1.18,1.14-1.1,2.43-.62,3.88,1.41-.63,1.26-1.89,1.31-3.06l.31.02c-.07,1.11-.03,2.24-.23,3.32-.15.79.06,1.12.78,1.23.43.06.86.05,1.29.12.76.13.97-.18,1.12-.92.27-1.38.18-2.9,1.35-4.02.48-.46.29-.89-.37-1.12-2.21-.79-2.57-1.48-2.05-3.77.04-.19.07-.39.1-.58.26-.28.56-.53.77-.84.6-.86,1.09-1.82,1.78-2.6.67-.77.29-1.07-.39-1.17-.34-.05-.97.25-1.06.52-.43,1.34-.73,2.73-1.08,4.11q-1.07.72-1.25,3.39c-.78-.69-1.36-1.27-2.01-1.76-1.09-.82.04-1.54.05-2.2.18.29.33.75.64.99.9.71,1.42.54,1.67-.57.34-1.56.62-3.13.81-4.71.04-.3-.39-.7-.67-.98-.55-.55-1.21-1-1.71-1.59-.34-.41-.92-.95.24-1.33.69-.23.32-.89-.16-1.16-.68-.37-1.42-.61-2.09-.89-.1-.75-.08-1.57-.36-2.26-.16-.39-.77-.71-1.24-.81-.18-.04-.59.58-.76.96-.25.56-.37,1.18-.46,1.49-.48-.32-.95-.72-1.49-1-.77-.39-1.76-.52-1.69-1.89.75.45,1.35.94,2.05,1.2.35.13,1.11-.05,1.22-.3.18-.38.13-1.08-.13-1.4-.46-.56-1.21-.86-1.73-1.38-.87-.87-1.71-1.79-2.44-2.78-.26-.35-.14-.98-.19-1.4,2.08,2.07,4.09,4.07,6.1,6.08l.46-.16c.2-1.03.45-2.06.57-3.11.02-.21-.39-.58-.68-.71-1.11-.51-1.81-1.23-1.51-2.37-1.24-1.57-2.84-1.43-4.49-1.13,0-.12,0-.24,0-.36.5-.08,1.01-.24,1.51-.23,1.42.04,2.87.02,4.26.27.73.13,1.34,1.05,2.06,1.15.67.1,1.43-.41,2.14-.68.28-.1.54-.26.8-.42.3-.18.59-.38.88-.58.07.08.13.16.2.24-.66.79-1.32,1.57-1.96,2.37-.25.3-.58.62-.63.97-.06.38.17.8.27,1.2.31-.19.75-.32.91-.6.53-.91.95-1.89,1.45-2.82.13-.24.41-.4.62-.6-.48,1.48-.93,2.91-1.41,4.33-.22.64-.11,1.08.48,1.5.61.43,1.11,1.03,1.62,1.52.22-2.37.44-4.69.68-7.18-.79-.54-.81-1.2.22-1.93.5-.36.91-.87,1.32-1.34,1.01-1.14.86-1.77-.33-2.81-1.02-.9-1.92-1.95-2.79-3-.13-.16.07-.89.26-.97,1.19-.46,2.41-.83,3.64-1.16.23-.06.59.17.81.36.62.52,1.21,1.1,1.94,1.76-.77-.13-1.4-.23-2.17-.36v2.39c-.8-1.13-1.41-2-2.2-3.12-.28,2.14,1.51,3.83,4.48,4.7-.39.37-.67.86-1.05.95-1.34.32-1.79,1.58-2.68,2.36-.53.46-.39.83.17,1.21,1.86,1.25,3.68,2.56,5.54,3.8.31.2.87.35,1.13.2.27-.15.41-.69.45-1.07.1-.89.07-1.78.15-2.67.06-.65.44-.81.98-.43.34.24.63.54,1.12.96.16-.57.44-1.01.35-1.34-.28-1.05.29-1.78.76-2.58.37-.63.12-2.14-.48-2.47-.25-.14-.78-.01-1.04.18-.45.35-.79.85-1.19,1.3-.5-.57-1-1.15-1.56-1.79.13-.21.24-.63.47-.71,1.32-.47,1.4-1.59,1.59-2.7.08-.44.36-.84.53-1.24.83,1.01,2.49,1.53,1.4,3.41.13,0,.25-.02.38-.02.53-.41,1.05-.82,1.53-1.2.24.32.5.81.62.78.69-.18,1.49-.32,1.97-.77.96-.9,1.73-1.99,2.59-3.01.12.08.24.16.37.24-.16.26-.26.65-.5.77-1.03.55-1.23,1.54-1.56,2.51-.18.52-.5,1.01-.81,1.47-.4.59-.85,1.16-1.29,1.72-.14.18-.31.35-.5.46-1.19.64-1.66,1.73-1.21,3.43.81-.72,1.86-1.21,2.13-1.97.64-1.84,2.23-2.74,3.54-4.01-.14.4-.28.8-.48,1.35.38-.08.64-.13.9-.18-1.83,1.93-3.67,3.86-3.45,7.06,1.12-1.23.58-3.07,1.86-4.02.12.69.21,1.28.31,1.87.77-.22,1.55-.44,2.49-.72,0,0,.18.23.36.46-1.68,1.45-1.63,1.43-.85,3.4.32.81.35,1.73.52,2.6-.18.05-.35.1-.53.15-.32-.7-.62-1.41-.96-2.11-.18-.38-.41-.73-.62-1.09-.29.49-.81.98-.83,1.48-.02.65.36,1.32.55,1.9-.81.26-1.55.49-2.37.75.18-.32.37-.65.55-.98-.08-.1-.16-.21-.24-.31-.39.29-.9.5-1.16.88-.52.75-.84.72-1.68.27-1.49-.8-2.35-1.95-2.96-3.44-.12-.3-.52-.49-.78-.73-.08.05-.17.11-.25.16.69,2.52,1.38,5.05,2.06,7.57-.14.06-.28.11-.42.17-.41-.75-.85-1.49-1.22-2.26-.4-.83-.89-1.32-1.92-1.46-.81-.11-1.57-.73-2.31-1.2-.34-.22-.56-.62-.88-.98-.79.78-.14,1.25.23,1.72.84,1.06.5,1.83-.57,2.66-1.03.8-1.82,1.95-2.6,3.03-1.1,1.52-1.57,3.31-1.7,5.16-.02.27.26.57.39.86.28-.15.63-.25.81-.48.29-.36.39-.9.72-1.2.36-.33.88-.57,1.36-.68,1.13-.25,2.28-.39,3.44-.79-1.4-1.12-3.23-1.4-4.49-2.99,1.79-.29,3.04.14,4,1.21,1.68,1.87,2.22,1.79,3.21-.61.08-.2.17-.4.26-.61.1.04.19.08.29.12-.28.61-.4,1.41-.86,1.8-.95.79-.79,1.4-.1,2.2.62.72,1.16,1.53,1.73,2.3.11-.03.22-.07.33-.1.03-.35.13-.71.08-1.04-.27-1.62-.61-3.24-.86-4.86-.05-.34.17-.73.27-1.1.21.28.54.53.61.84.3,1.38.52,2.78.79,4.16.07.36.19.71.38,1.45.57-.77.88-1.3,1.29-1.72.22-.22.64-.44.91-.38.81.18,1.59.5,2.36.76-.08.03-.3.19-.46.14-1.36-.37-1.86.41-1.84,1.53.03,1.62-.89,2.84-1.48,4.2-.68,1.56.3,2.88.54,4.31.02.11.51.27.55.23.18-.23.37-.51.38-.78.04-1.41.02-2.82.02-4.05.44-.1.83-.07.95-.24.78-1.06,1.5-2.17,2.37-3.44.3.73.48,1.18.75,1.82,1.51-1.96,2.91-3.8,4.32-5.63-.07-.09-.13-.18-.2-.27-1.38.16-2.19,1.32-3.42,2.34.51-1.39,1.33-2.06,2.37-2.42.73-.26,1-.65.88-1.4-.18-1.11.24-1.98,1.32-2.84-.66,1.31-1.44,2.39-.83,3.78,1.04-.91,1.99-1.74,3.08-2.69.33,1.6,1.48.75,2.16.89-.64.5-1.32,1.03-2.12,1.66,2.11,1.01,3.69.57,4.03-.91.07-.31.06-.73-.1-.99-.59-1-1.22-1.98-1.92-2.91-.12-.16-.66-.07-.97.02-.63.19-1.24.46-2.15.8.24-.8.37-1.21.53-1.76-.41.06-.73.19-.98.1-.21-.08-.51-.54-.47-.6.68-.86,1.4-1.67,2.32-2.73.24.82.35,1.21.52,1.8.48-.37.86-.73,1.31-.98.3-.17.69-.18,1.04-.27.06.32.23.68.16.97-.37,1.5.37,2.82.71,4.18.1.39.92.59,1.53.96.03.49.26,1.24-.65,1.69-.11.06.09.76.15,1.17.11.01.22.02.33.04-.3.26-.6.52-.9.78,0,.12-.02.25-.03.37.7.13,1.39.36,2.09.37.65.01,1.31-.26,1.97-.29,1.06-.04,1.75-.49,2.45-1.32,1.34-1.57,3.13-2.42,5.25-2.21.27.03.73.75.65,1.01-.17.57-.65,1.05-.97,1.58-.21.34-.37.72-.61,1.18-1.62-.41-3.1.01-4.43,1.34-.52.52-1.47.61-2.24.87-1.05.35-2.3.22-2.98,1.42-.13.24-.66.22-.93.43-.34.26-.61.63-.9.95.1.13.2.25.31.38.4-.18.8-.35,1.19-.52-.51.94-.79,1.13-1.76,1.1-.8-.02-1.52-.08-1.8-1.11-.16-.57-.69-1.03-1.05-1.54.65.42.79.08.87-.51.07-.49.26-.97.4-1.45.09-.32.33-.72.22-.95-.1-.21-.57-.29-.89-.35-.3-.06-.76.11-.9-.05-.79-.87-1.36-.17-2.22.21.9,1.11,1.73,2.12,2.55,3.12-.4-.31-.82-.59-1.19-.94-.99-.92-1.24-.87-1.61.4-.06.22-.12.44-.21.76-.23-.32-.4-.55-.75-1.02-.59,1.06-1.08,1.95-1.7,3.06,1.51-.3,2.66-.52,3.8-.75-1.01.82-.91,1.9-.74,2.91.16.97.4,1.95.79,2.84.35.8.97.75,1.57.12,1.26-1.32,2.53-2.63,3.81-3.94.39-.4.8-.77,1.34-1.27.62,2.43-.17,4.19-1.49,5.82l.02.02c-.04-.58-.31-.77-.69-.27-.67.88-1.46,1.66-1.47,2.97,0,.97-.51,1.93-.79,2.89-.13,0-.25,0-.38-.01-.26-.53-.52-1.07-.8-1.65-1.77,1.82-3.49,3.59-5.24,5.4.01.01.07.16.15.17,1.14.17,2.27.35,3.42.46,1.8.17,2.43-.92,1.53-2.82-.4.34-.74.7-1.14.97-.37.24-.81.39-1.29.43.82-.74,1.63-1.48,2.46-2.22.61.38,1.38.75,2,1.29.29.26.55,1.03.39,1.26-.77,1.07-1.69,2.03-2.54,3.01-.38-.6-.61-.95-.83-1.29-.35.26-.75.48-1.03.8-.57.63-1.07,1.31-1.75,2.15h1.37c-2.21,1.51-5.2,1.94-5.82,5.21.84-.44,1.68-.87,2.51-1.3-.56.62-1.11,1.24-1.66,1.86.07.1.13.2.2.3.36-.12.85-.13,1.06-.38.92-1.1,2.07-1.71,3.45-2.02.8-.18,1.59-.46,2.32-.81.38-.19.7-.6.93-.98.13-.21.04-.57.05-.86-.29.03-.58.06-.86.09ZM136.1,55.86c0,.42.01.84.02,1.26.25-.05.54-.04.73-.18.14-.1.25-.53.2-.57-.3-.21-.65-.34-.98-.5-.29-.78-.58-1.55-.96-2.55-.9,1.61-.43,2.49.98,2.53ZM93,49.52l.02.02c.89-1.07,1.82-2.1,2.65-3.22.2-.27.2-.86.05-1.2-.37-.82-.86-1.58-1.34-2.34-.33-.52-.73-.58-1.09-.02-.43.67-.84,1.35-1.29,2.08.81.39,1.59.77,2.36,1.14-.02.12-.03.24-.05.36-.47,0-.96.08-1.4-.02-.76-.17-1.19.16-1.28.82-.25,2-1.36,3.64-2.14,5.41-.58,1.32-.33,1.99.9,2.8.62.41,1.09.31,1.52-.26.67-.89,1.38-1.74,1.97-2.67.3-.47.51-1.07.56-1.62.1-1.36-.06-1.46-1.44-1.3ZM107.32,48.11l-.47-.16c-.45.96-.89,1.92-1.35,2.92-.16-.27-.32-.54-.67-1.1-.46.7-.89,1.19-1.12,1.75-.31.76-.41,1.6-.72,2.36-.19.45-.61.81-.92,1.22-.1-.06-.2-.12-.3-.18-.08,1.81-.16,3.61-.25,5.46,2.41-.51,4.84-.64,5.64-3.4.14-.49.26-1.04.19-1.53-.2-1.27-.58-2.5.31-3.69.4-.54.47-1.13-.2-1.65-.2-.16-.24-.6-.25-.92-.02-.36.08-.73.12-1.09ZM84.32,37.58c.15.11.31.22.46.33.73-.84,1.38-1.77,2.2-2.5.85-.76,1.86-1.34,2.85-2.04-.44-.38-.91-.64-1.17-1.05-.34-.53-.79-1.22-.7-1.76.19-1.18-.51-1.65-1.25-2.16-.52-.36-.9-.2-1,.45-.17,1.13-.09,2.17.82,3.04.37.36.56.92.84,1.38-.53-.09-1.05-.18-1.58-.25-.11-.02-.22.03-.48.07.04.48.25,1.29.08,1.38-1.22.66-.28,1.29-.05,1.81-.37.49-.69.9-1,1.31ZM87.38,53.21c2.11-1.13,4.76-6.68,3.69-8.2-.25.59-.42,1.08-.65,1.54-.12.24-.32.45-.52.63-.39.35-1.02.59-1.17,1.02-.58,1.59-1.01,3.23-1.49,4.85,0,.02.05.06.14.16ZM108.81,63.01c0-.15-.01-.31-.02-.46-.82,0-1.64.05-2.45-.02-.62-.05-1.26-.17-1.83-.4-.78-.32-1.55-.08-1.93.75-.42.91-.21,1.19.77,1.15.41-.02.83.07,1.22.19,1.12.37,3.56-.31,4.23-1.21ZM79.82,61.64c-.55,2.47-.51,2.63,1.01,4.11.42-.93,1.29-1.93,1.08-2.6-.31-.99-1.28-1.88-2.16-2.56-.69-.53-1.18-.02-1.24.9.44.05.82.1,1.31.16ZM133.65,52.37c-2.16.68-3.26,1.61-3.54,2.91-.07.32.18,1.02.3,1.02.76.03.85.48.93,1.08.03.17.45.28.69.42.21-.64.77-1.48.55-1.89-.46-.83.11-1.21.33-1.76.2-.51.42-1.01.74-1.79ZM85.63,61.29c.1.04.19.09.29.13.27-.36.54-.71.81-1.07.61-.79.8-2.03,2.32-1.8.33.05.86-.8,1.16-1.32.09-.15-.29-.81-.53-.85-.47-.08-1.16-.09-1.46.2-1.2,1.13-2.45,2.27-2.67,4.06-.03.21.05.44.08.65ZM84.63,60.12c.25-.54.45-.98.65-1.43.28-.64.66-1.27.8-1.94.08-.36-.26-.81-.41-1.22-.35.17-.79.26-1.02.53-.37.44-.63.99-.88,1.52-.72,1.47-.59,1.8.86,2.54ZM124.42,39.58c.03,1.27.27,1.4,1.28.84.27-.15.58-.29.76-.53.39-.49.71-1.04,1.06-1.56-.58-.05-1.17-.14-1.75-.13-.42,0-.9.07-1.24.28-.64.4-1.19.93-1.79,1.41.08.1.15.21.23.31.44-.19.88-.38,1.44-.62ZM96.64,50.61c-.61.87-1.14,1.56-1.6,2.29-.58.92-.15,2.11.88,2.37.19.05.63-.19.69-.38.37-1.29.97-2.58.04-4.28ZM57.38,56.86c.25.9.4,1.63.68,2.32.1.25.58.58.73.51.3-.13.68-.5.69-.79.02-.69-.04-1.43-.29-2.07-.15-.39-.71-.63-1.08-.94-.26.34-.51.67-.73.97ZM142.46,55.23c.18-.13.37-.26.55-.39-.28-.74-.48-1.51-.87-2.19-.14-.25-.72-.25-1.09-.36-.11.41-.46.99-.3,1.21.47.65,1.13,1.16,1.72,1.72ZM136.07,58.1c-.62-.45-1.11-1.04-1.41-.96-.43.12-.92.7-.99,1.15-.06.35.48.8.76,1.2.48-.41.96-.81,1.65-1.4ZM86.38,65.92c0-.11-.02-.23-.03-.34-.5-.23-1.22-.34-1.43-.72-.22-.41.06-1.08.12-1.64-.14-.04-.28-.08-.42-.12-.33.88-.66,1.76-.98,2.65-.02.05.15.23.23.23.83,0,1.67-.04,2.5-.06ZM128.8,50.27c-.75,0-1.33-.15-1.77.04-.48.2-.49,2.06-.08,2.61.55-.79,1.09-1.56,1.85-2.65ZM133.84,60.36c-.17-.15-.34-.3-.52-.45-.8.94-1.61,1.87-2.39,2.82-.05.06.02.35.11.39.15.07.45.11.52.03.78-.92,1.53-1.86,2.28-2.79ZM96.53,60.2c-.62.49-1.18.87-1.65,1.34-.13.13-.09.65.06.77.21.18.74.33.86.21.62-.59,1.02-1.3.73-2.33ZM85.98,51.69c.87-.11,1.6-.82,1.52-1.55-.02-.22-.4-.41-.62-.61-.34.54-.69,1.07-.99,1.63-.07.13.05.35.09.53ZM78.76,36.57c1.4-.96,1.42-1.67.15-3.01-.06,1.16-.1,2.09-.15,3.01ZM97.86,28.79c.29-.76.57-1.52.92-2.43-1.29.2-1.53.79-.92,2.43ZM80.96,32.56c-.36-.29-.63-.66-.82-.62-.3.06-.81.46-.78.58.12.39.44.72.68,1.08.26-.3.52-.6.91-1.04ZM139.02,54.43c-.11-.11-.21-.21-.32-.32-.47.47-.96.93-1.4,1.43-.04.04.2.33.3.51.47-.43.95-.85,1.4-1.29.06-.05,0-.22,0-.33ZM93.85,58.62c.22.05.43.11.65.16.14-.53.29-1.07.43-1.6-.23-.06-.66-.17-.66-.16-.16.53-.29,1.06-.42,1.6ZM108.64,54.12c.19.12.37.23.56.35.2-.39.45-.76.55-1.17.03-.13-.38-.36-.59-.54-.17.46-.35.92-.52,1.37ZM104.68,60.42c-.09-.11-.18-.23-.27-.34-.49.41-.99.81-1.48,1.22,1.18.5,1.43-.24,1.75-.87ZM92.67,65.95c.23.09.46.19.69.28.17-.53.33-1.05.5-1.58-.17-.04-.46-.16-.48-.12-.26.46-.48.94-.71,1.42Z"/>
      <path class="cls-1" d="M137.21,135.5c-1.48-.73-1.54-.68-1.51,1.06,0,.35-.11.8-.34,1.05-1.29,1.37-1.4,3-.01,4.23.73.64,1.35,1.21,1.43,2.22.02.25.23.49.36.73.36.62.82,1.08,1.62.81.81-.27.47-.91.48-1.48.01-.82.14-1.65.4-2.46.67,2.02,1.45,4,.35,6.22-.51-.74.09-2.17-1.37-1.98-.32.04-.88.6-.83.72.22.52.61.96.94,1.43.14-.05.29-.09.43-.14-.09.48-.22.95-.28,1.43-.13,1.06-.22,2.13-.32,3.2-.01.15.1.39.04.44-.95.81-.01,1.37.36,2.13-1.43-.46-1.93-1.49-2.15-2.78-1.38.54-1.94,2.15-3.25,2.18.2-1.61.4-3.16.59-4.7.39.37.77.74,1.13,1.08,1.68-1.03,2.39-2.58,1.74-4.22-.23-.56-1.06-.88-1.62-1.31-.29.41-.73.79-.83,1.24-.22,1.06-.28,2.15-.4,3.23-.25-.29-.49-.57-.94-1.09-.57,1.33-1.05,2.45-1.56,3.62-.33-.54-.65-1.07-1.11-1.82v-1.63c-.09-.05-.18-.1-.27-.16-.56.66-1.15,1.29-1.68,1.97-1.07,1.37-2.1,2.76-3.18,4.19-.44-1.16-.08-2.17.55-3.16.63-1,.58-3.72-.23-4.58-.42.74-.77,1.46-1.21,2.12-.38.56-.88,1.04-1.33,1.56-.23.26-.55.51-.64.82-.77,2.74-2.96,4.47-4.77,6.46.74-.99,1.48-1.99,2.23-2.97.24-.31.49-.61.78-.88,1.36-1.28.55-2.84.5-4.27-.03-.96-.27-1.92-.22-2.97.41.75.81,1.5,1.27,2.33.71-.64,1.11-1.12.14-1.79-.59-.41-1.08-.99-1.69-1.57-1.43,1.81-3.3,3.39-1.47,6.06-.15.03-.29.06-.44.09-.44-.57-.87-1.15-1.39-1.82-.38.36-.75.71-1.12,1.07l-.33-.1c.14-.59.26-1.18.43-1.76.22-.75.54-1.47.72-2.23.34-1.42-.32-2.08-1.78-1.67.42-.83.81-1.58,1.16-2.35.17-.39.36-.82.35-1.22-.02-.53-.32-1.05-.33-1.58,0-.52.2-1.04.32-1.56-.09-.05-.17-.09-.26-.14-.9,1.17-1.8,2.35-2.77,3.62,1.25.53.93,1.4.5,2.2-.74,1.4-.01,2.54.62,3.66.46.82.62,3.88-.03,4.51-.26.25-.87.14-1.21.18-.45.38-.88.74-1.31,1.1-.33-.58-.7-1.15-.98-1.75-.13-.27-.17-.64-.1-.92.24-.89-.08-1.35-1.05-1.4.84-1.99,1.71-3.88,2.43-5.81.31-.83.77-1.78,0-2.66-.71.54-1.55.98-2.09,1.66-.59.74-.9,1.71-1.36,2.57-.12.22-.4.35-.55.55-.14.19-.35.56-.28.65,1.02,1.25.31,2.66.36,3.98.03.81-.33,1.63-.52,2.45l-.34.02c-.11-.49-.3-.98-.33-1.48-.1-1.95.11-3.97-.3-5.85-.31-1.44.28-2.31.88-3.34.1-.17.2-.37.19-.55-.13-1.6.65-2.85,1.49-4.11.32-.48.65-1.52.45-1.7-.74-.63-1.34.07-1.87.59-1.04,1.01-1.25,1.67-.91,2.34-1,1.84-2.99,3.13-2.23,5.64l-.34.04c-.37-1.15-.74-2.29-1.13-3.48-1.27-.14-1.94.7-2.51,1.59-.13.19-.04.65.11.86.13.18.51.2.78.23.21.02.42-.06.63-.1.32,1.31-2.14.79-1.34,2.22-.97.31-1.88.6-2.84.9-.39-.73,1.14-1.52-.02-2.14-.23-.13-.71.2-1.15.34.25-.45.56-.89.74-1.38.08-.23-.1-.56-.17-.84-.27.09-.59.12-.78.28-.23.19-.31.55-.52.77-.54.57-1.13,1.11-1.69,1.67-.25.25-.48.53-.85.95.56.08.87.13,1.14.17-.63.85-1.25,1.7-1.93,2.63-.65-.95.38-1.56.46-2.39-1-.28-1.9-1.15-2.94,0-.23.25-.83.16-1,.18-.32-.91-.37-1.78-.83-2.2-.52-.47-1.32-1.02-2.06-.59.27.83.52,1.57.8,2.43.14,0,.47-.02.93-.04-.61,1.62-1.2,3.17-1.79,4.73-.05-.06-.09-.11-.14-.17-.44.34-.88.69-1.33,1.02-.3.21-.63.38-.94.57-.07-.38-.26-.8-.18-1.15.16-.68.43-1.34.73-1.98.78-1.67.8-1.66-1.21-2.46-.07.35-.17.67-.2,1-.25,3.29-.42,6.58-.75,9.86-.3,2.9.34,5.69.67,8.52.83,7.25,1.6,14.51,2.39,21.76.33,3,.67,6,.97,9.01.16,1.59.31,3.19.33,4.79,0,1.04-.25,2.07-.36,3.11-.02.2.08.42.18.89.31-.6.49-.96.68-1.33-.08,0-.15,0-.23,0-.47,12.12-.93,24.24-1.4,36.35.04,0,.08.01.11.02,0-.62.02-1.24,0-1.86-.03-.6-.11-1.2-.41-1.78-.04.89-.08,1.77-.12,2.77-.14-.42-.25-.76-.36-1.09-.09,0-.19,0-.28,0-.14.53-.27,1.05-.41,1.58-.02,0-.05,0-.07,0,.03-.62.01-1.25.11-1.86.4-2.59.84-5.17,1.26-7.75.06-.39.09-.78.1-1.17.06-4.67.16-9.34.13-14.01-.02-2.58-.28-5.16-.44-7.75-.2-3.3-.37-6.6-.64-9.9-.52-6.45-1.09-12.9-1.67-19.34-.06-.68-.28-1.35-.43-2.03-.13.01-.26.03-.39.04.17,2.49.34,4.99.51,7.48-.07.01-.15.03-.22.04-.28-1.45-.6-2.9-.83-4.36-1.29-8.22-1.39-16.49-.91-24.78.14-2.51.23-5.02.35-7.53.03-.61-.02-1.22.81-1.52.21-.08.3-1.05.13-1.47-.31-.74-.86-1.37-1.47-1.95.25-.84,2.29-.7,1.98-2.57-.9.16-1.83.27-2.71.53-.21.06-.34.66-.37,1.02-.14,1.32-.23,2.64-.38,3.96-.28-1.65.29-3.35-.2-5.11-.86.82-1.39,6.18-.78,7.51.27-.39.49-.71.9-1.3-.1.84-.16,1.39-.24,1.94-.33,2.19-.57,4.37-1.54,6.45-.52,1.12-.46,2.53-.61,3.81-.27,2.33-.51,4.66-.89,6.98-.1-4.46.78-8.83,1.19-13.25-1.16,4.09-1.34,8.34-2.3,12.51,0-1.34-.19-2.72.03-4.02.88-5.1,1.91-10.17,2.83-15.27.28-1.54.37-3.11.5-4.67.03-.33-.11-.68-.24-1-.31-.77.1-1.92.86-2.33.16-.09.44-.2.45-.31.07-1.15.26-2.33.06-3.44-.1-.55-.91-.98-1.4-1.46-.14.09-.28.17-.42.26.28.68.55,1.36.83,2.04-.06.04-.11.08-.17.12-.59-.84-1.21-1.66-1.76-2.53-1.08-1.72-2.46-3.1-4.14-4.26-2.79-1.92-5.21-4.26-7.3-6.95-.31-.4-.9-.58-1.37-.86-.16.48-.4.96-.45,1.45-.08.91.12,1.91-.96,2.43-1.02-1.6-.77-3.22.7-4.15.78-.49.59-.96.1-1.4-1.55-1.37-3.11-2.75-4.74-4.03-1.37-1.07-2.93-1.89-3.63-3.67-.21-.54-.95-.86-1.45-1.29.12-.13.23-.25.35-.38,1.33,1.12,2.69,2.2,3.97,3.37.95.86,1.83,1.82,2.71,2.76,1.93,2.05,3.78,4.18,5.79,6.15,2.2,2.16,4.52,4.2,6.83,6.26.72.64,1.54,1.16,2.4,1.81.13-.4.23-.7.38-1.16.52.98.96,1.82,1.4,2.65.09-.03.18-.07.26-.1-.05-.52-.1-1.04-.17-1.84.4.68.66,1.12.93,1.58,1.09-.7-.5-2.65,1.55-2.75.16.42.33.83.51,1.28.95-1.12.8-1.99-.41-2.45-2.42-.92-4.9-1.73-6.7-3.76-.15-.17-.31-.34-.33-.68.43.34.89.65,1.28,1.04,1.63,1.6,3.72,2.28,5.8,2.98.69.23.88-.02.93-.71.29-3.63.61-7.26.95-10.89.14-1.52.38-1.58,1.7-.91.82.42,1.73.65,2.62,1.13-.8-.16-1.67-.17-2.39-.51-.92-.43-1.32-.26-1.42.7-.27,2.61-.56,5.22-.8,7.84-.38,4.16-.71,8.32-1.11,12.48-.12,1.25-.12,1.32,1.1,1.18,1.95-.23,2.02-.23,2.18-2.22.28-3.55.46-7.1.7-10.65.08-1.24.2-2.48.17-3.69.23,2.78.5,5.55.68,8.33.06.93-.14,1.8-.55,2.74-.63,1.47-.79,3.2-.87,4.83-.05,1.05,1.01,1.01,1.77.92,1.6-.18,3.19-.44,4.88-.68-.78.74-1.56,1.49-2.35,2.24.06.09.12.18.18.26h2.24c-.97,1.45-.39,2.58.51,3.93.23-.5.57-.91.48-1.13-.45-1.09.4-1.51.98-1.97.77-.61,1.66-1.07,2.5-1.59.11.11.21.21.32.32-.18.39-.36.77-.55,1.16-.07.14-.21.26-.23.41-.12.76-.34,1.55-.25,2.29.03.29,2.16-.8,2.47-1.47.05-.11.09-.21.16-.37,1.35.52,1.5-1.95,3.07-1.19-.43.78-.91,1.49-1.22,2.27-.15.36.02.85.05,1.29.36-.16.75-.28,1.09-.49.29-.19.52-.48.77-.73,1.34-1.36,1.33-1.36.46-3.02-.27-.51-.45-1.07-.65-1.55-2.11-.59-2.32,2.38-4.34,2.03.89-1.49,1.77-2.95,2.69-4.49.68.58,1.25.29,1.95-.34.33-.29,1.17,0,1.84.04-.61,1.74.94,1.36,1.5,1.99.61-1.66.52-1.95-.71-2.18,1.55-.96,3.01-1.87,4.63-2.88-1.34-.35-2.4-.63-3.45-.9.98-2.31,1.85-4.37,2.73-6.43-.1-.08-.21-.16-.31-.24.92-.3,1.85-.59,2.77-.89,0,0-.02-.02-.02-.02-.69.62-1.4,1.22-2.04,1.89-.17.18-.24.8-.18.82,1.16.52.82,1.68,1.15,2.54.04.09.16.15.34.31.81-1,1.44-2.01,1.48-3.34.01-.36.12-.75.31-1.06.74-1.21,1.51-2.39,2.3-3.56.33-.48.74-.9,1.12-1.35-.07-.13-.15-.25-.22-.38,1.01.13,2.02.25,2.82.35.1.36.09.8.3,1,.61.57,1.36.98,1.96,1.55.58.55,1.15,1.17,1.53,1.86.68,1.22,1.65,1.9,2.47,1.32.54-.38.79-1.17,1.17-1.77-.59-.35-1.18-.71-1.77-1.07.83-1.51.55-1.95-2.85-4.23.74.25,1.5.43,2.2.76.92.43,1.48.38,1.58-.79.03-.37.23-.73.28-.87.26,1.06.56,2.25.86,3.44-1-.19-.98.59-.95,1.16,0,.27.43.66.74.75.98.31.93-.58,1.25-1.1-.4-.31-.73-.57-1.06-.83.46.09.92.25,1.38.25.43,0,.94-.04,1.24-.28.14-.11-.04-.76-.2-1.11-.26-.59-.61-1.15-.93-1.72.09-.06.18-.12.27-.18.28.44.57.88.96,1.48.42-.66.78-1.22,1.22-1.91.29,1.03-.82,2.22.67,2.77-.14.42-.27.8-.46,1.35.57-.13,1-.23,1.54-.35-.84,1.11-1.6,2.12-2.37,3.13.09.14.18.28.28.42,2.15-2.23,4.47-3.5,7.33-1.51-1.08.04-2.16.06-3.23.14-.23.02-.65.32-.63.42.24,1.35-.89,1.1-1.56,1.4-.32.14-.61.36-.91.54.04.1.07.2.11.3.82.21,1.63.41,2.59.65-1.93,1.82-3.68,3.47-5.43,5.12-.36.03-.82.12-.92.36-.67,1.56-2.1,2.88-1.51,4.85.09.3-.22.72-.34,1.09,0-.66,0-1.33,0-2-.17-.06-.34-.12-.52-.18-.81,1.1-1.66,2.17-2.4,3.32-.16.24-.01.79.17,1.1.18.31.58.5.89.75.11-.39.41-.84.31-1.16-.23-.75,0-1.09.68-1.33.32-.12.61-.34.91-.51.22.45.43.9.65,1.35.61-.38,1.27-.71,1.8-1.19.15-.14-.03-.75-.19-1.09-.27-.59-.63-1.13-.98-1.73.44-.32.78-.56,1.19-.85.17.32.25.58.42.77.41.45.99,1.31,1.29,1.22.95-.26.32-1.06.24-1.66-.05-.43-.23-.9-.11-1.27.19-.57.48-1.24.93-1.58,1.36-1.02,2.82-1.93,4.27-2.82.55-.34,1.17-.65,1.8-.73,1.08-.15,1.24-.84,1.37-1.86-1,.18-1.87.34-2.74.5.41-.38.91-.55,1.26-.87.73-.66,1.71-1.28,1-2.53.19.14.37.29.56.42,1.49,1.03,1.62,1.61.73,3.2-.13.23-.21.48-.39.92,1.26-.48,2.36-.9,3.45-1.32.07.11.13.21.2.32-.1.21-.32.46-.27.63.45,1.5-.58,2.32-1.42,3.22-.44.47-.86.91.02,1.39-2.05.36-2.74,1.61-1.74,3.03l.02-.02ZM115.72,134.94c.12.06.24.11.36.17.2-.16.48-.27.59-.48.57-1.1,1.12-2.21,1.62-3.34.33-.75.64-1.46,1.64-1.55-.17,1.3-.15,2.56-.53,3.67-.41,1.18-1.2,2.24-1.84,3.38.73-.26,1.36-.45,1.94-.72.34-.16.72-.4.88-.72.91-1.77,1.24-3.58.37-5.52-.39-.88-.86-1.87-.78-2.77.1-1.16-.1-1.79-1.22-2.19-.36-.13-.59-.69-.84-1.07-.2-.29-.34-.62-.51-.94-.14.05-.27.1-.41.15.45,1.56.89,3.13,1.4,4.91-.69-.17-.99-.25-1.27-.32-.38.89-.72,1.69-1.08,2.53-1.4-.79-1.79-1.99-2.09-3.28-.15-.65-.52-1.25-.82-1.95-2.76,2.58-3.78,5.74-5.09,8.77,1.36-.52,2.8-.84,3.23-2.45.07-.25.22-.57.43-.68.43-.23.92-.34,1.39-.5.11.43.28.85.32,1.28.04.39-.07.79-.11,1.18,1.22-.35,2.28-.65,3.49-1-.43,1.38-.74,2.4-1.06,3.42ZM123.45,141.67c-2.22,1.32-2.37,4.3-.43,5.58.22.14.9-.05,1.09-.3.62-.8,1.1-1.7,1.64-2.56,1.03-1.62.89-1.94-.98-2.44-.63-.17-.89.04-.94.63-.04.55-.06,1.1-.08,1.64-.1,0-.2,0-.3-.01v-2.54ZM127.96,145.14c.17.05.33.1.5.15-.28,1.68-.57,3.35-.85,5.03.72-.73,1.52-1.56,1.65-2.49.24-1.63.78-3.33,0-4.97-.18-.37-.4-.73-.6-1.09-.44.37-1.03.66-1.28,1.14-.36.67-.5,1.47-.68,2.23-.1.41-.08.85-.11,1.28.09.03.18.06.28.09.37-.46.74-.91,1.11-1.37ZM134.2,132.41c.96.34,2.89-1.19,3.04-2.88-.49.17-.92.31-1.33.48-.47.19-.91.58-1.37.6-1.33.04-2.09.96-2.86,1.78-.37.39-.37,1.14-.53,1.72.13.08.26.16.4.24.84-.61,1.69-1.23,2.66-1.94ZM117.86,146.32c.33-.43.58-.71.77-1.03.65-1.11,1.37-2.2,1.88-3.38.21-.49-.02-1.17-.05-1.76-.41.22-.83.44-1.24.68-.13.08-.24.2-.37.29-1.26.95-1.84,3.46-1,5.2ZM130.71,145.51c2.06-1.69,2.15-3.06.43-4.64-.24-.22-.67-.22-1.02-.32-.06.31-.13.63-.17.94-.03.22.03.46-.04.67-.4,1.26.27,2.21.79,3.35ZM132.08,148.64c.09.05.19.09.28.14.15-.09.38-.15.45-.29.52-1.01.99-2.06,1.51-3.07.37-.72-.06-.89-.59-1.19-.64-.36-.83-.06-1.19.39-1.04,1.3.08,2.71-.46,4.02ZM114.03,123.47c-.16.66-.5,1.24-.36,1.65.41,1.24,1.01,2.41,1.53,3.61.09.21.17.42.33.83.71-1.75-.08-4.67-1.5-6.1ZM104.94,138.33c1.64-1.19,2.6-3.46,2.08-4.89-1.36.53-2.48,3.15-2.08,4.89ZM110.63,141.91c1.66-.58,2.76-3.07,2.25-4.97-1.41,1.4-1.91,3.08-2.25,4.97ZM129.84,139.83c1.16-1.71,2.27-3.33,3.37-4.95-2.01.58-4.06,3.66-3.37,4.95ZM134.16,140.67c-.5-.75-.91-1.37-1.33-1.99-.55.44-1.1.89-1.66,1.33.66.52,1.3,1.07,2.01,1.5.1.06.56-.48.97-.85ZM85.79,141.8c-.87.36-1.52.62-2.16.88.61.33,1.19.76,1.84.96.62.19,1.38.04,1.37-.79,0-.34-.64-.67-1.05-1.05ZM120.17,126.65c.21.83.42,1.65.68,2.65,1.26-1.21,1.11-1.82-.68-2.65ZM93.53,141.36c-.26,0-.44-.05-.48,0-.25.35-.61.7-.66,1.09-.04.26.35.59.55.89.2-.41.42-.81.57-1.23.07-.2.01-.44.01-.75ZM122.39,132.73c-.28.85-.47,1.44-.74,2.26,1.55-.74,1.66-1.04.74-2.26ZM90.5,144.42c-.13-.65-.27-1.29-.45-2.2-.78,1.21-.72,1.62.45,2.2Z"/>
      <path class="cls-1" d="M82.84,277.97c.54,1.59,1.09,3.17,1.63,4.76.11,0,.23.02.34.03.3-.78.54-1.6.92-2.34.42-.81,1.01-1.54,1.47-2.33.21-.37.48-.85.41-1.23-1.16-6.18-.45-12.33.03-18.52.35-4.49.2-9.02.21-13.53.02-6.9-.02-13.8-.03-20.71,0-1.56,0-3.12.18-4.69.09,3.45.19,6.89.26,10.34.16,7.02.39,14.04.44,21.05.03,4.15-.35,8.31-.35,12.46,0,2.82.64,5.55,1.81,8.17.89,2,1.41,4.16,2.12,6.24.14.41.36.79.55,1.19.11,0,.21-.01.32-.02.14-.37.27-.74.53-1.45.16,1.09.28,1.87.39,2.66.16,1.24.22,1.27,1.35.72.2-.1.43-.15.91-.31-.71,2.36-1.36,4.52-2.01,6.67-.09.01-.17.02-.26.04-.12-.7-.17-1.43-.37-2.11-.37-1.3-.78-2.59-1.24-3.85-.64-1.76-1.45-3.47-1.99-5.26-.61-2.03-.99-4.12-1.49-6.18-.13-.56-.35-1.09-.73-1.61-.14,6.31.99,12.54,1.2,18.82-.14.02-.29.03-.43.05-.45-2.35-.9-4.71-1.35-7.06-.15,0-.3,0-.45,0-1.48,1.67-.92,4.65-3.58,5.84-.1-.57-.14-.98-.24-1.37-.25-.98-.44-1.99-.81-2.92-.15-.39-.68-.77-1.1-.85-.22-.04-.67.55-.82.93-.44,1.07-1.02,1.92-2.46,2.17,0-.49.05-.9-.01-1.3-.11-.73-.14-1.51-.46-2.15-.22-.46-.81-.85-1.31-1.01-.18-.06-.67.62-.9,1.03-.46.81-.78,1.74-2.16,1.87.02-2.59-1.11-4.19-4.03-3.97.17-.15.22-.24.27-.23,1.85.03,2.22-1.24,2.73-2.71,3.07-8.8,3.96-17.88,3.67-27.13-.01-.39-.12-.79-.19-1.18-.12,0-.25,0-.37,0-.37,2.88-.75,5.75-1.12,8.63-.08,0-.16-.02-.25-.03.22-2.32.48-4.65.66-6.97.31-3.99.69-7.97.85-11.96.31-7.68.68-15.37.67-23.06,0-7.92-.42-15.84-.65-23.75-1.18-2.42-.63-5.02-.71-7.55-.08-2.67,0-5.34.05-8.01.04-1.77-.42-3.16-1.85-4.44-1.76-1.58-3.14-3.58-4.72-5.37-.26-.3-.73-.42-1.14-.64-.53-1.57-1.12-3.3-1.7-5.02l.08-.04c.57,1.1.99,2.31,1.73,3.27,1.88,2.44,3.91,4.78,5.89,7.15.52.62,1.1,1.1,2.05,0,.07,1.54.1,2.74.19,3.93.25,3.25.54,6.49.8,9.74.39,4.89.82,9.77,1.13,14.66.34,5.44.74,10.89.79,16.34.06,6.35-.25,12.7-.38,19.06-.06,3.2-.08,6.39-.12,9.59,0,.18.08.36.2.86.36-1.19.64-2.09.91-3,.13.02.25.05.38.07v4.53s-.07,0-.11,0v-2.42c-.14,0-.28,0-.42-.01v5.7c-.15,0-.3,0-.46,0v-3.45c-.12,0-.25-.01-.37-.02-.12,1.03-.25,2.05-.36,3.08-.65,6.16-1.21,12.33-1.96,18.47-.43,3.52-1.39,6.93-3.15,10.05-.64,1.13.04,1.74.67,2.43.38.42.79.82,1.3,1.35.12-.27.38-.64.45-1.04.17-.92.29-1.86.36-2.8.13-1.77.81-3.28,1.79-4.75.72-1.07,1.28-2.31,1.66-3.54.56-1.81.9-3.69,1.39-5.53,0,4.94-1.19,9.64-3,14.25.07-1.13.14-2.27.2-3.4-.07-.01-.14-.03-.21-.04-.24,1.25-.47,2.49-.71,3.74-.06,0-.11,0-.17,0-.06-.5-.11-.99-.17-1.49l-.27-.02c-.18,1.1-.36,2.21-.59,3.62,2.49-1.22,3.22.44,3.92,2.19.76-.62,1.3-1.12,1.89-1.54.38-.27.89-.34,1.26-.62.4-.31.7-.75,1.05-1.14l-.35-.06Z"/>
      <path class="cls-1" d="M43.85,107.08c-.22-.63-.35-1.03-.5-1.44-1.56,0-1.95,2.75-3.84,1.67.4-.98.98-1.85,1.05-2.77.05-.65-.59-1.36-.92-2.04-.15-.05-.29-.09-.44-.14-.12.24-.23.5-.37.73-.72,1.22-1.34,2.51-2.44,3.46-.66.57-1.35,1.09-1.99,1.68-.69.63-.66,1.13.25,1.62.32.17.67.88.56,1.19-.49,1.39-.57,2.97-2.04,3.93-.62.4-1.11,1.25-1.32,1.99-.5,1.76-1.79,2.7-3.2,3.58-.45.28-.93.5-1.54.83-.12-.43-.26-.92-.42-1.49h-1c.06-.18.06-.31.12-.38.95-1.09,1.92-2.16,2.84-3.27.24-.29.46-.73.42-1.06-.08-.59-.37-1.15-.58-1.73-.45.29-1.07.49-1.33.9-.64,1.02-1.13,2.14-1.68,3.22-.1.2-.31.58-.32.57-1.27-.59-2.28.82-3.49.42-.26-.08-.65-.45-.62-.64.22-1.6.57-3.17,2.26-4.29-.32.57-.55.96-.82,1.45.76-.12,1.39-.22,2.02-.31.12.03.25.06.37.09-.05-.76,0-1.55-.17-2.29-.23-1.09.56-3.07,1.6-3.5.38-.16.86-.09,1.3-.12.09.11.18.23.27.34-.72,1.13-1.45,2.26-2.14,3.4-.2.33-.3.73-.45,1.1.38-.09.76-.16,1.13-.28,1.08-.34,1.63-1.04,1.73-2.22.05-.58.42-1.18.76-1.69.61-.93,1.05-1.75.42-2.95-.4-.76.73-2,1.87-2.15,1.27-.17,2.05-.74,2.38-2.01.09-.33.56-.62.92-.82.47-.26.99-.5,1.51-.59.41-.07.91.02,1.28.2.37.19.85.88.9.84.54-.41,1.13-.85,1.47-1.41.63-1.06,1.1-2.22,1.65-3.33.09-.17.2-.47.32-.47,1.56-.1,1.94-1.64,2.94-2.48.37.24.69.45.94.62,1.89-1.1,1.95-3.01,2.1-4.78.07-.83-.81-.66-1.35-.47-.57.2-1.09.54-1.77.89.08-.53.13-.85.18-1.17l-.22-.24c-.45.34-1.05.59-1.32,1.04-1.31,2.16-1.96,2.53-4.41,2.22.1-.28.2-.55.35-.97-.93.14-1.72.26-2.51.37-.02-.06-.04-.12-.06-.18,1.08-.51,2.17-1.01,3.33-1.56-.63-.59-1.09-1.02-1.5-1.4-.72.36-1.49.97-2.33,1.09-.84.11-1.96.04-2.05-1.3-1.18.17-1.29.46-.58,1.43-1.53.33-3.05.67-4.85,1.06.58-.55.96-.91,1.33-1.26-.31-.52-.6-.99-.99-1.64-1.79.35-3.46,1.15-5.09,2.47,1.81.54,3.38,1.01,4.95,1.48-.02.09-.05.19-.07.28-2.73-.36-5.48-.77-7.7,1.91-.05-.51-.14-.74-.08-.91,1.74-4.87,6.97-8.49,12.14-8.28,1.18.05,2.33.68,3.52.81,1.2.13,2.45.04,3.66-.1.24-.03.4-.71.38-1.27,1.7-.87,3.41-1.75,5.12-2.61.77-.39,1.33-.13,1.8.66-.77.32-1.47.62-2.17.92.03.16.05.32.08.48h3.68c.03.09.07.19.1.28-.76.63-1.55,1.22-.59,2.25.12.12-.19.72-.38,1.04-.29.49-.66.94-1.03,1.47,1.1.06,1.52-.28,3.71-2.88.32.3.64.6,1.12,1.05-.88,1.5-1.81,3.05-2.72,4.61-.28.47-.49.99-.81,1.43-.24.32-.63.52-.91.82-.27.29-.61.6-.7.95-.24.94-.37,1.92-.54,2.88-.38.05-.78.11-1.25.18-.04-.19-.14-.57-.23-.95-2.12.79-3.07,1.76-1.87,4.14.6-.52,1.15-1.02,1.73-1.47.27-.21.61-.34.93-.5.12.36.34.72.36,1.08.04.73-.11,1.48-.03,2.21.16,1.44-.26,2.72-.96,3.91-.17.29-.67.39-1.09.61ZM43.23,86.92c.09.07.18.14.27.21.75.07,1.71.45,2.19.13.77-.52,1.23-1.51,1.82-2.3-.19-.11-.38-.29-.58-.31-1.89-.13-3.76-.02-5.4,1.07-.21.14-.26.53-.39.8.3.08.62.26.89.21.8-.18,1.58-.45,2.36-.69.03.03.06.07.08.1-.41.26-.82.52-1.24.78ZM31.5,108.9c.59-.54.97-.78,1.21-1.13.26-.36.42-.81.55-1.24.08-.26.02-.56.03-.84-.32,0-.75-.14-.93.01-.57.52-1.14,1.09-1.51,1.76-.13.23.34.78.65,1.44ZM31.95,111.4c-1.25.58-1.41,1.48-.52,2.57,1.08-.67,1.18-1.1.52-2.57ZM29.43,115.13c.18.03.37.07.55.1.2-.7.46-1.38.57-2.09.04-.23-.3-.53-.47-.79-.22.25-.59.47-.62.74-.09.67-.03,1.36-.03,2.04ZM35.43,104.63c-.25-.05-.51-.09-.76-.14-.12.52-.24,1.03-.36,1.55.32,0,.87.07.91-.04.16-.42.15-.91.21-1.37ZM32.73,110.04c-.04-.19-.08-.38-.12-.57-.52.14-1.04.27-1.55.42-.01,0,.07.39.08.39.53-.07,1.06-.16,1.59-.25Z"/>
      <path class="cls-1" d="M103.71,89.87c-.06.71-.12,1.29-.17,1.87.61,0,1.24.09,1.81-.07.18-.05.19-.75.3-1.3.69-1.01,1.88-1.38,3.22-1.57.45-.06.85-.49,1.26-.77.63-.42,1.24-.85,1.93-1.18-1.44,2-3.68,2.83-6.05,3.99,1.75,0,3.15,0,4.54,0,.62,0,1.25,0,1.87.06,2,.18,3.72-.1,4.82-2.12.55-1.01,1.71-1.34,2.86-1.27,1.91.12,3.82.29,5.73.44.16.01.32.02.46.08.99.36,2.29.34,2.44,1.8.08.8-1.63,2.4-2.68,2.57-.96.16-1.92.29-2.88.45-.04,0-.07.13-.18.35,1.67,1.13,3.35,1.09,5.14,0-.27,1.02-.54,1.22-1.45,1.31-.63.06-1.26.15-1.9.22-.03.16-.06.32-.09.48,1.82.69,3.65,1.37,5.83,2.19-.61.37-.95.74-1.31.77-2.93.17-5.65-.44-8.08-2.22-.68-.5-1.59-.71-2.42-.96-1.26-.37-2.55-.69-3.83-.96-.69-.15-1.41-.17-2.3-.27.3,1.07.84,1.41,1.61,1.31.76-.09.99.25,1.17.94.2.78.58,1.54,1.01,2.22.41.64.89.69,1.3-.13.16-.33.58-.54.88-.8.19.39.54.78.53,1.17-.02.6-.17,1.26-.47,1.76-.23.37-.8.53-1.22.79-.13-.37-.23-.75-.39-1.1-.14-.31-.32-.6-.53-.87-.72-.91-1.44-1.83-2.2-2.7-.54-.62-1.16-1.16-1.53-1.52-1.01,1-1.8,1.76-2.57,2.55-.15.15-.24.4-.28.61-.24,1.27-1.27,1.6-2.28,2.24.38-1.39.71-2.56,1.04-3.74.1.08.43.35.76.62.85-.88,1.02-3.13.32-4-.58-.73-1.38-.66-1.76.19-.25.57-.37,1.19-.58,1.92-.25-.24-.5-.41-.66-.64-.78-1.15-.99-1.17-1.87-.11-.24.3-.46.62-.7.94-.91-1.08-2.03-1.35-3.33-.8-1,.43-2.02.83-2.99,1.32-.97.48-1.89,1.04-2.83,1.57-.1-.1-.19-.2-.29-.29.55-.72,1.09-1.45,1.64-2.17-.05-.05-.1-.1-.15-.14-.74.53-1.43,1.17-2.24,1.54-.51.23-1.37.28-1.79,0-.95-.66-1.31-.2-1.53.57-.48,1.69-.84,3.41-1.32,5.1-.16.57-.2,1.24-1.08,1.45-.33.08-.49.88-.93,1.36-.02-.28-.11-.59-.03-.84.61-1.93,1.31-3.84,1.86-5.79.28-.98.29-2.02.47-3.03.12-.67.32-1.27,1.16-1.42.23-.04.38-.5.7-.95h-1.05c-.04-.1-.11-.18-.09-.24.62-2.72,1.24-5.45,1.87-8.17.12.03.23.05.35.08-.61,2.52-1.22,5.04-1.83,7.55.12.08.24.15.36.23.79-.36,1.58-.73,2.14-.99,1.09.62,1.97,1.46,2.94,1.56.67.07,1.45-.86,2.18-1.34-.16-.2-.29-.45-.49-.57-.32-.19-.7-.28-1.05-.42.05-.12.11-.25.16-.37.96.47,1.97.87,2.88,1.44,1.08.67,1.16.71,1.68-.47.43-.97,1.11-1.46,2.2-1.29ZM127.79,88.89c-1.47-.7-2.96-.56-4.46-.38-.35.04-.78.09-1.06-.06-1.46-.82-4.19-.17-5.03,1.25-.48.82-.14,1.61.82,1.7,1.11.1,2.19-.03,2.81-1.04.6.06,1.12.11,1.66.16-.03.15-.07.36-.12.59,2.05-.05,4.58-1.06,5.38-2.21ZM121.66,93.77c-.8-2.48-1.53-2.86-2.89-1.56,1.14,1.94,1.37,2.07,2.89,1.56ZM98.4,92.99c.14.14.29.28.43.42.36-.33.71-.66,1.07-.99-.17-.18-.35-.36-.52-.54-.33.37-.65.74-.98,1.11Z"/>
      <path class="cls-1" d="M145.5,149.64c-.64-.28-1.28-.57-1.93-.85-1.44-.63-1.56-2.12-2.02-3.32-.34-.87-.23-1.93-.29-2.9-.05-.74-.05-1.42.69-1.99.26-.2.04-1.03.04-1.53,1.44.74,1.96,2.17,1.94,3.87q1.49-.37.55-4.5c.92.47,1.29.95,1.46,2.24.11.89.44,1.28,1.37,1.08.37-.08.78-.06,1.17-.03.42.03.84.12,1.61.24-1.29.31-2.27.51-3.21.8-.33.1-.58.45-.86.68.25.27.46.63.76.81,1.77,1.05,2.8.89,4.45-.65.44-.42.84-.88,1.4-1.48.04.63.07,1.03.1,1.5h.98c-.05.76-.1,1.48-.15,2.19-1.33-.18-1.26,1.12-1.8,1.75-.13.15-.12.66-.01.72.23.13.63.19.83.07,1.3-.76,1.8-1.4.95-2.57,1.31.92,1.81,1.83,1.46,2.89-.1.32-.43.8-.68.81-1.67.1-1.64,1.63-2.49,2.57.56.24.93.39,1.45.61-.73.63-1.4,1.13-1.99,1.71-.87.86-1.62,1.87-2.57,2.64-.59.47-1.45.61-2.19.9-.66.25-1.32.5-2.16.83.49-1.86,1.48-3.89-1.66-4.61,0,.84-.08,1.73.02,2.61.15,1.29.67,2.51-.03,3.85-.26.51.12,1.35.1,2.13-.14-.31-.24-.65-.42-.93-.15-.24-.38-.56-.61-.59-2.32-.3-3.58-2.19-3.06-4.62.31.97.62,1.97.94,2.97.15,0,.3-.02.45-.02.16-.36.27-.76.5-1.08.29-.4.63-.8,1.03-1.08.51-.36.87-2.07.37-2.41-.17-.11-.76.06-.84.24-.18.4-.17.89-.23,1.35-.11.02-.22.05-.34.07-.17-.68-.44-1.36-.48-2.05-.05-1.03-.48-2.15.62-3.03.27-.21.2-.93.17-1.41-.05-.66-.14-1.3.69-1.51.88-.22,1.09.5,1.27,1.06.19.58.18,1.23.27,1.85.06.44.15.87.29,1.67.91-1.21,1.6-2.11,2.26-3.04.07-.09-.1-.35-.17-.53.54,0,1.1.11,1.62,0,.75-.15,1.26-.57.92-1.55-.69.22-1.38.36-1.99.66-.26.13-.36.6-.53.91ZM145.61,157.5c.15.06.3.12.45.17,1.73-2.77,3.46-5.54,5.2-8.31-.08-.07-.16-.14-.24-.21-.23.17-.44.37-.69.51-.59.32-1.18.82-1.8.87-.97.08-1.55.47-1.85,1.33-.32.91-.43,1.94-.92,2.73-.66,1.06-.13,1.95-.15,2.92ZM150.44,146.41c-.11-.2-.22-.4-.34-.61-.48.25-.98.48-1.43.78-.03.02.27.53.41.82.45-.33.9-.66,1.35-.99Z"/>
      <path class="cls-1" d="M103.09,166.82c.35.54.66,1.12,1.07,1.62.16.2.61.37.82.28.45-.18.82-.54,1.4-.95.06.62.11,1.16.2,2.03-.92-.89-1.45-.54-1.68.19-.26.82-.54,1.73-.45,2.56.16,1.55-.12,2.15-2.09,2.76.13-1.15.25-2.16.36-3.17-.1-.07-.19-.15-.29-.22-.72.82-1.44,1.65-2.23,2.54-.31-.2-.65-.42-.99-.65-.56.91.02,3.47,1.04,4.68.26-.17.52-.34.79-.51.06.09.11.17.17.26-.45.27-.88.66-1.37.75-.22.04-.68-.47-.81-.82-1.92-5.25-3.31-10.63-3.82-16.21-.12-1.26-.15-2.53-.23-3.8l-.39-.03c-.07.34-.18.67-.19,1.01-.03,1.41-.03,2.82-.05,4.22,0,.27.05.67-.1.79-.98.81-.56,1.79-.37,2.73.75,3.73,1.5,7.46,2.31,11.17.37,1.68.9,3.32,1.32,4.99.1.39.08.81.13,1.22.05.38.13.76.25,1.42-1.96.28-1.48,3.46-3.95,3.55.84-1.15,1.74-2.38,2.65-3.59.45-.6.56-1.14.31-1.94-2.28-7.29-3.94-14.68-3.62-22.4.08-1.84.01-3.7.22-5.52.12-1.08.89-2.09.94-3.16.08-1.61,1.42-2.41,1.93-3.71.11-.29.2-.58.22-.62.79-.04,1.43-.09,2.07-.09.3,0,.6.12.91.15.88.09,1.77.25,2.65.2.8-.05,1.11.1.95.94-.27,1.43-.41,2.88-.74,4.29-.38,1.6-.08,3.09.38,4.6.21.69.43,1.38.66,2.11-.25,0-.37.02-.39,0-.57-1.25-1.27-2.47-1.63-3.77-.23-.82.05-1.78.13-2.67.03-.39.19-.77.2-1.15,0-.19-.18-.39-.28-.58-.21.13-.5.22-.61.41-.27.47-.41,1.02-.7,1.48-.13.21-.52.44-.72.4-.22-.05-.47-.4-.52-.66-.23-1.21.68-2.44,1.92-2.67.23-.04.57.01.68-.12.28-.37.46-.81.67-1.22-.8-.35-1.58-.87-2.42-.98-.35-.05-.96.7-1.18,1.2-.27.63-.26,1.38-.38,2.08-.15.89-.67,1.27-1.57,1.2-.4-.03-1.05-.12-1.17.08-.38.62-.61,1.35-.79,2.06-.07.29.13.66.21,1.04.14-.19.22-.3.36-.48.88,4.88.77,9.83,2.23,14.84.59-.63.93-1.08,1.36-1.44.27-.23.66-.33.99-.49.11.3.22.61.34.91,2.18-.23,2.83-.6,2.9-3.13l-.02.03ZM103.72,169.01c-.68.39-1.43.75-2.08,1.23-.68.5-.94,1.21-.79,1.74.57-.42,1.19-.87,1.8-1.34,1.11-.85,1.2-.99,1.07-1.63Z"/>
      <path class="cls-1" d="M111.07,177.94c1.33-.04,2.63-.01,3.26-1.64.2-.51,1.01-.78,1.44-1.32-1.85-.85-3.54-1.39-5.32-.82-.94.3-1.62,1.09-2.76,1.21-.49.05-.86,1.47-1.23,2.29-.13.3-.02.7-.14,1.01-2.26,6.01-5.29,11.6-9.11,16.76-1.42,1.92-2.8,3.89-3.98,5.96-1.2,2.1-2.15,4.35-3.21,6.53-.28.58-.58,1.16-1.01,1.68.1-2.41.62-4.73,1.93-6.73,2.05-3.15,4.21-6.23,6.44-9.26,3.47-4.71,6.39-9.66,7.91-15.37.35-1.33,1.07-2.59,1.81-3.77,1.31-2.09,2.63-4.19,4.19-6.09,2.02-2.44,4.28-4.67,6.44-6.99.21-.22.49-.37.79-.49-2.06,2.4-4.12,4.8-6.42,7.49.94.05,1.51.13,2.06.11,1.17-.06,2,.3,2.46,1.48.2.51.72.9,1.22,1.49.02.29.06.88.12,1.75-.2.23-.6.7-1.01,1.17h-.06c-.4.78-.96,1.52-1.14,2.34-.18.8-.29,1.61-.49,2.41-.22.89-.49,1.32-1.3,1.59-.35.12-.61.46-.91.7-1.21-.72-3.19-1.19-1.96-3.49l-.02.02ZM108.9,173.54c.11.07.23.15.34.22,2.22-.55,3.52-2.4,5.12-3.81.08-.07-.19-.7-.24-.69-1.08.16-2.48.03-3.15.66-.97.91-1.41,2.39-2.08,3.62Z"/>
      <path class="cls-1" d="M67.81,114.28c-.33-.83-.66-1.66-.99-2.49-.67-1.68-1.35-3.35-2-5.03-.2-.52-.29-1.08-.19-1.71.44.77.89,1.54,1.33,2.31.09-.03.18-.05.27-.08.04-.29.12-.57.11-.86-.07-1.37-.13-2.74-.25-4.11-.06-.71-.22-1.3-.78-1.95-.64-.75-.69-2-1-3.04l.24-.21c.39.51.91.96,1.14,1.53.3.74.64,1.13,1.46.91.97-.26,1.38.23,1.5,1.12.18,1.34.17,2.67.91,3.96.5.85-.46.79-1.13.63-.02.3-.13.63-.03.72,1.24,1.09.73,2.6.98,3.93.1.56.26,1.15.56,1.62.57.88,1.35.51,2.09.18.04.52.24,1.12.81.64.62-.53,1.15-1.3,1.42-2.07.1-.3-.61-.88-.95-1.34-.24.31-.56.6-.71.95-.25.59-.39,1.22-.58,1.84.2-1.68.59-3.38-1.02-4.73.08-.07.15-.14.23-.2.47.23.94.47,1.45.72.97-.79.6-1.81.3-3.05.73,1.09,1.29,1.92,1.84,2.74.02.03.03.09.06.1,2.06.78,2.36,2.9,3.37,4.47.9,1.4,1.7,1.6,3.11.7.54-.35.51-.6.1-1.1-.52-.64-.82-1.45-1.29-2.12-.82-1.17-1.68-2.32-2.59-3.42-.15-.19-.64-.14-.97-.14-.84,0-1.07-.4-.73-1.12.58-1.24,1.61-1.93,3.16-2.49-.87.74-1.52,1.23-2.09,1.79-.54.53-.55,1.06.31,1.28,2.79.71,4.01,2.93,5.06,5.29.25.57.42.99,1.18.62.26-.13.69.03,1.02.11.93.23,1.85.48,2.78.73l-.02-.02c.18.77.36,1.55.57,2.43-.38-.35-.72-.69-1.08-1.01-1.28-1.14-2.7-1.27-4.19-.41-1.78,1.02-4.01.79-5.7-.54-.42-.33-.7-1.22-1.51-.57-.17-.22-.35-.44-.62-.79-.59.74-1.59,1.09-1.54,2.29-1.37.24-2.8.5-4.23.75l.02.02-.67-1.28c-.12.03-.24.07-.36.1-.06.47-.11.95-.17,1.42l.02-.03ZM68.86,108.53c-1.15.69-1.13,1.47-1.06,2.23.02.24.31.45.47.68.24-.21.67-.4.69-.62.06-.66-.04-1.33-.1-2.28Z"/>
      <path class="cls-1" d="M85.51,104.12c-.61.03-1.01.06-1.42.08,0-.41-.08-.84.02-1.22,1.13-4.2,2.32-8.38,3.41-12.59.34-1.32.43-2.7.62-4.06.29-2.09.71-4.18.79-6.27.04-.96-.46-2.04-.99-2.9-1.12-1.82-2.42-3.53-3.67-5.32q1.01-.06,2.27,1.82c.59.87,1.26,1.71,1.74,2.63.48.92.92,1.91,1.12,2.92.2,1.02.15,2.11.06,3.15-.08,1.03-.35,2.04-.54,3.06.12.03.23.07.35.1.73-2.04,1.46-4.08,2.18-6.09.57.19.94.3,1.45.47,0,0,.05.21,0,.37-1.11,3.05-2.32,6.07-3.34,9.16-1.07,3.23-1.97,6.52-2.93,9.78-.25.86-.45,1.75-.69,2.61-.07.26-.16.68-.32.73-1.09.29-.58.83-.11,1.55Z"/>
      <path class="cls-1" d="M55.09,90.78c.71,1.07,1.28,1.92,2.06,3.1.17-.72.32-1.15.38-1.6.08-.55.42-.95.81-.48,1.11,1.33,2.29,2.68,3.03,4.21.67,1.38.81,3.01,1.11,4.26-.25.8-.48,1.37-.6,1.97-.26,1.25-.62,2.42-1.87,3,.18-1.79.5-3.55.49-5.31,0-1.33-.38-2.67-.71-3.98-.08-.32-.6-.72-.92-.73-.26,0-.56.52-.77.86-.14.22-.2.53-.2.79.04,2.75.11,5.49.17,8.36-.58.08-1.14-.37-1.36-1.12-.45-1.55-.74-3.06.53-4.5.49-.56.5-1.3-.12-2.18-.91-1.29-1.97-2.66-1.82-4.47.05-.61-.11-1.23-.2-2.17Z"/>
      <path class="cls-1" d="M72.93,99.03c.15-.4.19-.74.37-.98.44-.59.78-1.13.29-1.9-.12-.19.04-.76.25-.94.89-.74,1.82-1.45,2.8-2.08.61-.39,1.02-.11,1.09.64.08.88.26,1.68,1.36,1.89.32.06.73.46.82.78.35,1.19.8,2.29,1.71,3.19.06.06-.31.82-.53.85-1.74.26-3.51.44-5.15-.43-.29-.15-.61-.43-.71-.72-.41-1.16-.98-1.16-1.77-.36-.06.06-.21.03-.53.06Z"/>
      <path class="cls-1" d="M67.33,141.46c.07.69-.42,1.2-1.14,1.52-.65.28-1.31.56-1.99.7-1.1.22-1.45.92-1.53,2.27,1.13-.55,2.08-1.02,3.23-1.58-.4.75-.69,1.29-1.01,1.88h-.91c-.07.14-.15.24-.13.28.41.65.21,1.14-.33,1.61-.61.54-1.15,1.17-1.75,1.72-.22.2-.54.4-.82.4-1.77.03-3.54.05-5.31-.05-.45-.02-.87-.48-1.31-.74.21-.64.42-1.29.71-2.2v1.89c1.02-.94,1.78-1.65,2.37-2.19.47.46,1.1,1.28,1.93,1.75.21.12,1.06-.91,1.7-1.49h1.63c.05-.09.11-.18.16-.27-1.47-.6-.94-1.57-.39-2.55-.1-.03-.2-.06-.3-.09-.73.29-1.47.58-2.42.96.14-.46.14-.58.18-.59,1.44-.45,2.34-1.34,2.77-2.85.22-.79.82-1.49,1.33-2.18.15-.21.54-.27.83-.34,1.13-.26,2.35-.32,3.39-.78.96-.42,1.79-1.21,2.57-1.94.44-.41.68-1.04,1.01-1.59.37.09.69.16.99.23-.64.73-1.21,1.59-1.98,2.21-.83.67-1.79,1.22-2.77,1.64-.78.33-1.67.38-2.52.56-1.09.24-2.52,1.84-2.5,2.97,0,.21.71.66.91.58,1.14-.49,2.23-1.11,3.38-1.72Z"/>
      <path class="cls-1" d="M33.23,136.21c.42-.17.86-.53,1.26-.49,1.78.16,3.67-.37,5.33.75.21.14.61.05.9,0,1-.18,2-.4,3-.57.27-.04.64-.03.83.13,1.38,1.13,1.36,1.15,2.77,1.33-.24.26-.48.46-.64.72-.27.42-1.15.72-.43,1.4.74.71,1.3.6,1.91-.24.25-.35.52-.69.81-1.01.23-.26.5-.48.98-.54-.95,1.14-1.9,2.28-2.85,3.41-.4.48-.88.91-.34,1.63.24.32.31.79.38,1.2.11.66.24,1.24,1.1,1.22,1.14-.03,2.1-.69,2.24-1.55.05-.3.03-.64.17-.89.62-1.13.64-1.12-.33-1.92.56-.79,1.11-1.58,1.67-2.37.05.02.1.03.15.05-.17.4-.31.82-.52,1.19-.3.54-.4.89.21,1.39.24.19-.04,1.13-.21,1.69-.15.5-.47.96-.74,1.42-.11.19-.27.38-.44.51-.77.6-1.56,1.18-2.34,1.76-.69-.37-1.38-.74-2.15-1.16-.14.92-.24,1.62-.35,2.37-.31-1.23-.59-2.34-.87-3.45l-.02.02c.2.1.41.21.85.44-.67-1.91-.49-3.62.06-5.32.06-.19,0-.6-.12-.64-1.36-.51-2.25-2.02-4.12-1.51-1.17.31-2.94.43-3.7-.23-1.5-1.3-3.02-.51-4.49-.77l.02.02Z"/>
      <path class="cls-1" d="M75.56,71.68c-.47.83-.94,1.67-1.39,2.48-.48-.06-1-.25-1.43-.12-.27.08-.48.63-.55.99-.08.42.13.89.03,1.3-.19.83-.61,1.61-.74,2.44-.16.99-.84.88-1.48.89-.44,0-.88-.11-1.16-.15-.29-.38-.66-.79-.92-1.25-.19-.35-.44-.94-.28-1.14.67-.89,1.39-1.79,2.26-2.48,1.14-.91,1.21-.86.42-2.06.18.15.36.3.54.46.82.73,1.13.63,1.64-.38.31-.62.73-1.19,1.15-1.75.39-.51,1.09-.88.47-1.68-.07-.09,0-.42.11-.51.9-.8,1.82-1.57,2.87-2.46-.04.46.04,1.02-.16,1.46-.65,1.43-1.17,2.95-2.41,4.04-.35.3-.56.76-.83,1.15l.24.18c.48-.52.96-1.04,1.44-1.55.07.05.14.09.21.14Z"/>
      <path class="cls-1" d="M119.87,183.19c-.16-.33-.24-.43-.25-.54q-.19-1.76-2.04-2.76c-.26.72-.51,1.41-.77,2.11-.53-.87-.53-2.7.22-3.08,1.18-.6,1.08-1.48.93-2.41.57-.22,1.08-.42,1.6-.61.18-.07.43-.26.54-.19,1.47.91,2.76-.34,4.15-.38.99-.03,1.98-.45,3.06-.72-.84.74-1.81,1.43-2.56,2.31-.77.9-1.31,1.98-2.01,3.06-2.48-.53-2.1,1.76-2.88,3.21Z"/>
      <path class="cls-1" d="M64.44,136.5c.1-.96.2-1.93.31-2.95.44.04.93.08,1.45.12,0,1.18.23,1.37,1.45,1.13.75-.15,1.52-.23,2.16-.33-.79.73-1.7,1.55-2.69,2.46-.53-.64-1.09-.52-1.7.29-.23.3-.85.33-1.3.41-.53.09-1.1,0-1.6.18-.31.11-.67.51-.72.82-.04.23.41.53.53.67-1.55,1.28-2.96,2.8-3.56,5.06-.79-2.12-1.58-4.24-2.37-6.36.1-.04.2-.09.3-.13.47,1,.95,2,1.42,3,.11-.03.23-.06.34-.09.03-.47.06-.93.09-1.4.09.04.19.07.28.11.23-.53.64-1.06.67-1.6.04-.87.37-1.26,1.18-1.45.42-.1.8-.58,1.2-.58.73-.01,1.46.2,2.19.31.12.11.25.22.37.33Z"/>
      <path class="cls-1" d="M103.12,166.8c-.48.37-.95.73-1.49,1.15-.13-.21-.3-.49-.59-.95-.3.45-.52.78-.76,1.13-.35-1.05-.21-1.8.76-2.53,1.31-.99,1.14-1.62-.41-2.68,2.46-1.64,5.47-.89,7.21.65,2.33-2.12,4.67-4.24,7-6.36.1.11.2.22.3.33-3.41,2.98-5.96,6.9-10.05,9.13-.08-.07-.15-.14-.23-.21.28-.51.56-1.02.87-1.57-1.51-.21-2.25.37-2.63,1.92,0,0,.02-.03.02-.03Z"/>
      <path class="cls-1" d="M77.11,128.92c-2.45-2.17-5-4.24-7.28-6.57-.83-.85-1.3-1.97-2.89-2,.24.45.44.81.64,1.17-.04.03-.08.06-.12.09-.93-.89-1.96-1.69-2.75-2.69-.6-.76-.84-1.79-1.31-2.67-.53-1.01-1.1-2.01-2.43-2.15-.18-.02-.37-.14-.52-.26-2.1-1.79-4.19-3.59-6.29-5.39.11-.13.22-.27.34-.4.51.51,1.01,1.05,1.55,1.52.21.18.55.22.83.33.05-.23.11-.46.21-.91,3.55,3.65,7.06,7.27,10.57,10.89.04-.05.08-.1.12-.15-1.09-3.5-2.17-7-3.26-10.51.06-.03.13-.06.19-.09.48,1.22,1.16,2.41,1.39,3.68.65,3.48,1.91,6.67,4.33,9.23,2.17,2.3,4.59,4.36,6.9,6.53-.08.11-.16.23-.24.34Z"/>
      <path class="cls-1" d="M31.39,101c-2.39,1.3-3.97,3.27-4.61,5.98-1.27-.92-1.35-2.67-.29-3.92,1.25-1.49,2.41-3.05,3.69-4.51.71-.81,1.32-1.52.57-2.59-.04-.06-.06-.16-.04-.23.28-1.19.03-2.14-1.33-2.72,1.5.58,2.64.09,3.81-.62.35-.21,1,.06,1.51.12-.11.46-.17.94-.36,1.36-.13.31-.41.58-.67.81-1.68,1.46-1.74,3.68-2.61,5.52-.07.14.17.43.33.81Z"/>
      <path class="cls-1" d="M40.28,138.53c-1.39,1.74-2.72,3.33-3.95,5-.59.8-.99,1.73-1.44,2.62-.07.14-.05.47.05.55,1.45,1.12.26,2.05-.21,3.02-.18.38-.48.7-.75,1.08.23-1.53.55-2.97.63-4.43.07-1.2.5-2.1,1.29-2.95.3-.33.32-.93.46-1.4-.51-.08-1.07-.32-1.51-.19-.52.16-.95.64-1.42.98-1.47-1.09-3.15-.43-5.12-.5.43-.78.83-1.5,1.22-2.22.31.26.62.52.88.74,1.07-.2,2.2-.47,3.33-.62.64-.08,1.38.45,1.87-.38,1.72.54,2.62-1.36,4.14-1.41.07,0,.15.03.52.11Z"/>
      <path class="cls-1" d="M64.5,49.87c-1.24-.24-3.03-.52-4.78-.98-.52-.14-1.35-.4-1.08-1.38.23-.83.7-1.3,1.58-1.28.8.02,1.72-.15,2,.96.07.26.12.53.15.8.09.68.49.87,1.08.66,1.4-.51,2.81-.99,3.68-2.35.34-.54,1.83-.83,2.07-.41.38.68.45,1.41-.26,2-1.16.97-2.12,2.29-4.43,1.98Z"/>
      <path class="cls-1" d="M62.86,72.05c-.76-.22-1.48-.42-2.3-.66-.31-1.05.62-1.66,1.14-2.33.66-.87.77-1.37-.24-2.03-.83-.54-.72-1.18.19-1.72.38-.23.85-.31,1.19-.43.15,1.02.29,1.94.43,2.86.12,0,.24-.01.36-.02-.16.36-.33.72-.6,1.31.49-.08.8-.05,1.04-.18.72-.38,1.34-.46,2.08.04.26.17.85-.06,1.25-.21.74-.29,1.41-.93,2.21-.03.13.15.73-.02,1.05-.17.41-.2.76-.53,1.4-.98-.07,1.01-.56,1.44-1.19,1.68-1.35.51-2.71,1-4.1,1.36-.6.15-1.33.08-1.93-.11-1.66-.52-2.17-.17-1.97,1.61Z"/>
      <path class="cls-1" d="M22.96,106.45c-.18.61-.36,1.23-.61,2.06.67-.37,1.09-.67,1.55-.84.28-.11.64-.03.96-.03-.06.3-.04.66-.19.9-.54.86-1.13,1.69-1.74,2.51-.17.23-.58.58-.68.52-1.38-.81-1.67.3-2.06,1.22-.26-.32-.48-.57-.8-.96-1.13,1.35-1.97,2.68-1.85,4.44-1.13.17-1.46-.11-1.26-1.18.26-1.41,1.16-2.39,2.31-3.13.72-.46,1.05-1,1.21-1.85.19-1.01.59-2.06,1.17-2.91.36-.53,1.21-.72,1.84-1.07.05.1.11.21.16.31Z"/>
      <path class="cls-1" d="M137.19,135.52c1.81-.39,3.63-.78,5.44-1.18.63-.14,1.33-.17,1.84-.5.41-.26.57-.91.84-1.38-.42-.2-.83-.52-1.27-.58-1.18-.16-2.38-.2-3.66-.29,1.45-1,2.85-1.96,4.25-2.91.07.09.13.17.2.26-.3.6-.95,1.3-.81,1.77.16.53,1.05.82,1.58,1.28.91.79.78,1.23-.15,1.96-.72.56-1.24,1.36-1.94,2.15.1.2.27.51.59,1.12-1.64-1.88-3.26-.42-5.13-.77.95,1.56,2.46,2.78.75,4.64-.1-.47-.18-.68-.18-.88.02-1.96-.71-3.55-2.32-4.7,0,0-.02.02-.02.02Z"/>
      <path class="cls-1" d="M71.97,46.38c-1.1-1.23-2.18-2.44-3.32-3.71-.3.33-.49.55-.78.87-.19-.5-.34-.88-.51-1.33.35-.24.65-.44.7-.47-.16-1.09-.47-2.02-.39-2.91.12-1.21,1.13-.76,1.85-.66.79.1,1.18.61.77,1.32-.93,1.59.34,2.42,1.06,3.46.44.63.97,1.2,1.34,1.86.36.64.19,1.22-.71,1.58Z"/>
      <path class="cls-1" d="M58.7,151.16c.7,1.48.56,1.83-.77,2.31-.18.07-.47.04-.55.16-.25.38-.42.82-.62,1.23.34.07.69.23,1.01.18.6-.09,1.19-.31,2.06-.55-2.23,1.55-4.41,1.62-6.22.33-.24-.17-.5-.54-.48-.8.09-1.18.27-2.35.39-3.33.07.22.23.69.47,1.41.32-.57.5-.89.74-1.32.66.61,1.21,1.55,1.87,1.62.63.07,1.36-.76,2.1-1.23Z"/>
      <path class="cls-1" d="M86.17,258.45v-2.68c.13,0,.27,0,.4.01-.12,2.44-.17,4.88-.37,7.31-.26,3.17-.6,6.33-.98,9.48-.18,1.45-.55,2.89-1.03,4.33.17-3.58.27-7.17.53-10.74.21-2.87.64-5.72.95-8.46.05.14.17.44.29.74.07,0,.14,0,.21,0Z"/>
      <path class="cls-1" d="M41.54,142.69c-.26.27-.63.5-.78.82-.54,1.18-1,2.4-1.51,3.6-.29.69-.87.7-1.35.35-.33-.23-.67-.75-.64-1.11.07-1.05.48-1.98,1.24-2.81,1.44-1.56,2.75-3.24,4.31-4.77-.37,1.36-.74,2.72-1.11,4.08-.06-.05-.11-.11-.17-.16Z"/>
      <path class="cls-1" d="M87.63,107.34c.09-.35.15-.63.29-1.2,1.28,1.62,2.43,3.08,3.76,4.77-.9-.16-1.56-.28-2.03-.37-.39-.79-.72-1.44-1.16-2.32-.27.48-.4.7-.52.92-.82,1.4-.8,1.33-2.36.73-.73-.28-1.58-.23-2.38-.33.75-.53.32-.9-.34-1.25-1.12-.59-1.99-1.38-2.09-2.85.18.02.47-.01.49.05.13.37.08.96.31,1.11,1.47.94,3,1.81,4.54,2.64.15.08.7-.21.72-.36.03-.33-.06-.86-.28-.99-.74-.43-1.56-.7-2.35-1.05-.44-.2-.86-.42-1.29-.63.05-.11.09-.23.14-.34,1.46.48,2.92.95,4.55,1.48Z"/>
      <path class="cls-1" d="M121.16,171.49c1.95.44,3.9.89,5.85,1.33,0,.04-.01.08-.02.12-1.36.08-2.76.36-4.08.17-1.27-.18-2.47-.85-3.78-1.34,0-.16-.08-.55.02-.89.13-.43.33-.89.65-1.18.29-.28.77-.37,1.17-.52q1.89-.72,2.63-2.65c.1,1.25,1.56,2.22.13,3.34-.38.3-.85.49-1.3.7-.42.19-.86.34-1.29.51l.03.41Z"/>
      <path class="cls-1" d="M69.39,93.27c.26.38.55.74.78,1.13.52.9.52,1.82-.2,2.61-.22.24-.67.42-.98.37-.21-.03-.37-.5-.51-.79-.06-.13-.03-.31,0-.46.23-1.08-.03-1.82-1.13-2.36-.54-.27-1.01-1.03-1.14-1.65-.31-1.41-1.05-2.22-2.45-2.47-.08-.01-.15-.04-.22-.08-.43-.23-.86-.47-1.29-.71.14-.21.27-.59.43-.6.62-.05,1.48-.22,1.84.1.79.71,1.31,1.71,1.96,2.57.6.79,1.19,1.6,1.87,2.32.17.18.69.03,1.03.03Z"/>
      <path class="cls-1" d="M26.68,100.7c-.16-.81-.29-1.5-.5-2.6-.87,1.11-1.56,1.99-2.35,3,1.46.42,1.37,1.16.8,2.15-.33.58-.4,1.31-.6,1.97-1.02-.81-1.46-2.2-.97-3.43,1.03-2.58,2.75-4.51,5.42-5.48.3-.11.65-.09,1.25-.16-1.07,1.58-1.98,2.94-3.06,4.55Z"/>
      <path class="cls-1" d="M53.57,171.31c1.71-1.7,1.96-3.64,1.15-5.8-1.89.23-2.9,1.88-3.1,5.05-.8-.82-.96-1.78-.4-2.59.68-.99,1.57-1.87,2.48-2.67.89-.79,1.92-1.42,3.07-2.26-.37.79-.79,1.37-.9,2.01-.09.49.22,1.05.35,1.58.39-.25.87-.42,1.15-.77.67-.84,1.23-1.75,1.96-2.56-.03,1.52-1.06,2.52-2.02,3.38-.73.65-1.31,1.26-1.36,2.17-.08,1.53-1.31,1.88-2.37,2.45Z"/>
      <path class="cls-1" d="M43.46,93.32c-.96,1.78-3.47,1.88-3.41,4.17-.12,0-.24.01-.37.02-.13-.33-.26-.65-.47-1.16-.72.78-1.18,1.27-1.64,1.76-.66-1.47-.25-3.58.98-4.44.37-.25,1.11-.29,1.51-.08.91.46,1.67.53,2.47-.17.13-.12.41-.06.92-.11Z"/>
      <path class="cls-1" d="M107.44,80.77c-.11.15-.35.64-.74.93-.19.14-.67-.04-1-.15-.69-.24-1.34-.58-2.04-.8-.77-.24-1.17,0-1.02.94-.63-.8-1.29-1.57-1.88-2.4-.19-.27-.19-.67-.28-1.02.37-.05.86-.29,1.07-.13.88.65,1.74.85,2.81.46.28-.1.8.35,1.16.61.57.42,1.1.89,1.92,1.55Z"/>
      <path class="cls-1" d="M107.68,30.94c-.33,1.2-.66,2.4-.99,3.61-1.63-.54-1.75-.51-2.29,1.03-.42,1.19-.9,2.4-.47,3.91.51-.29.89-.5,1.33-.75-.43,1.08-1.31,1.45-2.15,1.07-.69-.31-1.15-1.15-1.73-1.78,2.05-2.48,4.02-4.87,6-7.26.1.06.2.12.3.18Z"/>
      <path class="cls-1" d="M92.43,13.36c.24.38.48.75.87,1.38.98-1.74,2-3.27,3.56-4.26.09.07.17.15.26.22-.22.27-.45.54-.67.81-.7.89-1.44,1.75-2.08,2.68-.69,1.01-1.18,2.1-.99,3.4.13.88-.43,1.41-1.19,1.37-.29-.01-.78-.84-.76-1.27.08-1.45.35-2.88.54-4.32h.45Z"/>
      <path class="cls-1" d="M135.47,163.29c-.96-1.31-1.04-2.2-.11-3.69.78-1.24,1.63-2.44,2.27-3.4.23,1.66.52,3.55.75,5.44.05.43-.05.89-.08,1.33-.13,0-.26.01-.39.02-.1-.99-.21-1.98-.35-3.33-.84,1.45-1.49,2.58-2.1,3.63Z"/>
      <path class="cls-1" d="M103.12,122.14c-.03.32-.05.55-.09.92.51-.35.92-.64,1.4-.97-.09,1.02-.04,1.98-.3,2.84-.23.78-.81,1.45-1.83,1.28-.38-.06-.81-.06-1.14-.23-.27-.15-.6-.49-.62-.77-.09-1.57.85-2.7,2.58-3.07Z"/>
      <path class="cls-1" d="M81.26,229.29c1.02.2.59-.6.62-.95.04-.54-.09-1.09-.12-1.64-.02-.54,0-1.09.1-1.64.17,1.77.4,3.54.48,5.31.04.88.46,1.93-.62,2.58-.02.01-.02.07-.03.11-.31,1.83-.67,3.66-.91,5.5-.26,2.01-.41,4.04-.68,6.06,0-2.5-.09-5.01.05-7.51.05-.84.69-1.65,1.01-2.49.11-.28.09-.62.09-.93,0-1.49,0-2.97,0-4.43Z"/>
      <path class="cls-1" d="M88.77,157.36c-.92-2.3-.53-4.12.5-5.91.44-.77.74-1.62,1.14-2.5.61.33,1.05.62.81,1.63-.48,2.03-1.33,3.92-2.01,5.87-.08.23-.21.44-.43.91Z"/>
      <path class="cls-1" d="M36.63,121.25c1.58-2.1,3.74-3.97,2.25-7.14,1.87,1.06,2.35,2.41,1.73,4.07-.83,2.22-2.28,3.43-3.98,3.07Z"/>
      <path class="cls-1" d="M55,64.42c-1.29.28-1.33.98-.95,1.74.42.86,1.05.44,1.56.09,1.02-.7,2-1.44,3.04-2.2-.95,2.18-3.12,3.33-5.28,2.84-1.3-.29-1.61-1.09-.74-2.06.46-.52.56-.89-.02-1.35-.21-.16-.44-.41-.48-.65-.06-.37.03-.76.06-1.15.3.18.66.32.9.57.31.34.5.79.8,1.15.27.32.63.58,1.11,1.01Z"/>
      <path class="cls-1" d="M63.1,44.96c-.93-.05-1.62-.37-1.84-1.25-.22-.88.57-2.3,1.57-2.48.96-.17,1.99.02,2.98.1.13.01.35.34.33.5-.02.16-.29.45-.42.44-1.71-.19-2.02,1.1-2.47,2.26-.04.11-.08.21-.16.43Z"/>
      <path class="cls-1" d="M48.48,106c.47.28,1.02.6,1.56.92-1.5-.07-1.97,1.18-2.71,1.96-.2.21-.11.89.07,1.24.47.91.52,1.75-.16,2.76-.14-1.06-.26-1.95-.38-2.84-.1,0-.21.02-.31.03-.13.53-.26,1.07-.39,1.6-.07,0-.14,0-.21,0-.05-.33-.11-.66-.17-1.07-.5.14-.92.26-1.35.38-.07-.07-.14-.14-.21-.2.62-.86,1.17-1.77,1.87-2.55.72-.81,1.58-1.49,2.4-2.24Z"/>
      <path class="cls-1" d="M116.7,30.89c.65.56,1.14.94,1.59,1.37.81.77.86,1.72.48,2.69-.1.27-.51.42-.77.62-.18-.26-.43-.49-.52-.77-.27-.86-.43-1.75-.73-2.6-.4-1.13-1.01-2.08-2.21-2.58-.58-.24-1.02-.8-1.52-1.22l.28-.41c1.48.86,2.96,1.72,4.38,2.55-.13.05-.44.15-.98.34Z"/>
      <path class="cls-1" d="M104.75,102.8c1.72-1.97,2.98-2.52,4.49-1.58-.55.48-1,.99-1.56,1.31-.64.36-.94.78-1.07,1.52-.08.47-.55,1.05-.98,1.24-.55.23-1.08.02-.81-.86.12-.4-.03-.88-.07-1.62Z"/>
      <path class="cls-1" d="M91.75,28.49c-1.32-1.15-3.03-1.33-2.87-3.34.48.19.86.35,1.15.47.1-.7.19-1.33.28-1.96.59.23,1.18.46,1.76.71.36.15.7.33,1.32.62-1.39.69-2.03,1.72-1.64,3.51Z"/>
      <path class="cls-1" d="M78.03,80.95c-.48-.24-.93-.48-1.23-.63.42-1.31.87-2.73,1.34-4.23,1.54-.08,2.29.95,1.51,2.48-.45.88-1.12,1.66-1.62,2.37Z"/>
      <path class="cls-1" d="M42.2,154c-.16-.55-.37-1.1-.48-1.66-.24-1.18-.5-1.28-1.79-.61.38-1.07.68-2.18,1.18-3.2.13-.26.96-.46,1.26-.3.59.31.99.91.57,1.67-.71,1.28-1.1,2.6-.42,4.05-.1.01-.2.03-.31.04Z"/>
      <path class="cls-1" d="M60.81,124.06c-.6.09-1.07-.08-1.34-.9-.4-1.23-.37-2.4.27-3.51.16-.28.6-.53.92-.53.2,0,.53.45.59.74.1.48.08,1.01.02,1.51-.11.87-.29,1.73-.46,2.7Z"/>
      <path class="cls-1" d="M41.48,119.84c.7-2.13,1.36-4.13,2.04-6.2.38.54.85,1.19,1.45,2.03-.76,1.47-1.53,3.3-3.49,4.17Z"/>
      <path class="cls-1" d="M67.55,57.97c.92-.69,1.84-1.38,2.57-1.93-.49-.92-.92-1.75-1.36-2.58.09-.05.18-.11.27-.16.31.42.61.83.92,1.26.55-.51,1.03-.96,1.51-1.41.09.05.19.1.28.16v3.28c-1.24.53-2.6,1.1-3.95,1.68-.08-.1-.17-.2-.25-.3Z"/>
      <path class="cls-1" d="M22.17,97.82c.18-.13.36-.26.54-.39-.05-.07-.09-.15-.14-.22-.86.09-1.72.19-2.58.28-.04-.15-.07-.31-.11-.46,1.91-.81,3.82-1.62,5.73-2.43.06.08.12.17.17.25-.96,1.36-1.91,2.71-2.77,3.92-.2-.23-.53-.6-.86-.98,0,0,.02.02.02.02Z"/>
      <path class="cls-1" d="M63.69,92.64c-.83-.08-1.78.07-2.47-.29-.97-.51-2.02-1.24-2.52-2.15-.32-.59.08-1.88.59-2.49.46-.55,1.01.22,1.13.8.09.44.02.94-.1,1.39-.3,1.15.21,1.69,1.28,1.89.71.13,1.42.26,2.13.4-.02.16-.03.31-.05.47Z"/>
      <path class="cls-1" d="M57.99,118.39c-.24.3-.61.56-.7.9-.16.58-.36,1.29-.18,1.81.49,1.36.23,2.36-1.11,3.23.18-.63.45-1.25.5-1.88.04-.49-.21-1-.33-1.5-.34.37-.77.7-1.01,1.12-.34.6-.54,1.28-.81,1.97-.71-.69-.75-1.82.02-2.62,1.09-1.13,2.33-2.12,3.5-3.16.04.04.09.09.13.13Z"/>
      <path class="cls-1" d="M66.79,152.47c.12,5.89,3.84,9.75,7.67,13.56-4.32-3.53-8.24-7.28-7.67-13.56Z"/>
      <path class="cls-1" d="M79.2,75.36c-.86-.68-2.06-1.16-2.2-1.86-.2-1.01.36-2.17.65-3.25.03-.13.52-.29.56-.24.19.22.36.5.4.78.2,1.38.36,2.77.59,4.58Z"/>
      <path class="cls-1" d="M115.54,52.54c.17.3.26.71.51.89,1.52,1.08,1.42,2.45.83,3.95-.13.32-.21.66-.28.91-.64.12-1.23.24-1.61.31.26-1.34.58-2.85.83-4.37.04-.25-.26-.55-.31-.84-.05-.27.03-.56.05-.84,0,0-.02-.02-.02-.02Z"/>
      <path class="cls-1" d="M110.77,162.83c3.12-2.98,6.23-5.96,9.35-8.94-2.62,3.48-5.7,6.5-9.05,9.26-.1-.11-.2-.21-.3-.32Z"/>
      <path class="cls-1" d="M57.53,81.55c-.68.73-1.5,1.61-2.45,2.64-.17-.23-.63-.59-.57-.81.38-1.45.67-3,2.27-3.69.23.57.45,1.14.74,1.87Z"/>
      <path class="cls-1" d="M56.04,161.48c-1.98-.25-3.58,1.24-4.5,4.05-.15-.39-.53-.88-.41-1.16.3-.73.68-1.52,1.27-2,.82-.67,1.89-1.03,2.79-1.61.44-.28.77-.74,1.11-1.16.27-.34.48-.72.71-1.09.1.09.21.19.31.28-.41.87-.82,1.74-1.27,2.69Z"/>
      <path class="cls-1" d="M136.25,154.05c-.54,1.53-1.03,2.92-1.52,4.3-.5.07-.98.13-1.46.19-.29-1.62,1.02-3.67,2.98-4.49Z"/>
      <path class="cls-1" d="M104.37,100.81c-1.57-1.16-1.64-3.15-.13-4.15.32-.21.87-.07,1.32-.1-.04.35-.02.72-.13,1.05-.19.55-.51,1.06-.7,1.62-.17.5-.24,1.04-.36,1.58Z"/>
      <path class="cls-1" d="M100.24,105.13c-1.64-.9-2.12-3.02-.97-4.5.18-.24.56-.32.85-.47.13.3.37.6.36.9-.05,1.37-.16,2.73-.25,4.09l.02-.02Z"/>
      <path class="cls-1" d="M130.98,160.41c-.53-.3-1.19-.68-1.84-1.06.06-.11.13-.21.19-.32.31.23.62.46.93.7.11-.07.21-.15.32-.22-.31-.53-.61-1.07-.92-1.6.75-1.43,1.55-2.95,2.24-4.25-.27,2-.58,4.28-.91,6.76Z"/>
      <path class="cls-1" d="M60.04,161.56c-.9.14-1.76.27-2.62.41,1.91-.47,2.65-1.86,3.03-3.73,1-.26,2.12-.56,3.23-.85.04.08.08.16.11.25-.78.49-1.7.86-2.32,1.51-.65.69-1,1.65-1.44,2.42Z"/>
      <path class="cls-1" d="M90.85,74.39c-.45.31-.85.58-.85.59.4.65.74,1.39,1.31,1.86.17.14.96-.47,1.78-.89-.27.66-.36,1.4-.75,1.64-.33.2-1.16-.02-1.53-.34-1.46-1.27-1.82-2.91-1.1-5.05.46.88.81,1.56,1.14,2.2Z"/>
      <path class="cls-1" d="M106.69,148.5v11.74c-.74-3.9-.25-7.82-.41-11.74.14,0,.27,0,.41,0Z"/>
      <path class="cls-1" d="M117.57,38.73c1.17-.35,1.23-1.36,1.53-2.24.13-.37.51-.66.77-.98.3.4.78.76.87,1.21.23,1.09-.32,1.78-1.45,1.92-.57.07-1.15.07-1.73.1Z"/>
      <path class="cls-1" d="M33.47,116.49c.58,1.02.35,2.13-.53,2.87q-1.32,1.12,0,2.52c-.57-.27-1.19-.48-1.7-.84-.18-.12-.26-.68-.13-.9.63-1.15,1.34-2.26,2.03-3.38.06-.09.17-.14.34-.28Z"/>
      <path class="cls-1" d="M36.13,154.55c.09-2.29-.57-4.64,2.36-5.62-.75,1.8-1.51,3.59-2.36,5.62Z"/>
      <path class="cls-1" d="M111.09,177.91c-.13-.19-.3-.37-.39-.58-.33-.8-.76-.63-1.23-.15-.37.38-.73.78-1.12,1.21-.29-1.45.71-2.51,3.33-3.69-.2,1.07-.41,2.15-.62,3.23,0,0,.02-.02.02-.02Z"/>
      <path class="cls-1" d="M33.1,98.84c.74-1.33,1.42-2.56,2.13-3.84.82.78.65,1.71.23,2.55-.46.91-1.27,1.37-2.36,1.29Z"/>
      <path class="cls-1" d="M90.91,114.38c-.29-.46-.49-.76-.7-1.1.6-.52,1.2-1.05,1.93-1.69.29,2.21,1.64.11,2.44.85-1.23.66-2.42,1.29-3.66,1.95Z"/>
      <path class="cls-1" d="M77.1,20.89c1.76-.91,3.31.47,3.27,2.98-1.14-1.03-2.19-1.99-3.27-2.98Z"/>
      <path class="cls-1" d="M79.56,207.2v8.31h-.29v-8.31h.29Z"/>
      <path class="cls-1" d="M109.95,123.5c.02-.35.08-.7.05-1.04-.19-1.79,1.01-2.86,3.1-3.59-1.11,1.61-2.14,3.11-3.17,4.6,0,0,.02.02.02.02Z"/>
      <path class="cls-1" d="M94.42,135.58c-.94,1.23-1.87,2.45-2.88,3.77-.21-.56-.41-1.08-.65-1.7,1.13-.75,2.26-1.51,3.4-2.27.04.07.08.13.13.2Z"/>
      <path class="cls-1" d="M52.81,103.44c.31-1.21.71-2.41.92-3.65.2-1.21.22-2.45.41-3.69-.06,1.25,1.08,2.31.17,3.75-.67,1.06-.82,2.44-1.21,3.67-.1-.03-.19-.06-.29-.09Z"/>
      <path class="cls-1" d="M129.23,151.83c.92,1.74-.05,3.92-1.77,4.02.58-1.33,1.15-2.61,1.77-4.02Z"/>
      <path class="cls-1" d="M107.35,120.81c-.61,1.55-1.22,3.09-1.83,4.63-.3-3.26.04-4,1.83-4.63Z"/>
      <path class="cls-1" d="M118.97,49.64c.15,1.55.28,2.91.42,4.33-1.59-1.11-1.86-3.22-.42-4.33Z"/>
      <path class="cls-1" d="M95.65,137.9c-.71-.86-.36-1.63.13-2.28.48-.64.75-1.73,2.1-1.35-.76,1.23-1.47,2.4-2.23,3.63Z"/>
      <path class="cls-1" d="M83.74,118.29v5.42h-.54c-.23-1.83.25-3.62.54-5.42Z"/>
      <path class="cls-1" d="M64.79,159.17c.1.92.26,1.81-1.09,2.17-.81.22-1.55.72-2.32,1.09-.04-.09-.09-.18-.13-.27,1.17-.99,2.35-1.98,3.54-3Z"/>
      <path class="cls-1" d="M88.02,199.55c1.15-2.54,2.3-5.08,3.45-7.62.11.05.23.1.34.16-1.11,2.54-2.23,5.09-3.34,7.63-.15-.06-.3-.11-.45-.17Z"/>
      <path class="cls-1" d="M40.38,83.31c-1.43,1.13-2.97.38-4.73.56,1.68-1.15,3.7-1.35,4.73-.56Z"/>
      <path class="cls-1" d="M51.87,90.24c.02-1.91,1.39-3.7,3.23-4.18-1.2,1.55-2.21,2.86-3.23,4.18Z"/>
      <path class="cls-1" d="M57.46,132.23c-.8.49-1.4.81-1.96,1.2-.53.37-1.02.8-1.56,1.23-.31-1.53,1.57-2.95,3.52-2.43Z"/>
      <path class="cls-1" d="M37.8,112.14c.46.59.54,2.07-.08,2.62-.26.23-.83.09-1.27.12-.01-.34-.16-.77,0-1.01.39-.62.91-1.17,1.35-1.72Z"/>
      <path class="cls-1" d="M43.29,108.48c-.82.98-1.65,1.96-2.37,2.83-.08-.17-.29-.59-.55-1.13.11-.23.19-.82.5-1,.74-.41,1.59-.63,2.39-.92.01.07.02.15.04.22Z"/>
      <path class="cls-1" d="M81.56,194.05v-7.32c.07,0,.14,0,.21,0v7.27l-.21.06Z"/>
      <path class="cls-1" d="M36.2,119.19c.5-1.2.92-2.22,1.37-3.31.84.54.65,1.27.49,1.91-.21.8-.77,1.31-1.86,1.4Z"/>
      <path class="cls-1" d="M54.12,115.24c-.42,1.42-1.99,2.27-1,3.98-.29.49-.68,1.15-1.07,1.81.53-1.92-.24-4.29,2.07-5.79Z"/>
      <path class="cls-1" d="M104.16,160.39c-.27-.6-.54-1.2-.97-2.17,1.06.8,1.2.25,1.21-.31.03-1.4.01-2.8.15-4.2v6.59c-.13.03-.26.06-.39.09Z"/>
      <path class="cls-1" d="M118.92,165.43c-.62,1.16-1.28,2.38-1.92,3.57-.69-1.45.34-3.32,1.92-3.57Z"/>
      <path class="cls-1" d="M87.43,162.54c.67-1.25,1.37-2.56,2.04-3.81.48,1.57-.44,3.24-2.04,3.81Z"/>
      <path class="cls-1" d="M68.97,114.04c.41,1.6.82,3.2,1.29,5-.87-1.69-1.66-3.23-2.45-4.77,0,0-.02.03-.02.03.4-.08.8-.16,1.2-.24l-.02-.02Z"/>
      <path class="cls-1" d="M98.29,165.89c.1-.37.08-.85.31-1.1.56-.6,1.25-1.03,2.38-.45-.86.64-1.6,1.18-2.33,1.72-.12-.06-.24-.11-.37-.17Z"/>
      <path class="cls-1" d="M123.66,31.97c.68.48,1.43,1.01,1.83,1.29-1.49-.12-3.34-.27-5.15-.42,1.15-.3,2.29-.6,3.32-.87Z"/>
      <path class="cls-1" d="M87.29,111.9c.18-.14.41-.25.53-.44.4-.64.99-.92,1.54-.43.34.3.35.97.59,1.73-1.17-.38-1.92-.63-2.67-.88,0,0,.02.02.02.02Z"/>
      <path class="cls-1" d="M90.7,157.35c-.25-1.18-.08-2.23.95-3.36.3,1.52-.12,2.5-.95,3.36Z"/>
      <path class="cls-1" d="M118.17,168.97c.64-1.19,1.34-2.32,2.69-2.83.1.09.2.19.31.28-.9.94-1.8,1.88-2.69,2.82-.1-.09-.2-.19-.3-.28Z"/>
      <path class="cls-1" d="M120.71,29.65c1.36-.6,2.54-1.13,3.72-1.65.04.02.08.04.12.06-.64.5-1.28,1.01-1.99,1.57.14.19.33.46.65.89-.92-.32-1.66-.58-2.5-.87Z"/>
      <path class="cls-1" d="M39.26,153.49c-1.12,1.56-.79,3.72-2.37,5.09.62-1.76,1.23-3.51,1.85-5.27l.52.17Z"/>
      <path class="cls-1" d="M22.15,97.8c-1.09,1.46-2.18,2.92-3.27,4.38-.1-.08-.2-.16-.3-.23,1.01-1.53,1.78-3.25,3.58-4.13,0,0-.02-.02-.02-.02Z"/>
      <path class="cls-1" d="M141.89,120.09c-1.66.61-3.32,1.23-4.98,1.84,1.47-1.18,3.07-2,4.98-1.84Z"/>
      <path class="cls-1" d="M88.19,117.53c1.51.37,3.02.73,4.53,1.1,0,.12-.01.24-.02.35-.79-.04-1.62.05-2.36-.16-.74-.22-1.39-.74-2.08-1.13-.02-.05-.04-.11-.06-.16Z"/>
      <path class="cls-1" d="M107.7,118.22c.43-1.38,1.81-2.15,3.88-1.95-1.34.67-2.71,1.36-3.88,1.95Z"/>
      <path class="cls-1" d="M44.75,144.21c-.6-.24-.89,0-.97.6-.13.96-.26,1.91-.58,2.92-.19-.51-.62-1.09-.51-1.51.23-.85.76-1.61,1.21-2.39.01-.02.54.26.82.4,0,0,.02-.02.02-.02Z"/>
      <path class="cls-1" d="M14.73,108.71c-.44,1.17-.8,2.12-1.19,3.14-.94-1.06-.51-2.16,1.19-3.14Z"/>
      <path class="cls-1" d="M67.87,90.22c.63.13,1.31.18,1.88.44.3.13.47.64.59,1.01.05.14-.19.38-.29.58-.29-.21-.63-.38-.85-.64-.4-.47-.73-.99-1.1-1.5-.08.04-.15.08-.23.12Z"/>
      <path class="cls-1" d="M117.72,23.26c-1.55.67-3.09,1.33-4.64,2,1.32-1.16,2.78-2,4.51-2.28.04.09.09.19.13.28Z"/>
      <path class="cls-1" d="M67.69,85.64c-.79,0-1.59.02-2.38-.02-.21-.01-.41-.22-.62-.34.18-.2.41-.59.54-.56.87.19,1.72.48,2.58.73-.04.06-.08.12-.12.18Z"/>
      <path class="cls-1" d="M92.63,108.97c1.24-.72,3.06-.42,4.16.74-1.37-.25-2.86-.51-4.16-.74Z"/>
      <path class="cls-1" d="M52.51,131.37c-.82-1.3-.49-2.34.93-2.77-.31.92-.61,1.81-.93,2.77Z"/>
      <path class="cls-1" d="M116.98,27.29h-3.04c1.16-.98,1.88-.94,3.04,0Z"/>
      <path class="cls-1" d="M60.38,151.11c.71,1.41,1.2,2.38,1.68,3.35-.07.07-.14.13-.21.2-.23-.24-.51-.44-.68-.72-.36-.59-.71-1.2-.98-1.83-.09-.21.08-.53.18-.99Z"/>
      <path class="cls-1" d="M93.75,114.65c-.88.55-1.77,1.1-2.65,1.66-.1-.17-.2-.33-.31-.5.89-.54,1.78-1.08,2.67-1.63.1.16.19.31.29.47Z"/>
      <path class="cls-1" d="M112.27,100.57c-.63-.32-1.27-.64-2.16-1.09.69-.23,1.37-.67,1.62-.5.41.29.55.97.81,1.48-.09.04-.17.07-.26.11Z"/>
      <path class="cls-1" d="M91.17,195.96c.53-.96,1.05-1.92,1.58-2.88.13.07.25.14.38.21-.03,1.26-1.13,1.92-1.7,2.89-.09-.07-.17-.15-.26-.22Z"/>
      <path class="cls-1" d="M113.88,162.41c-.89,1.09-1.77,2.19-2.66,3.28-.23-.24-.46-.48-.7-.72,1.07-.9,2.14-1.81,3.21-2.71l.14.15Z"/>
      <path class="cls-1" d="M102,160.44c-.76.58-1.49,1.13-2.17,1.66-.33-1.22.65-2.02,2.17-1.66Z"/>
      <path class="cls-1" d="M58.12,170.5c.34-1.28.67-2.53.99-3.75.54.89.14,2.5-.99,3.75Z"/>
      <path class="cls-1" d="M90.84,159.43c-.17,1.16-.3,2.12-.44,3.08-.88-.9-.74-2.2.44-3.08Z"/>
      <path class="cls-1" d="M144.78,163.39c.25-1.19.46-2.19.7-3.31.63,1.16.42,2.14-.7,3.31Z"/>
      <path class="cls-1" d="M61.11,132.1c-.15.89-.3,1.77-.46,2.73-.28-.03-.58-.07-1.09-.12.51-.95.99-1.85,1.46-2.75.03.05.06.09.08.14Z"/>
      <path class="cls-1" d="M74.75,25.26c-1.02-.17-2.04-.33-3.14-.51.91-.7,1.95-.59,3.14.51Z"/>
      <path class="cls-1" d="M85.41,161.22c.15-1.52.76-2.78,2.27-3.88-.86,1.47-1.56,2.67-2.27,3.88Z"/>
      <path class="cls-1" d="M102.96,130.69c-.67.96-1.34,1.92-2.01,2.88.02-1.34,1.04-2.26,2.5-2.54-.16-.11-.33-.23-.49-.34Z"/>
      <path class="cls-1" d="M91.54,167.66c-.4.93-.8,1.86-1.19,2.79-.42-1.27.28-2.07.9-2.91.1.04.19.08.29.12Z"/>
      <path class="cls-1" d="M102.21,35.11c-1.08.72-2.1,1.4-3.1,2.07.34-1.21,1.38-1.91,3.1-2.07Z"/>
      <path class="cls-1" d="M122.24,62.33c1.54-.29,2.76-.52,3.99-.75-1.19.61-2.36,1.34-3.99.75Z"/>
      <path class="cls-1" d="M88.25,10.7c-.1,1.26-.2,2.52-.29,3.77-.55-1.3-.27-2.55.29-3.77Z"/>
      <path class="cls-1" d="M19.31,108.26c.18-1.31.78-2.35,2.07-2.87-.69.96-1.38,1.92-2.07,2.87Z"/>
      <path class="cls-1" d="M113.11,88c.74-.74,1.47-1.48,2.21-2.22.02.02.04.03.07.05-.73.74-1.45,1.48-2.18,2.22-.03-.01-.06-.03-.09-.04Z"/>
      <path class="cls-1" d="M126.58,72.06c-.39.74-.28,1.77-1.21,2.19-.12-.07-.24-.14-.36-.2.4-.74.8-1.48,1.2-2.22.13.08.25.16.38.24Z"/>
      <path class="cls-1" d="M53.16,157.78c-.58.8-1.1,1.51-1.62,2.21-.54-.79.06-1.65,1.62-2.21Z"/>
      <path class="cls-1" d="M76.93,23.16c-1.12.06-2.02.11-2.84.15.66-.91,1.46-1.03,2.84-.15Z"/>
      <path class="cls-1" d="M118.28,26.7c.65-.79,1.24-1.52,1.83-2.25.06,1.26-.46,1.93-1.83,2.25Z"/>
      <path class="cls-1" d="M81.9,133.99c.11-1.82.23-3.63.34-5.45.07,0,.14,0,.21,0-.1,1.81-.19,3.62-.29,5.43-.09,0-.17,0-.26,0Z"/>
      <path class="cls-1" d="M53.36,109.12c-.65-.85-1.3-1.7-1.95-2.55l-.24.22c.79.74,1.58,1.48,2.36,2.22-.06.04-.12.07-.18.11Z"/>
      <path class="cls-1" d="M104.65,23.02c.54-1.17,1.67-1.88,2.88-1.77-.96.59-1.97,1.21-2.88,1.77Z"/>
      <path class="cls-1" d="M55.35,135.12c.63-.44,1.26-.87,2.06-1.43-.08,1.54-1.07,1.5-2.06,1.43Z"/>
      <path class="cls-1" d="M139.09,47.21h-3.68c1.23-.8,2.46-.4,3.68,0Z"/>
      <path class="cls-1" d="M91.82,117.03c.95-.62,1.9-1.25,2.85-1.87-.76.91-1.59,1.72-2.65,2.17-.07-.1-.13-.2-.2-.3Z"/>
      <path class="cls-1" d="M125.48,75.28c-.41,1.13-1.36,1.7-2.55,1.58.8-.5,1.66-1.02,2.55-1.58Z"/>
      <path class="cls-1" d="M73.84,43.56c-.09-.8-.18-1.61-.27-2.41.15-.02.3-.04.44-.05.08.8.15,1.6.23,2.39l-.4.07Z"/>
      <path class="cls-1" d="M53.77,140.96v-3.08c.06,0,.12,0,.18,0v3.08c-.06,0-.12,0-.18,0Z"/>
      <path class="cls-1" d="M101.64,14.25c-1.05.54-2.09,1.09-3.14,1.63-.04-.07-.09-.15-.13-.22,1.02-.58,2.04-1.16,3.06-1.74.07.11.14.22.21.33Z"/>
      <path class="cls-1" d="M66.5,130.16c-.23.74-.46,1.48-.68,2.21-.12-.03-.24-.06-.37-.1.18-.75.36-1.5.55-2.25.17.04.34.09.5.13Z"/>
      <path class="cls-1" d="M100.38,114.67c-.78.84-1.82,1.01-2.84.51.9-.16,1.87-.34,2.84-.51Z"/>
      <path class="cls-1" d="M123.65,35.57c.99-.18,1.98-.36,3.19-.57-1.05,1.08-2.14.72-3.19.57Z"/>
      <path class="cls-1" d="M116.9,174.38h.06c.86-.45,1.72-.9,2.59-1.34.08.19.15.39.23.58-.96.25-1.91.51-2.87.76Z"/>
      <path class="cls-1" d="M33.21,136.19c-.82,1.03-1.63,2.07-2.45,3.1.51-1.27,1.07-2.51,2.47-3.08,0,0-.02-.02-.02-.02Z"/>
      <path class="cls-1" d="M62.04,166.22c1.05.92,1.09,1.39.3,2.36-.1-.75-.19-1.51-.3-2.36Z"/>
      <path class="cls-1" d="M68.37,131.07c-.23.66-.47,1.32-.73,2.05q-.65-.73.73-2.05Z"/>
      <path class="cls-1" d="M45.92,150.81c-.08.9-.15,1.81-.23,2.71-.11,0-.22-.02-.33-.03.08-.9.15-1.81.23-2.71.11,0,.22.02.33.03Z"/>
      <path class="cls-1" d="M52.57,96.25c-.28,1.1-.48,1.93-.69,2.75-.42-.97-.19-1.81.69-2.75Z"/>
      <path class="cls-1" d="M142.97,122.78c-.76.59-1.51,1.18-2.27,1.76-.07-.08-.13-.17-.2-.25.75-.59,1.51-1.19,2.26-1.78.07.09.14.18.2.27Z"/>
      <path class="cls-1" d="M65.71,73.18l-.38-1.29c.22-.03.61-.11.62-.07.12.42.19.86.27,1.29l-.52.07Z"/>
      <path class="cls-1" d="M51.11,92.03c.06.83.12,1.65.17,2.48-.11,0-.22.02-.33.03l-.18-2.48c.11,0,.22-.02.33-.03Z"/>
      <path class="cls-1" d="M107.16,23.45c.84-.3,1.69-.59,2.53-.89.04.13.08.27.12.4-.86.24-1.72.48-2.58.73-.02-.08-.05-.16-.07-.24Z"/>
      <path class="cls-1" d="M33.46,146.47c-.54.85-1.09,1.7-1.63,2.56-.07-.05-.15-.09-.22-.14.54-.87,1.08-1.74,1.62-2.6.08.06.16.12.23.19Z"/>
      <path class="cls-1" d="M100.22,105.15c1.11-.05,2.23-.11,3.34-.16-1.09.43-2.18.92-3.32.14,0,0-.02.02-.02.02Z"/>
      <path class="cls-1" d="M93,49.52c-.2.67-.4,1.34-.59,2.01-.3,1.08-.83,1.99-1.92,2.6.88-1.6,1.71-3.1,2.53-4.6,0,0-.02-.02-.02-.02Z"/>
    </g>
  </g>
</svg>