<?xml version="1.0" encoding="UTF-8"?>
<svg id="Layer_1" xmlns="http://www.w3.org/2000/svg" viewBox="0 0 319.2 191.24">
  <defs>
    <style>
      .cls-1 {
        fill: #a61e2f;
      }
    </style>
  </defs>
  <g id="OXzKtQ">
    <g>
      <path class="cls-1" d="M154.9,135.52c-2.9,3.11-5.8,6.22-8.72,9.32-.76.8-1.58,1.54-2.21,2.15-.87-.71-1.44-1.16-2.15-1.74,3.13-1.19,3.78-3.74,4.07-7.05-6.94,4.5-13.48,8.73-20.29,13.14.16.22.54.9,1.05,1.45,4.31,4.54,4.26,8.1.79,14.1-1.22,2.11-3.08,3.85-4.7,5.72-.33.38-.87.57-1.56.74,4.56-5.98,2.65-12.04.48-18.2,3.01,2.09,3.41,5.57,5.09,8.88.45-3.06,1.93-5.43-1.28-7.7-1.39-.98-1.45-3.84-2.12-5.83,4.56-3.2,9.01-6.45,13.59-9.51,11.29-7.54,18.45-18.23,23.37-30.59.5-1.26.2-2.89.08-4.34-.1-1.19-.5-2.36-.26-3.7.72,2.06,1.44,4.12,2.27,6.51,2.44-3.08,5.45-5.36,5.89-9.29.24-2.16.48-4.35-2.44-5.05-.4-.1-.7-.62-.77-.69.58-1.65,1.07-3.05,1.56-4.42-11.78-5.68-22.56.37-32.22,11.23,2.72.3,5.35.6,7.98.89.02.28.05.57.07.85-2.51.26-5.04.83-7.54.72-10.65-.45-19.4-5.1-26.29-13.02-5.95-6.85-11.99-13.73-17.02-21.25-4.19-6.26-9.56-10.53-15.93-14.03-2.79-1.53-5.35-3.46-8.36-5.01,1.18,2.11,2.37,4.21,3.8,6.75-8.37-6.71-15.6-13.69-22.04-21.56-4.63-5.66-9.59-11.13-16.28-14.89.51.96,1.03,1.92,1.54,2.88,1.7,3.21,3.39,6.42,5.09,9.62.3.57.59,1.19,1.05,1.63,7.85,7.5,15.73,14.97,23.58,22.47.75.72,1.37,1.57,2.06,2.36-.15.16-.3.33-.45.49-12.06-10-24.11-19.99-36.17-29.99-.29.27-.59.53-.88.8.52.78.93,1.68,1.58,2.33,4.13,4.11,8.29,8.07,13.54,10.95,3.68,2.02,6.66,5.33,9.95,8.07,4.42,3.68,8.85,7.36,13.27,11.05.47.39.9.83,1.07,1.78-.78-.22-1.72-.25-2.32-.7-4.12-3.14-8.49-6.04-12.17-9.64-6.56-6.44-14.51-10.55-22.53-14.65-.27-.14-.6-.16-1.34-.35,2.93,4.96,6.37,8.98,10.55,12.27,2.9,2.29,6.14,4.15,9.22,6.21.47.31,1.32.85,1.26,1.01-.76,2.06,1.11,2.3,2.1,2.88,6.25,3.67,12.58,7.22,18.86,10.86.64.37,1.09,1.08,1.63,1.64l.04-.04c-2.11-.6-4.4-.86-6.3-1.85-6.07-3.16-12-6.6-17.98-9.93-.68-.38-1.37-.75-2.05-1.12-.15.25-.31.5-.46.75,4.39,2.74,8.73,5.57,13.2,8.18,1.83,1.07,3.96,1.62,5.89,2.54.73.35,1.28,1.09,1.91,1.64-.16.23-.32.47-.47.7-3.5-.99-7-1.97-10.5-2.96,10.59,7.49,22.01,12.4,35.35,11.49.04.27.09.54.13.81-.87.36-1.7.88-2.61,1.06-4.39.84-8.65.1-12.91-1.06-7.22-1.97-13.9-5.12-20.46-8.64-2.18-1.17-4.56-1.95-6.72-3.14-2.06-1.14-3.95-2.59-5.92-3.9.13-.32.27-.64.4-.96,2.38.13,4.77.25,7.15.38.07-.14.14-.29.21-.43-7.21-4.17-14.43-8.34-21.74-12.57,1.74-2.38,4.29-2.32,7.4-2.2-1.59-2.24-3-4.01-4.19-5.92-3.26-5.21-7.43-9.45-12.87-12.4-.53-.29-.82-1.01-1.22-1.54.66-.07,1.37-.35,1.96-.19,2.98.78,5.94,1.68,9.12,2.6-.9-1.38-1.73-2.66-2.57-3.94-.54-.82-1.21-1.57-1.64-2.44-.96-1.92-1.8-3.9-2.74-5.98,5.05,1.16,9.66,3.79,13.58,7.76.21-.22.42-.43.63-.65-3.73-4.85-7.45-9.7-11.25-14.65.33-.55.81-1.36,1.39-2.32,6.05,2.53,11.09,6.37,15.44,11.22,7.16,7.98,14.37,15.92,21.56,23.87.27.3.63.52,1.23,1.01-.09-.86-.15-1.41-.22-1.97,1.14.18,2.26.54,3.37.5,4.27-.13,7.65,1.95,10.82,4.36,7.57,5.75,13.72,12.8,18.94,20.75,6.81,10.38,14.49,19.97,26.23,25.22,2.07.92,4.39,1.35,6.64,1.71.51.08,1.33-.99,1.82-1.67,3.8-5.34,8.43-9.76,14.57-12.24,6.98-2.81,13.69-2.2,19.88,2.29,4.56-3.03,14.88-2.41,16.35,1.17-4.68,2.16-9.36,4.33-14.07,6.51,0,2.16.12,4.52-.03,6.86-.21,3.4-2.28,5.5-5.21,6.96-.7.35-1.54,1.02-1.75,1.71-2.73,8.92-7.56,16.62-13.37,23.82-1.01,1.25-1.34,3.05-1.6,4.78,3.86-1.78,5.54-5.28,7.98-8.37-.14,1.04-.28,2.07-.43,3.11-.1.24-.2.49-.3.73ZM176.41,89.18c-3.25-.12-6.83-1.24-9.09,2.63,3.68.95,6.1-1.84,9.09-2.63Z"/>
      <path class="cls-1" d="M223.99,120.35c19.75-1.39,39.08-2.76,58.41-4.12-.03-.4-.05-.81-.08-1.21-15.87.88-31.74,1.75-47.6,2.63-.04-.14-.09-.28-.13-.42,2.66-.63,5.34-1.17,7.97-1.9,9.09-2.53,18.47-2.2,27.75-2.89,7.33-.55,14.38-2.29,21.73-5.56-23.16,1.65-45.78,1.75-68.13,5.23v.77c6.06.42,12.11.83,18.16,1.25-7.59,1.85-15.09,1.04-22.6-.46,3.36-3.04,7.72-3.56,11.94-4.77-.66-.1-1.32-.25-1.99-.3-5.35-.46-10.69-1.1-16.04-1.3-6.76-.25-13.21.96-19.33,4.25-5.12,2.76-10.77,3.54-16.68,3.82-5.39.25-10.71,2.02-16.42,3.19.44-.47.8-1.2,1.35-1.4,5.49-2.03,11.02-3.94,16.95-4.13,4.83-.16,9.22-1.8,13.29-4.21,6.52-3.87,13.43-5.76,21.02-4.96,6.72.71,13.67.56,20.1,2.31,6.16,1.68,11.97,1.3,18.03.75,8.77-.8,17.57-1.34,26.36-1.98,6.33-.46,12.66-.92,18.99-1.38.49-.04,1.05-.2,1.47-.04.74.27,1.4.74,2.09,1.13-.45.66-.75,1.68-1.37,1.92-3.75,1.49-7.57,2.8-11.36,4.17-1.92.69-3.84,1.39-5.71,2.46,1.72.21,3.47.32,5.16.67.66.14,1.21.8,1.81,1.23-.51.53-.95,1.39-1.55,1.53-3.93.93-7.87,1.86-11.85,2.47-4.38.67-8.82,1-13.24,1.47-.04.29-.07.59-.11.88,5.77,1.35,11.54,2.7,17.44,4.08-7.37,3.28-35.14,4.22-41.1.91,9.89-.33,19.77-.66,29.66-.99-4.19-1.95-8.28-3.54-12.88-3.35-7.59.31-15.2.43-22.8.41-1.56,0-3.1-1.08-4.69-1.5-1.21-.32-2.48-.39-4.05-.63Z"/>
      <path class="cls-1" d="M62.25,124.27c-2.33-2.71-4.67-5.41-7.23-8.39,4.21.27,7.73,1.92,11.37,3.25,10.55,3.87,20.82,9.05,32.59,7.64,2.29-.27,4.54-.93,6.71-1.92-1.01-.05-2.01-.09-3.02-.14-.05-.18-.1-.35-.15-.53,4.32-2.49,8.65-4.98,13.17-7.59-1.05,3.91-3.15,7.17-5.6,10.24q-5.55,6.95-8.41,8.02c-.15-.87-.61-1.85-.38-2.61.29-.96,1.16-1.74,2.28-3.3-3.7.19-6.82.51-9.93.49-8.33-.05-15.96-2.9-23.46-6.21-3.29-1.45-6.61-2.83-9.92-4.25-.15.26-.3.53-.45.79,1.59,1.1,3.2,2.17,4.75,3.31,1.73,1.27,3.39,2.62,5.12,3.88.37.27.91.33,1.39.42,4.67.95,9.36,1.84,14.01,2.85,1.24.27,2.41.9,3.52,1.71-7.32,1.19-14.2-.75-21.13-2.62,4.21,3.01,8.59,5.55,14.17,6.08-.45.27-.85.51-1.32.79.82.59,1.39,1,1.92,1.39-3.4-.43-6.82-.86-10.23-1.29l-.17,1.28c1.36.18,2.73.33,4.08.57.56.1,1.09.38,1.64.58-.24.55-.33,1.32-.76,1.61-2.51,1.77-5.1,3.44-7.57,5.08,3.45,2.55,8.01-.65,11.82,1.43-5.69,1.84-11.1,1.43-16.72-2.22,3.2-1.61,6.11-3.07,9.54-4.79-2.79-.54-5.01-.89-7.18-1.42-.84-.2-1.72-.65-2.34-1.24-.46-.43-.77-1.29-.69-1.9.05-.37.94-.82,1.5-.9,1.37-.19,2.76-.18,4.72-.29-1.61-1.12-2.92-1.8-3.93-2.79-1.46-1.42-2.79-3.01-4.01-4.65-.35-.48-.12-1.39-.16-2.1.15-.09.3-.18.45-.27Z"/>
      <path class="cls-1" d="M229.31,127.63c8.54,1.72,16.92,3.86,24.6,8.13-7.81.55-15.63,1.1-23.82,1.68,2.32,1.08,4.45,2.07,6.57,3.06.06.22.13.43.19.65-.9.25-1.81.73-2.71.71-9.68-.25-17.7-4.68-25.28-10.17-.9-.65-1.71-1.42-2.56-2.13l.37-.64c6.67,3.31,13.35,6.62,20.02,9.93.08-.17.16-.35.24-.52-3.37-2.29-6.74-4.58-10.33-7.03,10.53,1.96,20.77,3.53,31.27,2.46-6.18-2.05-12.37-4.09-18.55-6.14Z"/>
      <path class="cls-1" d="M164.43,137.46c-.67,3.53-1.35,7.06-2.02,10.6.41.14.82.28,1.23.42,1.79-3.68,3.58-7.36,5.47-11.24.19,3.96.37,7.73.56,11.65,1.83-4.16,5.09-7.66,5.22-12.74.25.09.49.18.74.26.48,2.6.96,5.2,1.44,7.8,1.57-2.75,1.08-6.34,4.47-9.01-.22,4.82-.41,9.05-.63,14.01-.71-.98-1.1-1.51-1.58-2.17-1.29,2.32-2.47,4.45-3.66,6.57-.31-.1-.61-.21-.92-.31v-7.91l-.66-.25c-1.23,3.35-2.89,6.27-6.34,7.13v-6.41c-2.44,3.03-4.06,6.43-8.31,6.45,2.91-1.29,2.18-3.27,1.19-5.55-2.31,2.02-4.11,4.7-6.9,4.64,3.31-4.6,6.79-9.42,10.26-14.24.14.1.28.2.42.29Z"/>
      <path class="cls-1" d="M76.31,160.43c2.09-.66,4.2-1.28,6.27-2,1.35-.47,2.65-1.1,3.98-1.65.15.2.3.39.45.59-1.67,2.37-3.34,4.74-5.47,7.77,2.34-.97,4.01-1.69,5.7-2.36,1.66-.66,3.33-1.27,5-1.91.09.2.17.4.26.6-1.96,3.12-3.91,6.24-5.87,9.35.18.15.36.31.54.46,3.82-2.95,7.64-5.9,11.73-9.07.76,8.09-1.6,14.38-5.76,15.85.96-1.97,2-3.81,2.77-5.75.75-1.89,1.21-3.88,1.56-6.05-3.68,3.02-6.9,6.67-11.93,7.25q-1.18-1.68,2.5-9.08c-1.54.43-2.93,1-4.35,1.14-1.01.1-2.07-.38-3.11-.59.26-.95.5-1.9.78-2.84.09-.28.3-.53.57-1-2.18.09-4.27,1.88-6.07-.27.15-.15.29-.29.44-.44Z"/>
      <path class="cls-1" d="M111.38,139.94c.11.18.21.39.35.57.69.91,1.39,1.82,2.08,2.72-1.18.73-2.32,1.96-3.53,2.02-.86.04-2.06-1.33-2.66-2.33-1.31-2.21-2.83-2.93-5.22-2.04-.44-.5-.84-1.06-1.35-1.48-.5-.41-1.12-.69-1.68-1.02.1-.33.21-.66.31-.99,1.5-.41,2.98-1.02,4.5-1.18,2.06-.21,3.81-.51,5.57-1.97,3.61-3,7.72-1.76,10.81,3.29-3.12.82-6.06,1.58-9.19,2.4Z"/>
      <path class="cls-1" d="M117.31,154.01c5.21,3.98,4.94,15.93-.18,20.19.64-3.09,1.3-6.28,2.06-9.92-3.04.36-2.16,2.72-2.93,3.91-.93,1.43-1.58,3.04-2.31,4.49-2.95-1.04-2.55,2.39-4.31,2.83,1.65-7.39,7.02-13.48,7.68-21.5Z"/>
      <path class="cls-1" d="M188.06,153.19c.8-2.55,1.61-5.1,2.41-7.65-2.29,2.2-3.88,5.08-7.64,5.87.58-.77.94-1.26,1.32-1.75,1.6-2.03,2.71-3.82,1.14-6.74-1.42-2.65-.72-5.78.77-8.44.3.01.61.02.91.04,0,1.49,0,2.98,0,4.47s0,3.03,0,4.55c.2.03.39.07.59.1,1.56-2.66,3.12-5.33,4.72-8.06,3.19,3.36.43,14.25-4.23,17.6Z"/>
      <path class="cls-1" d="M105.83,177.18c1.16-3.02,2.31-6.05,3.75-9.82-3.97,3.34-6.92,6.93-11.95,8.64,4.58-7.19,12.98-10.37,15.71-18.36-.08,7.37-2.58,13.9-6.78,19.83-.24-.09-.48-.19-.72-.28Z"/>
      <path class="cls-1" d="M82.77,97.14c-4.77-.79-9.08-.85-12.46-4.11.69,0,1.4-.07,2.08.01,3.99.46,7.98.89,11.96,1.48,1.31.19,2.59.77,3.81,1.33.18.08.16,1.26-.14,1.62-2.59,3.1-10.26,3.77-13.6,1.06,1.43-.18,2.69-.31,3.94-.51,1.27-.21,2.52-.5,4.42-.88Z"/>
      <path class="cls-1" d="M105.97,150.06c10.34-2.8,20.28-6.37,29.48-12.84-2.57,5.39-19.17,13.94-29.48,12.84Z"/>
      <path class="cls-1" d="M80.97,67.83c1.25.11,1.83.17,2.62.24-2.43-2.14-4.64-4.1-6.85-6.05.19-.22.39-.43.58-.65,6.03,3.65,12.04,7.34,15.69,13.81-4.29-1.57-8.45-3.31-12.04-7.36Z"/>
      <path class="cls-1" d="M76.31,160.43c-.15.15-.29.29-.44.44q-1.95-2.77,2.92-6.14c-2.39-.51-4.65-.99-6.91-1.46.04-.28.08-.56.12-.83,4.14.93,8.34-1.16,12.47.24.15.34.29.69.44,1.03-2.87,2.24-5.73,4.48-8.6,6.73Z"/>
      <path class="cls-1" d="M150.4,119.93c-1.2-.87-1.83-1.33-2.46-1.79.08-.26.17-.51.25-.77.85.29,1.96.34,2.49.92,1.59,1.73,1.4,3.94-.43,5.99-3.01,3.36-6.84,5.49-11.24,6.89,3.74-3.69,7.49-7.38,11.38-11.22Z"/>
      <path class="cls-1" d="M73.31,74.07c6.98,2.61,13.95,5.22,20.93,7.84-8.17.53-15.34-1.55-20.89-7.88,0,0-.04.04-.04.04Z"/>
      <path class="cls-1" d="M222.02,142.64c-6.36-1.31-11.49-4.65-15.64-9.6,5.58,2.59,11.22,5.09,15.64,9.6Z"/>
      <path class="cls-1" d="M84.89,110.29c5-1.86,9.98-3.71,15.11-5.63-.36,2-1.11,3.73-3.12,4.48-3.94,1.46-7.93,2.93-11.99,1.15Z"/>
      <path class="cls-1" d="M58.52,80.71c4.74,1.37,9.56,2.77,14.74,4.26.55,1.4-.12,2.18-2.17,2.12-5.29-.16-9.24-2.8-12.57-6.38Z"/>
      <path class="cls-1" d="M154.9,135.52c.1-.24.2-.49.3-.73.48.35,1.42.76,1.38,1.05-.4,3.25-.79,6.51-1.52,9.7-.31,1.33-1.42,2.48-2.7,3.46.49-1.68.98-3.36,1.47-5.03-.13-.1-.26-.2-.38-.3-.75.62-1.5,1.25-2.25,1.87-.13-.06-.25-.13-.38-.19,1.36-3.27,2.72-6.55,4.08-9.82Z"/>
      <path class="cls-1" d="M118.73,128.04c3.3-2.27,3.43-2.16,6.52-.07.98.66,2.44.61,3.66.93.61.16,1.19.43,1.78.64.03.25.05.5.08.74-1.5.72-2.98,1.5-4.52,2.14-.35.14-1.19-.05-1.29-.3-1.11-2.77-4.04-2.68-6.24-4.08Z"/>
      <path class="cls-1" d="M81.09,90.12c-1.99,3.87-9.93,3.18-13.52-1.27,4.78.45,9.07.85,13.52,1.27Z"/>
      <path class="cls-1" d="M104.66,88.62c.08.81.14,1.46.21,2.11.12-.15.25-.29.37-.44,2.03,1.71,4.04,3.44,6.09,5.13.63.52,1.39.86,2.01,1.38,2,1.66,3.97,3.36,6.18,5.25-.86.43-1.08.59-1.13.55-2.66-2.15-5.28-4.36-7.96-6.48-1.86-1.46-3.75-2.89-5.74-4.17-1.62-1.04-1.76-1.8-.02-3.34Z"/>
      <path class="cls-1" d="M118.02,120c.49-4.89,4.45-6.75,7.79-9.09,1.14-.8,2.46-.98,3.2.4-3.73,2.95-7.36,5.82-10.98,8.69Z"/>
      <path class="cls-1" d="M92.48,100.48c-.72.97-1.19,2.24-2.1,2.74-3.74,2.07-7.6,1.99-11.46.32,4.4-.99,8.71-1.97,13.56-3.06Z"/>
      <path class="cls-1" d="M102.3,120.69c4-2.49,8.07-5.01,11.97-7.43.06,3.72-8.15,8.84-11.97,7.43Z"/>
      <path class="cls-1" d="M106.72,112.93c-1.19,3.64-9.45,5.74-13.82,3.59,4.37-1.13,9.11-2.37,13.82-3.59Z"/>
      <path class="cls-1" d="M160.56,96.88c-2.08,0-4.06.14-5.98-.09-.56-.07-.98-1.23-1.46-1.89,1.36-.75,2.71-2.09,4.09-2.12,1.9-.04,3.64,1.07,3.36,4.1Z"/>
      <path class="cls-1" d="M201.54,139.46c.69,1.04,1.38,2.08,2.28,3.43.63-2.37,1.19-4.47,1.74-6.57,1.4,3.39-.12,6.23-1.39,9.06-.07.15-2.2-.15-2.37-.61-.58-1.6-.71-3.36-1.01-5.06.25-.08.5-.17.75-.25Z"/>
      <path class="cls-1" d="M198.51,135.78c2.83,4.34,2.42,9.63-.6,12.43.19-4,.38-7.94.6-12.43Z"/>
      <path class="cls-1" d="M101.78,110.06c-1.83,2.8-7.43,3.51-10.93,1.5,3.64-.5,7.29-1,10.93-1.5Z"/>
      <path class="cls-1" d="M194.77,146.82v-11.79c2.82,1.73,3.03,8.11,0,11.79Z"/>
      <path class="cls-1" d="M111.38,102.6c-3.46-.04-5.52-1.99-7.55-4.3,3.57-.69,7.06,1.28,7.55,4.3Z"/>
      <path class="cls-1" d="M87.11,65.13c-3.05-1.72-6.11-3.44-9.16-5.16l.37-.64c3.61.76,6.92,2.03,9.14,5.2-.11.2-.23.4-.34.6Z"/>
      <path class="cls-1" d="M135.83,128.83c-2.68,3.27-6.13,5.61-9.75,7.71-.14-.17-.28-.34-.42-.51,3.23-2.6,6.45-5.2,9.68-7.81.16.2.33.4.49.61Z"/>
      <path class="cls-1" d="M198.95,112.54c2.78-.49,5.16-.91,7.79-1.38-1.64,3.32-4.83,3.9-7.79,1.38Z"/>
      <path class="cls-1" d="M120,122.76c.63-2.5,2.14-4.45,4.21-5.97.29-.21,1.04.2,2.35.51-2.25,2.43-4,4.31-5.75,6.2-.27-.25-.54-.49-.81-.74Z"/>
      <path class="cls-1" d="M147.98,108.35c1.08-1.41,2.16-2.83,3.24-4.24.44.34.87.69,1.31,1.03.38.76.76,1.53,1.33,2.67-1.86.51-3.53.96-5.19,1.41-.23-.29-.46-.58-.69-.87Z"/>
      <path class="cls-1" d="M190.86,118.49c2.64-1.26,5.05-2.41,7.61-3.63-2.05,3.41-4.73,4.74-7.61,3.63Z"/>
      <path class="cls-1" d="M138.87,109.18c-3.13.37-6.26.74-9.39,1.1-.03-.25-.06-.51-.1-.76,3.12-.43,6.24-.86,9.36-1.3.04.32.08.63.12.95Z"/>
      <path class="cls-1" d="M114.15,106.8c1.02-.39,2.02-.93,3.07-1.12.5-.09,1.13.49,1.69.76-.44.57-.84,1.58-1.34,1.63-1.07.11-2.19-.27-3.28-.45-.05-.28-.1-.55-.14-.83Z"/>
      <path class="cls-1" d="M126.87,109.09c2.05-1.27,4.15-2.66,6.66-2.3.06.26.13.53.19.79-2.28.5-4.57,1.01-6.85,1.51Z"/>
      <path class="cls-1" d="M192.95,126.14c1.06-.58,2.12-1.16,3.17-1.74.2.48.62,1.33.55,1.38-1,.61-2.06,1.11-3.11,1.64-.21-.43-.41-.85-.62-1.28Z"/>
      <path class="cls-1" d="M200.03,117.51c2.46-.27,4.36-.48,6.26-.68-1.74,1.45-3.55,2.4-6.26.68Z"/>
      <path class="cls-1" d="M182.3,128.86c-1.2.46-2.4.92-3.59,1.38-.1-.25-.2-.5-.29-.75.91-1.16,1.71-2.58,3.59-1.53.1.3.2.6.3.9Z"/>
      <path class="cls-1" d="M177.78,120.46c-.99,1.85-2.17,2.72-4.22,1.01,1.65-.4,2.93-.7,4.22-1.01Z"/>
    </g>
  </g>
</svg>