<?xml version="1.0" encoding="UTF-8"?>
<svg id="Layer_1" xmlns="http://www.w3.org/2000/svg" viewBox="0 0 395.83 258.22">
  <defs>
    <style>
      .cls-1 {
        fill: #a61e2f;
      }
    </style>
  </defs>
  <g id="i7TQ0S">
    <g>
      <path class="cls-1" d="M25.95,126.39c1.58-2.68,3.16-5.36,4.74-8.04,2.18-3.72,5.58-5.46,9.74-5.54,1.75-.03,2.03-.61,1.99-2.12-.05-1.82.17-3.64.24-5.46.01-.26-.16-.53-.27-.87-1.64,1.76-2.12,1.75-4.5,1-3.49-1.1-6.47-2.86-8.58-5.9-.41-.6-.68-1.29-1.04-1.93-.35-.63-.73-1.23-1.26-2.13,1.03-.76,2.19-1.56,3.28-2.46.55-.46,1.14-1.03,1.39-1.68,1.47-3.74,4.65-5.66,8.93-5.07-.3-.83-.51-1.57-.82-2.26-1-2.2-.77-4.17.94-5.94.84-.87,1.56-1.74,1.13-3.14-.09-.28.71-1.22.95-1.17,2.58.54,5.42.56,7.13,3.09.02.03-.01.1-.03.27-2.08-.61-4.17-1.22-6.38-1.87-.25,2.23,1.01,3.45,1.74,4.9.69,1.39,1.23,2.85,1.83,4.28l-.34.23c-1.39-2.06-2.78-4.11-4.18-6.19-.98,1.66-2.32,3.48-1.25,5.63.88,1.76,2.22,3.3,3.39,5.12-1.43-1.23-3-1.96-4.95-1.63-1.87.32-3.41.99-4.63,2.9,4.72.8,9.17,1.54,13.89,2.34-.82-.73-1.46-1.31-2.11-1.88.04-.07.08-.14.12-.21,1.05.51,2.11,1.01,3.16,1.52.12-.11.25-.22.37-.33-.59-1.38-1.17-2.77-1.92-4.53.91.81,1.55,1.38,2.2,1.96.09-.06.17-.12.26-.18-.43-.82-.85-1.64-1.28-2.47,2,.95,2.74,2.81,3.48,5.01,2.37-1.23,4.63-2.4,6.89-3.58.13.13.25.27.38.4-.68.71-1.31,1.48-2.05,2.12-.79.68-1.69,1.24-2.65,1.93,2.19.47,4.2.9,6.2,1.33-.02.16-.04.32-.06.49-1.94-.22-3.89-.43-5.83-.65-.1.15-.2.3-.3.45,2.05,2.63,4.85,4.52,7.07,7.06-2.37-1.57-4.73-3.14-7.1-4.72-.08.1-.17.2-.25.31,2.55,2.43,5.1,4.86,7.64,7.29-.17.19-.35.38-.52.58-.89-.73-1.81-1.44-2.68-2.2-.89-.78-1.75-1.6-2.57-2.45-.85-.88-1.64-1.82-2.76-3.07-.9,1.85-1.59,3.25-2.31,4.72-1.76-.69-.57-2.32-1.09-3.73-1.37,1.8-2.59,3.43-3.82,5.05-.12-.07-.25-.14-.37-.21.25-2.39,2.13-4.09,3.01-6.21-.13-.08-.26-.16-.4-.24-1.24,2.04-2.68,3.99-3.67,6.14-1.56,3.41-2.26,7.06-1.78,10.84.12.93.03,2.32,1.79,1.52.19-.09.71.5,1.05.81.61.56,1.11,1.48,1.8,1.63,1.03.23,2.05.07,2.79-1.26.53-.96,1.96-1.46,3.03-2.09.57-.33,1.24-.5,2.04-.82-.44-.49-.7-.78-.78-.86,2.36-3.74.42-6.41-2.15-9.22,5.38,1.69,10.37,3.25,15.35,4.82,0-.09,0-.19,0-.28.59.56,1.19,1.13,1.97,1.86-1.36.66-2.73,1.23-4.01,1.96-.64.36-1.35.91-1.62,1.54-2.21,5.09-5.98,8.65-10.57,11.61-2.18,1.41-4.1,3.27-5.99,5.08-.88.84-1.43,2.04-1.95,2.81,1.46.61,7.96-1.29,8.89-2.87,1.03-.18,1.86-.18,2.56-.48,9.4-4,19.23-6.55,29.14-8.87.72-.17,1.49-.21,2.24-.22,6.71-.08,10.85-4.05,14.01-9.38.64-1.08.99-2.39,1.23-3.63.21-1.07.5-2.03,1.68-1.87.39.05.63,1.22.94,1.88.06.14.11.29.15.42.14,0,.29.07.33.02,2.89-2.84,6.56-4.41,10-6.4,2.05-1.19,3.54-3.35,5.28-5.08.22-.22.41-.46.61-.69l.41.26c-1.05,1.64-2.1,3.28-3.18,4.96,1.94-.61,6.07-4.16,6.86-6.04-.9.45-1.61.8-2.33,1.16,3.26-4.45,7.19-8.14,11.67-11.24.19.14.37.29.56.43-1.01,1.44-1.96,2.94-3.06,4.31-1.12,1.41-2.39,2.7-3.58,4.03,3.67-.85,7.12.51,10.53,2.05,0,.16,0,.31,0,.47-1.49,0-2.98-.02-4.47,0-2.41.04-4.83-.03-7.23.19-1.57.15-2.84.87-4.05,2.2-1.74,1.91-4.07,3.29-6.16,4.88-.51.39-1.05.72-1.47,1.36,1.55-.55,3.08-1.14,4.65-1.63.47-.15,1.07-.14,1.54.01,2.35.76,4.67,1.6,7.01,2.4,3.56,1.22,7.07,2.59,10.69,3.59,4.56,1.27,8.67,3.16,11.74,6.9.26.32.65.55.98.82-.05.23-.11.45-.16.69-6.82-5.23-15.11-6.89-22.66-10.26-.03.35.01.51.12.62,2.2,2.27,4.39,4.55,6.64,6.76.33.32,1,.29,1.79.49-.23-.91-.35-1.35-.46-1.79,3.55,1.7,5.87,5.62,10.65,5.3-.32-.84-.49-1.29-.81-2.12,3.08,1.38,5.28,3.75,8.29,4.38.1-.15.21-.29.31-.44-1.25-1.2-2.5-2.41-3.74-3.61-.26-.5-.53-1-1.04-1.97.83.47,1.35.65,1.71.99,1.02.95,1.97,1.98,2.96,2.96.95.93,1.58,1.92.63,3.43-1.66-.03-3.37-.36-4.81-1.49-1.28-1.01-2.57-1.38-4.1-.67-1.42.65-2.76.33-3.97-.51-1.67-1.16-3.29-2.39-5.02-3.64-2.47,1.01-2.55.93-4.51-1.34-3.17-3.67-6.66-7-10.76-9.64-1.17-.75-2.35-.96-3.65-.33-.97.47-2,.8-2.96,1.27-3.08,1.5-6.14,3.04-9.11,4.52.2,5.52,5.07,7.62,8.34,10.98.15-.05.31-.1.46-.14-.49-2.22-.98-4.45-1.47-6.67.11-.06.23-.12.34-.18.36.7.9,1.36,1.05,2.09.36,1.87.64,3.77.75,5.67.07,1.18-.62,1.39-1.55.63-1-.82-1.96-1.68-3.02-2.41-3.43-2.36-5.47-5.55-5.98-10.09-.5.66-.98,1.03-1.13,1.52-.6,1.98-1.07,3.99-1.66,5.97-.16.53-.49,1.06-.87,1.46-.99,1.02-2.06,1.97-3.08,2.94,4.17.36,8.24.49,12.24,1.11,4.01.62,7.95,1.72,12.41,2.71-3.37-3.06-5.73-6.26-7.32-9.99.14-.11.27-.23.41-.34.77.93,1.54,1.86,2.59,3.14-.27-1.02-.43-1.63-.59-2.25,2.39,4.04,6.38,6.2,9.98,8.83.73.53,1.15,1.47,1.85,2.06.45.37,1.13.58,1.73.64,4.49.39,8.71-.6,12.93-2.13,2.58-.93,5.41-1.57,8.14-1.6,5.25-.06,9.73-1.51,13.71-5.03,2.81-2.48,5.99-4.54,9.1-6.66,1.09-.74,2.41-1.16,3.68-1.61.52-.18,1.16-.03,1.74-.03.05.18.09.37.14.55-1.34.82-2.69,1.64-4.03,2.46-1.95,1.2-2.06,1.87-.46,3.54.26.27,1,.52,1.17.38.38-.34.74-.92.73-1.4-.01-.74-.34-1.47-.54-2.2.16-.06.33-.12.49-.19.33.68.54,1.46,1.02,2.02.33.39,1.21.81,1.5.64,1.59-.94,3.35-.61,5.02-.79,1.81-.2,3.66,0,5.5-.04.34,0,.66-.34,1.01-.43.32-.08.92-.15.98-.03.48,1.03,1.1.81,1.81.32.12-.08.41-.13.44-.09.89,1.47,2.04.34,2.74,0,2.37-1.13,4.6-2.55,6.88-3.88.15-.09.22-.31.33-.47l-.26-.41c-1.98,1.14-3.95,2.29-5.93,3.43-.06-.09-.13-.18-.19-.26,1.86-1.28,3.72-2.57,5.58-3.85-.1-.18-.2-.37-.31-.55-1.64.73-3.29,1.46-4.93,2.19-.05-.08-.09-.16-.14-.24,1.74-1.09,3.47-2.19,5.21-3.28-.05-.09-.11-.17-.16-.26-2.15,1.09-4.29,2.18-6.44,3.27,2.19-2.2,5.53-2.89,7.12-5.73-.09-.12-.18-.25-.27-.37-2.75,1.59-5.51,3.17-8.26,4.76-.08-.13-.16-.25-.24-.38,1.43-.91,2.8-1.94,4.31-2.7,3.66-1.84,6.35-4.44,8.27-8.18,2.33-4.54,6.52-7.64,9.99-11.29,1.35-1.42,2.57-3,3.6-4.67,1.89-3.06,3.66-6.21,5.36-9.39,1.54-2.87,2.91-5.82,4.36-8.74-.15-.1-.3-.19-.46-.29-.27.4-.59.77-.81,1.2-2.63,4.99-5.34,9.93-7.83,14.99-1.26,2.56-2.86,4.79-4.9,6.74-1.79,1.71-3.72,3.3-5.31,5.18-2.01,2.37-3.65,5.03-5.62,7.44-.9,1.11-1.63,2.58-3.37,2.77-.27.03-.52.36-.77.57-4.79,4-10.27,6.4-16.43,7.32-1.36.2-2.7.55-4.04.83-.09-.17-.17-.35-.26-.52,1.04-.61,2.02-1.47,3.14-1.79,6.05-1.72,11.68-4.36,16.12-8.78,1.58-1.57,2.42-4.43,2.58-6.77.32-4.69-.05-9.42-.18-14.13-.09-3.49-.29-6.97-.36-10.46-.03-1.34-.25-2.43-1.28-3.47-1.63-1.64-2.37-3.7-1.6-6.07.87-2.66,1.67-5.33,2.57-7.98,1.3-3.83,4.61-5.54,7.9-7.17,1.65-.82,3.48-1.29,5.22-1.92.14.13.28.27.43.4-.32.73-.48,1.59-.97,2.18-2.76,3.34-3.23,7.33-3.19,11.39.06,5.38-2.35,9.2-6.79,11.98-.35.22-.66.86-.62,1.27.59,5.82,1.15,11.65,1.93,17.46.25,1.88,1.09,3.67,1.76,5.82,2.7-2.44,5.37-4.52,7.62-6.99,1.89-2.08,3.33-4.57,4.89-6.94,3.49-5.29,5.26-11.57,9.51-16.41,1.52-1.73,3.14-3.37,4.77-5,.37-.37.93-.56,1.41-.83.1.1.19.19.29.29-.37.66-.81,1.3-1.11,2-1.97,4.57-3.85,9.17-5.88,13.72-1.93,4.32-4.2,8.42-7.01,12.3-2.65,3.65-5.74,6.78-8.87,9.95-3.48,3.53-5.8,7.87-7.61,12.44-.87,2.2-.17,3.29,2.01,4.27,2.62,1.18,5.24,1.88,8.09.82.52-.19,1.2-.23,1.72-.07,4.51,1.42,8.81.45,13.08-1.04.51-.18,1.2.11,1.66-.12,1.37-.69,2.88-1.29,3.93-2.34,3.12-3.1,6.03-6.41,9.05-9.6.99-1.04,2.06-2,3.14-2.94.29-.25.81-.41,1.17-.34,1.51.27,2.28-.66,3.29-1.55,3.07-2.69,6.35-5.14,9.45-7.8,1.24-1.07,2.25-2.41,3.34-3.65,3.43-3.9,6.57-8.13,10.36-11.65,4.15-3.85,8.89-7.08,13.41-10.54,1.36-1.04,2.87-1.9,4.26-2.92,1.9-1.4,3.67-2.99,5.62-4.31,2.09-1.41,4.37-2.53,6.49-3.9,4.38-2.83,8.88-5.51,13-8.68,4.34-3.34,7.22-8.07,10.31-12.54,2.9-4.18,4.12-9.05,5.72-13.78.62-1.83,1.26-3.66,2-5.44.16-.4.75-.62,1.34-1.07-.24,1.82-.32,3.18-.64,4.48-.19.81-.74,1.53-1.13,2.3l.02-.03c-.32.72-.76,1.42-.95,2.18-1.35,5.25-3.85,10.02-6.31,14.79-2.79,5.4-7.42,9.15-12.22,12.64-5.92,4.3-11.92,8.47-17.84,12.76-1.31.95-2.12,2.23-1.45,4.04.13.36-.38.96-.61,1.5.45-.07.9-.14,1.58-.24-.24.51-.4.83-.39.81,3.33-.54,7.11-.49,10.29-1.85,3.33-1.43,6.43-.1,9.56-.65,5.38-.96,10.83-1.63,16.09-3.06,4.62-1.25,9.23-1.97,13.97-2.12,1.99-.07,3.97-.22,5.96-.28,3.05-.1,6.06,0,8.45,2.32.3.29.51.67.7,1.14-3.99-3.27-8.61-1.9-13.06-2.1-7.52-.32-14.57,1.81-21.71,3.57-.09.02-.15.13-.3.26,3.3.87,6.4.02,9.53-.59,7.48-1.46,15.03-1.9,22.62-1.12,1.15.12,2.25.74,3.72,1.25-.49.19-.88.5-1.1.4-3.69-1.51-7.55-.95-11.31-.72-4.12.25-8.21.97-12.31,1.51-.52.07-1.01.28-1.85.51,8.51,2.68,14.65,7.13,15.08,16.62-.17-.82-.31-1.66-.52-2.47-1.19-4.5-3.93-7.73-8.17-9.6-5.43-2.4-11.13-3.44-17.1-3.42-5.15.02-10.3-.55-15.46-.65-2.28-.04-4.56.42-6.84.68-1.25.14-1.3.91-.87,1.86,1.06,2.34,2.55,4.27,4.6,5.9,2.67,2.14,5.31,4.4,7.58,6.94,2.42,2.71,2.97,6.02,1.41,9.48-.1.22-.3.4-.7.7,1.76-9.59-5.05-13.74-11.51-18.7.62,2.97.64,5.52,2.87,7.53,2.23,2,4.12,4.38,6.08,6.67,1.26,1.48,1.56,3.29,1.14,5.17-.34,1.52-1.39,2.08-3.14,1.66,1.69-5.71-2.4-8.98-5.32-12.76-.19.03-.38.06-.57.09.2,1.7.17,3.46.64,5.08.81,2.78-.1,5.21-1.19,7.61-.29.62-1.16,1.04-1.84,1.41-1.09.59-1.86,1.01-1.47,2.65.76,3.23-2.43,7.98-5.66,8.84-.49.13-1.33.2-1.53-.07-.94-1.22-2.22-.75-3.39-.93-.72-.11-1.39-.47-2.04-.97,1.6.48,3.14.66,4.36-.6,1.07-1.1,1.95-2.38,2.68-3.88-.57.18-1.13.36-1.96.63,4.19-3.83,8.98-6.86,9.79-12.38-1.36,1-2.99,2.12-4.53,3.35-.44.35-.62,1.03-1.12,1.91-.38-.58-.97-1.1-1.02-1.66-.12-1.33-.05-2.69.07-4.03.05-.55.29-1.28.69-1.57,1.45-1.05,3.01-1.94,4.75-2.68-1.2,2.25-4.95,3.05-3.32,6.96,1.03-1.07,2.03-2.03,2.96-3.06,2.51-2.76,2.88-6.12,1.27-9.53-.42-.89-.45-1.97-.61-2.97-.4-2.57-.78-5.14-1.17-7.79-3.84.71-6.86,2.27-9.77,4.16-2.38,1.54-4.79,3.04-7.24,4.45-2.42,1.39-3.41,3.76-4.58,6.06-2.37,4.69-5.25,8.92-9.8,11.88-2.55,1.66-4.74,3.86-7.19,5.68-1.74,1.29-3.64,2.37-5.5,3.5-3.16,1.93-5.02,4.95-6.85,8.01-.11.18-.26.38-.27.58-.35,4.89-5.1,6.65-7.32,10.23-.49.79-1.92,1.19-2.98,1.39-4.81.9-9.63,1.74-14.46,2.43-2.17.31-4.4.12-6.59.3-2.99.24-6,.45-8.96.95-3.39.58-6.69.44-9.79-1.01-5.44-2.55-10.9-2.37-16.49-.67-1.22.37-2.55.37-3.8.63-1.69.36-3.01,1.03-3.57,2.98-.54,1.89-1.49,3.68-2.45,5.42-1.27,2.3-3.54,3.22-5.98,3.16-2.35-.06-4.31.61-6.2,1.83-2.03,1.32-4.11,2.57-6.12,3.91-1.52,1.01-1.6,1.54-.27,2.73,3.45,3.08,6.94,6.11,10.48,9.07.49.41,1.36.37,2.06.51.29.06.74-.05.87.11,1.3,1.65,3.28,1.48,5.02,1.84,3.95.8,7.95,1.35,11.88,2.2,1.71.37,3.4,1.09,4.93,1.95,2.64,1.49,5.15,3.19,7.69,4.84.57.37,1.03.91,1.53,1.36,3.29-1.78,6.65-3.61,9.78-5.31-.56,1.61-1.3,3.46-1.83,5.37-.41,1.46-.13,2.42,1.51,3.46,3.89,2.45,7.43,5.46,11.11,8.23.25.19.51.37.79.58,1.7-1.47,1.27-4.27,3.61-5.58-1.94,5.22.28,9.53,2,13.95.66,1.68,1.21,3.45,1.48,5.23.14.9-.45,1.92-.74,2.88-.2.66-.44,1.31-.66,1.97.2.09.4.18.61.28,2.07-3.82,4.14-7.65,6.21-11.47.14-.01.28-.03.42-.04.23.75.45,1.51.68,2.27,1.99.32,3.33-.52,4.39-2.31.83-1.4,2.05-2.57,3.06-3.79-1.42-.78-2.8-1.63-4.25-2.31-4.35-2.04-7.55-5.26-9.91-9.39-.6-1.06-.57-3.73.21-4.46,1.11-1.05,2.43-1.27,3.86-.57.67.33,1.37.65,2.1.82.45.1,1.13.08,1.42-.19,2.42-2.23,5.26-1.63,7.93-.98.78.19,1.38,1.7,1.77,2.72.49,1.28.86,2.5,2.72,2.3-.03.15-.07.3-.1.45-.39.1-.85.09-1.14.31-.28.21-.37.66-.49.9,1.24.07,2.27.13,3.37.2-.18.63-.37,1.27-.61,2.12.94-.1,1.69-.17,2.87-.3-.74,1.33-1.26,2.48-1.98,3.49-.7.97-1.6,1.8-2.57,2.86-.62-1.27-1.32-2.73-2.11-4.37-.86,2.18-.72,3.58.41,4.2,4.32,2.37,6.05,2.72,8.03.3-1.36.85-2.72,1.52-3.98.1,4.3-2.5,8.33-5.25,9.66-10.58,1.44,1.9,1.51,3.06.13,5.02-1.67,2.36-3.45,4.63-5.18,6.93,1.29,1,2.49,1.85,3.83.47.94-.98,1.79-2.04,2.66-3.08.37-.44.68-.93,1.07-1.36,1.19-1.31,2.41-2.59,3.6-3.91,1.01-1.11.62-1.93-.6-2.51-.89-.42-1.8-.81-2.81-1.26,2.4-.8,4.25.17,5.65,2.82.89,1.69.34,3.62-1.42,4.95-.34.26-.7.57-1.1.67-3.04.73-4.8,3.03-6.65,5.42,5.46-.95,9.16,2.65,13.41,4.86-.07.17-.14.34-.21.51-1.96-.94-3.93-1.85-5.86-2.84-2.06-1.05-4.29-2.02-6.49-1.35-2.07.63-3.93-1.67-6.25.07,1.9.54,3.46.99,5.2,1.49-.3.38-.52.66-.86,1.1,1.76.54,3.46,1.07,5.3,1.64-2.28,1.52-7.44-.43-11.01-4.08-.4,1.22-.93,2.3-1.07,3.43-.07.58.41,1.62.9,1.8,2.68,1.02,5.46,1.78,8.16,2.76,2.44.88,4.79.68,7.15-.25.64-.25,1.27-.49,2.08-.79.35,1.35.66,2.53.97,3.7-.33-.29-.67-.58-1.05-.92-.66.83-1.28,1.62-1.66,2.1-1.02-.07-1.72-.11-2.41-.16,2.4,1.43,3.75,1.06,5.11-1.04.32-.27.93-.55.92-.81-.06-1.75,1.26-1.61,2.16-1.39,3.83.95,7.95.53,11.57,2.49,1.04.56,2.01.73,3.22-.21,1.81-1.41,3.95-.8,5.83.08,2.1.99,4.12,2.12,6.57,1.79.1-.01.23-.02.32.03,2.74,1.61,4.62-.03,6.52-1.68.95-.83,1.99-1.56,3.15-2.45-.3,1.8-4.84,5.21-9.23,7.13.02-.29.04-.52.06-.84-2.16-.08-4.35-.39-6.1,1.53.59.1,1.13.19,1.67.28.14.18.29.35.43.53-.67.37-1.35.73-2.02,1.1.06.21.12.42.18.64,1.45.08,2.91.17,4.69.27-.37.41-.67.99-1.13,1.19-1.68.72-3.25.16-4.79-.6-.48-.24-1.14-.43-1.62-.3-7.71,2.11-14.91,5.53-22.14,8.86-.18.08-.32.25-.63.5,2.99,2.17,6.14,4.01,8.72,6.44,2.57,2.44,4.58,5.48,6.83,8.25-.15.13-.3.26-.46.39-.64-.76-1.32-1.48-1.92-2.27-2.49-3.28-5.92-5.43-9.16-7.84-3.68-2.72-7.73-4.36-12.23-5.03-.52-.08-.99-.4-1.5-.57-3.81-1.21-7.57-.84-11.17.71-4.03,1.73-7.96,3.71-11.93,5.58,0,.14.01.29.02.43,2.76.29,5.52.58,8.28.87-.03.06-.06.12-.08.19-1.83.28-3.66.76-5.5.78-1.83.02-3.73-.22-5.5-.71-1.75-.48-3.45-1.26-5.03-2.16-1.83-1.05-3.71-1.06-5.63-.67-1.9.38-3.82.76-5.62,1.43-4.35,1.62-8.34.78-12.23-1.39-3.06-1.7-6.13-3.36-9.2-5.03-.26-.14-.56-.22-1.25-.49,2.06,2.55,4.84,4.17,4.62,7.64-.24-.23-.49-.45-.73-.69-1.9-1.89-3.68-3.92-5.72-5.64-2.17-1.83-4.61-3.34-6.89-5.05-.68-.51-1.17-.54-1.82.03-.6.52-1.29,1-2.02,1.29-1.13.44-2.21.32-2.98-.97.6-.48,1.24-.88,1.74-1.42,1.56-1.68,3.37-3.22,3.27-5.88-.03-.83.35-1.68.56-2.51.04-.15.12-.42.19-.42,1.82-.08,1.74-1.99,3.12-3.23.14,1.38.21,2.42.38,3.45.09.5.27,1.26.61,1.39,3.36,1.29,6.7.64,10.05-.22-2.14-.89-4.57-1.03-6.23-2.63,3.57.37,7.17.72,10.76,1.12.31.03.66.31.85.58.07.1-.18.63-.39.72-2.13.96-4.23,2.05-6.44,2.76-4.21,1.36-8.06.64-11.42-2.88,0,1.45-.03,2.64.03,3.82.01.25.3.61.55.71,2.67,1.13,5.26,2.68,8.05,3.24,9.3,1.87,18.09.41,25.52-5.78,1.74-1.44,3.88-2.71,5.03-4.92,1.09-2.09,1.49-4.26,1.32-6.55-.06-.74-.3-1.48-.57-2.18-1.22-3.18-2.47-6.34-3.68-9.41-1.34,2.84-1.82,5.73.3,8.69.94,1.31,1.6,2.89,2.04,4.45.2.7-.25,1.79-.76,2.41-.24.29-1.42.09-1.99-.22-2.08-1.12-4.12-2.32-6.1-3.6-2.52-1.63-4.95-3.41-7.45-5.07-1.91-1.27-2.34-1.22-4.33-.4-.61.25-1.36.19-2.11-.08.89-.68,1.78-1.36,2.75-2.1-.53-.69-.92-1.18-1.46-1.89.77.2,1.33.35,2.04.53,2.67-5.53.5-11.14.5-16.67-3.13.64-6.05,3.67-10.02,9.84-.66-.44-1.33-.88-2.25-1.49,0-.93.08-2.22-.02-3.5-.13-1.77-1.52-2.93-3.27-2.77-1.07.09-2.17.15-3.18.46-1.82.56-2.62,4.13-1.31,5.54.16.17.46.23.71.28,2.16.39,3.43,1.8,4.36,3.68.9,1.82.96,3.77,1.11,5.72.04.52.06,1.04.09,1.55.14.08.28.17.42.25.86-.96,1.86-1.83,2.54-2.91,2.47-3.9,4.82-7.88,7.23-11.82.39-.64.7-1.55,1.72-.89-1.77,6.43-6.56,11.07-9.62,17.21,1.98-.91,3.69-1.69,5.7-2.61-.28.77-.45,1.22-.6,1.62,2.15.94,4.36,1.65,6.31,2.81,2.35,1.41,4.5,3.2,5.2,6.1.48,2.01.23,2.32-1.82,2.47-.4.03-1.05.11-1.16.34-.85,2-2.6.88-4.12,1.47.61-2.19-.83-2.85-2.13-3.57-1.16-.64-2.37-1.19-3.48-1.97,1.95,0,3.56.85,5.02,2.08.45.38.85.85,1.36,1.11.73.38,1.43.61,2-.46.24-.45,1.14-.67,1.77-.76,1-.14,1.35-.64,1.08-1.53-.2-.65-.49-1.33-.93-1.83-2.64-3.03-6.28-4.2-9.97-5.25-.32-.09-.79.23-1.16.43-1.7.92-3.49,1.73-5.06,2.84-1.15.8-2.01,2.01-3.25,3.3,1.86.99,3.41,1.81,5.35,2.84-2.38.56-4.02-.24-5.54-1.16-.92-.56-1.51-.4-2.07.3-1.46,1.81-3.26,2.71-5.64,2.5-.44-.04-1.07.43-1.39.83-1.33,1.65-2.57,3.37-4.05,5.33-.37-2.56,1.49-3.88,2.33-5.6-.13-.09-.25-.18-.38-.27-1.28,1.7-2.56,3.41-4.01,5.33-.32-2.53,1.25-4.14,2.61-6.22-3.08-.4-4.68,2.25-7.03,2.78-.12-.14-.24-.27-.35-.41,1.22-1.01,2.45-2.02,3.67-3.04-.09-.22-.17-.43-.26-.65-1.2.26-2.39.51-3.59.77-.04-.08-.08-.16-.11-.23.64-.49,1.27-.98,1.96-1.51-1.05-.76-1.92-1.46-2.86-2.04-.29-.18-.85-.2-1.17-.04-.91.44-1.83.93-2.62,1.55-1.52,1.21-1.62,2.14-.49,3.74,2.06,2.94,2.49,5.89.2,8.93-.24.32-.34.74-.76,1.7,2.51-.35,4.63-.49,6.67-.97,1.98-.47,3.87-1.3,5.8-1.94.7-.23,1.43-.36,2.14-.54.08.18.16.37.24.55-.79.67-1.52,1.45-2.38,2-1.72,1.09-3.49,2.13-5.31,3.05-.47.24-1.2-.04-1.81-.03-1.23.02-2.46.12-3.69.12-2.53,0-4.07-1.71-3.61-4.15.26-1.41.91-2.75,1.25-4.15.39-1.59,1.26-3.27-1.01-4.4-.91-.45-.93-3.13.1-4.19,1.33-1.37,3.01-2.4,4.53-3.58.17.1.33.2.5.3-.22-.62-.45-1.24-.69-1.9-.8.11-1.49.2-2.32.31.06-.44.05-.66.13-.84,1.34-2.96,1.3-3.2-1.72-4.28-1.88-.67-3.86-1.08-5.96-1.28,2.31,3.14,3.85,6.79,7.54,8.57-1.93-.62-3.59-1.64-4.87-3.21-1.64-2-3.25-4.01-4.82-6.06-.48-.63-.95-1.33-1.19-2.07-.41-1.28.23-2.41,1.45-2.26,2.92.37,4.26-1.53,5.63-3.48.48-.69.93-1.41,1.56-2.36-1.95-.24-3.63-.58-5.31-.62-2.04-.05-3.8-.65-5.35-1.94-2.21-1.83-4.35-3.74-6.64-5.48-2.31-1.75-4.99-2.77-7.89-2.99-1.53-.11-2.6-.83-3.66-1.8-.85-.77-1.83-1.39-2.75-2.07-.11.09-.22.17-.33.26.05.39.05.8.15,1.18.66,2.49,1.15,5.05,2.05,7.44.96,2.52,2.99,4.26,5.22,5.75.54.36,1.25.87,1.35,1.41.33,1.65.36,3.37.59,5.04.16,1.15.2,2.42.73,3.4,1.27,2.36,2.17,4.57,1.65,7.46-.36,1.99.36,4.26.95,6.31.84,2.88,2.16,5.62,3,8.5,1.75,6.04,5.32,10.99,9.12,15.82.17.21.4.39.5.63,2.34,5.6,7.99,8.14,11.6,12.56,1.66,2.03,3.44,3.96,5.18,5.92.48.55,1.01,1.06,1.52,1.58-.07.14-.13.28-.2.42-.71-.46-1.49-.84-2.12-1.39-3.12-2.71-6.18-5.5-9.32-8.19-.85-.72-1.88-1.25-2.86-1.79-2.18-1.22-4.24-2.53-5.47-4.85-.44-.83-1.12-1.52-1.7-2.27-.16.03-.31.07-.47.1v8.21c-.19.02-.38.03-.56.05-.13-.41-.29-.81-.38-1.23-.39-1.77-.62-3.59-1.16-5.31-1.72-5.41-4.13-10.47-7.59-15.04-1.04-1.38-1.52-3.3-1.86-5.05-.52-2.69-.7-5.44-1.03-8.16-.03-.21-.04-.45-.14-.63-2.16-3.93-2.67-8.25-2.92-12.61-.11-1.97,0-3.96-.15-5.93-.04-.55-.59-1.14-1.06-1.55-1.69-1.48-3.51-2.81-5.16-4.33-2.36-2.18-4.62-4.47-6.91-6.72-.54-.53-1.08-1.05-1.55-1.63-.22-.27-.51-.83-.4-.98,1.69-2.22-.27-3.8-1.22-5.22-.94-1.42-2.66-2.39-4.16-3.35-.97-.62-2.18-.87-3.29-1.29-1.25-.47-2.33-.54-3.64.26-.91.56-2.35.35-3.55.3-.9-.04-1.79-.36-2.67-.58-3.54-.86-7.06-1.83-10.63-2.55-3.04-.61-5.96.3-8.86,1.17-4.57,1.38-9.19,2.61-13.74,4.06-5.32,1.7-10.66,3.35-15.54,6.2-1.46.86-3.2,1.23-4.73,2-1.51.76-2.96,1.66-4.33,2.64-.95.68-1.97,1.47-2.53,2.45-1.12,1.98-3.31,2.59-4.75,4.14-1.46,1.58-3.22,2.91-4.54,4.58-1.49,1.89-2.81,3.96-3.89,6.1-1.92,3.81-4.28,6.95-8.85,7.6,0-6.25,0-12.49,0-18.74.79.89,1.58,1.78,2.37,2.67.2-.12.4-.24.61-.36-.13-.46-.18-.98-.42-1.38-.42-.68-1.09-1.23-1.41-1.94-.27-.6-.2-1.35-.29-2.04.18-.05.36-.1.54-.14,1.06,1.14,2.12,2.29,3.18,3.43.17-.08.34-.16.51-.24-.15-.51-.19-1.09-.46-1.53-.84-1.37-1.82-2.65-2.63-4.04-.33-.56-.36-1.3-.53-1.96.17-.05.34-.1.51-.15.4.53.8,1.07,1.21,1.6-.39-1.52-1.52-2.79-1.64-4.16-.13-1.44-.83-2.32-1.54-3.33,0-.54,0-1.08,0-1.62,1.42,1.64,2.85,3.28,4.34,5,1.97-3.02-.84-4.75-1.48-7.15-.51.46-.83.76-1.46,1.34.3-1.95.24-3.63.84-5.02.82-1.91,2.18-3.58,3.23-5.39.22-.37.12-.93.17-1.4-.15-.03-.3-.06-.45-.09-.33.47-.67.94-.98,1.42-1.03,1.62-2.08,3.23-3.06,4.89-.35.59-.62.83-1.15.26,0-.54,0-1.08,0-1.62,1-2.36,1.93-4.75,3.03-7.06.55-1.15.62-2.11-.22-3.13-.36.18-.69.35-1.22.62.29-.78.5-1.33.7-1.88-.1-.04-.2-.09-.29-.13-.67,1.17-1.33,2.34-2,3.51,0-.75,0-1.51,0-2.26,1.07-1.66,2.07-3.34,1.46-5.21.62-.23,1.33-.29,1.44-.58.41-1.14,1.8-2.12.84-3.68-1.29,1.6-2.51,3.11-3.73,4.62,0-1.4,0-2.8,0-4.2ZM43.08,159.69c-.02-.46-.18-.98-.03-1.37.26-.69.8-1.28,1.05-1.97.14-.38-.06-.88-.11-1.33-.2-.01-.4-.03-.6-.04-.87,1.76-1.75,3.52-2.62,5.27.15.14.3.28.46.42.61-.33,1.22-.67,1.83-1,1.41-.52,2.81-1.05,4.22-1.57,0-.23.02-.46.03-.69-.75-.18-1.82-.75-2.18-.46-.86.7-1.38,1.81-2.04,2.75ZM150.77,128.26c-3.37,2.59-6.56,5.05-9.8,7.54-.1-.12-.31-.29-.45-.51-1.2-1.9-1.19-1.89-3.1-.94-.52.26-1.09.41-1.64.61-.08-.14-.15-.28-.23-.42,1.37-2.21,4.11-2.83,5.91-4.55-.11-.19-.23-.38-.34-.56-3.38,1.79-6.76,3.57-10.68,5.64-.46-.61-1.17-1.55-1.88-2.49-.12.1-.24.19-.36.29.4.68.79,1.37,1.19,2.05-.49-.03-.88-.15-1.07-.41-.81-1.13-1.7-1.08-2.94-.66-.74.25-1.71-.15-2.57-.27-1.07-.16-2.21-.64-3.19-.42-1.41.32-2.4.19-3.2-1.04-.1-.16-.41-.19-.86-.39.29.67.47,1.09.65,1.51-.96-.48-1.6-1.23-2.39-1.73-.51-.32-1.26-.34-1.89-.3-.13,0-.2.89-.32,1.48-.64-.48-1.74-.88-1.89-1.49-.43-1.86-1.14-2.28-2.74-1.17-.22.15-.66-.01-.99-.03.04-.34-.05-.79.13-1.01.37-.44.87-.8,1.36-1.12,1.74-1.15,3.49-2.26,5.24-3.39-2.8,1.08-5.45,2.38-8.03,3.82-1.42.79-2.58.63-3.96-.58,1.22-.82,2.32-1.57,3.43-2.31l-.16-.28c-1.79.84-3.58,1.69-5.37,2.53-.08-.11-.16-.23-.24-.34.27-.41.53-.81.98-1.5-1.43.56-2.57,1.01-3.7,1.46-.07-.15-.15-.3-.22-.45,1.2-.68,2.4-1.37,3.6-2.05-.03-.12-.06-.23-.09-.35h-3.74c-.02-.47-.05-.94-.07-1.4-.45.04-.92.02-1.35.14-.93.26-1.83.66-2.76.87-.52.12-1.1-.03-1.65-.05,0-.14,0-.27-.01-.41.68-.33,1.36-.66,2.04-.99-3.41.56-6.68,1.42-9.98,2.12-1.52.32-3.07,1.22-4.89.35,1.32,1.89,2.64,3.77,3.97,5.66-.08.06-.17.12-.25.17-.36-.18-.71-.37-1.15-.59-.52.86-.98,1.64-1.44,2.41-3.08,5.12-6.17,10.23-9.22,15.37-.18.31-.15.98.07,1.22.29.32.89.57,1.31.5.78-.12,1.51-.57,2.3-.72,4.59-.87,9.11-1.97,13.32-4.09.65-.33,1.36-.53,2.06-.8-1.43-1.96-2.74-3.77-4.06-5.59.17-.14.33-.27.5-.41.84.97,1.71,1.92,2.51,2.92.65.82,1.31,1.08,2.21.28-.78-1.53-2.56-2.57-2.33-4.63,1.36,1.54,2.73,3.08,4.08,4.61,1.42-.89,1.62-1.7.71-2.88-.59-.77-.91-1.76-1.34-2.66.16-.09.32-.18.48-.28.86.98,1.72,1.96,2.54,2.91,2.42-1.1,1.07-2.9,1.17-4.52.88,1.17,1.76,2.35,2.64,3.52.49-.2.98-.41,2.02-.84-.95,1.82-1.38,3.21.51,3.95,1.68-1.1,1.66-1.08.57-2.63-.49-.7-.92-1.46-1.28-2.23-.14-.3-.02-.71-.02-1.54,1.38,1.53,2.4,2.67,3.77,4.19.79-1.43,1.41-2.54,2.06-3.72.82,1.09,1.73,2.29,2.52,3.34.9-.33,1.54-.57,2.18-.8q-1.32,2.66.4,4.31c1.47-.56,1.88-1.38.87-2.79-.36-.5-.37-1.25-.55-1.89.19-.08.38-.16.56-.24,1.19,1.41,2.38,2.81,3.55,4.19,1.84-1.07,1.81-1.07,1.22-2.78-.21-.6-.27-1.24-.4-1.87.17-.04.35-.09.52-.13,1.02,1.37,2.04,2.73,2.98,4.01.84-.2,1.55-.38,1.84-.45.43,1.2.64,2.13,1.09,2.93.58,1.02,1.34,1.95,2.08,2.87.22.27.82.62.96.52,1.6-1.08,3.89-1.42,4.29-3.83,2.56.75,3.88-2.79,6.67-1.95-.83.65-1.51,1.18-2.23,1.75,1.39,1.01,1.78.84,2.43-.82h2.43c-1.01,2.39.91,1.33,1.57,1.42.14.79.24,1.41.35,2.03.14-.02.27-.04.41-.06v-1.13c.87.31,1.63.58,2.5.89-.8,1.86.62,1.61,1.53,1.57.14.73.07,1.55.41,1.79.33.24,1.09-.1,1.65-.21.39-.07.78-.17,1.17-.25l.14.36c-.47.52-.93,1.04-1.72,1.93,1.34-.33,2.22-.54,3.1-.75.09.16.17.32.26.48-.52.34-1.04.68-1.61,1.05.62.66,1.05,1.11,1.71,1.81-3-.95-5.6.07-7.59,2.79,1.28.26,2.61.27,3.69.8,2.36,1.15,4.38,1.08,6.47-.63,1.11-.91,2.53-1.41,3.76-2.18.38-.24.57-.77.85-1.16-.46,0-.96-.12-1.36.04-.75.29-1.43.75-2.14,1.12-1.48.77-2.97,1.53-4.46,2.29-.09-.16-.18-.32-.27-.48,2.98-2.7,6.8-4.11,10.23-6.2-.75-2.25-2.29.14-3.38-.71.53-.28,1-.42,1.34-.72.38-.34.65-.81.97-1.22-.51-.17-1.02-.41-1.54-.48-.47-.06-.96.08-1.45.12-.03-.14-.07-.27-.1-.41,1.85-.67,3.7-1.34,5.56-2.01-.04-.17-.07-.34-.11-.51-2.45-.69-4.61,2.05-7.29,1.07.86-.77,1.52-1.37,2.18-1.96l-.2-.33h-1.71c3.15-2.8,6.71-4.04,9.83-6.19-.54-.05-1.08-.1-1.63-.15.5-.98-.34-2.44-2.13-3.73-.13.08-.27.16-.4.24.7.84,1.4,1.68,2.1,2.52-1.26-.5-2.44-.96-3.84-1.51-.28-1.3-2.38-2.28-3.9-1.5-1.2.61-2.45,1.13-3.68,1.69-.07-.16-.13-.32-.2-.48.62-.42,1.24-.83,1.85-1.26,1.81-1.28,1.81-1.4.17-2.51ZM207.28,211.67c1.68.92,3,1.76,4.41,2.38,2.66,1.17,5.42,2.31,8.38,1.95,3.08-.38,6.11-1.23,9.19-1.69,3.47-.52,6.87-.24,9.85,1.89,1,.71,1.9.79,2.98.2,3.43-1.89,6.89-3.73,10.36-5.56,4.92-2.61,10.14-2.91,15.53-1.99.57.1,1.32-.15,1.81-.5,1.26-.9,2.28-2.32,3.66-2.85,4.09-1.58,8.3-2.86,12.49-4.19,1.24-.39,2.55-.55,3.83-.81-.02-.16-.03-.31-.05-.47-4.45-.67-8.9-1.29-13.33-2.02-1.84-.3-3.8-.53-5.44-1.33-3.72-1.82-7.24-4.02-10.89-5.99-3.71-2-4.21-3.26-2.6-7.08.03-.07-.05-.19-.1-.31-1.6-.35-3.2-.7-4.85-1.06-.7,3.08-.31,6.46-2.98,8.68,3.11,2.93,6.1,5.68,7.78,9.53.5,1.15.08,1.28-.29,1.26-1.65-3.01-3.86-5.06-5.91-7.19-1.18-1.23-2.84-1.57-4.69-1.19.48.38.84.67,1.52,1.22-3.44-.02-6.47-.01-9.27,2.12,1.3.63,2.21,1.22,3.43.53.32-.18,1.07-.01,1.36.27,2.14,2.07,4.75,3.08,7.62,3.59,1.1.2,2.18.5,3.27.76-.66.5-1.28.66-1.9.69-2.77.14-5.2-.85-7.32-2.52-1.02-.8-1.98-1.22-3.31-1.27-.92-.03-1.97-.61-2.68-1.25-.77-.69-1.33-.74-2.1-.2-3.07,2.16-6.3,4.12-9.17,6.52-4.02,3.37-8.19,6.28-13.48,7.1-2.21.34-4.44.49-7.1.77ZM183.78,179.11c-.85.83-1.59,1.16-2.42.22-1.2-1.35-2.42-2.7-3.72-3.95-.48-.47-1.19-.89-1.84-.95-1.98-.19-3.97-.19-5.96-.31-.31-.02-.61-.26-.92-.41.29-.25.54-.63.88-.72.51-.14,1.07-.1,1.6-.08,2.55.07,5.02.99,7.67.31,1.08-.28,1.86-.49,2.41-1.51-1.95-1.95-4.1-3-6.87-2.27-.29.08-.62,0-.93-.05-2.02-.37-3.74-.35-4.7,2.03-.46,1.15-1.54,2.05-2.32,3.08-.27.35-.48.74-.72,1.1,3.65.97,7.09,1.89,10.06,2.68-.31,1.2-.74,1.97-.64,2.65.23,1.5,0,2.71-1.07,3.85-.34.36-.41,1.24-.23,1.76.35,1.05.92,2.04,1.46,3.02.16.3.46.61.77.74,1.4.61,2.82,1.18,4.25,1.71.25.09.59-.08.89-.1.35-.02.8-.14,1.04.02,1.12.77,1.97.42,2.87-.41.57-.53,1.31-.87,2.18-1.42.25.46.45.84.66,1.21l.19-.56h3.13c-.19-.62-.38-1.22-.49-1.56-1.58.21-3.01.85-3.99.43-1.55-.66-3.04-.35-4.5-.61-1.5-.27-2.89-1.37-4.22-2.25-.6-.39-.96-1.15-1.59-1.94,1.57.83,2.78,1.55,4.06,2.09.43.18,1.26.11,1.54-.19.71-.77,1.17-.42,1.77.06.62.5,1.18,1.38,2.16.47.12-.11.66.19.98.35.45.22.88.48,1.47.81.14-.73.24-1.21.37-1.89,1.01.67,1.85,1.22,2.68,1.78.08-.82-.15-1.34-.36-1.87-.32-.79-.81-1.57-.89-2.39-.06-.56.45-1.19.7-1.78.52.31,1.26.5,1.51.96.78,1.43,1.37,2.96,2.03,4.43-.46-.26-.97-.55-1.89-1.06.59,1.08.93,1.72,1.38,2.54,1.75-1.51,2.86-3.13,3.31-5.21.59-2.73.32-5.4-.17-8.13-.27-1.49-.84-2.3-2.17-2.82-.33.64-.52,1.31-.95,1.75-1.31,1.33-2.51,3.08-4.13,3.69-1.19.45-2.25,1.17-3.35,1.41-.27,1.34-.51,2.56-.75,3.77-.21-.02-.42-.04-.63-.05-.5-1.39-1-2.79-1.59-4.42ZM243.77,111.86c.45-1.06.9-2.12,1.36-3.18l.6.2c.45,3.07-1.29,5.68-2.25,8.61,2.62-.1,5.02-.13,6.5-2.6,1.63-2.7,3.33-5.36,4.98-8.05.41-.67.75-1.38,1.34-2.48-1.2.92-1.97,1.51-2.75,2.1-.22-.24-.44-.48-.66-.71.63-.39,1.32-.7,1.88-1.17,2.22-1.86,4.42-3.76,6.58-5.68.29-.26.36-.76.54-1.15-.43.06-.9.02-1.27.19-1.31.59-2.58,1.25-3.87,1.89-.07-.13-.14-.25-.21-.38,1.33-.99,2.67-1.98,4-2.98-.96.14-1.79.65-2.64.67-1.31.03-2.05.65-2.73,1.64-2.38,3.52-5.45,6.42-9.11,8.49-1.97,1.11-2.42,2.6-2.28,4.6ZM37.63,127.86v1.28c.59-.13,1.17-.33,1.76-.36,2.05-.12,2.84-2.12,4.44-2.92,5.05-2.52,10.1-5.06,15.14-7.61.66-.33,1.29-.73,1.94-1.09-.07-.13-.13-.25-.2-.38-.19.04-.39.05-.56.14-4.38,2.06-8.75,4.14-13.14,6.18-2.15.99-4.32,1.93-6.52,2.8-.8.32-1.73.44-2.02-.99,3.89-1.71,7.77-3.41,11.65-5.12-.05-.17-.09-.34-.14-.51-.78.15-1.58.23-2.33.46-3.43,1.07-6.84,2.23-10.28,3.25-.69.2-1.53-.07-2.29-.12-.01-.2-.02-.4-.04-.6,3.85-1.35,7.71-2.7,11.56-4.05-.36-1.4-.91-1.74-2.06-1.19-2.18,1.05-4.41,2-6.64,2.95-1.66.7-3.35,1.32-5.29,2.08,1.28,1.71,2.37,3.22,3.52,4.68.29.37.78.59,1.49,1.11ZM30.93,96.73c3.2.42,6.36.84,9.62,1.28-.3.26-.59.5-.93.79,2.09.26,7.86-2.13,8.88-3.71.15-.23-.07-1.04-.3-1.13-1.53-.61-3.08-1.29-4.69-1.58-1.99-.36-4.09-.17-6.07-.56-1.76-.35-2.88.34-3.88,1.53-.88,1.04-1.68,2.14-2.63,3.37ZM177.56,118.07c.15-.11.31-.22.46-.33,1,1.12,2,2.25,3,3.37.14-.12.29-.23.43-.35-.79-1.72-1.58-3.44-2.48-5.4-1.54,1.34-2.89,2.5-4.2,3.63.53.94.96,1.72,1.39,2.49-.13.09-.26.17-.38.26-.71-.66-1.43-1.32-2.14-1.98-.07.08-.15.16-.22.24.37.83.75,1.66,1.12,2.49-.11.07-.22.14-.32.21-.75-.59-1.5-1.17-2.25-1.76-.16.5-.14.89.05,1.01,1.24.81,1.46,2.2,2.06,3.38,1.39,2.75,1.42,2.74,3.87,1.97.06-.02.17.1.25.15-.13.68-.26,1.36-.4,2.04.14.04.28.09.42.13,1.44-2.12,1.79-4.69,2.8-7.48-1.3.55-2.3.98-3.3,1.41-.04-.06-.08-.13-.13-.19.73-.63,1.47-1.27,2.21-1.91-.81-1.23-1.53-2.31-2.25-3.4ZM216.32,46.12c-.14-.05-.29-.1-.43-.15-1.62,3.32-3.38,6.59-4.81,9.99-1.45,3.45-1.59,7.16-1.57,11.07,5.87-6.06,6.35-13.48,6.81-20.91ZM193.32,204.34c-.11.11-.22.22-.33.34.24.29.42.69.72.84,3.12,1.54,5.46,4.65,9.41,4.58.87-.02,1.75.69,2.62.65,7.96-.34,15.37-2.35,21.67-7.5,1.45-1.18,2.86-2.41,4.28-3.62l-.4-.5c-.45.32-.93.61-1.36.96-5.61,4.46-11.9,7.36-18.96,8.81-3.93.81-7.48-.17-11.01-1.37-2.31-.78-4.43-2.11-6.63-3.19ZM248.56,175.62c.15-.06.3-.12.45-.17-.09-.66-.21-1.32-.27-1.99-.31-2.96-.68-5.91-.87-8.88-.08-1.23-.43-1.81-1.55-1.46-1.57.49-3.15,1.31-3.48,3-.38,1.94-.83,4.15.96,5.75,1.5,1.35,3.17,2.51,4.77,3.76ZM191.62,171.7c-.25-1.27-.42-2.27-.65-3.25-.07-.29-.25-.61-.48-.79-2.23-1.85-6.65-1.53-8.47.73-.42.53-.53,1.55-.35,2.23.11.41,1.02.65,1.6.9.34.14.73.18,1.11.18,2.39.02,4.77,0,7.24,0ZM179.09,175.78c1.28.78,2.59,2.01,3,1.76,1.68-1.02,3.74.44,5.24-1.02.09-.08.48.18.73.22.35.06.82.24,1.06.08,1.04-.64,1.65-2.26,3.34-1.4.05.02.24-.19.34-.32.5-.67.99-1.34,1.61-2.2-3.52,0-6.76,0-9.99.01-.23,0-.61.14-.67.3-.53,1.41-1.69,1.63-2.97,1.76-.42.04-.8.36-1.69.79ZM297.7,197.79c.03-.2.06-.4.09-.6-5.95-1.43-11.91-2.85-17.77-4.26-.54.67-.92,1.14-1.45,1.8.75.2,1.3.34,1.85.5,3.51.99,7.18,1.63,10.49,3.08,2.64,1.15,4.58.06,6.79-.52ZM46.06,98.52c-1.94.51-3.96,1.25-6.05,1.51-1.82.22-3.81.91-5.49-.76-.61-.61-1.6-.84-2.78-1.42.49,1.07.83,1.76,1.13,2.48.54,1.32,3.97,3.19,5.38,3.11,3.65-.19,5.82-2.61,7.82-4.92ZM173.94,178.64c-2.72-.44-5.03-.85-7.35-1.17-1.37-.19-2.77-.34-4.15-.29-.38.01-1.09.84-1.03,1.18.1.52.78,1.36,1.14,1.33,3.29-.32,6.22.69,9.13,2.43.74-1.15,1.42-2.19,2.25-3.48ZM241.34,170.59c.05-.1.1-.2.15-.31,0-1.48.04-2.95-.03-4.42-.02-.36-.28-.89-.57-1.01-.93-.4-1.91-.8-2.9-.93-1.59-.2-2.98,1.36-2.35,2.54.44.83,1.07,1.55,1.65,2.36.19-.28.31-.46.36-.53,1.13,1.17,2.19,2.27,3.24,3.37.13-.1.26-.2.38-.31-.31-.62-.62-1.25-.94-1.87.14-.12.27-.24.41-.35.2.49.39.98.59,1.47ZM205.86,165.08c-1.4-.78-2.66-1.49-3.92-2.18-2.78-1.53-3.59-1.49-6.25.24,4.32.01,5.78,2.98,6.69,6.6,1.15-1.53,2.25-3.01,3.49-4.66ZM133.78,156.55c-.71.93-1.36,1.78-2.01,2.63-.11-.1-.23-.2-.34-.3.45-.69.94-1.37,1.35-2.08.37-.63.66-1.29.99-1.94-3.73,1.66-3.99,2.53-2.12,5.6.22.37.42.75.64,1.12,1.15,1.9,3.15,3.76,4.42,4.16-.91-2.85-1.84-5.76-2.93-9.19ZM207.48,64.04c.75-3.05,1.17-6.12,2.3-8.91,1.13-2.79,2.96-5.29,4.64-8.19-2.48,1.11-3.47,1.85-4.2,3.79-1.29,3.4-2.44,6.86-3.53,10.33-.33,1.05-.32,2.25.8,2.99ZM162.83,163.05c-.17.06-.33.12-.5.18-.49-.47-.98-.93-1.45-1.39-.93.4-1.81.77-2.89,1.23.56-1.5,3.7-1.67,1.5-4.04-1.28.81-2.52,1.58-3.76,2.36,2.17,3.24,4.69,3.94,7.5,2.26,1.87-1.11,1.91-1.51.28-3.35-.4.27-.82.55-1.1.74.17.8.3,1.4.43,2ZM153.05,209.88c-1.77-5.04-2.83-10.3-5.65-14.89.21,5.6,1.56,10.78,5.65,14.89ZM282.46,80.3c-.15-.11-.29-.22-.44-.34-.2.16-.42.29-.59.48-2.73,2.95-5.47,5.88-8.16,8.87-.35.39-.42,1.03-.61,1.55,4.57-2.52,7.62-6.17,9.81-10.56ZM34.04,119.77c3.3-1.36,6.25-2.57,9.21-3.79q-.93-1.79-2.67-1.2c-.56.19-1.11.45-1.69.51-2.51.29-3.83,1.88-4.84,4.47ZM285.1,204.67c-4.93.68-9.67,1.82-13.44,5.65.55.14,1.04.45,1.32.32,4.06-1.96,8.08-3.97,12.12-5.97ZM152.62,158.43c-.09.21-.18.43-.26.64.64.48,1.25,1.03,1.95,1.42.35.19.97.29,1.27.1,1.05-.64,2.13-1.31,2.96-2.19.33-.36.2-1.34-.01-1.94-.09-.27-1-.53-1.35-.37-1.55.7-3.04,1.54-4.55,2.34ZM109.73,128.68c.3,1.11.83,1.24,1.7.75,1.39-.79,2.82-1.51,4.25-2.25,1.06-.55,2.14-1.06,3.21-1.59-.02-.21-.05-.43-.07-.64-1.04-.07-2.28-.54-3.07-.13-2.08,1.07-3.97,2.51-6.01,3.86ZM68.54,144.46c.21-.04.42-.09.62-.13.68-1.15,1.36-2.3,2.03-3.45.67-1.14,1.33-2.28,2.04-3.49-.71-.48-1.27-.85-1.8-1.21-1.79,1.95-1.71,4.67-3.37,6.54-.22.24.3,1.15.48,1.74ZM36.72,163.56c-1.53-1.88-2.9-3.56-4.55-5.6-.4.93-1.06,1.76-.87,2.12.99,1.75,2.2,3.37,3.39,5.12.79-.64,1.36-1.1,2.03-1.63ZM48.55,151.75c-2.66,3.16-2.74,3.7-1.01,4.95,1.12.81,3.1,0,4.27-1.94-.74-.17-1.38-.31-2.07-.46-.25-.54-.66-1.41-1.19-2.55ZM156.4,217.74c1.16-1.09,1.82-.53,2.39.31.88,1.28,1.77,2.55,2.64,3.83.56.82,1.1,1.66,1.65,2.49-1.6-4.5-6.45-10.75-9.44-12.6.92,2,1.77,3.84,2.76,5.98ZM251.27,177.97c.72,1.84.97,4.04,3.56,4.08,1.91.03,3.92.72,5.66-.69-3.48-.09-6.41-1.54-9.21-3.39ZM126.14,146.43c1.77.11,3.53.23,5.28.34-.95-1.76-2.32.4-3.48-.71.65-.48,1.24-.93,1.83-1.37-.07-.13-.14-.25-.2-.38-2,.28-3.55,1.6-5.36,2.39.33.68.57,1.19.84,1.75h-1.35c.84.73,1.46,1.26,2.06,1.77q1.85-1.73.38-3.79ZM73.44,126.13c1.27,1.66,2.46,3.2,3.67,4.79.7-.46,1.26-.83,1.89-1.25-.74-.98-1.5-1.87-2.14-2.83-1.23-1.84-1.2-1.85-3.42-.71ZM131.88,129.63c-3.86-1.23-6.51.63-9.45,2.26.55.63.95,1.09,1.51,1.73,1.02-.9,1.91-1.69,2.9-2.57,1.71.67,2.99-1.2,5.04-1.42ZM55,137.58c.3-1.28.58-2.49.86-3.67.78.25,1.15-.13,1.31-2.07-1.87.65-3.71,1.3-5.67,1.98.24.45.43.8.62,1.15.56-.3,1.02-.55,1.48-.8l.43.11c-.77,1.31-1,2.47.97,3.29ZM306.63,93.56c-.84.57-1.52.98-2.14,1.46-.34.27-.87.7-.83,1,.26,2.11-.83,3.55-2.17,4.93-.17.17-.18.48-.32.86,2.65-1.05,5.4-5.16,5.46-8.25ZM41,134.42c1.77-2.04,3.19-3.67,4.6-5.29-.09-.11-.18-.22-.27-.33-1.76.67-3.53,1.34-5.53,2.1.41,1.19.78,2.27,1.2,3.52ZM162.88,165.28c.03.17.05.35.08.52.71.09,1.57.48,2.1.21,1.62-.81,3.13-1.85,4.63-2.88.22-.15.23-.76.14-1.1-.03-.13-.69-.29-.91-.17-2.03,1.11-4.03,2.27-6.04,3.42ZM150.06,156.81c0,.15-.02.31-.03.46.75.17,1.66.68,2.21.43,1.64-.75,3.15-1.79,4.67-2.78.27-.17.34-.66.5-1-.36-.09-.82-.37-1.08-.24-2.11,1-4.18,2.08-6.27,3.13ZM37.32,155.39c.49-1.28.8-2.44,1.36-3.46.72-1.32.34-2.08-.88-2.67-2.59,2.99-2.71,4.14-.48,6.13ZM52.54,150.43c-1.71,2.21-1.7,3-.05,4.2.94.69,1.65.14,2.21-.51.87-1.02.2-2.14-2.16-3.68ZM34.5,145.3c-1.2,2.17-2.38,4.09-3.32,6.12-.22.47.34,1.31.64,2.28,2.1-3.33,3.38-7.15,2.68-8.4ZM33.49,143.62c-.24-.08-.48-.17-.72-.25-1,1.88-2.07,3.72-2.93,5.65-.21.47.24,1.25.38,1.88.22,0,.43,0,.65,0,.52-2.55,2.81-4.48,2.62-7.28ZM165.87,161.88c3.94-1.71,3.78-1.97,2.54-3.84-3.39.87-3.85,1.54-2.54,3.84ZM130.7,133.45c2.2-1.3,4.37-2.58,6.55-3.87-.65-.21-1.26-.3-1.77-.11-1.5.57-2.95,1.24-4.41,1.89-1.38.62-1.42.92-.36,2.08ZM128.29,127.26c.02-.11.03-.23.05-.34-.78-.11-1.67-.52-2.32-.27-1.55.58-2.99,1.43-4.45,2.24-.25.14-.35.55-.52.84.36.09.8.34,1.08.23,2.07-.85,4.11-1.78,6.16-2.69ZM72.21,130.57c1.77-1.87,1.87-2.4.54-3.77-1.09-1.13-1.97.04-3.18.4.95,1.22,1.78,2.28,2.63,3.37ZM64.08,129.18c-2.85,1.42-2.04,3.04.01,4.53q1.72-1.55-.01-4.53ZM207.13,115.97c2.59-.16,5.07-.62,7.13-2.96-3.28-.71-4.86,1.99-7.13,2.96ZM163.26,155.42c.18.02.24.05.28.03.58-.25,1.17-.51,1.75-.77,1.83-.82,1.85-.92.68-2.61-3.5.82-3.88,1.28-2.71,3.34ZM229.33,187.14c-.57-.59-1.13-1.6-1.59-1.55-1.24.13-2.43.7-3.73,1.13,1.68,2.02,2.06,2.04,5.32.42ZM108.76,108.06c.12.2.24.4.36.61,2.71-1.46,6-1.95,7.65-5.19-2.67,1.53-5.34,3.06-8.01,4.58ZM61.26,147.32c-1.96,2.02-1.81,3.1.58,4.3,1.58-2.52,1.5-3.16-.58-4.3ZM55.57,150.87c1.56-2.06,1.3-3.13-.96-4.29-1.62,1.96-1.53,2.4.96,4.29ZM39.74,148.79c1.97-2.32,2.35-4.25.99-5.12-2.29,3.78-2.77,4.27-.99,5.12ZM164.5,158.68c1.33-.7,2.44-1.29,3.52-1.86-.58-2.03-1.92-1.95-4.28.14.22.49.45,1.02.76,1.72ZM248.12,187.46c-.23-.08-.47-.16-.7-.24-.32,1.86-3.1,1.09-3.12,3.45,1.49-.26,3.3.63,4.03-1.41.18-.51-.13-1.2-.21-1.8ZM42.38,153.5c-.26-.08-.52-.17-.78-.25-.7,1.18-1.4,2.36-2.09,3.54-.72,1.22-.64,1.45.89,2.47.67-1.96,1.32-3.86,1.97-5.76ZM74.38,129.46c-1.37,2.41-1.01,3.69,1.17,4.33.37-.6.75-1.22,1.12-1.84-.81-.88-1.49-1.62-2.29-2.49ZM301.73,196c-2.63-1.43-4.71-1.76-6.12-.89,1.15.67,2.27,1.31,3.34,1.93.91-.34,1.83-.69,2.77-1.04ZM56.81,142.37c-1.66,2.27-1.58,2.76.63,4.39,1.65-2.39,1.62-2.64-.63-4.39ZM35.03,154.22c-1.6,2.07-1.39,3.09.88,4.87,1.3-1.87.24-3.28-.88-4.87ZM277.26,81.03c2.82-1.88,4.26-4.29,3.44-5.79-1.44,1.71-2.94,3.3-3.44,5.79ZM223.76,181.68c1.8,2.72,2.23,2.95,3.65,2.12-1.31-3.41-1.44-3.49-3.65-2.12ZM31.68,130.35c-2.21,2.94-2.35,3.52-1.25,4.87,2.01-2.7,2.27-3.65,1.25-4.87ZM232.92,198.15c1.93-1.7,4.87-1.96,6.48-4.68-3.14.61-4.71,2.82-6.48,4.68ZM128.66,149.68c-2.55.82-2.71,2.21-.67,4.32.78-.91,1.55-1.8,2.32-2.69-.11-.11-.23-.23-.34-.34-.82.46-1.64.92-2.46,1.37-.11-.14-.21-.29-.32-.43.49-.74.98-1.49,1.48-2.23ZM220.71,182.51c.62,3.02,1.42,3.51,3.69,2.06-1.31-.65-1.62-2.73-3.69-2.06ZM225.04,179.23c-.92-2.15-1.48-2.19-3.49-.36.76,1.62,1.19,1.67,3.49.36ZM211.4,112.38c-.11-.2-.22-.4-.33-.6-2.58,1.42-5.16,2.83-7.74,4.25.12.21.24.42.35.64,2.57-1.43,5.15-2.86,7.72-4.28ZM62.62,136.41c1.17-1.42.9-2.4-1.02-3.67-1.08,1.71-.93,2.25,1.02,3.67ZM58.77,139.02c-1.72,1.5-1.51,2.49.7,3.59,1.39-1.45.32-2.45-.7-3.59ZM35.56,144.59c2.01-2.02,2.79-4.5,1.73-5.47-.49,1.77-1.99,3.15-1.73,5.47ZM45.02,154.2c2.1-1.96,2.46-3.33,1.1-4.21-1.77,2.49-1.97,3.25-1.1,4.21ZM60.22,135.85c-1.42,1.83-1.34,2.19.68,3.69,1.31-1.68,1.24-2.11-.68-3.69ZM72.77,133.34c-1.12,1.52-.91,2.33.85,3.29,1.53-1.73,1.52-1.79-.85-3.29ZM52.67,137.39c-1.53,2.19-1.51,2.59.07,3.63,1.6-1.86,1.6-2.26-.07-3.63ZM50.33,145.25c1.77-2.15,1.78-2.36.32-3.74-1.62,1.65-1.71,2.39-.32,3.74ZM123.16,126.34c-.08-.21-.16-.43-.25-.64-2.56.79-4.74,2.37-7.07,3.63.06.13.13.27.19.4,2.38-1.13,4.75-2.26,7.13-3.39ZM120.67,146.73c-.93-1.18-1.64-2.17-2.46-3.08-.18-.2-.74-.17-1.06-.06-.13.05-.21.71-.07.92.78,1.14,1.59,2.31,3.59,2.21ZM58.97,150.77c-.52,1.08-.86,1.8-1.39,2.89,1.45-.2,2.47-.33,3.49-.47.03-.17.06-.33.08-.5-.65-.57-1.3-1.15-2.19-1.93ZM301.82,59.62c-2.48,1.17-2.97,1.83-2.75,3.61,1.45-.75,2.84-1.48,2.75-3.61ZM44.82,138.5c.54-1.07,1.03-1.94,1.42-2.85.1-.22-.03-.63-.19-.85-.1-.13-.49-.14-.71-.07-1.1.37-1.57,2.64-.52,3.76ZM193.73,163.03c-1.64.67-3.34,1.37-5.34,2.2.98.5,1.59.82,2.21,1.12.08.04.21,0,.02,0,1.12-1.19,2.09-2.23,3.11-3.32ZM47.94,149.38c1.81-2.16,1.83-2.37.38-3.46-1.62,1.74-1.72,2.45-.38,3.46ZM165.4,150.84c.02-.21.04-.42.06-.63-.46-.1-1.02-.42-1.37-.27-.9.38-1.7.98-2.54,1.49.31.22.7.68.92.61,1-.32,1.96-.79,2.93-1.21ZM139.65,152.62c1.22,1,3.76-.36,4.67-2.61-1.5.84-3,1.68-4.67,2.61ZM67.6,147.89c.43-1.06.79-1.96,1.17-2.9-.57-.29-.98-.5-1.37-.69-1.48,2-1.48,2.22.2,3.59ZM212,117.03c.16.06.33.12.49.19,1.31-1,2.62-2,3.93-3-.14-.21-.27-.42-.41-.63-1.28.8-2.58,1.57-3.81,2.43-.2.14-.14.66-.19,1.01ZM128.91,156.24c.21.02.42.04.63.06.65-.71,1.35-1.38,1.92-2.15.26-.35.27-.89.39-1.34-.4.15-.86.22-1.18.47-.55.42-1.1.9-1.47,1.47-.26.39-.2.99-.29,1.49ZM50.21,151.88c1.41-2.05,1.47-2.71.37-3.47-1.85,1.89-1.92,2.39-.37,3.47ZM32.65,139.62c.81-1.46,2.31-2.64,1.99-4.57-.9,1.43-2.46,2.58-1.99,4.57ZM288.44,69.02c2.39.33,4.59-1.32,4.23-2.9-1.35.93-2.68,1.83-4.23,2.9ZM64.97,144.7c1.37-1.6,1.35-1.86-.22-3.07-1.54,1.42-1.52,1.69.22,3.07ZM36.42,159.91c.49.71.89,1.46,1.47,2.04.21.22.87.12,1.25-.03.14-.06.18-.75.03-1.04-.49-1-1.24-1.62-2.75-.97ZM65.72,147.7c-1.09.82-.82,1.49-.14,2.1.64.56,1.14,1.7,2.5.56-.82-.92-1.59-1.79-2.36-2.66ZM160.65,157.52c.61-.73,1.3-1.24,1.22-1.54-.15-.61-.73-1.1-1.14-1.65-.41.34-1.21.74-1.17,1.02.09.65.58,1.24,1.09,2.17ZM59.86,110.42c1.52-.51,2.55-.85,3.69-1.23-1.55-1.01-2.93-1.29-3.46-.62-.27.34-.14.99-.23,1.85ZM33.2,129.87c1.79-1.89,1.84-2.25.4-3.43-.5,1.09-1.8,1.99-.4,3.43ZM58.07,114.93c.09.2.17.4.26.59,1.72-1.06,4.2-.4,5.33-2.79-1.86.73-3.73,1.46-5.59,2.19ZM171.57,156.65c-1.97.46-2.1.82-.98,2.56,1.92-.58,1.96-.68.98-2.56ZM46.54,140.59c1.76-2.38,1.82-2.65.8-3.69-1.35,1.61-1.62,2.72-.8,3.69ZM34.16,142.2c.18.07.35.14.53.21.67-1.53,1.34-3.05,2.01-4.58-.22-.09-.43-.17-.65-.26-.57,1.57-2.31,2.68-1.89,4.63ZM176.23,163.38c.64-.96,1.52-1.68,1.52-2.41,0-.97-.87-.48-1.46-.22-1.15.5-1.22,1.19-.06,2.63ZM68.77,130.97c1.89-1.39.57-2.29,0-3.23-.11-.18-.93.04-1.41.14-.11.02-.15.33-.23.51.41.04.81.07,1.22.12.14.02.28.09.18.06.09.89.17,1.65.25,2.41ZM140.82,134.06c1.38-1.19,2.61-2.26,3.85-3.32-2.85.68-4.28,1.91-3.85,3.32ZM66.24,136.45c1.65-1.7,1.69-2.07.29-3.03-1.45,1.61-1.49,2.05-.29,3.03ZM131.21,125.08c-2.04-1.39-4.07-2.78-6.44-4.39,1.66,2.59,3.91,3.67,6.44,4.39ZM38.81,138.42c1.72-1.92,1.77-2.35.36-3.82-.13,1.33-1.65,2.24-.36,3.82ZM104.7,137.87c-1.91,1.34-1.91,1.68-.03,2.9,1.5-.97.67-1.91.03-2.9ZM43.15,139.5c-1.69,1.62-1.82,2.34-.59,3.47.37-1.13,1.85-1.99.59-3.47ZM219.32,117.14c-.15-.16-.3-.31-.44-.47-.88.81-1.77,1.62-2.65,2.43,2.06.55,2.54-.74,3.09-1.96ZM68.52,135.55c-1.69,2.01-1.7,2.19-.25,3.31.06-1.14,1.8-1.91.25-3.31ZM251.09,170.37c.14-.01.28-.03.42-.04-.29-1.57-.59-3.14-.88-4.72l-.6.12c-.55,1.72.71,3.09,1.05,4.64ZM231.25,191.28c-.52-2.38-1.01-2.6-3.42-1.56,1.2.55,2.23,1.01,3.42,1.56ZM296.91,62.97c-1.07.93-2.57,1.16-2.36,2.91,2.13-.75,2.33-.97,2.36-2.91ZM162.5,157.06c-.66.7-1.21,1.07-1.39,1.56-.1.29.33,1.08.62,1.14.47.09,1.02-.25,1.68-.44-.29-.73-.5-1.25-.91-2.26ZM63,144.54c-1.21,1.32-1.08,1.7.81,2.85,1.16-1.31,0-1.96-.81-2.85ZM31.04,137.27c.24.1.48.19.72.29.68-1.42,1.36-2.84,2.05-4.26l-.71-.32c-.68,1.43-1.37,2.86-2.05,4.29ZM139.93,149.62c1.48,1.55,2.15.06,3.15-.46-1.37-1.47-2.06-.06-3.15.46ZM31.37,127.45c.16.05.31.1.47.15,1.7-1.6,1.79-2.08.46-3.43-.33,1.17-.63,2.23-.93,3.28ZM66.54,138.86c-1.33,1.23-1.31,1.65.14,2.73.64-.9,1.39-1.76-.14-2.73ZM180.69,164.78c.57-.77,1.03-1.38,1.48-1.99-.4-.19-.9-.65-1.19-.54-1.07.4-1.21,1.19-.29,2.53ZM185.39,161.73c.11-.23.23-.45.34-.68-.41-.19-.89-.6-1.23-.5-.53.15-.97.64-1.44.98.27.35.59,1.02.78.98.55-.11,1.03-.5,1.55-.78ZM136.35,145.52c.99,1.43,1.18,1.42,2.47-.04-.77-1.36-1.56-.9-2.47.04ZM171.31,155.08c-.48-.53-.86-1.16-1.06-1.11-.49.13-.89.57-1.33.89.28.38.57,1.08.84,1.07.47-.02.92-.47,1.55-.85ZM42.43,151.83c.25.11.5.22.75.33.58-1.27,1.15-2.53,1.73-3.8l-.61-.28c-.62,1.25-1.25,2.5-1.87,3.75ZM163.71,148.73c-1.25-1.23-2.05-.4-2.84.02-.2.11-.25.49-.37.75.27.11.59.36.8.29.74-.25,1.43-.62,2.41-1.06ZM39.85,142.03c-.24-.1-.47-.19-.71-.29-.64,1.4-1.27,2.81-1.91,4.21.18.08.37.16.55.24.69-1.39,1.37-2.77,2.06-4.16ZM171.7,163.46c.52.58.85.95,1.25,1.4.62-.82,1.72-1.32.63-2.55-.57.35-1.1.67-1.88,1.14ZM173.37,157.63c1.56-.19,2.3-.48,1.79-1.56-.15-.32-.78-.41-1.19-.6-.17.62-.34,1.25-.6,2.16ZM64.21,149.9c-.41.84-.73,1.49-1.25,2.53,1.23-.4,2-.65,3.07-1-.71-.6-1.18-.99-1.82-1.53ZM139.96,151.08c-.93-1.47-1.79-.75-2.74-.21.85,1.4,1.71,1.42,2.74.21ZM217.94,175.17c1.5.89,2.25.07,3.3-.62-1.35-1.08-2.11-.13-3.3.62ZM35.47,133.92l.68.12c.43-.7.87-1.41,1.3-2.11-.08-.14-.15-.28-.23-.43-.46.13-1.17.12-1.33.41-.3.58-.3,1.32-.42,2ZM53.58,144.79l-.7-.43c-.43.75-.9,1.48-1.26,2.26-.05.11.39.45.79.88.47-1.08.82-1.9,1.18-2.71ZM155.33,129.15c-.03.18-.07.37-.1.55.86.33,1.45,2.12,2.76-.07-.89-.16-1.78-.32-2.67-.48ZM186.89,161.33c.63-.6,1.09-.93,1.36-1.37.07-.11-.55-.89-.76-.85-.44.08-.96.43-1.17.82-.12.23.28.74.57,1.41ZM58.04,133.02c-.25,1.16-.43,2.03-.62,2.89,1.83-1.06,1.93-1.62.62-2.89ZM43.67,144.79c1.76-.96,2.04-1.88,1.03-2.95-.37,1.07-.7,2.01-1.03,2.95ZM71.22,130.84c-.2.02-.4.05-.6.07-.8,1.49-.79,1.56.85,2.54-.1-1.08-.18-1.85-.25-2.61ZM41.03,150.19l.54.24c.64-1.3,1.27-2.6,1.91-3.91-.22-.1-.45-.2-.67-.3-.59,1.32-1.19,2.64-1.78,3.97ZM171.73,162.26c.51-.73.91-1.31,1.32-1.88-.36-.06-.75-.24-1.06-.15-.83.24-1.31.71-.26,2.03ZM28.98,132.16c.18.09.36.19.55.28.57-1.19,1.13-2.38,1.7-3.56-.21-.09-.42-.19-.62-.28l-1.62,3.56ZM63.2,139.61c-1.12,1.38-1.14,1.48-.46,2.43,1.39-1.32,1.4-1.38.46-2.43ZM50.9,134.78c-.39,1.27-.67,2.21-.96,3.15.17.04.34.09.51.13.42-.91,1.8-1.57.45-3.28ZM194.33,161.13c-.04-.31-.08-.61-.12-.92-.74.09-1.49.16-2.23.3-.04,0,.02.56.03.86.77-.08,1.55-.16,2.32-.24ZM64.8,136.71c-1.26,1.42-1.26,1.44-.04,2.34.7-.72,1.34-1.42.04-2.34ZM156.81,150.46c.66,1.56,1.42.84,2.03.5.22-.12.21-.64.31-.98-.74.15-1.49.31-2.33.48ZM181.34,159.83c-.64-.4-1.08-.87-1.33-.78-.38.14-.7.62-.9,1.02-.05.1.53.73.72.68.44-.11.83-.48,1.5-.92ZM167.24,165.98c1.9.54,2.66-.4,3.4-1.39-.08-.15-.16-.29-.23-.44-.95.54-1.89,1.09-3.17,1.82ZM59.85,133.12c.41-1,.66-1.61.91-2.22-.11-.09-.22-.18-.32-.27-.6.23-1.2.46-2.02.78.49.59.81.97,1.43,1.71ZM161.51,146.8c-.85-.96-1.05-.95-2.33.12.79.98.86.98,2.33-.12ZM144.74,183.42l.49-.1c-.33-1.51-.66-3.02-.98-4.52l-.67.17c.39,1.49.77,2.97,1.16,4.46ZM48.55,136.07c.17,0,.34-.02.51-.03.33-.61.66-1.22.99-1.83-.11-.13-.21-.26-.32-.39-.52.31-1.15.52-1.5.96-.17.21.2.84.32,1.28ZM179.53,164.98c-.27-.48-.54-.95-.81-1.42q-2.06.98-1.45,2.04c.49-1.17,1.19-1.33,2.26-.62ZM276.08,83.04c-.17-.14-.35-.28-.52-.43-.74.96-1.48,1.91-2.22,2.87l.39.31c.79-.92,1.57-1.83,2.36-2.75ZM216.76,179.38c-1.67-.74-2.38-.26-2.4,1.42.78-.46,1.47-.87,2.4-1.42ZM159.9,151.91c-.25-.17-.51-.33-.76-.5-.27.56-.59,1.1-.77,1.69-.04.13.56.64.67.58.48-.24.92-.6,1.3-1,.06-.06-.29-.51-.44-.78ZM198.38,117.23c-.09-.18-.17-.35-.26-.53-1.29-.51-1.66.67-2.38,1.22.08.16.16.32.24.49.8-.39,1.59-.79,2.39-1.18ZM217.22,171.9c-.83-.61-1.35-.99-2.27-1.66.16,1.11.25,1.76.37,2.62.62-.32,1.07-.55,1.89-.96ZM176.64,157.94c-.78.41-1.47.77-2.13,1.17-.03.02.18.41.27.63.68-.39,1.36-.79,2.03-1.18.01,0-.03-.1-.17-.62ZM40.07,140.23c1.65-.8,1.93-1.55,1.2-2.77-.45,1.04-.83,1.91-1.2,2.77ZM219.98,176.97c.11.25.22.51.34.76.89-.45,1.79-.91,2.68-1.36-.08-.17-.17-.35-.25-.52-.92.37-1.84.75-2.77,1.12ZM188.39,164.44c.41-.71.73-1.24.98-1.8.03-.07-.52-.53-.59-.48-.49.31-.93.71-1.39,1.08.17.21.35.42,1,1.2ZM35.79,129.3c-.25-.09-.49-.19-.74-.28-.34.83-.69,1.66-1.03,2.49l.61.25c.39-.82.77-1.64,1.16-2.46ZM55.62,140.65l-.69-.29c-.35.82-.69,1.64-1.04,2.46.21.09.43.18.64.26.36-.81.73-1.63,1.09-2.44Z"/>
      <path class="cls-1" d="M73.35,107.62c1.39-1.44,2.81-2.86,4.17-4.34,1.01-1.1.86-2.05-.41-2.94-1.36-.96-2.59-2.09-3.94-3.06-.48-.35-1.13-.47-1.71-.66-.58-.19-1.17-.33-1.98-.56,1.27-1.15,2.33-2.11,3.6-3.25-1.32-.64-2.26-1.09-3.2-1.55.03-.1.06-.2.09-.3.66.19,1.31.38,1.97.58,1.64.49,2.22.09,2.43-1.64.05-.4.17-.8.33-1.51-3.01-.67-6.05-1.35-8.93-2,1.14-1.63,5.07-1.09,9.97,1.92,0-.73.24-1.49-.04-1.84-1.62-2.07-3.23-4.23-6.13-4.59-.79-.1-1.6,0-2.4,0-.49,0-.98,0-1.71,0,3.53-3.24,10.09,1.75,11.98,6.47.92-.65,1.79-1.25,2.64-1.86.13-.09.25-.32.34-.3,2.31.44,3-1.6,4.3-2.74,1.66-1.44,3.39-2.8,5.15-4.12.54-.4,1.27-.65,1.94-.73,2.9-.33,5.11-1.76,6.88-4.02,2.71-3.46,6.12-5.62,10.66-5.76,1.96-.06,3.92-.4,5.91-.47-1.55,1.26-3.3,1.93-5.28,1.88-3.57-.09-6.2,1.74-8.71,3.98.94,1.44,1.83,2.79,2.71,4.14l-.44.46c-1.19-.79-2.38-1.59-3.58-2.38-.06.05-.13.09-.19.14.8,1.17,1.59,2.35,2.39,3.52-.12.15-.25.3-.37.44-.68-.41-1.4-.76-2.03-1.23-1.96-1.44-1.95-1.46-4.23.15.68.95,1.36,1.91,2.05,2.87-.07.08-.15.15-.22.23-.56-.22-1.11-.44-1.67-.66-.07.07-.13.15-.2.22.65.79,1.3,1.58,2.07,2.52.66-.79,1.24-1.48,1.83-2.18.17.1.34.2.51.3-.98,1.89-1.95,3.78-2.95,5.7-.53-1.05-.93-1.87-1.44-2.88-1.54,2.4-1.5,3.22.17,5.18.53-.37,1.14-.69,1.63-1.14,3.79-3.41,7.52-6.88,11.36-10.22.86-.75,2.01-1.29,3.12-1.57,3.16-.8,6.39-1.34,9.55-2.14.92-.23,1.69-1.02,2.64-1.62-2.6-2.23-4.84-4.13-7.04-6.09-.33-.3-.44-.85-.65-1.29.46.12,1.03.11,1.36.38,1.82,1.51,3.58,3.09,5.36,4.64.4.35.78.7.86.77,1.6-.81,2.92-1.52,4.28-2.17,1.92-.92,2.61-2.8,3.47-4.5.46-.9.71-1.92.93-2.91.08-.39-.05-.99-.32-1.26-1.59-1.6-3.24-3.14-4.89-4.69-.89-.84-.9-.83-2.35.15,2.26,1.95,4.48,3.88,6.71,5.8-.16.19-.31.38-.47.57-2.94-1.24-4.87-3.85-7.45-5.96-1.07.85-2.18,1.74-3.47,2.76-.58-1.56-.3-2.86.73-3.79.97-.88,2.17-1.57,3.37-2.13,1.39-.65,2.55-1.37,2.74-3.06.04-.36.22-.73.44-1.02,1.57-2.08,5.63-3.45,8.14-2.79,2.52.67,4.55-.15,5.84-2.44,1.3-2.29,2.64-4.4,5.63-4.81.67-.09,1.75-1.21,1.72-1.81-.12-2.94,1.97-4.35,3.83-5.79,2.39-1.85,4.74-3.74,7.76-4.76,2.49-.84,4.77-2.42,7.02-3.88,2.44-1.58,5.14-2.09,7.91-2.55,2.63-.44,5.25-.99,7.87-1.48.31-.06.68-.21.94-.11,3.03,1.12,6.05.2,9.07,0,.22-.01.45.18,1.05.43-.92.48-1.52.9-2.18,1.12-5.82,1.93-11.64,3.84-17.47,5.72-6.04,1.94-11.67,4.68-16.73,8.54-2.35,1.79-3.58,4.37-4.99,6.84-.64,1.12-1.38,2.26-2.34,3.08-1.15.98-.76,1.87-.2,2.92-2.69-.5-3.04-.07-2.89,2.84.03.58-.49,1.39-1,1.77-3.22,2.34-6.45,4.67-9.78,6.83-1.79,1.17-2.48,2.81-3,4.73-.46,1.7-.99,3.44-1.87,4.94-.63,1.08-1.88,1.79-2.85,2.66-.84.76-2.02,1.35-2.47,2.3-1.24,2.56-3.24,3.39-5.9,3.76-3.97.55-7.92,1.29-11.1,4.21-4.03,3.7-8.2,7.26-12.38,10.79-.95.8-2.2,1.23-3.32,1.83-1.04.55-2.12,1.05-3.12,1.66-1.37.84-2.7,1.76-4.01,2.68-1.49,1.04-3.07,1.98-4.39,3.21-2.59,2.4-5.73,3.72-9.02,4.94ZM185.71,22.16c-.02-.27-.05-.54-.07-.81-.79,0-1.6-.13-2.36.02-2.41.49-4.79,1.14-7.2,1.64-2.95.62-5.88,1.18-8.41,3.04-1.59,1.17-3.32,2.23-5.14,2.98-3.04,1.26-5.95,2.69-8.56,4.7-2.01,1.56-4.1,3.02-3.71,6.08.06.45-.41.96-.54,1.46-.11.42-.1.88-.15,1.32.45-.2,1.06-.29,1.31-.64.42-.59.52-1.41.93-2.02,2.9-4.34,6.71-7.74,11.42-9.91,4.33-2,8.83-3.61,13.27-5.38.9-.36,1.81-.71,2.74-.95,2.15-.55,4.31-1.03,6.47-1.54ZM141.8,50.04c-2.75-.28-5.17-.53-7.58-.77-.05.15-.1.3-.15.45,1.37,1.34,2.83,2.6,4.09,4.04,1.54,1.75,2.01,1.77,3.41-.32-.76.12-1.47.24-2.25.37-.47-2.05,1.27-2.48,2.49-3.76ZM138.73,56.02c-2.01-2.07-3.91-4.03-5.91-6.09-.35.24-.8.56-1.25.88,1.95,2.21,3.78,4.28,5.72,6.46.47-.4,1.05-.9,1.45-1.25ZM128.06,55.68c1.61,1.53,3.13,3.01,4.72,4.44.21.19.87.19,1.04,0,.2-.21.25-.87.07-1.06-1.52-1.63-3.1-3.21-4.76-4.9-.44.62-.73,1.03-1.07,1.51ZM135.91,58.81c.12-.23.29-.42.29-.61,0-.22-.09-.49-.24-.65-1.71-1.84-3.41-3.69-5.17-5.47-.21-.22-.79-.08-1.19-.1.08.36.03.84.25,1.06,1.76,1.79,3.56,3.53,5.36,5.27.14.14.32.23.7.5ZM144.66,44.4c-.92,1.69-1.71,3.13-2.5,4.57.16.13.32.26.48.39,1.21-1.08,2.42-2.17,3.74-3.35-.52-.49-.97-.92-1.71-1.62ZM91.51,80.41c1.74,1.93,3.47,3.86,5.41,6.01.08-.55.31-1.09.16-1.25-1.74-1.77-3.39-3.66-5.57-4.76ZM84.49,87.06c2.02-.08,2.95-1.22,3.12-3.75-1.7.73-2.63,1.94-3.12,3.75ZM145.34,43.56c1.09.58,1.57,2.17,3,.97.23-.19.13-1.16-.15-1.5-1.02-1.22-1.81-.28-2.86.52ZM89.53,91.33c-.56.92-1.79,1.5-.64,2.42.36.29,1.63.1,1.9-.28.85-1.22-.58-1.36-1.26-2.14ZM90.49,84.33c1.27-1.89,1.25-2.21-.21-3.03-.23,1.01-1.47,1.99.21,3.03ZM93.94,89.97c-.51,1.16-.87,1.98-1.23,2.81.11.09.23.18.34.27.61-.6,1.27-1.15,1.77-1.83.09-.12-.52-.75-.88-1.25ZM91.1,89.3c-1.16,1.32-1.14,1.43.4,2.27.48-.88.97-1.72-.4-2.27ZM94.22,84.5c-.27-.07-.55-.14-.82-.21-.24.86-.48,1.71-.72,2.57.22.07.45.13.67.2.29-.85.58-1.71.88-2.56Z"/>
      <path class="cls-1" d="M221.4,232.02c1.99-.68,3.32-1.91,4.01-4,.73-2.23,2.89-2.36,4.79-2.65,2.9-.43,5.74-.39,8.58.65,1.93.7,4.03.92,6.14,1.37-.02.09,0,.42-.16.56-1.23,1.15-2.42,2.37-3.78,3.35-.64.46-1.61.46-2.44.63-.92.19-1.86.35-2.8.64,5.72.95,9.96,3.88,12.58,9.25-6.46-8.35-14.36-9-23.64-4.64,1.02.89,1.76,1.53,2.27,1.97,1.16-.48,2.03-1.08,2.96-1.18,3.34-.39,6.66-.16,9.9.83.18.05.33.18.46.7h-11.37c-.03.18-.05.37-.08.55,1.65.83,3.19,1.94,5.22,1.82,3.14-.17,6.19.19,9.4,1.51-.57.25-.86.37-1.12.49,2.64,1.91,5.46,3.5,7.57,5.96-.08.17-.16.34-.24.52-1.45-.2-2.89-.43-4.35-.58-1.55-.16-3.11-.37-4.66-.29-1.39.07-2.49-.3-3.21-1.4-1.97-3.01-4.83-4.72-8.09-6.03-2.52-1.01-4.62-2.65-5.89-5.26-.32-.65-1.45-1.07-2.29-1.27-2.53-.59-4.1-2.14-5-4.4,2.77-3.47-.76-5.18-2.18-7.45.11-.09.21-.19.32-.28.78.37,1.56.73,2.27,1.07,1-1.1,1.96-2.17,3.01-3.33-4.05-.3-5.95-1.15-7.09-3.38,3.71,2.71,7.5,1.01,11.15.93,2.82-.06,5.62-.81,8.45-1.07,2.67-.24,5.16.73,7.3,2.18,2.54,1.71,5.15,1.9,8,1.41,1.19-.2,2.4-.25,3.6-.37l.15.42c-.41.24-.79.62-1.23.71-1.89.4-3.8.95-5.7.97-1.31.01-2.75-.55-3.91-1.24-3.29-1.96-6.61-2.8-10.47-1.91-2.43.56-5.02.48-7.54.56-1.03.03-1.66.3-2.16,1.26-.56,1.08-1.4,2.02-2.07,3.04-.22.33-.48.79-.42,1.14.32,1.97.82,3.89,2.4,5.48,3.39-2.03,2.6-5.84,3.75-8.79-.11,3.38-.28,6.73-2.38,9.59-.25.43-.5.86-.75,1.29-.23-.12-.55-.28-1.19-.6.94,2.4,3.06,2.56,4.6,2.84,1.19.22,2.64-1.04,3.97-1.63-.02-.18-.04-.36-.06-.53-1.98-.29-3.95-.56-5.92-.87-.25-.04-.45-.34-.67-.51ZM241.85,228.41c-6.82-2.29-13.88-1.96-15.76.79.26,0,.46.04.64,0,3.41-.9,6.62-.72,9.68,1.34,1.53,1.03,4.74-.31,5.44-2.12ZM236.42,244.12c-.13.21-.26.42-.39.63.73.83,1.4,1.73,2.2,2.48.43.4,1.06.73,1.64.8,1.69.18,3.4.21,5.11.29.23,0,.47-.09.7-.14.04-.19.07-.39.11-.58-3.12-1.16-6.24-2.32-9.36-3.48ZM235.1,230.84c-3.6-.83-6.75-.85-10.05.34,1.93,1.33,7.35,1.18,10.05-.34Z"/>
      <path class="cls-1" d="M103.06,98.16c-.52-.93-.92-1.65-1.32-2.37.09-.1.19-.2.28-.3,2.13,3.69,5.24,6.01,9.78,6.82-1.58,1.06-2.73.76-3.73.16-1.19-.72-2.4-1.51-3.33-2.52-1.37-1.49-2.9-1.58-4.64-1.1-.77.22-1.57.4-2.29.74-.34.16-.51.67-.8.99-.38.42-.8.82-1.22,1.21-.87.81-1.74,1.62-2.61,2.43.11.15.22.29.33.44,1.05-.58,2.07-1.24,3.16-1.72,2.11-.92,4.26-1.77,6.41-2.57.38-.14,1.08-.08,1.28.17.21.26.1.92-.08,1.3-1.77,3.73-4.56,6.54-8.27,8.28-3.44,1.61-7.01,2.93-10.54,4.34-.25.1-.62-.11-.93-.17.11-.27.13-.68.33-.8,1.59-.96,1.94-2.67,2.41-4.2,1.07-3.5,2.85-6.53,5.72-8.77,2.85-2.22,6.17-3.01,10.05-2.37ZM103.66,101.07c-4.05,1.24-8.58,4.77-9.29,7.1,3.99-1.03,6.7-3.65,9.29-7.1ZM93.4,106.95c-.14-.11-.28-.23-.41-.34-.85,1-1.69,2.01-2.54,3.01.18.15.37.3.55.44.8-1.04,1.6-2.08,2.41-3.12Z"/>
      <path class="cls-1" d="M317.08,205.01c-2.18,2.65-4.21,5.4-7.94,5.91,3.84-2.59,6.63-5.97,8.38-10.48-1.43-.03-2.61,2.05-3.89,0,3.21-1.04,4.67-3.63,5.8-6.53.92-2.35.61-4.51-.8-6.58-.72-1.06-1.41-2.16-1.99-3.31-.72-1.43-.74-2.94.17-4.3.46-.69.92-1.17,1.79-.04.87,1.14,2.3,1.85,3.63,2.87,5.13-4.81,6.17-11.75,9.38-17.54-1.44,5.11-2.6,10.33-5.48,14.88-.67,1.06-1.63,2.01-2.63,2.78-.77.6-.86,1.07-.48,1.88.48,1.02.84,2.09,1.28,3.13,1.01,2.4.79,4.71-.84,6.68-1.59,1.93-3.45,3.64-5.24,5.5,1.64,2.87,1.21,6.97-1.18,9.65-1.38,1.55-3.66,2.33-5.32,1.67,3.45-.76,4.89-3.1,5.36-6.2ZM320.7,194.49c4.83-3.3,1.65-12.4-3.02-14.15,0,1.26-.25,2.45.06,3.47.39,1.25,1.19,2.39,1.94,3.5,1.4,2.09,2.46,4.2,1.02,7.19Z"/>
      <path class="cls-1" d="M288.33,227.51c-6.44-6.83-13.19-13.14-23.43-13.7,2.74-.97,5.33-.87,7.87.13,3.96,1.56,7.43,3.94,10.4,6.94,2.83,2.86,5.44,5.94,7.76,8.5-.95-.16-2.9-.18-4.61-.83-4.31-1.63-8.59-3.37-12.73-5.39-6.09-2.98-12.43-4.77-19.21-4.93-1.04-.03-2.09-.16-3.13-.24-.02-.22-.04-.45-.06-.67,2.06-.36,4.16-1.14,6.18-.98,3.35.26,6.77.78,9.95,1.83,2.86.94,5.4,2.82,8.16,4.13,4.15,1.98,8.37,3.83,12.55,5.74.1-.17.2-.35.3-.52Z"/>
      <path class="cls-1" d="M305.91,191.73c-.71-.05-1.42-.1-2.12-.16-9.02-.86-14.44-6.06-17.35-14.34,4.29-1.28,14.8,5.72,14.59,9.84-.9-2.91-3.04-4.66-5.53-6.02-2.42-1.32-4.7-3-7.98-3.3,1.95,3.81,3.58,7.37,7.09,9.68,2.16,1.42,4.56,1.83,6.99,2.23.84.14,1.34-.12,1.24-1.13-.14-1.49-.23-2.99-.26-4.49-.05-2.05-.95-3.55-2.62-4.73-2.5-1.76-4.8-3.85-7.43-5.35-2.48-1.41-5.28-2.28-7.97-3.32-1.1-.42-2.29-.6-3.39-1.01-1.9-.7-3.05-2.16-3.65-4.04-.12-.38.14-.87.38-1.31,1.19,3.26,3.93,4.29,6.79,5.1,3.24.92,6.63,1.39,9.34,3.71,2.36,2.03,4.87,3.88,7.28,5.86,2.28,1.87,3.44,4.18,2.9,7.23-.35,1.98-.59,4.02,2.17,5.01-.16.18-.31.36-.47.54Z"/>
      <path class="cls-1" d="M342.24,14.65c.21-.16.41-.32.62-.48-.67,4.67-1.63,9.22-3.47,13.53-1.85,4.32-3.82,8.6-5.75,12.94,2.5.11,5.48.11,7.53,3.21-2.8-.33-5.24,2.35-8.12-.22,2.12-.26,3.88-.48,5.86-.73-1.93-2.04-4.44-.47-5.95-1.35-2.88,2.21-5.53,4.39-8.33,6.35-3.96,2.77-7.33,6.14-10.52,9.73-.34.38-.68.75-1.03,1.13-.18-.1-.37-.2-.55-.29.29-.63.48-1.33.89-1.87,3.25-4.28,7.25-7.75,11.61-10.86,5.2-3.71,9-8.54,11.33-14.54,1.28-3.3,2.78-6.51,4.08-9.8.67-1.69,1.14-3.46,1.66-5.21.15-.5.12-1.05.17-1.57,0,0-.02.03-.02.03Z"/>
      <path class="cls-1" d="M324.18,184.54c-.68-1.27.26-1.61,1.13-1.63,2.57-.05,5.14.02,7.71.1.74.02,1.48.25,2.22.41.81.18,1.5.47,2.22-.48.34-.44,1.51-.4,2.28-.33,5.84.48,11.3-.84,16.57-3.26.44-.2,1-.11,1.51-.16-.25.46-.38,1.07-.76,1.34-2.53,1.82-5.55,2.19-8.51,2.73-.92.17-1.86.27-2.79.54,4.12,1.38,8.14,3.01,12.61,2.76,2.33-.13,3.38-1.57,4.23-3.41.15-.32.27-.65.45-1.1.86,2.15-.52,5.12-2.96,5.56-2.26.41-4.74.39-6.98-.1-4.56-.99-9.02-2.43-13.53-3.67-.48-.13-.99-.16-1.61-.03,3.37,1.64,6.32,3.6,7.49,7.33-.46-.16-.86-.31-1.26-.45h.03c-1.25-1.98-2.67-3.74-4.96-4.61-4.59-1.76-9.39-2.12-14.23-2.1-.29,0-.58.38-.88.58l.02-.03Z"/>
      <path class="cls-1" d="M200.68,69.6c-1.7-1.66-3.87-1.91-6.06-2.29-1.6-.27-3.3-.63-4.69-1.42-4.7-2.66-8.89-1.16-13.04,1.25-.6.35-1.19.71-1.81,1.08-1.05-.7-.98-1.43-.07-2.03,2.95-1.97,5.9-3.99,9.64-4.06.68-.01,1.38.12,2.04.33,3.17,1,6.31,2.07,9.48,3.06,2.12.66,3.66,1.92,4.51,4.09Z"/>
      <path class="cls-1" d="M311.1,181.88c-3.14-5.78-.23-10.69,2.29-15.65-.11-.07-.22-.15-.34-.22-.82.92-1.63,1.84-2.45,2.75-.12.02-.25.04-.37.06.1-.65-.02-1.49.34-1.92,2.18-2.56,4.66-4.78,8.04-5.65.64-.16,1.37-.02,2.38-.02-6.44,5.7-9.89,12.21-9.9,20.65Z"/>
      <path class="cls-1" d="M54,80.38c-.55-2.95.88-5.2,3.1-6.36,2.08-1.09,4.01-.78,6.04-.26,2.08.53,4.15,1.13,6.22,1.7.09.03.17.13.34.27-.09,1.17-.13,2.42-.32,3.65-.06.37-.53.67-.8,1-.3-.38-.72-.72-.87-1.15-.3-.83-.19-2.23-.7-2.48-1.1-.54-2.48-.53-3.75-.68-.41-.05-.86.18-1.28.13-2.76-.31-4.93.46-6.27,3.09-.24.47-1.01.66-1.72,1.09Z"/>
      <path class="cls-1" d="M196.6,82.68c3.73.59,6.75-.97,10.14-1.77-1.81,2.67-4.36,2.84-6.99,2.99-1.18.06-2.33.57-3.5.78-.62.11-1.42.24-1.88-.05-.34-.21-.46-1.15-.32-1.67,1.55-5.43,5.63-7.09,11.12-5.15-.88.49-1.38.94-1.95,1.05-2.53.49-4.83,1.34-6.62,3.83Z"/>
      <path class="cls-1" d="M135.43,120.73c-.75-2.72-2.56-4.65-4.99-5.95-2.07-1.11-4.31-1.92-6.45-2.91-1.39-.64-2.74-1.38-4.08-2.36.31-.01.65-.12.92-.03,3.58,1.28,7.28,2.34,10.68,4,1.46.71,2.32,2.66,3.44,4.06.84,1.05,1.34,2.24.74,3.54-.2.44-.9,1.04-1.23.96-3.65-.81-6.86-2.45-9.26-5.42-.11-.14-.16-.34-.29-.62,3.48,1.78,6.82,3.49,10.17,5.2.12-.16.23-.31.35-.47Z"/>
      <path class="cls-1" d="M186.94,71.8c-.73-.25-1.27-.29-1.61-.57-1.72-1.47-3.23-.67-4.81.27-2.29,1.36-4.81,1.32-7.34,1.02-1.35-.16-1.88-1.04-1.71-2.54,3.05,1.12,5.72-.39,8.5-1.23,1.08-.33,2.18-.63,3.18-1.12,1.34-.66,2.14.18,2.7,1,.54.81.67,1.9,1.09,3.17Z"/>
      <path class="cls-1" d="M155.59,113.27c-1.08-.96-2.03-2.13-3.26-2.82-2.12-1.2-4.32-2.41-6.64-3.08-4.99-1.45-10.1-2.51-15.13-3.84-1.84-.49-3.6-1.29-5.32-2.18,2.67.62,5.35,1.24,8.02,1.85,4.55,1.04,9.13,1.96,13.63,3.15,3.31.87,6.35,2.39,8.32,5.41.27.42.47.88.71,1.33-.11.06-.23.12-.34.18Z"/>
      <path class="cls-1" d="M105.27,93.97c.84.71,1.68,1.43,2.67,2.27.85-2.76-.02-5.24-.38-7.73.14-.07.28-.14.42-.21.56,1.01,1.11,2.03,1.68,3.04.7,1.24,1.5,2.43,2.1,3.72.84,1.84,1.57,3.73,2.25,5.64.13.36-.15.88-.21,1.14-4.39-1-5.97-4.99-8.81-7.61.09-.09.19-.18.28-.27ZM112.05,98.99c-.49-1.31-.94-2.5-1.38-3.69-.7,2.46-.29,3.47,1.38,3.69Z"/>
      <path class="cls-1" d="M344.2,190.7c.32.66.64,1.32,1.19,2.45-2.15-.86-3.93-1.48-5.62-2.27-3.17-1.48-6.36-2.75-9.89-3.2-1.49-.19-2.92-1-4.31-1.68-.57-.28-.94-.96-1.39-1.46,0,0-.02.03-.02.03.77.21,1.54.42,2.3.63,3.38.95,6.8,1.77,10.12,2.89,2.11.72,4.07,1.9,6.12,2.82.49.22,1.18.89,1.53-.22h-.03Z"/>
      <path class="cls-1" d="M320.83,180.15c.24-1.59.16-3.32.78-4.75,2.06-4.74,5.3-8.66,9.6-11.98-.2.7-.23,1.52-.62,2.09-1.18,1.73-2.53,3.34-3.77,5.03-1.45,1.99-2.95,3.96-4.21,6.07-.64,1.06-.8,2.4-1.18,3.62-.2-.03-.4-.06-.59-.08Z"/>
      <path class="cls-1" d="M236.3,189.19c-1.28-.39-1.45-1.2-1.17-2.29.65-2.55.85-5.32,2.01-7.59.94-1.83-.41-2.68-.64-4.04,4.18,2.99,4.09,9.42-.21,13.92ZM237.75,183.57c1.24-1.67,1.4-3.41.26-4.67-.09,1.66-.17,3.09-.26,4.67Z"/>
      <path class="cls-1" d="M298.45,174.91c-1.06-.92-1.85-1.74-2.78-2.39-4.32-3-7.19-7.13-9.57-11.66.11-.12.21-.24.32-.36.24.18.55.32.72.55,2.26,3.07,4.45,6.19,6.78,9.19.69.9,1.78,1.49,2.69,2.22.16-.06.32-.12.48-.18-.2-2.58-.4-5.17-.6-7.75.16-.06.31-.12.47-.18.31.42.85.81.88,1.25.26,3.09.41,6.19.6,9.3Z"/>
      <path class="cls-1" d="M215.31,69.44c-.91.7-1.72,1.32-2.53,1.94l-.41-.17c.16-.53.16-1.2.5-1.55,1.24-1.32,2.56-2.58,3.93-3.76.36-.31,1.39-.5,1.5-.33.38.55.8,1.4.62,1.94-.61,1.8-1.74,3.28-3.85,4.53.1-1.02.16-1.71.24-2.59Z"/>
      <path class="cls-1" d="M268.17,166.64c-2.45-1.76-4.94-3.49-7.35-5.31-1.17-.88-2.35-.95-3.64-.46-1.58.6-3.14,1.22-4.8,1.87.05-.24.04-.52.16-.72.97-1.72,6.35-3.13,7.98-2,2.43,1.68,4.79,3.44,7.15,5.22.36.27.51.82.76,1.24-.08.06-.17.12-.25.18Z"/>
      <path class="cls-1" d="M210.97,218.54c1.26,1.51,1.13,3.18.58,4.79-.5,1.46-1.19,2.87-1.93,4.23-.85,1.57-2.74,2.28-4.82,1.77.59-.55.99-1.11,1.53-1.41,3.45-1.87,5.18-4.62,4.57-8.63-.04-.24.04-.5.07-.75Z"/>
      <path class="cls-1" d="M70.14,106.14c-.13-4.12-1.41-7.83-3.39-11.35-.18-.32-.03-.84-.03-1.27.35.25.85.42,1.02.75,1.51,2.95,3.48,5.77,2.87,9.36-.14.84-.31,1.67-.47,2.5Z"/>
      <path class="cls-1" d="M309.19,195.01c-.08-.57-.41-1.25-.21-1.69.96-2.13,2.04-4.2,3.14-6.26.11-.21.61-.21.92-.3.03.34.18.74.06,1.02-.46,1.02-1.02,2-1.52,3-.68,1.37-1.34,2.75-2.01,4.12l-.38.11Z"/>
      <path class="cls-1" d="M244.7,239.89c-3.72-1.21-7.44-2.42-11.16-3.63.05-.15.11-.31.16-.46,4.03.32,7.89,1.15,11,4.09Z"/>
      <path class="cls-1" d="M233.29,181.72c.45-1.58.87-3.17,1.34-4.75.67-2.23.7-4.23-1.66-5.57-.43-.24-.72-.73-1.22-1.26,1.92.28,3.84,2.11,3.96,4,.17,2.77.28,5.63-1.9,7.79-.18-.07-.35-.13-.53-.2Z"/>
      <path class="cls-1" d="M53.63,84.1c.43-.87.73-1.49,1.03-2.11.2.06.39.12.59.18-.35,1.28-.67,2.58-1.07,3.84-.06.2-.57.44-.76.37-.41-.17-1.02-.47-1.08-.81-.35-1.92-.56-3.87-.83-5.9,1.53.97,1.59,2.64,2.11,4.43Z"/>
      <path class="cls-1" d="M50.57,100.25c.58,3.55-.25,6.54-.97,9.72-.87-1.56-.33-8,.97-9.72Z"/>
      <path class="cls-1" d="M202.85,226.88c3.82-2.73,4.21-7.21,5.52-11.22.19.08.37.16.56.24-.74,2.7-1.34,5.45-2.28,8.08-.68,1.89-1.93,2.68-3.8,2.9Z"/>
      <path class="cls-1" d="M203.11,73.91c-3.32-.81-6.66-1.62-9.99-2.49-.19-.05-.25-.62-.38-.97,1.11-.25,10.07,2.82,10.37,3.45Z"/>
      <path class="cls-1" d="M120.9,63.07c2.83,1.22,4.87,3.48,7.29,5.63-1.96-.06-5.96-3.07-7.29-5.63Z"/>
      <path class="cls-1" d="M46.61,111.43c-1.64-1.7-1.4-6.14.36-8.05.78,2.8-.7,5.25-.36,8.05Z"/>
      <path class="cls-1" d="M124.79,70.84c-2.25-1.9-4.51-3.8-6.76-5.7.18-.22.36-.44.55-.67,2.26,1.87,4.53,3.75,6.79,5.62-.19.25-.39.49-.58.74Z"/>
      <path class="cls-1" d="M58.06,88.26c-1.5-1.38-.61-4.77,1.92-7.43-.68,2.65-1.27,4.93-1.92,7.43Z"/>
      <path class="cls-1" d="M303.7,201.06c2.72-1.28,5.45-2.56,8.17-3.84l.24.53c-2.6,1.59-5.25,3.05-8.41,3.31Z"/>
      <path class="cls-1" d="M67.82,92.64c-1.7.69-2.73-.31-3.69-1.34-.89-.96-2.21-1.74-1.84-3.45,1.36,2.19,2.61,4.41,5.53,4.79Z"/>
      <path class="cls-1" d="M68.76,89.7c-1.19.91-3.72.29-4.94-1.19,1.71.41,3.23.78,4.94,1.19Z"/>
      <path class="cls-1" d="M45.31,86.27c.7.8,1.41,1.61,2.11,2.41l-.32.32c-.78-.74-1.56-1.47-2.34-2.21.18-.17.36-.35.54-.52Z"/>
      <path class="cls-1" d="M249.87,110.73c-.75,1.23-1.49,2.46-2.24,3.69-.16-.09-.32-.19-.48-.28.69-1.26,1.38-2.53,2.06-3.79l.65.38Z"/>
      <path class="cls-1" d="M34.7,93.64c2.21.37,4.42.73,6.63,1.1-.02.17-.05.33-.07.5-2.22-.32-4.44-.64-6.65-.95.03-.22.06-.43.09-.65Z"/>
    </g>
  </g>
</svg>