<?xml version="1.0" encoding="UTF-8"?>
<svg id="Layer_1" xmlns="http://www.w3.org/2000/svg" viewBox="0 0 310.28 297.64">
  <defs>
    <style>
      .cls-1 {
        fill: #a61e2f;
      }
    </style>
  </defs>
  <g id="GMHSct">
    <g>
      <path class="cls-1" d="M160.49,82.36c.28-.8.86-1.66.74-2.39-.1-.59-1.05-1.05-1.62-1.56-1.63,2.64-3.04-.05-4.56-.13-1.06-.06-2.24.23-3.2.71-1.56.77-3.01,1.79-4.46,2.78-.51.35-1.2.89-1.23,1.39-.21,3.15-1.31,3.55-3.65,1.47-.59-.52-1.6-.55-2.4-.84-.85-.32-1.68-.68-2.53-1.03.45-.85.73-1.87,1.38-2.51,2.11-2.07,4.41-3.94,6.5-6.03.57-.58.45-1.81.99-2.46.65-.77,1.84-1.88,2.48-1.7,1.25.35,2.76,1.25,1.31,3.14-.31.4-.13,1.16-.18,1.76.6-.02,1.31.16,1.79-.1,2.72-1.44,5.41-2.93,8.02-4.55.28-.17.15-1.37-.1-1.96-1.2-2.76-2.56-5.45-3.71-8.23-.14-.34.63-1.06.98-1.6.57.43,1.52.78,1.63,1.31.4,1.98.42,4.05.82,6.03.16.82.81,1.66,1.47,2.21.24.2,1.2-.31,1.75-.64,1.81-1.08,3.69-2.08,5.3-3.41.66-.54,1.21-2.1.89-2.76-.81-1.67-2.09-3.14-3.29-4.6-.37-.46-1.08-.64-1.63-.95-.07.7-.18,1.41-.18,2.11,0,.87.09,1.74.14,2.62-.42-.67-.7-1.56-1.3-1.98-1.52-1.06-3.14-2.02-4.84-2.76-.31-.13-1.17,1.01-1.76,1.58-.1.1-.16.23-.27.33-1.96,1.9-3.93,3.81-5.89,5.7.24.44.05.11-.12-.23-.43-.81-.86-1.62-1.29-2.43-.8.46-1.57,1.02-2.42,1.37-1.33.55-2.73.92-4.08,1.43-.82.31-1.59.74-2.38,1.12.32.53.69,1.04.95,1.61.18.39.19.85.28,1.28-.73.14-1.82.65-2.13.34-1.76-1.67-3.63-2.98-5.64-.79-1.34,1.46-2.13,3.45-3.1,5.24-.29.54-.38,1.19-.49,1.54-1.01-.32-1.87-.6-2.73-.88.14,1.21.31,2.43.42,3.64.13,1.41.2,2.82-.54,4.23-.32-2.94-.56-5.9-1.04-8.82-.09-.53-1.25-1.37-1.74-1.27-1.4.3-2.72,1.01-4.07,1.56.75.61,1.51,1.21,2.28,1.83-2.2,3.33-2.29,5.08-.24,6.92-2.84,1.03-5.39.24-6.94-2.21-.2-.31-.36-1.01-.22-1.11.35-.26.87-.29,1.32-.4.94-.21,1.89-.41,2.83-.62-.47-.82-.94-1.65-1.42-2.47-.1-.17-.38-.28-.4-.44-.64-3.99-2.78-1.81-4.65-1.22-.72.23-2.25.11-2.31-.13-.42-1.61-.61-3.3-.62-4.96,0-.15,1.84-.56,2.75-.41,1.62.27,3.17.91,4.76,1.32.34.09.83-.04,1.12-.25.14-.09.07-.67-.07-.93-.27-.48-.67-.9-.47-1.79.53.57,1.05,1.14,1.58,1.7.41.42.83.84,1.24,1.25.04-.62.09-1.23.12-1.85.01-.27,0-.54,0-.82,3.4.21,4.59-1.56,4.3-6.17-.05-.85-.26-1.77,0-2.53.41-1.25.93-3.16,1.8-3.41,1.14-.33,2.82.44,3.99,1.18,2.95,1.87,4.19-1.57,6.42-1.84,1.56-.19,3.1-.56,4.65-.85.99-.19,1.97-.37,2.96-.57,1.21-.25,2.51-.32,3.6-.83,1.91-.89,3.71-2.02,5.52-3.12.5-.3.84-.86,1.25-1.29.29.46.59.92.86,1.39.07.12.02.36.1.4,1.95.94,4.01,1.7,5.83,2.84,1.73,1.08,3.76,2.24,4.66,3.91,1.06,1.98,1.61,2.23,3.19.77.26-.24,1.23.17,1.79.44.31.15.46.64.69.97.3-.34.6-.69,1-1.14.41,2.81,1.66,2.1,2.9.67.69-.8.98-2.08,1.8-2.61,1.46-.94,3.16-1.52,4.79-2.17.73-.29,1.65-.24,2.26-.66.34-.23.46-1.54.27-1.65-.65-.38-1.53-.68-2.25-.58-1.59.24-3.13.96-4.72,1.05-.94.05-2.79-.87-2.75-1.11.43-2.55.95-7.12,1.85-7.21,3.4-.35,6.99.62,10.4,1.5.4.1.26,2.7.2,4.13-.06,1.64-.37,3.28-.4,4.93,0,.4.66.82,1.02,1.23.39-.51,1.16-1.06,1.1-1.52-.25-2.16.66-2.26,2.39-1.76,3.09.89,6.38-1.09,7.36-4.16.25-.77.81-1.47,1.33-2.11.23-.28.74-.32,1.12-.46.13.44.29.87.37,1.32.16.9.27,1.8.4,2.71,1.04-.29,2.4-.25,3.08-.92,3.06-3.03,6.25-5.25,10.8-3.33.18.08.59.07.61,0,1.48-3.97,5.3-1.04,7.75-2.57,1.21-.76,3.33-.08,5.04.02.46.03.9.45,1.37.52,3.53.54,3.66.81,1.51,3.78-.92,1.27-1.76,2.69-2.95,3.65-2.68,2.14-1.94,4.43-.39,6.58.37.52,1.97.23,3,.19.64-.02,1.58-.6,1.85-.35.56.52,1.21,1.54,1.05,2.15-.54,2.08-1.45,4.05-2.13,6.1-.22.68-.17,1.45-.24,2.17.67-.06,1.34-.12,2.3-.21-.25.47-.47,1.39-.81,1.43-.83.11-1.75-.08-2.58-.33-.54-.17-1-.96-1.48-.94-1.85.07-5.78,8.06-4.71,9.56.26.37,1.24.61,1.65.42,1.44-.69,2.8-1.56,4.12-2.47.21-.14-.05-.86.09-1.23.34-.92.8-1.79,1.2-2.68.42.89.85,1.77,1.41,2.95.31.08,1.18.3,2.05.52-.51.76-.87,1.79-1.58,2.21-1.34.79-2.88,1.23-4.33,1.83-.37.15-.9.32-1,.61-.14.4.01,1.32.12,1.33,1.87.23,3.35,2.89,5.59.89,1.06-.94,2.24-1.75,3.36-2.62.22-.17.52-.55.65-.5,4.05,1.59,3.15-2.31,4.28-3.89.98-1.38,1.89-2.85,2.56-4.4.35-.8.39-1.97.04-2.73-.17-.37-1.56-.25-2.4-.22-.77.03-1.59.09-2.28.39-.57.25-1.11.79-1.44,1.33-.55.91-.92,1.92-1.37,2.89-.44-.31-.88-.61-1.33-.92,1.4-1.84,3.18-3.5,4.1-5.56.93-2.07,1.4-4.55,1.23-6.78-.06-.85-2.39-1.68-3.8-2.24-1.76-.7-3.7-.96-5.41-1.76-.48-.22-.84-1.98-.48-2.46,1.01-1.35,2.35-2.5,3.71-3.51.32-.23,1.36.26,1.9.66.6.45,1.01,1.16,1.5,1.75.49-.64.97-1.28,1.47-1.91.4-.5.82-.99,1.23-1.49.4.54.82,1.06,1.18,1.63.73,1.13,1.55,2.23,2.09,3.46.4.91.49,1.97.59,2.98.05.49-.19,1-.3,1.51.6-.03,1.33.14,1.78-.14,2.98-1.84,3.88-.92,3.45,2.33-.09.64.63,1.35.82,2.07.21.83.59,1.86.29,2.54-1.37,3.21-.55,6.39,2.27,8.56.37.28.59,1.38.35,1.75-.83,1.24-1.84,2.36-2.88,3.44-1.27,1.32-2.84,2.52.34,3.41.71.2,1.31.83,2.07,1.33-2.55,4.23-5.12,8.46-7.63,12.72-.2.35-.24,1.07-.02,1.31.23.25.87.18,1.33.14,3.13-.27,2.73-3.84,4.86-5.19,2.34-1.48,4.38-3.42,6.83-4.99-.64,1.87-2.87,3.92,1.52,3.69.97-.05,2.11,2.31,3.09,3.61.76,1.01,1.47,2.06,2.05,3.18.24.46.07,1.12.09,1.69-.74-.14-1.51-.2-2.22-.44-1.06-.36-2.08-.84-3.12-1.28-.44,1.09-.88,2.19-1.33,3.28-.22.53-.35,1.34-.73,1.49-.4.16-1.21-.16-1.57-.53-2.92-2.98-8.28-1.8-10.36,1.68-2.26,3.79-4.01,8.93-9.64,8.66-2.7-.13-4.76.38-6.57,2.05-.8.73-1.76,2.19-1.51,2.95.36,1.12,1.87,1.82,2.64,2.88.58.8,1.16,2.66,1.05,2.73-2.19,1.15-4.48,2.12-6.76,3.1-1.22.53-2.55.87-3.67,1.56-2.71,1.67-5.32,3.5-8.59,5.68.99-2.73,1.55-4.44,2.26-6.08.15-.34.84-.49,1.3-.62,1.06-.3,2.39-.25,3.11-.89.56-.51.38-1.85.52-2.82-1.34.03-2.67.04-4.01.09-1.5.06-3.04-.04-4.47.31-1.04.26-2.55.97-2.77,1.78-.63,2.26-1.45,1.85-3.46,1.64-2.75-.29-6.02.34-8.42,1.7-2.55,1.44-4.85,3.93-6.3,6.5-.86,1.53.13,4.11.27,6.21.02.33.12.89-.01.95-2.41,1.2-4.86,2.35-7.29,3.51-.43-1.24-1.06-2.45-1.22-3.72-.1-.77.52-1.63.82-2.44-1.03.34-2.07.63-3.07,1.04-.5.2-.92.59-1.9.55,1.07-1.83,1.77-4.08,3.28-5.41,4.27-3.78,3.52-9.37,5.48-13.95.14-.33-1.03-1.22-1.6-1.85-.96.98-2.59,1.88-2.73,2.97-.22,1.71-1.71,2.18-2.1,2.99-1.5,3.13-4.82,3.33-6.89,5.31-.38.36-.26,1.24-.37,1.88.62-.06,1.24-.09,1.85-.2.86-.16,1.71-.38,2.57-.58.09.84.42,1.73.24,2.5-.57,2.5-.94,5.17-2.13,7.38-.91,1.69-2.17,3.62-5.2,2.93-1.6-.36-3.7,1.06-5.46,1.91-2.02.98-3.78,2.71-5.88,3.25-2.97.76-6.14.72-9.23,1.01.02-.7-.16-1.5.12-2.06.28-.57,1.09-.84,1.57-1.34,1.1-1.12,4.45-2.04.42-3.79-.23-.1-.23-.93-.21-1.42.26-7.24.82-14.48.64-21.7-.05-2.03-2.23-4.03-3.5-6-.37-.57-1.02-.97-1.42-1.53-.06-.08.72-1.01.87-.94.79.32,1.53.81,2.24,1.3.26.18.39.53,1.55.75,0-2.93-.21-5.88.08-8.78.17-1.74.87-3.54,1.74-5.08,1.68-3,3.86-5.82.94-9.25-.08-.1-.14-.25-.15-.38q-.11-2.4-2.54-3.17c1.2-.46,2.39-.95,3.61-1.36,1.07-.35,2.18-.6,3.27-.9-1.85,2.7-2.6,5.63-1.81,8.85.14.57.46,1.36.88,1.5.4.13,1.37-.33,1.52-.74.8-2.16,1.37-4.41,2.13-6.59.38-1.1.71-2.57,1.54-3.08,1.47-.91,3.37-1.09,4.97-1.83.85-.39,1.45-1.32,2.16-2.01-1.3-.44-2.99-1.62-3.84-1.18-2.7,1.38-5.09,3.37-7.6,5.13ZM191.52,122.32c.12.02.23.03.35.05-.16,1.26-.47,2.53-.4,3.78.03.6.77,1.17,1.19,1.75,2.64-2.08,6.1-3.67,7.74-6.36,2.54-4.19,3.69-9.21,5.73-13.74,1.43-3.19,3.36-6.16,5.06-9.24.21.12.42.25.63.37-2.84,7.4-5.68,14.79-8.52,22.19,1.5-.04,2.16-.54,2.8-1.05,1.57-1.27,2.96-3.15,4.75-3.68,2.87-.86,5.85-.88,8.12-3.49.68-.79,3.65-.9,4.3-.18,2.01,2.23,3.24.72,4.68-.34,1.38-1.01,2.74-2.06,4.03-3.18.65-.57,1.24-1.28,1.59-2.05.1-.22-.82-1.28-1.17-1.23-.8.11-1.68.51-2.26,1.08-2.13,2.06-6.51,1.7-8.36-.6-.34-.43-1.54-.24-2.33-.23-.55,0-1.58.32-1.59.31-.84-3.48-1.68-6.96-2.28-10.49-.06-.36,1.28-1.04,2.05-1.42.63-.31,1.37-.39,2.07-.57-.29-.57-.75-1.11-.84-1.71-.12-.83.03-1.7.07-2.55.46.16,1.1.17,1.36.49,2.14,2.55,2.98,1.07,3.7-1.1.13-.39.65-.99.84-.94.5.14,1.32.84,1.3.87-1.07,1.71-1.98,3.63-3.43,4.94-.85.77-3.77,4.49-3.29,5.72.12.3.4.7.67.77,1.71.4,3.45,1.02,5.16.98,2.62-.06,5.23-.66,7.86-.88,1.23-.1,2.53.33,3.74.16,1.15-.17,2.19-.97,3.34-1.22,1.3-.28,2.67-.26,3.45-.33-.86-1.21-1.58-2.22-2.3-3.23,1.26.14,2.53.29,4.25.49-.18-.73-.18-2.24-.68-2.43-2.04-.78-1.46-1.89-.96-3.32.42-1.2.46-2.54.64-3.82.13-1,.27-2,.26-3.01,0-.28-.66-.85-.76-.8-2.16,1.14-4.3,2.34-6.42,3.56-.49.28-.91.69-1.37,1.04.06-.55.1-1.1.18-1.64.15-1.03.31-2.05.47-3.07-.87,0-1.74.08-2.6,0-.91-.08-1.82-.48-2.71-.42-.95.06-1.91.43-2.82.79-.67.26-1.37,1.12-1.85.98-.66-.19-1.17-1.03-1.67-1.65-.59-.73-1.09-1.52-1.63-2.28-.35,1.1-.73,2.2-1.03,3.32-.11.42,0,.9,0,1.35-.27,0-.72.07-.78-.04-.24-.45-.43-.96-.49-1.47-.1-.85-.03-1.72-.18-2.55-.02-.1-1.31-.23-1.47.01-.5.76-.61,1.77-1.11,2.53-.46.69-1.15,1.31-1.88,1.72-.62.35-1.59.15-2.14.56-3.6,2.65-7.23,5.29-10.66,8.16-3.46,2.89-6.8,5.96-9.95,9.18-.65.67-.33,2.37-.3,3.59.03,1.1.71,2.98.36,3.17-3.02,1.65-3.2,4.57-3.94,7.39-1.17,4.4-2.83,8.67-3.94,13.09-.26,1.04.83,2.42,1.29,3.65.72-.84,1.84-1.57,2.1-2.53.83-3.01,1.34-6.1,1.97-9.16ZM203.39,53.76c.85,1.05,1.47,1.82,2.09,2.59.66-.78,1.48-1.46,1.95-2.34,2.09-3.93,4.03.06,6.03.09.44,0,.88.32,1.3.53.06.03.09.31.03.39-1.64,2.32-2.86,5.28-5.07,6.76-2.22,1.48-5.42,1.55-8.21,2.1-.9.18-1.89-.04-2.83-.07.48-.88,1.01-1.74,1.43-2.65.24-.53.37-1.13.43-1.71,0-.08-.83-.45-1.03-.32-1.51,1.04-2.99,2.12-4.41,3.29-.65.53-1.11,1.29-1.66,1.94-.39-.85-.83-1.68-1.14-2.56-.31-.9-.49-1.84-.73-2.76-.79.41-1.58.83-2.37,1.24-2.42,1.25-5.05,2.22-7.18,3.84-1.66,1.25-2.67,2.05-4.12,0-.28-.39-1.25-.75-1.53-.57-.41.27-.62,1.04-.67,1.61-.05.54.21,1.11.34,1.7-.96-.47-1.69-1-2.47-1.1-.24-.03-.75,1.1-.89,1.75-.06.26.55.97.84.96,1.64-.05,3.27-.32,4.91-.39,1.32-.06,2.65.02,3.97.17.16.02.25.8.36,1.23.16.61.3,1.22.45,1.83.78-.42,2.27-.92,2.23-1.24-.43-3.59.82-2.78,2.57-1.11.97.93,1.96,1.86,3,2.71.59.48,1.31,1.08,1.98,1.09.41,0,1.23-1.04,1.19-1.55-.17-2,0-4.45-3.37-3.81-.6.11-1.36-.68-2.31-1.2,1.25-.13,2.15-.47,2.86-.25,1.59.5,3.17,1.15,4.58,2.02.74.45,1.06,2.06,1.7,2.14,1.73.22,3.56-.38,5.29-.14,2.2.3,3.82.31,3.88-2.48.66.17,1.66.14,1.9.55.35.6.05,1.54.21,2.29.13.63.51,1.21.79,1.81.52-.41,1.13-.75,1.54-1.26,1.06-1.31,1.76-3.35,3.11-3.93,3.21-1.39,2.65-2.84.93-4.97-.94-1.16-1.58-2.17.7-3.3,3.3-1.63,6.22-4.03,9.2-6.25.43-.32.57-1.98.35-2.1-2.32-1.23-4.73-2.28-7.12-3.36-.09-.04-.26.1-.39.15-3.66,1.36-7.32,2.76-11.01,4.05-.72.25-1.78.41-2.35.06-2.75-1.64-4.88-.49-7.31.9-2.2,1.26-4.81,1.81-7.21,2.74-.7.27-1.31.75-1.96,1.14.72.44,1.41,1.19,2.17,1.27,3.03.31,6.11.19,9.1.67,2.61.42,3.35-.76,3.57-2.93.04-.38.22-.74.38-1.27ZM214.65,84.11c1.19-.98,2.88-1.8,3.61-3.14.71-1.29.55-3.12.53-4.71,0-.37-1.18-1.15-1.58-1.02-2.35.78-5.03,1.29-6.82,2.8-2.32,1.97-3.8,4.89-5.86,7.22-.86.98-2.21,1.85-3.45,2.04-.75.12-2.12-.99-2.48-1.86-.54-1.3-.27-2.92-.69-4.3-.26-.87-1.11-2.15-1.75-2.18-1.18-.05-2.43.59-3.53,1.18-.19.1.21,1.31.31,2.01.07.47.24.99.1,1.4-.9,2.66-.92,5.03,1.67,6.87.29.21.09,1.1.12,1.68-.39-.17-.87-.24-1.16-.51-1.81-1.68-3.36-3.98-6.38-2.25-.23.13-.61.21-.83.12-.83-.34-1.62-.77-2.42-1.16.36-.7.55-1.59,1.1-2.05,1.24-1.06,2.62-1.97,4.02-2.83,1.63-1,1.71-1.95.5-3.44-.69-.85-.76-2.17-1.27-3.2-.24-.5-1.18-1.2-1.22-1.16-1.73,1.55-3.38,3.18-5.01,4.76.4.58.27.16,0,.04-1.94-.83-3.83-1.66-2.94-4.4.03-.09-.69-.53-.7-.51-.85,1.03-1.91,2-2.36,3.19-.23.59.61,1.65,1.08,2.43.64,1.06,1.39,2.04,2.17,3.18-1.81-.45-3.3-1.3-4.37-.93-.79.27-1.02,2.14-1.5,3.3,1.58.36,3.16.72,4.76,1.08-2.01,1.69-1,2.89.89,4.33,2.08,1.58,4.92,2.84,3.84,6.58-.26.91,1.02,2.27,1.59,3.42.82-.75,1.66-1.49,2.47-2.26.74-.71,1.44-1.45,2.16-2.17.42,1.17.87,2.33,1.24,3.52.26.82.42,1.67.63,2.5.36-.73.74-1.44,1.07-2.19.17-.37.13-.88.37-1.18,2.97-3.72,5.23-8.31,10.85-8.81.64-.06,1.36-.56,1.82-1.06,2.86-3.06,5.65-6.18,8.77-9.61.21,1.02.43,2.08.67,3.27ZM171.51,113.65c1.89-.56,3.79-.93,5.49-1.71.96-.44,2.3-1.62,2.24-2.37-.11-1.34-.92-2.79-1.83-3.87-2.01-2.42-4.21-4.69-6.45-6.91-.62-.62-1.66-1.14-2.51-1.14-1.91,0-3.85.24-5.72.63-.85.18-1.69.86-2.29,1.52-.29.32-.01,1.14,0,1.73.74-.19,1.48-.38,2.21-.57.38-.1.77-.17,1.15-.26,0,.38.07.76,0,1.13-.12.67-.14,1.46-.53,1.94-.37.46-1.32.94-1.73.76-.8-.35-1.31-1.42-2.12-1.71-.86-.31-2.42-.47-2.78,0-.85,1.09-1.67,2.62-1.61,3.92.17,3.63.92,7.24,1.18,10.87.16,2.24-.19,4.5-.23,6.76-.01.71.24,1.43.37,2.15.62-.22,1.44-.26,1.82-.69,1.99-2.24,4.68-4.11,4.26-7.76-.04-.31,1.46-.85,2.29-1.19,1-.41,2.58-.42,2.96-1.12.89-1.64.44-4.71,3.8-2.13ZM171.84,120.5c-.71.14-1.49.18-2.19.45-8.8,3.35-11.38,10.81-12.49,19.17-.04.31.95.93,1.55,1.1.49.14,1.23,0,1.65-.3,1.33-.95,3.72-2.17,3.63-3.06-.48-4.51,3.22-5.45,5.63-7.51.3-.26.88-.69.82-.8-1.5-3.17,1.78-4.4,2.63-6.59.27-.69.57-1.37.86-2.05-.66-.13-1.32-.25-2.08-.4ZM191.48,104.86c-2.28.77-3.64.92-4.59,1.62-2.54,1.87-6.46,2.49-6.52,6.81,0,.38-.75.75-1.16,1.12-1.37,1.2-2.79,2.36-4.1,3.63-.33.32-.31.99-.45,1.5.53.04,1.06.05,1.58.13,1.2.18,2.38.49,3.59.58.79.06,2.06.08,2.31-.34.74-1.27.97-3.92,1.58-3.98,2.2-.18,3-1.96,4.38-2.74,3.82-2.18,1.17-5.55,3.39-8.32ZM187.83,56.57c-.96-1.31-1.53-2.09-2.1-2.86-1.05,1.16-2.21,2.24-3.02,3.55-.13.22,1.64,2.14,1.92,2,1.1-.53,1.96-1.57,3.21-2.69ZM250.42,79.74c-.81-.37-1.34-.79-1.52-.67-1.23.8-2.38,1.71-3.55,2.59.49.49,1.34,1.44,1.4,1.4,1.17-.94,2.25-1.99,3.67-3.32ZM240.04,81.97c1.05-1.33,1.84-2.33,2.62-3.33-.47-.36-1.28-1.08-1.35-1.01-.9.85-1.73,1.79-2.46,2.79-.08.11.55.73,1.19,1.55ZM227.48,55.47c-.96-.9-1.56-1.46-2.15-2.02-.56.74-1.35,1.41-1.57,2.24-.1.37.98,1.5,1.47,1.47.65-.04,1.25-.88,2.25-1.69ZM213.19,70.27c.13.23.25.46.38.69,1.36-.95,2.73-1.88,4.04-2.9.16-.13.02-1.04-.13-1.08-.41-.12-1.05-.14-1.31.11-1.05,1-1.99,2.11-2.97,3.18ZM162.71,76.21c.38.03.76.06,1.14.08.08-.93.23-1.87.16-2.79,0-.15-.96-.23-1.48-.34.06,1.02.12,2.03.18,3.05ZM223.01,65.93c-.19.33-.38.67-.57,1,1.14.58,2.29,1.16,3.43,1.74.1-.24.33-.66.29-.69-1.03-.71-2.1-1.38-3.15-2.06ZM173.52,77.71c.35-.11.7-.22,1.05-.33-.27-.72-.5-1.47-.85-2.16-.06-.13-.59-.02-.91-.03.23.84.47,1.67.7,2.51Z"/>
      <path class="cls-1" d="M249.65,130.37c0,1.25-.46,3.01.11,3.45.78.61,3.15.66,3.4.18.75-1.39.87-3.16,1.07-4.8.15-1.22.05-2.47.07-3.71.03-1.84.05-3.67.09-5.5.02-.7-.04-1.94.17-1.99.9-.22,1.89-.1,4.12-.1-3.51,2.11-3,2.96-.66,3.59.45.12,1,.91,1.01,1.4.07,2.32,1.76,3.06,3.3,2.46,1.02-.4,1.81-2.28,2.03-3.6.3-1.76.24-3.72-.22-5.44-.38-1.42-1.58-2.62-2.42-3.92-.43-.67-.87-1.34-1.31-2,.7-.41,1.36-1.05,2.11-1.18,5.78-.97,12.12.17,16.9-4.6.37-.37,1.28-.21,1.93-.29-.16.69-.13,1.85-.5,1.99-2.85,1.12-3.02,3.23-3.11,5.93-.05,1.66-1.44,3.54-2.71,4.87-4.14,4.37-4.29,4.33-1.22,9.19.86,1.36,1.18,4.52,4.14,2.17.29.48.92,1.27.81,1.4-1.32,1.48-2.46,2.74-5.04,1.77-2.58-.97-5.58-1.06-8.39-1.05-.52,0-1.51,2.35-1.41,3.55.08.92,1.38,2.08,2.4,2.49,1.07.43,2.46.1,3.77.68-1.03.2-2.92.31-2.95.61-.43,4.21-2.97,2.17-4.97,1.87-.32-.05-.96.47-1.03.81-.07.34.32.86.62,1.18.22.24.63.36.97.41,4.02.6,2.8,2.54,1.13,4.52-.47.56-1.18.9-1.78,1.35-.22-.59-.41-1.19-.68-1.75-.14-.28-.51-.73-.63-.69-.97.35-1.9.82-2.87,1.21-.71.29-1.46.48-2.17.76-2.16.85-4.78,1.23-6.32,2.73-1.51,1.47-1.66,4.23-2.87,6.13-.62.97-2.26,1.32-3.48,1.85-.94.41-1.93.8-2.94.95-2.29.35-4.75,1.16-6.87.64-2.69-.66-6.78.81-7.45,3.54-.16.68-.74,1.27-.84,1.94-.14.93,0,1.9.01,2.86,1-.43,2.09-.72,2.98-1.31.8-.53,1.37-1.4,2.04-2.12.69.96,1.24,2.09,2.11,2.85,1.76,1.53,3.58,3.78,5.57,4.01,2.28.27,5.22-.57,6.19-3.75.2-.67,1.2-1.5,1.89-1.56,2.05-.18,2.71-1.15,2.64-3.09-.02-.65.48-1.34.85-1.95.07-.11.64.08.98.14-.19.61-.34,1.25-.58,1.84-1.16,2.81,1.14,3.19,2.74,3.31,2.45.19,2.99.97,1.97,3.15-.41.89-.38,1.99-.83,2.85-.17.31-1.15.23-1.76.26-1.8.08-3.61.03-5.38.27-.29.04-.4,1.34-.59,2.05.57-.12,1.17-.43,1.7-.33,2.66.53,5.28,1.22,7.94,1.73.76.14,1.7.05,2.37-.29.96-.49,1.67-1.6,2.66-1.89.79-.23,1.87.28,2.71.69.24.11.2,1.46.11,1.49-.91.21-1.86.27-2.37.33-1.04,1.4-2.01,2.71-2.98,4.01-.55.73-1.1,1.46-1.65,2.19.89.4,1.78.82,2.67,1.21.29.13.61.19,1.07.33-3.09,1.7-3.81,1.49-5.13-1.33-.06-.12-.16-.32-.25-.32-2.18-.14-4.49-.79-6.5-.27-3.08.79-5.96,2.39-8.92,3.65-.21-.36-.41-.71-.62-1.07,2.24-1.94,4.33-4.12,6.81-5.69.8-.5,2.65.56,3.97,1.03,1.16.41,2.24,1.06,3.41,1.43.22.07,1.09-.89,1.01-1.06-.54-1.11-1.1-2.87-1.95-3.04-2.56-.53-5.26-.33-7.88-.63-1.34-.15-2.63-.76-3.94-1.15-.48-.15-1.14-.55-1.42-.37-3.88,2.47-7.71,5.02-11.55,7.55-1.37.9-2.69,1.88-4.12,2.67-.4.22-1.11-.11-1.68-.18.25-.46.37-1.08.75-1.36,1.96-1.42,4.04-2.69,5.98-4.14,2.14-1.6,1.84-2.73-1.08-3.28,3.55-.27,5.79-2.01,7.17-4.54-2.07-.35-3.86-1.05-5.54-.83-1.87.24-3.67,1.24-5.37,2.15-.21.11.88,2.02.53,2.59-.87,1.43-2.22,2.57-3.4,3.8-.04.04-.63-.32-.61-.4.13-.45.24-1.03.58-1.27,1.72-1.26,1.64-2.23-.17-3.37-.34-.22-.32-1.63.03-2.17.42-.66,1.75-.82,2.01-1.47.54-1.35.62-2.88.9-4.34-1.1-.16-2.22-.49-3.31-.45-1.26.05-2.58.26-3.74.72-.59.24-1.11,1.12-1.3,1.82-.33,1.21-.38,2.49-1.2,3.66v-2.94c-1.05,1.53-1.79,2.18-1.98,2.97-.67,2.84-1.11,5.73-1.71,8.58-.55,2.6-1.47,4.97-4.23,5.69.56-3.31,1.28-6.44,1.56-9.62.13-1.5-.55-3.08-.9-4.61-.2-.88-.98-2.07-.65-2.56,1.48-2.21,1.79-4.43,2.16-7.07.38-2.74.18-3-2.69-2.63.15-.39.3-.78.45-1.17,1.93-.22,3.87-.41,5.79-.68,1.91-.26,3.8-.61,5.7-.9,1.49-.22,3-.31,4.46-.63.96-.21,1.84-.93,2.79-1.04,1.8-.21,3.64-.19,5.46-.19,3.39,0,4.33-1.35,3.36-4.61-.25-.85-.05-1.83-.06-2.75.47.74,1.14,1.42,1.37,2.22.41,1.44,2.42,3.05-.18,4.39.57.6,1.2,1.74,1.71,1.69,1.17-.12,2.97-.55,3.27-1.33.51-1.35.2-3.08,0-4.62-.15-1.16-.67-2.28-.8-2.68,1.33.83,2.76,2.36,4.34,2.54,1.89.21,4.81-5.3,4.47-8.12-.06-.51-1.35-.87-2.75-1.7,1.3-.22,2.26-.39,3.22-.55,1.24-.21,2.59-.17,3.67-.69.7-.34,1-1.49,1.49-2.28-.78.33-1.55.66-2.26.96-1.53-1.12-3.21-2.29-4.82-3.55-.53-.42-1.36-1.3-1.23-1.57.41-.83,1.09-1.7,1.89-2.12,1.1-.58,2.4-.76,3.27-1.01ZM260.06,126.07c-1.24,1.27-1.89,1.94-2.55,2.61.86.69,1.65,1.78,2.59,1.92.57.09,1.57-1.21,1.94-2.08.14-.34-.92-1.19-1.98-2.46ZM271.16,115.68c-.81-.54-1.46-1.08-1.54-1.01-.83.76-1.62,1.59-2.28,2.5-.1.14.51.8.79,1.22.9-.8,1.79-1.6,3.03-2.71ZM258.31,132.02c-1.17,1.28-2.12,2.32-3.03,3.39-.02.03.7.75.72.73,1.03-.88,2.05-1.78,2.97-2.76.1-.11-.34-.73-.66-1.36ZM272.87,128.64c-.58-.66-.95-1.07-1.31-1.49-.53.49-1.05.98-1.58,1.46.43.46.82,1.2,1.32,1.3.36.07.9-.7,1.56-1.28ZM269.84,122.48c-.53.68-1,1.05-1.09,1.49-.06.3.4.71.63,1.07.42-.37.95-.68,1.2-1.14.11-.2-.35-.72-.73-1.42Z"/>
      <path class="cls-1" d="M65.43,141.09q2.34-3.9,5.03-.08c.31.44.85.95,1.32,1,2.24.21,4.49.26,7.18-.25-2.07-1.09-4.2-2.09-6.18-3.32-1.06-.66-2.07-1.61-2.68-2.67-.2-.35.89-2.01,1.51-2.09.86-.11,2.06.5,2.73,1.17,1.42,1.43,2.42,1.02,3.56-.27,1.19-1.34,2.16-2.48,4.11-.42.66.7,3.3-.44,5.02-.81.25-.05.35-.68.62-.77,2.12-.75,7.6,1.82,8.64,4.01.06.13.1.34.19.37,4.98,1.67-.1,5.35,1.53,7.68-1.16.29-2.72,1.2-3.41.75-2.54-1.61-4.79-3.68-7.16-5.57-.16-.13-.36-.25-.55-.27-2.8-.35-5.6-.7-8.41-1-.28-.03-.59.26-.89.39.18.34.27.83.55,1,4.69,2.83,9.38,5.67,14.15,8.38.66.37,1.73-.01,2.61.03.39.02.83.15,1.16.36,4.63,3.03,9.23,6.11,13.91,9.06.36.23,1.25-.38,2.47-.8,1.38,2.5,3.07,5.54,4.75,8.58-.21.14-.42.28-.64.43-.69-.88-1.21-2.06-2.12-2.59-2.79-1.65-4.95-3.99-7.37-6.05-.77-.66-2.2-.55-3.25-.16-1.3-1.22-2.59-2.43-3.89-3.65-.23.24-.46.48-.69.72,1.29,1.67,2.47,3.44,3.89,5,3.17,3.48,6.8,6.6,9.6,10.35,2.11,2.84,3,6.55,4.82,9.65,2.44,4.16,4.89,8.41,8.01,12.04,2.65,3.08,6.22,5.38,9.43,7.97,1,.8,2.38,1.22,3.15,2.17.59.72.38,2.06.75,3.02.58,1.49,1.36,2.91,2.18,4.6-3.13-1.2-2.42.48-1.73,2.08,4.38,10.17,2.99,20.87,2.99,31.46,0,4.27.12,8.54.3,12.81.02.42.87.8,2.12,1.85.44,4.26,1.05,9.63,1.5,15.01.12,1.46-.19,1.9-2.3,1.89-2.2-.01-4.78-2.96-6.91.16-.15.22-.81.03-1.19.16-.64.21-1.25.53-1.88.81.38.67.71,1.38,1.17,1.99.32.42.84.7,1.08,1.28-1.53-.62-4.21.67-4.12-2.64.02-.62-1.24-1.27-1.26-1.29,1.42-1.06,3.76-1.9,4.2-3.33.72-2.32.19-5.03.19-7.17-1.96.84-3.66,1.28-4.98,2.25-.89.65-1.51,1.98-1.79,3.12-.6,2.4-.84,4.89-1.36,7.31-.13.6-.77,1.09-1.18,1.63-.43-.4-.85-.8-1.28-1.2-.51-.48-1.03-.95-1.52-1.44-2.1-2.08-5.75-3.1-4.7-7.35.18-.74-.95-1.79-1.45-2.71-.67-1.22-1.32-2.46-1.62-3.81.73.95,1.46,1.9,2.19,2.85.67-.52,1.34-1.04,2.26-1.75v3.52c.29.14.58.28.87.43.72-1.37,1.47-2.73,2.15-4.13.33-.69.54-1.44.8-2.16.69.56,1.5,1.03,2.04,1.71.75.94,1.3,2.04,1.94,3.07.76-1.14,1.94-2.2,2.22-3.45,1.99-9.05,3.77-18.15,5.67-27.22.48-2.29,1.13-4.54,1.68-6.82,1.81-7.53.58-14.66-3.23-21.27-1.03-1.78-3.18-2.88-4.6-4.49-2.2-2.49-4.42-5.02-6.25-7.78-3.39-5.1-6.42-10.43-9.8-15.54-.79-1.19-2.36-1.86-3.6-2.78,1.62-1.74.73-4.33-.97-5.8-1.78-1.52-1.54-5.33-5.17-4.77-.08.01-.37-.48-.33-.7.9-4.95-2.74-7.27-6.02-9.09-8.1-4.49-16.45-8.52-24.79-12.55-2.17-1.05-4.66-1.46-7-2.16l.04.04ZM137.04,270.42c.44.11.87.23,1.31.34.5-2.05,1.04-4.1,1.46-6.17.06-.28-.47-.8-.84-.98-.16-.08-.83.39-.89.69-.4,2.03-.71,4.08-1.04,6.12ZM140.1,258.05c-.45.06-.9.12-1.35.18.17,1.05.32,2.1.57,3.13.02.09.7.03,1.08.04-.1-1.12-.2-2.23-.29-3.35Z"/>
      <path class="cls-1" d="M97.41,98.21c2.05,1.83,3.85,3.43,6.2,5.54-.02.35-.4,1.74-.1,2.95.23.95,1.35,1.66,2,2.53.36.48.68,1.05.83,1.62.2.83-.1,2.08.39,2.51,2.16,1.92,4.5,3.63,6.83,5.35.43.32,1.09.33,1.65.48-.19-.77-.14-2.01-.6-2.25-2.75-1.43-2.66-3.27-.56-6.16,3.96,5.66,7.8,11.16,11.64,16.66.31-.17.63-.34.94-.51-1.76-3.38-2.95-7.27-5.4-10.02-3.81-4.27-7.27-9.32-13.47-10.72-.26-.06-.58-.22-.7-.42-1.28-2.27-2.52-4.56-3.74-6.79.54-.08,1.72-.6,2.65-.31,1.2.37,3.24,1.7,3.12,2.1-1.3,4.46,2.7,5.47,4.78,7.61,2.53,2.6,5.31,4.96,8.02,7.38.69.62,1.52,1.1,2.28,1.65.18-.96.44-1.9.51-2.87.04-.51-.26-1.05-.4-1.58l1.1-.19c.17,1.27.05,2.68.58,3.78.75,1.56,1.91,2.95,3.05,4.27.49.57,1.62.62,2.02,1.21,1.07,1.55,1.91,3.26,3.06,5.3-1.05-.35-2.29-.75-3.51-1.18-.63-.23-1.24-.52-1.86-.78.09.61.12,1.24.27,1.84.54,2.14.85,4.39,1.75,6.37,1.01,2.22,2.54,4.22,3.98,6.21.12.17,1.77-.28,1.89-.69.52-1.74.74-3.57,1.76-5.28-.29,1.93-.56,3.87-.88,5.8-.11.7-.64,1.5-.44,2.06.42,1.17,1.19,2.2,1.82,3.29.52-.86,1.04-1.71,1.44-2.37.39,2.88.84,6.21,1.18,8.73-2.2-2.66-4.71-5.91-7.44-8.97-3.83-4.29-7.74-8.51-11.75-12.63-2.23-2.29-4.68-4.38-7.18-6.38-.36-.29-1.55.45-2.86.87,0-.54.14-1.54-.04-2.48-.18-.95-.48-2-1.09-2.69-.3-.34-1.95-.16-2.06.13-.3.82.04,1.84-.16,2.72-.19.88-.7,1.7-1.11,2.52-.33.66-.59,1.59-1.14,1.85-.78.36-1.8.21-1.9.22-.16-1.77,0-2.97-.43-3.88-.37-.76-1.45-1.18-2.21-1.75-.43,1.17-1.43,2.49-1.18,3.48.82,3.21,1.76,6.5,3.38,9.35.66,1.16,3.18,1.27,4.85,1.86.13-.4.45-.86.35-1.19-.1-.32-.68-.46-.96-.76-1.18-1.28-2.32-2.6-3.47-3.9,2.04.02,4.08-.02,6.11.13.34.03.63.91.91,1.42.93,1.72,1.45,4.42,2.85,5.01,7.15,2.98,10.99,9.03,15.26,14.85,1.89,2.57,4.88,4.36,6.63,6.99,1.43,2.16,2.29,5.03,2.43,7.64.14,2.69-.91,5.45-1.5,8.53-.24-.46-.39-.61-.37-.74,1.34-7.14-3.19-11.85-6.88-16.98-1.89-2.63-3.18-5.69-4.94-8.42-1.62-2.51-3.47-4.88-5.3-7.24-.32-.41-1.06-.51-1.6-.75-.19.58-.65,1.24-.51,1.72.46,1.56,1.15,3.04,1.73,4.56.53,1.39.54,2.28-1.43,1.77-.66-.17-1.46.16-2.19.27.32.66.58,1.34.96,1.96,2.18,3.57,4.55,7.04,6.52,10.72,1.32,2.46,1.56,6.33,5.06,2.67-.77,1.26-2.46,2.8-2.5,4.39-.04,1.79,1.28,3.68,2.21,5.41,2.67,4.99,5.44,9.92,7.48,15.27-1.87-3.51-3.75-7.02-5.62-10.53-.43.19-.87.39-1.3.58,1.14,2.84,2.28,5.69,3.82,9.51-5.39-6.68-6.88-13.86-8.46-21.01l-1.29.28c.25,3.29.51,6.57.65,8.48.52-2.31-4.99-3.82-3.28-8.11.15-.38-.44-1.01-.55-1.55-.51-2.54-1.44-5.12-1.35-7.64.18-4.95-1.64-7.66-6.65-8.75-.46-.1-.91-.6-1.21-1.03-.32-.45-.35-1.15-.72-1.54-1.09-1.14-2.28-2.17-3.43-3.25v3.95c-2.07-3.69-4.28-7.65-6.52-11.64.29-.1.44-.21.54-.18,1.19.4,2.37.81,3.56,1.23-.43-1.32-.81-2.65-1.28-3.95-1.7-4.65-3.27-9.36-5.21-13.92-.89-2.09-.01-5.3-3.62-6.07-.65-.14-1.05-2.51-1.09-3.87-.02-.6,1.13-1.73,1.75-1.73.82,0,1.59.95,2.45,1.37.83.41,1.73.87,2.61.91.44.02,1.38-1.15,1.28-1.32-.39-.67-1.01-1.49-1.69-1.65-3.44-.84-2.38-3.65-2.61-5.82-.1-.94.33-1.94.62-3.42ZM114.32,144.51c-.91-1.1-1.51-2.12-2.38-2.79-1.04-.81-2.27-1.4-3.49-1.92-.74-.31-1.61-.3-2.42-.44.09.83-.13,2.11.32,2.42,2.09,1.45,4.36,2.65,6.61,3.86.15.08.67-.54,1.36-1.13Z"/>
      <path class="cls-1" d="M31.09,179.21c-.18-.11-.36-.23-.54-.34-.86-.57-1.73-1.15-2.59-1.72,1.03-.52,2.54-.79,2.96-1.62.63-1.23.63-2.86.65-4.32.01-1.05-.39-2.11-.08-3.05.72,1.46,1.18,3.16,2.25,4.28.58.61,2.57.71,3.25.18.71-.56.72-2.14.84-3.29.07-.68-.24-1.4-.38-2.1,1,.55,2.06,1.01,2.97,1.69,1.05.79,1.85,1.97,2.97,2.61,1.45.82,2.38,1.45.78,2.96-.41.39-.85.86-1,1.37-.24.84-.3,1.75-.31,2.63,0,.12.95.45,1.04.34.53-.67.88-1.48,1.4-2.15.55-.71,1.24-1.31,1.86-1.96,1.02-1.06,2.23-2.01,2.98-3.24.76-1.24,1.07-2.76,2.05-3.99-.09.46-.19.92-.26,1.39-.11.72-.2,1.44-.3,2.15.57-.11,1.4-.02,1.65-.36.48-.65.93-1.58.83-2.32-.19-1.43-.78-2.8-.45-4.45.41,1.17.75,2.37,1.26,3.49.23.5.8.85,1.22,1.27.34-.54.93-1.06.97-1.63.07-.81-.12-1.71-.42-2.48-1.16-3.04.37-5.66,3.56-6.48,1.88-.48,3.85-1.2,5.36-2.35,2.44-1.86.46-3.17-1.27-4.32l.78-.82c1.34,1.11,3.44,2,3.84,3.39.58,2.01,1.04,4.82-2.58,5.42-1.28.21-3.24,1.05-3.45,1.94-.45,1.92-.83,4.37,1.91,5.47.33.13.52.72.67,1.14.28.79.47,1.61.7,2.41.7-.4,1.37-.89,2.11-1.18,1.41-.56,2.94-.88,4.27-1.57.76-.4,1.32-1.28,1.83-2.04.49-.73.81-1.58,1.21-2.38.33.66.64,1.34.98,1.99.22.42.49.81.73,1.22,2.37-1.66,3.41,1.99,4.82,1.43,1.05-.42,1.27-2.74,2.08-4.08.3-.5,1.44-1.04,1.83-.84,2.88,1.46,5.25,3.81,9.09,3.12,1.99-.36,5.92-.56,4.6,3.26-.6,1.74-4.03,2.49-6.17,3.69-.33-1.79-1.25-2.45-2.92-1.43-.44.27-.72.78-1.08,1.18.44.28.93.5,1.31.84.67.6,1.27,1.27,1.89,1.93.22.23.41.71.59.7,2.58-.14,5.15-.38,7.72-.51,1.61-.08,3.22-.02,4.83-.02,0,.44.02.88.03,1.33-2.38.29-4.88,1.19-7.1.72-3.33-.7-4.73,1.52-6.67,3.12-.48.4-.95.82-1.02.89-1.01-.73-1.79-1.29-2.56-1.85-.78-.57-1.65-1.05-2.29-1.74-.57-.61-.74-1.64-1.36-2.15-.86-.72-1.95-1.19-3.01-1.61-.23-.09-1.08.64-1.04.77.42,1.17.69,2.68,1.56,3.34,2.23,1.69,2.35,3.4-.04,4.95-3.33,2.16-6.61,3.34-9.84-.25-.15-.17-1.23.46-1.85.76-2.15,1.02-4.28,2.08-6.44,3.07-.23.11-.85-.1-.94-.3-.89-2.22-2.28-1.21-4-1.17-5.92.16-11.9-.1-17.78-.8-1.77-.21-3.28-2.42-4.96-3.64-.6-.43-1.35-.68-2.06-.91-1.17-.38-2.36-.69-3.54-1.03.82-.37,1.64-.75,2.46-1.12-.39-.52-.78-1.04-1.17-1.56-.41.91-.83,1.81-1.24,2.72ZM75.71,179.78c.42-.73.97-1.45,1.25-2.26.27-.79.27-1.67.38-2.52-1.2.2-2.62.07-3.55.68-.83.54-1.13,1.89-1.64,2.9-.36.73-.68,1.47-1.02,2.21,1.63.63,3.23,1.38,4.92,1.77.34.08,1-1.17,1.51-1.81-.63-.33-1.26-.67-1.85-.98ZM62.1,174.83c.34-.06,1.35-.01,2.13-.41.64-.33,1.32-1.14,1.41-1.82.09-.62-.59-1.35-.93-2.03-.65.35-1.31.66-1.93,1.06-.6.38-1.08,1-1.72,1.23-.52.19-1.21.03-1.79-.14-.12-.03-.06-.75-.06-1.14-.01-.69-.02-1.37-.03-2.06-.77.59-1.96,1.03-2.23,1.79-.82,2.3.92,3.58,5.14,3.53ZM65.28,179.17c.91,0,1.17.08,1.33-.01,1.33-.71,2.64-1.43,3.93-2.2.12-.07.01-.51.01-.77-1.18.28-2.35.55-3.53.84-.41.1-.85.17-1.22.36-.66.35-1.28.78-1.92,1.18.66.29,1.32.57,1.39.6ZM47.81,186.39c.26-.86.75-1.74.68-2.57-.04-.52-1.17-1.46-1.41-1.35-.88.41-1.6,1.18-2.38,1.81.57.39,1.15.78,3.11,2.11ZM56.91,181.31c-.69.74-1.2,1.22-1.59,1.78-.04.05.71.91.92.85.71-.22,1.35-.7,2.01-1.07-.36-.42-.73-.84-1.34-1.55ZM90.61,176.26c-.68.55-1.09.89-1.51,1.23.51.41.98,1.03,1.55,1.15.44.09,1.01-.46,1.53-.72-.46-.49-.93-.98-1.57-1.66ZM39.53,175.74c.59-.73,1.19-1.15,1.15-1.5-.05-.38-.65-.86-1.09-.95-.27-.06-.95.51-.96.82-.01.42.44.85.9,1.63Z"/>
      <path class="cls-1" d="M176.19,264.22c-.74.27-1.49.35-1.86.76-.23.26.14,1.03.23,1.58.24,1.44,1.02,3.06.6,4.27-.81,2.37-2.3,4.51-3.38,6.52-2.1-4.5-4.31-9.25-6.62-14.19-1.26,3.66-.7,6.83,1.28,9.97.71,1.13.79,2.67.66,4.49-1.35-3.38-3.02-2.52-5.41-1.72-1.17.4-2.84.04-4.5.34-4.92.88-10.4-6.84-8.93-12.07.28.7.41,1.23.68,1.65.24.37.65.62.98.92.22-.34.57-.64.65-1.01.26-1.11.42-2.24.62-3.37.4-2.33.15-5.07,3.57-5.38.3.26.78.69,1.27,1.12.32-.61.84-1.2.91-1.83.34-2.89.55-5.8.71-7.58.36,1.36.95,3.77,1.67,6.15.18.59.8,1.05,1.21,1.57.31-.58.64-1.15.93-1.74.27-.55.51-1.12.82-1.81.99.58,1,4.43,2.92.45.74,3.21,1.34,6.06,2.11,8.86.17.61.97,1.05,1.48,1.56.26-.66.85-1.39.73-1.98-.89-4.54-2.1-9.03-2.84-13.6-.74-4.55-1.51-9.18-1.35-13.74.08-2.23,2.1-4.48,3.48-6.56,2.67-4.04,5.48-7.98,8.28-11.93.42-.59,1.05-1.11,1.7-1.46,1.84-.99,3.72-1.92,5.62-2.79,2.34-1.07,4.72-2.08,7.12-3.02.16-.06.87.67.89,1.05.02.47-.29,1.17-.67,1.42-2.94,1.89-6.14,3.44-8.85,5.6-2.41,1.92-4.9,4.18-6.3,6.84-2.37,4.5-4.54,9.31-5.57,14.24-.79,3.81.25,8.01.6,12.02.04.45.93,1.27,1.22,1.18,3.29-.9,2.32,2.02,3.14,3.34.43.69,1.08,1.23,1.62,1.86.2.23.51.51.49.74-.07.76-.2,2.15-.44,2.17-3.72.43-1.06,2.96-1.51,4.42-.06.19.03.42.05.7ZM153.42,264.28c.24,0,.47,0,.71,0v-4.01c-.24,0-.47,0-.71,0v3.99Z"/>
      <path class="cls-1" d="M239.36,124.33c-.42-3.71,1.37-5.12,4.79-4.59,1.16.18,2.98-1.25,3.85-2.42,1.51-2.02,2.38-4.51,3.79-6.63.85-1.27,2.24-2.17,3.31-3.3,2.31-2.45,4.56-4.96,6.88-7.4.17-.18.88-.14,1.1.06,1,.9,2.01,1.82,2.78,2.91.2.29-.41,1.2-.73,1.78-.09.16-.69.25-.75.16-2.36-3.47-2.99.37-4.28,1.06-1.28.69-2.29,2.06-3.62,2.42-3.31.91-4.05,3.76-5.06,6.28-1.24,3.11-4.82,5.88-1.94,9.85.1.14-.03.64-.19.73-.61.34-1.27.74-1.94.8-.26.02-.59-.8-.9-1.22-.59-.79-1.19-1.57-1.78-2.35-.48.88-1.09,1.71-1.4,2.64-.45,1.32-.67,2.72-1.18,4.9-.76,0-2.61-.25-4.37.08-1.41.26-2.76,1.12-4.03,1.89-1.6.97-3.12,2.79-4.52-.23-.09-.2-.74-.28-1.07-.2-2.81.65-5.66,1.21-8.39,2.13-.76.26-1.35,1.56-1.65,2.5-.34,1.09-.3,2.3-.39,3.47-.1,1.3-.17,2.6-.31,4.73-1.51.11-3.98.15-6.4.53-1.77.28-3.5.91-5.18,1.56-1.57.6-3.5,1.05-4.51,2.23-4.35,5.05-9.31,9.88-12.38,15.67-4.41,8.31-7.29,17.41-11.04,26.09-.63,1.45-2.35,2.42-3.53,3.65-.22.23-.27.64-.41,1,5.44,1.14,7.29-4.87,12.7-5.84-4.97,4.22-9.26,7.86-13.56,11.51-.42-.25-.83-.51-1.25-.76.55-2.11.88-4.31,1.69-6.32,3.73-9.29,7.56-18.54,11.47-27.76.5-1.19,1.66-2.09,2.07-2.59-.42-2-.77-3.74-1.14-5.47-.15-.69-.32-1.38-.49-2.07-.63.36-1.28.69-1.89,1.09-.66.44-1.27.94-1.9,1.42.1-.77.26-1.54.3-2.31.1-1.76,2.86-3.55-.29-5.5-.45-.28.86-4.54,2.27-6.19.66-.78,3.49.15,5.27.59.33.08.3,1.53.49,2.33.17.71.4,1.41.61,2.11.69-.41,1.59-.67,2.04-1.26,2.14-2.8,4.16-5.69,6.29-8.65,2.39,3.49,3.48,3.51,6.46,1.02,1.68-1.4,3.83-2.23,5.53-3.62,2.13-1.74,3.92-3.89,6.04-5.65.87-.72,2.3-3.8,3.44.17.16.54,3.39.85,4.73.23,1.56-.71,2.51-2.65,3.88-3.89.96-.87,2.04-2.14,3.54-.41.24.27,1.6-.32,2.37-.66,1.63-.73,3.21-1.56,4.81-2.35.07.41,0,.97.23,1.2.39.36.96.6,1.49.69.17.03.44-.59.67-.91-.81-.31-1.63-.63-2.44-.94ZM209.64,143.09c3.12.52,4.77-1.04,5.73-3.68.18-.48.31-1.22.07-1.55-.24-.33-1.05-.52-1.49-.38-1.69.54-3.43,1.07-4.96,1.93-1.17.66-2.05,1.82-3.06,2.75,1.24.31,2.48.61,3.71.92Z"/>
      <path class="cls-1" d="M92.09,105.45c-3.84,2.74-1.12,5.88-.5,8.96.3,1.48,1.24,3.53-1.93,2.14-.61-.27-1.85.51-2.57,1.09-.21.17.24,1.37.59,2,1.05,1.93,2.19,3.8,3.62,6.27-5.07-2.55-9.13-5.15-13.57-6.67-4.38-1.5-8.42-5.11-12.55-3.39-1.04-1.65-1.86-2.9-2.62-4.19-.64-1.08-1.21-2.19-1.82-3.29,1.51-.15,3.03-.32,4.54-.44.58-.05,1.17.01,1.75.02-.28-.49-.64-.96-.83-1.49-.61-1.72-1.12-3.47-1.76-5.17-.21-.56-.59-1.26-1.08-1.49-3.68-1.73-4.67-4.1-2.69-7.4,1,1.11,1.77,2.5,2.95,3.11.96.51,2.6.5,3.59.01,1.89-.94,5.01-2.39,5-3.61-.02-2.91-1.31-5.94-2.68-8.61-.37-.72-2.87-.38-4.4-.41-.18,0-.38.76-.57,1.17.46.21.91.55,1.39.6.89.09,4.53,4.71,3.98,5.25-.38.37-1.47.38-2.03.11-1.59-.78-2.79-1.02-4.04.71-.94,1.3-2.08,1.31-2.78-.57-.25-.66-1.22-1.06-1.87-1.57-.09.77-.17,1.53-.27,2.3-.08.65,0,1.42-.34,1.9-.16.24-1.1-.14-1.67-.08-1.63.17-3.25.41-5.35.69,1.63-1.93,2.9-4.53,4.97-5.62,3.18-1.68,2.34-2.6.1-3.81.76-.88,1.29-1.71,2.03-2.26.44-.32,1.55-.49,1.77-.23,2.77,3.28,3.14.58,3.74-1.25,2.15.52,5.51.4,6.18,1.68,1.63,3.12,4.51,4.25,6.73,6.35,3.16,3,5.19,7.18,7.8,10.79.51.71,1.36,1.31,2.18,1.64,1.31.52,2.72.61,2.48,2.7-.06.49,1.38,1.16,2.53,2.06ZM69.09,100.32c-.54.83-1.09,1.68-1.65,2.54,1.23.18,2.47.34,3.7.53.71.11,1.41.32,2.13.42.88.12,1.77.16,2.65.24-.25-.81-.49-1.62-.74-2.43-.15-.49-.3-.98-.45-1.47.5,0,1.07-.16,1.47.03,2.44,1.2,4.82,2.54,7.27,3.71.57.27,1.39.04,2.09.04-.24-.59-.34-1.29-.73-1.74-1.02-1.17-2.79-2.07-3.15-3.37-1.16-4.25-4.61-4.23-7.81-4.78-2.9-.49-4.29,1.59-5.36,3.69-.33.64.38,1.81.57,2.59ZM77.27,111.82c.05-.12.1-.25.15-.37.93,0,2,.29,2.74-.08.84-.42,1.45-1.39,2.02-2.22.13-.2-.21-1.03-.52-1.16-3.03-1.31-6.08-1.23-9.01.25-.29.14-.28,1.81-.02,1.94,1.48.69,3.08,1.12,4.63,1.64ZM88.15,108.86c.73-.61,1.3-1.09,1.87-1.57-.54-.45-1.2-1.36-1.6-1.26-.84.21-1.55.96-2.31,1.49.59.39,1.18.78,2.04,1.34Z"/>
      <path class="cls-1" d="M76.91,81.48c.19-.25.71-.96,1.33-1.78.95.85,1.88,1.69,2.85,2.55,1.56-4.2,1.03-5.05-3.42-5.75-2.12-.34-6.05-4.43-6.21-6.53-.03-.38.08-.95.34-1.15,3.17-2.47,4.22-5.85,4.33-9.68.01-.41.1-.94.37-1.19,1.44-1.36,2.93-2.67,4.46-3.94.24-.2,1.09-.1,1.09-.07.1.81.48,1.91.09,2.39-1.31,1.66-2.9,3.09-4.35,4.63-.27.28-.68.82-.58.98.22.38.7.81,1.1.84,2.71.21,5.69,1.99,7.86-1.36.46-.7,1.51-1.04,2.33-1.47.73-.38,1.53-.65,2.29-.97-.8-.53-1.69-.95-2.38-1.6-2.04-1.9-4.18-3.73-5.93-5.87-2.08-2.54-3.63-1.86-5.18.35-.8,1.14-1.47,2.35-2.2,3.54-.42-.16-.83-.32-1.25-.48.69-1.92,1.2-3.93,2.12-5.74,1.11-2.19,4.42-3.33,3.05-6.6,1.21.17,2.45.19,3.55.59.35.12.5,1.23.48,1.88-.03.97-.3,1.94-.47,2.91.85-.55,1.76-1.02,2.54-1.65,2.15-1.73,4.24-3.51,6.35-5.29.41-.35,1.08-.82,1.05-1.17-.05-.5-.65-.94-1.01-1.4-.37-.47-.82-.91-1.07-1.44-.06-.14.57-.85.73-.8.57.17,1.23.44,1.57.89,2.14,2.83,4.11,1.77,6.5.19.76-.5,2.6.26,3.76.83.8.39,1.28,1.44,2.01,2.33-.94.31-2.1.7-3.25,1.09-.06.1-.11.19-.17.29-.78.43-1.53.95-2.35,1.29-2.85,1.18-6.1,3.73-8.52,3.11-4.07-1.03-2.29.88-1.93,2.68-.77,0-1.53-.21-2.08.05-.97.46-1.8,1.21-2.69,1.83.48.65.85,1.47,1.47,1.92,2.13,1.56,4.28,3.11,6.6,4.35.38.2,1.61-1.17,2.43-1.83.61-.49,1.16-1.42,1.79-1.47,2.81-.22,5.64-.23,8.46-.22.49,0,.98.47,1.46.72-.62.76-1.1,1.96-1.88,2.2-1.98.61-2.37,1.52-1.45,3.3.91,1.77,1.77,1.88,2.92.22.28-.4.85-.61,1.32-.84.04-.02.56.6.49.79-.17.48-.45,1.03-.86,1.29-1.64,1.01-3.08,2.38-4.73-.48-.81-1.4-3.13-2.07-4.9-2.66-.46-.15-1.38,1.3-2.19,1.87-.82.58-1.78.97-2.65,1.49-1.16.7-2.3,1.45-3.44,2.19.82.49,1.58,1.18,2.47,1.43,5.56,1.52,7.4,3.82,6.48,7.44-.52-.94-1.08-2.46-2.08-3.58-.5-.56-2.14-.84-2.67-.44-.87.64-1.42,1.9-1.72,3-.08.29,1.26.99,1.97,1.46,1.74,1.16,3.49,2.29,5.38,3.53-.39.15-.79.38-1.22.45-2.41.38-5.2.11-7.12,1.27-1.42.86-1.73,3.57-2.47,5.48-.15.39.04.9.07,1.36-.41,0-1.03.17-1.18-.03-.29-.38-.55-1.04-.41-1.45.99-2.83,2.14-5.61,3.09-8.46.16-.47-.29-1.62-.63-1.69-1.81-.39-3.66-.61-5.5-.72-.61-.04-1.4.3-1.82.74-.21.22.23,1.07.4,1.63.71,2.29,1.54,4.56,2.07,6.9.13.57-.59,1.61-1.2,1.96-.47.28-1.43-.04-2.06-.34-1.29-.61-2.51-1.39-3.75-2.1ZM81.1,65.66c-.92-.69-1.48-1.11-2.04-1.53-.39.57-1.04,1.13-1.09,1.73-.04.42.83,1.32,1.16,1.27.6-.1,1.1-.77,1.97-1.47Z"/>
      <path class="cls-1" d="M129.28,20.75c-4.64,1.47.63,4.58-1.15,6.13.41-.28.83-.55,1.24-.84,1.92-1.37,3.74-2.94,5.81-4.01.81-.42,2.2.26,3.32.44,3.28.55,2.5-1.35,1.94-3.16-.14-.46-.1-.97-.14-1.45.52.25,1.14.4,1.55.77,3.53,3.22,1.08,6.62.13,9.92-.11.39-1.34.58-2.07.64-4.89.43-7.11,2.2-8.74,6.79-.41,1.15-1.29,2.13-2.38,3,.06-.34.16-.69.18-1.03.03-.69.02-1.39.03-2.08-.64.3-1.34.53-1.92.92-1.65,1.11-3.27,3.83-4.66-.34-.56-1.68-1.75-3.15-2.73-4.84-.15.28-.64.98-.91,1.76-.57,1.62-1.05,3.27-1.54,4.92-.19.63-.33,1.28-.49,1.93.65,0,1.31.06,1.94-.05.78-.14,1.53-.42,2.73.12-3.17,2.38-6.34,4.76-8.88,6.66,2.65,1.52,5.57,3.11,8.41,4.85,1.57.97,1.72,6.72.23,7.81-.49.36-1.26.42-1.92.49-1.76.18-3.58.6-5.29.35-1.59-.24-3.27-.98-4.49-2-.53-.44-.37-2.37.13-3.23,1.31-2.24,2.04-4-1.17-5.19-.34-.13-.33-1.42-.32-2.17,0-.46.39-.92.43-1.39.07-.83,0-1.68-.01-2.52.56.46,1.05,1.12,1.69,1.31.4.12,1.35-.38,1.46-.77.31-1.06.8-2.57.31-3.24-.72-.99-2.23-1.41-3.57-2.17-.2.39-.43.86-.94,1.86.17-2.3.42-3.99.38-5.67-.03-1.2,1.97-8.04,2.72-8.26,1.81-.51,3.65-.94,6.01-1.54-1.35,1.78-2.52,3.17-3.48,4.69-.33.52-.16,1.37-.22,2.07.59-.29,1.37-.42,1.74-.88,2.18-2.76,4.24-5.62,6.42-8.38.39-.5,1.46-1.17,1.67-1.01,1.98,1.46,2.97.14,4.22-1.12.39-.39,1.52-.06,2.31-.06ZM115.07,52.93c-.74,1.03-1.57,1.69-1.48,2.19.15.81.89,1.51,1.39,2.26.67-.69,1.6-1.3,1.9-2.12.14-.39-.91-1.22-1.8-2.32Z"/>
      <path class="cls-1" d="M65.39,141.05c-1.1,1.17-2.18,2.36-3.3,3.51-2.47,2.55-.18,3.27,1.59,4.2.21.11.39.3.27,1.22-1.86-.77-3.71-1.56-5.58-2.29-.58-.22-1.24-.39-1.85-.34-2.86.23-5.46-.2-7.45-2.5-.31-.36-.55-.77-.83-1.16.33-.22.67-.41.98-.66.51-.41,1.47-1.04,1.39-1.23-.3-.72-.81-1.65-1.46-1.87-3.3-1.13-6.66-2.05-10.17-3.1.73-.17,1.75-.7,2.64-.54,2.48.44,3.23-.91,3.83-2.91.22-.74,1.2-1.27,1.89-1.83.17-.14.55-.04.84-.04,1.35.03,2.71.06,4.06.09-.87.81-2,1.49-2.51,2.48-.38.73-.21,2.01.19,2.79.23.45,1.57.75,2.16.51,1.71-.71,3.2-1.98,4.93-2.57,3.24-1.1,2.7,1.21,2.53,3.12-.06.62.08,1.26.13,1.89.56-.54,1.37-.97,1.63-1.63,1.13-2.85-.2-5.42-3.3-7.09-1.61-.87-3.16-1.9-4.6-3.02-2.16-1.69-4.24-2.01-6.68-.49-2.24,1.4-4.65,2.54-7.01,3.75-.32.16-.79.02-1.48.02.27-.52.44-.78.56-1.07.2-.48.54-1,.49-1.46-.03-.24-.89-.65-1.18-.52-.51.23-.84.83-1.3,1.22-1.09.92-2.34,2.63-3.29,2.48-1.27-.19-2.34-1.82-3.43-2.89-.08-.08.38-.99.53-.98.53.06,1.06.31,1.55.57.8.43,1.58.92,2.36,1.38.04-.76-.16-1.65.18-2.24.81-1.42,1.86-2.7,2.83-4.06.87.74,1.53,1.48,2.35,1.9.28.14,1-.48,1.48-.82.51-.37.91-.98,1.47-1.18.94-.34,1.96-.44,2.95-.64-.87-1.39-1.62-2.89-2.68-4.12-.36-.42-1.57,0-2.26-.28-.55-.23-.9-.96-1.34-1.46.54-.31,1.06-.66,1.62-.93,1.79-.84,3.6-1.62,5.33-2.57.08-.04-.58-1.53-.98-2.3-.34-.65-.8-1.25-1.21-1.87.72-.23,1.45-.64,2.16-.62.4.01.82.7,1.16,1.14,2.11,2.7.17,4.52-1.51,6.23-1.65,1.67-1.23,2.65.71,3.45,1.25.52,2.48,1.21,3.78,1.44.5.09,1.28-.82,1.77-1.42.33-.41.36-1.06.52-1.6.64.2,1.55.21,1.85.65.29.41-.06,1.27-.09,1.93-.04,1-.03,2-.05,3,.96-.37,1.94-.69,2.87-1.12.35-.16.54-.75.88-.84,2.32-.59,2.6-1.92,1.56-3.43,2.55.33,5.36.27,7.79,1.19,1.18.45,2.14,2.68,2.34,4.21.3,2.31,1,2.99,3.09,1.91.7,2.22-.99,4.38-3.27,4.07-2.23-.3-4.15-.94-3.61,2.77.19,1.3-1.54,2.87-2.37,4.34-.59,1.05-1.14,2.13-1.7,3.2,1.1.35,2.21.7,3.31,1.05,0,0-.03-.04-.03-.04ZM57.71,140.38l-.94.62c.7.92,1.4,1.85,2.13,2.75.02.03.41-.23.63-.36-.61-1-1.22-2-1.83-3.01Z"/>
      <path class="cls-1" d="M129.75,114.61c0-2.7-.11-4.4.06-6.08.06-.58.79-1.54,1.23-1.55,2.23-.07,4.46.17,6.69.2,2.11.03,4.36.5,4.41-3.02.02-1.08,1.94-2.23,3.11-3.18,1.5-1.22,3.1-2.32,4.72-3.38.54-.35,1.24-.45,1.87-.66-.03.67.11,1.39-.12,1.99-1.95,5.18-4.68,9.83-9.01,13.45-.69.58-.89,1.75-1.31,2.65.93.29,1.84.78,2.78.81,2.04.07,2.91.72,2.3,2.91-.87,3.14-.28,5.73,1.43,8.84,1.47,2.67.31,6.79.31,10.26-.68-.34-1.64-.5-2-1.06-1.03-1.58-1.82-3.32-2.71-4.99-1.51-2.83-3.52-1.95-5.68-.88-.37.18-1.61-.41-1.68-.78-.46-2.6-.81-5.23-.97-7.86-.05-.81.4-2.05,1.01-2.39.82-.45,2.02-.26,3.06-.27.55,0,1.11.15,1.66.23.06-.61.37-1.64.15-1.77-1.62-.94-3.3-1.81-5.04-2.48-.89-.35-1.95-.26-2.94-.37.52-.64,1.03-1.28,1.56-1.9.14-.16.38-.25.48-.42.7-1.2,1.43-2.38,1.99-3.65.06-.15-1.19-1.13-1.28-1.05-.99.79-1.9,1.7-2.77,2.63-.94,1.01-1.82,2.08-3.31,3.78Z"/>
      <path class="cls-1" d="M140.62,91.83c-.8,1.64-.11,5.23-3.57,3.12-.14-.09-1.42,1.13-1.61,1.87-.14.57.56,1.4,1,2.03.29.42.77.71,1.17,1.05-.46.22-1.01.33-1.35.66-.83.81-1.57,1.73-2.35,2.6-.29.33-.55.71-.91.93-.09.06-.68-.38-.72-.64-.06-.33.24-.7.34-1.07.33-1.14.67-2.28.91-3.44.01-.06-1.09-.53-1.19-.41-.75.92-1.29,2.03-2.08,2.91-1.27,1.39-3.02,2.45-3.97,4.01-1.31,2.13-2.64,2.74-4.78,1.41-.13-.08-.43.15-.61.1-1.32-.4-5.19,3.87-3.63-2.05.33-1.24-1.08-2.86-1.18-4.34-.05-.7,1.18-1.43,1.68-2.24.42-.7.71-1.52.9-2.32.3-1.27.37-2.6.75-3.84.13-.43,1.13-1.04,1.32-.92.51.32.98.95,1.15,1.54.53,1.84.77,3.78,1.44,5.56.27.72,1.38,1.12,2.1,1.67.34-1.01.68-2.01,1-3.02.32-1.01.31-2.35.98-2.97,1.98-1.83,2.27-3.04-.64-4.01-1.29-.43-2.5-1.11-3.75-1.68,1.11-1.34,2.06-2.88,3.38-3.97,1.29-1.07,2.88-2.01,4.48-2.36.9-.2,2.19.8,3.09,1.52.41.32.5,1.32.38,1.95-.17.92-.66,1.77-1.01,2.65,1.03,0,2.07-.05,3.1,0,.71.04,1.74-.03,2.05.38.32.43-.12,1.38-.1,2.1.02.65.23,1.29.36,1.93.62-.25,1.24-.49,1.86-.74Z"/>
      <path class="cls-1" d="M149.48,35.01c.2,1.03.34,1.78.48,2.53.68-.5,1.57-.85,1.99-1.51,1.59-2.51,2.5-5.73,4.64-7.54,3.38-2.88,6.97-6.27,12.22-5.07,1.26.29,2.52.54,3.78.82-.71,1.21-1.26,2.56-2.17,3.6-2.32,2.66-4.73,4.98-8.84,2.95-.78-.38-2.44,1.02-3.69,1.6.4.69.69,1.5,1.24,2.04.84.84,1.88,1.49,2.8,2.26.36.3.74,1.07.93,1.01,3.62-1.06,4.56,3.23,7.51,3.77,1.04.19,1.74,2.32,2.52,3.61.08.13-.29.77-.49.79-2.57.23-5.14.44-7.71.52-.4.01-.91-.62-1.23-1.06-1.44-1.95-2.78-3.98-4.29-5.88-.29-.36-1.17-.3-1.79-.35-1.8-.14-3.61-.3-5.42-.33-.8-.02-1.95-.04-2.33.43-1.31,1.63-2.29,3.52-3.53,5.23-.55.77-1.35,1.82-2.12,1.89-2.45.24-4.94.09-7.2.09-.55-2.27,4.8-2.22.91-4.83,4.02-2.24,7.93-4.42,11.78-6.56ZM167.35,45.58c.29-.33.58-.66.87-.98-.89-.78-1.78-1.57-2.67-2.35-.25.35-.77.96-.72,1.02.8.82,1.67,1.56,2.52,2.32ZM143.96,40.99c-.88,1.17-1.5,1.98-2.06,2.81-.02.03.72.66.77.62.69-.59,1.38-1.22,1.93-1.93.12-.15-.29-.7-.65-1.5Z"/>
      <path class="cls-1" d="M89.53,97.56c-.19-.31-.65-1.19-1.22-1.99-.42-.59-.95-1.1-1.46-1.62-1.19-1.22-2.44-2.39-3.54-3.69-.12-.14.52-1.1.99-1.45.15-.11,1.04.4,1.27.8.58,1.02.97,2.15,1.44,3.23.67-1.09,1.41-2.15,1.98-3.29.6-1.2,1.05-2.49,1.58-3.78-.04-.03.16.04.26.18.81,1.15,1.6,2.32,2.4,3.48,1.09-.95,2.08-2.09,3.32-2.77.84-.46,2.12-.53,3.07-.27.77.21,1.8,1.78,1.94,1.68,1.11-.8,2.11-1.8,2.98-2.87.45-.55.41-1.83.87-1.98,1.64-.55,3.39-.78,5.11-1.11.11-.02.36.13.35.18-.35,2.73,1.62,4.06,3.28,5.62.5.48.8,1.17,1.19,1.77.52-.93,1.27-1.82,1.49-2.82.23-1.07-.05-2.24-.14-3.86,1.28,1.77,2.22,2.94,3,4.21.19.31-.01,1.11-.31,1.41-1.18,1.19-2.44,2.29-3.73,3.36-.4.34-.98.48-1.48.68-.7.28-1.65.32-2.07.83-2.89,3.47-5.74,3.52-8.7.06-.78-.91-2.24-2.53-2.51-2.37-1.42.85-2.56,2.17-4.46,3.95-1.07-1.22-2.43-2.79-3.81-4.35-.26-.3-.57-.58-.91-.77-.08-.04-.52.29-.57.5-.54,2.3-1.04,4.61-1.58,7.04Z"/>
      <path class="cls-1" d="M178.84,156.23c-1.85,3.42-6.12,6.67-10.42,10.14-3.52,2.85-5.99,7.02-8.89,10.62-.71.88-1.28,1.87-1.95,2.78-1.76,2.43-3.53,4.85-5.3,7.27-.08.12-.15.34-.23.34-4.72.14-2.68,3.95-3.52,7.1-.2-3.26-.37-5.7-.48-8.15-.01-.29.28-.86.39-.85,3.25.22,2.26-2.29,2.7-3.97.22-.83.94-1.54,1.48-2.27.41-.55.88-1.07,1.36-1.57,2.61-2.75,5.01-5.76,7.91-8.17,5.88-4.89,12.02-9.45,16.94-13.28Z"/>
      <path class="cls-1" d="M163.5,153.82c.41-.61.81-1.23,1.22-1.84.34.59.68,1.19,1.04,1.77.35.57.6,1.34,1.12,1.66,3.29,2.03,3.5,4.53.44,7.11-1.91,1.61-3.7,2.01-6.58,1.76-3.92-.33-5.53.47-2.33-3.78.37-.49-.43-3.28,1.16-4.58.38-.31,1.14-.27,1.71-.22.65.05,1.51.62,1.88.37.52-.34.67-1.24.98-1.9-.21-.12-.42-.24-.63-.36ZM165.1,161.56c-.75-.42-1.24-.87-1.46-.77-.56.26-1.01.77-1.5,1.18.32.28.73.84.96.78.59-.18,1.1-.62,2.01-1.19Z"/>
      <path class="cls-1" d="M144.66,25.76c4.46-.04,7.56-3.27,6.88-6.48.44.6.93,1.18,1.3,1.82.35.62.58,1.32.86,1.99.79-.51,1.59-1,2.36-1.55.74-.53,1.45-1.11,2.17-1.67.27.65.83,1.34.74,1.93-.18,1.14-.65,2.25-1.16,3.3-.26.52-.9.83-1.34,1.27-1.23,1.23-2.49,2.43-3.64,3.73-.41.47-.55,1.18-.81,1.78-.55-.25-1.09-.55-1.65-.76-1.11-.4-2.54-.45-3.27-1.2-1.05-1.08-1.59-2.65-2.43-4.16Z"/>
      <path class="cls-1" d="M157.54,188.08c-.22,4.06-.44,8.25-.66,12.43.35.09.7.17,1.05.26.45-1,1.01-1.96,1.32-3,1.72-5.66,3.24-11.32,7.46-15.92,1.58-1.72,2-4.5,3.02-6.76.61-1.37,1.35-2.68,2.04-4.02.29.16.57.31.86.47-2.5,4.63-5.32,9.11-7.41,13.92-2.21,5.08-3.66,10.48-5.58,15.68-.44,1.2-1.45,2.19-2.2,3.28-.62-1.18-1.7-2.33-1.77-3.54-.26-4.42-1.08-9.02,1.88-12.8Z"/>
      <path class="cls-1" d="M191.48,198.05c2.46-1.91,4.66-4.51,7.44-5.54,2.92-1.08,6.39-.66,9.58-.89-.8,7.04-4.22,11.64-9.28,15.05-.48-.41-.95-.82-1.43-1.24.6-.23,1.41-.29,1.76-.72,2.48-3.08,4.89-6.21,7.22-9.39.26-.35-.02-1.62-.15-1.64-1.57-.19-3.4-.77-4.7-.19-2.77,1.23-5.26,3.1-7.88,4.67-.54.32-1.17.47-1.76.7-.27-.27-.53-.54-.8-.81Z"/>
      <path class="cls-1" d="M180.11,39.27c-1.37-2.59-3.24-4.65-3.3-6.75-.05-1.54,2.27-3.16,3.54-4.74.27.67.59,1.33.81,2.02.26.85.24,2.33.69,2.48,1.72.56,2.77,4.45,5.36,1.29.06-.07.7.22.7.24-.49,1.73-.94,3.48-1.64,5.12-.07.16-1.68-.25-2.53-.54-.44-.15-.77-.61-1.18-.89-.6-.42-1.22-.8-1.83-1.19-.15.7-.29,1.4-.62,2.97Z"/>
      <path class="cls-1" d="M40.63,110.03c.34.45.66.91,1.03,1.33.21.24.73.49.69.61-.13.43-.36.92-.7,1.17-.78.56-1.65.99-1.89,1.13-3.5-2.28-6.88-4.42-10.18-6.68-.75-.51-1.27-1.41-1.78-2.21-.1-.16.36-.67.56-1.02.76.44,1.47.99,2.28,1.31,1.61.63,3.25,1.2,4.9,1.69,1.95.57,3.93,1.04,5.9,1.55-.27.37-.54.74-.81,1.12Z"/>
      <path class="cls-1" d="M194.52,36.71c-.44.05-1.46.18-2.48.3-.16-1.39-.2-2.8-.52-4.15-.18-.75-.65-1.71-1.26-2.02-2.97-1.47-5.53-3.14-5-7.02.08-.6.61-1.13.94-1.69.7.53,1.48.98,2.03,1.63.14.17-.46.97-.71,1.48-.28.57-.75,1.13-.77,1.71-.01.37.58.95,1.02,1.12,1.7.63,3.46,1.1,5.18,1.68.29.1.68.4.72.66.32,2.03.58,4.07.88,6.3Z"/>
      <path class="cls-1" d="M225.33,139.17c2.95.49,4.93.78,6.87,1.21.23.05.44.94.39,1.41-.14,1.37-.42,2.73-.65,4.1-.64-.5-1.34-.93-1.9-1.51-1.45-1.48-2.77-3.15-4.89-.78-.18.2-1.27-.4-1.94-.63.82-1.47,1.65-2.94,2.12-3.79Z"/>
      <path class="cls-1" d="M68.53,77.26c-1.76-.36-3.42-.53-4.95-1.05-2.19-.74-4.32-1.65-6.4-2.66-.69-.34-1.11-1.21-1.65-1.84.7.01,1.4-.04,2.09.06,1.95.27,3.93.48,5.82.97.98.25,1.9.97,2.69,1.65.74.63,1.27,1.49,2.4,2.87Z"/>
      <path class="cls-1" d="M126.82,48.84c.75-2.25,1.36-4.56,2.34-6.7.31-.68,1.62-1.29,2.44-1.24.7.04,1.54.96,1.92,1.69.18.35-.43,1.27-.87,1.77-1.56,1.78-3.21,3.49-4.82,5.22-.34-.25-.68-.5-1.02-.75Z"/>
      <path class="cls-1" d="M171.99,156c-.52-.28-1.26-.45-1.48-.88-.23-.43-.13-1.26.16-1.7.99-1.55,1.99-3.13,3.27-4.42.51-.51,1.76-.28,2.68-.38-.13.75-.14,1.55-.42,2.25-.45,1.11-1.17,2.11-1.59,3.22-.41,1.06-.58,2.21-.86,3.32-.58-.47-1.17-.94-1.75-1.41Z"/>
      <path class="cls-1" d="M92.4,162.23c-.22-2.23-.46-4.16-3.3-3.66-.22.04-.75-.33-.73-.45.1-.68.18-1.44.55-1.97.21-.3,1.07-.41,1.47-.24,2.31,1,4.59,2.09,6.84,3.23.4.2.59.81.88,1.23-.41.1-.83.17-1.23.3-1.45.49-2.89,1-4.48,1.56Z"/>
      <path class="cls-1" d="M186.71,267.67c0,4.79.63,9.93-4.91,13.25,1.78-4.8,3.34-9.03,4.91-13.25Z"/>
      <path class="cls-1" d="M53.55,113.91c-.73-1.57-1.77-3.68-2.64-5.87-.12-.29.57-1.04,1.02-1.39.39-.3,1.14-.61,1.46-.43,1.17.67,2.24,1.53,3.32,2.36.15.12.22.58.11.74-1.09,1.59-2.23,3.14-3.26,4.59Z"/>
      <path class="cls-1" d="M189.74,198.15c-2.97,1.83-5.92,3.69-8.94,5.45-.46.27-1.2.07-1.81.09.29-.55.45-1.34.91-1.62,2.98-1.81,6.03-3.52,9.05-5.26.26.45.53.89.79,1.34Z"/>
      <path class="cls-1" d="M274.18,143.77c-.67-1.15-1.36-1.8-1.25-2.26.14-.6.96-1.52,1.42-1.48,2.35.2,2.79-1.06,2.79-2.99,0-.57.46-1.14.7-1.72.69.72,2.06,1.99,1.97,2.09-1.64,2.05-3.44,3.96-5.63,6.36Z"/>
      <path class="cls-1" d="M62.42,54.86c1.47.71,3.65,1.07,4.23,2.23.69,1.39.02,3.45-.1,6.09-1.95-3.07-3.31-5.21-4.68-7.35.18-.32.37-.65.55-.97Z"/>
      <path class="cls-1" d="M37,140.53c-.58.89-.8,1.62-1.18,1.72-.61.16-1.5.12-1.97-.23-1.42-1.06-2.74-2.27-3.99-3.53-.27-.27-.3-1.17-.05-1.45.42-.48,1.14-.71,1.74-1.04.19.4.29.89.59,1.18.79.76,1.62,1.49,2.52,2.13.65.46,1.41.74,2.36,1.22Z"/>
      <path class="cls-1" d="M192.51,266.47c.73,3.47,1.42,6.75,2.14,10.18-3.96-1.28-4.58-4.44-2.14-10.18Z"/>
      <path class="cls-1" d="M42.59,107.23c.33-2.28.63-4.34.99-6.85,1.57,1.9,2.69,4.65,5.96,2.23,0,.4.02.79.03,1.19-2.31,1.13-4.62,2.27-6.98,3.43Z"/>
      <path class="cls-1" d="M164.91,173.8c.59-3.38,4.55-6.32,10.43-6.74-3.94,2.54-7.32,4.73-10.43,6.74Z"/>
      <path class="cls-1" d="M275.56,95.83c-1.26,2.11-2.19,3.84-3.31,5.43-.35.5-1.2.84-1.84.86-.41,0-.84-.7-1.26-1.09.62-.05,1.31.04,1.85-.21.43-.19,1.05-.93.95-1.18-1.02-2.67-.5-3.39,3.59-3.8Z"/>
      <path class="cls-1" d="M174.51,209.87c-1.47,3.07-2.96,6.17-4.45,9.26-.27-.12-.55-.24-.82-.36.24-.57.58-1.12.72-1.72.44-1.88,2.94-3.46.81-5.8-.22-.24.63-1.46.99-2.24.83.26,1.58.49,2.75.85Z"/>
      <path class="cls-1" d="M192.67,43.54c.59-1.28.99-2.13,1.39-2.99.63.77,1.38,1.47,1.87,2.32.47.82.67,1.8.99,2.7-.7.18-1.66.72-2.06.45-.87-.59-1.45-1.6-2.19-2.49Z"/>
      <path class="cls-1" d="M110.52,78.92c-.19.17-1.16,1.61-1.73,1.46-1.46-.37-2.75-1.43-4.11-2.22.39-.43.71-1.08,1.19-1.23.54-.17,1.27,0,1.83.23.72.3,1.35.82,2.82,1.76Z"/>
      <path class="cls-1" d="M106.55,70.58c-1.9.93-3.8,1.86-6.02,2.95.2-2,.43-4.27.73-7.24.74.87,1.63,1.46,1.58,1.93-.44,3.75,1.15,3.27,3.71,2.36Z"/>
      <path class="cls-1" d="M198.05,26.95c.87.83,1.87,1.59,2.51,2.57.13.2-1.39,1.89-1.51,1.82-1.22-.73-2.49-1.54-3.33-2.64-.32-.42.42-1.65.68-2.51.55.26,1.09.51,1.64.77Z"/>
      <path class="cls-1" d="M245.21,116.6c-3.1-.57-6.21-1.1-9.28-1.77-.44-.1-.74-.87-1.11-1.33.55,0,1.11-.07,1.63.03,2.5.48,4.99,1,7.48,1.51.5.1,1.01.21,1.51.31-.08.42-.16.84-.24,1.26Z"/>
      <path class="cls-1" d="M279.06,175.48c.58.53,1.32,1.21,2.05,1.88-.67.57-1.26,1.49-2.01,1.65-1.56.32-3.22.37-4.8.22-.46-.04-.81-1.16-1.21-1.78.68.14,1.37.29,2.05.42,1.04.19,2.17.69,3.08.42.46-.13.52-1.65.83-2.8Z"/>
      <path class="cls-1" d="M171.79,38.26c-.74-1.76-1.26-2.93-1.72-4.13-.24-.62-.37-1.27-.56-1.91.61-.05,1.27-.25,1.82-.1.66.18,1.8.77,1.76,1.02-.31,1.79-.87,3.53-1.3,5.11Z"/>
      <path class="cls-1" d="M92.96,122.83c1.59,1.84,3.22,3.65,4.72,5.56.28.36.05,1.13.05,1.71-.51-.27-1.2-.4-1.51-.82-1.4-1.92-2.69-3.93-4.02-5.9.25-.18.51-.36.76-.54Z"/>
      <path class="cls-1" d="M139.74,32.02c-.36,1.95-.65,3.72-1.05,5.46-.07.29-.64.56-1.02.62-.18.03-.5-.4-.66-.68-1.67-2.88-.61-4.56,2.73-5.4Z"/>
      <path class="cls-1" d="M229.44,195.98c-.28.3-.53.77-.9.92-2.1.83-4.21,1.69-6.38,2.32-.69.2-1.58-.27-2.37-.44.56-.55,1.05-1.44,1.7-1.57,2.59-.53,5.23-.83,7.96-1.22Z"/>
      <path class="cls-1" d="M172,184.19c-1.47,3.84-2.95,7.67-4.42,11.51-.27-.1-.54-.21-.8-.31,1.48-3.83,2.95-7.67,4.43-11.5.27.1.53.21.8.31Z"/>
      <path class="cls-1" d="M44.99,92.51c.48.98.98,1.57.84,1.8-.55.97-1.23,1.89-2.02,2.67-.09.09-1.17-.84-1.79-1.29.87-.93,1.75-1.87,2.98-3.18Z"/>
      <path class="cls-1" d="M148.18,181.17c-.15-3.06-.31-6.12-.46-9.18.31,0,.61,0,.92-.01v9.2c-.15,0-.31,0-.46,0Z"/>
      <path class="cls-1" d="M146.72,94.85c-1.08.8-1.7,1.62-2.34,1.64-.65.02-1.32-.76-1.99-1.19.54-.67,1-1.78,1.63-1.89.66-.11,1.48.74,2.7,1.45Z"/>
      <path class="cls-1" d="M181.06,270.33c.14-2.4.24-4.8.47-7.19.04-.4.67-.74,1.03-1.1.15.5.49,1.04.4,1.5-.41,2.27-.93,4.52-1.4,6.78-.16,0-.33,0-.49.01Z"/>
      <path class="cls-1" d="M73.72,192.46c1.02-1.46,2.01-2.95,3.09-4.36.25-.32.81-.41,1.23-.6.15.42.56,1.08.42,1.22-1.44,1.5-2.97,2.92-4.48,4.36-.09-.21-.17-.41-.26-.62Z"/>
      <path class="cls-1" d="M185.72,193.7c-2.01,2.18-4.02,4.36-6.03,6.55-.22-.2-.44-.4-.65-.59,2-2.19,3.99-4.39,5.99-6.58.23.21.47.42.7.63Z"/>
      <path class="cls-1" d="M103.6,172.01c.68-.81,1.24-1.94,2.11-2.3.44-.18,1.45,1.05,2.21,1.64-1.19.51-2.38,1.02-3.57,1.53-.25-.29-.5-.58-.74-.86Z"/>
      <path class="cls-1" d="M35.82,97.56c.42.65.59,1.1.92,1.39.56.49,1.18.96,1.84,1.29.45.22,1.02.19,1.54.27-.07.3-.06.8-.23.88-.69.31-1.8.9-2.09.64-1.02-.91-1.8-2.11-2.6-3.25-.1-.14.3-.61.61-1.22Z"/>
      <path class="cls-1" d="M115.29,128.04c.45,1.17.93,2.34,1.29,3.53.02.06-.94.42-1.45.63-.43-1.23-.85-2.45-1.28-3.68.48-.16.96-.33,1.44-.49Z"/>
      <path class="cls-1" d="M76.56,149.7c-.26,1.49-.47,2.99-.83,4.46-.07.28-.79.51-1.21.52-.2,0-.66-.65-.59-.85.54-1.48,1.19-2.92,1.81-4.37.27.08.55.16.82.23Z"/>
      <path class="cls-1" d="M214.87,38.64c1.2-.66,2.4-1.31,3.6-1.97.15.56.53,1.54.41,1.61-1.12.6-2.33,1.05-3.51,1.55-.17-.39-.33-.79-.5-1.18Z"/>
      <path class="cls-1" d="M224.94,192.43c-.03.27-.14,1.15-.25,2.03-1.27-.19-2.55-.36-3.81-.59-.09-.02-.2-.56-.1-.73.1-.16.47-.18.73-.22.94-.15,1.88-.27,3.43-.5Z"/>
      <path class="cls-1" d="M76.32,158.62c2.27-.61,3.72-1.07,5.21-1.34.29-.05.8.63,1.02,1.07.06.13-.55.86-.82.85-1.57-.09-3.13-.31-5.41-.58Z"/>
      <path class="cls-1" d="M236.15,163.42c-1.55,1.93-1.97,2.46-2.39,2.98-.47-.62-1.22-1.2-1.3-1.86-.07-.55.59-1.61,1.06-1.7.75-.15,1.63.33,2.64.58Z"/>
      <path class="cls-1" d="M188.66,191.48c2.29-.85,4.57-1.7,6.86-2.55.12.38.23.75.35,1.13-2.37.67-4.74,1.35-7.11,2.02-.03-.2-.07-.4-.1-.6Z"/>
      <path class="cls-1" d="M136.24,75.56c-1.79,1.46-2.34,2.24-2.82,2.2-.51-.04-.95-.87-1.42-1.36.56-.54,1.04-1.32,1.7-1.55.52-.18,1.27.32,2.54.7Z"/>
      <path class="cls-1" d="M255.71,165.26c-1.23-.88-2.18-1.56-3.12-2.23.1-.23.2-.46.3-.69,1.07.23,2.21.34,3.17.79.19.09-.24,1.51-.35,2.13Z"/>
      <path class="cls-1" d="M26.29,175.89c-1.04.76-2.09,1.52-3.13,2.27.05-.66-.15-1.56.2-1.92.61-.63,1.57-.93,2.38-1.37.18.34.37.68.55,1.01Z"/>
      <path class="cls-1" d="M109.72,24.06c.59-1.01,1.14-2.04,1.8-3,.11-.15.73.06,1.12.1-.58,1.18-1.15,2.35-1.73,3.53-.4-.21-.79-.42-1.19-.63Z"/>
      <path class="cls-1" d="M243.5,196.59c-1.45-.23-2.69-.36-3.91-.64-.41-.09-.84-.48-1.07-.85-.09-.14.33-.81.62-.9.39-.12.96-.02,1.31.2.97.61,1.88,1.33,3.06,2.19Z"/>
      <path class="cls-1" d="M287.13,177.09c-.93.53-1.43.98-1.6.88-.85-.5-1.6-1.15-2.39-1.75.37-.24.84-.75,1.1-.66.83.3,1.59.81,2.9,1.53Z"/>
      <path class="cls-1" d="M67.02,194.92c1.13-.35,2.26-.73,3.41-1.01.08-.02.32.63.49.96-1.16.43-2.33.86-3.49,1.29-.14-.41-.27-.83-.41-1.24Z"/>
      <path class="cls-1" d="M254.1,112.4c.53-.59.98-1.1,1.43-1.61.28.38.86.83.79,1.11-.22.78-.7,1.48-1.08,2.22-.32-.48-.63-.96-1.13-1.72Z"/>
      <path class="cls-1" d="M198.42,24.93c-.73-1.1-1.45-2.19-2.18-3.29.31-.22.63-.44.94-.65.77,1.09,1.53,2.17,2.3,3.26-.35.23-.71.45-1.06.68Z"/>
      <path class="cls-1" d="M70.98,50.89c.11-1.11.18-2.23.36-3.33.03-.16.57-.24.87-.35v3.71c-.41,0-.82-.02-1.24-.03Z"/>
      <path class="cls-1" d="M145.94,20.36c-.21-1.16-.42-2.32-.63-3.48.37-.06.74-.11,1.11-.17.14,1.17.28,2.34.41,3.51-.3.05-.6.09-.9.14Z"/>
      <path class="cls-1" d="M54.03,157.75c-1.02.65-1.67,1.06-2.31,1.46-.21-.38-.68-.91-.57-1.1.36-.59.89-1.11,1.46-1.52.1-.07.69.55,1.42,1.15Z"/>
      <path class="cls-1" d="M166.95,21.58c.29-1.06.54-2.14.91-3.17.04-.11.72,0,1.11,0-.35,1.14-.69,2.28-1.04,3.42-.33-.09-.65-.17-.98-.26Z"/>
      <path class="cls-1" d="M163.39,208.92c-.87,1.96-1.74,3.92-2.61,5.87-.21-.09-.42-.19-.63-.28.87-1.97,1.73-3.94,2.6-5.91.21.11.43.21.64.32Z"/>
      <path class="cls-1" d="M155.47,209.55c-.54-1.58-1.09-3.16-1.63-4.74.19-.09.38-.18.57-.27.68,1.51,1.35,3.03,2.03,4.54-.32.16-.65.31-.97.47Z"/>
      <path class="cls-1" d="M56.37,101.45c.87.68,1.74,1.37,2.6,2.05-.26.28-.71.82-.75.79-.87-.63-1.7-1.32-2.53-2,.23-.28.45-.56.68-.84Z"/>
      <path class="cls-1" d="M151.96,171.24c.22-2.15.44-4.3.66-6.46.29.04.58.08.87.12-.38,2.17-.75,4.34-1.13,6.51-.13-.06-.27-.11-.4-.17Z"/>
      <path class="cls-1" d="M276.8,171.21c.09-1.25.19-2.51.28-3.76.36.05.73.09,1.09.14-.17,1.24-.34,2.49-.51,3.73-.29-.03-.57-.07-.86-.1Z"/>
      <path class="cls-1" d="M183.05,23.98c-.79-.85-1.58-1.71-2.62-2.83.52.05,1.46-.15,1.87.23.64.58.92,1.56,1.35,2.37-.2.08-.4.16-.6.24Z"/>
      <path class="cls-1" d="M65.15,46.32c.83-.69,1.46-1.46,1.7-1.35.53.23.92.88,1.22,1.43.07.12-.53.86-.72.82-.62-.12-1.19-.47-2.19-.9Z"/>
      <path class="cls-1" d="M70.66,64.06c.12.96.23,1.93.35,2.89-.49.04-.97.09-1.46.13.17-.93.34-1.86.52-2.79.2-.08.39-.16.59-.24Z"/>
      <path class="cls-1" d="M259.38,158.12c-1.11.33-1.69.7-2,.54-.61-.31-1.12-.88-1.55-1.44-.07-.1.64-1,.71-.96.61.29,1.16.72,2.83,1.86Z"/>
      <path class="cls-1" d="M46.09,144.83c1.09,1.18,1.48,1.6,1.86,2.01-.39.31-.87.93-1.15.85-.53-.15-1.13-.62-1.33-1.11-.14-.35.32-.95.63-1.75Z"/>
      <path class="cls-1" d="M156.46,42.95c-.91.63-1.42,1.18-2.01,1.31-.35.08-.84-.52-1.27-.82.59-.39,1.14-.87,1.79-1.11.27-.1.73.29,1.49.62Z"/>
      <path class="cls-1" d="M233.56,190.61c-.57.13-1.27.46-1.45.28-.5-.5-.88-1.18-1.12-1.86-.08-.23.41-.66.64-1,.43.57.86,1.15,1.93,2.57Z"/>
      <path class="cls-1" d="M177.95,279.89c-.73.41-1.22.88-1.43.78-.54-.27-1.03-.74-1.39-1.24-.08-.11.62-.98.67-.96.63.34,1.22.77,2.15,1.42Z"/>
      <path class="cls-1" d="M156.16,68.96c-.79.57-1.2.86-1.61,1.15-.34-.47-.76-.92-.97-1.45-.05-.14.62-.81.86-.76.49.11.92.53,1.71,1.05Z"/>
      <path class="cls-1" d="M261.37,180.52c.85.11,1.7.18,2.52.37.09.02.01.73.02,1.12-.9-.18-1.8-.37-2.7-.55.05-.31.11-.62.16-.94Z"/>
      <path class="cls-1" d="M63.9,70.27c-.95-1.39-1.9-2.78-2.84-4.17.21-.16.42-.31.63-.47.91,1.4,1.82,2.81,2.72,4.21-.17.14-.34.29-.52.43Z"/>
      <path class="cls-1" d="M82.57,59.2c.84-.14,1.69-.28,2.53-.41.05.38.17,1.09.14,1.1-.83.19-1.68.3-2.52.42-.05-.37-.1-.74-.15-1.11Z"/>
      <path class="cls-1" d="M71.07,165.91c-.67-.93-1.11-1.5-1.47-2.12-.03-.06.63-.67.71-.62.57.35,1.13.77,1.54,1.28.1.12-.36.69-.79,1.46Z"/>
      <path class="cls-1" d="M105.64,49.52c-.67.54-1.18,1.13-1.36,1.05-.51-.25-.88-.78-1.3-1.2.36-.23.73-.67,1.07-.65.45.03.88.42,1.59.8Z"/>
      <path class="cls-1" d="M238.61,162.5c.46.67.96,1.12.87,1.33-.18.45-.61.91-1.06,1.08-.22.09-1.02-.6-.98-.7.21-.51.6-.94,1.16-1.72Z"/>
      <path class="cls-1" d="M157.37,216.28c.31,1.69.62,3.38.93,5.07-.21.04-.42.07-.63.11-.3-1.71-.6-3.43-.91-5.14.2-.01.4-.02.61-.03Z"/>
      <path class="cls-1" d="M46.32,142.87c-.81.37-1.61.76-2.43,1.09-.05.02-.31-.5-.47-.77l2.47-1.31c.14.33.29.66.43.99Z"/>
      <path class="cls-1" d="M55.25,79.41c.89-.18,1.78-.36,2.68-.48.04,0,.15.6.23.91-.92.14-1.83.27-2.75.41-.06-.28-.11-.56-.17-.84Z"/>
      <path class="cls-1" d="M103.65,179.48h2.96c.01.27.03.53.04.8-.95.05-1.91.11-2.86.16-.05-.32-.09-.64-.14-.96Z"/>
      <path class="cls-1" d="M198.54,174.79c-.41.69-.82,1.38-1.23,2.06-.33-.2-.65-.4-.98-.6.47-.67.94-1.34,1.41-2.01.27.18.54.36.81.54Z"/>
      <path class="cls-1" d="M265.63,185.08c-.97.62-1.94,1.24-2.92,1.86-.18-.27-.36-.53-.54-.8,1.04-.55,2.09-1.09,3.13-1.64.11.19.22.39.32.58Z"/>
      <path class="cls-1" d="M162.18,205.66c-.7.97-1.41,1.94-2.11,2.91-.21-.16-.43-.31-.64-.47.7-.98,1.39-1.96,2.09-2.93.22.16.44.33.67.49Z"/>
      <path class="cls-1" d="M240.39,141.65c.41-.8.81-1.61,1.22-2.41.27.18.79.47.77.52-.36.79-.78,1.56-1.19,2.33-.27-.14-.53-.29-.8-.43Z"/>
      <path class="cls-1" d="M43.38,141.84c-.37-.63-.84-1.17-.74-1.33.3-.46.79-.84,1.3-1.08.16-.08.58.41.89.64-.41.51-.83,1.02-1.44,1.78Z"/>
      <path class="cls-1" d="M206.95,41.84c-1.07-.58-2.15-1.16-3.22-1.75.14-.26.29-.52.43-.78,1.05.61,2.09,1.22,3.14,1.82-.12.23-.24.47-.35.7Z"/>
      <path class="cls-1" d="M263.59,158.25c-.63.66-1.08,1.14-1.54,1.61-.23-.29-.71-.69-.64-.84.24-.53.63-1.01,1.05-1.43.06-.06.57.33,1.12.65Z"/>
      <path class="cls-1" d="M204.2,99.84c-1.31.83-2.63,1.67-3.94,2.5.04-.83-.24-2.08.18-2.4.92-.7,2.21-.92,3.34-1.34.14.41.28.82.42,1.24Z"/>
      <path class="cls-1" d="M214.82,90.47c-.94,1.4-1.59,2.37-2.23,3.34-.29-.37-.9-.9-.81-1.08.51-1.01,1.17-1.94,1.85-2.85.04-.06.68.34,1.19.6Z"/>
      <path class="cls-1" d="M200.72,106.98c-.46-.7-.89-1.18-1.08-1.74-.05-.16.79-.83.84-.79.57.46,1.06,1.02,1.57,1.54-.35.26-.7.52-1.33.99Z"/>
      <path class="cls-1" d="M190.28,92.16c-.64,1.04-1.13,1.84-1.63,2.65-.44-.59-1.36-1.36-1.22-1.73.26-.71,1.11-1.23,1.78-1.74.08-.06.6.45,1.07.81Z"/>
    </g>
  </g>
</svg>