<?xml version="1.0" encoding="UTF-8"?>
<svg id="Layer_1" xmlns="http://www.w3.org/2000/svg" viewBox="0 0 246.01 297.64">
  <defs>
    <style>
      .cls-1 {
        fill: #a61e2f;
      }
    </style>
  </defs>
  <g id="dnJ93e">
    <g>
      <path class="cls-1" d="M115.73,42.14c-2.5.3-4.77.57-7.05.85-.29.04-.59.08-.88.14-1.07.21-1.89.58-2,1.92-.08.95-.5,1.87-.78,2.84q-.8-.62-.01-3.58c-5.03,1.17-8.85,4.21-12.58,7.19,0,.1,0-.08.05-.64-.67.74-1.11,1.29-1.62,1.75-.17.15-.54.13-.8.1-.24-.03-.47-.2-.71-.29-2.36-.92-2.81-.63-3.09,1.87-.13,1.18-.39,2.36-.58,3.53-.11.65-.46,1.36.48,1.75,1.05.45,2.4.26,2.91-.46.98-1.36.82-2.82.41-4.3-.13-.48-.27-.96-.48-1.72,1.49.76,2.45,1.63,2.86,2.94.41,1.3.03,2.27-.86,3.51-.78,1.07-1.49.91-2.2.84-1.39-.13-2.78-.48-4.12-.89-.98-.3-1.33-.96-.98-2.11.45-1.51.71-3.09.89-4.66.1-.89.45-1.3,1.27-1.19,1.56.2,3.11.49,4.74.75,8.43-10.76,19.62-14.12,33.05-11.51-1.18-1.11-2.25-2.11-3.32-3.11.09-.14.17-.29.26-.43.44.06.9.04,1.3.2,2.15.85,4.36,1.62,6.41,2.69.94.49,1.58,1.58,2.34,2.41.28.3.46.76.8.93,1.36.72,2.76,1.37,4.39,1.85-.86-1.14-1.72-2.27-2.62-3.47,3.7-.66,6.71,1.75,8.67,6.78-1.23-.54-1.82-1.19-3.06-3.18-.52-.83-1.11-1.65-1.82-2.32-.42-.39-1.14-.47-1.83-.5,1.19,1.7,1.65,3.68,3.57,4.9,7.1,4.5,12.88,10.42,17.65,17.33.24.34.51.66.77.99.13-.06.25-.12.38-.18-.37-.83-.57-1.82-1.15-2.46-1.48-1.63-2.3-3.56-3.21-5.52-1.04-2.26-2.57-4.29-3.89-6.42-.19.1-.39.2-.58.3.55,1.47,1.1,2.95,1.64,4.41-2.45-1.23-3.09-3.69-4.02-6.34,6.67,1.36,8.56,6.44,10.25,11.81.05-.6.1-1.2.15-1.92,1.84,0,2.94,1.15,3.7,2.44,1.93,3.29,2.56,6.8,1.15,10.5-.13.34-.06.85.09,1.2.83,1.83,1.71,3.63,2.69,5.66.25-.85.4-1.56.68-2.22.16-.37.67-.96.82-.9.63.24,1.55.57,1.71,1.08.77,2.47,1.52,5.25.41,7.55-1.07,2.23-.49,4.02-.08,6.03.39,1.92.77,3.85,1.19,5.98.37-.49.58-.91.92-1.19.34-.28.86-.67,1.18-.58.37.1.79.65.86,1.06.4,2.44.03,4.78-1.28,6.92-1.21,1.98-1.42,4.05-.66,6.38.85-.96,1.61-1.8,2.35-2.67.57-.68,1.36-1.02,2.02-.46.43.37.77,1.32.6,1.84-.53,1.62-1.24,3.19-2.02,4.71-.57,1.1-1.33,2.09-2.07,3.09-.27.37-.72.61-1.22.8.16-3.35,2.3-5.9,3.5-9.04-1.24.92-2.3,1.67-3.3,2.48-.18.15-.17.55-.22.84-.44,2.92-.78,5.86-1.34,8.75-.27,1.38-.28,2.77-.51,4.14-.12.73-.24,1.46-.35,2.2.14.07.27.14.41.21,1.26-.79,2.53-1.56,3.77-2.38,3.11-2.07,6.65-3.19,10.08-4.55,4.23-1.68,8.49-3.29,12.68-5.06,2.57-1.08,5.09-2.3,7.52-3.66,3.47-1.96,7.19-3.22,10.97-4.34,1.99-.59,4.03-1.06,6.08-1.35,1.3-.18,2.65.07,3.83.11-.42.71-.87,1.19-.99,1.73-.89,4.09-1.87,8.17-2.5,12.3-.37,2.44-.14,4.96-.21,7.45-.11,3.78-.24,7.55-.36,11.33-.15,4.59-.07,9.2-.5,13.76-.62,6.58-1.16,13.16-2.99,19.62-2.39,8.42-6.47,15.93-11.13,23.2-2.45,3.83-5.23,7.46-8.78,10.32-3.29,2.66-6.78,5.07-10.24,7.5-.89.63-2.02.93-3.02,1.41-2.27,1.09-4.6,2.08-6.78,3.32-6.26,3.58-13.06,5.92-19.6,8.85-4.69,2.1-9.18,4.64-13.73,7.05-.45.24-.91.92-.94,1.42-.31,4.79-.41,9.6-.83,14.39-.3,3.39-.98,6.74-1.52,10.1-.17,1.08-1.01,1.47-1.95,1.52-1.07.07-1.71-.62-1.82-1.62-.25-2.39-.69-4.8-.53-7.17.33-4.93-.34-9.71-1.15-14.56-.78-4.68-.96-9.48-1.16-14.24-.23-5.23-.32-10.48-.21-15.72.08-3.42.51-6.85,1.01-10.24.37-2.52,1.14-4.99,1.66-7.49.09-.45.02-1.08-.23-1.45-1.43-2.13-2.94-4.21-4.43-6.3-2.75-3.86-6.88-5.97-10.69-8.5-2.75-1.82-5.53-3.65-8.05-5.77-2.98-2.52-6.33-4.41-9.72-6.22-6.92-3.7-13.33-8.15-19.47-13-2.42-1.91-5-3.65-7.29-5.71-.98-.88-1.35-2.42-2.11-3.58-.74-1.13-1.51-2.31-2.49-3.21-2.93-2.67-4.84-6.1-7.08-9.27-1.07-1.51-1.16-3.45-1.61-5.24-.99-3.98-1.89-8.2-5.43-10.85-1.57-1.18-3.57-1.83-5.43-2.58-2.42-.98-5.07-1.51-7.02-3.36-1.03-.98-1.99-2.15-2.61-3.42-.86-1.76-1.14-3.82-2.06-5.54-2.64-4.9-5.36-7.81-11.28-8.04-.73-.03-1.46,0-2.49,0,.49-.13.71-.18.92-.24,0-.07,0-.14,0-.2-.89-.18-1.78-.37-2.85-.59.24-.47.34-1.07.69-1.3,3.47-2.3,6.77-5.03,10.53-6.67,4.62-2.01,9.65-3.15,14.82-2.75,5.14.4,10.29.77,15.4,1.43,5.58.71,10.77,2.73,15.84,5.19,7.32,3.55,14.31,7.64,20.69,12.67,4.57,3.6,8.95,7.44,13.22,11.39,5.66,5.24,10.24,11.38,14.42,17.86,2.73,4.22,4.51,8.82,6.17,13.49,1.07,3,1.9,6.08,2.76,9.15.13.45.73,1.4-.27,1.46.29.61.79,1.28.94,2.02.77,3.81,1.48,7.64,2.16,11.47.16.87.15,1.77.24,2.87.25-.17.59-.27.65-.46,1.48-4.74,3.76-9.06,6.58-13.13.4-.58.65-1.27,1.04-2.05-3.25-.77-4.88-2.58-4.1-5.96-.06-.05-.13-.16-.17-.15-1.6.32-2.36-.34-1.47-2.28.38-.84.95-1.59,1.44-2.38-.07-.09-.14-.19-.2-.28-.58.37-1.22.66-1.72,1.11-.85.78-1.77.64-2.43,0-.66-.63-.26-1.39.4-1.96.29-.25.48-.6.74-.89,1.9-2.1,3.71-2.18,5.9-.29-.86-.22-1.9-.84-2.54-.56-1.02.46-1.78,1.51-2.83,2.48,1.44-.13,2.58-.22,3.72-.32.06.15.12.3.18.44-.64,1.36-1.28,2.71-1.99,4.23,1.11-.18,1.95-.32,3.09-.5-.8,1.71-1.12,3.14-.39,4.68,1.12,2.35,2.26,2.54,3.96.59,1.6-1.84,2.73-3.8,2.46-6.39-.14-1.29-1.63-2.79-2.94-2.65,1.06-1.09,2.64-.69,4,1.73-.17,1.24-.28,2.11-.4,2.99l.43.14c1.49-1.74,3.11-3.4,4.42-5.27.59-.85.61-2.11.84-3.2.97-4.69,2.09-9.35,2.83-14.07.69-4.39,1.1-8.83,1.38-13.27.22-3.49.32-7.02.02-10.49-.31-3.66-1.11-7.29-1.79-10.91-.24-1.29-.71-2.54-1.12-3.79-.12-.38-.37-.72-.61-1.19-1.34,2.15-1.37,4.4-1.57,6.61-.01.16.03.41.13.47,1.49.86,1.51,2.56,2.03,3.89.45,1.16.23,2.59.31,3.89-.12.03-.24.06-.36.08-.38-.87-.83-1.71-1.11-2.61-.53-1.71-.37-3.68-2.03-4.97-.19-.14.14-.84.06-1.24-.54-2.51.08-4.65,1.84-6.52.26-.28.47-.91.33-1.21-1.68-3.56-3.43-7.09-5.17-10.62-.09-.17-.27-.3-.53-.58-.85,1.54-1.51,3.02-1.39,4.67.03.46.59.94,1.01,1.3,2.42,2.11,3.04,5.64-.78,7.54.32-1.56.76-3.11.94-4.7.21-1.85-.94-2.85-2.53-3.55-1.41-.62-2.51-.92-3.63.23-1.42,1.47-2.66,3.05-2.62,5.26.01.51,0,1.02,0,1.54-1.97-1-2.21-3.95-.47-5.82,1.32-1.42,2.78-2.6,4.92-2.24.85.14,1.06-.41,1.31-1.07.62-1.65,1.33-3.28,2.18-5.34-2.62-4.06-5.79-8.36-9.65-12.15-.69.74-1.24,1.32-1.78,1.9-.41-.31-.71-.53-1.11-.83.31-.53.69-1.01.87-1.56.13-.39.18-1.09-.05-1.28-3.55-3.02-7.46-5.36-12.09-6.29-.08-.02-.16.03-.1.02-.48.94-.91,1.81-1.33,2.63-1.77-.41-1.78-.56-.2-3.28-1.14-.33-2.2-.74-3.3-.94-1.98-.36-3.98-.57-5.96-.91-1.02-.17-1.63.19-1.95,1.14-.14.41-.26.82-.45,1.21-.34.7-.17,1.13.49,1.61,2.26,1.65,2.68,3.34,1.62,5.83-.48,1.13-1.36,1.68-2.53,1.62-1.14-.06-2.27-.27-3.4-.46-1.03-.17-1.76-.77-1.9-1.83-.15-1.13-.37-2.32-.19-3.42.33-2,2.13-2.73,4.29-1.92-2.71.6-3.66,3.55-2.1,6.46,1.24-.78,1.67-.71,2.63.44,1.83-.87,2.63-3.3,1.69-5.24-.2-.42-.42-.91-.78-1.17-1.57-1.15-1.09-2.42-.35-3.76.14-.24.16-.55.33-1.22ZM204.53,121.24l.03.1c.49-.86.98-1.72,1.48-2.58,0,0-.07-.08-.15-.09-.21-.02-.43-.04-.64-.01-3.17.36-6.27.31-9.42-.54-2.92-.8-5.78.07-8.03,2.06-2.63,2.32-5.03,4.91-7.5,7.41-.88.9-1.62,1.94-2.51,2.83-2.89,2.87-5.81,5.71-8.73,8.54-.26.25-.6.42-.9.62-.07-.09-.13-.18-.2-.27,5.23-6.28,10.57-12.46,16.82-17.77-1.77.53-3.51,1.04-5.25,1.58-.89.28-1.84.5-2.65.94-1.95,1.08-3.89,2.19-5.73,3.44-1.11.76-1.94,1.95-3.08,2.64-.96.58-1.43,1.28-1.68,2.27-1.1,4.35-2.14,8.72-3.34,13.04-1.47,5.32-3.02,10.62-4.66,15.89-1.3,4.2-2.75,8.36-4.21,12.51-1.02,2.9-2.29,5.71-3.24,8.64-1.57,4.83-3,9.71-4.44,14.58-1.58,5.37-3.13,10.74-4.63,16.13-.34,1.21-.41,2.48-.6,3.73.13.03.26.07.39.1,3.92-11.04,9.3-21.36,15.24-31.4,5.93-10.03,13.43-18.96,20.26-28.35-.47,1.1-1.1,2.09-1.74,3.07-1.49,2.3-2.94,4.63-4.47,6.9-3.22,4.78-6.59,9.47-9.7,14.33-2.61,4.07-5.17,8.2-7.34,12.51-4.28,8.48-8.3,17.08-12.35,25.67-.39.84-.24,1.93-.35,2.9.18.08.35.16.53.24,2.84-2.91,5.68-5.82,8.51-8.73,5.95-6.12,12.34-11.7,19.7-16.09,1.17-.7,2.36-1.36,3.54-2.05-1.26,1.28-2.68,2.32-4.03,3.43-4.98,4.08-10.01,8.11-14.9,12.31-4.17,3.58-8.16,7.37-12.24,11.06-.56.51-1.18.99-.58,2.02,1.83-2.14,4.22-3.16,6.67-4.14,1.86-.74,3.73-1.53,5.41-2.59,1.61-1.01,2.93-2.47,4.47-3.62,3.1-2.33,6.21-4.64,9.4-6.85,6.43-4.45,12.65-9.13,17.9-14.98.63-.7,1.32-1.34,1.98-2.01-8.33,11.6-19.6,19.79-31.36,27.47,1.17-.34,2.33-.72,3.43-1.25,3.17-1.51,6.5-2.79,9.43-4.68,4.67-3.01,9.14-6.32,13.1-10.29,2.77-2.77,5.84-5.24,8.76-7.86.91-.81,1.86-1.59,2.63-2.52,1.9-2.29,3.71-4.66,5.56-6.99.04-.06.15-.06.33-.13-.23.46-.44.79-.57,1.14-2.27,6.14-7.01,10.38-11.58,14.67-2.99,2.8-6.33,5.27-9.68,7.64-3.25,2.29-6.69,4.31-10.1,6.36-1.29.78-2.74,1.3-4.35,2.05.41,0,.58.03.73,0,3.72-.95,7.43-1.91,11.15-2.86,4.91-1.26,9.52-3.16,13.52-6.34,2.54-2.02,5.38-3.69,7.48-6.25,1.02-1.24,2.38-2.22,3.28-3.53,2.46-3.56,4.75-7.23,7.11-10.86,2.89-4.45,5.02-9.3,6.7-14.29,1.98-5.87,3.14-11.95,3.49-18.15.32-5.66.6-11.32.92-16.98.2-3.52.65-7.03.64-10.55-.02-5.32.44-10.54,2.02-15.63.4-1.29.7-2.6,1.14-4.25-1.04,1.5-1.85,2.7-2.68,3.88-3.89,5.53-7.61,11.2-11.75,16.54-3.48,4.49-7.44,8.62-11.24,12.86-.69.77-1.61,1.34-2.42,2,5.58-9.06,12.56-16.99,19.04-25.31-.68.16-1.22.5-1.8.72-1.62.61-3.15,1.3-4.25,2.75-.4.52-1.12.8-1.69,1.19ZM111.82,138.82c8.6,7.51,14.18,17.28,19.83,27.03-.58-1.9-1.29-3.71-2.11-5.47-1.01-2.19-2.03-4.38-3.2-6.5-1.88-3.41-3.67-6.89-5.88-10.08-2.55-3.67-5.53-7.04-8.28-10.57-4.69-6.01-9.36-12.05-14.02-18.09-.97-1.26-1.87-2.58-2.8-3.88.61.14,1.02.43,1.35.8,6.64,7.12,13.31,14.2,19.27,21.92,4.74,6.14,9.48,12.24,12.4,19.54.81,2.03,1.99,3.9,2.88,5.9,2.47,5.54,4.7,11.16,6.3,17.03.84,3.08,2.2,6.01,3.32,9.01-.01-1.78.01-3.58-.32-5.32-.55-2.86-1.34-5.67-2.03-8.5-.54-2.2-.96-4.45-1.67-6.59-1.79-5.41-3.66-10.79-5.6-16.14-.9-2.49-1.81-5.01-3.1-7.3-2.72-4.81-5.63-9.52-8.6-14.18-1.93-3.03-3.95-6.02-6.16-8.85-2.9-3.72-6.03-7.26-9.04-10.88-1.26-1.52-2.49-3.07-3.73-4.6,2.32,1.88,4.42,3.94,6.55,5.98,4.33,4.15,8.3,8.61,11.61,13.62,2.05,3.11,4.13,6.21,6.02,9.42,1.98,3.36,4.12,6.7,5.54,10.3,2.69,6.87,4.94,13.91,7.32,20.9.57,1.68.95,3.42,1.49,5.41.16-.44.28-.6.26-.73-.29-2.05-.57-4.09-.9-6.13-.28-1.72-.6-3.44-.94-5.15-.47-2.32-.94-4.65-1.47-6.96-.56-2.44-1.07-4.9-1.84-7.28-.88-2.72-2-5.36-3.07-8.01-.74-1.83-1.35-3.76-2.4-5.39-2.94-4.58-5.85-9.21-9.22-13.47-3.15-3.99-6.73-7.68-10.4-11.22-2.89-2.79-6.07-5.31-9.32-7.68-4.43-3.24-8.96-6.37-13.62-9.28-2.9-1.81-6.16-3.04-9.18-4.69-4.16-2.28-8.65-3.56-13.25-4.48-5.92-1.18-11.91-1.68-17.94-1.74-3.41-.03-6.76.71-9.72,2.17-3.49,1.72-6.64,4.12-9.92,6.25-.27.18-.42.55-.63.84.37.08.73.22,1.1.23,1.52.03,3.04.01,4.56.01,0,.1,0,.2.01.31-.65.16-1.31.33-1.96.49.33.32.61.36.89.41,2.38.37,4.68.93,6.6,2.52,2.73,2.25,4.44,5.17,5.74,8.4.68,1.68.88,3.51,2.32,4.93,2.93,2.88,6.86,3.54,10.41,5.05,1.91.81,3.66,1.76,4.95,3.5,2.43,3.28,3.23,7.1,4.03,10.97.27,1.31.57,2.88,1.43,3.77,2.6,2.68,4.1,6.16,6.86,8.74,2.21,2.07,4.42,4.15,7.13,5.41,4.43,2.05,9.05,3.69,13.56,5.58,3.49,1.46,7.04,2.82,10.35,4.63,4.48,2.45,8.59,5.5,12.43,8.88,2.61,2.29,5.33,4.49,7.68,7.03,2.04,2.22,3.62,4.86,5.41,7.31.78,1.07,1.56,2.13,2.34,3.19l.27-.19c-5.44-9.35-10.98-18.63-17.5-27.31-6.52-8.67-12.58-17.7-20.28-25.41,1.8,1.67,3.82,3.1,5.4,4.92,1.78,2.06,4.21,3.49,5.4,6.2.65,1.48,2.4,2.44,3.49,3.78,3.64,4.49,7.32,8.96,10.77,13.61,3.15,4.24,6.25,8.56,8.96,13.08,3.37,5.62,6.32,11.5,9.45,17.26.08.14.25.22.48.42-.97-6.56-19.68-39.39-26.02-44.66ZM138.26,217.85c.12.01.24.02.36.03.07-.19.15-.38.2-.57,1.13-4.39,2.19-8.8,3.41-13.16,1.38-4.94,2.91-9.83,4.37-14.75.82-2.75,1.51-5.54,2.47-8.23,2.09-5.84,4.49-11.58,6.44-17.47,2.11-6.35,3.89-12.8,5.73-19.24,1.18-4.13,2.22-8.29,3.29-12.45.08-.31-.13-.7-.25-1.25.31-.64.95-1.48,1.12-2.42.69-3.71,1.28-7.43,1.81-11.16.19-1.38-.03-2.82.17-4.2.78-5.18.7-10.34.2-15.54-.94-9.6-3.93-18.54-8.48-27-2.01-3.74-4.31-7.29-7.24-10.4.04.3.14.56.29.79,1.68,2.58,3.46,5.1,5.02,7.75,1.12,1.91,2.03,3.96,2.89,6,1.15,2.74,2.36,5.48,3.21,8.32,1.15,3.88,1.81,7.86,2.08,11.95.26,4.02.66,8,.27,12.02-.42,4.38-.69,8.79-1.38,13.13-.73,4.64-1.86,9.21-2.83,13.81-1.31,6.24-2.44,12.53-4.02,18.71-1.33,5.18-3.1,10.25-4.85,15.31-1.79,5.19-3.84,10.3-5.7,15.47-1.5,4.19-3.16,8.36-4.26,12.66-1.45,5.73-2.44,11.57-3.6,17.37-.3,1.49-.49,3-.72,4.49ZM142.1,189.67c.16.03.32.07.48.1,1.05-2.79,2.11-5.57,3.16-8.36,1.06-2.81,2.03-5.65,3.2-8.41,1.13-2.66,1.75-5.46,2.71-8.16,1-2.82,1.93-5.67,2.78-8.55.84-2.87,1.59-5.77,2.29-8.67.69-2.86,1.27-5.74,1.9-8.61-.14-.04-.28-.07-.42-.11-1.66,2.37-3.38,4.7-4.97,7.11-1.72,2.61-3.4,5.24-4.95,7.95-1.4,2.44-2.62,4.99-3.87,7.51-.82,1.65-1.44,3.42-2.41,4.97-.56.89-.7,1.62-.61,2.62.32,3.4.54,6.81.81,10.21.01.16.17.31.38.66.66-2.21,1.1-4.27,1.89-6.19.77-1.89,1.88-3.65,2.84-5.46.21.08.42.16.62.24-2.99,6.8-4.04,14.06-5.81,21.15ZM78.11,141.68c-.08.1-.16.19-.25.29.46.42.89.89,1.39,1.26,4.24,3.13,8.44,6.34,12.78,9.34,3.47,2.4,7.01,4.78,10.73,6.74,4.6,2.42,9.07,4.98,13.03,8.35,1.13.96,2.08,2.15,3.28,3,2.14,1.51,4.4,2.84,6.62,4.24.16.1.37.12.56.18-.31-.81-.91-1.37-1.26-2.06-1.19-2.34-2.68-4.49-4.55-6.28-2.92-2.81-5.99-5.48-9.08-8.1-4.83-4.1-9.99-7.7-15.95-10.03-5.79-2.26-11.54-4.62-17.31-6.93ZM135.72,232.57c.16-2.09.37-4.18.47-6.27.15-3.25.02-6.52.37-9.74.43-3.95,1.2-7.87,1.89-11.79.45-2.55.48-5.02-.58-7.46-.59-1.37-.95-2.84-1.43-4.26-.36-1.06-.75-2.1-1.12-3.15-.14.03-.29.05-.43.08-2.86,14.21-1.03,28.38.84,42.59ZM194.05,116.04c.56.18.91.35,1.27.41,5.33.94,10.54,1.06,15.67-1.23,2.44-1.09,4.45-2.5,5.94-4.67.9-1.3,1.71-2.66,2.74-4.27-9.1,2.26-17.25,5.92-25.63,9.76ZM172.68,216.54c-.19,0-.39-.03-.57,0-2.77.58-5.55,1.09-8.29,1.77-3.12.77-6.26,1.52-9.29,2.56-3.15,1.08-6.42,1.99-9.06,4.19-1.08.91-2.12,1.87-3.18,2.81-.99.87-1.45,2.81-.93,4.3,9.68-6.74,21.21-9.68,31.32-15.62ZM137.2,47.1c-3.88-2.91-10.1-4.9-19.17-6.25-5.04-.75-16.93,2.48-19.05,5.28.68-.28,1.23-.48,1.77-.74,4.71-2.27,9.66-3.5,14.89-3.34,1.7.05,3.4.4,5.07.74,3.14.63,6.29,1.26,9.39,2.05,2.31.59,4.54,1.44,7.11,2.26ZM137.6,248.2c-.06-.37-.11-.64-.15-.91-.89,3.37-1.23,6.74-.74,10.12l.52.03c.43-3.39.87-6.77,1.3-10.16-.11-.02-.22-.04-.33-.07-.2.32-.39.64-.6.99ZM129.98,42.84c-.67-1.89-5.07-4.35-7.61-4.35,1.62,3.04,4.78,3.2,7.61,4.35ZM137.82,188c.77,2.36,1.54,4.72,2.32,7.1,1.42-3.1-.59-5.06-2.32-7.1ZM140.76,221.9c-.35.23-.88.39-.95.66-.32,1.27-.52,2.58-.77,3.91,2.06,0,2.07-1.62,1.72-4.57ZM159.07,62.08c-.22.04-.45.08-.67.12.54,2.83,1.07,5.65,1.61,8.48.2-.04.4-.08.61-.12-.51-2.83-1.03-5.65-1.54-8.48ZM166.07,84.2c.14-.04.28-.08.41-.13-.12-1.71-.24-3.41-.38-5.36-.44.87-.74,1.46-1.18,2.32.3.81.73,1.99,1.15,3.16ZM170.55,97.93c-.21-.04-.42-.08-.62-.12-.18,1.1-.36,2.2-.54,3.29.17.03.34.06.51.09.22-1.09.44-2.17.66-3.26Z"/>
      <path class="cls-1" d="M150.05,115.17c.34-.35.67-.71,1.01-1.06.09.02.19.05.28.07-.11.76-.23,1.51-.34,2.25,1.18-.38,1.15-.38,1.27-1.55.04-.34.26-.66.4-1,.39.2.92.3,1.15.61.4.56.61,1.25.41,1.17,1.05-.64,2.15-1.21,3.13-1.95.6-.45.63-.54,1.22.3,1.53-2.66-.46-5.1-.39-7.66,1,1.5,2.07,2.82,2.22,4.75.15,1.99-1.41,3.16-1.94,4.98-.38-.22-.88-.5-1.49-.86-.19.83-.4,1.76-.7,3.04-.93-.33-1.9-.55-2.75-1-.58-.3-.96-.58-1.57-.07-.32.27-.89.39-1.33.35-1.09-.1-1.36.49-1.36,1.38,0,2.34,0,4.67,0,7.01-.2.03-.4.07-.59.1-.2-.47-.52-.92-.57-1.4-.28-2.42-.64-4.87.63-7.15.43-.78.89-1.54,1.33-2.32h-.01Z"/>
      <path class="cls-1" d="M145.1,95.67c.84,2.52,2.26,2.8,3.75,1.35.4-.39,1.03-.57,1.55-.84.1.1.19.21.29.31-.87.91-1.73,1.82-2.8,2.95.9.25,1.68.59,2.48.64.7.05,1.43-.13,1.48-1.18.02-.37.59-.71.92-1.06.2.4.47.78.59,1.21.23.76-.13,1.92,1.36,1.73-.07.31-.14.58-.24.99.78-.11,1.43-.2,2.26-.32-1.25,1.08-2.43.52-3.31-.04-1.03-.66-2.02-.84-3.18-.95-1.36-.13-2.68-.65-4.22-1.06.44-.49.64-.71,1-1.11-2.13-.21-2.59-2.09-3.64-3.36-.07-.09.22-.48.42-.87.36.44.61.75.95,1.16,1.41-.48,2.39-1.51,3.19-2.74.79-1.22,1.52-2.49,2.36-3.67.66-.93,1.45-1.75,2.63-1.18-.91,1.44-1.93,2.81-2.69,4.3-1.1,2.16-2.5,3.78-5.15,3.75Z"/>
      <path class="cls-1" d="M126.1,47.98c-.49,1.61-.95,3.12-1.42,4.62-.11,0-.21-.02-.32-.03.07-1.29.15-2.57.23-4.04-1.59.8-2.56,2.11-2.91,3.75-.4,1.88-.56,3.85,1.37,5.18,1.42-.87,3.56-.67,4.98.45,1.59-1.31,1.95-4.13.81-6.42.09-.07.18-.15.26-.22.62.75,1.63,1.42,1.79,2.26.31,1.65.08,3.45-1.4,4.55-.48.36-1.66.25-2.24-.11-.99-.62-1.98-.4-2.79-.11-1.12.4-1.91.16-2.66-.55-1.73-1.64-2.14-4.16-1.09-6.39,1.17-2.51,2.41-3.19,5.39-2.95Z"/>
      <path class="cls-1" d="M134.36,66c-2.13-2.62-3.82-5.51-1.59-8.73,1.56-2.26,4.07-2.89,6.87-1.92-2.94-.07-5.4,1.01-6.34,3.76-.92,2.69.26,5.19,2.22,7.33-.38.24-.76.34-.84.56-.21.55-.28,1.15-.41,1.73.55.09,1.27.43,1.61.21,1.03-.67,1.81-.55,2.61.27.1.11.4.2.45.15,1.13-1.2,3.52.27,4.08-2.09.78,1.59.51,2-1.11,1.95-.34-.01-.69.14-1.03.25-.16.05-.33.28-.44.24-2.09-.7-4.39.54-6.4-.73-1.35-.86-1.25-1.97.33-2.96Z"/>
      <path class="cls-1" d="M150.26,129.68c-2.42.4-2.39-1.88-3.58-2.93.23-.18.42-.34.56-.45.54.65,1.29,1.19,1.53,1.9.51,1.54,1.79,1.26,2.82,1.35,1.1.1,2.23-.12,3.43-.2-.24-1.06.85-2.66-.95-3.73-1.55,2.3-2.48-.1-3.75-.43.59-.81,1.32-.97,2.17-.57,2.53,1.18,5.46,2.06,4.48,6.12-.49-.07-1.16-.01-1.69-.25-1.05-.48-1.83-.37-2.54.56-.2.26-.64.44-.99.48-1.18.14-1.58-.56-1.49-1.85Z"/>
      <path class="cls-1" d="M102.29,48.61c-.43,1.22-.92,2.29-1.15,3.41-.15.71.09,1.51.2,2.26.03.18.21.38.37.48,1.33.75,4.23.29,5.27-.84.13-.14.26-.43.2-.56-.66-1.56-1.34-3.1-2.05-4.64-.06-.13-.36-.15-.4-.43.6.41,1.43.69,1.77,1.26.79,1.31,1.37,2.74,1.97,4.15.1.22-.05.7-.25.88-1.04.95-2.15,1.67-3.69,1.18-.72-.23-1.51-.23-2.25-.39-.82-.18-2.05-.19-2.36-.71-1.13-1.93-.95-3.81.21-4.74.65-.52,1.43-.87,2.17-1.3Z"/>
      <path class="cls-1" d="M150.06,115.17c-1.91,1.61-3.69.33-5.49-.31,2.45-.91,2.21-3.28,2.48-5.22.32-2.3,1.07-4.22,2.9-5.64.34-.26.84-.31,1.33-.29-1.53,1.39-2.25,3.04-2.42,4.99-.09,1.06-.21,2.13-.42,3.17-.27,1.37-.95,2.48-2.38,2.94.7,1.16,1.79,1.04,3.45-.07.19.15.36.28.53.42,0,0,.02,0,.02,0Z"/>
      <path class="cls-1" d="M141.11,56.31c2.01,1.28,3.87,2.62,4.23,5.2.33,2.36-.3,3.57-2.85,4.71,1.92-3.74,2.14-7.11-1.39-9.91Z"/>
      <path class="cls-1" d="M150.02,84.09c.6.3,1.22.89,1.8.85,1.58-.11,1.04-1.57,1.34-2.64,1.03.54,1.01,1.5.94,2.31-.07.87-.89,1.01-1.6.88-1.22-.23-2.41-.63-3.64-.85-.48-.09-1.02.14-1.54.18-.82.07-1.65.24-2.45.14-.85-.1-1.09-.82-.8-1.57.12-.32.53-.53.81-.8,0,.3-.04.6.01.88.06.37.2.72.34,1.23.54-.32,1.12-.47,1.37-.85.52-.77,1.21-.47,1.53-.13.73.75,1.33.48,1.87.36Z"/>
      <path class="cls-1" d="M157.66,124.57c-.37-1.97-.72-3.84-1.1-5.84,1.35.14,1.61,1.25,1.85,2.14.35,1.31.59,2.72-.75,3.69Z"/>
      <path class="cls-1" d="M100.64,38.78c3.4-1.03,6.05.38,8.79,1.14-2.24-.2-4.38-1.46-6.84-.49.43.26.8.49,1.16.71-.03.05-.06.11-.09.16-.92-.46-1.83-.92-3.03-1.52Z"/>
      <path class="cls-1" d="M160.01,100.97c-.21-1.76.03-2.89.72-3.39.71,1.96.55,2.7-.72,3.39Z"/>
      <path class="cls-1" d="M153,104.8c1.02-.59,1.74-1,2.61-1.5-.12,1.29-1.07,1.87-2.61,1.5Z"/>
      <path class="cls-1" d="M204.53,121.24c-.07.34-.03.78-.23,1-4.14,4.74-8.33,9.43-12.45,14.18-2.09,2.41-4.07,4.93-6.25,7.33.25-.43.47-.88.76-1.28,2.55-3.45,4.99-6.99,7.7-10.29,2.85-3.47,5.96-6.73,8.99-10.04.36-.4.99-.55,1.5-.81,0,0-.03-.1-.03-.1Z"/>
      <path class="cls-1" d="M186,163.52c-7.21,9.68-13.86,19.75-21.41,29.2-7.52,9.42-14.73,19.09-22.07,28.65-.14-.09-.28-.17-.43-.26.84-1.73,1.49-3.59,2.57-5.15,2.43-3.53,5.03-6.96,7.65-10.36,3.31-4.3,6.68-8.56,10.08-12.79,3.3-4.11,6.71-8.12,9.97-12.25,1.53-1.94,2.76-4.13,4.28-6.08,2.06-2.66,4.27-5.21,6.41-7.82.91-1.11,1.79-2.23,2.69-3.35.09.07.18.14.27.2Z"/>
      <path class="cls-1" d="M156.78,176c10.5-19.21,23.65-36.37,39.77-51.24.08.08.16.15.24.23-2.2,2.26-4.44,4.48-6.58,6.8-1.34,1.45-2.53,3.03-3.77,4.57-2.97,3.72-6.01,7.39-8.87,11.19-3.87,5.14-7.63,10.35-11.37,15.58-3.09,4.32-6.08,8.7-9.12,13.06-.1-.06-.2-.12-.29-.18Z"/>
      <path class="cls-1" d="M178.71,187.68c8.53-13.41,18.66-25.84,25.85-40.23-.47,1.36-.79,2.8-1.45,4.06-2.61,4.95-5.2,9.92-8.05,14.73-2.55,4.3-5.36,8.45-8.21,12.56-2.05,2.96-4.33,5.75-7.17,8.02-.36.29-.7.62-.97.86Z"/>
      <path class="cls-1" d="M169.11,192.65c3.76-5.36,7.2-10.99,11.37-16.02,3.61-4.36,6.96-8.87,10.14-13.53.59-.87,1.24-1.71,1.96-2.48-3.2,5.83-6.46,11.59-10.53,16.87-4.06,5.27-7.16,11.32-12.94,15.16Z"/>
      <path class="cls-1" d="M213.37,140.92c-2.61,12.38-7.81,23.55-15.76,33.42,5.34-11.1,12.05-21.55,15.76-33.42Z"/>
      <path class="cls-1" d="M165.69,150.67c4.01-6.92,19.06-22.64,23.29-24.81-7.56,8.05-15.43,16.43-23.29,24.81Z"/>
      <path class="cls-1" d="M211.66,127.75c-6.35,9.78-12.65,19.59-20.78,28.06,6.83-9.44,13.66-18.89,20.48-28.33.1.09.2.18.3.27Z"/>
      <path class="cls-1" d="M204.74,177.97c1.5-5.61,4.77-10.44,6.78-15.99,1.22,1.8-3.57,12.9-6.78,15.99Z"/>
      <path class="cls-1" d="M208.08,143.27c2.02-4.72,4.03-9.45,6.05-14.17.1.04.2.09.31.13-1.6,4.9-3.01,9.87-6.04,14.17l-.31-.13Z"/>
      <path class="cls-1" d="M187.79,186.67c1.32-3.43,3.74-6.12,6.12-8.82-1.11,3.57-3.49,6.28-6.12,8.82Z"/>
      <path class="cls-1" d="M202.9,174.33c-.97,1.85-1.95,3.69-2.92,5.54-.12-.07-.25-.13-.37-.2.79-1.97,1.35-4.07,2.65-5.76.21.14.43.28.64.43Z"/>
      <path class="cls-1" d="M175.29,126.36c-1.72,2.67-3.43,5.34-5.15,8.01-.09-.06-.19-.12-.28-.18,1.68-2.69,3.36-5.38,5.04-8.08.13.08.26.16.39.24Z"/>
      <path class="cls-1" d="M96.87,134.81c-4.82-1.96-8.67-5.18-12.57-8.4-6.48-5.35-11.64-11.97-17.58-17.83-1.25-1.23-2.59-2.37-3.82-3.62-2.07-2.11-4.07-4.28-6.13-6.4-.57-.58-1.27-1.04-1.91-1.55.1-.12.21-.25.31-.37,1.68,1.48,3.4,2.92,5.04,4.43,2.18,2.01,4.33,4.07,6.47,6.13,3.18,3.06,6.28,6.2,9.51,9.21,3.63,3.38,7.33,6.68,11.05,9.95,2.77,2.44,5.62,4.77,8.42,7.17.44.38.8.84,1.2,1.26Z"/>
      <path class="cls-1" d="M39.52,82.79c14.94,3.93,27.62,11.66,38.25,22.82-11.84-9.14-23.96-17.8-38.25-22.82Z"/>
      <path class="cls-1" d="M73.94,123.17c.71.45,1.49.82,2.1,1.38,4.04,3.7,7.96,7.55,12.08,11.15,5.57,4.86,11.3,9.54,16.96,14.3.12.1.21.23.31.34-.07.1-.14.2-.21.29-1.91-1.25-3.92-2.39-5.72-3.79-3.27-2.53-6.51-5.11-9.59-7.86-3.12-2.79-6.04-5.81-9.05-8.71-1.3-1.25-2.63-2.46-3.93-3.7-.89-.85-1.79-1.69-2.64-2.59-.19-.2-.18-.58-.26-.88,0,0-.06.06-.06.06Z"/>
      <path class="cls-1" d="M84.09,94.46c1.54,1.08,3.22,2.01,4.59,3.27,5.41,4.99,10.72,10.09,16.08,15.14.78.73,1.58,1.43,2.36,2.16.16.15.25.36.37.55-.11.1-.21.21-.32.31-7.75-7.04-15.5-14.07-23.26-21.11.06-.11.12-.22.19-.33Z"/>
      <path class="cls-1" d="M51.23,81.34c11.63,3.89,21.69,10.42,30.75,18.62-9.69-7.13-19.77-13.62-30.75-18.62Z"/>
      <path class="cls-1" d="M68.06,124.09c4.79,4.44,9.59,8.89,14.38,13.33-5.48-3.7-10.37-8.04-14.81-12.87.14-.15.28-.31.43-.46Z"/>
      <path class="cls-1" d="M69.27,86.39c-.69-.28-1.4-.52-2.07-.83-1.41-.66-2.8-1.35-4.15-2.13,2.26.19,4.15,1.31,6.03,2.43.12.07.1.4.14.6,0,0,.06-.07.06-.07Z"/>
      <path class="cls-1" d="M69.27,86.39s-.06.07-.06.07c.26-.04.61-.21.77-.1,1.53,1.08,3.03,2.2,4.54,3.31-.11.15-.22.31-.33.46-1.64-1.25-3.28-2.49-4.92-3.74Z"/>
      <path class="cls-1" d="M90.79,96.53c-2.27-1.63-4.55-3.25-6.82-4.88.07-.1.15-.2.22-.3,2.27,1.63,4.54,3.25,6.8,4.88-.07.1-.13.2-.2.3Z"/>
      <path class="cls-1" d="M73.94,123.17s.06-.06.06-.06c-.12.03-.3.13-.36.08-1.3-1.17-2.58-2.36-3.73-3.7,1.44,1.13,3.38,1.68,4.02,3.68Z"/>
      <path class="cls-1" d="M154.96,149.99c-2.02,3.82-4.04,7.63-6.08,11.48-.36-1.26,4.43-11.02,5.7-11.69l.38.2Z"/>
    </g>
  </g>
</svg>