<?xml version="1.0" encoding="UTF-8"?>
<svg id="Layer_1" xmlns="http://www.w3.org/2000/svg" viewBox="0 0 353.25 259.48">
  <defs>
    <style>
      .cls-1 {
        fill: #a61e2f;
      }
    </style>
  </defs>
  <g id="Kv7Obn">
    <g>
      <path class="cls-1" d="M275.73,136.94c-.26-.26-.58-.48-.78-.78-.28-.42-.48-.9-1.02-1.3.17,1.4.35,2.8.51,4.2.16,1.44.3,2.88.26,4.36-3.07-8.18-4.47-16.71-5.23-25.39-.12,0-.25.02-.37.02-.47,2.77-.94,5.54-1.41,8.32-.09-.01-.18-.03-.27-.04.28-7.29.55-14.57.83-21.86-.12-.01-.24-.03-.36-.04-.68,2.13-1.36,4.27-2.05,6.4-.05-.02-.1-.03-.15-.05.86-4.03,1.61-8.08,2.63-12.07,1.06-4.13.76-8.32.82-12.51-.14.79-.29,1.58-.43,2.37-.05,0-.09,0-.14,0v-4.14c-.09-.01-.18-.03-.26-.04-1.68,5.89-3.36,11.79-5.04,17.68l-.37-.11c1.38-13.01,6.43-24.89,11.67-36.7-.13-.06-.27-.12-.4-.19-1.81,2.82-3.62,5.64-5.43,8.46,1.97-5.3,4.52-10.3,7.76-14.94,3.26-4.67,7.47-8.28,12.25-11.51-1.17.33-2.33.69-3.51.96-.44.1-.93,0-1.39-.02l.03.03c1.07-.41,2.14-.82,3.43-1.31-4.42-1.34-8.67-1.36-12.96-.05-.04-.13-.08-.26-.12-.4,1.54-.53,3.04-1.31,4.62-1.53,2.17-.31,4.4-.99,6.59-.07.86.36,1.64.92,2.51,1.28.42.18,1.04-.05,1.41.17,1.18.7,2.38,1.42,3.42,2.31,3.1,2.64,6.78,4.24,10.45,5.84.84.37,1.83.45,2.76.54.85.09,1.68.13,1.94-1.11.13-.61.81-1.08,1.18-1.65.3-.47.56-.98.73-1.5.59-1.78.38-2.53-.97-3.6,3.54-3.42,2.41-3.76.01-7.04,1.39-1.43,2.82-2.9,4.03-4.14,1.38.68,2.61,1.33,3.88,1.91,1.4.64,2.85,1.19,4.25,1.85.64.3,1.15.63,1.87.07.32-.25.95-.1,1.67-.15-.05-.91-.1-1.89-.18-3.34-.6-1.04-1.42-2.57-2.34-4.04-1.28-2.05-2.9-3.94-3.88-6.12-1.06-2.36-3.57-2.85-5.01-4.67-1.45-1.84-3.6-2.84-5.8-3.49-2.1-.62-4.27-1.12-6.44-1.36-2.51-.28-5.05-.25-7.58-.31-.59-.01-1.19.2-1.79.21-.49,0-.98-.14-1.37-.2-1.23.46-2.46.98-3.72,1.39-2.5.8-5.02,1.54-7.62,2.34.03.35.07.71.11,1.11-5.53,2.93-10.81,6.22-14.79,11.18.06.1.12.2.18.3,1.02-.5,2.01-1.06,3.06-1.46.36-.14.87.1,1.31.17-.12.39-.15.85-.39,1.15-2.93,3.76-6.03,7.39-8.78,11.27-1.97,2.77-3.47,5.88-5.31,9.08,2.02-1.87,3.86-3.57,5.7-5.27.13.07.26.13.39.2-.06.31-.03.68-.19.94-1.08,1.79-2.24,3.52-3.29,5.33-2.9,5.03-6.01,9.97-8.55,15.18-1.67,3.44-2.51,7.28-3.54,10.42-.22-1.43.24-3.72,1.11-6.7,1.37-4.66,3.83-8.75,6.35-12.82,1.34-2.16,2.76-4.27,4.14-6.41.18-.28.31-.59.51-.97-1.4.63-6.98,7.77-8.79,10.93.18-.59.34-1.18.54-1.76.69-1.99,1.24-4.02,2.88-5.56.48-.45.44-1.41.71-2.11.42-1.08.8-2.2,1.36-3.21,2.5-4.52,5.02-9.03,7.62-13.49.57-.97,1.48-1.74,2.23-2.6-.08-.11-.16-.21-.24-.32-2.01,1.16-4.03,2.31-6.04,3.47-.1-.15-.2-.3-.3-.44,5.74-5.88,11.1-12.19,18.56-16.16-.99.18-1.98.36-2.97.53-.05-.09-.1-.17-.15-.26.22-.18.42-.41.67-.54,2.02-1.09,4.08-2.11,6.07-3.25,1.72-.99,3.35-2.14,5.04-3.19,2.07-1.28,4.18-1.73,6.72-1.42,1.41.17,3,.02,4.49.2,2.73.33,5.5.56,8.18,1.17,3.89.89,7.48,2.53,10.56,5.16,1.31,1.12,2.74,2.11,3.96,3.32,1.55,1.54,3.13,3.11,4.34,4.91,1.74,2.59,3.64,5.18,3.93,8.47.07.73.27,1.47.25,2.2-.04,1.39.35,2.54,1.27,3.6,1.95,2.27,2.22,5.92.65,8.47-.89,1.44-1.18,2.9-.72,4.57.21.77.32,1.69.1,2.42-.38,1.27.29,2.02.94,2.89,1.95,2.63,4.19,5.12,5.69,7.99,1.23,2.34,1.64,5.13,2.24,7.76.15.68-.34,1.5-.54,2.26-2.93-2.23-5.83-4.45-8.75-6.65-2.99-2.25-6.11-4.36-8.98-6.76-2.97-2.49-5.72-5.25-8.52-7.93-.59-.56-1.03-.77-1.9-.54-2.04.54-3.97.42-5.9-.85-3.48-2.28-7.12-4.3-10.68-6.46-.84-.51-1.56-.46-2.4.05-3.6,2.24-6.26,5.4-8.48,8.91-3.81,6.03-6.28,12.72-9.05,19.25-1.68,3.96-2.3,8.03-1.8,12.35.4,3.48-.15,6.95-1.02,10.36-.11.44-.06.93-.04,1.4.15,3.61.3,7.22.48,10.83.03.6.11,1.2.25,1.78,1.01,4.31,1.91,8.66,3.12,12.92.71,2.51,1.97,4.85,2.89,7.31.28.76.23,1.64.33,2.46,0,0,.05-.1.05-.1ZM316.01,60.38c1.48,1.27,2.78,2.36,4.05,3.48,2.05,1.81,4.04,3.7,6.13,5.47,1.69,1.44,3.48,2.76,5.26,4.1.35.26.82.35,1.24.52-.1-.61-.31-.99-.62-1.26-1.42-1.23-2.87-2.41-4.29-3.64-1.36-1.17-2.76-2.32-4.03-3.58-1.2-1.19-2.35-2.46-3.36-3.82-.74-.99-1.21-2.18-1.91-3.49-.86.78-1.57,1.43-2.46,2.23ZM321.92,59.38c.13-.25.29-.43.32-.63.27-1.91-.8-3.62-.61-5.62.2-2.15-1.93-3.21-3.31-4.78-.4,1.11-.57,2.08-1.06,2.83-.94,1.46-.91,1.45.34,2.62,1.5,1.4,2.3,3.29,3.24,5.24.18.05.58.18,1.09.33ZM323.48,57.01c-.3.85-.71,1.93-1.06,3.03-.06.18.14.49.29.67,1.51,1.81,2.94,3.7,4.59,5.38,1.31,1.33,2.89,2.39,4.36,3.56.07-.07.14-.15.22-.22-2.84-4.2-5.67-8.39-8.4-12.43ZM313.09,50.34c-.07.05-.15.1-.22.14.34.67.7,1.33,1.02,2.01q1.09,2.28-.5,3.98c.48,1.11.5,2.55,2.19,2.87.71-1.16,1.92-2.3,1.05-3.81-1.04-1.81-2.35-3.47-3.54-5.2ZM317.56,48.23c-.47-.57-.85-1.07-1.28-1.54-.46-.51-.86-.5-1.14.19-.29.68-.59,1.36-.93,2.13.28.21.6.45.65.48.83-.16,1.37-.27,2.14-.42.07-.1.3-.45.56-.84ZM325.64,48.56c.71-2.07,1.07-4.06,1.22-6.09-.12-.02-.24-.05-.36-.07-.18.6-.36,1.2-.59,1.98-.32-.49-.49-.76-.7-1.09-.35,1.65-.19,3.64.44,5.27ZM314.22,39.19c-.33,1.29,3.47,5.92,4.69,6.08-1.61-2.08-3.15-4.08-4.69-6.08ZM315.5,39.44c1.19.93,2.38,1.87,3.56,2.8-.61-2.74-1.11-3.13-3.56-2.8Z"/>
      <path class="cls-1" d="M92.2,156.19c.2.87,1.06,1.21,1.86.8.48-.25,1.01-.38,1.53-.55.96-.32,1.96-.54,2.86-.96,1.62-.75,3.26-.72,4.9-.25,5,1.45,10,2.88,14.96,4.46,3.07.98,6.05,2.22,9.09,3.3.72.25,1.51.29,2.28.43.39-1.28.75-2.46,1.12-3.64.05.02.09.04.14.07-.17,1.29-.35,2.59-.51,3.88-.02.2-.05.44.03.6,1.69,3.01,3.37,6.21,6.64,7.67,3.89,1.74,8.07,2.34,12.34,1.34.62-.14,1.25-.24,2.18-.42-4.34,2.51-4.8,2.58-11.38,2.19.67.7,1.07,1.41,1.68,1.73,2.62,1.37,5.26,2.7,7.96,3.9,2.45,1.09,4.98,2,7.47,3-.07.2-.13.41-.2.61-3.94-1.04-7.89-2.09-11.58-3.07,1.73,2.51,6.27,4.67,17.73,5.64-.75.79-4.19,1.12-6.73.56-2.27-.5-4.52-1.11-6.84-1.54,3.69,3.68,8.84,4.69,13.48,7.32-1.58-.07-2.9-.14-4.22-.2l-.11.21c1.95.76,3.89,1.51,5.98,2.33-1.6,0-3.03-.16-4.42.03-5.28.72-10.38-.27-15.47-1.4-5.02-1.12-10.05-2.21-15.01-3.54-5.65-1.51-11.23-3.28-16.84-4.93-.28-.08-.56-.15-.5-.14-.53.69-.81,1.47-1.32,1.69-3.35,1.38-6.79,2.33-10.53,1.43,3.61-1.07,7.13-2.12,10.66-3.17.01-.11.03-.21.04-.32-.84-.41-1.68-.83-2.36-1.16,7.6,2.07,15.35,4.18,23.1,6.3.06-.15.12-.29.18-.44-1.37-.75-2.74-1.49-4.11-2.24,9.06,3.53,19.02,2.48,28.12,5.85.08-.22.16-.45.25-.67-1.46-.74-2.85-1.77-4.4-2.16-2.57-.65-5.25-.84-7.87-1.32-3.26-.6-6.53-1.21-9.75-1.98-4.52-1.09-8.99-2.35-13.49-3.51-1.64-.42-3.28-.89-4.95-1.09-8.21-.97-15.95-3.91-24.01-5.51-4.85-.97-9.67-2.13-14.48-3.31-3.04-.75-6.11-.86-9.21-.79-1.01.02-2.02-.22-3.03-.5,1.77-1.25,3.76-1.65,5.81-1.63,1.28.01,2.57.27,3.82.58,5.75,1.44,11.52,2.85,17.23,4.42,6.63,1.83,13.21,3.85,19.84,5.7,1.03.29,2.2.03,3.27.2,3.22.53,6.42,1.16,9.63,1.74.28.05.57,0,1.13,0-.41-.37-.64-.57-.86-.78,7.67,2.86,15.87,2.58,24.18,4.17-1.15-1.42-1.31-2.96-2.76-3.84-.89-.54-1.46-1.61-2.17-2.45-.19-.22-.3-.53-.51-.72-2.75-2.4-5.63-4.68-8.23-7.23-1.53-1.51-3.32-1.72-5.2-2.07-3.37-.62-6.73-1.33-10.1-2.01-2.41-.48-4.83-.89-7.21-1.46-5.24-1.25-10.02-3.61-14.75-6.14-2.79-1.49-5.56-3.14-8.8-3.57-3.83-.51-7.63-.27-11.38.69-.18.05-.38,0-.9,0,2.4-1.42,4.79-1.63,7.18-1.82-.01-.12-.03-.23-.04-.35-1.68-.27-3.34-.67-5.03-.74-.97-.04-1.98.38-2.94.7-1.45.48-2.88,1.04-4.31,1.59-.35.13-.65.37-1.22.71,2.12.59,4.2.26,5.9,1.47-3.78-.07-7.44.36-11,1.46-.02.13-.04.26-.06.39.37.09.81.35,1.11.24,1.98-.72,3.98-.32,5.98-.24.27.01.71,0,.8-.17.57-.98,1.53-.96,2.4-.86,2.85.32,5.7.74,8.54,1.15.71.1,1.4.33,2.06.82-1.81-.11-3.62-.22-5.42-.34-1.84-.13-3.67-.29-5.59-.18.17.13.32.33.51.4,1.94.7,3.87,1.45,5.85,2.02.98.28,2.06.22,3.09.29,3.14.21,6.32.43,9.22,1.7,3.46,1.51,6.97,3.06,10.12,5.1,3.75,2.43,7.74,3.87,12.04,4.78,2.94.62,5.83,1.46,8.75,2.15,3.77.89,7.56,1.73,11.34,2.6,2.84.66,5.61,1.49,8.4,3.36-2.14-.39-3.91-.76-5.69-1.04-2.8-.44-5.61-.81-8.41-1.23-1.01-.15-2.03-.33-3.02-.56-4.53-1.07-9.04-2.24-13.58-3.24-3.32-.73-6.7-1.18-10.03-1.88-6.06-1.28-12.13-2.51-18.13-4.04-4.27-1.09-8.44-2.6-12.63-4-2.03-.68-4.04-.71-6.13-.3,1.35-1.45,3.21-1.17,4.98-1.2,0-.11,0-.23,0-.34-.98-.14-1.97-.38-2.95-.42-3.09-.11-6.2-.47-9.21.62-.48.17-.94.41-1.4.61-1.59.7-3.17,1.39-4.85,2.13,3.17-.34,6.29-.67,9.42-1,.02.12.04.24.06.36-4.2,1.86-9.1,1.45-13.13,3.84-.52-2.16.57-3.82,2.9-4.58.56-.18,1.08-.69,1.47-1.17,1.17-1.47,2.16-3.09,3.41-4.49,1.08-1.21,2.59-1.56,4.25-1.47.77.04,1.59-.23,2.33-.52,1.3-.5,2.57-1.11,3.83-1.7.32-.15.67-.38.85-.67.69-1.11,1.45-2.1,2.78-2.54,1.58-.52,3.11-1.45,4.72-1.6,1.69-.15,3.48.32,5.17.72,1.36.32,2.64.97,3.98,1.39.43.13.94-.07,1.41-.03.95.07,1.88.27,2.83.29.61.02,1.22-.18,1.84-.28,0,0-.03-.03-.03-.03ZM97.45,158.58c1.69.73,3.26,1.49,4.89,2.08,2.92,1.06,5.88,2.04,8.83,3.03,2.57.86,5.17,1.64,7.74,2.52,1.04.36,2.03.86,3.27,1.4,3.37.83,7.02,1.72,10.67,2.62l.16-.35c-.13-.2-.27-.39-.39-.6-.82-1.49-1.76-2.94-2.4-4.5-.3-.72-.53-.99-1.28-1.1-1.86-.29-3.72-.61-5.53-1.09-3.15-.85-6.25-1.89-9.4-2.74-2.32-.63-4.76-.86-7.02-1.65-3.23-1.14-6.31-1.69-9.54.4ZM55.24,167.82l.32.42c.45-.33.96-.61,1.33-1.01,1.16-1.28,2.47-2.32,4.25-2.46,3.77-.29,7.44.2,11,1.54.36.14,1.01.08,1.27-.16,1.28-1.2,2.82-1.33,4.35-1,4.36.95,8.52,2.66,12.92,3.5,2.09.4,4.1,1.26,6.14,1.93.76.25,1.49.56,2.23.84.04-.08.07-.16.11-.24-.49-.34-.98-.67-1.48-1.01.03-.05.07-.11.1-.16,2.76,1.12,5.52,2.23,8.28,3.35.06-.11.12-.22.18-.34-.63-.38-1.26-.77-1.9-1.14-4.67-2.73-9.51-5.03-14.93-5.84-2.71-.41-5.49-.61-8.11-1.34-3.58-1-7.19-1.34-10.85-1.42-1.34-.03-2.69.28-4.11.44-.01-.08-.08-.49-.17-1.04-1.86.11-3.68.23-5.32.33-1.92,1.64-3.77,3.22-5.61,4.8ZM102.41,174.17c.03-.11.06-.23.09-.34-.8-.29-1.59-.62-2.41-.86-4.47-1.27-8.94-2.51-13.41-3.79-1.7-.49-3.33-1.19-5.05-1.6-2.07-.49-4.19-.81-6.31-1.1-.41-.06-.87.33-1.31.51.03.18.05.37.08.55,9.44,2.21,18.88,4.41,28.31,6.62Z"/>
      <path class="cls-1" d="M119.02,216.71h-6.51c-.02.14-.04.28-.06.42.51.16,1.01.36,1.52.47,2,.44,4.01.87,6.01,1.28,1.83.37,3.14,1.57,4.46,2.74,1.14,1.01,2.39,1.24,3.88,1.09,4.19-.41,8.38-.98,12.58.06.73.18,1.6-.01,2.36-.21,3.14-.82,6.26-1.71,9.39-2.58.06.15.11.3.17.46-1.56.67-3.07,1.49-4.69,1.99-2.79.87-5.56,1.22-8.6.77-2.64-.39-5.45.37-8.18.62-1.36.12-2.72.25-4.34.4,1.55,1.06,2.75,2.18,4.72,1.83,3.25-.58,6.53-.97,9.79-1.44.66-.09,1.33-.24,1.99-.19.45.04.87.45,1.33.55.69.14,1.45.32,2.1.16,2.01-.47,4-1.02,5.95-1.69,1.51-.52,2.94-.53,4.39.09.2.08.49.15.56.31.73,1.69,2.06.93,3.24.83,1.33-.11,2.66-.2,4.17-.31-.13.37-.19.56-.3.88,1.29.11,2.59.23,3.88.34-.01.11-.03.21-.04.32.24-.22.45-.6.71-.63,1.72-.18,3.44-.3,5.16-.4,1.71-.1,3.42-.2,5.13-.23.87-.02,1.76-.03,2.6.17,2,.46,3.87-.13,5.69-.71,2.89-.93,5.82-1.71,8.84-1.32,1.38.18,2.7.63,4.11.25.2-.06.41-.1.64-.39-.5-.04-1-.09-1.5-.13,5.47.03,9.67-3.4,14.36-5.52.07.11.13.23.2.34-.62.51-1.22,1.06-1.87,1.53-.65.47-1.35.91-2.06,1.29-.76.41-1.55.75-2.34,1.08-.73.31-1.48.58-2.21.86.03.17.07.33.1.5.95-.14,1.92-.22,2.86-.43,1.74-.38,3.48-1.22,5.18-1.14,2.27.11,4.32-.19,6.35-1.13.93-.43,1.94-.74,2.94-.98.53-.13,1.15.11,1.7.02,1.21-.2,2.51-.3,3.6-.81,2.69-1.27,5.33-2.67,6.99-5.34.14-.23.44-.35.85-.67-.37,2.79-2.03,4.6-3.79,6.16-1.45,1.29-3.29,2.18-5.02,3.12-.92.49-2,.77-2.73-.43-1.53.67-3.01,1.34-4.52,1.95-.38.15-.86.1-1.29.12-.29.02-.6-.04-.89,0-1.26.16-2.53.25-3.76.54-1.92.45-3.79,1.09-5.7,1.57-.83.2-1.71.15-2.57.27-1.43.21-2.95.22-4.26.75-1.95.78-3.62.64-5.33-.49-.33-.22-.87-.22-1.3-.18-4.41.37-8.81.89-13.23,1.11-2.62.13-5.26-.33-7.89-.33-1.37,0-2.74.58-4.11.6-1.67.02-3.36-.17-5-.49-2.25-.44-4.46-.64-6.76-.48-.98.07-2.01-.7-3.03-1.04-.28-.09-.67-.1-.94.01-3.22,1.36-6.48,1.38-9.87.67-1.31-.27-2.78.21-4.18.35-2.95.31-5.89.62-8.97,1.25,1.26.46,2.51.92,3.77,1.38-.04.11-.08.22-.11.33-1.24-.39-2.49-.76-3.72-1.17-.36-.12-.68-.44-1.04-.51-2.01-.37-3.1-2.08-4.64-3.13-1.09-.74-2.28-1.33-3.37-2.2h.82c.04-.11.08-.22.12-.33-.74-.33-1.47-.71-2.23-.98-3.77-1.36-7.48-2.95-11.34-3.95-4.32-1.12-7.6-3.69-10.99-6.32-1.17-.9-3.03-.91-4.86-1.41.24.8.36,1.19.48,1.59-.61-1.11-1.55-1.61-2.79-1.99-1.75-.53-3.56-1.23-4.99-2.33-1.63-1.26-3.31-2.06-5.29-2.46-1.69-.34-3.35-.83-5.02-1.25-.06.14-.13.28-.19.42,3.86,2.29,7.72,4.57,11.58,6.86.1-.12.2-.23.3-.35-1.12-.95-2.23-1.89-3.6-3.05.47.18.68.21.82.33,2.21,1.83,4.41,3.67,6.59,5.54.15.13.06.53.08.8-1.28-1.92-3.46-2.38-5.39-3.13-4.5-1.74-8.57-4.25-12.63-6.78-1.12-.7-1.95-1.84-3.02-2.61-2.72-1.95-5.45-3.89-8.27-5.69-2.31-1.48-4.75-2.75-7.38-4.26.63.09.99.14,1.41.2-1.6-3.34-9.57-7.84-14.63-8.2.45.34.73.58,1.03.79.21.15.57.22.64.41.9,2.4,3.5,3.07,4.96,4.98,2.33,3.03,5.22,5.63,7.54,8.66,1.74,2.27,2.98,4.92,4.38,7.44,2.24,4.02,5.2,7.32,9.17,9.75,1.81,1.11,3.56,2.48,4.96,4.06,2.4,2.71,5.49,4.3,8.74,5.3,5.62,1.73,11.37,3.07,17.12,4.34,2.53.56,5.2.52,7.8.76,1.91.17,3.83.36,5.74.54,0,.13,0,.25,0,.38-4.03.17-8.07.52-12.09.44-2.89-.05-5.83-.43-8.65-1.1-5.17-1.23-10.38-2.53-14.81-5.69-1.31-.94-2.38-2.22-3.58-3.31-.91-.84-1.74-1.88-2.82-2.41-3.83-1.9-6.71-4.86-9.13-8.24-2.04-2.86-3.68-6.02-5.56-9-1.05-1.66-2.17-3.29-3.4-4.82-1.69-2.11-3.51-4.12-5.3-6.15-.76-.86-1.51-1.75-2.37-2.51-3.48-3.07-6.99-6.12-10.53-9.13-.52-.44-1.26-.69-1.94-.85-2.77-.65-5.1-2.08-7.11-4.02-1.6-1.54-3.49-2.84-4.38-5.02-.12-.29-.53-.47-.89-.76,10.46,3.37,20.53,7.6,31.37,9.36-.03.16-.06.33-.09.49-.72-.04-1.45-.04-2.17-.14-5.92-.83-11.52-2.83-17.14-4.76-2.2-.75-4.41-1.48-6.63-2.17-.59-.18-1.24-.18-1.92-.14,2.1,2.54,4.49,4.85,7.54,5.85,2.52.83,4.39,2.39,6.21,3.99,1.63,1.44,3.4,2.03,5.39,2.47,4.81,1.07,9.14,2.97,12.23,7.09,1.71,2.28,4.35,3.26,6.95,4.36-.27-.35-.54-.7-.81-1.05.06-.09.12-.19.18-.28,5.45,5.65,12.19,8.74,19.98,10.33-.52-.67-.89-1.17-1.3-1.64-.39-.46-.82-.88-1.23-1.32.08-.08.16-.16.24-.25.56.63,1.12,1.27,1.67,1.9.98,1.13,2.08,2.04,3.58,2.43.38.1,1.26.17.75,1.07-.03.06.34.47.57.54,2.98.8,5.95,1.64,8.96,2.32,2.88.65,6,.45,8.74,2.57-1.1-.19-1.93-.39-2.78-.46-.88-.07-1.77-.02-3-.02.66.54,1.13.91,1.59,1.29,3.15,2.56,6.82,3.68,10.8,3.73,3.95.05,7.9-.13,11.85-.13.85,0,1.7.34,2.49.79-1.91.26-3.82.51-5.72.8-.35.05-.67.29-1,.45v-.03Z"/>
      <path class="cls-1" d="M211.02,126.33c-1.48-.6-2.96-1.21-4.45-1.8-2.87-1.13-5.69-2.42-8.64-3.3-2.69-.8-5.51-1.14-8.27-1.68-1.87-.36-3.74-1.03-5.6-.99-1.9.04-3.72-.05-5.51-.57-2.45-.72-4.86-1.56-7.31-2.29-.77-.23-1.61-.2-2.4-.35-3.15-.59-6.28-1.28-9.44-1.81-4.9-.82-9.81-1.69-14.75-2.23-4.37-.47-8.74.21-13.05,1.02-3.07.58-6.09,1.38-9.13,2.1-.41.1-1.06.06-.81.84-.88.1-1.76.26-2.64.26-.45,0-.92-.44-1.36-.4-2.47.23-4.94.54-7.41.82.63-.99,6.83-3.98,8.42-3.81-1.11.71-1.95,1.26-2.8,1.8.02.07.04.13.06.2,1.33-.17,2.65-.42,3.98-.49,1.48-.07,2.58-.74,3.78-1.55,1.36-.92,3-1.52,4.61-1.94,2.59-.68,5.26-1.11,8.2-1.7-1.69-.5-3.17-1.08-4.7-1.34-2.49-.43-5.04-.58-7.53-1.01-.82-.14-1.55-.83-2.33-1.24-.29-.16-.6-.33-.91-.38-1.65-.26-3.3-.54-4.96-.7-.6-.06-1.34.01-1.83.33-2.6,1.66-5.15,3.4-7.71,5.13-1.41.95-2.81,1.91-4.44,3.03,4.15.38,7.88-.77,11.99-1.18-.37.42-.5.73-.71.79-2.48.67-4.95,1.44-7.47,1.88-1.06.18-2.3-.24-3.37-.62-1.03-.37-1.95-.41-2.81.22-3.87,2.8-7.48,5.91-10.63,9.52-1.26,1.45-2.51,2.91-3.85,4.28.57-3.38,2.15-6.12,4.76-8.27,2.49-2.06,4.86-4.28,7.44-6.22,2.29-1.73,4.81-3.15,7.2-4.75,3.54-2.37,6.95-4.96,10.62-7.11,3.44-2.01,7.1-3.68,10.76-5.27,4.65-2.02,9.56-1.8,14.45-1.11,2.38.33,4.8.59,7.13,1.16,3.05.76,5.84,1.92,8.14,4.4,2.74,2.95,6.01,5.41,9.04,8.1,3.04,2.7,6.6,4.59,10.18,6.43.87.44,1.83.81,2.79.94,3.43.46,6.91.66,10.32,1.25,3.16.55,6.28,1.37,9.36,2.26,2.02.58,4,1.25,5.76,2.6,1.26.97,2.98,1.32,4.44,2.07,1.25.64,2.41,1.44,3.6,2.18-.07.17-.15.34-.22.51ZM166.86,113.18c.1-.14.19-.28.29-.41-.28-.3-.53-.65-.85-.91-.63-.51-1.32-.95-1.95-1.46-.48-.39-.87-.88-1.35-1.27-1.36-1.1-2.77-2.13-4.09-3.27-1.72-1.48-3.22-3.26-5.08-4.52-4.44-2.99-9.33-4.51-14.8-4.4-4.4.09-8.69.37-12.79,2.13-2.15.92-4.36,1.72-6.55,2.54-1.11.42-2.25.77-3.38,1.15.02.15.05.29.07.44,3.16.3,6.33.6,9.49.9,0,.09,0,.18,0,.26-.64.07-1.27.15-1.91.22,5.64,1.14,11.24,1.18,16.84.01.02.12.04.24.06.36-1.59.58-3.18,1.15-4.77,1.73l.07.25c4.26.36,8.53.71,12.79,1.07,0,.03-.01.06-.02.09-1.37.1-2.74.21-4.12.31,7.54.9,14.81,2.81,22.06,4.78Z"/>
      <path class="cls-1" d="M208.26,204.65c5.42-1.76,10.53-3.78,15.22-6.93-.1.2-.19.41-.31.6-.13.2-.31.37-.47.55.09.11.17.23.26.34,1.5-1.04,3.1-1.97,4.48-3.16,1.36-1.18,2.51-2.61,3.76-3.95.4.75.5.82-2.21,4.47-1.02,1.37-2.63,2.31-3.89,3.56,6.25-3.52,11.93-7.78,16.82-13.18.92,1.01.62,1.87-.16,2.63-1.84,1.78-3.71,3.54-5.59,5.28-.23.22-.6.29-.91.43.14.17.28.35.42.52.53-.27,1.1-.5,1.59-.83,2.24-1.5,4.57-2.9,6.65-4.61,1.56-1.28,2.79-2.97,4.21-4.52.02.22.2.68.05,1-.4.89-.79,1.88-1.47,2.55-.71.71-.57,1.3-.35,2.32,4.57-3.93,7.8-8.29,7.84-14.21,1.31,3.66-.12,7.2-1.54,10.58-.8,1.9-2.54,3.4-3.89,5.06-.72.88-1.46,1.8-2.82,1.59-.13-.02-.28.05-.38,0-1.94-.94-2.58.8-3.63,1.72-1.96,1.71-4.24,2.91-6.82,3.08-2.08.14-3.91.87-5.84,1.47-4.35,1.36-8.77,2.27-13.39,2.27-1.88,0-3.76.76-5.64,1.13-.65.13-1.32.16-1.98.24ZM224.42,201.02c-.07-.23-.15-.46-.22-.68-1.39.6-2.79,1.19-4.18,1.79.04.1.07.2.11.3,1.43-.47,2.86-.94,4.29-1.41Z"/>
      <path class="cls-1" d="M68.11,203.27c2.84,1.89,5.84,3.27,8.93,4.52,1.45.58,2.91,1.42,4.02,2.51,1.74,1.71,3.92,2.44,6.04,3.34,1.31.55,2.65,1.02,3.96,1.54.17.07.28.25.36.53-2.1.1-3.82-1.14-5.78-1.55,3.38,2.58,7.29,4.12,11.12,5.84-3.89-.79-7.27-2.86-10.81-4.54-.06.11-.13.22-.19.32,1.2,1.08,2.27,2.37,3.64,3.19,2.75,1.64,5.5,3.41,8.79,3.85,1.18.16,2.41.01,3.6.15,2.35.28,4.69.65,7.03,1,.15.02.28.18.66.45-1.52-.13-2.76-.31-4-.32-1.59-.01-3.18.17-4.77.16-4.49-.04-8.39-1.88-11.94-4.39-2.74-1.94-5.17-4.29-7.89-6.26-1.62-1.17-3.52-1.95-5.28-2.93-1.87-1.04-3.8-2.01-5.59-3.17-2.42-1.57-4.73-3.3-6.97-5.16.24.09.47.19.71.28.07-.07.15-.15.22-.22-1.48-1.81-2.96-3.63-4.43-5.44-.12.08-.24.16-.36.24,1.19,1.88,2.34,3.79,3.59,5.64.5.74,1.24,1.31,1.81,2,2.18,2.62,4.9,4.31,8.14,5.45,3.1,1.09,5.79,2.9,7.99,5.49,1.22,1.44,3.02,2.38,4.53,3.58.28.22,1.25.11.59.95.31.17.61.41.94.51,2.04.63,4.09,1.23,6.1,1.93-3.93-.08-13.84-2.64-15.33-4.05.52-.08.86-.23,1.14-.16,1.87.5,3.72,1.05,5.58,1.57.26.07.55.08.52.08-1.59-1.46-3.18-3.25-5.09-4.59-2.02-1.43-4.32-2.46-6.54-3.6-.87-.44-1.83-.7-2.9-.9,1.04.93,2.08,1.86,3.12,2.79,1.09.97,2.18,1.94,3.27,2.91-.13.14-.27.29-.4.43-.31-.29-.63-.58-.93-.88-1.67-1.62-3.36-3.23-5.01-4.88-2.82-2.81-5.66-5.6-8.4-8.49-.71-.75-1.1-1.82-1.56-2.77-1.89-3.9-3.9-7.68-7.96-9.87-1.04-.56-1.88-1.48-2.67-2.43,1.37.85,2.68,1.86,4.14,2.51,1.32.58,2.05,1.66,2.93,2.63,2.86,3.16,5.69,6.35,8.58,9.49,1.37,1.49,5.03,3.76,6.95,4.29-1.4-1.19-2.79-2.37-4.19-3.56Z"/>
      <path class="cls-1" d="M262.52,229.54c-2.17.1-4.33.27-6.5.28-7.97.02-15.93.18-23.84,1.41-2.62.41-5.31.34-7.96.61-2.29.24-4.56.7-6.86.98-2.38.29-4.78.6-7.17.68-4.04.15-8.08.17-12.12.16-2.62,0-5.27-.44-7.85-.19-3.16.31-6.27,1.11-9.4,1.73-4.89.96-9.77,1.5-14.75.51-2.21-.44-4.51-.44-6.79-.85.99,0,1.99-.07,2.98.01,4.08.32,8.09-.35,12.09-.96,4.45-.68,8.86-1.6,13.28-2.44,3.31-.63,6.6-.09,9.9.05,3.3.14,6.61.07,9.91,0,2.69-.06,5.39-.16,8.07-.41,2.63-.25,5.23-.81,7.86-1.09,1.61-.17,3.26.02,4.89-.1,3.9-.29,7.79-.73,11.7-.97,2.31-.14,4.63-.06,6.95-.02,3.05.05,6.1.18,9.15.24,2.13.04,4.27,0,6.4,0,.02.12.04.25.06.37Z"/>
      <path class="cls-1" d="M275.73,136.94s-.05.1-.05.1c.44-.57.79-.4,1.05.16,1.05,2.26,2.2,4.47,3.1,6.79.99,2.54,2.36,4.88,3.59,7.29,2.23,4.4,4.77,8.65,6.82,13.13,2.34,5.12,4,10.49,3.21,16.25-.2,1.48-1.25,2.87-1.3,4.32-.05,1.39-.49,2.59-.91,3.8-1.59,4.69-3.08,9.44-6.09,13.24,1.83-5.23,3.73-10.65,5.73-16.36,0-.21-.12-.84.02-1.41,1.04-4.39.41-8.63-.62-12.95-1.09-4.59-3.31-8.64-5.25-12.84-3.08-6.66-6.07-13.36-9.08-20.05-.19-.43-.14-.98-.2-1.47Z"/>
      <path class="cls-1" d="M165.94,237.01c-2.95,0-5.9.02-8.84,0-3.96-.03-7.92-.06-11.87-.19-.8-.03-1.58-.53-2.32-1.1,3.15-.6,6.16-2.03,9.63-.89-.81.3-1.4.52-2.18.8.34.24.52.47.71.47,3.09.03,6.17.04,9.26.05,1.8,0,3.61-.07,5.41.06,1.05.08,2.04.54,2.93,1.52-5.72,3.26-12.06,2.82-17.92,4.61.67,0,1.35.09,2-.02,2.26-.38,4.46.03,6.66.46.42.08.9.14,1.22.39.56.42,1.01.98,1.5,1.48-.51.34-.98.84-1.54.99-1.79.48-3.6.91-5.42,1.2-.77.12-1.6-.18-2.41-.53,1.95-1.82,4.6-1.29,6.77-2.21,0-.13,0-.26,0-.39-1.19-.08-2.39-.29-3.58-.23-3.4.18-6.79.46-10.18.72-1.72.13-2.4-.18-3.08-1.66,1.63-.5,3.21-1.17,4.86-1.47,3.94-.72,7.92-1.2,11.86-1.91,2.22-.4,4.39-1.06,6.58-1.6-.02-.19-.04-.37-.07-.56Z"/>
      <path class="cls-1" d="M98.74,153.94c.95-2.98,4.8-5.02,7.64-4.5,1.67.3,3.38.39,5.09.39-1.13-.61-2.28-1.19-3.38-1.84-.43-.26-.83-.63-1.12-1.04-1.42-1.98-1.34-2.75.64-4.09,3.14-2.13,6.35-4.16,9.51-6.26.3-.2.59-.51.72-.83,1.27-3.16,5.13-4.83,8.29-4.23.32.06.59.4.88.61-.22.28-.39.66-.68.83-1.52.86-3.15,1.55-4.59,2.53-.89.6-1.59,1.55-2.17,2.47-.19.3.3,1.02.47,1.55-1.34.46-1.53-.75-2.05-1.68-4.09,2-7.41,4.92-10.94,8.12.9.52,1.58,1.05,2.35,1.34,3.11,1.15,6.25,2.21,9.37,3.32.65.23,1.31.46,1.92.77.29.15.48.49.52.98-.43-.09-.86-.18-1.29-.27-.05.11-.1.22-.15.33.78.41,1.57.82,2.35,1.23,0,.05-.01.1-.02.15-.61-.17-1.21-.39-1.83-.5-4.63-.79-9.25-1.58-13.89-2.33-2.63-.42-4.56,1.22-6.64,2.39-.35.2-.69.4-1.04.6Z"/>
      <path class="cls-1" d="M246.48,145.92c.2.02.39.04.64.06-.06-.16-.11-.27-.16-.38-.2-.47-.55-.93-.58-1.41-.26-4.07-.42-8.14-.7-12.2-.17-2.48-.49-4.96-1.02-7.45v2.5c-.11,0-.21.01-.32.02-.28-2.56-.6-5.11-.82-7.68-.22-2.48-.45-4.97-.48-7.46-.04-2.64-.1-5.32.29-7.92.36-2.4,1.3-4.7,1.97-7.05,1.21-4.22,3.39-7.98,5.66-11.69.06-.09.18-.14.48-.36-3.21,5.98-5.93,11.92-6.75,18.47-.54,4.36-.3,8.78.16,13.17.98-2.97,1.95-5.95,2.93-8.92.12.04.24.08.36.12-.33,1.57-.49,3.19-1.03,4.68-1.38,3.79-.82,7.64-.49,11.46.48,5.54,1.32,11.05,1.82,16.59.16,1.78-.24,3.61-.46,5.41-.04.3-.41.72-.69.78-.29.06-.65-.26-.98-.42.06-.1.11-.21.17-.31ZM244.92,117.35h-.26v4.96c.09,0,.17,0,.26,0v-4.95Z"/>
      <path class="cls-1" d="M102.84,166.49c2.62.79,5.22,1.64,7.86,2.36,1.85.5,3.74.81,5.61,1.23,2.15.47,4.32.89,6.44,1.47,1.92.53,3.83,1.14,5.66,1.91,4.51,1.91,8.98,3.92,13.44,5.94.69.31,1.26.9,1.76,1.65-4.77-.78-9.17-2.65-13.71-4.04-4.66-1.43-9.38-2.69-13.95-4.34-4.5-1.62-8.86-3.65-13.27-5.5.06-.23.12-.46.18-.69Z"/>
      <path class="cls-1" d="M265.12,209.58c-.12-.21-.24-.42-.35-.6,4.23-1.11,6.51-4.54,8.57-8.19,1.36,1.48-.98,5.32-4.78,7.7.69.17,1.12.36,1.55.36,3.01.05,6.02,0,9.02.1,1.11.04,2.19.44,3.3.55,3.66.37,7.33.84,11.02.24,1.22-.2,3.33,1.05,3.66,2.22.09.33-.25,1.09-.53,1.17-1.23.34-2.49.6-3.76.71-2.39.22-4.79.31-7.19.46-3.56.23-7.11.48-10.67.69-1.01.06-2.02,0-3.04-.19,3.03-.9,6.03-1.74,9.21-1.75,2.39,0,4.77-.51,7.16-.65,1.88-.11,3.77.05,5.65-.03.69-.03,1.36-.36,2.04-.56-.01-.13-.02-.25-.03-.38-.56-.04-1.12-.14-1.68-.12-5.11.18-10.14-.28-15.17-1.25-2.76-.54-5.66-.45-8.5-.51-1.43-.03-2.87.28-4.31.36-.4.02-.81-.24-1.22-.37l.04.03Z"/>
      <path class="cls-1" d="M136.01,113.52c-.84.27-1.66.67-2.52.8-2.57.4-4.47,2-6.46,3.45-1.7,1.24-3.4,2.49-4.99,3.87-1.28,1.11-2.43,2.39-3.56,3.66-.65.73-1.15,1.6-1.7,2.42-.85,1.28-.75,1.67.65,2.61,2.11-4.8,6.16-7.36,10.82-9.03,2.5-.89,5.17-1.34,7.88-.71-2.03.5-4.08.9-6.08,1.51-4.13,1.26-7.81,3.36-10.92,6.38-.54.53-1.2,1.21-1.26,1.87-.05.55.71,1.17,1.15,1.82-1.41.14-2.43-.64-2.97-1.75-1.22-2.49-1.35-4.14.18-6.43,2.01-2.99,4.71-5.19,7.67-7.08,2.18-1.39,4.46-2.7,6.85-3.68,1.6-.65,3.46-.84,5.23.27Z"/>
      <path class="cls-1" d="M129.43,235.76c-3.38.35-6.85.69-10.31,1.08-3.16.36-6.31.93-9.48,1.11-2.08.12-4.2-.24-6.3-.44-3.49-.33-6.98-.71-10.47-1.07-2.81-.29-5.62-.68-8.44-.84-2.96-.17-5.94-.07-8.91-.17-1.84-.06-3.68-.26-5.52-.4,0-.14-.02-.28-.03-.41,3.1-.28,6.19-.7,9.3-.8,5.57-.18,11.03.93,16.52,1.72,2.17.31,4.37.39,6.56.62.71.08,1.4.38,2.12.45,1.11.1,2.24.19,3.35.1,4.84-.41,9.67-.96,14.52-1.29,2.4-.17,4.87-.85,7.09.35Z"/>
      <path class="cls-1" d="M90.83,183.68c.3-.91,1.26-.54,1.96-.62,1.53-.17.86,1.43,1.58,2.05,1.83.14,3.48-.68,5.19-1.31.84-.31,1.67-.68,2.54-.9.33-.08,1.04.13,1.06.27.05.46.03,1.22-.25,1.39-2.6,1.58-5.33,2.83-8.5,2.34-.95-.14-1.35-1.17-1.23-2.5-1.48.16-2.99.38-4.5.46-.4.02-1.1-.3-1.19-.61-.5-1.56-1.81-1.25-2.87-1.29-1.48-.05-2.83.09-4.21-.95-1.03-.77-2.61-.98-3.98-1.12-3.21-.33-6.44-.41-9.66-.72-1.23-.12-2.42-.57-3.56-1.12.23-.09.45-.18.68-.26.01-.1.02-.21.03-.31-2.62-.05-5.24-.1-7.23-1.43,1.18.2,2.62.5,4.08.69,2.29.31,4.58.59,6.89.79,1.45.13,2.93-.05,4.37.14,1.68.22,3.48-.15,5.03.94.41.29,1.08.19,1.59.37.74.25,1.43.68,2.18.85,1.24.28,2.51.53,3.78.56,1.31.03,2.39.15,2.92,1.58.09.23.69.32,1.07.38.74.13,1.49.21,2.22.31Z"/>
      <path class="cls-1" d="M173.01,156.79c-1.45.33-2.88.83-4.34.94-2.83.21-5.67.17-8.35-1.09-.6-.28-1.45,0-2.16-.12-2.86-.51-5.7-1.08-8.55-1.62-1.58-.3-3.17-.56-4.76-.84-.01-.11-.02-.23-.03-.34,2.76-.61,5.51-1.3,8.3-1.81,2.85-.52,5.39-1.76,7.93-3.05-2.74,2.75-6.22,3.98-9.88,4.89,4.34,1.04,8.35-.41,12.39-1.64.04.1.08.21.12.31-2.22.98-4.44,1.97-6.66,2.95,6.4.33,12.16-2.2,18.07-4.09.06.14.12.27.18.41-1.69.85-3.35,1.79-5.09,2.53-1.81.76-3.7,1.33-5.57,2.21h8.34c.02.12.05.24.07.36Z"/>
      <path class="cls-1" d="M288.77,224.88c-1.47-.11-2.98-.07-4.41-.37-6.72-1.39-13.45-1.19-20.2-.39-2.98.35-5.96.71-8.96.79-2,.06-4.02-.45-6.03-.52-3.36-.11-6.73-.04-10.09-.12-1.41-.03-2.81-.27-4.22-.71.14-.04.27-.1.41-.11,4.69-.09,9.39-.19,14.08-.25.81-.01,1.62.14,2.43.24,4.34.54,8.59-.38,12.88-.75,4.94-.42,9.91-.83,14.85-.01,3.11.52,6.18,1.32,9.27,2,0,.06,0,.13,0,.19Z"/>
      <path class="cls-1" d="M93.25,129.52c.42-.14.85-.28,1.27-.42.1.17.19.33.29.5-.38.19-.76.38-1.14.57.11.18.22.36.32.54.58-.26,1.39-.37,1.69-.82,1.28-1.93,3.03-3.25,4.99-4.37.1-.06.16-.19.33-.39-.46-.21-.86-.39-1.08-.49,7.12-1.7,14.28-3.77,21.13-6.84.06.11.12.22.18.33-.78.49-1.55,1.01-2.35,1.47-3.39,1.97-6.99,3.45-10.78,4.38-3.99.98-7.05,3.37-10.05,5.97-1.13.99-1.94,2.12-2.57,3.47-.37.79-.96,1.48-1.46,2.21-.09-.07-.19-.13-.28-.2.43-1.44.87-2.87,1.39-4.58-1.06.36-1.83.63-2.59.89,0,0,.04.05.04.05-.17-.41-.35-.83-.54-1.28.42-.35.82-.69,1.23-1.03l-.03.04Z"/>
      <path class="cls-1" d="M140.36,165.98c.45-.06.9-.12,1.35-.19-2.6-1.32-5.24-2.39-8.24-2.48,7.06-.38,13.69-2.28,20.2-5.04-.34,1.28-2.68,2.65-6.76,3.85-2.54.75-5.15,1.25-7.92,1.92,2.19.67,4.26,1.67,6.56,1.29,2.77-.46,5.53-1,8.23-1.77,1.6-.45,3.07-1.4,4.6-2.11.15-.07.35-.06.59-.09-.66,1.63-3.89,2.92-5.82,3.3q.39.72,2.4.36c-.59,1.13-12.48,2.03-15.18.96Z"/>
      <path class="cls-1" d="M212.19,199.21c1.15.65,2.11.1,3.2-.31,3.98-1.5,7.29-4.07,10.75-6.45-2.1,2.57-4.29,5.01-7.13,6.8-2.58,1.62-5.32,2.62-8.41,2.81-.98.06-1.91.91-2.86,1.4-3.53,1.84-7.31,2.47-11.24,2.44-.18,0-.36-.12-.59-.4,5.98-.82,11.28-3.29,16.34-6.33,0,0-.06.04-.06.04Z"/>
      <path class="cls-1" d="M212.19,199.21s.06-.04.06-.04c-1.02.1-2.05.23-3.08.28-.59.03-1.3.11-1.78-.15-1.62-.91-2.33.37-3.38,1.12-1.38.97-2.86,1.89-4.44,2.47-3.95,1.45-8.04,2.41-12.28,2.45-.56,0-1.12-.34-1.69-.52.02.02.04.05.06.08,6.89-.77,13.37-2.75,19.44-6.47-.39-.34-.61-.52-.77-.65,6.08.8,11.31-1.83,16.54-4.42-.51,1.17-2.69,2.96-4.89,4.03-1.27.62-2.54,1.23-3.8,1.84Z"/>
      <path class="cls-1" d="M175.23,182.89c-.74.61-1.52.7-2.49.56-.86-.13-1.78.16-2.68.23-1.73.14-3.42.08-4.99-.85-.36-.21-.91-.08-1.37-.15-1.73-.23-3.46-.48-5.26-.89,3.5-1.46,6.81-3.19,9.65-5.76-1.07,2.29-3.08,3.63-4.93,5.22,3.33.02,6.32-1.36,9.42-2.39-1.16,1.95-3.32,2.37-4.99,3.53,5.11.08,9.35-2.33,13.55-4.82.09.15.18.31.26.46-2.23,1.52-4.46,3.04-6.65,4.54-.02-.02.21.16.44.35l.04-.04Z"/>
      <path class="cls-1" d="M94.7,136.44c-2.03,3.77-4.05,7.54-6.08,11.31-.05-.01-.1-.02-.15-.04.12-.53.25-1.06.37-1.6-.1-.06-.2-.12-.3-.18-1.48,2.09-2.96,4.18-4.45,6.27-.14-.05-.28-.1-.43-.15.42-1.77.83-3.53,1.25-5.3-.09-.05-.17-.11-.26-.16-1.45,2.16-2.91,4.32-4.31,6.39.06-2.17,2.49-6.97,4.51-7.83,1.5-.64,1.81-1.87,2.51-2.97.58-.91,1.2-1.8,2.06-2.53-.44,1.14-.89,2.28-1.39,3.57,3.18-1.54,4.57-4.48,6.36-7.05l.3.25Z"/>
      <path class="cls-1" d="M93.7,215.57c1.55.21,3.11.42,4.66.63.16.02.33,0,.48,0-1.45-1.96-2.88-3.89-4.31-5.82,1.49,1.48,2.93,3.02,4.5,4.43,1.47,1.32,2.95,2.69,4.63,3.69,3.57,2.12,6.59,5.17,10.73,6.33,2.69.75,5.32,1.69,8.2.74.97-.32,2.08-.23,3.15-.13-2.54.76-4.97,2.08-7.78,1.34-3.9-1.02-7.58-2.53-10.94-4.79-1.92-1.29-3.84-2.65-5.94-3.61-1.35-.62-3.03-.48-4.52-.82-1.55-.35-3.06-.88-4.59-1.33l.11-.51c.62.1,1.24.2,1.99.32-.16-.22-.26-.35-.36-.48Z"/>
      <path class="cls-1" d="M158.91,204.29c.61.08,1.21.16,1.82.24,0,.15.01.3.02.45-2.63,1.18-5.55,1.1-8.37,1.9.86.31,1.76.54,2.57.95.38.19.78.7.82,1.1.04.33-.36.91-.7,1.04-1.32.49-2.68.84-4.04,1.23-1.27.36-2.54.73-3.83,1.02-.49.11-1.02.02-1.58-.2,2.16-1.71,4.66-2.58,7.27-3.71-2.29-.41-4.59-.81-6.88-1.22,4.16-1.41,8.32-2.91,12.83-2.84.02,0,.05.02.08.03Z"/>
      <path class="cls-1" d="M243.51,153.06c-.09-.13-.16-.31-.29-.39-4.05-2.6-7.19-6.17-10.34-9.72-3.41-3.84-7.48-6.83-11.84-9.49-2.2-1.34-4.32-2.8-6.44-4.39.33.08.68.09.97.24,3.85,2,7.91,3.7,11.46,6.14,2.64,1.82,4.74,4.49,6.84,6.98,2.86,3.4,5.65,6.84,9.22,9.56.26.2.28.7.42,1.06h0Z"/>
      <path class="cls-1" d="M175.2,182.93c1.54-.36,3.07-.71,4.76-1.11-1.83,1.66-3.42,3.27-5.19,4.64-1.02.79-2.33,1.21-3.59,1.84,5.18.47,9.56-1.24,13.4-4.61.1.13.21.27.31.4-1.34,1.24-2.67,2.47-4.1,3.8,3.33-.2,6.37-1.26,9.57-2.37-.2.27-.35.63-.62.79-.85.5-1.72,1-2.64,1.38-2.3.95-4.68,1.3-7.19,1.12-1.13-.08-2.29.39-3.45.5-2.25.22-4.53.61-6.54-.97-.22-.17-.67-.07-1.01-.08-.67,0-1.33,0-2.04-.2,3.94-.58,7.66-1.54,10.74-4.76-.77.06-1.3.15-1.82.11-.2-.02-.37-.34-.55-.52,0,0-.04.04-.04.04Z"/>
      <path class="cls-1" d="M326.59,200.89c-10.1.17-20.05,2.58-30.22,1.73,9.95-2.26,20.06-2.09,30.14-2.49.03.25.06.51.09.76Z"/>
      <path class="cls-1" d="M188.35,189.57c-.77.5-1.55,1-2.66,1.73,1,0,1.66.12,2.25-.02,1.98-.45,3.94-1.01,5.91-1.5.37-.09.77-.07,1.15-.1-.22.3-.44.6-.65.9-.07.1-.14.2-.24.35,3.7,1.67,7.58.91,11.38.9.04.15.07.31.11.46-1.34.38-2.68,1.09-4.01,1.06-2.11-.05-4.45-.12-6.26-1.04-2.26-1.16-4.1-.47-6.16.01-.95.22-1.96.36-2.93.34-3.21-.04-6.42-.16-9.63-.28-.5-.02-.99-.2-1.49-.43,4.52-.14,8.94-.67,13.07-2.68.05.1.1.19.15.29Z"/>
      <path class="cls-1" d="M60.13,173.43c1.44,0,2.89-.16,4.31.03,5.39.7,10.5,2.52,15.68,4.1,4.79,1.47,9.69,2.59,14.54,3.87.78.2,1.57.38,2.42.59-4.48.2-8.66-1.1-12.85-2.17-3.57-.91-7.02-2.33-10.59-3.23-4.16-1.04-8.41-1.76-12.61-2.62-.32-.07-.63-.15-.95-.23.02-.11.04-.23.05-.34Z"/>
      <path class="cls-1" d="M168.78,139.35c-2.81,1.12-5.61,2.24-8.34,3.32q.24.32,3.53.56c1.33.09,2.66.2,3.99.24,1.35.04,2.71,0,4.16.3-.59.22-1.17.53-1.78.65-2.59.54-5.19.62-7.81.18-1.93-.33-3.85-.53-5.6-1.68-.85-.56-2.16-.39-3.26-.58-.38-.07-.74-.25-1.09-.6,5.54-.05,10.81-1.3,16.02-2.94.06.18.11.36.17.54Z"/>
      <path class="cls-1" d="M295.07,189.3c2.78-.13,5.57-.25,8.35-.38,3.26-.16,6.45-.66,9.62-1.52,1.3-.36,2.8-.14,4.19,0,3.58.38,7.13.93,10.39,2.68-2.33-.26-4.67-.42-6.97-.8-3.32-.55-6.54-.76-9.93-.09-3.08.61-6.32.47-9.49.59-2.05.08-4.11.01-6.16.01,0-.16,0-.32,0-.49Z"/>
      <path class="cls-1" d="M92.59,131.8s-.04-.05-.04-.05c-1.24.8-2.43,1.68-3.72,2.37-1.29.68-2.64,1.39-4.04,1.67-3.49.72-5,3.2-6.07,6.2-.43,1.2-.7,2.39.22,3.78.56-1.93,1.54-3.36,3.17-4.36-1.15,3.49-2.25,6.83-3.35,10.18-.16-.02-.33-.05-.49-.07.12-1.45.32-2.9.34-4.35.01-.96-.24-1.91-.37-2.87-.17,0-.34.01-.52.02-.22.88-.44,1.75-.66,2.63-.05,0-.09,0-.14,0,.05-.9-.08-1.86.2-2.69.82-2.49,1.7-4.97,2.8-7.35.27-.58,1.45-.78,2.23-1.09,2.73-1.09,5.48-2.15,8.22-3.21.74-.28,1.48-.53,2.23-.8Z"/>
      <path class="cls-1" d="M137.13,137.19c4.12-.37,12.96-1.36,16.43-.05-4.09.31-7.9.61-11.72.9,4.61,1.45,9.25,1.71,13.97.67-.91,1.1-3.52,2-5.98,1.83-2.14-.15-4.3-.36-6.37-.9-2.07-.54-4.03-1.53-6.35-2.44Z"/>
      <path class="cls-1" d="M282.98,178.16c2.89,1.96,3.19,6.14,2.28,8.93-.48,1.48-1.1,2.72-2.29,3.81-.53.49-.42,1.76-.47,2.68-.09,1.66-.8,3.02-1.75,4.32-.62.85-1.32,1.44-2.48,1.24,2.02-2.19,2.85-4.86,3.2-7.73.12-.99.27-1.93,1.23-2.56.38-.25.69-.85.74-1.33.22-2.09.45-4.19.43-6.29,0-1.01-.56-2.02-.89-3.07Z"/>
      <path class="cls-1" d="M225.76,190.09c2.07-.54,3.96-1.34,5.25-3.13,1.24-1.72,2.52-3.41,3.77-5.08.05,3.14-4.9,8.56-8.87,9.67-2.1.58-4.28.51-4.7-.19,3.27-2.61,7.96-3.78,9.24-8.66-.2.95-.25,1.96-.63,2.84-.41.96-1.02,1.89-1.73,2.67-.66.73-1.55,1.26-2.33,1.88Z"/>
      <path class="cls-1" d="M185.67,204.89s-.04-.05-.06-.08c-4.37-.06-8.68-.52-12.88-1.77-3.24-.97-5.86-3.04-8.64-4.83-.86-.55-1.67-1.18-2.47-1.75h10.78c-2.78,1.72-5.47,1.47-8.27,1.49.51.32,1.02.63,1.52.96,5.53,3.59,11.7,4.77,18.17,4.88.51,0,1.04.09,1.5.28.2.08.24.54.35.83Z"/>
      <path class="cls-1" d="M280.48,202.13c.54-1.01,1.2-1.98,1.61-3.04,1.91-4.94,4.69-9.6,5.04-15.05.05-.77,0-1.55.17-2.32,1.15,2.85.81,5.74.19,8.58-.32,1.44-.97,2.83-1.65,4.14-1.27,2.42-2.65,4.79-4.06,7.12-.2.33-.88.36-1.33.53,0,0,.04.03.04.03Z"/>
      <path class="cls-1" d="M102.9,136.65c-1.13,1.01-2.26,2.01-3.43,3.05-.67-1.06.5-1.73.93-2.7-1.19-1.07-.9-2.21.17-3.41-.4-.19-.7-.35-.94-.46-.32-2.21,1.45-2.57,2.79-3.26.27-.14.7.03,1.06.05.02.11.04.22.07.32-.92.8-1.84,1.61-2.76,2.41,4.3-2.29,7.81-6.13,13.04-6.47-3.63,1.14-6.65,3.42-9.75,5.49-1.37.92-2.3,2.5-3.36,3.83-.19.24-.09.71-.13,1.07.35-.02.69-.03,1.04-.06.46-.05.93-.13,1.39-.19-.04.11-.07.22-.11.33Z"/>
      <path class="cls-1" d="M294.84,44.3c-.39-.14-.87-.18-1.16-.43-2.03-1.83-4.5-2.65-7.11-3.04-2.92-.44-5.87-.62-8.8.04-.07-.1-.13-.19-.2-.29.68-.4,1.32-1,2.06-1.15,2.94-.62,5.95-1.05,8.82.17,2.08.88,4.04,2.06,6.03,3.17.51.28.9.77,1.64,1.43-.65.08-.96.12-1.28.16,0,0-.01-.06-.01-.06Z"/>
      <path class="cls-1" d="M92.23,156.22c2.54-5.2,5.43-10.08,11.07-12.55.64-.28,1.26-.63,1.88.29-.67.55-1.28,1.13-1.97,1.59-2.94,1.99-5.48,4.37-7.63,7.21-.96,1.27-2.24,2.29-3.38,3.42,0,0,.03.03.03.03Z"/>
      <path class="cls-1" d="M205.18,187.23c1.68-.49,3.36-.97,5.03-1.48.7-.21,1.37-.54,2.07-.73.24-.07.55.11.83.17-.2.22-.36.57-.61.65-3.32.98-6.63,2.05-10,2.8-1.45.32-3.05-.02-4.58-.07-.44-.02-.88-.07-1.34-.34,4.59-.56,8.58-2.31,11.95-5.51.1.13.2.25.3.38-.53.68-.99,1.43-1.6,2.03-.65.65-1.44,1.17-2.17,1.75.04.12.08.24.12.36Z"/>
      <path class="cls-1" d="M110.4,120.39c-4.95,2.59-9.99,3.74-15.32,3.53-.04-.15-.08-.3-.12-.45,1.7-.54,3.38-1.14,5.1-1.61,2.83-.77,5.69-1.45,8.53-2.19.72-.19,1.32-.17,1.81.72Z"/>
      <path class="cls-1" d="M126.28,206.48c4.03-.62,7.73-2.09,11.42-3.55,1.39-.55,2.68-1.36,4.03-2.02,1.25-.61,2.54-1.06,3.91-.62-2.92,1.52-5.79,3.2-8.81,4.51-3.15,1.37-6.47,2.25-9.99,1.84-.19-.02-.38-.12-.57-.18Z"/>
      <path class="cls-1" d="M245.14,94.36c.24-2.37.47-4.74.72-7.11.22-2.04.6-4.08.66-6.12.12-4.07,2.15-7.29,4.43-10.4.75-1.02,1.64-1.95,2.66-2.76-.81,1.31-1.6,2.63-2.43,3.92-1.93,2.97-3.55,6.06-3.95,9.65-.23,2.05-.28,4.13-.57,6.17-.32,2.24-.82,4.46-1.24,6.69-.1-.01-.19-.02-.29-.03Z"/>
      <path class="cls-1" d="M194.01,173.03c.22.72-.08,1.1-.79,1.12-1.4.05-2.81-.03-4.19.12-1.91.21-3.79.63-5.7.86-.99.12-2,.02-3.02-.23,1.8-.49,3.62-.93,5.4-1.48,1.76-.55,3.51-1.15,5.23-1.83,1.67-.66,3.29-1.45,4.93-2.18.11.21.21.43.32.64-1.87,1.17-3.75,2.34-5.62,3.51.02.08.03.16.05.24,1.13-.26,2.26-.51,3.39-.77h0Z"/>
      <path class="cls-1" d="M211.16,180.49c-1.38-.02-2.81.16-3.99-1,.63,0,1.25,0,1.88,0,.16,0,.37.13.49.07,3.59-1.77,7.4-3.12,10.47-5.83.35-.31.85-.46,1.29-.69.1.13.2.26.31.38-.37.48-.7.99-1.11,1.45-2.27,2.57-5.07,4.28-8.39,5.17-.35.09-.66.31-.99.47l.04-.02Z"/>
      <path class="cls-1" d="M119.01,216.74c1.15.52,2.24,1.22,3.44,1.51,4.51,1.11,9.11,1.02,13.72.85.84-.03,1.7.56,2.55.87l.04-.03c-2.01.18-4.02.31-6.02.54-4.62.54-9-.1-12.97-2.67-.34-.22-.51-.72-.75-1.1,0,0,0,.03,0,.03Z"/>
      <path class="cls-1" d="M198.89,178.39c-1.72,1.07-3.43,2.15-5.17,3.23,4.06.02,7.73-1.49,11.42-3.53-.62,1.84-5.19,4.16-8.27,4.19-3.14.03-6.29-.2-9.54-.33,2.07-.49,4.03-.82,5.89-1.42,1.89-.62,3.7-1.52,5.54-2.29.04.05.09.1.13.16Z"/>
      <path class="cls-1" d="M176.56,198.16c7.03-.37,14.02-.68,20.91-2.76-.22-.42-.39-.74-.55-1.05.08-.06.14-.15.2-.14,1.28.07,2.56.11,3.83.23.32.03.62.31,1.17.61.14-.05.63-.23,1.13-.41l.14.6c-.8.07-1.6.24-2.39.18-1.46-.12-2.76-.08-4.16.67-3.2,1.71-6.81,2.02-10.37,2.23-2.53.15-5.08.06-7.62.04-.76,0-1.52-.14-2.28-.21Z"/>
      <path class="cls-1" d="M174.4,199.12c9.73,3.32,19.23,3.9,28.16-2.51-3.94,4-10.96,6.39-22.28,5.85,1.18-.06,2.35-.11,3.78-.18-3.43-.95-6.62-1.83-9.8-2.72l.15-.44Z"/>
      <path class="cls-1" d="M195.6,126.93c2.01-.27,3.81.43,5.47,1.39,3.49,2.01,6.9,4.15,10.34,6.24.13.08.21.24.32.36-.06.11-.11.21-.17.32-1.52-.7-3.07-1.34-4.56-2.11-3.62-1.86-7.21-3.77-10.8-5.68-.22-.12-.38-.37-.57-.56l-.04.03Z"/>
      <path class="cls-1" d="M155.3,175.1c4.81-1.7,9.2-4.08,13.36-7.07.1,1.07-1.16,2.54-3.89,4.25-2.87,1.81-5.87,3.35-9.47,2.81Z"/>
      <path class="cls-1" d="M279.13,179.67c2.37,4.99,1.94,9.66-1.53,13.96-.37.46-.98.72-1.63.92,2.69-4.68,4.42-9.45,3.16-14.88Z"/>
      <path class="cls-1" d="M46.33,225.19c2.22-.87,4.15-1.7,6.15-2.37.53-.18,1.37-.05,1.82.27,1.24.9,2.58.74,3.95.79,1.18.04,2.36.27,3.51.69-2.17-.04-4.27,1.07-6.52-.19-.84-.47-2.47.17-3.63.6-1.83.68-3.41.9-5.28.22Z"/>
      <path class="cls-1" d="M180.48,219.62c-1.01,1.86-2.88,2.13-4.58,2.53-2.42.57-4.89.91-7.35,1.31-.44.07-.89.01-1.66.01,4.27-3.04,9.2-2.44,13.58-3.86Z"/>
      <path class="cls-1" d="M186.25,168.89c-1.7,4.13-8.88,6.17-13.88,5.04,2.59-.64,5.05-1.04,7.34-1.88,2.23-.81,4.3-2.06,6.54-3.17Z"/>
      <path class="cls-1" d="M101.07,140.28c-2.16,4.94-6.56,7.57-9.65,11.37-.1-.06-.21-.11-.31-.17.59-1.03,1.03-2.18,1.79-3.06,2.3-2.66,4.71-5.22,7.11-7.78.22-.24.69-.24,1.05-.35Z"/>
      <path class="cls-1" d="M180.54,163.15c4.42-2.37,8.94-4.8,13-6.97-2.22,3.59-10.18,7.98-13,6.97Z"/>
      <path class="cls-1" d="M306.78,34.49c.11-1.57,1.1-2.47,2.62-2.39,1.17.07,1.72,1.07,1.58,2.86-.12,1.52-.86,2.17-2.34,2.04-1.29-.11-1.97-1.02-1.86-2.52Z"/>
      <path class="cls-1" d="M283.84,48.04c-.3.36-.54.84-.93,1.07-4.07,2.49-8.3,4.76-11.46,8.48-.45.53-.9,1.07-1.35,1.6-.1-.06-.2-.13-.29-.19.42-.72.75-1.51,1.26-2.16,3.1-3.93,7.22-6.47,11.67-8.57.34-.16.75-.14,1.13-.21,0,0-.03-.03-.03-.03Z"/>
      <path class="cls-1" d="M275.45,188.63c0,1.36.18,2.74-.04,4.06-.45,2.76-1.24,5.44-3.01,7.71-.82,1.05-1.52,1.28-2.88.97,2.12-.95,2.76-3.01,3.43-4.91.9-2.53,1.51-5.17,2.25-7.76l.25-.06Z"/>
      <path class="cls-1" d="M259.59,212.03c-.48.19-.96.38-1.45.58-2.05.82-4.1,1.63-6.15,2.45-.06-.14-.13-.28-.19-.42,4.68-1.88,8.78-4.47,11.26-9.15.88.76.43,1.6.05,2.2-.79,1.21-1.76,2.29-2.67,3.42-.26.33-.57.62-.86.93h.01Z"/>
      <path class="cls-1" d="M185.64,223.65c2.35-1.12,4.42-2.04,6.41-3.1,1.67-.89,3.22-1.98,4.86-2.92.56-.32,1.22-.47,1.92-.45-3.6,3.68-7.87,5.87-13.2,6.48Z"/>
      <path class="cls-1" d="M170.6,131.36c-5.81-2.03-11.79-3.3-18.15-3.7,2.15-1.87,13.74.85,18.15,3.7Z"/>
      <path class="cls-1" d="M287.46,181.21c.61-4.69.15-9.21-2.08-13.46,3.11,1.17,4.92,10.69,2.08,13.46Z"/>
      <path class="cls-1" d="M178.09,167.78c-4.03,4.94-9.83,7.37-13.34,5.98,2.28-.64,4.81-1.06,7.08-2.06,2.23-.99,4.19-2.59,6.27-3.91Z"/>
      <path class="cls-1" d="M93.29,129.48c-2.12-.14-4.25-.33-6.37-.4-.51-.02-1.03.37-1.54.59-3.13,1.38-6.26,2.77-9.39,4.15-.18.08-.38.12-.63-.03,2.25-1.07,4.49-2.15,6.74-3.22,1.23-.59,2.49-1.14,3.7-1.77.32-.17.54-.57.73-.91.28-.49.5-1.02.75-1.53.13.05.26.1.39.15-.21.66-.42,1.32-.74,2.32,1.63-.3,3.04-.56,4.46-.82.03.12.05.25.08.37-.26.15-.53.29-.9.5.19.08.28.13.38.15.77.16,1.54.31,2.31.47,0,0,.03-.04.03-.04Z"/>
      <path class="cls-1" d="M122.57,189.18c-1.43,2.57-9.61,4.96-12.16,4.09,3.91-1.32,8.04-2.7,12.16-4.09Z"/>
      <path class="cls-1" d="M205.62,196.57c1.69-.61,3.31-1.04,4.79-1.77,1.95-.96,3.79-2.17,5.69-3.24.27-.15.66-.07,1-.1-.12.27-.19.6-.38.8-2.49,2.71-6.43,4.24-11.11,4.3Z"/>
      <path class="cls-1" d="M59.81,209.15c-1.72,2.3-11.46,3.58-13.42,1.64,4.72-.06,9.22.25,13.42-1.64Z"/>
      <path class="cls-1" d="M198.72,158.64c-1.37,3.45-9.1,7.29-13.36,6.83,2.23-.86,4.76-1.62,7.07-2.81,2.29-1.17,4.37-2.77,6.29-4.02Z"/>
      <path class="cls-1" d="M132.39,199.1c-.25.33-.44.71-.74.98-1.78,1.55-3.97,2.2-6.21,2.65-1.6.32-3.24.41-5.14.64,4.13-1.53,7.94-2.95,11.76-4.37.11.03.23.06.34.1Z"/>
      <path class="cls-1" d="M143.26,148.31c-2,1.84-9.77,2.47-11.45.67,3.92-.23,7.83-.46,11.45-.67Z"/>
      <path class="cls-1" d="M122.5,149.35c.03-.24.13-.5.1-.73-.23-1.8.37-2.74,2.16-2.92,2.1-.22,3.96.74,5.87,1.36-.01.13-.02.25-.03.38-.47.04-.94.12-1.41.1-1.36-.07-2.72-.25-4.09-.27-2.05-.03-2.67.99-1.81,2.83.23.49.47.98.55,1.55-.45-.78-.9-1.55-1.34-2.33v.03Z"/>
      <path class="cls-1" d="M164.23,166.69c2.17-.33,4.4-.47,6.51-1.04,2.1-.57,4.07-1.59,6.1-2.41-1.25,2.46-8.61,4.71-12.5,3.82-.04-.12-.07-.25-.11-.37Z"/>
      <path class="cls-1" d="M195.64,126.9c-.96-.2-1.93-.38-2.89-.6-3.48-.8-6.95-1.61-10.6-2.46,4.84.25,9.45.81,14.05,2.33-.25.31-.43.53-.6.75,0,0,.04-.03.04-.03Z"/>
      <path class="cls-1" d="M303.52,51.42c-4.45-.32-7.96-2.78-11.39-5.41,3.84,1.68,7.69,3.36,11.53,5.04-.05.12-.09.24-.14.37Z"/>
      <path class="cls-1" d="M122.49,149.32c-.4,1.45.5,2.44,1.4,3.24,2.36,2.12,4.84,4.11,7.28,6.15.23.19.48.34.68.57-2.75-.84-5.13-2.34-7.03-4.44-.85-.94-1.73-1.67-2.6-2.19.06-.46.12-.83.15-1.2.05-.7.09-1.4.13-2.1,0,0-.01-.03-.01-.03Z"/>
      <path class="cls-1" d="M217.2,216.86c1.99-1.25,3.98-2.48,5.96-3.74.65-.41,1.23-.94,1.88-1.35.23-.14.58-.09.88-.12-.03.3.04.69-.12.87-.51.57-1.06,1.14-1.69,1.55-2.11,1.35-4.35,2.44-6.9,2.8Z"/>
      <path class="cls-1" d="M174.74,132.95c-3.52.02-7.01.12-10.57-1.05,1.35-1.25,2.66-.64,3.79-.46,2.28.35,4.53.99,6.78,1.52Z"/>
      <path class="cls-1" d="M211.12,180.51c.8-.06,1.6-.07,2.39-.21,3.74-.67,6.95-2.37,9.61-5.11.13-.13.31-.21.61-.4-1.9,3.95-9.66,7.23-14.38,6.23.58-.17,1.19-.35,1.81-.53,0,0-.04.02-.04.02Z"/>
      <path class="cls-1" d="M94.97,120.01c.62-.49.94-.75,1.41-1.13-.72-.1-1.27-.17-1.92-.26.9-.9,3.02-1.57,3.7-1.17.26.15.35.6.6,1.06.26.12.74.34,1.23.55-.02.14-.05.28-.07.41-1.57,0-2.95,1.42-4.95.53Z"/>
      <path class="cls-1" d="M275.26,157.98c-.63-3.53-1.4-6.88-3.83-9.59,2.59-.22,4.91,5.55,3.83,9.59Z"/>
      <path class="cls-1" d="M147.82,214.34c-.94-.2-1.88-.41-2.81-.61.02-.17.04-.35.07-.52,1.14.12,2.29.16,3.4.41.31.07.74.86.65,1.2-.14.54-.56,1.19-1.04,1.42-1.4.69-2.89.51-4.42.12,1.46-.52,2.84-1.01,4.22-1.5-.02-.17-.04-.35-.06-.52Z"/>
      <path class="cls-1" d="M33.89,215.41c1.51,0,3.21.05,4.91-.02,1.59-.06,3.17-.25,4.69-.38-1.25,1.87-8,2.06-9.6.4Z"/>
      <path class="cls-1" d="M273.21,159.98c1.84-.02,3.9,4.86,3.14,7.74-1.07-2.65-2.09-5.15-3.14-7.74Z"/>
      <path class="cls-1" d="M92.54,146.95c1.93-3.33,3.86-6.66,5.95-10.26.2.53.44.87.36,1.01-1.83,2.88-3.69,5.73-5.56,8.59-.18.28-.46.5-.69.75-.02-.03-.04-.05-.06-.08Z"/>
      <path class="cls-1" d="M282.7,171.52c-.13-3.84.1-7.7-2.08-11.45,2.61,2.45,3.82,9.68,2.08,11.45Z"/>
      <path class="cls-1" d="M243.51,153.06h1.97c.23-1.71.49-3.64.76-5.65.45-.09.92-.19,1.86-.38-.88,2.51-1.66,4.73-2.44,6.94-.65-.27-1.4-.59-2.15-.91,0,0,0,0,0,0Z"/>
      <path class="cls-1" d="M148.36,150.48c-1.45,1.72-8.41,1.94-9.46.88,3.12-.29,6.25-.58,9.46-.88Z"/>
      <path class="cls-1" d="M194,173.04c1.76-.6,3.55-1.13,5.27-1.82.94-.38,1.77-1.03,2.87-1.37-.18.28-.3.61-.54.82-1.78,1.61-3.8,2.8-6.23,3.06-.43.05-.91-.45-1.37-.7,0,0,0,0,0,0Z"/>
      <path class="cls-1" d="M280.44,202.1c.71.74-.06,1.1-.44,1.44-2.32,2.11-4.85,3.82-8.35,3.74.98-.32,1.84-.53,2.65-.88.81-.36,1.61-.79,2.32-1.32,1.03-.77,1.95-1.66,2.95-2.48.26-.21.61-.32.91-.47,0,0-.04-.03-.04-.03Z"/>
      <path class="cls-1" d="M263.88,138.13c-1.55-2.06-1.91-7.1-.71-8.48.24,2.91.48,5.69.71,8.48Z"/>
      <path class="cls-1" d="M259.21,113.23c-.19,2.96-.39,5.91-.58,8.87-.14,0-.28-.02-.42-.03-.14-2.98-.38-5.96.27-8.9l.73.06Z"/>
      <path class="cls-1" d="M38.43,207.56c-2.98.26-5.93,1.59-8.95.48,0-.16,0-.32-.01-.48h8.96Z"/>
      <path class="cls-1" d="M192.43,177.59c-2.65,2.52-5.81,3.63-9.29,3.61,3.03-1.18,6.15-2.39,9.29-3.61Z"/>
      <path class="cls-1" d="M166.14,161.55c-2.35,2.01-8.49,4.01-9.71,3.28,3.14-1.06,6.27-2.12,9.71-3.28Z"/>
      <path class="cls-1" d="M219.63,150.37c1.13-1.87,5.55-2.66,6.75-1.04-2.29.35-4.56.71-6.75,1.04Z"/>
      <path class="cls-1" d="M259.26,185.7c1.23-1.81,2.38-3.5,3.56-5.23.61,2.2-1.28,5.03-3.56,5.23Z"/>
      <path class="cls-1" d="M258,128.58c.2,2.92.39,5.77.6,8.81-1.15-1.18-1.55-7.94-.6-8.81Z"/>
      <path class="cls-1" d="M184.53,221.7c-2.77,1.9-5.88,2.79-8.85,3,2.71-1.06,5.72-2.24,8.73-3.42.04.14.08.28.12.42Z"/>
      <path class="cls-1" d="M265.63,39.73c-1.42,1.67-3.24,3.8-5.05,5.93-.21-.16-.42-.31-.63-.47.18-.4.26-.92.56-1.18,1.84-1.59,3.73-3.12,5.13-4.28Z"/>
      <path class="cls-1" d="M210.21,148.41c-2.36,1.03-4.6,2-6.9,3,1.41-2.09,5.31-3.87,6.9-3Z"/>
      <path class="cls-1" d="M106.32,133.09c1.18-2.21,5.59-5.17,7.3-4.89-2.44,1.63-4.93,3.3-7.3,4.89Z"/>
      <path class="cls-1" d="M96.83,196.6c-1.95,1.42-5.63,1.58-6.78.3,2.42-.11,4.6-.2,6.78-.3Z"/>
      <path class="cls-1" d="M240.13,166.68c.74-1.79,1.46-3.56,2.22-5.41.87.48.66,1.24.51,1.96-.34,1.59-1.65,3.26-2.73,3.45Z"/>
      <path class="cls-1" d="M255.32,146.61c-1.43-2.73-1.68-5.69-1.83-8.66.18-.03.36-.07.54-.1.43,2.92.86,5.84,1.29,8.76Z"/>
      <path class="cls-1" d="M112.46,196.29c3.13-.87,6.02-1.67,8.91-2.48.03.12.06.23.09.35-2.76,1.36-5.67,2.13-9,2.13Z"/>
      <path class="cls-1" d="M217.65,144.52c2.37-.72,4.76-1.09,7.2-.13-.49.64-1.16.7-2.04.36-.37-.14-.86-.01-1.29.01-1.29.06-2.57.13-3.86.19,0-.14-.01-.28-.02-.43Z"/>
      <path class="cls-1" d="M230,175.71c1.22-1.29,2.43-2.58,3.67-3.85.11-.12.45-.09.64-.02.07.03.13.41.05.53-1.1,1.58-2.42,2.9-4.37,3.34Z"/>
      <path class="cls-1" d="M294.84,44.3s.01.06.01.06c2.82,1.5,5.65,3.01,8.43,4.49-.13,0-.48.15-.71.03-2.52-1.29-5.02-2.61-7.5-3.95-.15-.08-.16-.41-.23-.63Z"/>
      <path class="cls-1" d="M223.81,186.3c-1.76,2.02-4.13,2.9-6.69,3.41,2.17-1.23,4.34-2.47,6.51-3.7l.17.29Z"/>
      <path class="cls-1" d="M241.59,207.58c-.99,1.86-2.84,2.71-4.48,3.82-.09-.1-.18-.21-.27-.31,1.43-1.34,2.85-2.67,4.28-4.01.16.17.32.33.48.5Z"/>
      <path class="cls-1" d="M237.02,156.89c.67,1.33-.62,3.86-2.85,5.37,1-1.88,1.92-3.6,2.85-5.37Z"/>
      <path class="cls-1" d="M249.74,206.78c-.06.39-.01.84-.2,1.13-.9,1.37-2.26,2.1-4.11,2.77,1.54-1.39,2.8-2.53,4.31-3.9Z"/>
      <path class="cls-1" d="M205.26,209.01c2.05-.96,4.29-2,6.53-3.05-1.86,1.99-4.01,3.26-6.53,3.05Z"/>
      <path class="cls-1" d="M223.6,154.25c1.35-1.45,2.89-2.09,4.62-2.31.21-.03.45.22.68.35-.2.19-.38.46-.62.54-1.46.47-2.94.9-4.68,1.43Z"/>
      <path class="cls-1" d="M239.07,158.9c.93,1.48.09,4.32-1.46,5.19.49-1.74.94-3.34,1.46-5.19Z"/>
      <path class="cls-1" d="M58.12,175.58c-2.47-.18-4.94-.36-7.42-.53l.03-.46c2.47.16,4.95.31,7.42.47-.01.17-.02.35-.04.52Z"/>
      <path class="cls-1" d="M263.58,143.84c.31,1.77.63,3.56.94,5.31-1.49-1.13-2-4.24-.94-5.31Z"/>
      <path class="cls-1" d="M212.13,151.77c-1.83.87-3.58,1.71-5.28,2.51,1.13-1.85,3.46-2.99,5.28-2.51Z"/>
      <path class="cls-1" d="M115.58,131.5c-1.92,1.29-3.77,2.54-5.84,3.94.72-1.58,4.28-3.89,5.84-3.94Z"/>
      <path class="cls-1" d="M138.72,219.98c1.41-.44,2.82-.88,4.22-1.31.05.18.1.35.15.53-2,.69-3.94,1.58-6.35,1.46.79-.28,1.4-.49,2.02-.71,0,0-.04.03-.04.03Z"/>
      <path class="cls-1" d="M237.31,173c.68,1.12-.89,3.19-2.66,3.65.9-1.23,1.73-2.38,2.66-3.65Z"/>
      <path class="cls-1" d="M294.79,38.1c.69.22,1.48.3,2.03.71.94.68,1.73,1.56,2.59,2.36-.08.09-.15.19-.23.28-1.46-1.11-2.93-2.23-4.39-3.34h0Z"/>
      <path class="cls-1" d="M209.01,161.19c1.6-2.01,3.58-3.33,6.02-4-2,1.33-4,2.66-6.02,4Z"/>
      <path class="cls-1" d="M172.32,215.19c1.79-.23,3.47-.45,5.42-.7-1.02,1.02-3.34,1.24-5.42.7Z"/>
      <path class="cls-1" d="M256.38,62.68c-1.04,1.04-1.93,2.25-3.09,3.16-.16-.19-.33-.38-.49-.57,1.11-.97,2.21-1.93,3.32-2.9.09.1.18.21.27.31Z"/>
      <path class="cls-1" d="M243.41,168.59c.61-1.57,1.11-2.83,1.6-4.09.86.7.29,2.33-1.6,4.09Z"/>
      <path class="cls-1" d="M247.4,214.52c.52-1.16,2.44-2.43,3.69-2.02-1.24.66-2.49,1.31-3.73,1.97,0,0,.04.05.04.05Z"/>
      <path class="cls-1" d="M225.79,172.84c.85-.67,1.69-1.37,2.57-2.01.17-.13.49-.05.75-.06-.08.24-.08.61-.25.71-.97.56-1.97,1.06-2.96,1.58-.04-.07-.07-.15-.11-.22Z"/>
      <path class="cls-1" d="M158.91,204.29s-.06-.02-.08-.03c-1.43-.35-2.86-.7-4.29-1.05.05-.2.11-.4.16-.6,1.43.44,2.86.89,4.28,1.34.01,0-.05.21-.07.33Z"/>
      <path class="cls-1" d="M101.72,181.21c1.87.37,3.73.74,5.63,1.12-.59.44-1.99.2-5.63-1.12Z"/>
      <path class="cls-1" d="M295.2,25.37c.69-.25,1.37-.57,2.08-.71.29-.05.65.33.98.51-.31.22-.61.61-.92.63-.69.03-1.39-.13-2.09-.22l-.05-.21Z"/>
      <path class="cls-1" d="M247.4,214.52s-.04-.05-.04-.05c-1.52.87-3.03,1.74-4.55,2.61-.09-.18-.18-.35-.28-.53,1.62-.68,3.24-1.35,4.87-2.03Z"/>
      <path class="cls-1" d="M303.13,28.09c-1.12-.06-2.09-.12-3.17-.18,1.38-1.11,2.74-1.05,3.17.18Z"/>
      <path class="cls-1" d="M220.35,165.42c-1.14.6-2.29,1.2-3.43,1.81-.06-.11-.12-.21-.18-.32,1.11-.66,2.23-1.33,3.34-1.99.09.17.18.34.27.5Z"/>
      <path class="cls-1" d="M294.79,38.1c-.36-.59-.74-1.18-1.09-1.78-.17-.28-.29-.59-.34-.93,1.83,1.21,2.08,1.72,1.43,2.71,0,0,0,0,0,0Z"/>
      <path class="cls-1" d="M213.95,184.54c.67-1.11,2.16-1.23,3.15-1.95-.94.79-1.87,1.57-2.81,2.36-.11-.14-.23-.27-.34-.41Z"/>
      <path class="cls-1" d="M265.08,209.56c.16.24.33.48.57.84-.6.28-1.12.55-1.66.76-.19.07-.44-.04-.66-.06.13-.22.21-.51.39-.65.44-.32.93-.57,1.4-.86,0,0-.04-.03-.04-.03Z"/>
      <path class="cls-1" d="M204.78,194.67c.97-.11,1.94-.22,2.91-.33.02.11.03.22.05.33-.96.21-1.92.41-2.88.62-.02-.21-.05-.42-.07-.63Z"/>
      <path class="cls-1" d="M94.69,163.25q3.65-.37,4.32.22c-1.41-.07-2.87-.14-4.32-.22Z"/>
      <path class="cls-1" d="M93.88,201.01c-1.21.95-1.33.93-1.9,0h1.9Z"/>
      <path class="cls-1" d="M259.57,212.02c1-.28,2.01-.56,2.94-.82-.25.9-1.7,1.38-2.92.83,0,0-.02,0-.02,0Z"/>
      <path class="cls-1" d="M163.18,167.03c-1.09-.24-2.17-.49-3.26-.73,0-.04.02-.08.03-.12,1.1.14,2.21.29,3.31.43-.03.14-.05.28-.08.42Z"/>
      <path class="cls-1" d="M260.4,81.94c-.25,1.32-.5,2.64-.75,3.96-.08-.02-.16-.03-.25-.05.25-1.32.5-2.64.75-3.96.08.02.17.03.25.05Z"/>
      <path class="cls-1" d="M157.12,107.3c-.4-.32-.78-.81-1.28-1-3.45-1.27-6.93-2.48-10.39-3.71-.2-.07-.4-.13-.63-.21,1.88-1.29,11.81,2.82,12.31,4.91Z"/>
      <path class="cls-1" d="M141.98,101.66c-2.52-.23-5.04-.47-7.56-.7,0,.09,0,.17-.01.26h7.59c0,.15,0,.3-.01.44Z"/>
    </g>
  </g>
</svg>